%TF.GenerationSoftware,KiCad,Pcbnew,(6.0.4-0)*%
%TF.CreationDate,2022-05-02T21:47:30-07:00*%
%TF.ProjectId,hcms_dot_display_top,68636d73-5f64-46f7-945f-646973706c61,rev?*%
%TF.SameCoordinates,Original*%
%TF.FileFunction,Copper,L3,Inr*%
%TF.FilePolarity,Positive*%
%FSLAX46Y46*%
G04 Gerber Fmt 4.6, Leading zero omitted, Abs format (unit mm)*
G04 Created by KiCad (PCBNEW (6.0.4-0)) date 2022-05-02 21:47:30*
%MOMM*%
%LPD*%
G01*
G04 APERTURE LIST*
%TA.AperFunction,ComponentPad*%
%ADD10C,1.000000*%
%TD*%
%TA.AperFunction,ComponentPad*%
%ADD11R,1.700000X1.700000*%
%TD*%
%TA.AperFunction,ComponentPad*%
%ADD12O,1.700000X1.700000*%
%TD*%
%TA.AperFunction,ViaPad*%
%ADD13C,0.500000*%
%TD*%
%TA.AperFunction,ViaPad*%
%ADD14C,0.800000*%
%TD*%
%TA.AperFunction,Conductor*%
%ADD15C,0.254000*%
%TD*%
%TA.AperFunction,Conductor*%
%ADD16C,0.152400*%
%TD*%
G04 APERTURE END LIST*
D10*
X145021778Y-114723222D03*
X145021778Y-105073222D03*
X147561778Y-114723222D03*
X147561778Y-105073222D03*
X152641778Y-114723222D03*
X152641778Y-105073222D03*
X155181778Y-114723222D03*
X155181778Y-105073222D03*
X157721778Y-114723222D03*
X157721778Y-105073222D03*
X162801778Y-114723222D03*
X162801778Y-105073222D03*
X165341778Y-114723222D03*
X165341778Y-105073222D03*
X167881778Y-114723222D03*
X167881778Y-105073222D03*
X172961778Y-114723222D03*
X172961778Y-105073222D03*
X175511778Y-114723222D03*
X175511778Y-105073222D03*
X175511778Y-107103222D03*
X175511778Y-97453222D03*
X172961778Y-107103222D03*
X172961778Y-97453222D03*
X167881778Y-107103222D03*
X167881778Y-97453222D03*
X165341778Y-107103222D03*
X165341778Y-97453222D03*
X162801778Y-107103222D03*
X162801778Y-97453222D03*
X157721778Y-107103222D03*
X157721778Y-97453222D03*
X155181778Y-107103222D03*
X155181778Y-97453222D03*
X152641778Y-107103222D03*
X152641778Y-97453222D03*
X147561778Y-107103222D03*
X147561778Y-97453222D03*
X145021778Y-107103222D03*
X145021778Y-97453222D03*
D11*
X147618222Y-100571778D03*
D12*
X150158222Y-100571778D03*
X152698222Y-100571778D03*
X155238222Y-100571778D03*
X157778222Y-100571778D03*
X160318222Y-100571778D03*
X162858222Y-100571778D03*
X165398222Y-100571778D03*
X167938222Y-100571778D03*
X170478222Y-100571778D03*
X173018222Y-100571778D03*
D13*
X145360000Y-109730000D03*
X144380000Y-106220000D03*
X168454002Y-106250608D03*
X166590000Y-102790000D03*
X166240000Y-105980000D03*
D14*
X149290000Y-110800000D03*
X155340000Y-110840000D03*
D13*
X156690000Y-103440000D03*
X156590000Y-98390000D03*
D14*
X161340000Y-110790000D03*
X174320000Y-112270000D03*
X174710000Y-100950000D03*
X154290000Y-112390000D03*
X145880000Y-101710000D03*
X172380000Y-112210000D03*
X150370000Y-112180000D03*
X166340000Y-112340000D03*
X160240000Y-112260000D03*
X167390000Y-110840000D03*
X173340000Y-110840000D03*
D13*
X160490000Y-108040000D03*
X161480000Y-112760000D03*
X156230000Y-115060000D03*
X143040000Y-115490000D03*
X173640000Y-99190000D03*
X171560000Y-111290000D03*
X155390000Y-99140000D03*
X143090000Y-104790000D03*
X174870000Y-103310000D03*
X156810000Y-115460000D03*
X156340000Y-96790000D03*
X175120000Y-102410000D03*
X143090000Y-96740000D03*
X150880000Y-102990000D03*
X168130000Y-112815000D03*
X143455000Y-107115000D03*
X166705000Y-101490000D03*
X156530000Y-105390000D03*
X150930000Y-104115000D03*
X166580000Y-114515000D03*
X155980000Y-102165000D03*
D14*
X143740000Y-114740000D03*
D13*
X150905000Y-108015000D03*
X151880000Y-112015000D03*
X174255000Y-97115000D03*
X164080000Y-114490000D03*
X174190000Y-115040000D03*
X153455000Y-99140000D03*
X176905000Y-97365000D03*
X172680000Y-102640000D03*
X146305000Y-97040000D03*
X143880000Y-97590000D03*
X169705000Y-110890000D03*
X166680000Y-97790000D03*
X157655000Y-102215000D03*
X176830000Y-114515000D03*
X163730000Y-106090000D03*
X143855000Y-105690000D03*
X153955000Y-97165000D03*
X156505000Y-106615000D03*
X163605000Y-112790000D03*
X163780000Y-110990000D03*
D14*
X174140000Y-98390000D03*
X149290000Y-103340000D03*
X164940000Y-98940000D03*
D13*
X157940000Y-108190000D03*
X151740000Y-102590000D03*
X158080000Y-98670000D03*
X151790000Y-108540000D03*
X174860000Y-108510000D03*
X151740000Y-109740000D03*
X158740000Y-111290000D03*
X145810000Y-109090000D03*
X163440000Y-98390000D03*
X156393991Y-97536406D03*
X170590000Y-102790000D03*
X145709440Y-110377100D03*
X164240000Y-98340000D03*
X170230000Y-111490000D03*
X170990000Y-109390000D03*
X171248501Y-104459483D03*
X174850000Y-99070000D03*
X147890000Y-112120000D03*
X147740000Y-98890000D03*
X145890000Y-98840000D03*
X157270000Y-98700000D03*
X158656647Y-109383918D03*
X174870000Y-104210000D03*
X146571355Y-114891744D03*
X153390000Y-103990000D03*
X146490000Y-107590000D03*
X173690000Y-102440000D03*
X173624068Y-103919205D03*
X153840000Y-114790000D03*
X146940000Y-102590000D03*
X157390000Y-109190000D03*
X163390000Y-102240000D03*
X165460000Y-106150000D03*
X165716950Y-108768507D03*
X164840000Y-109390000D03*
X157509785Y-111285191D03*
X145936072Y-104308326D03*
X145790000Y-108140000D03*
X172010514Y-107608336D03*
X177250000Y-104920000D03*
X147153913Y-111180861D03*
X148490000Y-108664300D03*
X174690000Y-113290000D03*
X169500000Y-112780000D03*
X162390000Y-98390000D03*
X156490000Y-104140000D03*
X170090000Y-103940000D03*
X161490000Y-103440000D03*
X169090000Y-109940000D03*
X159890000Y-109740000D03*
X168290000Y-98440000D03*
X159490000Y-106240000D03*
X168940000Y-103240000D03*
D15*
X174320000Y-112270000D02*
X172440000Y-112270000D01*
X172440000Y-112270000D02*
X172380000Y-112210000D01*
D16*
X145830000Y-109730000D02*
X145360000Y-109730000D01*
X145840000Y-109740000D02*
X145830000Y-109730000D01*
X146590000Y-111260000D02*
X146590000Y-110490000D01*
X146590000Y-110490000D02*
X145840000Y-109740000D01*
X145810000Y-109090000D02*
X146460000Y-109740000D01*
X146460000Y-109740000D02*
X151740000Y-109740000D01*
X146590000Y-112650000D02*
X146590000Y-111260000D01*
X148300000Y-112770000D02*
X147530000Y-112770000D01*
X146600000Y-112660000D02*
X146590000Y-112650000D01*
X148820000Y-112250000D02*
X148300000Y-112770000D01*
X147530000Y-112770000D02*
X146710000Y-112770000D01*
X146710000Y-112770000D02*
X146600000Y-112660000D01*
X150557299Y-110107299D02*
X150790000Y-110340000D01*
X152240000Y-110340000D02*
X152840000Y-109740000D01*
X148578240Y-110107299D02*
X150557299Y-110107299D01*
X152840000Y-109740000D02*
X158300565Y-109740000D01*
X150790000Y-110340000D02*
X152240000Y-110340000D01*
X158300565Y-109740000D02*
X158656647Y-109383918D01*
X147890000Y-112120000D02*
X147890000Y-110795539D01*
X147890000Y-110795539D02*
X148578240Y-110107299D01*
X154840000Y-111840000D02*
X154390000Y-111390000D01*
X170180000Y-111540000D02*
X159790000Y-111540000D01*
X159790000Y-111540000D02*
X159490000Y-111840000D01*
X159490000Y-111840000D02*
X154840000Y-111840000D01*
X150190000Y-111390000D02*
X148450000Y-113130000D01*
X148450000Y-113130000D02*
X146450000Y-113130000D01*
X146450000Y-113130000D02*
X146190000Y-112870000D01*
X154390000Y-111390000D02*
X150190000Y-111390000D01*
X146190000Y-111390000D02*
X145709440Y-110909440D01*
X146190000Y-112870000D02*
X146190000Y-111390000D01*
X170230000Y-111490000D02*
X170180000Y-111540000D01*
X145709440Y-110909440D02*
X145709440Y-110377100D01*
X149580000Y-111490000D02*
X148820000Y-112250000D01*
X150200000Y-110910000D02*
X150160000Y-110910000D01*
X150160000Y-110910000D02*
X149580000Y-111490000D01*
X152680000Y-110910000D02*
X150200000Y-110910000D01*
X156070000Y-110160000D02*
X153950000Y-110160000D01*
X158400000Y-110320000D02*
X156230000Y-110320000D01*
X156230000Y-110320000D02*
X156120000Y-110210000D01*
X159310000Y-110320000D02*
X158400000Y-110320000D01*
X159890000Y-109740000D02*
X159310000Y-110320000D01*
X153430000Y-110160000D02*
X152680000Y-110910000D01*
X153950000Y-110160000D02*
X153430000Y-110160000D01*
X156120000Y-110210000D02*
X156070000Y-110160000D01*
X156490000Y-104140000D02*
X155740000Y-103390000D01*
X155740000Y-103390000D02*
X151510000Y-103390000D01*
X146140000Y-105020000D02*
X146140000Y-105370000D01*
X151320000Y-103580000D02*
X150410000Y-103580000D01*
X150410000Y-103580000D02*
X149790000Y-104200000D01*
X149790000Y-104200000D02*
X146960000Y-104200000D01*
X146960000Y-104200000D02*
X146140000Y-105020000D01*
X146140000Y-105370000D02*
X145280000Y-106230000D01*
X144410000Y-106230000D02*
X144400000Y-106220000D01*
X145280000Y-106230000D02*
X144410000Y-106230000D01*
X151510000Y-103390000D02*
X151320000Y-103580000D01*
X144400000Y-106220000D02*
X144380000Y-106220000D01*
X166240000Y-105980000D02*
X166540000Y-106280000D01*
X166540000Y-106280000D02*
X166540000Y-107790000D01*
X166540000Y-107790000D02*
X166442732Y-107887268D01*
X166442732Y-107887268D02*
X161187268Y-107887268D01*
X161187268Y-107887268D02*
X160490000Y-107190000D01*
X160490000Y-107190000D02*
X159340000Y-107190000D01*
X159340000Y-107190000D02*
X158140000Y-105990000D01*
X158140000Y-105990000D02*
X146560000Y-105990000D01*
X146560000Y-105990000D02*
X145545000Y-107005000D01*
X145545000Y-107005000D02*
X145000000Y-107005000D01*
X166436318Y-106176318D02*
X168379712Y-106176318D01*
X168379712Y-106176318D02*
X168454002Y-106250608D01*
X166240000Y-105980000D02*
X166436318Y-106176318D01*
X156590000Y-98390000D02*
X156430000Y-98230000D01*
X156430000Y-98230000D02*
X146280000Y-98230000D01*
X146280000Y-98230000D02*
X145405000Y-97355000D01*
X145405000Y-97355000D02*
X145000000Y-97355000D01*
D15*
X150370000Y-112180000D02*
X150830000Y-112640000D01*
X154290000Y-112390000D02*
X154360000Y-112320000D01*
X150830000Y-112640000D02*
X154040011Y-112640000D01*
X166510000Y-112170000D02*
X166340000Y-112340000D01*
X154240000Y-112440000D02*
X154290000Y-112390000D01*
X154360000Y-112320000D02*
X160180000Y-112320000D01*
X154040011Y-112640000D02*
X154240007Y-112440004D01*
X160180000Y-112320000D02*
X160240000Y-112260000D01*
X172340000Y-112170000D02*
X166510000Y-112170000D01*
X172380000Y-112210000D02*
X172340000Y-112170000D01*
X160410000Y-112090000D02*
X166090000Y-112090000D01*
X160240000Y-112260000D02*
X160410000Y-112090000D01*
X166090000Y-112090000D02*
X166340000Y-112340000D01*
D16*
X160690000Y-108240000D02*
X160490000Y-108040000D01*
X170240000Y-108140000D02*
X169490000Y-108890000D01*
X169490000Y-108890000D02*
X166740000Y-108890000D01*
X174355000Y-108140000D02*
X170240000Y-108140000D01*
X166090000Y-108240000D02*
X160690000Y-108240000D01*
X175490000Y-107005000D02*
X174355000Y-108140000D01*
X166740000Y-108890000D02*
X166090000Y-108240000D01*
X164250000Y-99420000D02*
X165395000Y-100565000D01*
X166790000Y-99140000D02*
X173590000Y-99140000D01*
X143100000Y-115550000D02*
X143040000Y-115490000D01*
X165395000Y-100535000D02*
X166790000Y-99140000D01*
X173590000Y-99140000D02*
X173640000Y-99190000D01*
X155740000Y-115550000D02*
X143100000Y-115550000D01*
X156230000Y-115060000D02*
X155740000Y-115550000D01*
X165395000Y-100565000D02*
X165395000Y-100535000D01*
X155390000Y-99140000D02*
X155670000Y-99420000D01*
X155670000Y-99420000D02*
X164250000Y-99420000D01*
X156690000Y-96490000D02*
X166995000Y-96490000D01*
X169210000Y-101840000D02*
X167935000Y-100565000D01*
X143340000Y-96490000D02*
X143090000Y-96740000D01*
X156040000Y-96490000D02*
X155990000Y-96490000D01*
X174550000Y-101840000D02*
X169210000Y-101840000D01*
X166995000Y-96490000D02*
X167860000Y-97355000D01*
X156390000Y-96790000D02*
X156690000Y-96490000D01*
X175120000Y-102410000D02*
X174550000Y-101840000D01*
X156340000Y-96790000D02*
X156390000Y-96790000D01*
X155990000Y-96490000D02*
X143340000Y-96490000D01*
X156340000Y-96790000D02*
X156040000Y-96490000D01*
X162840000Y-98990000D02*
X163440000Y-98390000D01*
X157940000Y-108190000D02*
X152140000Y-108190000D01*
X151740000Y-102590000D02*
X154490000Y-102590000D01*
X160540000Y-108840000D02*
X159890000Y-108190000D01*
X170649047Y-108530953D02*
X169781894Y-109398106D01*
X158080000Y-98670000D02*
X158400000Y-98990000D01*
X159890000Y-108190000D02*
X157940000Y-108190000D01*
X160540000Y-108818418D02*
X160540000Y-108840000D01*
X169781894Y-109398106D02*
X165593628Y-109398106D01*
X155235000Y-101845000D02*
X155235000Y-100565000D01*
X154490000Y-102590000D02*
X155235000Y-101845000D01*
X165013940Y-108818418D02*
X160540000Y-108818418D01*
X158400000Y-98990000D02*
X162840000Y-98990000D01*
X174860000Y-108510000D02*
X174839047Y-108530953D01*
X174839047Y-108530953D02*
X170649047Y-108530953D01*
X165593628Y-109398106D02*
X165013940Y-108818418D01*
X152140000Y-108190000D02*
X151790000Y-108540000D01*
X170590000Y-102790000D02*
X170040000Y-102240000D01*
X170040000Y-102240000D02*
X164530000Y-102240000D01*
X164530000Y-102240000D02*
X162855000Y-100565000D01*
X160040000Y-102890000D02*
X157775000Y-100625000D01*
X156134508Y-98934508D02*
X155790000Y-98590000D01*
X170390000Y-103390000D02*
X169690000Y-102690000D01*
X167940000Y-103390000D02*
X163940000Y-103390000D01*
X157035492Y-98934508D02*
X156134508Y-98934508D01*
X174870000Y-104210000D02*
X174050000Y-103390000D01*
X174050000Y-103390000D02*
X170390000Y-103390000D01*
X169690000Y-102690000D02*
X168640000Y-102690000D01*
X163440000Y-102890000D02*
X160040000Y-102890000D01*
X157270000Y-98700000D02*
X157035492Y-98934508D01*
X155790000Y-98590000D02*
X148040000Y-98590000D01*
X163940000Y-103390000D02*
X163440000Y-102890000D01*
X145940000Y-98890000D02*
X147740000Y-98890000D01*
X157775000Y-100625000D02*
X157775000Y-100565000D01*
X168640000Y-102690000D02*
X167940000Y-103390000D01*
X148040000Y-98590000D02*
X147740000Y-98890000D01*
X145890000Y-98840000D02*
X145940000Y-98890000D01*
X169490000Y-104140000D02*
X169840000Y-104490000D01*
X169840000Y-104490000D02*
X170390000Y-104490000D01*
X170960795Y-103919205D02*
X173624068Y-103919205D01*
X146571355Y-114478645D02*
X146571355Y-114891744D01*
X156740000Y-104740000D02*
X157340000Y-104140000D01*
X153290000Y-113890000D02*
X147160000Y-113890000D01*
X147390000Y-102140000D02*
X151140000Y-102140000D01*
X155440000Y-103990000D02*
X156190000Y-104740000D01*
X147160000Y-113890000D02*
X146571355Y-114478645D01*
X153840000Y-114440000D02*
X153290000Y-113890000D01*
X153840000Y-114790000D02*
X153840000Y-114440000D01*
X153390000Y-103990000D02*
X155440000Y-103990000D01*
X152695000Y-100585000D02*
X152695000Y-100565000D01*
X157340000Y-104140000D02*
X169490000Y-104140000D01*
X146940000Y-102590000D02*
X147390000Y-102140000D01*
X156190000Y-104740000D02*
X156740000Y-104740000D01*
X151140000Y-102140000D02*
X152695000Y-100585000D01*
X170390000Y-104490000D02*
X170960795Y-103919205D01*
X163390000Y-102240000D02*
X163340000Y-102190000D01*
X157390000Y-109190000D02*
X157390000Y-108790000D01*
X160740000Y-102190000D02*
X160340000Y-101790000D01*
X157440000Y-108740000D02*
X152890000Y-108740000D01*
X152890000Y-108740000D02*
X152440000Y-109190000D01*
X163340000Y-102190000D02*
X160740000Y-102190000D01*
X160490000Y-109390000D02*
X159840000Y-108740000D01*
X159840000Y-108740000D02*
X157440000Y-108740000D01*
X160340000Y-100590000D02*
X160315000Y-100565000D01*
X152440000Y-109190000D02*
X146840000Y-109190000D01*
X164840000Y-109390000D02*
X160490000Y-109390000D01*
X157390000Y-108790000D02*
X157440000Y-108740000D01*
X146840000Y-109190000D02*
X145790000Y-108140000D01*
X160340000Y-101790000D02*
X160340000Y-100590000D01*
X170010000Y-113290000D02*
X174690000Y-113290000D01*
X169500000Y-112780000D02*
X170010000Y-113290000D01*
X163776840Y-103776840D02*
X163440000Y-103440000D01*
X169926840Y-103776840D02*
X163776840Y-103776840D01*
X156840000Y-104090000D02*
X156790000Y-104140000D01*
X170090000Y-103940000D02*
X169926840Y-103776840D01*
X157490000Y-103440000D02*
X156840000Y-104090000D01*
X163440000Y-103440000D02*
X161490000Y-103440000D01*
X161490000Y-103440000D02*
X157490000Y-103440000D01*
X156790000Y-104140000D02*
X156490000Y-104140000D01*
X160090000Y-109940000D02*
X159890000Y-109740000D01*
X169090000Y-109940000D02*
X160090000Y-109940000D01*
%TA.AperFunction,Conductor*%
G36*
X177727621Y-96454502D02*
G01*
X177774114Y-96508158D01*
X177785500Y-96560500D01*
X177785500Y-104435343D01*
X177765498Y-104503464D01*
X177711842Y-104549957D01*
X177641568Y-104560061D01*
X177585944Y-104534547D01*
X177585056Y-104535918D01*
X177471324Y-104462200D01*
X177471322Y-104462199D01*
X177463790Y-104457317D01*
X177455170Y-104454739D01*
X177333938Y-104418482D01*
X177333936Y-104418482D01*
X177325337Y-104415910D01*
X177316363Y-104415855D01*
X177316361Y-104415855D01*
X177253082Y-104415469D01*
X177180827Y-104415028D01*
X177172196Y-104417495D01*
X177172194Y-104417495D01*
X177050509Y-104452272D01*
X177050505Y-104452274D01*
X177041879Y-104454739D01*
X177034292Y-104459526D01*
X177034290Y-104459527D01*
X176932790Y-104523569D01*
X176919661Y-104531853D01*
X176913718Y-104538582D01*
X176913717Y-104538583D01*
X176862477Y-104596602D01*
X176823999Y-104640170D01*
X176820185Y-104648293D01*
X176820184Y-104648295D01*
X176812362Y-104664956D01*
X176762583Y-104770982D01*
X176761203Y-104779846D01*
X176761202Y-104779849D01*
X176745907Y-104878084D01*
X176740350Y-104913773D01*
X176741514Y-104922675D01*
X176741514Y-104922678D01*
X176751726Y-105000768D01*
X176759088Y-105057065D01*
X176817289Y-105189339D01*
X176823063Y-105196208D01*
X176875534Y-105258629D01*
X176910276Y-105299960D01*
X176917747Y-105304933D01*
X176917748Y-105304934D01*
X177023101Y-105375063D01*
X177023103Y-105375064D01*
X177030574Y-105380037D01*
X177039138Y-105382713D01*
X177039141Y-105382714D01*
X177092124Y-105399267D01*
X177168510Y-105423132D01*
X177312998Y-105425780D01*
X177371213Y-105409909D01*
X177443763Y-105390130D01*
X177443765Y-105390129D01*
X177452422Y-105387769D01*
X177575572Y-105312154D01*
X177580067Y-105307188D01*
X177644204Y-105279518D01*
X177714249Y-105291102D01*
X177766912Y-105338717D01*
X177785500Y-105404586D01*
X177785500Y-115609500D01*
X177765498Y-115677621D01*
X177711842Y-115724114D01*
X177659500Y-115735500D01*
X157424250Y-115735500D01*
X157356129Y-115715498D01*
X157309636Y-115661842D01*
X157299996Y-115588594D01*
X157309095Y-115534514D01*
X157340123Y-115470656D01*
X157400749Y-115433710D01*
X157477269Y-115437322D01*
X157538093Y-115459942D01*
X157545074Y-115460873D01*
X157545076Y-115460874D01*
X157698896Y-115481398D01*
X157698900Y-115481398D01*
X157705877Y-115482329D01*
X157712888Y-115481691D01*
X157712892Y-115481691D01*
X157867430Y-115467627D01*
X157874451Y-115466988D01*
X158035437Y-115414680D01*
X158124977Y-115361304D01*
X158174782Y-115331614D01*
X158174784Y-115331613D01*
X158180834Y-115328006D01*
X158303416Y-115211274D01*
X158312639Y-115197393D01*
X158393188Y-115076157D01*
X158393189Y-115076155D01*
X158397089Y-115070285D01*
X158457198Y-114912046D01*
X158467939Y-114835617D01*
X158480205Y-114748345D01*
X158480205Y-114748340D01*
X158480756Y-114744422D01*
X158481052Y-114723222D01*
X158479863Y-114712621D01*
X162042578Y-114712621D01*
X162059096Y-114881084D01*
X162112526Y-115041701D01*
X162116175Y-115047726D01*
X162190203Y-115169960D01*
X162200213Y-115186489D01*
X162205104Y-115191554D01*
X162205105Y-115191555D01*
X162226816Y-115214037D01*
X162317799Y-115308253D01*
X162459438Y-115400939D01*
X162618093Y-115459942D01*
X162625074Y-115460873D01*
X162625076Y-115460874D01*
X162778896Y-115481398D01*
X162778900Y-115481398D01*
X162785877Y-115482329D01*
X162792888Y-115481691D01*
X162792892Y-115481691D01*
X162947430Y-115467627D01*
X162954451Y-115466988D01*
X163115437Y-115414680D01*
X163204977Y-115361304D01*
X163254782Y-115331614D01*
X163254784Y-115331613D01*
X163260834Y-115328006D01*
X163383416Y-115211274D01*
X163392639Y-115197393D01*
X163473188Y-115076157D01*
X163473189Y-115076155D01*
X163477089Y-115070285D01*
X163537198Y-114912046D01*
X163547939Y-114835617D01*
X163560205Y-114748345D01*
X163560205Y-114748340D01*
X163560756Y-114744422D01*
X163561052Y-114723222D01*
X163559863Y-114712621D01*
X164582578Y-114712621D01*
X164599096Y-114881084D01*
X164652526Y-115041701D01*
X164656175Y-115047726D01*
X164730203Y-115169960D01*
X164740213Y-115186489D01*
X164745104Y-115191554D01*
X164745105Y-115191555D01*
X164766816Y-115214037D01*
X164857799Y-115308253D01*
X164999438Y-115400939D01*
X165158093Y-115459942D01*
X165165074Y-115460873D01*
X165165076Y-115460874D01*
X165318896Y-115481398D01*
X165318900Y-115481398D01*
X165325877Y-115482329D01*
X165332888Y-115481691D01*
X165332892Y-115481691D01*
X165487430Y-115467627D01*
X165494451Y-115466988D01*
X165655437Y-115414680D01*
X165744977Y-115361304D01*
X165794782Y-115331614D01*
X165794784Y-115331613D01*
X165800834Y-115328006D01*
X165923416Y-115211274D01*
X165932639Y-115197393D01*
X166013188Y-115076157D01*
X166013189Y-115076155D01*
X166017089Y-115070285D01*
X166077198Y-114912046D01*
X166087939Y-114835617D01*
X166100205Y-114748345D01*
X166100205Y-114748340D01*
X166100756Y-114744422D01*
X166101052Y-114723222D01*
X166099863Y-114712621D01*
X167122578Y-114712621D01*
X167139096Y-114881084D01*
X167192526Y-115041701D01*
X167196175Y-115047726D01*
X167270203Y-115169960D01*
X167280213Y-115186489D01*
X167285104Y-115191554D01*
X167285105Y-115191555D01*
X167306816Y-115214037D01*
X167397799Y-115308253D01*
X167539438Y-115400939D01*
X167698093Y-115459942D01*
X167705074Y-115460873D01*
X167705076Y-115460874D01*
X167858896Y-115481398D01*
X167858900Y-115481398D01*
X167865877Y-115482329D01*
X167872888Y-115481691D01*
X167872892Y-115481691D01*
X168027430Y-115467627D01*
X168034451Y-115466988D01*
X168195437Y-115414680D01*
X168284977Y-115361304D01*
X168334782Y-115331614D01*
X168334784Y-115331613D01*
X168340834Y-115328006D01*
X168463416Y-115211274D01*
X168472639Y-115197393D01*
X168553188Y-115076157D01*
X168553189Y-115076155D01*
X168557089Y-115070285D01*
X168617198Y-114912046D01*
X168627939Y-114835617D01*
X168640205Y-114748345D01*
X168640205Y-114748340D01*
X168640756Y-114744422D01*
X168641052Y-114723222D01*
X168639863Y-114712621D01*
X172202578Y-114712621D01*
X172219096Y-114881084D01*
X172272526Y-115041701D01*
X172276175Y-115047726D01*
X172350203Y-115169960D01*
X172360213Y-115186489D01*
X172365104Y-115191554D01*
X172365105Y-115191555D01*
X172386816Y-115214037D01*
X172477799Y-115308253D01*
X172619438Y-115400939D01*
X172778093Y-115459942D01*
X172785074Y-115460873D01*
X172785076Y-115460874D01*
X172938896Y-115481398D01*
X172938900Y-115481398D01*
X172945877Y-115482329D01*
X172952888Y-115481691D01*
X172952892Y-115481691D01*
X173107430Y-115467627D01*
X173114451Y-115466988D01*
X173275437Y-115414680D01*
X173364977Y-115361304D01*
X173414782Y-115331614D01*
X173414784Y-115331613D01*
X173420834Y-115328006D01*
X173543416Y-115211274D01*
X173552639Y-115197393D01*
X173633188Y-115076157D01*
X173633189Y-115076155D01*
X173637089Y-115070285D01*
X173697198Y-114912046D01*
X173707939Y-114835617D01*
X173720205Y-114748345D01*
X173720205Y-114748340D01*
X173720756Y-114744422D01*
X173721052Y-114723222D01*
X173719863Y-114712621D01*
X174752578Y-114712621D01*
X174769096Y-114881084D01*
X174822526Y-115041701D01*
X174826175Y-115047726D01*
X174900203Y-115169960D01*
X174910213Y-115186489D01*
X174915104Y-115191554D01*
X174915105Y-115191555D01*
X174936816Y-115214037D01*
X175027799Y-115308253D01*
X175169438Y-115400939D01*
X175328093Y-115459942D01*
X175335074Y-115460873D01*
X175335076Y-115460874D01*
X175488896Y-115481398D01*
X175488900Y-115481398D01*
X175495877Y-115482329D01*
X175502888Y-115481691D01*
X175502892Y-115481691D01*
X175657430Y-115467627D01*
X175664451Y-115466988D01*
X175825437Y-115414680D01*
X175914977Y-115361304D01*
X175964782Y-115331614D01*
X175964784Y-115331613D01*
X175970834Y-115328006D01*
X176093416Y-115211274D01*
X176102639Y-115197393D01*
X176183188Y-115076157D01*
X176183189Y-115076155D01*
X176187089Y-115070285D01*
X176247198Y-114912046D01*
X176257939Y-114835617D01*
X176270205Y-114748345D01*
X176270205Y-114748340D01*
X176270756Y-114744422D01*
X176271052Y-114723222D01*
X176262455Y-114646579D01*
X176252969Y-114562002D01*
X176252968Y-114561999D01*
X176252184Y-114555006D01*
X176196516Y-114395151D01*
X176106816Y-114251601D01*
X176089926Y-114234592D01*
X176006593Y-114150676D01*
X175987542Y-114131491D01*
X175844622Y-114040791D01*
X175817220Y-114031034D01*
X175691794Y-113986371D01*
X175691789Y-113986370D01*
X175685159Y-113984009D01*
X175678173Y-113983176D01*
X175678169Y-113983175D01*
X175559065Y-113968973D01*
X175517079Y-113963967D01*
X175510076Y-113964703D01*
X175510075Y-113964703D01*
X175355743Y-113980923D01*
X175355739Y-113980924D01*
X175348735Y-113981660D01*
X175342064Y-113983931D01*
X175195165Y-114033939D01*
X175195162Y-114033940D01*
X175188495Y-114036210D01*
X175182497Y-114039900D01*
X175182495Y-114039901D01*
X175050321Y-114121215D01*
X175050319Y-114121217D01*
X175044322Y-114124906D01*
X174923383Y-114243339D01*
X174919572Y-114249253D01*
X174919570Y-114249255D01*
X174886357Y-114300791D01*
X174831687Y-114385622D01*
X174824300Y-114405918D01*
X174776203Y-114538062D01*
X174776202Y-114538066D01*
X174773793Y-114544685D01*
X174752578Y-114712621D01*
X173719863Y-114712621D01*
X173712455Y-114646579D01*
X173702969Y-114562002D01*
X173702968Y-114561999D01*
X173702184Y-114555006D01*
X173646516Y-114395151D01*
X173556816Y-114251601D01*
X173539926Y-114234592D01*
X173456593Y-114150676D01*
X173437542Y-114131491D01*
X173294622Y-114040791D01*
X173267220Y-114031034D01*
X173141794Y-113986371D01*
X173141789Y-113986370D01*
X173135159Y-113984009D01*
X173128173Y-113983176D01*
X173128169Y-113983175D01*
X173009065Y-113968973D01*
X172967079Y-113963967D01*
X172960076Y-113964703D01*
X172960075Y-113964703D01*
X172805743Y-113980923D01*
X172805739Y-113980924D01*
X172798735Y-113981660D01*
X172792064Y-113983931D01*
X172645165Y-114033939D01*
X172645162Y-114033940D01*
X172638495Y-114036210D01*
X172632497Y-114039900D01*
X172632495Y-114039901D01*
X172500321Y-114121215D01*
X172500319Y-114121217D01*
X172494322Y-114124906D01*
X172373383Y-114243339D01*
X172369572Y-114249253D01*
X172369570Y-114249255D01*
X172336357Y-114300791D01*
X172281687Y-114385622D01*
X172274300Y-114405918D01*
X172226203Y-114538062D01*
X172226202Y-114538066D01*
X172223793Y-114544685D01*
X172202578Y-114712621D01*
X168639863Y-114712621D01*
X168632455Y-114646579D01*
X168622969Y-114562002D01*
X168622968Y-114561999D01*
X168622184Y-114555006D01*
X168566516Y-114395151D01*
X168476816Y-114251601D01*
X168459926Y-114234592D01*
X168376593Y-114150676D01*
X168357542Y-114131491D01*
X168214622Y-114040791D01*
X168187220Y-114031034D01*
X168061794Y-113986371D01*
X168061789Y-113986370D01*
X168055159Y-113984009D01*
X168048173Y-113983176D01*
X168048169Y-113983175D01*
X167929065Y-113968973D01*
X167887079Y-113963967D01*
X167880076Y-113964703D01*
X167880075Y-113964703D01*
X167725743Y-113980923D01*
X167725739Y-113980924D01*
X167718735Y-113981660D01*
X167712064Y-113983931D01*
X167565165Y-114033939D01*
X167565162Y-114033940D01*
X167558495Y-114036210D01*
X167552497Y-114039900D01*
X167552495Y-114039901D01*
X167420321Y-114121215D01*
X167420319Y-114121217D01*
X167414322Y-114124906D01*
X167293383Y-114243339D01*
X167289572Y-114249253D01*
X167289570Y-114249255D01*
X167256357Y-114300791D01*
X167201687Y-114385622D01*
X167194300Y-114405918D01*
X167146203Y-114538062D01*
X167146202Y-114538066D01*
X167143793Y-114544685D01*
X167122578Y-114712621D01*
X166099863Y-114712621D01*
X166092455Y-114646579D01*
X166082969Y-114562002D01*
X166082968Y-114561999D01*
X166082184Y-114555006D01*
X166026516Y-114395151D01*
X165936816Y-114251601D01*
X165919926Y-114234592D01*
X165836593Y-114150676D01*
X165817542Y-114131491D01*
X165674622Y-114040791D01*
X165647220Y-114031034D01*
X165521794Y-113986371D01*
X165521789Y-113986370D01*
X165515159Y-113984009D01*
X165508173Y-113983176D01*
X165508169Y-113983175D01*
X165389065Y-113968973D01*
X165347079Y-113963967D01*
X165340076Y-113964703D01*
X165340075Y-113964703D01*
X165185743Y-113980923D01*
X165185739Y-113980924D01*
X165178735Y-113981660D01*
X165172064Y-113983931D01*
X165025165Y-114033939D01*
X165025162Y-114033940D01*
X165018495Y-114036210D01*
X165012497Y-114039900D01*
X165012495Y-114039901D01*
X164880321Y-114121215D01*
X164880319Y-114121217D01*
X164874322Y-114124906D01*
X164753383Y-114243339D01*
X164749572Y-114249253D01*
X164749570Y-114249255D01*
X164716357Y-114300791D01*
X164661687Y-114385622D01*
X164654300Y-114405918D01*
X164606203Y-114538062D01*
X164606202Y-114538066D01*
X164603793Y-114544685D01*
X164582578Y-114712621D01*
X163559863Y-114712621D01*
X163552455Y-114646579D01*
X163542969Y-114562002D01*
X163542968Y-114561999D01*
X163542184Y-114555006D01*
X163486516Y-114395151D01*
X163396816Y-114251601D01*
X163379926Y-114234592D01*
X163296593Y-114150676D01*
X163277542Y-114131491D01*
X163134622Y-114040791D01*
X163107220Y-114031034D01*
X162981794Y-113986371D01*
X162981789Y-113986370D01*
X162975159Y-113984009D01*
X162968173Y-113983176D01*
X162968169Y-113983175D01*
X162849065Y-113968973D01*
X162807079Y-113963967D01*
X162800076Y-113964703D01*
X162800075Y-113964703D01*
X162645743Y-113980923D01*
X162645739Y-113980924D01*
X162638735Y-113981660D01*
X162632064Y-113983931D01*
X162485165Y-114033939D01*
X162485162Y-114033940D01*
X162478495Y-114036210D01*
X162472497Y-114039900D01*
X162472495Y-114039901D01*
X162340321Y-114121215D01*
X162340319Y-114121217D01*
X162334322Y-114124906D01*
X162213383Y-114243339D01*
X162209572Y-114249253D01*
X162209570Y-114249255D01*
X162176357Y-114300791D01*
X162121687Y-114385622D01*
X162114300Y-114405918D01*
X162066203Y-114538062D01*
X162066202Y-114538066D01*
X162063793Y-114544685D01*
X162042578Y-114712621D01*
X158479863Y-114712621D01*
X158472455Y-114646579D01*
X158462969Y-114562002D01*
X158462968Y-114561999D01*
X158462184Y-114555006D01*
X158406516Y-114395151D01*
X158316816Y-114251601D01*
X158299926Y-114234592D01*
X158216593Y-114150676D01*
X158197542Y-114131491D01*
X158054622Y-114040791D01*
X158027220Y-114031034D01*
X157901794Y-113986371D01*
X157901789Y-113986370D01*
X157895159Y-113984009D01*
X157888173Y-113983176D01*
X157888169Y-113983175D01*
X157769065Y-113968973D01*
X157727079Y-113963967D01*
X157720076Y-113964703D01*
X157720075Y-113964703D01*
X157565743Y-113980923D01*
X157565739Y-113980924D01*
X157558735Y-113981660D01*
X157552064Y-113983931D01*
X157405165Y-114033939D01*
X157405162Y-114033940D01*
X157398495Y-114036210D01*
X157392497Y-114039900D01*
X157392495Y-114039901D01*
X157260321Y-114121215D01*
X157260319Y-114121217D01*
X157254322Y-114124906D01*
X157133383Y-114243339D01*
X157129572Y-114249253D01*
X157129570Y-114249255D01*
X157096357Y-114300791D01*
X157041687Y-114385622D01*
X157034300Y-114405918D01*
X156986203Y-114538062D01*
X156986202Y-114538066D01*
X156983793Y-114544685D01*
X156962578Y-114712621D01*
X156972850Y-114817380D01*
X156959591Y-114887128D01*
X156910728Y-114938635D01*
X156846681Y-114955674D01*
X156817081Y-114955493D01*
X156749083Y-114935074D01*
X156703150Y-114881646D01*
X156659388Y-114785395D01*
X156653530Y-114778596D01*
X156653527Y-114778592D01*
X156570916Y-114682718D01*
X156570913Y-114682716D01*
X156565056Y-114675918D01*
X156504423Y-114636617D01*
X156451324Y-114602200D01*
X156451322Y-114602199D01*
X156443790Y-114597317D01*
X156435170Y-114594739D01*
X156313938Y-114558482D01*
X156313936Y-114558482D01*
X156305337Y-114555910D01*
X156296363Y-114555855D01*
X156296361Y-114555855D01*
X156233082Y-114555469D01*
X156160827Y-114555028D01*
X156152196Y-114557495D01*
X156152194Y-114557495D01*
X156058257Y-114584342D01*
X155987262Y-114583829D01*
X155927815Y-114545015D01*
X155904642Y-114504631D01*
X155868834Y-114401806D01*
X155868832Y-114401802D01*
X155866516Y-114395151D01*
X155776816Y-114251601D01*
X155759926Y-114234592D01*
X155676593Y-114150676D01*
X155657542Y-114131491D01*
X155514622Y-114040791D01*
X155487220Y-114031034D01*
X155361794Y-113986371D01*
X155361789Y-113986370D01*
X155355159Y-113984009D01*
X155348173Y-113983176D01*
X155348169Y-113983175D01*
X155229065Y-113968973D01*
X155187079Y-113963967D01*
X155180076Y-113964703D01*
X155180075Y-113964703D01*
X155025743Y-113980923D01*
X155025739Y-113980924D01*
X155018735Y-113981660D01*
X155012064Y-113983931D01*
X154865165Y-114033939D01*
X154865162Y-114033940D01*
X154858495Y-114036210D01*
X154852497Y-114039900D01*
X154852495Y-114039901D01*
X154720321Y-114121215D01*
X154720319Y-114121217D01*
X154714322Y-114124906D01*
X154593383Y-114243339D01*
X154589572Y-114249253D01*
X154589570Y-114249255D01*
X154556357Y-114300791D01*
X154501687Y-114385622D01*
X154473020Y-114464384D01*
X154430928Y-114521552D01*
X154364607Y-114546890D01*
X154295116Y-114532350D01*
X154259168Y-114503534D01*
X154191211Y-114424666D01*
X154164976Y-114375097D01*
X154164614Y-114373749D01*
X154162216Y-114362949D01*
X154157465Y-114336003D01*
X154157465Y-114336002D01*
X154155551Y-114325149D01*
X154150040Y-114315604D01*
X154148770Y-114312114D01*
X154147194Y-114308735D01*
X154144340Y-114298083D01*
X154122322Y-114266639D01*
X154116426Y-114257383D01*
X154102751Y-114233698D01*
X154097239Y-114224151D01*
X154088796Y-114217066D01*
X154088793Y-114217063D01*
X154067836Y-114199478D01*
X154059732Y-114192052D01*
X153537948Y-113670268D01*
X153530522Y-113662164D01*
X153512936Y-113641206D01*
X153512933Y-113641204D01*
X153505849Y-113632761D01*
X153472625Y-113613578D01*
X153463355Y-113607673D01*
X153440950Y-113591985D01*
X153440947Y-113591984D01*
X153431916Y-113585660D01*
X153421267Y-113582806D01*
X153417889Y-113581231D01*
X153414396Y-113579960D01*
X153404851Y-113574449D01*
X153393998Y-113572535D01*
X153393997Y-113572535D01*
X153382900Y-113570578D01*
X153367053Y-113567784D01*
X153356339Y-113565409D01*
X153319267Y-113555476D01*
X153308292Y-113556436D01*
X153308291Y-113556436D01*
X153281032Y-113558821D01*
X153270051Y-113559300D01*
X148792570Y-113559300D01*
X148724449Y-113539298D01*
X148677956Y-113485642D01*
X148667852Y-113415368D01*
X148697346Y-113350788D01*
X148703461Y-113344219D01*
X149588306Y-112459375D01*
X149650616Y-112425351D01*
X149721432Y-112430416D01*
X149778267Y-112472963D01*
X149782321Y-112479475D01*
X149782553Y-112479319D01*
X149850592Y-112580571D01*
X149870908Y-112610805D01*
X149876527Y-112615918D01*
X149876528Y-112615919D01*
X149969817Y-112700805D01*
X149988076Y-112717419D01*
X150127293Y-112793008D01*
X150280522Y-112833207D01*
X150363752Y-112834514D01*
X150435519Y-112835642D01*
X150503317Y-112856711D01*
X150530651Y-112884417D01*
X150531271Y-112883853D01*
X150538281Y-112891557D01*
X150543929Y-112900304D01*
X150552104Y-112906748D01*
X150552106Y-112906751D01*
X150570472Y-112921229D01*
X150574950Y-112925208D01*
X150575010Y-112925137D01*
X150578967Y-112928490D01*
X150582648Y-112932171D01*
X150586880Y-112935195D01*
X150586882Y-112935197D01*
X150598457Y-112943469D01*
X150603202Y-112947032D01*
X150643670Y-112978934D01*
X150652355Y-112981984D01*
X150659842Y-112987334D01*
X150709247Y-113002109D01*
X150714842Y-113003927D01*
X150763502Y-113021016D01*
X150769091Y-113021500D01*
X150771804Y-113021500D01*
X150774469Y-113021615D01*
X150774532Y-113021634D01*
X150774525Y-113021808D01*
X150775271Y-113021855D01*
X150781524Y-113023725D01*
X150831383Y-113021766D01*
X150835678Y-113021597D01*
X150840625Y-113021500D01*
X153985876Y-113021500D01*
X154010175Y-113024086D01*
X154011613Y-113024154D01*
X154021791Y-113026345D01*
X154055352Y-113022373D01*
X154061331Y-113022021D01*
X154061323Y-113021928D01*
X154066501Y-113021500D01*
X154071703Y-113021500D01*
X154076836Y-113020646D01*
X154082010Y-113020218D01*
X154082128Y-113021642D01*
X154125966Y-113023648D01*
X154193165Y-113041278D01*
X154193174Y-113041279D01*
X154200522Y-113043207D01*
X154284477Y-113044526D01*
X154351319Y-113045576D01*
X154351322Y-113045576D01*
X154358916Y-113045695D01*
X154513332Y-113010329D01*
X154614793Y-112959300D01*
X154648072Y-112942563D01*
X154648075Y-112942561D01*
X154654855Y-112939151D01*
X154660626Y-112934222D01*
X154660629Y-112934220D01*
X154769536Y-112841204D01*
X154769536Y-112841203D01*
X154775314Y-112836269D01*
X154834449Y-112753974D01*
X154890443Y-112710326D01*
X154936771Y-112701500D01*
X159703916Y-112701500D01*
X159772037Y-112721502D01*
X159788715Y-112734306D01*
X159839037Y-112780095D01*
X159858076Y-112797419D01*
X159997293Y-112873008D01*
X160150522Y-112913207D01*
X160234477Y-112914526D01*
X160301319Y-112915576D01*
X160301322Y-112915576D01*
X160308916Y-112915695D01*
X160463332Y-112880329D01*
X160541124Y-112841204D01*
X160598072Y-112812563D01*
X160598075Y-112812561D01*
X160604855Y-112809151D01*
X160610626Y-112804222D01*
X160610629Y-112804220D01*
X160719536Y-112711204D01*
X160719536Y-112711203D01*
X160725314Y-112706269D01*
X160743280Y-112681266D01*
X160799273Y-112637620D01*
X160869976Y-112631174D01*
X160932941Y-112663977D01*
X160968175Y-112725613D01*
X160970908Y-112750187D01*
X160970350Y-112753773D01*
X160989088Y-112897065D01*
X161047289Y-113029339D01*
X161140276Y-113139960D01*
X161147747Y-113144933D01*
X161147748Y-113144934D01*
X161253101Y-113215063D01*
X161253103Y-113215064D01*
X161260574Y-113220037D01*
X161269138Y-113222713D01*
X161269141Y-113222714D01*
X161308668Y-113235063D01*
X161398510Y-113263132D01*
X161542998Y-113265780D01*
X161562530Y-113260455D01*
X161673763Y-113230130D01*
X161673765Y-113230129D01*
X161682422Y-113227769D01*
X161805572Y-113152154D01*
X161902551Y-113045014D01*
X161952634Y-112941642D01*
X161961645Y-112923043D01*
X161961645Y-112923042D01*
X161965560Y-112914962D01*
X161989536Y-112772453D01*
X161989688Y-112760000D01*
X161969201Y-112616948D01*
X161972543Y-112616469D01*
X161972618Y-112561833D01*
X162011085Y-112502161D01*
X162075707Y-112472758D01*
X162093465Y-112471500D01*
X165603078Y-112471500D01*
X165671199Y-112491502D01*
X165717692Y-112545158D01*
X165721403Y-112554196D01*
X165727722Y-112571464D01*
X165740808Y-112607223D01*
X165752553Y-112639319D01*
X165756789Y-112645622D01*
X165756789Y-112645623D01*
X165831183Y-112756332D01*
X165840908Y-112770805D01*
X165846527Y-112775918D01*
X165846528Y-112775919D01*
X165912852Y-112836269D01*
X165958076Y-112877419D01*
X166097293Y-112953008D01*
X166250522Y-112993207D01*
X166334477Y-112994526D01*
X166401319Y-112995576D01*
X166401322Y-112995576D01*
X166408916Y-112995695D01*
X166563332Y-112960329D01*
X166638756Y-112922395D01*
X166698072Y-112892563D01*
X166698075Y-112892561D01*
X166704855Y-112889151D01*
X166710626Y-112884222D01*
X166710629Y-112884220D01*
X166819536Y-112791204D01*
X166819536Y-112791203D01*
X166825314Y-112786269D01*
X166917755Y-112657624D01*
X166928658Y-112630502D01*
X166972626Y-112574758D01*
X167045565Y-112551500D01*
X168877822Y-112551500D01*
X168945943Y-112571502D01*
X168992436Y-112625158D01*
X169002322Y-112696884D01*
X168998560Y-112721042D01*
X168991738Y-112764860D01*
X168990350Y-112773773D01*
X168991514Y-112782675D01*
X168991514Y-112782678D01*
X169004284Y-112880329D01*
X169009088Y-112917065D01*
X169067289Y-113049339D01*
X169160276Y-113159960D01*
X169167747Y-113164933D01*
X169167748Y-113164934D01*
X169273101Y-113235063D01*
X169273103Y-113235064D01*
X169280574Y-113240037D01*
X169289138Y-113242713D01*
X169289141Y-113242714D01*
X169345927Y-113260455D01*
X169418510Y-113283132D01*
X169486801Y-113284383D01*
X169554543Y-113305630D01*
X169573587Y-113321267D01*
X169762052Y-113509732D01*
X169769478Y-113517836D01*
X169787064Y-113538794D01*
X169787067Y-113538796D01*
X169794151Y-113547239D01*
X169815041Y-113559300D01*
X169827376Y-113566422D01*
X169836645Y-113572327D01*
X169859050Y-113588015D01*
X169859053Y-113588016D01*
X169868084Y-113594340D01*
X169878733Y-113597194D01*
X169882111Y-113598769D01*
X169885604Y-113600040D01*
X169895149Y-113605551D01*
X169906002Y-113607465D01*
X169906003Y-113607465D01*
X169907183Y-113607673D01*
X169932947Y-113612216D01*
X169943661Y-113614591D01*
X169980733Y-113624524D01*
X169991708Y-113623564D01*
X169991709Y-113623564D01*
X170018968Y-113621179D01*
X170029949Y-113620700D01*
X174250181Y-113620700D01*
X174318302Y-113640702D01*
X174337431Y-113657529D01*
X174337809Y-113657106D01*
X174344499Y-113663087D01*
X174350276Y-113669960D01*
X174410425Y-113709998D01*
X174463101Y-113745063D01*
X174463103Y-113745064D01*
X174470574Y-113750037D01*
X174479138Y-113752713D01*
X174479141Y-113752714D01*
X174539542Y-113771584D01*
X174608510Y-113793132D01*
X174752998Y-113795780D01*
X174772530Y-113790455D01*
X174883763Y-113760130D01*
X174883765Y-113760129D01*
X174892422Y-113757769D01*
X175015572Y-113682154D01*
X175112551Y-113575014D01*
X175158244Y-113480702D01*
X175171645Y-113453043D01*
X175171645Y-113453042D01*
X175175560Y-113444962D01*
X175199536Y-113302453D01*
X175199688Y-113290000D01*
X175181777Y-113164934D01*
X175180474Y-113155835D01*
X175180473Y-113155833D01*
X175179201Y-113146948D01*
X175119388Y-113015395D01*
X175113530Y-113008596D01*
X175113527Y-113008592D01*
X175030916Y-112912718D01*
X175030913Y-112912716D01*
X175025056Y-112905918D01*
X174925215Y-112841204D01*
X174911321Y-112832198D01*
X174911319Y-112832197D01*
X174903790Y-112827317D01*
X174903877Y-112827182D01*
X174854254Y-112783791D01*
X174834558Y-112715581D01*
X174858233Y-112642624D01*
X174897755Y-112587624D01*
X174956842Y-112440641D01*
X174967516Y-112365642D01*
X174978581Y-112287891D01*
X174978581Y-112287888D01*
X174979162Y-112283807D01*
X174979307Y-112270000D01*
X174960276Y-112112733D01*
X174904280Y-111964546D01*
X174822390Y-111845395D01*
X174818855Y-111840251D01*
X174818854Y-111840249D01*
X174814553Y-111833992D01*
X174696275Y-111728611D01*
X174688889Y-111724700D01*
X174650565Y-111704409D01*
X174556274Y-111654484D01*
X174402633Y-111615892D01*
X174395034Y-111615852D01*
X174395033Y-111615852D01*
X174329181Y-111615507D01*
X174244221Y-111615062D01*
X174236841Y-111616834D01*
X174236839Y-111616834D01*
X174097563Y-111650271D01*
X174097560Y-111650272D01*
X174090184Y-111652043D01*
X173949414Y-111724700D01*
X173830039Y-111828838D01*
X173825668Y-111835057D01*
X173820591Y-111840696D01*
X173819624Y-111839826D01*
X173770203Y-111879185D01*
X173722656Y-111888500D01*
X173019544Y-111888500D01*
X172951423Y-111868498D01*
X172915704Y-111833867D01*
X172878855Y-111780251D01*
X172878854Y-111780249D01*
X172874553Y-111773992D01*
X172756275Y-111668611D01*
X172748889Y-111664700D01*
X172658486Y-111616834D01*
X172616274Y-111594484D01*
X172462633Y-111555892D01*
X172455034Y-111555852D01*
X172455033Y-111555852D01*
X172389181Y-111555507D01*
X172304221Y-111555062D01*
X172296841Y-111556834D01*
X172296839Y-111556834D01*
X172200651Y-111579927D01*
X172129743Y-111576380D01*
X172072009Y-111535060D01*
X172045779Y-111469087D01*
X172046983Y-111436503D01*
X172047189Y-111435280D01*
X172069536Y-111302453D01*
X172069688Y-111290000D01*
X172057742Y-111206584D01*
X172050474Y-111155835D01*
X172050473Y-111155833D01*
X172049201Y-111146948D01*
X171989388Y-111015395D01*
X171983530Y-111008596D01*
X171983527Y-111008592D01*
X171900916Y-110912718D01*
X171900913Y-110912716D01*
X171895056Y-110905918D01*
X171799845Y-110844205D01*
X171782706Y-110833096D01*
X172680729Y-110833096D01*
X172686268Y-110883262D01*
X172694811Y-110960641D01*
X172698113Y-110990553D01*
X172700723Y-110997684D01*
X172700723Y-110997686D01*
X172747419Y-111125289D01*
X172752553Y-111139319D01*
X172756789Y-111145622D01*
X172756789Y-111145623D01*
X172836052Y-111263578D01*
X172840908Y-111270805D01*
X172846527Y-111275918D01*
X172846528Y-111275919D01*
X172934355Y-111355835D01*
X172958076Y-111377419D01*
X173097293Y-111453008D01*
X173250522Y-111493207D01*
X173334477Y-111494526D01*
X173401319Y-111495576D01*
X173401322Y-111495576D01*
X173408916Y-111495695D01*
X173563332Y-111460329D01*
X173633742Y-111424917D01*
X173698072Y-111392563D01*
X173698075Y-111392561D01*
X173704855Y-111389151D01*
X173710626Y-111384222D01*
X173710629Y-111384220D01*
X173819536Y-111291204D01*
X173819536Y-111291203D01*
X173825314Y-111286269D01*
X173917755Y-111157624D01*
X173976842Y-111010641D01*
X173985196Y-110951941D01*
X173998581Y-110857891D01*
X173998581Y-110857888D01*
X173999162Y-110853807D01*
X173999307Y-110840000D01*
X173995675Y-110809982D01*
X173992953Y-110787495D01*
X173980276Y-110682733D01*
X173924280Y-110534546D01*
X173885722Y-110478444D01*
X173838855Y-110410251D01*
X173838854Y-110410249D01*
X173834553Y-110403992D01*
X173814363Y-110386003D01*
X173746455Y-110325500D01*
X173716275Y-110298611D01*
X173708889Y-110294700D01*
X173630112Y-110252990D01*
X173576274Y-110224484D01*
X173422633Y-110185892D01*
X173415034Y-110185852D01*
X173415033Y-110185852D01*
X173349181Y-110185507D01*
X173264221Y-110185062D01*
X173256841Y-110186834D01*
X173256839Y-110186834D01*
X173117563Y-110220271D01*
X173117560Y-110220272D01*
X173110184Y-110222043D01*
X172969414Y-110294700D01*
X172850039Y-110398838D01*
X172758950Y-110528444D01*
X172749498Y-110552687D01*
X172704677Y-110667648D01*
X172701406Y-110676037D01*
X172700414Y-110683570D01*
X172700414Y-110683571D01*
X172682123Y-110822508D01*
X172680729Y-110833096D01*
X171782706Y-110833096D01*
X171781324Y-110832200D01*
X171781322Y-110832199D01*
X171773790Y-110827317D01*
X171749090Y-110819930D01*
X171643938Y-110788482D01*
X171643936Y-110788482D01*
X171635337Y-110785910D01*
X171626363Y-110785855D01*
X171626361Y-110785855D01*
X171563082Y-110785469D01*
X171490827Y-110785028D01*
X171482196Y-110787495D01*
X171482194Y-110787495D01*
X171360509Y-110822272D01*
X171360505Y-110822274D01*
X171351879Y-110824739D01*
X171344292Y-110829526D01*
X171344290Y-110829527D01*
X171244882Y-110892249D01*
X171229661Y-110901853D01*
X171223718Y-110908582D01*
X171223717Y-110908583D01*
X171164384Y-110975765D01*
X171133999Y-111010170D01*
X171130185Y-111018293D01*
X171130184Y-111018295D01*
X171110421Y-111060390D01*
X171072583Y-111140982D01*
X171071203Y-111149846D01*
X171071202Y-111149849D01*
X171053351Y-111264500D01*
X171050350Y-111283773D01*
X171051514Y-111292675D01*
X171051514Y-111292678D01*
X171063485Y-111384220D01*
X171069088Y-111427065D01*
X171127289Y-111559339D01*
X171133063Y-111566209D01*
X171133065Y-111566211D01*
X171145854Y-111581426D01*
X171174375Y-111646442D01*
X171163217Y-111716556D01*
X171115925Y-111769508D01*
X171049402Y-111788500D01*
X170840380Y-111788500D01*
X170772259Y-111768498D01*
X170725766Y-111714842D01*
X170716126Y-111641595D01*
X170716244Y-111640898D01*
X170739536Y-111502453D01*
X170739612Y-111496227D01*
X170739629Y-111494860D01*
X170739629Y-111494856D01*
X170739688Y-111490000D01*
X170725245Y-111389151D01*
X170720474Y-111355835D01*
X170720473Y-111355833D01*
X170719201Y-111346948D01*
X170714869Y-111337419D01*
X170706060Y-111318046D01*
X170659388Y-111215395D01*
X170653530Y-111208596D01*
X170653527Y-111208592D01*
X170570916Y-111112718D01*
X170570913Y-111112716D01*
X170565056Y-111105918D01*
X170487234Y-111055476D01*
X170451324Y-111032200D01*
X170451322Y-111032199D01*
X170443790Y-111027317D01*
X170411617Y-111017695D01*
X170313938Y-110988482D01*
X170313936Y-110988482D01*
X170305337Y-110985910D01*
X170296363Y-110985855D01*
X170296361Y-110985855D01*
X170233082Y-110985469D01*
X170160827Y-110985028D01*
X170152196Y-110987495D01*
X170152194Y-110987495D01*
X170030509Y-111022272D01*
X170030505Y-111022274D01*
X170021879Y-111024739D01*
X170014292Y-111029526D01*
X170014290Y-111029527D01*
X169914984Y-111092185D01*
X169899661Y-111101853D01*
X169893718Y-111108582D01*
X169893717Y-111108583D01*
X169842383Y-111166708D01*
X169782297Y-111204526D01*
X169747942Y-111209300D01*
X168133433Y-111209300D01*
X168065312Y-111189298D01*
X168018819Y-111135642D01*
X168008715Y-111065368D01*
X168016526Y-111036304D01*
X168024006Y-111017698D01*
X168024008Y-111017691D01*
X168026842Y-111010641D01*
X168035196Y-110951941D01*
X168048581Y-110857891D01*
X168048581Y-110857888D01*
X168049162Y-110853807D01*
X168049307Y-110840000D01*
X168045675Y-110809982D01*
X168042953Y-110787495D01*
X168030276Y-110682733D01*
X167974280Y-110534546D01*
X167928590Y-110468066D01*
X167906490Y-110400598D01*
X167924375Y-110331891D01*
X167976567Y-110283761D01*
X168032430Y-110270700D01*
X168650181Y-110270700D01*
X168718302Y-110290702D01*
X168737431Y-110307529D01*
X168737809Y-110307106D01*
X168744499Y-110313087D01*
X168750276Y-110319960D01*
X168778955Y-110339050D01*
X168863101Y-110395063D01*
X168863103Y-110395064D01*
X168870574Y-110400037D01*
X168879138Y-110402713D01*
X168879141Y-110402714D01*
X168929215Y-110418358D01*
X169008510Y-110443132D01*
X169152998Y-110445780D01*
X169181539Y-110437999D01*
X169283763Y-110410130D01*
X169283765Y-110410129D01*
X169292422Y-110407769D01*
X169415572Y-110332154D01*
X169512551Y-110225014D01*
X169575560Y-110094962D01*
X169599536Y-109952453D01*
X169599688Y-109940000D01*
X169590045Y-109872668D01*
X169600187Y-109802401D01*
X169646709Y-109748771D01*
X169714772Y-109728806D01*
X169761945Y-109728806D01*
X169772926Y-109729285D01*
X169800185Y-109731670D01*
X169800186Y-109731670D01*
X169811161Y-109732630D01*
X169848233Y-109722697D01*
X169858947Y-109720322D01*
X169874794Y-109717528D01*
X169885891Y-109715571D01*
X169885892Y-109715571D01*
X169896745Y-109713657D01*
X169906290Y-109708146D01*
X169909783Y-109706875D01*
X169913161Y-109705300D01*
X169923810Y-109702446D01*
X169932841Y-109696122D01*
X169932844Y-109696121D01*
X169955249Y-109680433D01*
X169964518Y-109674528D01*
X169974210Y-109668932D01*
X169997743Y-109655345D01*
X170022411Y-109625947D01*
X170029837Y-109617844D01*
X170274454Y-109373227D01*
X170336766Y-109339201D01*
X170407581Y-109344266D01*
X170464417Y-109386813D01*
X170488485Y-109445984D01*
X170489460Y-109453442D01*
X170499088Y-109527065D01*
X170557289Y-109659339D01*
X170563063Y-109666208D01*
X170619858Y-109733773D01*
X170650276Y-109769960D01*
X170657747Y-109774933D01*
X170657748Y-109774934D01*
X170763101Y-109845063D01*
X170763103Y-109845064D01*
X170770574Y-109850037D01*
X170779138Y-109852713D01*
X170779141Y-109852714D01*
X170825076Y-109867065D01*
X170908510Y-109893132D01*
X171052998Y-109895780D01*
X171081979Y-109887879D01*
X171183763Y-109860130D01*
X171183765Y-109860129D01*
X171192422Y-109857769D01*
X171315572Y-109782154D01*
X171412551Y-109675014D01*
X171475560Y-109544962D01*
X171499536Y-109402453D01*
X171499688Y-109390000D01*
X171482435Y-109269527D01*
X171480474Y-109255835D01*
X171480473Y-109255833D01*
X171479201Y-109246948D01*
X171473104Y-109233537D01*
X171461150Y-109207247D01*
X171419388Y-109115395D01*
X171380188Y-109069901D01*
X171350874Y-109005238D01*
X171361173Y-108934992D01*
X171407815Y-108881466D01*
X171475641Y-108861653D01*
X174442411Y-108861653D01*
X174510532Y-108881655D01*
X174518197Y-108887486D01*
X174520276Y-108889960D01*
X174570616Y-108923469D01*
X174633101Y-108965063D01*
X174633103Y-108965064D01*
X174640574Y-108970037D01*
X174649138Y-108972713D01*
X174649141Y-108972714D01*
X174709542Y-108991585D01*
X174778510Y-109013132D01*
X174922998Y-109015780D01*
X174961666Y-109005238D01*
X175053763Y-108980130D01*
X175053765Y-108980129D01*
X175062422Y-108977769D01*
X175185572Y-108902154D01*
X175282551Y-108795014D01*
X175314055Y-108729988D01*
X175341645Y-108673043D01*
X175341645Y-108673042D01*
X175345560Y-108664962D01*
X175369536Y-108522453D01*
X175369688Y-108510000D01*
X175352459Y-108389695D01*
X175350474Y-108375835D01*
X175350473Y-108375833D01*
X175349201Y-108366948D01*
X175289388Y-108235395D01*
X175283530Y-108228596D01*
X175283527Y-108228592D01*
X175200916Y-108132718D01*
X175200913Y-108132716D01*
X175195056Y-108125918D01*
X175108348Y-108069716D01*
X175062067Y-108015884D01*
X175052236Y-107945571D01*
X175081980Y-107881105D01*
X175087788Y-107874892D01*
X175121207Y-107841473D01*
X175183519Y-107807447D01*
X175254222Y-107812470D01*
X175281287Y-107822535D01*
X175328093Y-107839942D01*
X175335074Y-107840873D01*
X175335076Y-107840874D01*
X175488896Y-107861398D01*
X175488900Y-107861398D01*
X175495877Y-107862329D01*
X175502888Y-107861691D01*
X175502892Y-107861691D01*
X175657430Y-107847627D01*
X175664451Y-107846988D01*
X175825437Y-107794680D01*
X175935422Y-107729116D01*
X175964782Y-107711614D01*
X175964784Y-107711613D01*
X175970834Y-107708006D01*
X176093416Y-107591274D01*
X176104402Y-107574739D01*
X176183188Y-107456157D01*
X176183189Y-107456155D01*
X176187089Y-107450285D01*
X176247198Y-107292046D01*
X176259102Y-107207344D01*
X176270205Y-107128345D01*
X176270205Y-107128340D01*
X176270756Y-107124422D01*
X176271052Y-107103222D01*
X176256139Y-106970268D01*
X176252969Y-106942002D01*
X176252968Y-106941999D01*
X176252184Y-106935006D01*
X176196516Y-106775151D01*
X176106816Y-106631601D01*
X176100758Y-106625500D01*
X176040576Y-106564897D01*
X175987542Y-106511491D01*
X175977332Y-106505011D01*
X175933023Y-106476892D01*
X175844622Y-106420791D01*
X175817220Y-106411034D01*
X175691794Y-106366371D01*
X175691789Y-106366370D01*
X175685159Y-106364009D01*
X175678173Y-106363176D01*
X175678169Y-106363175D01*
X175559065Y-106348973D01*
X175517079Y-106343967D01*
X175510076Y-106344703D01*
X175510075Y-106344703D01*
X175355743Y-106360923D01*
X175355739Y-106360924D01*
X175348735Y-106361660D01*
X175342064Y-106363931D01*
X175195165Y-106413939D01*
X175195162Y-106413940D01*
X175188495Y-106416210D01*
X175182497Y-106419900D01*
X175182495Y-106419901D01*
X175050321Y-106501215D01*
X175050319Y-106501217D01*
X175044322Y-106504906D01*
X174923383Y-106623339D01*
X174919572Y-106629253D01*
X174919570Y-106629255D01*
X174902476Y-106655780D01*
X174831687Y-106765622D01*
X174821162Y-106794539D01*
X174776203Y-106918062D01*
X174776202Y-106918066D01*
X174773793Y-106924685D01*
X174752578Y-107092621D01*
X174762354Y-107192317D01*
X174763029Y-107199204D01*
X174749770Y-107268952D01*
X174726725Y-107300595D01*
X174254925Y-107772395D01*
X174192613Y-107806421D01*
X174165830Y-107809300D01*
X173629489Y-107809300D01*
X173561368Y-107789298D01*
X173514875Y-107735642D01*
X173504771Y-107665368D01*
X173533887Y-107601616D01*
X173533785Y-107601530D01*
X173534095Y-107601161D01*
X173534265Y-107600788D01*
X173535449Y-107599547D01*
X173538314Y-107596132D01*
X173543416Y-107591274D01*
X173554402Y-107574739D01*
X173633188Y-107456157D01*
X173633189Y-107456155D01*
X173637089Y-107450285D01*
X173697198Y-107292046D01*
X173709102Y-107207344D01*
X173720205Y-107128345D01*
X173720205Y-107128340D01*
X173720756Y-107124422D01*
X173721052Y-107103222D01*
X173706139Y-106970268D01*
X173702969Y-106942002D01*
X173702968Y-106941999D01*
X173702184Y-106935006D01*
X173646516Y-106775151D01*
X173556816Y-106631601D01*
X173550758Y-106625500D01*
X173490576Y-106564897D01*
X173437542Y-106511491D01*
X173427332Y-106505011D01*
X173383023Y-106476892D01*
X173294622Y-106420791D01*
X173267220Y-106411034D01*
X173141794Y-106366371D01*
X173141789Y-106366370D01*
X173135159Y-106364009D01*
X173128173Y-106363176D01*
X173128169Y-106363175D01*
X173009065Y-106348973D01*
X172967079Y-106343967D01*
X172960076Y-106344703D01*
X172960075Y-106344703D01*
X172805743Y-106360923D01*
X172805739Y-106360924D01*
X172798735Y-106361660D01*
X172792064Y-106363931D01*
X172645165Y-106413939D01*
X172645162Y-106413940D01*
X172638495Y-106416210D01*
X172632497Y-106419900D01*
X172632495Y-106419901D01*
X172500321Y-106501215D01*
X172500319Y-106501217D01*
X172494322Y-106504906D01*
X172373383Y-106623339D01*
X172369572Y-106629253D01*
X172369570Y-106629255D01*
X172352476Y-106655780D01*
X172281687Y-106765622D01*
X172271162Y-106794539D01*
X172226203Y-106918062D01*
X172226202Y-106918066D01*
X172223793Y-106924685D01*
X172219433Y-106959198D01*
X172214968Y-106994540D01*
X172186586Y-107059617D01*
X172127526Y-107099018D01*
X172085863Y-107102237D01*
X172085851Y-107104246D01*
X171941341Y-107103364D01*
X171932710Y-107105831D01*
X171932708Y-107105831D01*
X171811023Y-107140608D01*
X171811019Y-107140610D01*
X171802393Y-107143075D01*
X171794806Y-107147862D01*
X171794804Y-107147863D01*
X171702793Y-107205918D01*
X171680175Y-107220189D01*
X171674232Y-107226918D01*
X171674231Y-107226919D01*
X171644058Y-107261084D01*
X171584513Y-107328506D01*
X171523097Y-107459318D01*
X171521717Y-107468182D01*
X171521716Y-107468185D01*
X171505126Y-107574739D01*
X171500864Y-107602109D01*
X171502028Y-107611011D01*
X171502028Y-107611014D01*
X171506523Y-107645387D01*
X171509137Y-107665368D01*
X171509345Y-107666962D01*
X171498345Y-107737101D01*
X171451171Y-107790159D01*
X171384409Y-107809300D01*
X170259949Y-107809300D01*
X170248968Y-107808821D01*
X170221709Y-107806436D01*
X170221708Y-107806436D01*
X170210733Y-107805476D01*
X170173661Y-107815409D01*
X170162947Y-107817784D01*
X170147100Y-107820578D01*
X170136003Y-107822535D01*
X170136002Y-107822535D01*
X170125149Y-107824449D01*
X170115604Y-107829960D01*
X170112111Y-107831231D01*
X170108733Y-107832806D01*
X170098084Y-107835660D01*
X170089053Y-107841984D01*
X170089050Y-107841985D01*
X170066645Y-107857673D01*
X170057375Y-107863578D01*
X170024151Y-107882761D01*
X170017067Y-107891204D01*
X170017064Y-107891206D01*
X169999478Y-107912164D01*
X169992052Y-107920268D01*
X169389925Y-108522395D01*
X169327613Y-108556421D01*
X169300830Y-108559300D01*
X166929170Y-108559300D01*
X166861049Y-108539298D01*
X166840075Y-108522395D01*
X166647665Y-108329985D01*
X166613639Y-108267673D01*
X166618704Y-108196858D01*
X166653667Y-108147344D01*
X166658581Y-108144507D01*
X166683248Y-108115110D01*
X166690675Y-108107005D01*
X166759743Y-108037938D01*
X166767846Y-108030513D01*
X166788797Y-108012933D01*
X166788798Y-108012932D01*
X166797239Y-108005849D01*
X166805823Y-107990982D01*
X166816421Y-107972625D01*
X166822327Y-107963355D01*
X166838015Y-107940950D01*
X166838016Y-107940947D01*
X166844340Y-107931916D01*
X166847194Y-107921267D01*
X166848769Y-107917889D01*
X166850040Y-107914396D01*
X166855551Y-107904851D01*
X166862216Y-107867053D01*
X166864591Y-107856339D01*
X166874524Y-107819267D01*
X166873402Y-107806436D01*
X166871179Y-107781032D01*
X166870700Y-107770051D01*
X166870700Y-106633018D01*
X166890702Y-106564897D01*
X166944358Y-106518404D01*
X166996700Y-106507018D01*
X167137246Y-106507018D01*
X167205367Y-106527020D01*
X167251860Y-106580676D01*
X167261964Y-106650950D01*
X167243157Y-106701273D01*
X167201687Y-106765622D01*
X167191162Y-106794539D01*
X167146203Y-106918062D01*
X167146202Y-106918066D01*
X167143793Y-106924685D01*
X167122578Y-107092621D01*
X167139096Y-107261084D01*
X167192526Y-107421701D01*
X167209837Y-107450285D01*
X167274205Y-107556568D01*
X167280213Y-107566489D01*
X167285104Y-107571554D01*
X167285105Y-107571555D01*
X167346400Y-107635028D01*
X167397799Y-107688253D01*
X167539438Y-107780939D01*
X167698093Y-107839942D01*
X167705074Y-107840873D01*
X167705076Y-107840874D01*
X167858896Y-107861398D01*
X167858900Y-107861398D01*
X167865877Y-107862329D01*
X167872888Y-107861691D01*
X167872892Y-107861691D01*
X168027430Y-107847627D01*
X168034451Y-107846988D01*
X168195437Y-107794680D01*
X168305422Y-107729116D01*
X168334782Y-107711614D01*
X168334784Y-107711613D01*
X168340834Y-107708006D01*
X168463416Y-107591274D01*
X168474402Y-107574739D01*
X168553188Y-107456157D01*
X168553189Y-107456155D01*
X168557089Y-107450285D01*
X168617198Y-107292046D01*
X168629102Y-107207344D01*
X168640205Y-107128345D01*
X168640205Y-107128340D01*
X168640756Y-107124422D01*
X168641052Y-107103222D01*
X168626139Y-106970268D01*
X168622969Y-106942002D01*
X168622968Y-106941999D01*
X168622184Y-106935006D01*
X168599195Y-106868991D01*
X168595682Y-106798082D01*
X168631064Y-106736530D01*
X168657000Y-106719315D01*
X168656424Y-106718377D01*
X168684279Y-106701274D01*
X168779574Y-106642762D01*
X168876553Y-106535622D01*
X168932891Y-106419339D01*
X168935647Y-106413651D01*
X168935647Y-106413650D01*
X168939562Y-106405570D01*
X168963538Y-106263061D01*
X168963690Y-106250608D01*
X168943203Y-106107556D01*
X168883390Y-105976003D01*
X168877532Y-105969204D01*
X168877529Y-105969200D01*
X168794918Y-105873326D01*
X168794915Y-105873324D01*
X168789058Y-105866526D01*
X168720038Y-105821789D01*
X168675326Y-105792808D01*
X168675324Y-105792807D01*
X168667792Y-105787925D01*
X168595708Y-105766367D01*
X168534659Y-105748109D01*
X168475126Y-105709427D01*
X168445956Y-105644699D01*
X168456412Y-105574477D01*
X168465814Y-105557665D01*
X168553188Y-105426157D01*
X168553189Y-105426155D01*
X168557089Y-105420285D01*
X168617198Y-105262046D01*
X168637151Y-105120075D01*
X168640205Y-105098345D01*
X168640205Y-105098340D01*
X168640756Y-105094422D01*
X168641052Y-105073222D01*
X168628646Y-104962615D01*
X168622969Y-104912002D01*
X168622968Y-104911999D01*
X168622184Y-104905006D01*
X168566516Y-104745151D01*
X168515476Y-104663470D01*
X168496340Y-104595101D01*
X168517205Y-104527239D01*
X168571447Y-104481431D01*
X168622330Y-104470700D01*
X169300829Y-104470700D01*
X169368950Y-104490702D01*
X169389924Y-104507604D01*
X169496764Y-104614445D01*
X169592063Y-104709744D01*
X169599488Y-104717847D01*
X169624151Y-104747239D01*
X169633695Y-104752749D01*
X169633696Y-104752750D01*
X169657375Y-104766421D01*
X169666645Y-104772327D01*
X169689050Y-104788015D01*
X169689053Y-104788016D01*
X169698084Y-104794340D01*
X169708733Y-104797194D01*
X169712111Y-104798769D01*
X169715604Y-104800040D01*
X169725149Y-104805551D01*
X169736002Y-104807465D01*
X169736003Y-104807465D01*
X169747100Y-104809422D01*
X169762947Y-104812216D01*
X169773661Y-104814591D01*
X169810733Y-104824524D01*
X169821708Y-104823564D01*
X169821709Y-104823564D01*
X169848968Y-104821179D01*
X169859949Y-104820700D01*
X170370051Y-104820700D01*
X170381032Y-104821179D01*
X170408291Y-104823564D01*
X170408292Y-104823564D01*
X170419267Y-104824524D01*
X170456339Y-104814591D01*
X170467053Y-104812216D01*
X170482900Y-104809422D01*
X170493997Y-104807465D01*
X170493998Y-104807465D01*
X170504851Y-104805551D01*
X170514396Y-104800040D01*
X170517889Y-104798769D01*
X170521267Y-104797194D01*
X170531916Y-104794340D01*
X170540947Y-104788016D01*
X170540950Y-104788015D01*
X170563355Y-104772327D01*
X170572624Y-104766422D01*
X170578795Y-104762859D01*
X170605849Y-104747239D01*
X170622142Y-104727821D01*
X170681253Y-104688495D01*
X170752241Y-104687369D01*
X170812568Y-104724801D01*
X170815662Y-104728929D01*
X170815790Y-104728822D01*
X170881897Y-104807465D01*
X170908777Y-104839443D01*
X170916248Y-104844416D01*
X170916249Y-104844417D01*
X171021602Y-104914546D01*
X171021604Y-104914547D01*
X171029075Y-104919520D01*
X171037639Y-104922196D01*
X171037642Y-104922197D01*
X171070470Y-104932453D01*
X171167011Y-104962615D01*
X171311499Y-104965263D01*
X171356322Y-104953043D01*
X171442264Y-104929613D01*
X171442266Y-104929612D01*
X171450923Y-104927252D01*
X171574073Y-104851637D01*
X171671052Y-104744497D01*
X171719066Y-104645395D01*
X171730146Y-104622526D01*
X171730146Y-104622525D01*
X171734061Y-104614445D01*
X171758037Y-104471936D01*
X171758189Y-104459483D01*
X171753335Y-104425589D01*
X171748778Y-104393767D01*
X171758921Y-104323499D01*
X171805443Y-104269869D01*
X171873505Y-104249905D01*
X172417655Y-104249905D01*
X172485776Y-104269907D01*
X172532269Y-104323563D01*
X172542373Y-104393837D01*
X172512879Y-104458417D01*
X172497752Y-104472796D01*
X172494322Y-104474906D01*
X172373383Y-104593339D01*
X172369572Y-104599253D01*
X172369570Y-104599255D01*
X172327160Y-104665063D01*
X172281687Y-104735622D01*
X172268817Y-104770982D01*
X172226203Y-104888062D01*
X172226202Y-104888067D01*
X172223793Y-104894685D01*
X172202578Y-105062621D01*
X172219096Y-105231084D01*
X172272526Y-105391701D01*
X172283553Y-105409909D01*
X172353030Y-105524628D01*
X172360213Y-105536489D01*
X172365104Y-105541554D01*
X172365105Y-105541555D01*
X172397028Y-105574612D01*
X172477799Y-105658253D01*
X172619438Y-105750939D01*
X172778093Y-105809942D01*
X172785074Y-105810873D01*
X172785076Y-105810874D01*
X172938896Y-105831398D01*
X172938900Y-105831398D01*
X172945877Y-105832329D01*
X172952888Y-105831691D01*
X172952892Y-105831691D01*
X173107430Y-105817627D01*
X173114451Y-105816988D01*
X173275437Y-105764680D01*
X173392348Y-105694987D01*
X173414782Y-105681614D01*
X173414784Y-105681613D01*
X173420834Y-105678006D01*
X173543416Y-105561274D01*
X173552330Y-105547858D01*
X173633188Y-105426157D01*
X173633189Y-105426155D01*
X173637089Y-105420285D01*
X173697198Y-105262046D01*
X173717151Y-105120075D01*
X173720205Y-105098345D01*
X173720205Y-105098340D01*
X173720756Y-105094422D01*
X173721052Y-105073222D01*
X173708646Y-104962615D01*
X173702969Y-104912002D01*
X173702968Y-104911999D01*
X173702184Y-104905006D01*
X173646516Y-104745151D01*
X173636860Y-104729698D01*
X173566770Y-104617530D01*
X173547634Y-104549160D01*
X173568499Y-104481299D01*
X173622741Y-104435491D01*
X173669208Y-104426135D01*
X173669182Y-104425930D01*
X173671918Y-104425589D01*
X173675932Y-104424781D01*
X173678089Y-104424821D01*
X173678093Y-104424821D01*
X173687066Y-104424985D01*
X173710919Y-104418482D01*
X173817831Y-104389335D01*
X173817833Y-104389334D01*
X173826490Y-104386974D01*
X173949640Y-104311359D01*
X173965193Y-104294177D01*
X174014052Y-104240198D01*
X174046619Y-104204219D01*
X174061819Y-104172846D01*
X174083589Y-104127913D01*
X174131291Y-104075330D01*
X174199850Y-104056884D01*
X174267497Y-104078431D01*
X174286076Y-104093756D01*
X174324685Y-104132365D01*
X174358711Y-104194677D01*
X174360526Y-104205122D01*
X174377144Y-104332200D01*
X174379088Y-104347065D01*
X174437289Y-104479339D01*
X174443063Y-104486208D01*
X174477405Y-104527062D01*
X174530276Y-104589960D01*
X174537747Y-104594933D01*
X174537748Y-104594934D01*
X174643101Y-104665063D01*
X174643103Y-104665064D01*
X174650574Y-104670037D01*
X174659138Y-104672713D01*
X174659143Y-104672715D01*
X174708667Y-104688187D01*
X174767724Y-104727593D01*
X174796101Y-104792672D01*
X174789495Y-104851545D01*
X174773793Y-104894685D01*
X174752578Y-105062621D01*
X174769096Y-105231084D01*
X174822526Y-105391701D01*
X174833553Y-105409909D01*
X174903030Y-105524628D01*
X174910213Y-105536489D01*
X174915104Y-105541554D01*
X174915105Y-105541555D01*
X174947028Y-105574612D01*
X175027799Y-105658253D01*
X175169438Y-105750939D01*
X175328093Y-105809942D01*
X175335074Y-105810873D01*
X175335076Y-105810874D01*
X175488896Y-105831398D01*
X175488900Y-105831398D01*
X175495877Y-105832329D01*
X175502888Y-105831691D01*
X175502892Y-105831691D01*
X175657430Y-105817627D01*
X175664451Y-105816988D01*
X175825437Y-105764680D01*
X175942348Y-105694987D01*
X175964782Y-105681614D01*
X175964784Y-105681613D01*
X175970834Y-105678006D01*
X176093416Y-105561274D01*
X176102330Y-105547858D01*
X176183188Y-105426157D01*
X176183189Y-105426155D01*
X176187089Y-105420285D01*
X176247198Y-105262046D01*
X176267151Y-105120075D01*
X176270205Y-105098345D01*
X176270205Y-105098340D01*
X176270756Y-105094422D01*
X176271052Y-105073222D01*
X176258646Y-104962615D01*
X176252969Y-104912002D01*
X176252968Y-104911999D01*
X176252184Y-104905006D01*
X176196516Y-104745151D01*
X176106816Y-104601601D01*
X176100196Y-104594934D01*
X176028931Y-104523170D01*
X175987542Y-104481491D01*
X175957145Y-104462200D01*
X175915058Y-104435491D01*
X175844622Y-104390791D01*
X175786122Y-104369960D01*
X175691794Y-104336371D01*
X175691789Y-104336370D01*
X175685159Y-104334009D01*
X175678173Y-104333176D01*
X175678169Y-104333175D01*
X175559065Y-104318973D01*
X175517079Y-104313967D01*
X175510074Y-104314703D01*
X175503038Y-104314654D01*
X175435058Y-104294177D01*
X175388941Y-104240198D01*
X175379190Y-104206520D01*
X175360474Y-104075835D01*
X175360473Y-104075833D01*
X175359201Y-104066948D01*
X175299388Y-103935395D01*
X175218435Y-103841445D01*
X175189122Y-103776785D01*
X175199421Y-103706540D01*
X175220474Y-103674643D01*
X175286526Y-103601670D01*
X175292551Y-103595014D01*
X175339706Y-103497686D01*
X175351645Y-103473043D01*
X175351645Y-103473042D01*
X175355560Y-103464962D01*
X175379536Y-103322453D01*
X175379688Y-103310000D01*
X175362855Y-103192462D01*
X175360474Y-103175835D01*
X175360473Y-103175833D01*
X175359201Y-103166948D01*
X175299388Y-103035395D01*
X175299824Y-103035197D01*
X175281704Y-102972987D01*
X175301855Y-102904910D01*
X175341775Y-102865886D01*
X175363195Y-102852734D01*
X175445572Y-102802154D01*
X175542551Y-102695014D01*
X175600927Y-102574524D01*
X175601645Y-102573043D01*
X175601645Y-102573042D01*
X175605560Y-102564962D01*
X175629536Y-102422453D01*
X175629688Y-102410000D01*
X175615391Y-102310170D01*
X175610474Y-102275835D01*
X175610473Y-102275833D01*
X175609201Y-102266948D01*
X175549388Y-102135395D01*
X175543530Y-102128596D01*
X175543527Y-102128592D01*
X175460916Y-102032718D01*
X175460913Y-102032716D01*
X175455056Y-102025918D01*
X175333790Y-101947317D01*
X175282294Y-101931916D01*
X175203938Y-101908482D01*
X175203936Y-101908482D01*
X175195337Y-101905910D01*
X175186364Y-101905855D01*
X175186362Y-101905855D01*
X175163924Y-101905718D01*
X175134643Y-101905540D01*
X175066646Y-101885123D01*
X175046317Y-101868637D01*
X174933333Y-101755653D01*
X174899307Y-101693341D01*
X174904372Y-101622526D01*
X174946919Y-101565690D01*
X174965814Y-101553993D01*
X175068071Y-101502563D01*
X175074855Y-101499151D01*
X175080626Y-101494222D01*
X175080629Y-101494220D01*
X175189536Y-101401204D01*
X175189536Y-101401203D01*
X175195314Y-101396269D01*
X175287755Y-101267624D01*
X175346842Y-101120641D01*
X175361525Y-101017471D01*
X175368581Y-100967891D01*
X175368581Y-100967888D01*
X175369162Y-100963807D01*
X175369307Y-100950000D01*
X175350276Y-100792733D01*
X175294280Y-100644546D01*
X175228275Y-100548508D01*
X175208855Y-100520251D01*
X175208854Y-100520249D01*
X175204553Y-100513992D01*
X175086275Y-100408611D01*
X175078889Y-100404700D01*
X174952988Y-100338039D01*
X174952989Y-100338039D01*
X174946274Y-100334484D01*
X174792633Y-100295892D01*
X174785034Y-100295852D01*
X174785033Y-100295852D01*
X174719181Y-100295507D01*
X174634221Y-100295062D01*
X174626841Y-100296834D01*
X174626839Y-100296834D01*
X174487563Y-100330271D01*
X174487560Y-100330272D01*
X174480184Y-100332043D01*
X174339414Y-100404700D01*
X174333697Y-100409687D01*
X174333690Y-100409692D01*
X174311968Y-100428642D01*
X174247486Y-100458351D01*
X174177179Y-100448482D01*
X174123368Y-100402168D01*
X174107869Y-100367895D01*
X174054880Y-100180009D01*
X174050755Y-100169262D01*
X173966125Y-99997649D01*
X173960115Y-99987841D01*
X173845622Y-99834517D01*
X173843280Y-99831916D01*
X173842561Y-99830418D01*
X173842169Y-99829893D01*
X173842272Y-99829816D01*
X173812562Y-99767909D01*
X173821325Y-99697455D01*
X173870985Y-99640231D01*
X173965572Y-99582154D01*
X173973480Y-99573418D01*
X173999783Y-99544358D01*
X174062551Y-99475014D01*
X174125560Y-99344962D01*
X174127049Y-99336113D01*
X174127050Y-99336109D01*
X174137036Y-99276751D01*
X174168063Y-99212892D01*
X174228688Y-99175946D01*
X174299665Y-99177641D01*
X174358457Y-99217440D01*
X174376620Y-99246910D01*
X174417289Y-99339339D01*
X174423063Y-99346208D01*
X174496431Y-99433489D01*
X174510276Y-99449960D01*
X174517747Y-99454933D01*
X174517748Y-99454934D01*
X174623101Y-99525063D01*
X174623103Y-99525064D01*
X174630574Y-99530037D01*
X174639138Y-99532713D01*
X174639141Y-99532714D01*
X174682144Y-99546149D01*
X174768510Y-99573132D01*
X174912998Y-99575780D01*
X174999343Y-99552240D01*
X175043763Y-99540130D01*
X175043765Y-99540129D01*
X175052422Y-99537769D01*
X175175572Y-99462154D01*
X175272551Y-99355014D01*
X175323153Y-99250571D01*
X175331645Y-99233043D01*
X175331645Y-99233042D01*
X175335560Y-99224962D01*
X175359536Y-99082453D01*
X175359688Y-99070000D01*
X175347555Y-98985280D01*
X175340474Y-98935835D01*
X175340473Y-98935833D01*
X175339201Y-98926948D01*
X175279388Y-98795395D01*
X175273530Y-98788596D01*
X175273527Y-98788592D01*
X175190916Y-98692718D01*
X175190913Y-98692716D01*
X175185056Y-98685918D01*
X175114459Y-98640159D01*
X175071324Y-98612200D01*
X175071322Y-98612199D01*
X175063790Y-98607317D01*
X175049499Y-98603043D01*
X174933938Y-98568482D01*
X174933936Y-98568482D01*
X174925337Y-98565910D01*
X174916362Y-98565855D01*
X174907481Y-98564528D01*
X174907848Y-98562072D01*
X174852538Y-98545468D01*
X174806370Y-98491533D01*
X174796554Y-98422130D01*
X174799162Y-98403807D01*
X174799231Y-98397265D01*
X174799264Y-98394134D01*
X174799264Y-98394128D01*
X174799307Y-98390000D01*
X174798554Y-98383773D01*
X174794725Y-98352132D01*
X174780276Y-98232733D01*
X174724280Y-98084546D01*
X174719979Y-98078288D01*
X174716459Y-98071555D01*
X174719169Y-98070138D01*
X174707552Y-98034680D01*
X174687081Y-98024664D01*
X174668262Y-98003039D01*
X174638855Y-97960251D01*
X174638854Y-97960249D01*
X174634553Y-97953992D01*
X174601726Y-97924744D01*
X174592460Y-97916489D01*
X174516275Y-97848611D01*
X174508889Y-97844700D01*
X174436094Y-97806157D01*
X174376274Y-97774484D01*
X174222633Y-97735892D01*
X174215034Y-97735852D01*
X174215033Y-97735852D01*
X174149181Y-97735507D01*
X174064221Y-97735062D01*
X174056841Y-97736834D01*
X174056839Y-97736834D01*
X173917563Y-97770271D01*
X173917560Y-97770272D01*
X173910184Y-97772043D01*
X173903443Y-97775522D01*
X173903441Y-97775523D01*
X173898567Y-97778039D01*
X173874968Y-97790219D01*
X173805263Y-97803689D01*
X173739339Y-97777335D01*
X173698128Y-97719523D01*
X173695157Y-97647420D01*
X173697198Y-97642046D01*
X173712045Y-97536406D01*
X173720205Y-97478345D01*
X173720205Y-97478340D01*
X173720756Y-97474422D01*
X173721052Y-97453222D01*
X173719863Y-97442621D01*
X174752578Y-97442621D01*
X174769096Y-97611084D01*
X174822526Y-97771701D01*
X174872165Y-97853664D01*
X174879878Y-97866400D01*
X174890789Y-97907591D01*
X174906888Y-97914348D01*
X174918005Y-97924558D01*
X174956478Y-97964398D01*
X175027799Y-98038253D01*
X175169438Y-98130939D01*
X175328093Y-98189942D01*
X175335074Y-98190873D01*
X175335076Y-98190874D01*
X175488896Y-98211398D01*
X175488900Y-98211398D01*
X175495877Y-98212329D01*
X175502888Y-98211691D01*
X175502892Y-98211691D01*
X175657430Y-98197627D01*
X175664451Y-98196988D01*
X175825437Y-98144680D01*
X175936549Y-98078444D01*
X175964782Y-98061614D01*
X175964785Y-98061612D01*
X175970834Y-98058006D01*
X176093416Y-97941274D01*
X176104522Y-97924558D01*
X176183188Y-97806157D01*
X176183189Y-97806155D01*
X176187089Y-97800285D01*
X176247198Y-97642046D01*
X176262045Y-97536406D01*
X176270205Y-97478345D01*
X176270205Y-97478340D01*
X176270756Y-97474422D01*
X176271052Y-97453222D01*
X176252184Y-97285006D01*
X176196516Y-97125151D01*
X176106816Y-96981601D01*
X175987542Y-96861491D01*
X175844622Y-96770791D01*
X175817220Y-96761034D01*
X175691794Y-96716371D01*
X175691789Y-96716370D01*
X175685159Y-96714009D01*
X175678173Y-96713176D01*
X175678169Y-96713175D01*
X175559065Y-96698973D01*
X175517079Y-96693967D01*
X175510076Y-96694703D01*
X175510075Y-96694703D01*
X175355743Y-96710923D01*
X175355739Y-96710924D01*
X175348735Y-96711660D01*
X175342064Y-96713931D01*
X175195165Y-96763939D01*
X175195162Y-96763940D01*
X175188495Y-96766210D01*
X175182497Y-96769900D01*
X175182495Y-96769901D01*
X175050321Y-96851215D01*
X175050319Y-96851217D01*
X175044322Y-96854906D01*
X175002129Y-96896225D01*
X174944112Y-96953040D01*
X174923383Y-96973339D01*
X174831687Y-97115622D01*
X174816658Y-97156913D01*
X174776203Y-97268062D01*
X174776202Y-97268067D01*
X174773793Y-97274685D01*
X174752578Y-97442621D01*
X173719863Y-97442621D01*
X173702184Y-97285006D01*
X173646516Y-97125151D01*
X173556816Y-96981601D01*
X173437542Y-96861491D01*
X173294622Y-96770791D01*
X173267220Y-96761034D01*
X173141794Y-96716371D01*
X173141789Y-96716370D01*
X173135159Y-96714009D01*
X173128173Y-96713176D01*
X173128169Y-96713175D01*
X173009065Y-96698973D01*
X172967079Y-96693967D01*
X172960076Y-96694703D01*
X172960075Y-96694703D01*
X172805743Y-96710923D01*
X172805739Y-96710924D01*
X172798735Y-96711660D01*
X172792064Y-96713931D01*
X172645165Y-96763939D01*
X172645162Y-96763940D01*
X172638495Y-96766210D01*
X172632497Y-96769900D01*
X172632495Y-96769901D01*
X172500321Y-96851215D01*
X172500319Y-96851217D01*
X172494322Y-96854906D01*
X172452129Y-96896225D01*
X172394112Y-96953040D01*
X172373383Y-96973339D01*
X172281687Y-97115622D01*
X172266658Y-97156913D01*
X172226203Y-97268062D01*
X172226202Y-97268067D01*
X172223793Y-97274685D01*
X172202578Y-97442621D01*
X172219096Y-97611084D01*
X172272526Y-97771701D01*
X172283741Y-97790219D01*
X172346195Y-97893342D01*
X172360213Y-97916489D01*
X172365104Y-97921554D01*
X172365105Y-97921555D01*
X172406478Y-97964398D01*
X172477799Y-98038253D01*
X172619438Y-98130939D01*
X172778093Y-98189942D01*
X172785074Y-98190873D01*
X172785076Y-98190874D01*
X172938896Y-98211398D01*
X172938900Y-98211398D01*
X172945877Y-98212329D01*
X172952888Y-98211691D01*
X172952892Y-98211691D01*
X173107430Y-98197627D01*
X173114451Y-98196988D01*
X173275437Y-98144680D01*
X173308889Y-98124738D01*
X173377642Y-98107038D01*
X173445052Y-98129319D01*
X173489714Y-98184507D01*
X173498328Y-98249413D01*
X173481720Y-98375565D01*
X173480729Y-98383096D01*
X173487307Y-98442678D01*
X173496624Y-98527065D01*
X173498113Y-98540553D01*
X173500723Y-98547685D01*
X173506777Y-98564229D01*
X173511402Y-98635075D01*
X173476991Y-98697175D01*
X173440146Y-98722376D01*
X173431879Y-98724739D01*
X173424292Y-98729526D01*
X173424283Y-98729530D01*
X173328666Y-98789861D01*
X173261430Y-98809300D01*
X168872770Y-98809300D01*
X168804649Y-98789298D01*
X168758156Y-98735642D01*
X168748052Y-98665368D01*
X168759378Y-98628362D01*
X168771645Y-98603043D01*
X168771645Y-98603042D01*
X168775560Y-98594962D01*
X168799536Y-98452453D01*
X168799688Y-98440000D01*
X168784655Y-98335028D01*
X168780474Y-98305835D01*
X168780473Y-98305833D01*
X168779201Y-98296948D01*
X168719388Y-98165395D01*
X168713530Y-98158596D01*
X168713527Y-98158592D01*
X168630916Y-98062718D01*
X168630913Y-98062716D01*
X168625056Y-98055918D01*
X168565769Y-98017490D01*
X168519485Y-97963654D01*
X168509654Y-97893342D01*
X168529353Y-97842031D01*
X168553188Y-97806157D01*
X168553189Y-97806155D01*
X168557089Y-97800285D01*
X168617198Y-97642046D01*
X168632045Y-97536406D01*
X168640205Y-97478345D01*
X168640205Y-97478340D01*
X168640756Y-97474422D01*
X168641052Y-97453222D01*
X168622184Y-97285006D01*
X168566516Y-97125151D01*
X168476816Y-96981601D01*
X168357542Y-96861491D01*
X168214622Y-96770791D01*
X168187220Y-96761034D01*
X168061794Y-96716371D01*
X168061789Y-96716370D01*
X168055159Y-96714009D01*
X168048173Y-96713176D01*
X168048169Y-96713175D01*
X167929065Y-96698973D01*
X167887079Y-96693967D01*
X167880076Y-96694703D01*
X167880075Y-96694703D01*
X167747381Y-96708649D01*
X167677543Y-96695876D01*
X167645116Y-96672434D01*
X167622277Y-96649595D01*
X167588251Y-96587283D01*
X167593316Y-96516468D01*
X167635863Y-96459632D01*
X167702383Y-96434821D01*
X167711372Y-96434500D01*
X177659500Y-96434500D01*
X177727621Y-96454502D01*
G37*
%TD.AperFunction*%
%TA.AperFunction,Conductor*%
G36*
X144368772Y-96840702D02*
G01*
X144415265Y-96894358D01*
X144425369Y-96964632D01*
X144406562Y-97014955D01*
X144345507Y-97109693D01*
X144345505Y-97109698D01*
X144341687Y-97115622D01*
X144326658Y-97156913D01*
X144286203Y-97268062D01*
X144286202Y-97268067D01*
X144283793Y-97274685D01*
X144262578Y-97442621D01*
X144279096Y-97611084D01*
X144332526Y-97771701D01*
X144343741Y-97790219D01*
X144406195Y-97893342D01*
X144420213Y-97916489D01*
X144425104Y-97921554D01*
X144425105Y-97921555D01*
X144466478Y-97964398D01*
X144537799Y-98038253D01*
X144679438Y-98130939D01*
X144838093Y-98189942D01*
X144845074Y-98190873D01*
X144845076Y-98190874D01*
X144998896Y-98211398D01*
X144998900Y-98211398D01*
X145005877Y-98212329D01*
X145012888Y-98211691D01*
X145012892Y-98211691D01*
X145167430Y-98197627D01*
X145174451Y-98196988D01*
X145335437Y-98144680D01*
X145480834Y-98058006D01*
X145484251Y-98054752D01*
X145549743Y-98029825D01*
X145619216Y-98044452D01*
X145648666Y-98066346D01*
X145744489Y-98162169D01*
X145778515Y-98224481D01*
X145773450Y-98295296D01*
X145730903Y-98352132D01*
X145698518Y-98368197D01*
X145698702Y-98368608D01*
X145690509Y-98372273D01*
X145681879Y-98374739D01*
X145674292Y-98379526D01*
X145674290Y-98379527D01*
X145578447Y-98440000D01*
X145559661Y-98451853D01*
X145553718Y-98458582D01*
X145553717Y-98458583D01*
X145508086Y-98510251D01*
X145463999Y-98560170D01*
X145460185Y-98568293D01*
X145460184Y-98568295D01*
X145439571Y-98612200D01*
X145402583Y-98690982D01*
X145401203Y-98699846D01*
X145401202Y-98699849D01*
X145381802Y-98824449D01*
X145380350Y-98833773D01*
X145381514Y-98842675D01*
X145381514Y-98842678D01*
X145390601Y-98912164D01*
X145399088Y-98977065D01*
X145457289Y-99109339D01*
X145463063Y-99116208D01*
X145539437Y-99207065D01*
X145550276Y-99219960D01*
X145557747Y-99224933D01*
X145557748Y-99224934D01*
X145663101Y-99295063D01*
X145663103Y-99295064D01*
X145670574Y-99300037D01*
X145679138Y-99302713D01*
X145679141Y-99302714D01*
X145739542Y-99321585D01*
X145808510Y-99343132D01*
X145952998Y-99345780D01*
X145976624Y-99339339D01*
X146083763Y-99310130D01*
X146083765Y-99310129D01*
X146092422Y-99307769D01*
X146203893Y-99239325D01*
X146269822Y-99220700D01*
X146703494Y-99220700D01*
X146771615Y-99240702D01*
X146818108Y-99294358D01*
X146828212Y-99364632D01*
X146798718Y-99429212D01*
X146738992Y-99467596D01*
X146728073Y-99470279D01*
X146681096Y-99479622D01*
X146681094Y-99479623D01*
X146668921Y-99482044D01*
X146658601Y-99488939D01*
X146658600Y-99488940D01*
X146614789Y-99518214D01*
X146584738Y-99538294D01*
X146577845Y-99548610D01*
X146552294Y-99586850D01*
X146528488Y-99622477D01*
X146513722Y-99696711D01*
X146513723Y-100568083D01*
X146513723Y-101116969D01*
X146493721Y-101185090D01*
X146440065Y-101231583D01*
X146369791Y-101241687D01*
X146303905Y-101211046D01*
X146261951Y-101173667D01*
X146261945Y-101173663D01*
X146256275Y-101168611D01*
X146248889Y-101164700D01*
X146163885Y-101119693D01*
X146116274Y-101094484D01*
X145962633Y-101055892D01*
X145955034Y-101055852D01*
X145955033Y-101055852D01*
X145889181Y-101055507D01*
X145804221Y-101055062D01*
X145796841Y-101056834D01*
X145796839Y-101056834D01*
X145657563Y-101090271D01*
X145657560Y-101090272D01*
X145650184Y-101092043D01*
X145509414Y-101164700D01*
X145390039Y-101268838D01*
X145298950Y-101398444D01*
X145270178Y-101472241D01*
X145251137Y-101521079D01*
X145241406Y-101546037D01*
X145240414Y-101553570D01*
X145240414Y-101553571D01*
X145221900Y-101694205D01*
X145220729Y-101703096D01*
X145226532Y-101755653D01*
X145236584Y-101846701D01*
X145238113Y-101860553D01*
X145240723Y-101867684D01*
X145240723Y-101867686D01*
X145287661Y-101995950D01*
X145292553Y-102009319D01*
X145296789Y-102015622D01*
X145296789Y-102015623D01*
X145375126Y-102132200D01*
X145380908Y-102140805D01*
X145386527Y-102145918D01*
X145386528Y-102145919D01*
X145492460Y-102242309D01*
X145498076Y-102247419D01*
X145637293Y-102323008D01*
X145790522Y-102363207D01*
X145874477Y-102364526D01*
X145941319Y-102365576D01*
X145941322Y-102365576D01*
X145948916Y-102365695D01*
X146103332Y-102330329D01*
X146193014Y-102285224D01*
X146238072Y-102262563D01*
X146238075Y-102262561D01*
X146244855Y-102259151D01*
X146287891Y-102222395D01*
X146290076Y-102220529D01*
X146354866Y-102191499D01*
X146425066Y-102202104D01*
X146478388Y-102248980D01*
X146497903Y-102317241D01*
X146485961Y-102369888D01*
X146452583Y-102440982D01*
X146451203Y-102449846D01*
X146451202Y-102449849D01*
X146431940Y-102573564D01*
X146430350Y-102583773D01*
X146431514Y-102592675D01*
X146431514Y-102592678D01*
X146444897Y-102695014D01*
X146449088Y-102727065D01*
X146507289Y-102859339D01*
X146513063Y-102866208D01*
X146579951Y-102945780D01*
X146600276Y-102969960D01*
X146607747Y-102974933D01*
X146607748Y-102974934D01*
X146713101Y-103045063D01*
X146713103Y-103045064D01*
X146720574Y-103050037D01*
X146729138Y-103052713D01*
X146729141Y-103052714D01*
X146789542Y-103071585D01*
X146858510Y-103093132D01*
X147002998Y-103095780D01*
X147045591Y-103084168D01*
X147133763Y-103060130D01*
X147133765Y-103060129D01*
X147142422Y-103057769D01*
X147265572Y-102982154D01*
X147362551Y-102875014D01*
X147406073Y-102785184D01*
X147421645Y-102753043D01*
X147421645Y-102753042D01*
X147425560Y-102744962D01*
X147449536Y-102602453D01*
X147449595Y-102597591D01*
X147450031Y-102592735D01*
X147451394Y-102592857D01*
X147470412Y-102530891D01*
X147486477Y-102511203D01*
X147490075Y-102507605D01*
X147552387Y-102473579D01*
X147579170Y-102470700D01*
X149042533Y-102470700D01*
X149110654Y-102490702D01*
X149157147Y-102544358D01*
X149167251Y-102614632D01*
X149137757Y-102679212D01*
X149074669Y-102717564D01*
X149074690Y-102717621D01*
X149074395Y-102717731D01*
X149071947Y-102719219D01*
X149067563Y-102720271D01*
X149067560Y-102720272D01*
X149060184Y-102722043D01*
X148919414Y-102794700D01*
X148800039Y-102898838D01*
X148708950Y-103028444D01*
X148683729Y-103093132D01*
X148654700Y-103167589D01*
X148651406Y-103176037D01*
X148650414Y-103183570D01*
X148650414Y-103183571D01*
X148632090Y-103322761D01*
X148630729Y-103333096D01*
X148637425Y-103393743D01*
X148646180Y-103473043D01*
X148648113Y-103490553D01*
X148650723Y-103497684D01*
X148650723Y-103497686D01*
X148688776Y-103601670D01*
X148702553Y-103639319D01*
X148706788Y-103645622D01*
X148706792Y-103645629D01*
X148725201Y-103673024D01*
X148746594Y-103740721D01*
X148727990Y-103809237D01*
X148675297Y-103856818D01*
X148620620Y-103869300D01*
X146979949Y-103869300D01*
X146968968Y-103868821D01*
X146941709Y-103866436D01*
X146941708Y-103866436D01*
X146930733Y-103865476D01*
X146893661Y-103875409D01*
X146882947Y-103877784D01*
X146867100Y-103880578D01*
X146856003Y-103882535D01*
X146856002Y-103882535D01*
X146845149Y-103884449D01*
X146835604Y-103889960D01*
X146832111Y-103891231D01*
X146828733Y-103892806D01*
X146818084Y-103895660D01*
X146809053Y-103901984D01*
X146809050Y-103901985D01*
X146786645Y-103917673D01*
X146777375Y-103923578D01*
X146744151Y-103942761D01*
X146737067Y-103951204D01*
X146737064Y-103951206D01*
X146719478Y-103972164D01*
X146712052Y-103980268D01*
X146585634Y-104106686D01*
X146523322Y-104140712D01*
X146452507Y-104135647D01*
X146395671Y-104093100D01*
X146381839Y-104069743D01*
X146369179Y-104041898D01*
X146369175Y-104041892D01*
X146365460Y-104033721D01*
X146359602Y-104026922D01*
X146359599Y-104026918D01*
X146276988Y-103931044D01*
X146276985Y-103931042D01*
X146271128Y-103924244D01*
X146199451Y-103877785D01*
X146157396Y-103850526D01*
X146157394Y-103850525D01*
X146149862Y-103845643D01*
X146132993Y-103840598D01*
X146020010Y-103806808D01*
X146020008Y-103806808D01*
X146011409Y-103804236D01*
X146002435Y-103804181D01*
X146002433Y-103804181D01*
X145939154Y-103803795D01*
X145866899Y-103803354D01*
X145858268Y-103805821D01*
X145858266Y-103805821D01*
X145736581Y-103840598D01*
X145736577Y-103840600D01*
X145727951Y-103843065D01*
X145720364Y-103847852D01*
X145720362Y-103847853D01*
X145613326Y-103915388D01*
X145605733Y-103920179D01*
X145599790Y-103926908D01*
X145599789Y-103926909D01*
X145557405Y-103974900D01*
X145510071Y-104028496D01*
X145506257Y-104036619D01*
X145506256Y-104036621D01*
X145479740Y-104093100D01*
X145448655Y-104159308D01*
X145436060Y-104240198D01*
X145432978Y-104259995D01*
X145402734Y-104324227D01*
X145342564Y-104361912D01*
X145266212Y-104359309D01*
X145201797Y-104336372D01*
X145201791Y-104336371D01*
X145195159Y-104334009D01*
X145188173Y-104333176D01*
X145188169Y-104333175D01*
X145069065Y-104318973D01*
X145027079Y-104313967D01*
X145020076Y-104314703D01*
X145020075Y-104314703D01*
X144865743Y-104330923D01*
X144865739Y-104330924D01*
X144858735Y-104331660D01*
X144852064Y-104333931D01*
X144705165Y-104383939D01*
X144705162Y-104383940D01*
X144698495Y-104386210D01*
X144692497Y-104389900D01*
X144692495Y-104389901D01*
X144560321Y-104471215D01*
X144560319Y-104471217D01*
X144554322Y-104474906D01*
X144433383Y-104593339D01*
X144429572Y-104599253D01*
X144429570Y-104599255D01*
X144387160Y-104665063D01*
X144341687Y-104735622D01*
X144328817Y-104770982D01*
X144286203Y-104888062D01*
X144286202Y-104888067D01*
X144283793Y-104894685D01*
X144262578Y-105062621D01*
X144279096Y-105231084D01*
X144332526Y-105391701D01*
X144336175Y-105397726D01*
X144336177Y-105397730D01*
X144413029Y-105524628D01*
X144431208Y-105593257D01*
X144409398Y-105660821D01*
X144354522Y-105705867D01*
X144322356Y-105714733D01*
X144319803Y-105715083D01*
X144310827Y-105715028D01*
X144302196Y-105717495D01*
X144302194Y-105717495D01*
X144180509Y-105752272D01*
X144180505Y-105752274D01*
X144171879Y-105754739D01*
X144164292Y-105759526D01*
X144164290Y-105759527D01*
X144072208Y-105817627D01*
X144049661Y-105831853D01*
X144043718Y-105838582D01*
X144043717Y-105838583D01*
X144026054Y-105858583D01*
X143953999Y-105940170D01*
X143892583Y-106070982D01*
X143891203Y-106079846D01*
X143891202Y-106079849D01*
X143872299Y-106201258D01*
X143870350Y-106213773D01*
X143871514Y-106222675D01*
X143871514Y-106222678D01*
X143884709Y-106323579D01*
X143889088Y-106357065D01*
X143947289Y-106489339D01*
X143953063Y-106496208D01*
X144024280Y-106580930D01*
X144040276Y-106599960D01*
X144047747Y-106604933D01*
X144047748Y-106604934D01*
X144153101Y-106675063D01*
X144153103Y-106675064D01*
X144160574Y-106680037D01*
X144169138Y-106682713D01*
X144169143Y-106682715D01*
X144225203Y-106700229D01*
X144284260Y-106739635D01*
X144312637Y-106804714D01*
X144306030Y-106863588D01*
X144283793Y-106924685D01*
X144262578Y-107092621D01*
X144279096Y-107261084D01*
X144332526Y-107421701D01*
X144349837Y-107450285D01*
X144414205Y-107556568D01*
X144420213Y-107566489D01*
X144425104Y-107571554D01*
X144425105Y-107571555D01*
X144486400Y-107635028D01*
X144537799Y-107688253D01*
X144679438Y-107780939D01*
X144838093Y-107839942D01*
X144845074Y-107840873D01*
X144845076Y-107840874D01*
X144998896Y-107861398D01*
X144998900Y-107861398D01*
X145005877Y-107862329D01*
X145012888Y-107861691D01*
X145012891Y-107861691D01*
X145071852Y-107856325D01*
X145166415Y-107847719D01*
X145236067Y-107861464D01*
X145287231Y-107910685D01*
X145303662Y-107979754D01*
X145302333Y-107992585D01*
X145281731Y-108124900D01*
X145281731Y-108124904D01*
X145280350Y-108133773D01*
X145281514Y-108142675D01*
X145281514Y-108142678D01*
X145288885Y-108199045D01*
X145299088Y-108277065D01*
X145357289Y-108409339D01*
X145450276Y-108519960D01*
X145457747Y-108524933D01*
X145463941Y-108530471D01*
X145501392Y-108590786D01*
X145500289Y-108661775D01*
X145474400Y-108707810D01*
X145383999Y-108810170D01*
X145380185Y-108818293D01*
X145380184Y-108818295D01*
X145359828Y-108861653D01*
X145322583Y-108940982D01*
X145321203Y-108949846D01*
X145321202Y-108949849D01*
X145302386Y-109070700D01*
X145300350Y-109083773D01*
X145303736Y-109109663D01*
X145292737Y-109179801D01*
X145245563Y-109232859D01*
X145213430Y-109247148D01*
X145151879Y-109264739D01*
X145144292Y-109269526D01*
X145144290Y-109269527D01*
X145039505Y-109335642D01*
X145029661Y-109341853D01*
X145023718Y-109348582D01*
X145023717Y-109348583D01*
X144980433Y-109397593D01*
X144933999Y-109450170D01*
X144930185Y-109458293D01*
X144930184Y-109458295D01*
X144913261Y-109494340D01*
X144872583Y-109580982D01*
X144871203Y-109589846D01*
X144871202Y-109589849D01*
X144853671Y-109702446D01*
X144850350Y-109723773D01*
X144851514Y-109732675D01*
X144851514Y-109732678D01*
X144866211Y-109845063D01*
X144869088Y-109867065D01*
X144927289Y-109999339D01*
X144933063Y-110006208D01*
X145014462Y-110103043D01*
X145020276Y-110109960D01*
X145140574Y-110190037D01*
X145140724Y-110190084D01*
X145190293Y-110234502D01*
X145209158Y-110302947D01*
X145207675Y-110320230D01*
X145199790Y-110370873D01*
X145200954Y-110379775D01*
X145200954Y-110379778D01*
X145215584Y-110491649D01*
X145218528Y-110514165D01*
X145276729Y-110646439D01*
X145282501Y-110653306D01*
X145282505Y-110653312D01*
X145349191Y-110732644D01*
X145377712Y-110797659D01*
X145378740Y-110813719D01*
X145378740Y-110889491D01*
X145378261Y-110900472D01*
X145374916Y-110938707D01*
X145384849Y-110975779D01*
X145387224Y-110986493D01*
X145393889Y-111024291D01*
X145399400Y-111033836D01*
X145400671Y-111037329D01*
X145402246Y-111040707D01*
X145405100Y-111051356D01*
X145411424Y-111060387D01*
X145411425Y-111060390D01*
X145427113Y-111082795D01*
X145433018Y-111092064D01*
X145452201Y-111125289D01*
X145460644Y-111132373D01*
X145460646Y-111132376D01*
X145481604Y-111149962D01*
X145489708Y-111157388D01*
X145822395Y-111490075D01*
X145856421Y-111552387D01*
X145859300Y-111579170D01*
X145859300Y-112850051D01*
X145858821Y-112861032D01*
X145856825Y-112883853D01*
X145855476Y-112899267D01*
X145865409Y-112936339D01*
X145867785Y-112947057D01*
X145872269Y-112972485D01*
X145874449Y-112984851D01*
X145879960Y-112994396D01*
X145881231Y-112997889D01*
X145882806Y-113001267D01*
X145885660Y-113011916D01*
X145891984Y-113020947D01*
X145891985Y-113020950D01*
X145907673Y-113043355D01*
X145913578Y-113052624D01*
X145932761Y-113085849D01*
X145941207Y-113092936D01*
X145962164Y-113110522D01*
X145970266Y-113117947D01*
X146202057Y-113349738D01*
X146209483Y-113357840D01*
X146234151Y-113387239D01*
X146267377Y-113406422D01*
X146276642Y-113412325D01*
X146308084Y-113434341D01*
X146318732Y-113437194D01*
X146322095Y-113438762D01*
X146325602Y-113440038D01*
X146335149Y-113445551D01*
X146346004Y-113447465D01*
X146372938Y-113452214D01*
X146383668Y-113454593D01*
X146403735Y-113459970D01*
X146420733Y-113464524D01*
X146431708Y-113463564D01*
X146431709Y-113463564D01*
X146458968Y-113461179D01*
X146469949Y-113460700D01*
X146817428Y-113460700D01*
X146885549Y-113480702D01*
X146932042Y-113534358D01*
X146942146Y-113604632D01*
X146912652Y-113669212D01*
X146906524Y-113675795D01*
X146351618Y-114230702D01*
X146343514Y-114238128D01*
X146327458Y-114251601D01*
X146314116Y-114262796D01*
X146298956Y-114289054D01*
X146294933Y-114296021D01*
X146289028Y-114305290D01*
X146273340Y-114327695D01*
X146273339Y-114327698D01*
X146267015Y-114336729D01*
X146264161Y-114347378D01*
X146262586Y-114350756D01*
X146261315Y-114354249D01*
X146255804Y-114363794D01*
X146249219Y-114401142D01*
X146249140Y-114401588D01*
X146246764Y-114412306D01*
X146236831Y-114449378D01*
X146237791Y-114460354D01*
X146236853Y-114471076D01*
X146210989Y-114537194D01*
X146205774Y-114543500D01*
X146153933Y-114602200D01*
X146145354Y-114611914D01*
X146141540Y-114620037D01*
X146141539Y-114620039D01*
X146127126Y-114650738D01*
X146083938Y-114742726D01*
X146082558Y-114751590D01*
X146082557Y-114751593D01*
X146063487Y-114874075D01*
X146061705Y-114885517D01*
X146062869Y-114894419D01*
X146062869Y-114894422D01*
X146074833Y-114985910D01*
X146080443Y-115028809D01*
X146084057Y-115037022D01*
X146084059Y-115037030D01*
X146086491Y-115042557D01*
X146095617Y-115112964D01*
X146065229Y-115177129D01*
X146004975Y-115214678D01*
X145971161Y-115219300D01*
X145823131Y-115219300D01*
X145755010Y-115199298D01*
X145708517Y-115145642D01*
X145698413Y-115075368D01*
X145705343Y-115048557D01*
X145748217Y-114935689D01*
X145757198Y-114912046D01*
X145767939Y-114835617D01*
X145780205Y-114748345D01*
X145780205Y-114748340D01*
X145780756Y-114744422D01*
X145781052Y-114723222D01*
X145772455Y-114646579D01*
X145762969Y-114562002D01*
X145762968Y-114561999D01*
X145762184Y-114555006D01*
X145706516Y-114395151D01*
X145616816Y-114251601D01*
X145599926Y-114234592D01*
X145516593Y-114150676D01*
X145497542Y-114131491D01*
X145354622Y-114040791D01*
X145327220Y-114031034D01*
X145201794Y-113986371D01*
X145201789Y-113986370D01*
X145195159Y-113984009D01*
X145188173Y-113983176D01*
X145188169Y-113983175D01*
X145069065Y-113968973D01*
X145027079Y-113963967D01*
X145020076Y-113964703D01*
X145020075Y-113964703D01*
X144865743Y-113980923D01*
X144865739Y-113980924D01*
X144858735Y-113981660D01*
X144852064Y-113983931D01*
X144705165Y-114033939D01*
X144705162Y-114033940D01*
X144698495Y-114036210D01*
X144692497Y-114039900D01*
X144692495Y-114039901D01*
X144560321Y-114121215D01*
X144560319Y-114121217D01*
X144554322Y-114124906D01*
X144433383Y-114243339D01*
X144429572Y-114249253D01*
X144429570Y-114249255D01*
X144396357Y-114300791D01*
X144341687Y-114385622D01*
X144334300Y-114405918D01*
X144286203Y-114538062D01*
X144286202Y-114538066D01*
X144283793Y-114544685D01*
X144262578Y-114712621D01*
X144269047Y-114778592D01*
X144269685Y-114785099D01*
X144256426Y-114854846D01*
X144207563Y-114906354D01*
X144138611Y-114923267D01*
X144071460Y-114900217D01*
X144042935Y-114872255D01*
X144030077Y-114854846D01*
X143944597Y-114739116D01*
X143753735Y-114545231D01*
X143744342Y-114538062D01*
X143614193Y-114438736D01*
X143537458Y-114380174D01*
X143509706Y-114364632D01*
X143303968Y-114249413D01*
X143303965Y-114249412D01*
X143300082Y-114247237D01*
X143295943Y-114245636D01*
X143295935Y-114245632D01*
X143107715Y-114172816D01*
X143046343Y-114149073D01*
X143042018Y-114148070D01*
X143042013Y-114148069D01*
X142832049Y-114099402D01*
X142770204Y-114064535D01*
X142737027Y-114001766D01*
X142734500Y-113976656D01*
X142734500Y-105378896D01*
X142754502Y-105310775D01*
X142808158Y-105264282D01*
X142878432Y-105254178D01*
X142898074Y-105258629D01*
X143008510Y-105293132D01*
X143152998Y-105295780D01*
X143212647Y-105279518D01*
X143283763Y-105260130D01*
X143283765Y-105260129D01*
X143292422Y-105257769D01*
X143415572Y-105182154D01*
X143512551Y-105075014D01*
X143575560Y-104944962D01*
X143599536Y-104802453D01*
X143599688Y-104790000D01*
X143582508Y-104670037D01*
X143580474Y-104655835D01*
X143580473Y-104655833D01*
X143579201Y-104646948D01*
X143519388Y-104515395D01*
X143513530Y-104508596D01*
X143513527Y-104508592D01*
X143430916Y-104412718D01*
X143430913Y-104412716D01*
X143425056Y-104405918D01*
X143357163Y-104361912D01*
X143311324Y-104332200D01*
X143311322Y-104332199D01*
X143303790Y-104327317D01*
X143280802Y-104320442D01*
X143173938Y-104288482D01*
X143173936Y-104288482D01*
X143165337Y-104285910D01*
X143156363Y-104285855D01*
X143156361Y-104285855D01*
X143093082Y-104285469D01*
X143020827Y-104285028D01*
X142895123Y-104320954D01*
X142824130Y-104320442D01*
X142764682Y-104281628D01*
X142735656Y-104216836D01*
X142734500Y-104199805D01*
X142734500Y-97328896D01*
X142754502Y-97260775D01*
X142808158Y-97214282D01*
X142878432Y-97204178D01*
X142898074Y-97208629D01*
X143008510Y-97243132D01*
X143152998Y-97245780D01*
X143162109Y-97243296D01*
X143283763Y-97210130D01*
X143283765Y-97210129D01*
X143292422Y-97207769D01*
X143415572Y-97132154D01*
X143424339Y-97122469D01*
X143443598Y-97101192D01*
X143512551Y-97025014D01*
X143575560Y-96894962D01*
X143578166Y-96896225D01*
X143609697Y-96849583D01*
X143674946Y-96821599D01*
X143689973Y-96820700D01*
X144300651Y-96820700D01*
X144368772Y-96840702D01*
G37*
%TD.AperFunction*%
%TA.AperFunction,Conductor*%
G36*
X153793571Y-111740702D02*
G01*
X153840064Y-111794358D01*
X153850168Y-111864632D01*
X153820674Y-111929212D01*
X153808279Y-111941649D01*
X153805765Y-111943842D01*
X153805761Y-111943846D01*
X153800039Y-111948838D01*
X153708950Y-112078444D01*
X153706191Y-112085520D01*
X153706188Y-112085526D01*
X153670030Y-112178269D01*
X153626650Y-112234471D01*
X153552637Y-112258500D01*
X151150478Y-112258500D01*
X151082357Y-112238498D01*
X151035864Y-112184842D01*
X151025391Y-112147637D01*
X151017875Y-112085526D01*
X151010276Y-112022733D01*
X150960587Y-111891236D01*
X150955219Y-111820445D01*
X150988976Y-111757988D01*
X151051142Y-111723696D01*
X151078453Y-111720700D01*
X153725450Y-111720700D01*
X153793571Y-111740702D01*
G37*
%TD.AperFunction*%
%TA.AperFunction,Conductor*%
G36*
X166815656Y-110290702D02*
G01*
X166862149Y-110344358D01*
X166872253Y-110414632D01*
X166850623Y-110469149D01*
X166808950Y-110528444D01*
X166799498Y-110552687D01*
X166754677Y-110667648D01*
X166751406Y-110676037D01*
X166750414Y-110683570D01*
X166750414Y-110683571D01*
X166732123Y-110822508D01*
X166730729Y-110833096D01*
X166736268Y-110883262D01*
X166744811Y-110960641D01*
X166748113Y-110990553D01*
X166750723Y-110997686D01*
X166750724Y-110997689D01*
X166766207Y-111040000D01*
X166770833Y-111110846D01*
X166736422Y-111172946D01*
X166673900Y-111206584D01*
X166647881Y-111209300D01*
X162063333Y-111209300D01*
X161995212Y-111189298D01*
X161948719Y-111135642D01*
X161938615Y-111065368D01*
X161946426Y-111036303D01*
X161957566Y-111008592D01*
X161976842Y-110960641D01*
X161984935Y-110903774D01*
X161998581Y-110807891D01*
X161998581Y-110807888D01*
X161999162Y-110803807D01*
X161999236Y-110796779D01*
X161999264Y-110794134D01*
X161999264Y-110794128D01*
X161999307Y-110790000D01*
X161998806Y-110785855D01*
X161993229Y-110739770D01*
X161980276Y-110632733D01*
X161924280Y-110484546D01*
X161912955Y-110468068D01*
X161890854Y-110400599D01*
X161908739Y-110331892D01*
X161960930Y-110283761D01*
X162016794Y-110270700D01*
X166747535Y-110270700D01*
X166815656Y-110290702D01*
G37*
%TD.AperFunction*%
%TA.AperFunction,Conductor*%
G36*
X147184740Y-106340702D02*
G01*
X147232249Y-106396644D01*
X147245867Y-106428101D01*
X147548966Y-106731200D01*
X147562910Y-106738814D01*
X147564743Y-106738683D01*
X147571358Y-106734432D01*
X147874323Y-106431467D01*
X147898979Y-106386314D01*
X147949182Y-106336112D01*
X148009566Y-106320700D01*
X152053674Y-106320700D01*
X152121795Y-106340702D01*
X152168288Y-106394358D01*
X152178392Y-106464632D01*
X152148898Y-106529212D01*
X152141835Y-106536720D01*
X152053383Y-106623339D01*
X152049572Y-106629253D01*
X152049570Y-106629255D01*
X152032476Y-106655780D01*
X151961687Y-106765622D01*
X151951162Y-106794539D01*
X151906203Y-106918062D01*
X151906202Y-106918066D01*
X151903793Y-106924685D01*
X151882578Y-107092621D01*
X151899096Y-107261084D01*
X151952526Y-107421701D01*
X151969837Y-107450285D01*
X152034205Y-107556568D01*
X152040213Y-107566489D01*
X152113186Y-107642054D01*
X152127529Y-107656907D01*
X152160461Y-107719803D01*
X152154161Y-107790520D01*
X152110629Y-107846604D01*
X152058773Y-107868520D01*
X152036003Y-107872535D01*
X152036002Y-107872535D01*
X152025149Y-107874449D01*
X152015604Y-107879960D01*
X152012111Y-107881231D01*
X152008733Y-107882806D01*
X151998084Y-107885660D01*
X151989053Y-107891984D01*
X151989050Y-107891985D01*
X151966645Y-107907673D01*
X151957375Y-107913579D01*
X151945790Y-107920268D01*
X151924151Y-107932761D01*
X151917068Y-107941202D01*
X151917067Y-107941203D01*
X151899483Y-107962159D01*
X151892057Y-107970262D01*
X151863869Y-107998450D01*
X151801557Y-108032476D01*
X151774007Y-108035353D01*
X151720827Y-108035028D01*
X151712196Y-108037495D01*
X151712194Y-108037495D01*
X151590509Y-108072272D01*
X151590505Y-108072274D01*
X151581879Y-108074739D01*
X151574292Y-108079526D01*
X151574290Y-108079527D01*
X151467254Y-108147062D01*
X151459661Y-108151853D01*
X151453718Y-108158582D01*
X151453717Y-108158583D01*
X151409740Y-108208378D01*
X151363999Y-108260170D01*
X151302583Y-108390982D01*
X151301203Y-108399846D01*
X151301202Y-108399849D01*
X151282113Y-108522453D01*
X151280350Y-108533773D01*
X151281514Y-108542675D01*
X151281514Y-108542678D01*
X151286644Y-108581904D01*
X151299088Y-108677065D01*
X151302703Y-108685280D01*
X151305117Y-108693928D01*
X151303052Y-108694505D01*
X151310632Y-108752955D01*
X151280248Y-108817122D01*
X151219997Y-108854676D01*
X151186174Y-108859300D01*
X149117794Y-108859300D01*
X149049673Y-108839298D01*
X149003180Y-108785642D01*
X148993540Y-108712397D01*
X148998729Y-108681552D01*
X148998729Y-108681547D01*
X148999536Y-108676753D01*
X148999688Y-108664300D01*
X148979201Y-108521248D01*
X148919388Y-108389695D01*
X148913530Y-108382896D01*
X148913527Y-108382892D01*
X148830916Y-108287018D01*
X148830913Y-108287016D01*
X148825056Y-108280218D01*
X148703790Y-108201617D01*
X148621846Y-108177110D01*
X148573938Y-108162782D01*
X148573936Y-108162782D01*
X148565337Y-108160210D01*
X148556363Y-108160155D01*
X148556361Y-108160155D01*
X148493082Y-108159769D01*
X148420827Y-108159328D01*
X148412196Y-108161795D01*
X148412194Y-108161795D01*
X148290509Y-108196572D01*
X148290505Y-108196574D01*
X148281879Y-108199039D01*
X148274292Y-108203826D01*
X148274290Y-108203827D01*
X148172115Y-108268295D01*
X148159661Y-108276153D01*
X148063999Y-108384470D01*
X148060185Y-108392593D01*
X148060184Y-108392595D01*
X148052323Y-108409339D01*
X148002583Y-108515282D01*
X148001203Y-108524146D01*
X148001202Y-108524149D01*
X147990827Y-108590786D01*
X147980350Y-108658073D01*
X147981514Y-108666975D01*
X147981514Y-108666978D01*
X147988051Y-108716962D01*
X147977051Y-108787101D01*
X147929877Y-108840159D01*
X147863115Y-108859300D01*
X147029170Y-108859300D01*
X146961049Y-108839298D01*
X146940075Y-108822395D01*
X146427917Y-108310237D01*
X146393891Y-108247925D01*
X146398956Y-108177110D01*
X146441503Y-108120274D01*
X146508023Y-108095463D01*
X146519320Y-108095163D01*
X146544021Y-108095616D01*
X146544025Y-108095616D01*
X146552998Y-108095780D01*
X146612614Y-108079527D01*
X146683763Y-108060130D01*
X146683765Y-108060129D01*
X146692422Y-108057769D01*
X146815572Y-107982154D01*
X146912551Y-107875014D01*
X146953488Y-107790520D01*
X146958773Y-107779611D01*
X147006475Y-107727028D01*
X147075033Y-107708582D01*
X147141157Y-107729116D01*
X147213769Y-107776631D01*
X147226269Y-107782946D01*
X147371613Y-107836999D01*
X147385199Y-107840386D01*
X147538906Y-107860896D01*
X147552902Y-107861189D01*
X147707328Y-107847134D01*
X147721054Y-107844317D01*
X147868530Y-107796399D01*
X147873466Y-107794160D01*
X147880747Y-107786308D01*
X147877242Y-107777896D01*
X147203700Y-107104354D01*
X147926186Y-107104354D01*
X147926317Y-107106187D01*
X147930568Y-107112802D01*
X148232413Y-107414647D01*
X148244793Y-107421407D01*
X148248609Y-107418550D01*
X148294209Y-107298507D01*
X148297691Y-107284946D01*
X148319702Y-107128331D01*
X148320308Y-107120447D01*
X148320494Y-107107184D01*
X148320107Y-107099284D01*
X148302478Y-106942113D01*
X148299377Y-106928467D01*
X148252738Y-106794539D01*
X148244535Y-106783066D01*
X148240527Y-106783847D01*
X148239917Y-106784293D01*
X147933800Y-107090410D01*
X147926186Y-107104354D01*
X147203700Y-107104354D01*
X146890428Y-106791082D01*
X146878048Y-106784322D01*
X146874426Y-106787033D01*
X146826691Y-106918184D01*
X146823399Y-106931793D01*
X146813881Y-107007134D01*
X146785499Y-107072211D01*
X146726439Y-107111612D01*
X146652772Y-107112059D01*
X146573938Y-107088482D01*
X146573936Y-107088482D01*
X146565337Y-107085910D01*
X146556363Y-107085855D01*
X146556361Y-107085855D01*
X146493082Y-107085469D01*
X146420827Y-107085028D01*
X146412196Y-107087495D01*
X146412194Y-107087495D01*
X146290509Y-107122272D01*
X146290505Y-107122274D01*
X146281879Y-107124739D01*
X146274288Y-107129528D01*
X146274287Y-107129529D01*
X146181758Y-107187910D01*
X146113473Y-107207344D01*
X146093971Y-107201441D01*
X146098630Y-107213931D01*
X146083539Y-107283305D01*
X146074738Y-107295854D01*
X146074869Y-107295940D01*
X146069941Y-107303442D01*
X146063999Y-107310170D01*
X146060185Y-107318293D01*
X146060184Y-107318295D01*
X146034342Y-107373337D01*
X146002583Y-107440982D01*
X146001203Y-107449844D01*
X146001202Y-107449848D01*
X145988834Y-107529286D01*
X145958590Y-107593518D01*
X145898420Y-107631203D01*
X145863566Y-107635899D01*
X145837495Y-107635740D01*
X145806643Y-107635552D01*
X145738646Y-107615135D01*
X145692481Y-107561197D01*
X145682806Y-107490862D01*
X145694750Y-107453806D01*
X145697089Y-107450285D01*
X145703709Y-107432859D01*
X145747227Y-107318295D01*
X145757198Y-107292046D01*
X145758178Y-107285071D01*
X145758329Y-107284484D01*
X145783845Y-107234833D01*
X145785521Y-107232837D01*
X145792943Y-107224738D01*
X145883856Y-107133825D01*
X145946168Y-107099799D01*
X145995499Y-107103327D01*
X145989959Y-107062378D01*
X146019989Y-106998045D01*
X146025428Y-106992252D01*
X146245434Y-106772247D01*
X146660077Y-106357604D01*
X146722389Y-106323579D01*
X146749172Y-106320700D01*
X147116619Y-106320700D01*
X147184740Y-106340702D01*
G37*
%TD.AperFunction*%
%TA.AperFunction,Conductor*%
G36*
X157201795Y-106340702D02*
G01*
X157248288Y-106394358D01*
X157258392Y-106464632D01*
X157228898Y-106529212D01*
X157221835Y-106536720D01*
X157133383Y-106623339D01*
X157129572Y-106629253D01*
X157129570Y-106629255D01*
X157112476Y-106655780D01*
X157041687Y-106765622D01*
X157031162Y-106794539D01*
X156986203Y-106918062D01*
X156986202Y-106918066D01*
X156983793Y-106924685D01*
X156962578Y-107092621D01*
X156979096Y-107261084D01*
X157032526Y-107421701D01*
X157049837Y-107450285D01*
X157114205Y-107556568D01*
X157120213Y-107566489D01*
X157193186Y-107642054D01*
X157196777Y-107645773D01*
X157229709Y-107708669D01*
X157223409Y-107779386D01*
X157179877Y-107835470D01*
X157106140Y-107859300D01*
X155796983Y-107859300D01*
X155728862Y-107839298D01*
X155682369Y-107785642D01*
X155672265Y-107715368D01*
X155701759Y-107650788D01*
X155710092Y-107642054D01*
X155758309Y-107596138D01*
X155758313Y-107596133D01*
X155763416Y-107591274D01*
X155774402Y-107574739D01*
X155853188Y-107456157D01*
X155853189Y-107456155D01*
X155857089Y-107450285D01*
X155917198Y-107292046D01*
X155929102Y-107207344D01*
X155940205Y-107128345D01*
X155940205Y-107128340D01*
X155940756Y-107124422D01*
X155941052Y-107103222D01*
X155926139Y-106970268D01*
X155922969Y-106942002D01*
X155922968Y-106941999D01*
X155922184Y-106935006D01*
X155866516Y-106775151D01*
X155776816Y-106631601D01*
X155770758Y-106625500D01*
X155681368Y-106535484D01*
X155647561Y-106473053D01*
X155652873Y-106402256D01*
X155695618Y-106345569D01*
X155762224Y-106320990D01*
X155770774Y-106320700D01*
X157133674Y-106320700D01*
X157201795Y-106340702D01*
G37*
%TD.AperFunction*%
%TA.AperFunction,Conductor*%
G36*
X162129439Y-104490702D02*
G01*
X162175932Y-104544358D01*
X162186036Y-104614632D01*
X162167230Y-104664954D01*
X162121687Y-104735622D01*
X162108817Y-104770982D01*
X162066203Y-104888062D01*
X162066202Y-104888067D01*
X162063793Y-104894685D01*
X162042578Y-105062621D01*
X162059096Y-105231084D01*
X162112526Y-105391701D01*
X162123553Y-105409909D01*
X162193030Y-105524628D01*
X162200213Y-105536489D01*
X162205104Y-105541554D01*
X162205105Y-105541555D01*
X162237028Y-105574612D01*
X162317799Y-105658253D01*
X162459438Y-105750939D01*
X162618093Y-105809942D01*
X162625074Y-105810873D01*
X162625076Y-105810874D01*
X162778896Y-105831398D01*
X162778900Y-105831398D01*
X162785877Y-105832329D01*
X162792888Y-105831691D01*
X162792892Y-105831691D01*
X162947430Y-105817627D01*
X162954451Y-105816988D01*
X163115437Y-105764680D01*
X163232348Y-105694987D01*
X163254782Y-105681614D01*
X163254784Y-105681613D01*
X163260834Y-105678006D01*
X163383416Y-105561274D01*
X163392330Y-105547858D01*
X163473188Y-105426157D01*
X163473189Y-105426155D01*
X163477089Y-105420285D01*
X163537198Y-105262046D01*
X163557151Y-105120075D01*
X163560205Y-105098345D01*
X163560205Y-105098340D01*
X163560756Y-105094422D01*
X163561052Y-105073222D01*
X163548646Y-104962615D01*
X163542969Y-104912002D01*
X163542968Y-104911999D01*
X163542184Y-104905006D01*
X163486516Y-104745151D01*
X163435476Y-104663470D01*
X163416340Y-104595101D01*
X163437205Y-104527239D01*
X163491447Y-104481431D01*
X163542330Y-104470700D01*
X164601318Y-104470700D01*
X164669439Y-104490702D01*
X164715932Y-104544358D01*
X164726036Y-104614632D01*
X164707230Y-104664954D01*
X164661687Y-104735622D01*
X164648817Y-104770982D01*
X164606203Y-104888062D01*
X164606202Y-104888067D01*
X164603793Y-104894685D01*
X164582578Y-105062621D01*
X164599096Y-105231084D01*
X164652526Y-105391701D01*
X164663553Y-105409909D01*
X164733030Y-105524628D01*
X164740213Y-105536489D01*
X164745104Y-105541554D01*
X164745105Y-105541555D01*
X164777028Y-105574612D01*
X164857799Y-105658253D01*
X164977130Y-105736341D01*
X165023177Y-105790377D01*
X165032701Y-105860732D01*
X165022192Y-105895319D01*
X164972583Y-106000982D01*
X164971203Y-106009846D01*
X164971202Y-106009849D01*
X164955907Y-106108084D01*
X164950350Y-106143773D01*
X164951514Y-106152675D01*
X164951514Y-106152678D01*
X164965949Y-106263061D01*
X164969088Y-106287065D01*
X164994125Y-106343967D01*
X165007688Y-106374792D01*
X165009712Y-106390784D01*
X165025867Y-106428101D01*
X165077131Y-106479365D01*
X165084487Y-106487384D01*
X165108952Y-106516488D01*
X165120276Y-106529960D01*
X165127747Y-106534933D01*
X165127749Y-106534935D01*
X165132139Y-106537857D01*
X165151415Y-106553649D01*
X165611893Y-107014127D01*
X165645919Y-107076439D01*
X165640854Y-107147254D01*
X165611893Y-107192317D01*
X165430873Y-107373337D01*
X165368561Y-107407363D01*
X165297746Y-107402298D01*
X165252683Y-107373337D01*
X164670428Y-106791082D01*
X164658048Y-106784322D01*
X164654426Y-106787033D01*
X164606691Y-106918184D01*
X164603399Y-106931792D01*
X164583965Y-107085634D01*
X164583769Y-107099640D01*
X164598901Y-107253970D01*
X164601812Y-107267667D01*
X164642772Y-107390797D01*
X164645295Y-107461748D01*
X164609058Y-107522801D01*
X164545566Y-107554570D01*
X164523214Y-107556568D01*
X163619363Y-107556568D01*
X163551242Y-107536566D01*
X163504749Y-107482910D01*
X163494645Y-107412636D01*
X163501575Y-107385825D01*
X163527227Y-107318295D01*
X163537198Y-107292046D01*
X163549102Y-107207344D01*
X163560205Y-107128345D01*
X163560205Y-107128340D01*
X163560756Y-107124422D01*
X163561052Y-107103222D01*
X163546139Y-106970268D01*
X163542969Y-106942002D01*
X163542968Y-106941999D01*
X163542184Y-106935006D01*
X163486516Y-106775151D01*
X163396816Y-106631601D01*
X163390758Y-106625500D01*
X163330576Y-106564897D01*
X163277542Y-106511491D01*
X163267332Y-106505011D01*
X163223023Y-106476892D01*
X163134622Y-106420791D01*
X163107220Y-106411034D01*
X162981794Y-106366371D01*
X162981789Y-106366370D01*
X162975159Y-106364009D01*
X162968173Y-106363176D01*
X162968169Y-106363175D01*
X162849065Y-106348973D01*
X162807079Y-106343967D01*
X162800076Y-106344703D01*
X162800075Y-106344703D01*
X162645743Y-106360923D01*
X162645739Y-106360924D01*
X162638735Y-106361660D01*
X162632064Y-106363931D01*
X162485165Y-106413939D01*
X162485162Y-106413940D01*
X162478495Y-106416210D01*
X162472497Y-106419900D01*
X162472495Y-106419901D01*
X162340321Y-106501215D01*
X162340319Y-106501217D01*
X162334322Y-106504906D01*
X162213383Y-106623339D01*
X162209572Y-106629253D01*
X162209570Y-106629255D01*
X162192476Y-106655780D01*
X162121687Y-106765622D01*
X162111162Y-106794539D01*
X162066203Y-106918062D01*
X162066202Y-106918066D01*
X162063793Y-106924685D01*
X162042578Y-107092621D01*
X162059096Y-107261084D01*
X162061319Y-107267765D01*
X162061320Y-107267772D01*
X162102245Y-107390797D01*
X162104768Y-107461748D01*
X162068531Y-107522801D01*
X162005039Y-107554570D01*
X161982687Y-107556568D01*
X161376438Y-107556568D01*
X161308317Y-107536566D01*
X161287343Y-107519663D01*
X160737948Y-106970268D01*
X160730522Y-106962164D01*
X160712936Y-106941206D01*
X160712933Y-106941204D01*
X160705849Y-106932761D01*
X160672625Y-106913578D01*
X160663355Y-106907673D01*
X160640950Y-106891985D01*
X160640947Y-106891984D01*
X160631916Y-106885660D01*
X160621267Y-106882806D01*
X160617889Y-106881231D01*
X160614396Y-106879960D01*
X160604851Y-106874449D01*
X160593998Y-106872535D01*
X160593997Y-106872535D01*
X160573903Y-106868992D01*
X160567053Y-106867784D01*
X160556339Y-106865409D01*
X160519267Y-106855476D01*
X160508292Y-106856436D01*
X160508291Y-106856436D01*
X160481032Y-106858821D01*
X160470051Y-106859300D01*
X159889004Y-106859300D01*
X159820883Y-106839298D01*
X159774390Y-106785642D01*
X159764286Y-106715368D01*
X159793780Y-106650788D01*
X159808167Y-106636701D01*
X159815572Y-106632154D01*
X159912551Y-106525014D01*
X159957874Y-106431467D01*
X159971645Y-106403043D01*
X159971645Y-106403042D01*
X159975560Y-106394962D01*
X159999536Y-106252453D01*
X159999688Y-106240000D01*
X159985907Y-106143773D01*
X159980474Y-106105835D01*
X159980473Y-106105833D01*
X159979201Y-106096948D01*
X159919388Y-105965395D01*
X159913530Y-105958596D01*
X159913527Y-105958592D01*
X159830916Y-105862718D01*
X159830913Y-105862716D01*
X159825056Y-105855918D01*
X159754124Y-105809942D01*
X159711324Y-105782200D01*
X159711322Y-105782199D01*
X159703790Y-105777317D01*
X159668815Y-105766857D01*
X159573938Y-105738482D01*
X159573936Y-105738482D01*
X159565337Y-105735910D01*
X159556363Y-105735855D01*
X159556361Y-105735855D01*
X159493082Y-105735469D01*
X159420827Y-105735028D01*
X159412196Y-105737495D01*
X159412194Y-105737495D01*
X159290509Y-105772272D01*
X159290505Y-105772274D01*
X159281879Y-105774739D01*
X159274292Y-105779526D01*
X159274290Y-105779527D01*
X159169543Y-105845618D01*
X159159661Y-105851853D01*
X159063999Y-105960170D01*
X159060185Y-105968293D01*
X159060184Y-105968295D01*
X159044838Y-106000982D01*
X159002583Y-106090982D01*
X159001202Y-106099851D01*
X159001153Y-106100164D01*
X159001019Y-106100449D01*
X158998577Y-106108436D01*
X158997424Y-106108084D01*
X158970911Y-106164398D01*
X158910743Y-106202084D01*
X158839751Y-106201258D01*
X158787558Y-106169878D01*
X158387948Y-105770268D01*
X158380522Y-105762164D01*
X158362936Y-105741206D01*
X158362933Y-105741204D01*
X158355849Y-105732761D01*
X158346303Y-105727250D01*
X158337860Y-105720165D01*
X158339806Y-105717846D01*
X158302805Y-105679031D01*
X158289377Y-105609316D01*
X158309857Y-105551580D01*
X158393188Y-105426157D01*
X158393189Y-105426155D01*
X158397089Y-105420285D01*
X158457198Y-105262046D01*
X158477151Y-105120075D01*
X158480205Y-105098345D01*
X158480205Y-105098340D01*
X158480756Y-105094422D01*
X158481052Y-105073222D01*
X158468646Y-104962615D01*
X158462969Y-104912002D01*
X158462968Y-104911999D01*
X158462184Y-104905006D01*
X158406516Y-104745151D01*
X158355476Y-104663470D01*
X158336340Y-104595101D01*
X158357205Y-104527239D01*
X158411447Y-104481431D01*
X158462330Y-104470700D01*
X162061318Y-104470700D01*
X162129439Y-104490702D01*
G37*
%TD.AperFunction*%
%TA.AperFunction,Conductor*%
G36*
X152842295Y-103740702D02*
G01*
X152888788Y-103794358D01*
X152898674Y-103866085D01*
X152881731Y-103974900D01*
X152881731Y-103974904D01*
X152880350Y-103983773D01*
X152881514Y-103992675D01*
X152881514Y-103992678D01*
X152892323Y-104075330D01*
X152899088Y-104127065D01*
X152902703Y-104135280D01*
X152910958Y-104154042D01*
X152920084Y-104224449D01*
X152889697Y-104288614D01*
X152829444Y-104326164D01*
X152780709Y-104329901D01*
X152716485Y-104322243D01*
X152647079Y-104313967D01*
X152640076Y-104314703D01*
X152640075Y-104314703D01*
X152485743Y-104330923D01*
X152485739Y-104330924D01*
X152478735Y-104331660D01*
X152472064Y-104333931D01*
X152325165Y-104383939D01*
X152325162Y-104383940D01*
X152318495Y-104386210D01*
X152312497Y-104389900D01*
X152312495Y-104389901D01*
X152180321Y-104471215D01*
X152180319Y-104471217D01*
X152174322Y-104474906D01*
X152053383Y-104593339D01*
X152049572Y-104599253D01*
X152049570Y-104599255D01*
X152007160Y-104665063D01*
X151961687Y-104735622D01*
X151948817Y-104770982D01*
X151906203Y-104888062D01*
X151906202Y-104888067D01*
X151903793Y-104894685D01*
X151882578Y-105062621D01*
X151899096Y-105231084D01*
X151952526Y-105391701D01*
X151956175Y-105397726D01*
X151956177Y-105397730D01*
X151998751Y-105468029D01*
X152016930Y-105536659D01*
X151995119Y-105604222D01*
X151940244Y-105649268D01*
X151890975Y-105659300D01*
X148313276Y-105659300D01*
X148245155Y-105639298D01*
X148198662Y-105585642D01*
X148188558Y-105515368D01*
X148208329Y-105463572D01*
X148214254Y-105454655D01*
X148237089Y-105420285D01*
X148297198Y-105262046D01*
X148317151Y-105120075D01*
X148320205Y-105098345D01*
X148320205Y-105098340D01*
X148320756Y-105094422D01*
X148321052Y-105073222D01*
X148308646Y-104962615D01*
X148302969Y-104912002D01*
X148302968Y-104911999D01*
X148302184Y-104905006D01*
X148246516Y-104745151D01*
X148232967Y-104723469D01*
X148213832Y-104655102D01*
X148234697Y-104587240D01*
X148288938Y-104541432D01*
X148339822Y-104530700D01*
X149770051Y-104530700D01*
X149781032Y-104531179D01*
X149808291Y-104533564D01*
X149808292Y-104533564D01*
X149819267Y-104534524D01*
X149856339Y-104524591D01*
X149867053Y-104522216D01*
X149882900Y-104519422D01*
X149893997Y-104517465D01*
X149893998Y-104517465D01*
X149904851Y-104515551D01*
X149914396Y-104510040D01*
X149917889Y-104508769D01*
X149921267Y-104507194D01*
X149931916Y-104504340D01*
X149940947Y-104498016D01*
X149940950Y-104498015D01*
X149963355Y-104482327D01*
X149972624Y-104476422D01*
X149975250Y-104474906D01*
X150005849Y-104457239D01*
X150012933Y-104448796D01*
X150012936Y-104448794D01*
X150030522Y-104427836D01*
X150037948Y-104419732D01*
X150510075Y-103947605D01*
X150572387Y-103913579D01*
X150599170Y-103910700D01*
X151300051Y-103910700D01*
X151311032Y-103911179D01*
X151338291Y-103913564D01*
X151338292Y-103913564D01*
X151349267Y-103914524D01*
X151386339Y-103904591D01*
X151397053Y-103902216D01*
X151412900Y-103899422D01*
X151423997Y-103897465D01*
X151423998Y-103897465D01*
X151434851Y-103895551D01*
X151444396Y-103890040D01*
X151447889Y-103888769D01*
X151451267Y-103887194D01*
X151461916Y-103884340D01*
X151470947Y-103878016D01*
X151470950Y-103878015D01*
X151493355Y-103862327D01*
X151502624Y-103856422D01*
X151504017Y-103855618D01*
X151535849Y-103837239D01*
X151545349Y-103825918D01*
X151560521Y-103807836D01*
X151567948Y-103799732D01*
X151610075Y-103757605D01*
X151672387Y-103723579D01*
X151699170Y-103720700D01*
X152774174Y-103720700D01*
X152842295Y-103740702D01*
G37*
%TD.AperFunction*%
%TA.AperFunction,Conductor*%
G36*
X156112947Y-105062216D02*
G01*
X156123661Y-105064591D01*
X156160733Y-105074524D01*
X156171708Y-105073564D01*
X156171709Y-105073564D01*
X156198968Y-105071179D01*
X156209949Y-105070700D01*
X156720051Y-105070700D01*
X156731032Y-105071179D01*
X156758291Y-105073564D01*
X156758292Y-105073564D01*
X156769267Y-105074524D01*
X156806339Y-105064591D01*
X156817060Y-105062215D01*
X156819043Y-105061865D01*
X156826072Y-105060626D01*
X156896631Y-105068499D01*
X156951732Y-105113269D01*
X156973344Y-105172417D01*
X156979096Y-105231084D01*
X157032526Y-105391701D01*
X157036175Y-105397726D01*
X157036177Y-105397730D01*
X157078751Y-105468029D01*
X157096930Y-105536659D01*
X157075119Y-105604222D01*
X157020244Y-105649268D01*
X156970975Y-105659300D01*
X155933276Y-105659300D01*
X155865155Y-105639298D01*
X155818662Y-105585642D01*
X155808558Y-105515368D01*
X155828329Y-105463572D01*
X155834254Y-105454655D01*
X155857089Y-105420285D01*
X155917198Y-105262046D01*
X155931178Y-105162574D01*
X155960466Y-105097900D01*
X156020070Y-105059327D01*
X156077831Y-105056024D01*
X156112947Y-105062216D01*
G37*
%TD.AperFunction*%
%TA.AperFunction,Conductor*%
G36*
X151173577Y-102490702D02*
G01*
X151220070Y-102544358D01*
X151228443Y-102584022D01*
X151230350Y-102583773D01*
X151249088Y-102727065D01*
X151307289Y-102859339D01*
X151313061Y-102866206D01*
X151313065Y-102866212D01*
X151361014Y-102923254D01*
X151389535Y-102988270D01*
X151378379Y-103058384D01*
X151336598Y-103107707D01*
X151336410Y-103107838D01*
X151327377Y-103113578D01*
X151294151Y-103132761D01*
X151287068Y-103141202D01*
X151287067Y-103141203D01*
X151269482Y-103162160D01*
X151262056Y-103170263D01*
X151219924Y-103212395D01*
X151157612Y-103246421D01*
X151130829Y-103249300D01*
X150429938Y-103249300D01*
X150418957Y-103248821D01*
X150391710Y-103246437D01*
X150391708Y-103246437D01*
X150380733Y-103245477D01*
X150370089Y-103248329D01*
X150370087Y-103248329D01*
X150343682Y-103255404D01*
X150332953Y-103257783D01*
X150306003Y-103262535D01*
X150306002Y-103262535D01*
X150295149Y-103264449D01*
X150285604Y-103269960D01*
X150282114Y-103271230D01*
X150278735Y-103272806D01*
X150268083Y-103275660D01*
X150236639Y-103297678D01*
X150227383Y-103303574D01*
X150216253Y-103310000D01*
X150194151Y-103322761D01*
X150187066Y-103331204D01*
X150187063Y-103331207D01*
X150169478Y-103352164D01*
X150162052Y-103360268D01*
X150157538Y-103364782D01*
X150095226Y-103398808D01*
X150024411Y-103393743D01*
X149967575Y-103351196D01*
X149943356Y-103290824D01*
X149940220Y-103264906D01*
X149930276Y-103182733D01*
X149874280Y-103034546D01*
X149862451Y-103017334D01*
X149788855Y-102910251D01*
X149788854Y-102910249D01*
X149784553Y-102903992D01*
X149666275Y-102798611D01*
X149658889Y-102794700D01*
X149564950Y-102744962D01*
X149526274Y-102724484D01*
X149518911Y-102722635D01*
X149518907Y-102722633D01*
X149504060Y-102718904D01*
X149442864Y-102682909D01*
X149410843Y-102619544D01*
X149418163Y-102548926D01*
X149462501Y-102493475D01*
X149534755Y-102470700D01*
X151105456Y-102470700D01*
X151173577Y-102490702D01*
G37*
%TD.AperFunction*%
%TA.AperFunction,Conductor*%
G36*
X156827315Y-99770702D02*
G01*
X156873808Y-99824358D01*
X156883912Y-99894632D01*
X156858143Y-99954706D01*
X156851523Y-99963103D01*
X156851517Y-99963112D01*
X156847942Y-99967647D01*
X156845253Y-99972758D01*
X156845251Y-99972761D01*
X156834903Y-99992430D01*
X156753425Y-100147293D01*
X156693229Y-100341156D01*
X156669370Y-100542742D01*
X156682646Y-100745300D01*
X156684067Y-100750896D01*
X156684068Y-100750901D01*
X156703085Y-100825778D01*
X156732614Y-100942047D01*
X156735031Y-100947290D01*
X156796779Y-101081232D01*
X156817599Y-101126394D01*
X156934755Y-101292167D01*
X156938897Y-101296202D01*
X156995859Y-101351691D01*
X157080160Y-101433813D01*
X157084964Y-101437023D01*
X157108745Y-101452913D01*
X157248942Y-101546590D01*
X157254245Y-101548868D01*
X157254248Y-101548870D01*
X157411965Y-101616630D01*
X157435450Y-101626720D01*
X157508466Y-101643242D01*
X157627801Y-101670245D01*
X157627806Y-101670246D01*
X157633438Y-101671520D01*
X157639209Y-101671747D01*
X157639211Y-101671747D01*
X157698978Y-101674095D01*
X157836275Y-101679490D01*
X157951384Y-101662800D01*
X158031453Y-101651191D01*
X158031458Y-101651190D01*
X158037167Y-101650362D01*
X158042631Y-101648507D01*
X158042636Y-101648506D01*
X158183597Y-101600656D01*
X158254532Y-101597700D01*
X158313193Y-101630874D01*
X159576524Y-102894205D01*
X159610550Y-102956517D01*
X159605485Y-103027332D01*
X159562938Y-103084168D01*
X159496418Y-103108979D01*
X159487429Y-103109300D01*
X157509949Y-103109300D01*
X157498968Y-103108821D01*
X157471709Y-103106436D01*
X157471708Y-103106436D01*
X157460733Y-103105476D01*
X157423661Y-103115409D01*
X157412947Y-103117784D01*
X157397100Y-103120578D01*
X157386003Y-103122535D01*
X157386002Y-103122535D01*
X157375149Y-103124449D01*
X157365604Y-103129960D01*
X157362111Y-103131231D01*
X157358733Y-103132806D01*
X157348084Y-103135660D01*
X157339053Y-103141984D01*
X157339050Y-103141985D01*
X157316645Y-103157673D01*
X157307375Y-103163578D01*
X157274151Y-103182761D01*
X157272457Y-103179828D01*
X157224493Y-103200820D01*
X157154388Y-103189604D01*
X157113088Y-103158084D01*
X157025056Y-103055918D01*
X156964423Y-103016618D01*
X156911324Y-102982200D01*
X156911322Y-102982199D01*
X156903790Y-102977317D01*
X156834241Y-102956517D01*
X156773938Y-102938482D01*
X156773936Y-102938482D01*
X156765337Y-102935910D01*
X156756363Y-102935855D01*
X156756361Y-102935855D01*
X156693082Y-102935469D01*
X156620827Y-102935028D01*
X156612196Y-102937495D01*
X156612194Y-102937495D01*
X156490509Y-102972272D01*
X156490505Y-102972274D01*
X156481879Y-102974739D01*
X156474292Y-102979526D01*
X156474290Y-102979527D01*
X156375833Y-103041649D01*
X156359661Y-103051853D01*
X156353718Y-103058582D01*
X156353717Y-103058583D01*
X156305147Y-103113579D01*
X156263999Y-103160170D01*
X156260185Y-103168293D01*
X156260184Y-103168295D01*
X156248838Y-103192462D01*
X156201782Y-103245624D01*
X156133454Y-103264906D01*
X156065548Y-103244186D01*
X156045688Y-103228008D01*
X155987948Y-103170268D01*
X155980522Y-103162164D01*
X155962936Y-103141206D01*
X155962933Y-103141204D01*
X155955849Y-103132761D01*
X155922625Y-103113578D01*
X155913355Y-103107673D01*
X155890950Y-103091985D01*
X155890947Y-103091984D01*
X155881916Y-103085660D01*
X155871267Y-103082806D01*
X155867889Y-103081231D01*
X155864396Y-103079960D01*
X155854851Y-103074449D01*
X155843998Y-103072535D01*
X155843997Y-103072535D01*
X155832900Y-103070578D01*
X155817053Y-103067784D01*
X155806339Y-103065409D01*
X155769267Y-103055476D01*
X155758292Y-103056436D01*
X155758291Y-103056436D01*
X155731032Y-103058821D01*
X155720051Y-103059300D01*
X154796329Y-103059300D01*
X154728208Y-103039298D01*
X154681715Y-102985642D01*
X154671611Y-102915368D01*
X154701105Y-102850788D01*
X154703095Y-102848829D01*
X154705849Y-102847239D01*
X154711252Y-102840800D01*
X154711257Y-102840795D01*
X154730522Y-102817836D01*
X154737948Y-102809732D01*
X155454732Y-102092948D01*
X155462836Y-102085522D01*
X155483794Y-102067936D01*
X155483796Y-102067933D01*
X155492239Y-102060849D01*
X155511422Y-102027624D01*
X155517327Y-102018355D01*
X155533015Y-101995950D01*
X155533016Y-101995947D01*
X155539340Y-101986916D01*
X155542194Y-101976267D01*
X155543769Y-101972889D01*
X155545040Y-101969396D01*
X155550551Y-101959851D01*
X155557216Y-101922053D01*
X155559591Y-101911339D01*
X155569524Y-101874267D01*
X155568420Y-101861642D01*
X155566179Y-101836032D01*
X155565700Y-101825051D01*
X155565700Y-101717388D01*
X155585702Y-101649267D01*
X155639358Y-101602774D01*
X155651199Y-101598075D01*
X155683915Y-101586970D01*
X155683920Y-101586968D01*
X155689387Y-101585112D01*
X155713774Y-101571455D01*
X155824759Y-101509300D01*
X155866498Y-101485925D01*
X155906191Y-101452913D01*
X156018135Y-101359809D01*
X156022567Y-101356123D01*
X156067785Y-101301755D01*
X156148675Y-101204496D01*
X156148677Y-101204493D01*
X156152369Y-101200054D01*
X156233546Y-101055102D01*
X156248732Y-101027986D01*
X156248733Y-101027984D01*
X156251556Y-101022943D01*
X156253412Y-101017476D01*
X156253414Y-101017471D01*
X156314950Y-100836192D01*
X156314951Y-100836187D01*
X156316806Y-100830723D01*
X156317634Y-100825014D01*
X156317635Y-100825009D01*
X156335792Y-100699778D01*
X156345934Y-100629831D01*
X156347454Y-100571778D01*
X156334302Y-100428642D01*
X156329409Y-100375391D01*
X156329408Y-100375388D01*
X156328880Y-100369637D01*
X156327312Y-100364077D01*
X156275347Y-100179824D01*
X156275346Y-100179822D01*
X156273779Y-100174265D01*
X156271227Y-100169089D01*
X156271225Y-100169085D01*
X156186553Y-99997387D01*
X156183998Y-99992206D01*
X156154041Y-99952089D01*
X156129309Y-99885540D01*
X156144483Y-99816183D01*
X156194745Y-99766041D01*
X156254999Y-99750700D01*
X156759194Y-99750700D01*
X156827315Y-99770702D01*
G37*
%TD.AperFunction*%
%TA.AperFunction,Conductor*%
G36*
X173142295Y-102190702D02*
G01*
X173188788Y-102244358D01*
X173198674Y-102316085D01*
X173181731Y-102424900D01*
X173181731Y-102424904D01*
X173180350Y-102433773D01*
X173181514Y-102442675D01*
X173181514Y-102442678D01*
X173194811Y-102544358D01*
X173199088Y-102577065D01*
X173257289Y-102709339D01*
X173263063Y-102716208D01*
X173339590Y-102807247D01*
X173350276Y-102819960D01*
X173362975Y-102828413D01*
X173408597Y-102882809D01*
X173417569Y-102953237D01*
X173387040Y-103017334D01*
X173326704Y-103054752D01*
X173293156Y-103059300D01*
X171205293Y-103059300D01*
X171137172Y-103039298D01*
X171090679Y-102985642D01*
X171081039Y-102912395D01*
X171081817Y-102907769D01*
X171099536Y-102802453D01*
X171099621Y-102795500D01*
X171099629Y-102794860D01*
X171099629Y-102794856D01*
X171099688Y-102790000D01*
X171085240Y-102689117D01*
X171080474Y-102655835D01*
X171080473Y-102655833D01*
X171079201Y-102646948D01*
X171019388Y-102515395D01*
X171013530Y-102508596D01*
X171013527Y-102508592D01*
X170930916Y-102412718D01*
X170930913Y-102412716D01*
X170925056Y-102405918D01*
X170917523Y-102401035D01*
X170910760Y-102395136D01*
X170912092Y-102393609D01*
X170873393Y-102348594D01*
X170863564Y-102278281D01*
X170893309Y-102213816D01*
X170953184Y-102175666D01*
X170988210Y-102170700D01*
X173074174Y-102170700D01*
X173142295Y-102190702D01*
G37*
%TD.AperFunction*%
%TA.AperFunction,Conductor*%
G36*
X154834510Y-98940702D02*
G01*
X154881003Y-98994358D01*
X154890889Y-99066085D01*
X154881731Y-99124900D01*
X154881731Y-99124904D01*
X154880350Y-99133773D01*
X154881514Y-99142675D01*
X154881514Y-99142678D01*
X154893215Y-99232154D01*
X154899088Y-99277065D01*
X154902703Y-99285280D01*
X154936935Y-99363081D01*
X154946061Y-99433489D01*
X154915674Y-99497653D01*
X154865216Y-99532038D01*
X154810457Y-99552240D01*
X154760685Y-99570602D01*
X154755724Y-99573554D01*
X154755723Y-99573554D01*
X154750089Y-99576906D01*
X154586232Y-99674390D01*
X154581892Y-99678196D01*
X154581888Y-99678199D01*
X154476410Y-99770702D01*
X154433614Y-99808233D01*
X154307942Y-99967647D01*
X154305253Y-99972758D01*
X154305251Y-99972761D01*
X154294903Y-99992430D01*
X154213425Y-100147293D01*
X154153229Y-100341156D01*
X154129370Y-100542742D01*
X154142646Y-100745300D01*
X154144067Y-100750896D01*
X154144068Y-100750901D01*
X154163085Y-100825778D01*
X154192614Y-100942047D01*
X154195031Y-100947290D01*
X154256779Y-101081232D01*
X154277599Y-101126394D01*
X154394755Y-101292167D01*
X154398897Y-101296202D01*
X154455859Y-101351691D01*
X154540160Y-101433813D01*
X154544964Y-101437023D01*
X154568745Y-101452913D01*
X154708942Y-101546590D01*
X154714245Y-101548868D01*
X154714248Y-101548870D01*
X154787681Y-101580419D01*
X154842374Y-101625687D01*
X154863911Y-101693338D01*
X154845454Y-101761894D01*
X154827038Y-101785282D01*
X154389925Y-102222395D01*
X154327613Y-102256421D01*
X154300830Y-102259300D01*
X152178807Y-102259300D01*
X152110686Y-102239298D01*
X152083355Y-102215549D01*
X152080917Y-102212719D01*
X152080914Y-102212716D01*
X152075056Y-102205918D01*
X151998457Y-102156269D01*
X151961324Y-102132200D01*
X151961322Y-102132199D01*
X151953790Y-102127317D01*
X151899425Y-102111058D01*
X151839892Y-102072375D01*
X151810723Y-102007648D01*
X151821179Y-101937425D01*
X151846434Y-101901246D01*
X152131050Y-101616630D01*
X152193362Y-101582604D01*
X152269883Y-101589958D01*
X152350134Y-101624437D01*
X152350143Y-101624440D01*
X152355450Y-101626720D01*
X152428466Y-101643242D01*
X152547801Y-101670245D01*
X152547806Y-101670246D01*
X152553438Y-101671520D01*
X152559209Y-101671747D01*
X152559211Y-101671747D01*
X152618978Y-101674095D01*
X152756275Y-101679490D01*
X152871384Y-101662800D01*
X152951453Y-101651191D01*
X152951458Y-101651190D01*
X152957167Y-101650362D01*
X152962631Y-101648507D01*
X152962636Y-101648506D01*
X153143915Y-101586970D01*
X153143920Y-101586968D01*
X153149387Y-101585112D01*
X153173774Y-101571455D01*
X153284759Y-101509300D01*
X153326498Y-101485925D01*
X153366191Y-101452913D01*
X153478135Y-101359809D01*
X153482567Y-101356123D01*
X153527785Y-101301755D01*
X153608675Y-101204496D01*
X153608677Y-101204493D01*
X153612369Y-101200054D01*
X153693546Y-101055102D01*
X153708732Y-101027986D01*
X153708733Y-101027984D01*
X153711556Y-101022943D01*
X153713412Y-101017476D01*
X153713414Y-101017471D01*
X153774950Y-100836192D01*
X153774951Y-100836187D01*
X153776806Y-100830723D01*
X153777634Y-100825014D01*
X153777635Y-100825009D01*
X153795792Y-100699778D01*
X153805934Y-100629831D01*
X153807454Y-100571778D01*
X153794302Y-100428642D01*
X153789409Y-100375391D01*
X153789408Y-100375388D01*
X153788880Y-100369637D01*
X153787312Y-100364077D01*
X153735347Y-100179824D01*
X153735346Y-100179822D01*
X153733779Y-100174265D01*
X153731227Y-100169089D01*
X153731225Y-100169085D01*
X153646553Y-99997387D01*
X153643998Y-99992206D01*
X153522542Y-99829557D01*
X153373480Y-99691765D01*
X153368597Y-99688684D01*
X153368593Y-99688681D01*
X153206686Y-99586526D01*
X153201803Y-99583445D01*
X153013261Y-99508224D01*
X153007601Y-99507098D01*
X153007597Y-99507097D01*
X152819835Y-99469749D01*
X152819832Y-99469749D01*
X152814168Y-99468622D01*
X152808393Y-99468546D01*
X152808389Y-99468546D01*
X152707015Y-99467219D01*
X152611193Y-99465965D01*
X152605496Y-99466944D01*
X152605495Y-99466944D01*
X152517619Y-99482044D01*
X152411132Y-99500342D01*
X152220685Y-99570602D01*
X152215724Y-99573554D01*
X152215723Y-99573554D01*
X152210089Y-99576906D01*
X152046232Y-99674390D01*
X152041892Y-99678196D01*
X152041888Y-99678199D01*
X151936410Y-99770702D01*
X151893614Y-99808233D01*
X151767942Y-99967647D01*
X151765253Y-99972758D01*
X151765251Y-99972761D01*
X151754903Y-99992430D01*
X151673425Y-100147293D01*
X151613229Y-100341156D01*
X151589370Y-100542742D01*
X151602646Y-100745300D01*
X151604067Y-100750896D01*
X151604068Y-100750901D01*
X151623085Y-100825778D01*
X151652614Y-100942047D01*
X151655031Y-100947290D01*
X151684529Y-101011276D01*
X151694884Y-101081513D01*
X151665621Y-101146199D01*
X151659198Y-101153122D01*
X151039925Y-101772395D01*
X150977613Y-101806421D01*
X150950830Y-101809300D01*
X150691927Y-101809300D01*
X150623806Y-101789298D01*
X150577313Y-101735642D01*
X150567209Y-101665368D01*
X150596703Y-101600788D01*
X150630361Y-101573366D01*
X150683905Y-101543380D01*
X150786498Y-101485925D01*
X150826191Y-101452913D01*
X150938135Y-101359809D01*
X150942567Y-101356123D01*
X150987785Y-101301755D01*
X151068675Y-101204496D01*
X151068677Y-101204493D01*
X151072369Y-101200054D01*
X151153546Y-101055102D01*
X151168732Y-101027986D01*
X151168733Y-101027984D01*
X151171556Y-101022943D01*
X151173412Y-101017476D01*
X151173414Y-101017471D01*
X151234950Y-100836192D01*
X151234951Y-100836187D01*
X151236806Y-100830723D01*
X151237634Y-100825014D01*
X151237635Y-100825009D01*
X151255792Y-100699778D01*
X151265934Y-100629831D01*
X151267454Y-100571778D01*
X151254302Y-100428642D01*
X151249409Y-100375391D01*
X151249408Y-100375388D01*
X151248880Y-100369637D01*
X151247312Y-100364077D01*
X151195347Y-100179824D01*
X151195346Y-100179822D01*
X151193779Y-100174265D01*
X151191227Y-100169089D01*
X151191225Y-100169085D01*
X151106553Y-99997387D01*
X151103998Y-99992206D01*
X150982542Y-99829557D01*
X150833480Y-99691765D01*
X150828597Y-99688684D01*
X150828593Y-99688681D01*
X150666686Y-99586526D01*
X150661803Y-99583445D01*
X150473261Y-99508224D01*
X150467601Y-99507098D01*
X150467597Y-99507097D01*
X150279835Y-99469749D01*
X150279832Y-99469749D01*
X150274168Y-99468622D01*
X150268393Y-99468546D01*
X150268389Y-99468546D01*
X150167015Y-99467219D01*
X150071193Y-99465965D01*
X150065496Y-99466944D01*
X150065495Y-99466944D01*
X149977619Y-99482044D01*
X149871132Y-99500342D01*
X149680685Y-99570602D01*
X149675724Y-99573554D01*
X149675723Y-99573554D01*
X149670089Y-99576906D01*
X149506232Y-99674390D01*
X149501892Y-99678196D01*
X149501888Y-99678199D01*
X149396410Y-99770702D01*
X149353614Y-99808233D01*
X149227942Y-99967647D01*
X149225253Y-99972758D01*
X149225251Y-99972761D01*
X149214903Y-99992430D01*
X149133425Y-100147293D01*
X149073229Y-100341156D01*
X149049370Y-100542742D01*
X149062646Y-100745300D01*
X149064067Y-100750896D01*
X149064068Y-100750901D01*
X149083085Y-100825778D01*
X149112614Y-100942047D01*
X149115031Y-100947290D01*
X149176779Y-101081232D01*
X149197599Y-101126394D01*
X149314755Y-101292167D01*
X149318897Y-101296202D01*
X149375859Y-101351691D01*
X149460160Y-101433813D01*
X149464964Y-101437023D01*
X149488745Y-101452913D01*
X149628942Y-101546590D01*
X149634245Y-101548868D01*
X149634248Y-101548870D01*
X149677686Y-101567532D01*
X149732379Y-101612800D01*
X149753916Y-101680451D01*
X149735459Y-101749007D01*
X149682868Y-101796701D01*
X149627948Y-101809300D01*
X148748435Y-101809300D01*
X148680314Y-101789298D01*
X148633821Y-101735642D01*
X148623717Y-101665368D01*
X148650931Y-101605780D01*
X148651706Y-101605262D01*
X148707956Y-101521079D01*
X148722722Y-101446845D01*
X148722721Y-99696712D01*
X148711487Y-99640230D01*
X148710378Y-99634652D01*
X148710377Y-99634650D01*
X148707956Y-99622477D01*
X148684151Y-99586850D01*
X148658599Y-99548610D01*
X148651706Y-99538294D01*
X148567523Y-99482044D01*
X148493289Y-99467278D01*
X148182007Y-99467278D01*
X148113886Y-99447276D01*
X148067393Y-99393620D01*
X148057289Y-99323346D01*
X148088592Y-99256722D01*
X148094160Y-99250571D01*
X148162551Y-99175014D01*
X148213429Y-99070000D01*
X148221645Y-99053043D01*
X148221645Y-99053042D01*
X148225560Y-99044962D01*
X148227049Y-99036109D01*
X148227051Y-99036104D01*
X148228786Y-99025793D01*
X148259813Y-98961936D01*
X148320440Y-98924990D01*
X148353039Y-98920700D01*
X154766389Y-98920700D01*
X154834510Y-98940702D01*
G37*
%TD.AperFunction*%
%TA.AperFunction,Conductor*%
G36*
X167251842Y-99490702D02*
G01*
X167298335Y-99544358D01*
X167308439Y-99614632D01*
X167278945Y-99679212D01*
X167266799Y-99691432D01*
X167176410Y-99770702D01*
X167133614Y-99808233D01*
X167007942Y-99967647D01*
X167005253Y-99972758D01*
X167005251Y-99972761D01*
X166994903Y-99992430D01*
X166913425Y-100147293D01*
X166853229Y-100341156D01*
X166829370Y-100542742D01*
X166842646Y-100745300D01*
X166844067Y-100750896D01*
X166844068Y-100750901D01*
X166863085Y-100825778D01*
X166892614Y-100942047D01*
X166895031Y-100947290D01*
X166956779Y-101081232D01*
X166977599Y-101126394D01*
X167094755Y-101292167D01*
X167098897Y-101296202D01*
X167155859Y-101351691D01*
X167240160Y-101433813D01*
X167244964Y-101437023D01*
X167268745Y-101452913D01*
X167408942Y-101546590D01*
X167414245Y-101548868D01*
X167414248Y-101548870D01*
X167571965Y-101616630D01*
X167595450Y-101626720D01*
X167691731Y-101648506D01*
X167744325Y-101660407D01*
X167806352Y-101694950D01*
X167839856Y-101757543D01*
X167834202Y-101828314D01*
X167791183Y-101884794D01*
X167724459Y-101909049D01*
X167716517Y-101909300D01*
X165618403Y-101909300D01*
X165550282Y-101889298D01*
X165503789Y-101835642D01*
X165493685Y-101765368D01*
X165523179Y-101700788D01*
X165582905Y-101662404D01*
X165600323Y-101658604D01*
X165651453Y-101651191D01*
X165651458Y-101651190D01*
X165657167Y-101650362D01*
X165662631Y-101648507D01*
X165662636Y-101648506D01*
X165843915Y-101586970D01*
X165843920Y-101586968D01*
X165849387Y-101585112D01*
X165873774Y-101571455D01*
X165984759Y-101509300D01*
X166026498Y-101485925D01*
X166066191Y-101452913D01*
X166178135Y-101359809D01*
X166182567Y-101356123D01*
X166227785Y-101301755D01*
X166308675Y-101204496D01*
X166308677Y-101204493D01*
X166312369Y-101200054D01*
X166393546Y-101055102D01*
X166408732Y-101027986D01*
X166408733Y-101027984D01*
X166411556Y-101022943D01*
X166413412Y-101017476D01*
X166413414Y-101017471D01*
X166474950Y-100836192D01*
X166474951Y-100836187D01*
X166476806Y-100830723D01*
X166477634Y-100825014D01*
X166477635Y-100825009D01*
X166495792Y-100699778D01*
X166505934Y-100629831D01*
X166507454Y-100571778D01*
X166494302Y-100428642D01*
X166489409Y-100375391D01*
X166489408Y-100375388D01*
X166488880Y-100369637D01*
X166487312Y-100364077D01*
X166435347Y-100179824D01*
X166435346Y-100179822D01*
X166433779Y-100174265D01*
X166404235Y-100114355D01*
X166392046Y-100044413D01*
X166419606Y-99978983D01*
X166428147Y-99969533D01*
X166890075Y-99507605D01*
X166952387Y-99473579D01*
X166979170Y-99470700D01*
X167183721Y-99470700D01*
X167251842Y-99490702D01*
G37*
%TD.AperFunction*%
%TA.AperFunction,Conductor*%
G36*
X172332601Y-99490702D02*
G01*
X172379094Y-99544358D01*
X172389198Y-99614632D01*
X172359704Y-99679212D01*
X172347558Y-99691432D01*
X172218319Y-99804772D01*
X172210402Y-99813115D01*
X172091940Y-99963383D01*
X172085672Y-99973034D01*
X171996580Y-100142370D01*
X171992175Y-100153005D01*
X171946384Y-100300476D01*
X171946165Y-100314577D01*
X171952897Y-100317778D01*
X173146222Y-100317778D01*
X173214343Y-100337780D01*
X173260836Y-100391436D01*
X173272222Y-100443778D01*
X173272222Y-100699778D01*
X173252220Y-100767899D01*
X173198564Y-100814392D01*
X173146222Y-100825778D01*
X171961716Y-100825778D01*
X171948185Y-100829751D01*
X171946893Y-100838740D01*
X171971665Y-100936280D01*
X171975506Y-100947126D01*
X172055616Y-101120898D01*
X172061367Y-101130859D01*
X172171801Y-101287121D01*
X172183026Y-101300263D01*
X172181279Y-101301755D01*
X172211212Y-101354906D01*
X172207075Y-101425782D01*
X172165277Y-101483170D01*
X172099088Y-101508850D01*
X172088453Y-101509300D01*
X171403848Y-101509300D01*
X171335727Y-101489298D01*
X171289234Y-101435642D01*
X171279130Y-101365368D01*
X171306974Y-101302731D01*
X171388671Y-101204502D01*
X171388678Y-101204492D01*
X171392369Y-101200054D01*
X171473546Y-101055102D01*
X171488732Y-101027986D01*
X171488733Y-101027984D01*
X171491556Y-101022943D01*
X171493412Y-101017476D01*
X171493414Y-101017471D01*
X171554950Y-100836192D01*
X171554951Y-100836187D01*
X171556806Y-100830723D01*
X171557634Y-100825014D01*
X171557635Y-100825009D01*
X171575792Y-100699778D01*
X171585934Y-100629831D01*
X171587454Y-100571778D01*
X171574302Y-100428642D01*
X171569409Y-100375391D01*
X171569408Y-100375388D01*
X171568880Y-100369637D01*
X171567312Y-100364077D01*
X171515347Y-100179824D01*
X171515346Y-100179822D01*
X171513779Y-100174265D01*
X171511227Y-100169089D01*
X171511225Y-100169085D01*
X171426553Y-99997387D01*
X171423998Y-99992206D01*
X171302542Y-99829557D01*
X171153480Y-99691765D01*
X171154561Y-99690595D01*
X171117124Y-99639316D01*
X171112907Y-99568445D01*
X171147676Y-99506544D01*
X171210391Y-99473268D01*
X171235698Y-99470700D01*
X172264480Y-99470700D01*
X172332601Y-99490702D01*
G37*
%TD.AperFunction*%
%TA.AperFunction,Conductor*%
G36*
X166873950Y-96840702D02*
G01*
X166894925Y-96857605D01*
X167131920Y-97094601D01*
X167165945Y-97156913D01*
X167161226Y-97226787D01*
X167143793Y-97274685D01*
X167122578Y-97442621D01*
X167139096Y-97611084D01*
X167192526Y-97771701D01*
X167203741Y-97790219D01*
X167266195Y-97893342D01*
X167280213Y-97916489D01*
X167285104Y-97921554D01*
X167285105Y-97921555D01*
X167326478Y-97964398D01*
X167397799Y-98038253D01*
X167539438Y-98130939D01*
X167546042Y-98133395D01*
X167691492Y-98187487D01*
X167698093Y-98189942D01*
X167702940Y-98190589D01*
X167763464Y-98226043D01*
X167795598Y-98289351D01*
X167796227Y-98331801D01*
X167781731Y-98424900D01*
X167781731Y-98424904D01*
X167780350Y-98433773D01*
X167781514Y-98442675D01*
X167781514Y-98442678D01*
X167793326Y-98533003D01*
X167799088Y-98577065D01*
X167802701Y-98585277D01*
X167802703Y-98585283D01*
X167823503Y-98632554D01*
X167832630Y-98702962D01*
X167802244Y-98767127D01*
X167741990Y-98804677D01*
X167708174Y-98809300D01*
X166809949Y-98809300D01*
X166798968Y-98808821D01*
X166771709Y-98806436D01*
X166771708Y-98806436D01*
X166760733Y-98805476D01*
X166723661Y-98815409D01*
X166712947Y-98817784D01*
X166697100Y-98820578D01*
X166686003Y-98822535D01*
X166686002Y-98822535D01*
X166675149Y-98824449D01*
X166665604Y-98829960D01*
X166662111Y-98831231D01*
X166658733Y-98832806D01*
X166648084Y-98835660D01*
X166639053Y-98841984D01*
X166639050Y-98841985D01*
X166616645Y-98857673D01*
X166607375Y-98863578D01*
X166574151Y-98882761D01*
X166567067Y-98891204D01*
X166567064Y-98891206D01*
X166549478Y-98912164D01*
X166542052Y-98920268D01*
X165944106Y-99518214D01*
X165881794Y-99552240D01*
X165808321Y-99546149D01*
X165718625Y-99510364D01*
X165713261Y-99508224D01*
X165707604Y-99507099D01*
X165707598Y-99507097D01*
X165623422Y-99490354D01*
X165576590Y-99481038D01*
X165513681Y-99448132D01*
X165478549Y-99386437D01*
X165482349Y-99315542D01*
X165498846Y-99283938D01*
X165517755Y-99257624D01*
X165576842Y-99110641D01*
X165590362Y-99015642D01*
X165598581Y-98957891D01*
X165598581Y-98957888D01*
X165599162Y-98953807D01*
X165599307Y-98940000D01*
X165596972Y-98920700D01*
X165592142Y-98880788D01*
X165580276Y-98782733D01*
X165524280Y-98634546D01*
X165478657Y-98568164D01*
X165438855Y-98510251D01*
X165438854Y-98510249D01*
X165434553Y-98503992D01*
X165428882Y-98498940D01*
X165428880Y-98498937D01*
X165343832Y-98423163D01*
X165306276Y-98362913D01*
X165307255Y-98291923D01*
X165346459Y-98232732D01*
X165416229Y-98203605D01*
X165487329Y-98197134D01*
X165501054Y-98194317D01*
X165648530Y-98146399D01*
X165653466Y-98144160D01*
X165660747Y-98136308D01*
X165657242Y-98127896D01*
X165071663Y-97542317D01*
X165037637Y-97480005D01*
X165042702Y-97409190D01*
X165071663Y-97364127D01*
X165252683Y-97183107D01*
X165314995Y-97149081D01*
X165385810Y-97154146D01*
X165430873Y-97183107D01*
X166012413Y-97764647D01*
X166024793Y-97771407D01*
X166028609Y-97768550D01*
X166074209Y-97648507D01*
X166077691Y-97634946D01*
X166099702Y-97478331D01*
X166100308Y-97470447D01*
X166100494Y-97457184D01*
X166100107Y-97449284D01*
X166082478Y-97292113D01*
X166079377Y-97278467D01*
X166028378Y-97132019D01*
X166022331Y-97119398D01*
X165956140Y-97013470D01*
X165937004Y-96945100D01*
X165957869Y-96877239D01*
X166012111Y-96831431D01*
X166062994Y-96820700D01*
X166805829Y-96820700D01*
X166873950Y-96840702D01*
G37*
%TD.AperFunction*%
%TA.AperFunction,Conductor*%
G36*
X154528772Y-96840702D02*
G01*
X154575265Y-96894358D01*
X154585369Y-96964632D01*
X154566562Y-97014955D01*
X154505507Y-97109693D01*
X154505505Y-97109698D01*
X154501687Y-97115622D01*
X154486658Y-97156913D01*
X154446203Y-97268062D01*
X154446202Y-97268067D01*
X154443793Y-97274685D01*
X154422578Y-97442621D01*
X154439096Y-97611084D01*
X154479741Y-97733266D01*
X154479828Y-97733528D01*
X154482351Y-97804480D01*
X154446114Y-97865532D01*
X154382622Y-97897302D01*
X154360270Y-97899300D01*
X153462124Y-97899300D01*
X153394003Y-97879298D01*
X153347510Y-97825642D01*
X153337406Y-97755368D01*
X153344336Y-97728557D01*
X153374696Y-97648632D01*
X153377198Y-97642046D01*
X153392045Y-97536406D01*
X153400205Y-97478345D01*
X153400205Y-97478340D01*
X153400756Y-97474422D01*
X153401052Y-97453222D01*
X153382184Y-97285006D01*
X153326516Y-97125151D01*
X153256730Y-97013470D01*
X153237594Y-96945101D01*
X153258459Y-96877239D01*
X153312701Y-96831431D01*
X153363584Y-96820700D01*
X154460651Y-96820700D01*
X154528772Y-96840702D01*
G37*
%TD.AperFunction*%
%TA.AperFunction,Conductor*%
G36*
X146909368Y-96840702D02*
G01*
X146955861Y-96894358D01*
X146965965Y-96964632D01*
X146947158Y-97014955D01*
X146885957Y-97109920D01*
X146879727Y-97122469D01*
X146826691Y-97268184D01*
X146823399Y-97281792D01*
X146803965Y-97435634D01*
X146803769Y-97449640D01*
X146818901Y-97603970D01*
X146821812Y-97617664D01*
X146860355Y-97733528D01*
X146862878Y-97804480D01*
X146826641Y-97865532D01*
X146763149Y-97897301D01*
X146740797Y-97899300D01*
X146469170Y-97899300D01*
X146401049Y-97879298D01*
X146380075Y-97862395D01*
X145760949Y-97243269D01*
X145731053Y-97195612D01*
X145706516Y-97125151D01*
X145636730Y-97013470D01*
X145617594Y-96945101D01*
X145638459Y-96877239D01*
X145692701Y-96831431D01*
X145743584Y-96820700D01*
X146841247Y-96820700D01*
X146909368Y-96840702D01*
G37*
%TD.AperFunction*%
M02*
