%TF.GenerationSoftware,KiCad,Pcbnew,(6.0.4-0)*%
%TF.CreationDate,2022-05-02T21:47:31-07:00*%
%TF.ProjectId,hcms_dot_display_top,68636d73-5f64-46f7-945f-646973706c61,rev?*%
%TF.SameCoordinates,Original*%
%TF.FileFunction,Legend,Bot*%
%TF.FilePolarity,Positive*%
%FSLAX46Y46*%
G04 Gerber Fmt 4.6, Leading zero omitted, Abs format (unit mm)*
G04 Created by KiCad (PCBNEW (6.0.4-0)) date 2022-05-02 21:47:31*
%MOMM*%
%LPD*%
G01*
G04 APERTURE LIST*
G04 Aperture macros list*
%AMRoundRect*
0 Rectangle with rounded corners*
0 $1 Rounding radius*
0 $2 $3 $4 $5 $6 $7 $8 $9 X,Y pos of 4 corners*
0 Add a 4 corners polygon primitive as box body*
4,1,4,$2,$3,$4,$5,$6,$7,$8,$9,$2,$3,0*
0 Add four circle primitives for the rounded corners*
1,1,$1+$1,$2,$3*
1,1,$1+$1,$4,$5*
1,1,$1+$1,$6,$7*
1,1,$1+$1,$8,$9*
0 Add four rect primitives between the rounded corners*
20,1,$1+$1,$2,$3,$4,$5,0*
20,1,$1+$1,$4,$5,$6,$7,0*
20,1,$1+$1,$6,$7,$8,$9,0*
20,1,$1+$1,$8,$9,$2,$3,0*%
G04 Aperture macros list end*
%ADD10C,0.150000*%
%ADD11C,0.120000*%
%ADD12RoundRect,0.150000X-0.600000X-1.100000X0.600000X-1.100000X0.600000X1.100000X-0.600000X1.100000X0*%
%ADD13RoundRect,0.150000X-1.100000X0.600000X-1.100000X-0.600000X1.100000X-0.600000X1.100000X0.600000X0*%
%ADD14C,1.000000*%
%ADD15RoundRect,0.200000X-0.275000X0.200000X-0.275000X-0.200000X0.275000X-0.200000X0.275000X0.200000X0*%
%ADD16R,1.700000X1.700000*%
%ADD17O,1.700000X1.700000*%
%ADD18RoundRect,0.200000X0.275000X-0.200000X0.275000X0.200000X-0.275000X0.200000X-0.275000X-0.200000X0*%
%ADD19RoundRect,0.225000X0.225000X0.250000X-0.225000X0.250000X-0.225000X-0.250000X0.225000X-0.250000X0*%
%ADD20RoundRect,0.150000X0.150000X-0.587500X0.150000X0.587500X-0.150000X0.587500X-0.150000X-0.587500X0*%
%ADD21RoundRect,0.225000X0.250000X-0.225000X0.250000X0.225000X-0.250000X0.225000X-0.250000X-0.225000X0*%
%ADD22RoundRect,0.200000X-0.200000X-0.275000X0.200000X-0.275000X0.200000X0.275000X-0.200000X0.275000X0*%
%ADD23RoundRect,0.200000X0.200000X0.275000X-0.200000X0.275000X-0.200000X-0.275000X0.200000X-0.275000X0*%
G04 APERTURE END LIST*
D10*
X161542380Y-103373333D02*
X161066190Y-103040000D01*
X161542380Y-102801904D02*
X160542380Y-102801904D01*
X160542380Y-103182857D01*
X160590000Y-103278095D01*
X160637619Y-103325714D01*
X160732857Y-103373333D01*
X160875714Y-103373333D01*
X160970952Y-103325714D01*
X161018571Y-103278095D01*
X161066190Y-103182857D01*
X161066190Y-102801904D01*
X160542380Y-104230476D02*
X160542380Y-104040000D01*
X160590000Y-103944761D01*
X160637619Y-103897142D01*
X160780476Y-103801904D01*
X160970952Y-103754285D01*
X161351904Y-103754285D01*
X161447142Y-103801904D01*
X161494761Y-103849523D01*
X161542380Y-103944761D01*
X161542380Y-104135238D01*
X161494761Y-104230476D01*
X161447142Y-104278095D01*
X161351904Y-104325714D01*
X161113809Y-104325714D01*
X161018571Y-104278095D01*
X160970952Y-104230476D01*
X160923333Y-104135238D01*
X160923333Y-103944761D01*
X160970952Y-103849523D01*
X161018571Y-103801904D01*
X161113809Y-103754285D01*
X154281555Y-97544158D02*
X154281555Y-98258444D01*
X154329174Y-98401301D01*
X154424412Y-98496539D01*
X154567269Y-98544158D01*
X154662507Y-98544158D01*
X153376793Y-97877492D02*
X153376793Y-98544158D01*
X153614888Y-97496539D02*
X153852983Y-98210825D01*
X153233936Y-98210825D01*
X153492380Y-111797142D02*
X153016190Y-111463809D01*
X153492380Y-111225714D02*
X152492380Y-111225714D01*
X152492380Y-111606666D01*
X152540000Y-111701904D01*
X152587619Y-111749523D01*
X152682857Y-111797142D01*
X152825714Y-111797142D01*
X152920952Y-111749523D01*
X152968571Y-111701904D01*
X153016190Y-111606666D01*
X153016190Y-111225714D01*
X153492380Y-112749523D02*
X153492380Y-112178095D01*
X153492380Y-112463809D02*
X152492380Y-112463809D01*
X152635238Y-112368571D01*
X152730476Y-112273333D01*
X152778095Y-112178095D01*
X152492380Y-113082857D02*
X152492380Y-113701904D01*
X152873333Y-113368571D01*
X152873333Y-113511428D01*
X152920952Y-113606666D01*
X152968571Y-113654285D01*
X153063809Y-113701904D01*
X153301904Y-113701904D01*
X153397142Y-113654285D01*
X153444761Y-113606666D01*
X153492380Y-113511428D01*
X153492380Y-113225714D01*
X153444761Y-113130476D01*
X153397142Y-113082857D01*
X146647142Y-105047142D02*
X146694761Y-104999523D01*
X146742380Y-104856666D01*
X146742380Y-104761428D01*
X146694761Y-104618571D01*
X146599523Y-104523333D01*
X146504285Y-104475714D01*
X146313809Y-104428095D01*
X146170952Y-104428095D01*
X145980476Y-104475714D01*
X145885238Y-104523333D01*
X145790000Y-104618571D01*
X145742380Y-104761428D01*
X145742380Y-104856666D01*
X145790000Y-104999523D01*
X145837619Y-105047142D01*
X146742380Y-105999523D02*
X146742380Y-105428095D01*
X146742380Y-105713809D02*
X145742380Y-105713809D01*
X145885238Y-105618571D01*
X145980476Y-105523333D01*
X146028095Y-105428095D01*
X145742380Y-106618571D02*
X145742380Y-106713809D01*
X145790000Y-106809047D01*
X145837619Y-106856666D01*
X145932857Y-106904285D01*
X146123333Y-106951904D01*
X146361428Y-106951904D01*
X146551904Y-106904285D01*
X146647142Y-106856666D01*
X146694761Y-106809047D01*
X146742380Y-106713809D01*
X146742380Y-106618571D01*
X146694761Y-106523333D01*
X146647142Y-106475714D01*
X146551904Y-106428095D01*
X146361428Y-106380476D01*
X146123333Y-106380476D01*
X145932857Y-106428095D01*
X145837619Y-106475714D01*
X145790000Y-106523333D01*
X145742380Y-106618571D01*
X165142857Y-111902380D02*
X165476190Y-111426190D01*
X165714285Y-111902380D02*
X165714285Y-110902380D01*
X165333333Y-110902380D01*
X165238095Y-110950000D01*
X165190476Y-110997619D01*
X165142857Y-111092857D01*
X165142857Y-111235714D01*
X165190476Y-111330952D01*
X165238095Y-111378571D01*
X165333333Y-111426190D01*
X165714285Y-111426190D01*
X164190476Y-111902380D02*
X164761904Y-111902380D01*
X164476190Y-111902380D02*
X164476190Y-110902380D01*
X164571428Y-111045238D01*
X164666666Y-111140476D01*
X164761904Y-111188095D01*
X163809523Y-110997619D02*
X163761904Y-110950000D01*
X163666666Y-110902380D01*
X163428571Y-110902380D01*
X163333333Y-110950000D01*
X163285714Y-110997619D01*
X163238095Y-111092857D01*
X163238095Y-111188095D01*
X163285714Y-111330952D01*
X163857142Y-111902380D01*
X163238095Y-111902380D01*
X162235238Y-113037619D02*
X162330476Y-112990000D01*
X162425714Y-112894761D01*
X162568571Y-112751904D01*
X162663809Y-112704285D01*
X162759047Y-112704285D01*
X162711428Y-112942380D02*
X162806666Y-112894761D01*
X162901904Y-112799523D01*
X162949523Y-112609047D01*
X162949523Y-112275714D01*
X162901904Y-112085238D01*
X162806666Y-111990000D01*
X162711428Y-111942380D01*
X162520952Y-111942380D01*
X162425714Y-111990000D01*
X162330476Y-112085238D01*
X162282857Y-112275714D01*
X162282857Y-112609047D01*
X162330476Y-112799523D01*
X162425714Y-112894761D01*
X162520952Y-112942380D01*
X162711428Y-112942380D01*
X161330476Y-112942380D02*
X161901904Y-112942380D01*
X161616190Y-112942380D02*
X161616190Y-111942380D01*
X161711428Y-112085238D01*
X161806666Y-112180476D01*
X161901904Y-112228095D01*
X149647142Y-103323333D02*
X149694761Y-103275714D01*
X149742380Y-103132857D01*
X149742380Y-103037619D01*
X149694761Y-102894761D01*
X149599523Y-102799523D01*
X149504285Y-102751904D01*
X149313809Y-102704285D01*
X149170952Y-102704285D01*
X148980476Y-102751904D01*
X148885238Y-102799523D01*
X148790000Y-102894761D01*
X148742380Y-103037619D01*
X148742380Y-103132857D01*
X148790000Y-103275714D01*
X148837619Y-103323333D01*
X148742380Y-103656666D02*
X148742380Y-104275714D01*
X149123333Y-103942380D01*
X149123333Y-104085238D01*
X149170952Y-104180476D01*
X149218571Y-104228095D01*
X149313809Y-104275714D01*
X149551904Y-104275714D01*
X149647142Y-104228095D01*
X149694761Y-104180476D01*
X149742380Y-104085238D01*
X149742380Y-103799523D01*
X149694761Y-103704285D01*
X149647142Y-103656666D01*
X147392380Y-111847142D02*
X146916190Y-111513809D01*
X147392380Y-111275714D02*
X146392380Y-111275714D01*
X146392380Y-111656666D01*
X146440000Y-111751904D01*
X146487619Y-111799523D01*
X146582857Y-111847142D01*
X146725714Y-111847142D01*
X146820952Y-111799523D01*
X146868571Y-111751904D01*
X146916190Y-111656666D01*
X146916190Y-111275714D01*
X147392380Y-112799523D02*
X147392380Y-112228095D01*
X147392380Y-112513809D02*
X146392380Y-112513809D01*
X146535238Y-112418571D01*
X146630476Y-112323333D01*
X146678095Y-112228095D01*
X147392380Y-113751904D02*
X147392380Y-113180476D01*
X147392380Y-113466190D02*
X146392380Y-113466190D01*
X146535238Y-113370952D01*
X146630476Y-113275714D01*
X146678095Y-113180476D01*
X150335238Y-113037619D02*
X150430476Y-112990000D01*
X150525714Y-112894761D01*
X150668571Y-112751904D01*
X150763809Y-112704285D01*
X150859047Y-112704285D01*
X150811428Y-112942380D02*
X150906666Y-112894761D01*
X151001904Y-112799523D01*
X151049523Y-112609047D01*
X151049523Y-112275714D01*
X151001904Y-112085238D01*
X150906666Y-111990000D01*
X150811428Y-111942380D01*
X150620952Y-111942380D01*
X150525714Y-111990000D01*
X150430476Y-112085238D01*
X150382857Y-112275714D01*
X150382857Y-112609047D01*
X150430476Y-112799523D01*
X150525714Y-112894761D01*
X150620952Y-112942380D01*
X150811428Y-112942380D01*
X150001904Y-112037619D02*
X149954285Y-111990000D01*
X149859047Y-111942380D01*
X149620952Y-111942380D01*
X149525714Y-111990000D01*
X149478095Y-112037619D01*
X149430476Y-112132857D01*
X149430476Y-112228095D01*
X149478095Y-112370952D01*
X150049523Y-112942380D01*
X149430476Y-112942380D01*
X164232857Y-103792380D02*
X164566190Y-103316190D01*
X164804285Y-103792380D02*
X164804285Y-102792380D01*
X164423333Y-102792380D01*
X164328095Y-102840000D01*
X164280476Y-102887619D01*
X164232857Y-102982857D01*
X164232857Y-103125714D01*
X164280476Y-103220952D01*
X164328095Y-103268571D01*
X164423333Y-103316190D01*
X164804285Y-103316190D01*
X163280476Y-103792380D02*
X163851904Y-103792380D01*
X163566190Y-103792380D02*
X163566190Y-102792380D01*
X163661428Y-102935238D01*
X163756666Y-103030476D01*
X163851904Y-103078095D01*
X162423333Y-102792380D02*
X162613809Y-102792380D01*
X162709047Y-102840000D01*
X162756666Y-102887619D01*
X162851904Y-103030476D01*
X162899523Y-103220952D01*
X162899523Y-103601904D01*
X162851904Y-103697142D01*
X162804285Y-103744761D01*
X162709047Y-103792380D01*
X162518571Y-103792380D01*
X162423333Y-103744761D01*
X162375714Y-103697142D01*
X162328095Y-103601904D01*
X162328095Y-103363809D01*
X162375714Y-103268571D01*
X162423333Y-103220952D01*
X162518571Y-103173333D01*
X162709047Y-103173333D01*
X162804285Y-103220952D01*
X162851904Y-103268571D01*
X162899523Y-103363809D01*
X168235238Y-113037619D02*
X168330476Y-112990000D01*
X168425714Y-112894761D01*
X168568571Y-112751904D01*
X168663809Y-112704285D01*
X168759047Y-112704285D01*
X168711428Y-112942380D02*
X168806666Y-112894761D01*
X168901904Y-112799523D01*
X168949523Y-112609047D01*
X168949523Y-112275714D01*
X168901904Y-112085238D01*
X168806666Y-111990000D01*
X168711428Y-111942380D01*
X168520952Y-111942380D01*
X168425714Y-111990000D01*
X168330476Y-112085238D01*
X168282857Y-112275714D01*
X168282857Y-112609047D01*
X168330476Y-112799523D01*
X168425714Y-112894761D01*
X168520952Y-112942380D01*
X168711428Y-112942380D01*
X167949523Y-111942380D02*
X167330476Y-111942380D01*
X167663809Y-112323333D01*
X167520952Y-112323333D01*
X167425714Y-112370952D01*
X167378095Y-112418571D01*
X167330476Y-112513809D01*
X167330476Y-112751904D01*
X167378095Y-112847142D01*
X167425714Y-112894761D01*
X167520952Y-112942380D01*
X167806666Y-112942380D01*
X167901904Y-112894761D01*
X167949523Y-112847142D01*
X156235238Y-113037619D02*
X156330476Y-112990000D01*
X156425714Y-112894761D01*
X156568571Y-112751904D01*
X156663809Y-112704285D01*
X156759047Y-112704285D01*
X156711428Y-112942380D02*
X156806666Y-112894761D01*
X156901904Y-112799523D01*
X156949523Y-112609047D01*
X156949523Y-112275714D01*
X156901904Y-112085238D01*
X156806666Y-111990000D01*
X156711428Y-111942380D01*
X156520952Y-111942380D01*
X156425714Y-111990000D01*
X156330476Y-112085238D01*
X156282857Y-112275714D01*
X156282857Y-112609047D01*
X156330476Y-112799523D01*
X156425714Y-112894761D01*
X156520952Y-112942380D01*
X156711428Y-112942380D01*
X155425714Y-112275714D02*
X155425714Y-112942380D01*
X155663809Y-111894761D02*
X155901904Y-112609047D01*
X155282857Y-112609047D01*
X159632857Y-112892380D02*
X159966190Y-112416190D01*
X160204285Y-112892380D02*
X160204285Y-111892380D01*
X159823333Y-111892380D01*
X159728095Y-111940000D01*
X159680476Y-111987619D01*
X159632857Y-112082857D01*
X159632857Y-112225714D01*
X159680476Y-112320952D01*
X159728095Y-112368571D01*
X159823333Y-112416190D01*
X160204285Y-112416190D01*
X158680476Y-112892380D02*
X159251904Y-112892380D01*
X158966190Y-112892380D02*
X158966190Y-111892380D01*
X159061428Y-112035238D01*
X159156666Y-112130476D01*
X159251904Y-112178095D01*
X158061428Y-111892380D02*
X157966190Y-111892380D01*
X157870952Y-111940000D01*
X157823333Y-111987619D01*
X157775714Y-112082857D01*
X157728095Y-112273333D01*
X157728095Y-112511428D01*
X157775714Y-112701904D01*
X157823333Y-112797142D01*
X157870952Y-112844761D01*
X157966190Y-112892380D01*
X158061428Y-112892380D01*
X158156666Y-112844761D01*
X158204285Y-112797142D01*
X158251904Y-112701904D01*
X158299523Y-112511428D01*
X158299523Y-112273333D01*
X158251904Y-112082857D01*
X158204285Y-111987619D01*
X158156666Y-111940000D01*
X158061428Y-111892380D01*
X171882857Y-112892380D02*
X172216190Y-112416190D01*
X172454285Y-112892380D02*
X172454285Y-111892380D01*
X172073333Y-111892380D01*
X171978095Y-111940000D01*
X171930476Y-111987619D01*
X171882857Y-112082857D01*
X171882857Y-112225714D01*
X171930476Y-112320952D01*
X171978095Y-112368571D01*
X172073333Y-112416190D01*
X172454285Y-112416190D01*
X170930476Y-112892380D02*
X171501904Y-112892380D01*
X171216190Y-112892380D02*
X171216190Y-111892380D01*
X171311428Y-112035238D01*
X171406666Y-112130476D01*
X171501904Y-112178095D01*
X170073333Y-112225714D02*
X170073333Y-112892380D01*
X170311428Y-111844761D02*
X170549523Y-112559047D01*
X169930476Y-112559047D01*
X159892380Y-103373333D02*
X159416190Y-103040000D01*
X159892380Y-102801904D02*
X158892380Y-102801904D01*
X158892380Y-103182857D01*
X158940000Y-103278095D01*
X158987619Y-103325714D01*
X159082857Y-103373333D01*
X159225714Y-103373333D01*
X159320952Y-103325714D01*
X159368571Y-103278095D01*
X159416190Y-103182857D01*
X159416190Y-102801904D01*
X158892380Y-103706666D02*
X158892380Y-104373333D01*
X159892380Y-103944761D01*
X154107857Y-103792380D02*
X154441190Y-103316190D01*
X154679285Y-103792380D02*
X154679285Y-102792380D01*
X154298333Y-102792380D01*
X154203095Y-102840000D01*
X154155476Y-102887619D01*
X154107857Y-102982857D01*
X154107857Y-103125714D01*
X154155476Y-103220952D01*
X154203095Y-103268571D01*
X154298333Y-103316190D01*
X154679285Y-103316190D01*
X153155476Y-103792380D02*
X153726904Y-103792380D01*
X153441190Y-103792380D02*
X153441190Y-102792380D01*
X153536428Y-102935238D01*
X153631666Y-103030476D01*
X153726904Y-103078095D01*
X152822142Y-102792380D02*
X152155476Y-102792380D01*
X152584047Y-103792380D01*
X174235238Y-113037619D02*
X174330476Y-112990000D01*
X174425714Y-112894761D01*
X174568571Y-112751904D01*
X174663809Y-112704285D01*
X174759047Y-112704285D01*
X174711428Y-112942380D02*
X174806666Y-112894761D01*
X174901904Y-112799523D01*
X174949523Y-112609047D01*
X174949523Y-112275714D01*
X174901904Y-112085238D01*
X174806666Y-111990000D01*
X174711428Y-111942380D01*
X174520952Y-111942380D01*
X174425714Y-111990000D01*
X174330476Y-112085238D01*
X174282857Y-112275714D01*
X174282857Y-112609047D01*
X174330476Y-112799523D01*
X174425714Y-112894761D01*
X174520952Y-112942380D01*
X174711428Y-112942380D01*
X173378095Y-111942380D02*
X173854285Y-111942380D01*
X173901904Y-112418571D01*
X173854285Y-112370952D01*
X173759047Y-112323333D01*
X173520952Y-112323333D01*
X173425714Y-112370952D01*
X173378095Y-112418571D01*
X173330476Y-112513809D01*
X173330476Y-112751904D01*
X173378095Y-112847142D01*
X173425714Y-112894761D01*
X173520952Y-112942380D01*
X173759047Y-112942380D01*
X173854285Y-112894761D01*
X173901904Y-112847142D01*
X170042380Y-103373333D02*
X169566190Y-103040000D01*
X170042380Y-102801904D02*
X169042380Y-102801904D01*
X169042380Y-103182857D01*
X169090000Y-103278095D01*
X169137619Y-103325714D01*
X169232857Y-103373333D01*
X169375714Y-103373333D01*
X169470952Y-103325714D01*
X169518571Y-103278095D01*
X169566190Y-103182857D01*
X169566190Y-102801904D01*
X169137619Y-103754285D02*
X169090000Y-103801904D01*
X169042380Y-103897142D01*
X169042380Y-104135238D01*
X169090000Y-104230476D01*
X169137619Y-104278095D01*
X169232857Y-104325714D01*
X169328095Y-104325714D01*
X169470952Y-104278095D01*
X170042380Y-103706666D01*
X170042380Y-104325714D01*
X151257142Y-102817142D02*
X151304761Y-102769523D01*
X151352380Y-102626666D01*
X151352380Y-102531428D01*
X151304761Y-102388571D01*
X151209523Y-102293333D01*
X151114285Y-102245714D01*
X150923809Y-102198095D01*
X150780952Y-102198095D01*
X150590476Y-102245714D01*
X150495238Y-102293333D01*
X150400000Y-102388571D01*
X150352380Y-102531428D01*
X150352380Y-102626666D01*
X150400000Y-102769523D01*
X150447619Y-102817142D01*
X151352380Y-103769523D02*
X151352380Y-103198095D01*
X151352380Y-103483809D02*
X150352380Y-103483809D01*
X150495238Y-103388571D01*
X150590476Y-103293333D01*
X150638095Y-103198095D01*
X151352380Y-104721904D02*
X151352380Y-104150476D01*
X151352380Y-104436190D02*
X150352380Y-104436190D01*
X150495238Y-104340952D01*
X150590476Y-104245714D01*
X150638095Y-104150476D01*
X171642380Y-103373333D02*
X171166190Y-103040000D01*
X171642380Y-102801904D02*
X170642380Y-102801904D01*
X170642380Y-103182857D01*
X170690000Y-103278095D01*
X170737619Y-103325714D01*
X170832857Y-103373333D01*
X170975714Y-103373333D01*
X171070952Y-103325714D01*
X171118571Y-103278095D01*
X171166190Y-103182857D01*
X171166190Y-102801904D01*
X171642380Y-104325714D02*
X171642380Y-103754285D01*
X171642380Y-104040000D02*
X170642380Y-104040000D01*
X170785238Y-103944761D01*
X170880476Y-103849523D01*
X170928095Y-103754285D01*
D11*
X160567500Y-105952742D02*
X160567500Y-106427258D01*
X161612500Y-105952742D02*
X161612500Y-106427258D01*
X148888222Y-101901778D02*
X174348222Y-101901778D01*
X174348222Y-99241778D02*
X174348222Y-101901778D01*
X148888222Y-99241778D02*
X174348222Y-99241778D01*
X148888222Y-99241778D02*
X148888222Y-101901778D01*
X147618222Y-99241778D02*
X146288222Y-99241778D01*
X146288222Y-99241778D02*
X146288222Y-100571778D01*
X153362500Y-109677258D02*
X153362500Y-109202742D01*
X152317500Y-109677258D02*
X152317500Y-109202742D01*
X147080580Y-103850000D02*
X146799420Y-103850000D01*
X147080580Y-102830000D02*
X146799420Y-102830000D01*
X164317500Y-109677258D02*
X164317500Y-109202742D01*
X165362500Y-109677258D02*
X165362500Y-109202742D01*
X162900000Y-109890000D02*
X162900000Y-109240000D01*
X159780000Y-109890000D02*
X159780000Y-109240000D01*
X162900000Y-109890000D02*
X162900000Y-111565000D01*
X159780000Y-109890000D02*
X159780000Y-110540000D01*
X149800000Y-106330580D02*
X149800000Y-106049420D01*
X148780000Y-106330580D02*
X148780000Y-106049420D01*
X146317500Y-109677258D02*
X146317500Y-109202742D01*
X147362500Y-109677258D02*
X147362500Y-109202742D01*
X150900000Y-109890000D02*
X150900000Y-111565000D01*
X150900000Y-109890000D02*
X150900000Y-109240000D01*
X147780000Y-109890000D02*
X147780000Y-109240000D01*
X147780000Y-109890000D02*
X147780000Y-110540000D01*
X166502742Y-102817500D02*
X166977258Y-102817500D01*
X166502742Y-103862500D02*
X166977258Y-103862500D01*
X168900000Y-109890000D02*
X168900000Y-109240000D01*
X165780000Y-109890000D02*
X165780000Y-109240000D01*
X168900000Y-109890000D02*
X168900000Y-111565000D01*
X165780000Y-109890000D02*
X165780000Y-110540000D01*
X156900000Y-109890000D02*
X156900000Y-111565000D01*
X156900000Y-109890000D02*
X156900000Y-109240000D01*
X153780000Y-109890000D02*
X153780000Y-110540000D01*
X153780000Y-109890000D02*
X153780000Y-109240000D01*
X159362500Y-109677258D02*
X159362500Y-109202742D01*
X158317500Y-109677258D02*
X158317500Y-109202742D01*
X170317500Y-109677258D02*
X170317500Y-109202742D01*
X171362500Y-109677258D02*
X171362500Y-109202742D01*
X158967500Y-105952742D02*
X158967500Y-106427258D01*
X160012500Y-105952742D02*
X160012500Y-106427258D01*
X156902258Y-103912500D02*
X156427742Y-103912500D01*
X156902258Y-102867500D02*
X156427742Y-102867500D01*
X174900000Y-109890000D02*
X174900000Y-109240000D01*
X174900000Y-109890000D02*
X174900000Y-111565000D01*
X171780000Y-109890000D02*
X171780000Y-109240000D01*
X171780000Y-109890000D02*
X171780000Y-110540000D01*
X169067500Y-106427258D02*
X169067500Y-105952742D01*
X170112500Y-106427258D02*
X170112500Y-105952742D01*
X151400000Y-106330580D02*
X151400000Y-106049420D01*
X150380000Y-106330580D02*
X150380000Y-106049420D01*
X171712500Y-106427258D02*
X171712500Y-105952742D01*
X170667500Y-106427258D02*
X170667500Y-105952742D01*
%LPC*%
G36*
X163326792Y-109278109D02*
G01*
X163337129Y-109285021D01*
X163339987Y-109288346D01*
X163343652Y-109296287D01*
X163339678Y-109303981D01*
X163332298Y-109309208D01*
X163318996Y-109308363D01*
X163317725Y-109308015D01*
X163302296Y-109305706D01*
X163284769Y-109305283D01*
X163272189Y-109305366D01*
X163268006Y-109303360D01*
X163270792Y-109298341D01*
X163275334Y-109294192D01*
X163284677Y-109290440D01*
X163288082Y-109289521D01*
X163292005Y-109282461D01*
X163293270Y-109278763D01*
X163301288Y-109274777D01*
X163313653Y-109274627D01*
X163326792Y-109278109D01*
G37*
G36*
X163720802Y-109521093D02*
G01*
X163722874Y-109529653D01*
X163723004Y-109531083D01*
X163728262Y-109541470D01*
X163738832Y-109551930D01*
X163745946Y-109557429D01*
X163753320Y-109565910D01*
X163752144Y-109574014D01*
X163742822Y-109585087D01*
X163730853Y-109597426D01*
X163722015Y-109580907D01*
X163721625Y-109580155D01*
X163716991Y-109566905D01*
X163714099Y-109550918D01*
X163713161Y-109535458D01*
X163714390Y-109523788D01*
X163717998Y-109519173D01*
X163720802Y-109521093D01*
G37*
G36*
X163769501Y-108225203D02*
G01*
X163786259Y-108226407D01*
X163801430Y-108233427D01*
X163811928Y-108239522D01*
X163827021Y-108242929D01*
X163827409Y-108242940D01*
X163844067Y-108245220D01*
X163861001Y-108250181D01*
X163874598Y-108256495D01*
X163881247Y-108262838D01*
X163881602Y-108265338D01*
X163877579Y-108269121D01*
X163876679Y-108269153D01*
X163876676Y-108269155D01*
X163871847Y-108272190D01*
X163873793Y-108277199D01*
X163881125Y-108279929D01*
X163885156Y-108280081D01*
X163887529Y-108281707D01*
X163881218Y-108287096D01*
X163876411Y-108291225D01*
X163876468Y-108295346D01*
X163885458Y-108300226D01*
X163886753Y-108300777D01*
X163902035Y-108304735D01*
X163919506Y-108306356D01*
X163934287Y-108306919D01*
X163949581Y-108309681D01*
X163955779Y-108314262D01*
X163952367Y-108320122D01*
X163938831Y-108326721D01*
X163926187Y-108331994D01*
X163914694Y-108340181D01*
X163914665Y-108340202D01*
X163913723Y-108348224D01*
X163923325Y-108356124D01*
X163930303Y-108360110D01*
X163934000Y-108364333D01*
X163929415Y-108367529D01*
X163922134Y-108368472D01*
X163909817Y-108365279D01*
X163903482Y-108362179D01*
X163895819Y-108359798D01*
X163895428Y-108361757D01*
X163903733Y-108367529D01*
X163911133Y-108370444D01*
X163928149Y-108373896D01*
X163947617Y-108375320D01*
X163963098Y-108375655D01*
X163973183Y-108377194D01*
X163977372Y-108380979D01*
X163978204Y-108388069D01*
X163978043Y-108392152D01*
X163977706Y-108392796D01*
X163974790Y-108398367D01*
X163964905Y-108398088D01*
X163956024Y-108397810D01*
X163951607Y-108401171D01*
X163951625Y-108401882D01*
X163954823Y-108408294D01*
X163964828Y-108411973D01*
X163983517Y-108413654D01*
X163995560Y-108414740D01*
X164005257Y-108418738D01*
X164010590Y-108427279D01*
X164012402Y-108432224D01*
X164015054Y-108443423D01*
X164011756Y-108447058D01*
X164001795Y-108444528D01*
X163992767Y-108441519D01*
X163983193Y-108439675D01*
X163979896Y-108440885D01*
X163984853Y-108445086D01*
X163991015Y-108450624D01*
X163993949Y-108460492D01*
X163988902Y-108468561D01*
X163986251Y-108469284D01*
X163975411Y-108467170D01*
X163961419Y-108460951D01*
X163947938Y-108452454D01*
X163938630Y-108443504D01*
X163934489Y-108437875D01*
X163930857Y-108436583D01*
X163927662Y-108444684D01*
X163923241Y-108452301D01*
X163913846Y-108453620D01*
X163907639Y-108453391D01*
X163898696Y-108459783D01*
X163897373Y-108461946D01*
X163891813Y-108465772D01*
X163882750Y-108461903D01*
X163874862Y-108458283D01*
X163871816Y-108461142D01*
X163870668Y-108463759D01*
X163863837Y-108464014D01*
X163858772Y-108463599D01*
X163855858Y-108470423D01*
X163855583Y-108472325D01*
X163853104Y-108476531D01*
X163849797Y-108482142D01*
X163838867Y-108492457D01*
X163821876Y-108505019D01*
X163850627Y-108514792D01*
X163855278Y-108516416D01*
X163872235Y-108523224D01*
X163883576Y-108529211D01*
X163887827Y-108533468D01*
X163883519Y-108535089D01*
X163881327Y-108536081D01*
X163878682Y-108537278D01*
X163877208Y-108544667D01*
X163880573Y-108553334D01*
X163887997Y-108559097D01*
X163894997Y-108563260D01*
X163895338Y-108567657D01*
X163895711Y-108572458D01*
X163895672Y-108572586D01*
X163897150Y-108583176D01*
X163906543Y-108591869D01*
X163921160Y-108597097D01*
X163938314Y-108597292D01*
X163938723Y-108597227D01*
X163951412Y-108596640D01*
X163959000Y-108598658D01*
X163959656Y-108602103D01*
X163951547Y-108605798D01*
X163945736Y-108607865D01*
X163941353Y-108613094D01*
X163946585Y-108618779D01*
X163960880Y-108623851D01*
X163969899Y-108626845D01*
X163979535Y-108632867D01*
X163983468Y-108638886D01*
X163980695Y-108642867D01*
X163970212Y-108642776D01*
X163962861Y-108641727D01*
X163958412Y-108644239D01*
X163959893Y-108654103D01*
X163960369Y-108656107D01*
X163960701Y-108665468D01*
X163955157Y-108668074D01*
X163951282Y-108667551D01*
X163943628Y-108662754D01*
X163940313Y-108659059D01*
X163933570Y-108658266D01*
X163930330Y-108665414D01*
X163928580Y-108671848D01*
X163922384Y-108672905D01*
X163913590Y-108666793D01*
X163904189Y-108654355D01*
X163896041Y-108643428D01*
X163887725Y-108638136D01*
X163884906Y-108639542D01*
X163882288Y-108640848D01*
X163881543Y-108651771D01*
X163881987Y-108655660D01*
X163880117Y-108661313D01*
X163871429Y-108659972D01*
X163868075Y-108658984D01*
X163862108Y-108659065D01*
X163863139Y-108665513D01*
X163864382Y-108670621D01*
X163860831Y-108673046D01*
X163849316Y-108671654D01*
X163833943Y-108668489D01*
X163819873Y-108664980D01*
X163817177Y-108664245D01*
X163810540Y-108664165D01*
X163811134Y-108670092D01*
X163816114Y-108675526D01*
X163827303Y-108678712D01*
X163836465Y-108680788D01*
X163844967Y-108691347D01*
X163852838Y-108701593D01*
X163868988Y-108707586D01*
X163882113Y-108710769D01*
X163907197Y-108719565D01*
X163931425Y-108730801D01*
X163949975Y-108742403D01*
X163963201Y-108752806D01*
X163949344Y-108765648D01*
X163940111Y-108776941D01*
X163939076Y-108787840D01*
X163940235Y-108794116D01*
X163935167Y-108794150D01*
X163933232Y-108793401D01*
X163921629Y-108789297D01*
X163906392Y-108784227D01*
X163903688Y-108783277D01*
X163885671Y-108774144D01*
X163870666Y-108762604D01*
X163863348Y-108755364D01*
X163855189Y-108749056D01*
X163851441Y-108750462D01*
X163850539Y-108759327D01*
X163850401Y-108764215D01*
X163848219Y-108767722D01*
X163841230Y-108762717D01*
X163837536Y-108759977D01*
X163825291Y-108754196D01*
X163812125Y-108750951D01*
X163801564Y-108750886D01*
X163797132Y-108754646D01*
X163797099Y-108755067D01*
X163794564Y-108754956D01*
X163789314Y-108747165D01*
X163783579Y-108738666D01*
X163775131Y-108731050D01*
X163768263Y-108729313D01*
X163765429Y-108734733D01*
X163764009Y-108740191D01*
X163757367Y-108743242D01*
X163742822Y-108743967D01*
X163737929Y-108744272D01*
X163733513Y-108746085D01*
X163735514Y-108751895D01*
X163744108Y-108763505D01*
X163757210Y-108776570D01*
X163764338Y-108782137D01*
X163772331Y-108788379D01*
X163777671Y-108792063D01*
X163797091Y-108806510D01*
X163814649Y-108820844D01*
X163819882Y-108825288D01*
X163832376Y-108833666D01*
X163845578Y-108837425D01*
X163864422Y-108838294D01*
X163867969Y-108838307D01*
X163883613Y-108839079D01*
X163890798Y-108841401D01*
X163891357Y-108845785D01*
X163892281Y-108851064D01*
X163900272Y-108856083D01*
X163912618Y-108858308D01*
X163925846Y-108856646D01*
X163935711Y-108855319D01*
X163950384Y-108856796D01*
X163954003Y-108857781D01*
X163960070Y-108861029D01*
X163956803Y-108864967D01*
X163953419Y-108867937D01*
X163952951Y-108873327D01*
X163956440Y-108875400D01*
X163969229Y-108877945D01*
X163985980Y-108878222D01*
X164002379Y-108876305D01*
X164014110Y-108872270D01*
X164019552Y-108868976D01*
X164024919Y-108867594D01*
X164026078Y-108872747D01*
X164028005Y-108877465D01*
X164036717Y-108880848D01*
X164042926Y-108881238D01*
X164046561Y-108884014D01*
X164042846Y-108890743D01*
X164031423Y-108902919D01*
X164030141Y-108904170D01*
X164015925Y-108914528D01*
X164003496Y-108917879D01*
X163986023Y-108916951D01*
X163973888Y-108918263D01*
X163968785Y-108922834D01*
X163968867Y-108931383D01*
X163969698Y-108937536D01*
X163967046Y-108943394D01*
X163956632Y-108944681D01*
X163946001Y-108946428D01*
X163939686Y-108951187D01*
X163938471Y-108952653D01*
X163930716Y-108950886D01*
X163916635Y-108941318D01*
X163899081Y-108928183D01*
X163882895Y-108918264D01*
X163871856Y-108914971D01*
X163864716Y-108917738D01*
X163862760Y-108920471D01*
X163862868Y-108929840D01*
X163866214Y-108934042D01*
X163869924Y-108938702D01*
X163881747Y-108943731D01*
X163888356Y-108945763D01*
X163890572Y-108949778D01*
X163890445Y-108953363D01*
X163894849Y-108959373D01*
X163895812Y-108960688D01*
X163901687Y-108966742D01*
X163902247Y-108974022D01*
X163892391Y-108979480D01*
X163890742Y-108980023D01*
X163884794Y-108983545D01*
X163888402Y-108987736D01*
X163894291Y-108990296D01*
X163907153Y-108992474D01*
X163914423Y-108994048D01*
X163921614Y-109000534D01*
X163927206Y-109005819D01*
X163938793Y-109008513D01*
X163944507Y-109008679D01*
X163949504Y-109010731D01*
X163946288Y-109016492D01*
X163945526Y-109017294D01*
X163935065Y-109022444D01*
X163920369Y-109024641D01*
X163917424Y-109024672D01*
X163906966Y-109025276D01*
X163905514Y-109027561D01*
X163911686Y-109032830D01*
X163915406Y-109035789D01*
X163916814Y-109037896D01*
X163919018Y-109041193D01*
X163914345Y-109045878D01*
X163913884Y-109046153D01*
X163902776Y-109049649D01*
X163887775Y-109051324D01*
X163885172Y-109051385D01*
X163874968Y-109051952D01*
X163874361Y-109053556D01*
X163882455Y-109057184D01*
X163895205Y-109059776D01*
X163914941Y-109060045D01*
X163935958Y-109057801D01*
X163953551Y-109053301D01*
X163956765Y-109052177D01*
X163961271Y-109052942D01*
X163959709Y-109061320D01*
X163959034Y-109063584D01*
X163959004Y-109065434D01*
X163958912Y-109070993D01*
X163965744Y-109072151D01*
X163971250Y-109071671D01*
X163980134Y-109072195D01*
X163978913Y-109075762D01*
X163967638Y-109082664D01*
X163949094Y-109092537D01*
X163971405Y-109098544D01*
X163979488Y-109100992D01*
X163989445Y-109106253D01*
X163990711Y-109112386D01*
X163990205Y-109116930D01*
X163996253Y-109120220D01*
X164000455Y-109119529D01*
X164004801Y-109114901D01*
X164006037Y-109113236D01*
X164014835Y-109110615D01*
X164029307Y-109109581D01*
X164031163Y-109109586D01*
X164045128Y-109110314D01*
X164050853Y-109112903D01*
X164050493Y-109118235D01*
X164049760Y-109121167D01*
X164051463Y-109130841D01*
X164057267Y-109137809D01*
X164064428Y-109138149D01*
X164067164Y-109138149D01*
X164067261Y-109139584D01*
X164067616Y-109144857D01*
X164064720Y-109150816D01*
X164057073Y-109153440D01*
X164041860Y-109153223D01*
X164028027Y-109152790D01*
X164022657Y-109154310D01*
X164024771Y-109158276D01*
X164028334Y-109162466D01*
X164031190Y-109170180D01*
X164026879Y-109173414D01*
X164023436Y-109172236D01*
X164012921Y-109166483D01*
X163998952Y-109157553D01*
X163984524Y-109148149D01*
X163973971Y-109142661D01*
X163969811Y-109143225D01*
X163970725Y-109148145D01*
X163970984Y-109149537D01*
X163971597Y-109154699D01*
X163965498Y-109154287D01*
X163962697Y-109153353D01*
X163956927Y-109153626D01*
X163957607Y-109158077D01*
X163963570Y-109164407D01*
X163973648Y-109170320D01*
X163984194Y-109175285D01*
X163986113Y-109178828D01*
X163980297Y-109183018D01*
X163976144Y-109185698D01*
X163974258Y-109189918D01*
X163978211Y-109196668D01*
X163988843Y-109208446D01*
X163997646Y-109218357D01*
X164001037Y-109224261D01*
X163996822Y-109224063D01*
X163978799Y-109218329D01*
X163966676Y-109217135D01*
X163962246Y-109220668D01*
X163962873Y-109223094D01*
X163969400Y-109226608D01*
X163976945Y-109229642D01*
X163986688Y-109238008D01*
X163986699Y-109238020D01*
X163998542Y-109249109D01*
X164012780Y-109259763D01*
X164028738Y-109270117D01*
X164014453Y-109267784D01*
X164003445Y-109267292D01*
X163993333Y-109269675D01*
X163992829Y-109269947D01*
X163983143Y-109269645D01*
X163969429Y-109263351D01*
X163966569Y-109261594D01*
X163956549Y-109256226D01*
X163951212Y-109256510D01*
X163947057Y-109262279D01*
X163942824Y-109268030D01*
X163937777Y-109267271D01*
X163928624Y-109259420D01*
X163917989Y-109251754D01*
X163911899Y-109252901D01*
X163911358Y-109257567D01*
X163915177Y-109268673D01*
X163915801Y-109269732D01*
X163922573Y-109281231D01*
X163931208Y-109291505D01*
X163938742Y-109295759D01*
X163943095Y-109296693D01*
X163946080Y-109302293D01*
X163940968Y-109309058D01*
X163938515Y-109310888D01*
X163935635Y-109318634D01*
X163937472Y-109321027D01*
X163941699Y-109326535D01*
X163955597Y-109332789D01*
X163958442Y-109333603D01*
X163973090Y-109338554D01*
X163982875Y-109343038D01*
X163983303Y-109343325D01*
X163987384Y-109350212D01*
X163983923Y-109355909D01*
X163975374Y-109356131D01*
X163968856Y-109355682D01*
X163968765Y-109361945D01*
X163975855Y-109374380D01*
X163980483Y-109381837D01*
X163979515Y-109387107D01*
X163969808Y-109391667D01*
X163965010Y-109393325D01*
X163955493Y-109393769D01*
X163948409Y-109387035D01*
X163941644Y-109380830D01*
X163927859Y-109379531D01*
X163917651Y-109379701D01*
X163914371Y-109374008D01*
X163912149Y-109368798D01*
X163902841Y-109368923D01*
X163901184Y-109369360D01*
X163895058Y-109371759D01*
X163896336Y-109375523D01*
X163905501Y-109383253D01*
X163911357Y-109388144D01*
X163918568Y-109396467D01*
X163916391Y-109400863D01*
X163904797Y-109402147D01*
X163893472Y-109403545D01*
X163884445Y-109407604D01*
X163880513Y-109408889D01*
X163870701Y-109404571D01*
X163858304Y-109393598D01*
X163845220Y-109377429D01*
X163843859Y-109375657D01*
X163831963Y-109367610D01*
X163812146Y-109363484D01*
X163803103Y-109362637D01*
X163792934Y-109362523D01*
X163790080Y-109365036D01*
X163792426Y-109370979D01*
X163794998Y-109374602D01*
X163804239Y-109383601D01*
X163805477Y-109384807D01*
X163819533Y-109395402D01*
X163840437Y-109409236D01*
X163841267Y-109409785D01*
X163823296Y-109414753D01*
X163805324Y-109419721D01*
X163822882Y-109423616D01*
X163827688Y-109424732D01*
X163840490Y-109429028D01*
X163844331Y-109434110D01*
X163840522Y-109441292D01*
X163837315Y-109447657D01*
X163842859Y-109452060D01*
X163847531Y-109453609D01*
X163864663Y-109454587D01*
X163877136Y-109447362D01*
X163883609Y-109441914D01*
X163893416Y-109439137D01*
X163900833Y-109441789D01*
X163902311Y-109449562D01*
X163902497Y-109457248D01*
X163911000Y-109463339D01*
X163911579Y-109463525D01*
X163916720Y-109466090D01*
X163913583Y-109468623D01*
X163901073Y-109472089D01*
X163898459Y-109472680D01*
X163879460Y-109475288D01*
X163862508Y-109475338D01*
X163856109Y-109474831D01*
X163846743Y-109475889D01*
X163847444Y-109479877D01*
X163858420Y-109486244D01*
X163866038Y-109488443D01*
X163886179Y-109490043D01*
X163914273Y-109488969D01*
X163922636Y-109488372D01*
X163942513Y-109487671D01*
X163953530Y-109488824D01*
X163956926Y-109491919D01*
X163953331Y-109497499D01*
X163943308Y-109503337D01*
X163940164Y-109504651D01*
X163932646Y-109510334D01*
X163934084Y-109515081D01*
X163943123Y-109517673D01*
X163958406Y-109516894D01*
X163959952Y-109516649D01*
X163972228Y-109515205D01*
X163976070Y-109516593D01*
X163973282Y-109521354D01*
X163970117Y-109523992D01*
X163960891Y-109526942D01*
X163945048Y-109528258D01*
X163920607Y-109528196D01*
X163903934Y-109528075D01*
X163881161Y-109529206D01*
X163867351Y-109531932D01*
X163863041Y-109536115D01*
X163868769Y-109541616D01*
X163875556Y-109547747D01*
X163882700Y-109559712D01*
X163884916Y-109564931D01*
X163890113Y-109569800D01*
X163898934Y-109566769D01*
X163906292Y-109563942D01*
X163915332Y-109565880D01*
X163915826Y-109570332D01*
X163906782Y-109574453D01*
X163897636Y-109578610D01*
X163893094Y-109585115D01*
X163892670Y-109589844D01*
X163886996Y-109598270D01*
X163875640Y-109598662D01*
X163859788Y-109590816D01*
X163855707Y-109588261D01*
X163838875Y-109580720D01*
X163823764Y-109577686D01*
X163815821Y-109576725D01*
X163804901Y-109571894D01*
X163791314Y-109561746D01*
X163772925Y-109544906D01*
X163765501Y-109537920D01*
X163751170Y-109525331D01*
X163740598Y-109517275D01*
X163735664Y-109515248D01*
X163733742Y-109515856D01*
X163723902Y-109514956D01*
X163709421Y-109511414D01*
X163706119Y-109510432D01*
X163693069Y-109507266D01*
X163686420Y-109507967D01*
X163683145Y-109512678D01*
X163682548Y-109517642D01*
X163681922Y-109532535D01*
X163681427Y-109556010D01*
X163681059Y-109586922D01*
X163680811Y-109624128D01*
X163680679Y-109666484D01*
X163680657Y-109712847D01*
X163680740Y-109762073D01*
X163680922Y-109813017D01*
X163681198Y-109864537D01*
X163681564Y-109915488D01*
X163682012Y-109964727D01*
X163682539Y-110011110D01*
X163683139Y-110053494D01*
X163683806Y-110090734D01*
X163684536Y-110121687D01*
X163685322Y-110145210D01*
X163686160Y-110160157D01*
X163688935Y-110186648D01*
X163694205Y-110222625D01*
X163700830Y-110257591D01*
X163708288Y-110289145D01*
X163716056Y-110314886D01*
X163723613Y-110332415D01*
X163733989Y-110350411D01*
X163678872Y-110347960D01*
X163662344Y-110347036D01*
X163640751Y-110345207D01*
X163624542Y-110343072D01*
X163616342Y-110340927D01*
X163613825Y-110340023D01*
X163601705Y-110338412D01*
X163583086Y-110337585D01*
X163560844Y-110337710D01*
X163551764Y-110337870D01*
X163529237Y-110337450D01*
X163510697Y-110336000D01*
X163499460Y-110333734D01*
X163498920Y-110333517D01*
X163490683Y-110329914D01*
X163491724Y-110328488D01*
X163502724Y-110328055D01*
X163511069Y-110327223D01*
X163518317Y-110323310D01*
X163524863Y-110314044D01*
X163532951Y-110297131D01*
X163538739Y-110283257D01*
X163546750Y-110261156D01*
X163552177Y-110242608D01*
X163552920Y-110238199D01*
X163554665Y-110222467D01*
X163556843Y-110197768D01*
X163559385Y-110165177D01*
X163562224Y-110125767D01*
X163565293Y-110080614D01*
X163568525Y-110030791D01*
X163571850Y-109977373D01*
X163575203Y-109921433D01*
X163578514Y-109864047D01*
X163581717Y-109806288D01*
X163584745Y-109749231D01*
X163587529Y-109693950D01*
X163590001Y-109641519D01*
X163590727Y-109625950D01*
X163592488Y-109591342D01*
X163594269Y-109560253D01*
X163595955Y-109534460D01*
X163597435Y-109515741D01*
X163598596Y-109505875D01*
X163601769Y-109489917D01*
X163587362Y-109503215D01*
X163587131Y-109503428D01*
X163571720Y-109520058D01*
X163565656Y-109533039D01*
X163568599Y-109543094D01*
X163570149Y-109545271D01*
X163570090Y-109551664D01*
X163561310Y-109559114D01*
X163552678Y-109567264D01*
X163550593Y-109574668D01*
X163550691Y-109574961D01*
X163547689Y-109581651D01*
X163536838Y-109588266D01*
X163534391Y-109589325D01*
X163524430Y-109596180D01*
X163523420Y-109604355D01*
X163523798Y-109610308D01*
X163516907Y-109617426D01*
X163505444Y-109620197D01*
X163489791Y-109621763D01*
X163473808Y-109621981D01*
X163461116Y-109620807D01*
X163455337Y-109618195D01*
X163455077Y-109617726D01*
X163449225Y-109617771D01*
X163438871Y-109623008D01*
X163437231Y-109624011D01*
X163420936Y-109630331D01*
X163402871Y-109633133D01*
X163401152Y-109633162D01*
X163388552Y-109632604D01*
X163383676Y-109629400D01*
X163383905Y-109622017D01*
X163383537Y-109613579D01*
X163374962Y-109605331D01*
X163368406Y-109601942D01*
X163368652Y-109599334D01*
X163378445Y-109596330D01*
X163379172Y-109596138D01*
X163390412Y-109592046D01*
X163391737Y-109587232D01*
X163383764Y-109579772D01*
X163382222Y-109578569D01*
X163379111Y-109574750D01*
X163383543Y-109573019D01*
X163397062Y-109572536D01*
X163403013Y-109572303D01*
X163414931Y-109570332D01*
X163419670Y-109567047D01*
X163419273Y-109565206D01*
X163413287Y-109561728D01*
X163409729Y-109560760D01*
X163412941Y-109555690D01*
X163416157Y-109553492D01*
X163426035Y-109552453D01*
X163442957Y-109555690D01*
X163458440Y-109559379D01*
X163470795Y-109561343D01*
X163476683Y-109560226D01*
X163478183Y-109556050D01*
X163476111Y-109553240D01*
X163467544Y-109553749D01*
X163461047Y-109554705D01*
X163456905Y-109551448D01*
X163457372Y-109549352D01*
X163463555Y-109545601D01*
X163465450Y-109543508D01*
X163459953Y-109537677D01*
X163454570Y-109532904D01*
X163452869Y-109527540D01*
X163460088Y-109526141D01*
X163475477Y-109529120D01*
X163491307Y-109531708D01*
X163507556Y-109529767D01*
X163511278Y-109528466D01*
X163518789Y-109528366D01*
X163521732Y-109535767D01*
X163522967Y-109540441D01*
X163526369Y-109541740D01*
X163533670Y-109537305D01*
X163546836Y-109526402D01*
X163555222Y-109518619D01*
X163572051Y-109500262D01*
X163585402Y-109482430D01*
X163590163Y-109474546D01*
X163596692Y-109460087D01*
X163599762Y-109444229D01*
X163600528Y-109422383D01*
X163600525Y-109420829D01*
X163624450Y-109420829D01*
X163626633Y-109430379D01*
X163631181Y-109430961D01*
X163635329Y-109421762D01*
X163637310Y-109409236D01*
X163636199Y-109401318D01*
X163632620Y-109400946D01*
X163627562Y-109409662D01*
X163624450Y-109420829D01*
X163600525Y-109420829D01*
X163600518Y-109416294D01*
X163600084Y-109399611D01*
X163598425Y-109390593D01*
X163594750Y-109386900D01*
X163588263Y-109386189D01*
X163586097Y-109386027D01*
X163572931Y-109381732D01*
X163558694Y-109373422D01*
X163548103Y-109365608D01*
X163714652Y-109365608D01*
X163715858Y-109368635D01*
X163725534Y-109375550D01*
X163735717Y-109381782D01*
X163745011Y-109385678D01*
X163747223Y-109383601D01*
X163741492Y-109375550D01*
X163732640Y-109368698D01*
X163720720Y-109364946D01*
X163714652Y-109365608D01*
X163548103Y-109365608D01*
X163541389Y-109360655D01*
X163568350Y-109351700D01*
X163577129Y-109348508D01*
X163594311Y-109338831D01*
X163603247Y-109326033D01*
X163605679Y-109308078D01*
X163605586Y-109299743D01*
X163680691Y-109299743D01*
X163681475Y-109314758D01*
X163685876Y-109323499D01*
X163696013Y-109330199D01*
X163707220Y-109335375D01*
X163721864Y-109338563D01*
X163730097Y-109333831D01*
X163732529Y-109321027D01*
X163731356Y-109312094D01*
X163724590Y-109297888D01*
X163710387Y-109281017D01*
X163700760Y-109271570D01*
X163691773Y-109265452D01*
X163836790Y-109265452D01*
X163840784Y-109269821D01*
X163841982Y-109270529D01*
X163852567Y-109273924D01*
X163862256Y-109273653D01*
X163866497Y-109269732D01*
X163862964Y-109264255D01*
X163853253Y-109260918D01*
X163842114Y-109262091D01*
X163836790Y-109265452D01*
X163691773Y-109265452D01*
X163690852Y-109264825D01*
X163684854Y-109266844D01*
X163682723Y-109274772D01*
X163681792Y-109278237D01*
X163680693Y-109299612D01*
X163680691Y-109299743D01*
X163605586Y-109299743D01*
X163605511Y-109293100D01*
X163594808Y-109307438D01*
X163581888Y-109320871D01*
X163560082Y-109336092D01*
X163536696Y-109346394D01*
X163528887Y-109348530D01*
X163526672Y-109347302D01*
X163532706Y-109339932D01*
X163539302Y-109331760D01*
X163541249Y-109325963D01*
X163534862Y-109326673D01*
X163520216Y-109333927D01*
X163514516Y-109337445D01*
X163500327Y-109348867D01*
X163491282Y-109359978D01*
X163482218Y-109370684D01*
X163467980Y-109373777D01*
X163451814Y-109373777D01*
X163462339Y-109356748D01*
X163464013Y-109353996D01*
X163470313Y-109342671D01*
X163472864Y-109336357D01*
X163472310Y-109334685D01*
X163465988Y-109332945D01*
X163456012Y-109335129D01*
X163446686Y-109340547D01*
X163444864Y-109342091D01*
X163433378Y-109350169D01*
X163417804Y-109359632D01*
X163400764Y-109369075D01*
X163384880Y-109377093D01*
X163372772Y-109382279D01*
X163367063Y-109383230D01*
X163367054Y-109379801D01*
X163373134Y-109373199D01*
X163378736Y-109368435D01*
X163382909Y-109361047D01*
X163378527Y-109358275D01*
X163366740Y-109362115D01*
X163356646Y-109366880D01*
X163345859Y-109370009D01*
X163342666Y-109367545D01*
X163347858Y-109359592D01*
X163353477Y-109353038D01*
X163353806Y-109349524D01*
X163346023Y-109348953D01*
X163339044Y-109347719D01*
X163334560Y-109343022D01*
X163331125Y-109340987D01*
X163321449Y-109345682D01*
X163309157Y-109352447D01*
X163300212Y-109353164D01*
X163297324Y-109345724D01*
X163296320Y-109341568D01*
X163290347Y-109339854D01*
X163281680Y-109338842D01*
X163270399Y-109332562D01*
X163257429Y-109322593D01*
X163273387Y-109321672D01*
X163287062Y-109321334D01*
X163303486Y-109321829D01*
X163304301Y-109321877D01*
X163319391Y-109320244D01*
X163335744Y-109315337D01*
X163336023Y-109315220D01*
X163347812Y-109309153D01*
X163352129Y-109301723D01*
X163351936Y-109296833D01*
X163387747Y-109296833D01*
X163389589Y-109303509D01*
X163389847Y-109304161D01*
X163395007Y-109310817D01*
X163402700Y-109308984D01*
X163414411Y-109298355D01*
X163426965Y-109284992D01*
X163408689Y-109288480D01*
X163400107Y-109290178D01*
X163390471Y-109293004D01*
X163387747Y-109296833D01*
X163351936Y-109296833D01*
X163351607Y-109288465D01*
X163351096Y-109278282D01*
X163354263Y-109270399D01*
X163363422Y-109269439D01*
X163380166Y-109274631D01*
X163386635Y-109276747D01*
X163396175Y-109277347D01*
X163397232Y-109272684D01*
X163396081Y-109271442D01*
X163462225Y-109271442D01*
X163463938Y-109281185D01*
X163468903Y-109284992D01*
X163469066Y-109285117D01*
X163475548Y-109279761D01*
X163475836Y-109274772D01*
X163470543Y-109266082D01*
X163466352Y-109262210D01*
X163462913Y-109262182D01*
X163462225Y-109271442D01*
X163396081Y-109271442D01*
X163388978Y-109263777D01*
X163381840Y-109257594D01*
X163380558Y-109253618D01*
X163386946Y-109250801D01*
X163397239Y-109250069D01*
X163411334Y-109253069D01*
X163412585Y-109253533D01*
X163430773Y-109257887D01*
X163445916Y-109257487D01*
X163454754Y-109252383D01*
X163456057Y-109249255D01*
X163451983Y-109250300D01*
X163446060Y-109250639D01*
X163437561Y-109243142D01*
X163430457Y-109235895D01*
X163420698Y-109231553D01*
X163418634Y-109231434D01*
X163415639Y-109230121D01*
X163422330Y-109226608D01*
X163422437Y-109226562D01*
X163433108Y-109224228D01*
X163450613Y-109222469D01*
X163471220Y-109221662D01*
X163489488Y-109220907D01*
X163505823Y-109218570D01*
X163513387Y-109214953D01*
X163514475Y-109211871D01*
X163511041Y-109206531D01*
X163505014Y-109203328D01*
X163505505Y-109199193D01*
X163513949Y-109195982D01*
X163528849Y-109194691D01*
X163530544Y-109194687D01*
X163545290Y-109193675D01*
X163553264Y-109189780D01*
X163557969Y-109181404D01*
X163567120Y-109169590D01*
X163584434Y-109159549D01*
X163585048Y-109159302D01*
X163592427Y-109155680D01*
X163921989Y-109155680D01*
X163927659Y-109159375D01*
X163934617Y-109161896D01*
X163940175Y-109161413D01*
X163946288Y-109154796D01*
X163947205Y-109153668D01*
X163949665Y-109148145D01*
X163942949Y-109146899D01*
X163937278Y-109147496D01*
X163925894Y-109151478D01*
X163921989Y-109155680D01*
X163592427Y-109155680D01*
X163598140Y-109152876D01*
X163605153Y-109147326D01*
X163604986Y-109144034D01*
X163596539Y-109144378D01*
X163593273Y-109144977D01*
X163579714Y-109147083D01*
X163562803Y-109149400D01*
X163556470Y-109150536D01*
X163533499Y-109158307D01*
X163510096Y-109170757D01*
X163505404Y-109173771D01*
X163491542Y-109182161D01*
X163482585Y-109185551D01*
X163475362Y-109184620D01*
X163466700Y-109180048D01*
X163455931Y-109172559D01*
X163452455Y-109166411D01*
X163458998Y-109163501D01*
X163475424Y-109164078D01*
X163480308Y-109164553D01*
X163496601Y-109164070D01*
X163505622Y-109159100D01*
X163514876Y-109150906D01*
X163534974Y-109140444D01*
X163549810Y-109136178D01*
X163616487Y-109136178D01*
X163616719Y-109143001D01*
X163618661Y-109145827D01*
X163624171Y-109141957D01*
X163635104Y-109130859D01*
X163639077Y-109126455D01*
X163644759Y-109118183D01*
X163644079Y-109114901D01*
X163641931Y-109115220D01*
X163637764Y-109120220D01*
X163635769Y-109123312D01*
X163627125Y-109125540D01*
X163620248Y-109127288D01*
X163616487Y-109136178D01*
X163549810Y-109136178D01*
X163559617Y-109133358D01*
X163562178Y-109132816D01*
X163576680Y-109127521D01*
X163586030Y-109120583D01*
X163590895Y-109115273D01*
X163601858Y-109108068D01*
X163609975Y-109102364D01*
X163609571Y-109096372D01*
X163609015Y-109096203D01*
X163712970Y-109096203D01*
X163713104Y-109104756D01*
X163713107Y-109104771D01*
X163719942Y-109117154D01*
X163721317Y-109118183D01*
X163736172Y-109129298D01*
X163753132Y-109137660D01*
X163766147Y-109141374D01*
X163772657Y-109139584D01*
X163771424Y-109132189D01*
X163761978Y-109119281D01*
X163744735Y-109104601D01*
X163726403Y-109095985D01*
X163718035Y-109094305D01*
X163712970Y-109096203D01*
X163609015Y-109096203D01*
X163600528Y-109093623D01*
X163594324Y-109092142D01*
X163589890Y-109085644D01*
X163589613Y-109080780D01*
X163586469Y-109078023D01*
X163577026Y-109080894D01*
X163572923Y-109083431D01*
X163568612Y-109091647D01*
X163565219Y-109097861D01*
X163556174Y-109104611D01*
X163545871Y-109108837D01*
X163538753Y-109108092D01*
X163538369Y-109107279D01*
X163540411Y-109099864D01*
X163547117Y-109088610D01*
X163549365Y-109085296D01*
X163554109Y-109076057D01*
X163553379Y-109072346D01*
X163552744Y-109072434D01*
X163545845Y-109077388D01*
X163537196Y-109087601D01*
X163524579Y-109100258D01*
X163508907Y-109109729D01*
X163506071Y-109110921D01*
X163489308Y-109119679D01*
X163472864Y-109130361D01*
X163467832Y-109133924D01*
X163456539Y-109140702D01*
X163450096Y-109142756D01*
X163449856Y-109142695D01*
X163442256Y-109144269D01*
X163430412Y-109149423D01*
X163419463Y-109153885D01*
X163407902Y-109156778D01*
X163398765Y-109157643D01*
X163394671Y-109156245D01*
X163398238Y-109152344D01*
X163402878Y-109148328D01*
X163402586Y-109144066D01*
X163395738Y-109142917D01*
X163384740Y-109146011D01*
X163377061Y-109149217D01*
X163373001Y-109148698D01*
X163374437Y-109141555D01*
X163374685Y-109140750D01*
X163374701Y-109132892D01*
X163366521Y-109130859D01*
X163359916Y-109132027D01*
X163358865Y-109136773D01*
X163358956Y-109142505D01*
X163352470Y-109149050D01*
X163342063Y-109152055D01*
X163336573Y-109148632D01*
X163330238Y-109138903D01*
X163327607Y-109132463D01*
X163328014Y-109126201D01*
X163336034Y-109123279D01*
X163340692Y-109122332D01*
X163359739Y-109118211D01*
X163370775Y-109115078D01*
X163375876Y-109112203D01*
X163377115Y-109108860D01*
X163373856Y-109105557D01*
X163363508Y-109105623D01*
X163361909Y-109105912D01*
X163353328Y-109105889D01*
X163352869Y-109100924D01*
X163353991Y-109098166D01*
X163358556Y-109086974D01*
X163356775Y-109082072D01*
X163345199Y-109080325D01*
X163334048Y-109081876D01*
X163331674Y-109086974D01*
X163330472Y-109091580D01*
X163320443Y-109093623D01*
X163315189Y-109093478D01*
X163310055Y-109091463D01*
X163313230Y-109085707D01*
X163313272Y-109085657D01*
X163316824Y-109078686D01*
X163311222Y-109074499D01*
X163306958Y-109071877D01*
X163302644Y-109063798D01*
X163304637Y-109061135D01*
X163314359Y-109058054D01*
X163329222Y-109056427D01*
X163345911Y-109056369D01*
X163361111Y-109057995D01*
X163371509Y-109061417D01*
X163377679Y-109063237D01*
X163387426Y-109061657D01*
X163394758Y-109056908D01*
X163395231Y-109053339D01*
X163416143Y-109053339D01*
X163421994Y-109060657D01*
X163431303Y-109068287D01*
X163439630Y-109069907D01*
X163444429Y-109070018D01*
X163443596Y-109077699D01*
X163443564Y-109077801D01*
X163441767Y-109086634D01*
X163445066Y-109086696D01*
X163453942Y-109078000D01*
X163455770Y-109075835D01*
X163460224Y-109065434D01*
X163455662Y-109059386D01*
X163443212Y-109059622D01*
X163434014Y-109060312D01*
X163420931Y-109055744D01*
X163417456Y-109053185D01*
X163416143Y-109053339D01*
X163395231Y-109053339D01*
X163395568Y-109050801D01*
X163393451Y-109048648D01*
X163384939Y-109045971D01*
X163375961Y-109046926D01*
X163371795Y-109051382D01*
X163371378Y-109053306D01*
X163366476Y-109053728D01*
X163364071Y-109051310D01*
X163361157Y-109041864D01*
X163359598Y-109035118D01*
X163357901Y-109032331D01*
X163485887Y-109032331D01*
X163486557Y-109042200D01*
X163488865Y-109046806D01*
X163493380Y-109050648D01*
X163505363Y-109046168D01*
X163510099Y-109037896D01*
X163510094Y-109037628D01*
X163505519Y-109030142D01*
X163496197Y-109026405D01*
X163487758Y-109028727D01*
X163485887Y-109032331D01*
X163357901Y-109032331D01*
X163352989Y-109024263D01*
X163348552Y-109018193D01*
X163350982Y-109014578D01*
X163362298Y-109011613D01*
X163379775Y-109007987D01*
X163367546Y-108997878D01*
X163357143Y-108991581D01*
X163348593Y-108990350D01*
X163341476Y-108989239D01*
X163332070Y-108982104D01*
X163329101Y-108978778D01*
X163325826Y-108973533D01*
X163329930Y-108971543D01*
X163343044Y-108971188D01*
X163363816Y-108971099D01*
X163345199Y-108959220D01*
X163326581Y-108947341D01*
X163390413Y-108942021D01*
X163369136Y-108929782D01*
X163365005Y-108927406D01*
X163692580Y-108927406D01*
X163695620Y-108944587D01*
X163704035Y-108961654D01*
X163719919Y-108978671D01*
X163727388Y-108983805D01*
X163738277Y-108987817D01*
X163743167Y-108983559D01*
X163741477Y-108971230D01*
X163740834Y-108963212D01*
X163747517Y-108960639D01*
X163753597Y-108959373D01*
X163750535Y-108954256D01*
X163747071Y-108949017D01*
X163744152Y-108936850D01*
X163743355Y-108934042D01*
X163813303Y-108934042D01*
X163813305Y-108934108D01*
X163818057Y-108937821D01*
X163829261Y-108939362D01*
X163829460Y-108939361D01*
X163840597Y-108937777D01*
X163845220Y-108934042D01*
X163844999Y-108932573D01*
X163839566Y-108928723D01*
X163836682Y-108927260D01*
X163834859Y-108919414D01*
X163835487Y-108906035D01*
X163833693Y-108895612D01*
X163829261Y-108894147D01*
X163825582Y-108900794D01*
X163823942Y-108913079D01*
X163822386Y-108924108D01*
X163818623Y-108928723D01*
X163817351Y-108928877D01*
X163813303Y-108934042D01*
X163743355Y-108934042D01*
X163741575Y-108927765D01*
X163733789Y-108914370D01*
X163723263Y-108900837D01*
X163712526Y-108890369D01*
X163704110Y-108886168D01*
X163701093Y-108887171D01*
X163695767Y-108895598D01*
X163692779Y-108910043D01*
X163692580Y-108927406D01*
X163365005Y-108927406D01*
X163347858Y-108917544D01*
X163364940Y-108920299D01*
X163365833Y-108920435D01*
X163378338Y-108920606D01*
X163385372Y-108917634D01*
X163385471Y-108917486D01*
X163392858Y-108914243D01*
X163405526Y-108913819D01*
X163411504Y-108914203D01*
X163419856Y-108912507D01*
X163421591Y-108906116D01*
X163421620Y-108902762D01*
X163425384Y-108897678D01*
X163435552Y-108898371D01*
X163453425Y-108904786D01*
X163467286Y-108910358D01*
X163475029Y-108911682D01*
X163477817Y-108907329D01*
X163478183Y-108896448D01*
X163478372Y-108890587D01*
X163480872Y-108883041D01*
X163487492Y-108882753D01*
X163499020Y-108885597D01*
X163514089Y-108888853D01*
X163523949Y-108890362D01*
X163530031Y-108888510D01*
X163531377Y-108881084D01*
X163531397Y-108879538D01*
X163533483Y-108872894D01*
X163540686Y-108874780D01*
X163542397Y-108875486D01*
X163553817Y-108877393D01*
X163570461Y-108878083D01*
X163589159Y-108877686D01*
X163606741Y-108876333D01*
X163620039Y-108874153D01*
X163625883Y-108871278D01*
X163626071Y-108870598D01*
X163622764Y-108863263D01*
X163609322Y-108856394D01*
X163585494Y-108849858D01*
X163576408Y-108847876D01*
X163560411Y-108844760D01*
X163551689Y-108844195D01*
X163548059Y-108846244D01*
X163547335Y-108850972D01*
X163542952Y-108857602D01*
X163530765Y-108862743D01*
X163513699Y-108864818D01*
X163511964Y-108864761D01*
X163505488Y-108861497D01*
X163506450Y-108854847D01*
X163513692Y-108847088D01*
X163526057Y-108840499D01*
X163535637Y-108836750D01*
X163538549Y-108834269D01*
X163532465Y-108833379D01*
X163531430Y-108833391D01*
X163519159Y-108837441D01*
X163506684Y-108846545D01*
X163504872Y-108848286D01*
X163494452Y-108855961D01*
X163486978Y-108857930D01*
X163482747Y-108857864D01*
X163470391Y-108860610D01*
X163454384Y-108866030D01*
X163444431Y-108869433D01*
X163427325Y-108873372D01*
X163414993Y-108873842D01*
X163414765Y-108873800D01*
X163400993Y-108874967D01*
X163386016Y-108881127D01*
X163382717Y-108883055D01*
X163370065Y-108887745D01*
X163359673Y-108885374D01*
X163353149Y-108880054D01*
X163355266Y-108873972D01*
X163359501Y-108868774D01*
X163359801Y-108861999D01*
X163350518Y-108859571D01*
X163343619Y-108857638D01*
X163339822Y-108850658D01*
X163342463Y-108842293D01*
X163351393Y-108836523D01*
X163353651Y-108835891D01*
X163359584Y-108832165D01*
X163356454Y-108825738D01*
X163355742Y-108824821D01*
X163354102Y-108816693D01*
X163360969Y-108811403D01*
X163374455Y-108810544D01*
X163376866Y-108810566D01*
X163376004Y-108807997D01*
X163366476Y-108802382D01*
X163366405Y-108802347D01*
X163353037Y-108794024D01*
X163349457Y-108788023D01*
X163354993Y-108784744D01*
X163368970Y-108784588D01*
X163390716Y-108787956D01*
X163403917Y-108788730D01*
X163413975Y-108782893D01*
X163417319Y-108777571D01*
X163416070Y-108775632D01*
X163425676Y-108775632D01*
X163430309Y-108781331D01*
X163436785Y-108785628D01*
X163451042Y-108790562D01*
X163467629Y-108793594D01*
X163482467Y-108794059D01*
X163491481Y-108791293D01*
X163496004Y-108788124D01*
X163507439Y-108783573D01*
X163507774Y-108783488D01*
X163507879Y-108782137D01*
X163499205Y-108781003D01*
X163483502Y-108780325D01*
X163466500Y-108779660D01*
X163447956Y-108778196D01*
X163435628Y-108776351D01*
X163429205Y-108774917D01*
X163425676Y-108775632D01*
X163416070Y-108775632D01*
X163415316Y-108774461D01*
X163413352Y-108774754D01*
X163406124Y-108780180D01*
X163400130Y-108781226D01*
X163389568Y-108773667D01*
X163389413Y-108773521D01*
X163381142Y-108764953D01*
X163380255Y-108759775D01*
X163386114Y-108754439D01*
X163388769Y-108752423D01*
X163392605Y-108747207D01*
X163387754Y-108742545D01*
X163385086Y-108740705D01*
X163383487Y-108736180D01*
X163390439Y-108729626D01*
X163396173Y-108725493D01*
X163404017Y-108722131D01*
X163413121Y-108723302D01*
X163427704Y-108728926D01*
X163429570Y-108729681D01*
X163442445Y-108733142D01*
X163449124Y-108731586D01*
X163455648Y-108728124D01*
X163467858Y-108726587D01*
X163478732Y-108724939D01*
X163483502Y-108718855D01*
X163484154Y-108715190D01*
X163488549Y-108714741D01*
X163499230Y-108720150D01*
X163505705Y-108723343D01*
X163517875Y-108724935D01*
X163523968Y-108718092D01*
X163523115Y-108703419D01*
X163521890Y-108699285D01*
X163515849Y-108691364D01*
X163503552Y-108689351D01*
X163496028Y-108689099D01*
X163491083Y-108686984D01*
X163493995Y-108681548D01*
X163495047Y-108680162D01*
X163496021Y-108674957D01*
X163490238Y-108669455D01*
X163480594Y-108664305D01*
X163549257Y-108664305D01*
X163552654Y-108667625D01*
X163564907Y-108672506D01*
X163588250Y-108675422D01*
X163612497Y-108672367D01*
X163619938Y-108670247D01*
X163628525Y-108665887D01*
X163631874Y-108658074D01*
X163632445Y-108643218D01*
X163632445Y-108642840D01*
X163631969Y-108633096D01*
X163696277Y-108633096D01*
X163697706Y-108643218D01*
X163698133Y-108646242D01*
X163704691Y-108654206D01*
X163710743Y-108656414D01*
X163716000Y-108656455D01*
X163718946Y-108650786D01*
X163719213Y-108639542D01*
X163713719Y-108626590D01*
X163704701Y-108618446D01*
X163701210Y-108617632D01*
X163697314Y-108621137D01*
X163696277Y-108633096D01*
X163631969Y-108633096D01*
X163631732Y-108628253D01*
X163628967Y-108621835D01*
X163623145Y-108621210D01*
X163618261Y-108623324D01*
X163613728Y-108630909D01*
X163613721Y-108631236D01*
X163610988Y-108646326D01*
X163604757Y-108658042D01*
X163596941Y-108662754D01*
X163592677Y-108661615D01*
X163591813Y-108654775D01*
X163592741Y-108650721D01*
X163590374Y-108646796D01*
X163586846Y-108648093D01*
X163579251Y-108654775D01*
X163571768Y-108659914D01*
X163558652Y-108662916D01*
X163555464Y-108662999D01*
X163549257Y-108664305D01*
X163480594Y-108664305D01*
X163476106Y-108661908D01*
X163466117Y-108657207D01*
X163454618Y-108653284D01*
X163445491Y-108653790D01*
X163434376Y-108658352D01*
X163424013Y-108662004D01*
X163408802Y-108662939D01*
X163397500Y-108658565D01*
X163393073Y-108649518D01*
X163391136Y-108644906D01*
X163382445Y-108635170D01*
X163369136Y-108624385D01*
X163359483Y-108617265D01*
X163349193Y-108608665D01*
X163345199Y-108603804D01*
X163346553Y-108602188D01*
X163355324Y-108597810D01*
X163369550Y-108592906D01*
X163376991Y-108590486D01*
X163391237Y-108584503D01*
X163399365Y-108579132D01*
X163404802Y-108575469D01*
X163415155Y-108578075D01*
X163422302Y-108581079D01*
X163441618Y-108586083D01*
X163464919Y-108589730D01*
X163487863Y-108591422D01*
X163506110Y-108590565D01*
X163510375Y-108589799D01*
X163522855Y-108585936D01*
X163525400Y-108582287D01*
X163518502Y-108580208D01*
X163502655Y-108581055D01*
X163501364Y-108581230D01*
X163486709Y-108582342D01*
X163478535Y-108579922D01*
X163473211Y-108572975D01*
X163467197Y-108566140D01*
X163455242Y-108561686D01*
X163447890Y-108560595D01*
X163437189Y-108556183D01*
X163479295Y-108556183D01*
X163483396Y-108564217D01*
X163489039Y-108569554D01*
X163496332Y-108572137D01*
X163499460Y-108567657D01*
X163499024Y-108565498D01*
X163493717Y-108558392D01*
X163485878Y-108553038D01*
X163479956Y-108552821D01*
X163479295Y-108556183D01*
X163437189Y-108556183D01*
X163434907Y-108555242D01*
X163424153Y-108547595D01*
X163420063Y-108540763D01*
X163496801Y-108540763D01*
X163509359Y-108551224D01*
X163512057Y-108553356D01*
X163528612Y-108560769D01*
X163546038Y-108558152D01*
X163548585Y-108556495D01*
X163549495Y-108550239D01*
X163549659Y-108545369D01*
X163556103Y-108537830D01*
X163561440Y-108532364D01*
X163561477Y-108531976D01*
X163579860Y-108531976D01*
X163585454Y-108532849D01*
X163595890Y-108527994D01*
X163607346Y-108518524D01*
X163613145Y-108511152D01*
X163733513Y-108511152D01*
X163734419Y-108514870D01*
X163741333Y-108519131D01*
X163742538Y-108519287D01*
X163751243Y-108524589D01*
X163760951Y-108535089D01*
X163761302Y-108535562D01*
X163773077Y-108547877D01*
X163782370Y-108550269D01*
X163788797Y-108542633D01*
X163791108Y-108536081D01*
X163790815Y-108530782D01*
X163784214Y-108529770D01*
X163780488Y-108528764D01*
X163779315Y-108522179D01*
X163779444Y-108517196D01*
X163772127Y-108517229D01*
X163765301Y-108517272D01*
X163755097Y-108511522D01*
X163754535Y-108510865D01*
X163745188Y-108504246D01*
X163737015Y-108504322D01*
X163733513Y-108511152D01*
X163613145Y-108511152D01*
X163616775Y-108506538D01*
X163618596Y-108503656D01*
X163628916Y-108491726D01*
X163639050Y-108485337D01*
X163645597Y-108482601D01*
X163647081Y-108478801D01*
X163645017Y-108478134D01*
X163635770Y-108480781D01*
X163622472Y-108487751D01*
X163607943Y-108497273D01*
X163595002Y-108507575D01*
X163586470Y-108516885D01*
X163580998Y-108526691D01*
X163580961Y-108526758D01*
X163579860Y-108531976D01*
X163561477Y-108531976D01*
X163561987Y-108526691D01*
X163557024Y-108526270D01*
X163548278Y-108531576D01*
X163547304Y-108532385D01*
X163534402Y-108538170D01*
X163517659Y-108540586D01*
X163496801Y-108540763D01*
X163420063Y-108540763D01*
X163419670Y-108540107D01*
X163420799Y-108537630D01*
X163428269Y-108535089D01*
X163428292Y-108535089D01*
X163434364Y-108532088D01*
X163434326Y-108521791D01*
X163433957Y-108512695D01*
X163439025Y-108508492D01*
X163442017Y-108508003D01*
X163446267Y-108503041D01*
X163449791Y-108498034D01*
X163459732Y-108492471D01*
X163467947Y-108488806D01*
X163470011Y-108483874D01*
X163464731Y-108474429D01*
X163460136Y-108466789D01*
X163459603Y-108460788D01*
X163465893Y-108455982D01*
X163470795Y-108452509D01*
X163469155Y-108449697D01*
X163458235Y-108446894D01*
X163456761Y-108446581D01*
X163445545Y-108443452D01*
X163440947Y-108440771D01*
X163440970Y-108440607D01*
X163442113Y-108439246D01*
X163685638Y-108439246D01*
X163685990Y-108440682D01*
X163690916Y-108449092D01*
X163699797Y-108460671D01*
X163708081Y-108469714D01*
X163714258Y-108473173D01*
X163718372Y-108469608D01*
X163719082Y-108468595D01*
X163728073Y-108464944D01*
X163742043Y-108465854D01*
X163757318Y-108470677D01*
X163770226Y-108478763D01*
X163770272Y-108478801D01*
X163775459Y-108483112D01*
X163783837Y-108486913D01*
X163786706Y-108481896D01*
X163787507Y-108480494D01*
X163795506Y-108477682D01*
X163809314Y-108476553D01*
X163831921Y-108476531D01*
X163807984Y-108460618D01*
X163798547Y-108454840D01*
X163783635Y-108447545D01*
X163773142Y-108444683D01*
X163766302Y-108443753D01*
X163756554Y-108438977D01*
X163755826Y-108438327D01*
X163747082Y-108436545D01*
X163731973Y-108441190D01*
X163730241Y-108441909D01*
X163718171Y-108446076D01*
X163710862Y-108445225D01*
X163703965Y-108439019D01*
X163696721Y-108433250D01*
X163688904Y-108432468D01*
X163685638Y-108439246D01*
X163442113Y-108439246D01*
X163445197Y-108435573D01*
X163454523Y-108427533D01*
X163454926Y-108427217D01*
X163463581Y-108419562D01*
X163464516Y-108413909D01*
X163458513Y-108406033D01*
X163454954Y-108401934D01*
X163452561Y-108397517D01*
X163457347Y-108396746D01*
X163470977Y-108398632D01*
X163480437Y-108399746D01*
X163494163Y-108398429D01*
X163505553Y-108391608D01*
X163514898Y-108383816D01*
X163569828Y-108383816D01*
X163575035Y-108385884D01*
X163586237Y-108389033D01*
X163591780Y-108390220D01*
X163600131Y-108389280D01*
X163604090Y-108381655D01*
X163604198Y-108381244D01*
X163607047Y-108374426D01*
X163612604Y-108373488D01*
X163624323Y-108377765D01*
X163630328Y-108380025D01*
X163642822Y-108382514D01*
X163648325Y-108380488D01*
X163645630Y-108375229D01*
X163633527Y-108368017D01*
X163631667Y-108367215D01*
X163618879Y-108363888D01*
X163851518Y-108363888D01*
X163855878Y-108370521D01*
X163866737Y-108374699D01*
X163878622Y-108378579D01*
X163881851Y-108380488D01*
X163892305Y-108386668D01*
X163902134Y-108393445D01*
X163911128Y-108396650D01*
X163914042Y-108392796D01*
X163912886Y-108390241D01*
X163904927Y-108382386D01*
X163892164Y-108373007D01*
X163877843Y-108364185D01*
X163865211Y-108358002D01*
X163857512Y-108356540D01*
X163855132Y-108357700D01*
X163851518Y-108363888D01*
X163618879Y-108363888D01*
X163613098Y-108362384D01*
X163594697Y-108362142D01*
X163579743Y-108366166D01*
X163571515Y-108374133D01*
X163570156Y-108378361D01*
X163569828Y-108383816D01*
X163514898Y-108383816D01*
X163518078Y-108381164D01*
X163501374Y-108387261D01*
X163489964Y-108390230D01*
X163477128Y-108389428D01*
X163459760Y-108383844D01*
X163453668Y-108381283D01*
X163438395Y-108372226D01*
X163430257Y-108362951D01*
X163427121Y-108357082D01*
X163425326Y-108358220D01*
X163425279Y-108358787D01*
X163420945Y-108364206D01*
X163413287Y-108363673D01*
X163407308Y-108357413D01*
X163407151Y-108356979D01*
X163407253Y-108353020D01*
X163411649Y-108349837D01*
X163421912Y-108346978D01*
X163439616Y-108343989D01*
X163466334Y-108340417D01*
X163477193Y-108338761D01*
X163490605Y-108335710D01*
X163496885Y-108332817D01*
X163497225Y-108331538D01*
X163495786Y-108322418D01*
X163491134Y-108309006D01*
X163490605Y-108307686D01*
X163818649Y-108307686D01*
X163818874Y-108309130D01*
X163823552Y-108318453D01*
X163832374Y-108330294D01*
X163837777Y-108336307D01*
X163842778Y-108340181D01*
X163842302Y-108335613D01*
X163839826Y-108327869D01*
X163835936Y-108313006D01*
X163834093Y-108308119D01*
X163827952Y-108302000D01*
X163821572Y-108301476D01*
X163818649Y-108307686D01*
X163490605Y-108307686D01*
X163489374Y-108304614D01*
X163485523Y-108292857D01*
X163485034Y-108287094D01*
X163485869Y-108286825D01*
X163493735Y-108288373D01*
X163506452Y-108292988D01*
X163507425Y-108293392D01*
X163525607Y-108299498D01*
X163537654Y-108300654D01*
X163542015Y-108296697D01*
X163541644Y-108295762D01*
X163535447Y-108290212D01*
X163524238Y-108282669D01*
X163511437Y-108275173D01*
X163500462Y-108269766D01*
X163494736Y-108268487D01*
X163494543Y-108268605D01*
X163490360Y-108265960D01*
X163488874Y-108263422D01*
X163754790Y-108263422D01*
X163755255Y-108265293D01*
X163761932Y-108269654D01*
X163772950Y-108270780D01*
X163783677Y-108267945D01*
X163793002Y-108265395D01*
X163807039Y-108265998D01*
X163821282Y-108269155D01*
X163806061Y-108260678D01*
X163799721Y-108258037D01*
X163785463Y-108255456D01*
X163770822Y-108255621D01*
X163759398Y-108258341D01*
X163754790Y-108263422D01*
X163488874Y-108263422D01*
X163485786Y-108258146D01*
X163483584Y-108249794D01*
X163484545Y-108246393D01*
X163491773Y-108241709D01*
X163502060Y-108241245D01*
X163510555Y-108245733D01*
X163516123Y-108249954D01*
X163528304Y-108253163D01*
X163535992Y-108254320D01*
X163546648Y-108259812D01*
X163549183Y-108261902D01*
X163555393Y-108262044D01*
X163563670Y-108253903D01*
X163568601Y-108247345D01*
X163573686Y-108235579D01*
X163569485Y-108228764D01*
X163555903Y-108226566D01*
X163539762Y-108223738D01*
X163536447Y-108222088D01*
X163600528Y-108222088D01*
X163601625Y-108223425D01*
X163610188Y-108225676D01*
X163624466Y-108226566D01*
X163626185Y-108226562D01*
X163640333Y-108225719D01*
X163646837Y-108222575D01*
X163648403Y-108215927D01*
X163647774Y-108209758D01*
X163645030Y-108205288D01*
X163641013Y-108205709D01*
X163629173Y-108208742D01*
X163615869Y-108213468D01*
X163605016Y-108218410D01*
X163600528Y-108222088D01*
X163536447Y-108222088D01*
X163525800Y-108216789D01*
X163520104Y-108211067D01*
X163517219Y-108202011D01*
X163523262Y-108196536D01*
X163537135Y-108196599D01*
X163548530Y-108197163D01*
X163555614Y-108194164D01*
X163562380Y-108191295D01*
X163575068Y-108192240D01*
X163579839Y-108193182D01*
X163587973Y-108193158D01*
X163588651Y-108188561D01*
X163588578Y-108188364D01*
X163581284Y-108183498D01*
X163564626Y-108182979D01*
X163560785Y-108183144D01*
X163538238Y-108180507D01*
X163515626Y-108173167D01*
X163498250Y-108162739D01*
X163497400Y-108162021D01*
X163487497Y-108154924D01*
X163474193Y-108146538D01*
X163462938Y-108138458D01*
X163457339Y-108131050D01*
X163459467Y-108126886D01*
X163469699Y-108127555D01*
X163473826Y-108128474D01*
X163480146Y-108127735D01*
X163479852Y-108120666D01*
X163479501Y-108118453D01*
X163483247Y-108109969D01*
X163493275Y-108105603D01*
X163506152Y-108107122D01*
X163510637Y-108107917D01*
X163517908Y-108104496D01*
X163519664Y-108102540D01*
X163526683Y-108101947D01*
X163528767Y-108104766D01*
X163525558Y-108112801D01*
X163524948Y-108113552D01*
X163521335Y-108121256D01*
X163526397Y-108123563D01*
X163539484Y-108120129D01*
X163543785Y-108118367D01*
X163550346Y-108113547D01*
X163548096Y-108108174D01*
X163546211Y-108103809D01*
X163551009Y-108097998D01*
X163564518Y-108089994D01*
X163587230Y-108078104D01*
X163570129Y-108077864D01*
X163566417Y-108077571D01*
X163554895Y-108073656D01*
X163546665Y-108067004D01*
X163543884Y-108059937D01*
X163548707Y-108054780D01*
X163552629Y-108051637D01*
X163548665Y-108045308D01*
X163545813Y-108042128D01*
X163543047Y-108036932D01*
X163546576Y-108033999D01*
X163557846Y-108032701D01*
X163578301Y-108032409D01*
X163579742Y-108032407D01*
X163601391Y-108031497D01*
X163615242Y-108028571D01*
X163623896Y-108023100D01*
X163631637Y-108017363D01*
X163642577Y-108013791D01*
X163651730Y-108012485D01*
X163655882Y-108006761D01*
X163650250Y-107996935D01*
X163641537Y-107989647D01*
X163630396Y-107988464D01*
X163620571Y-107997833D01*
X163614116Y-108004249D01*
X163601909Y-108008472D01*
X163594405Y-108009481D01*
X163589890Y-108013053D01*
X163589760Y-108013744D01*
X163584376Y-108015736D01*
X163574209Y-108014587D01*
X163563558Y-108011169D01*
X163556725Y-108006349D01*
X163554035Y-108001638D01*
X163554259Y-107994656D01*
X163563862Y-107992513D01*
X163571547Y-107990769D01*
X163571781Y-107983943D01*
X163570936Y-107981340D01*
X163572505Y-107977456D01*
X163581851Y-107978725D01*
X163583039Y-107979012D01*
X163592542Y-107979413D01*
X163595209Y-107973683D01*
X163595950Y-107969791D01*
X163600296Y-107968433D01*
X163602499Y-107971547D01*
X163602054Y-107980715D01*
X163600646Y-107985271D01*
X163602372Y-107986141D01*
X163610129Y-107979843D01*
X163618361Y-107971016D01*
X163624352Y-107960956D01*
X163624936Y-107959640D01*
X163632938Y-107951944D01*
X163646058Y-107945249D01*
X163653839Y-107941803D01*
X163661817Y-107934716D01*
X163660391Y-107928360D01*
X163649316Y-107924321D01*
X163640387Y-107925313D01*
X163637764Y-107933630D01*
X163636493Y-107940632D01*
X163631162Y-107944565D01*
X163624466Y-107939320D01*
X163621332Y-107935658D01*
X163614316Y-107935219D01*
X163608626Y-107944266D01*
X163606084Y-107949473D01*
X163599269Y-107952574D01*
X163585660Y-107951525D01*
X163583553Y-107951174D01*
X163568441Y-107947119D01*
X163557973Y-107941901D01*
X163557398Y-107941436D01*
X163546692Y-107934311D01*
X163532706Y-107926526D01*
X163525671Y-107922556D01*
X163516944Y-107914964D01*
X163516955Y-107909500D01*
X163526129Y-107907403D01*
X163533964Y-107906278D01*
X163547151Y-107900964D01*
X163553338Y-107896345D01*
X163551999Y-107892769D01*
X163541760Y-107887923D01*
X163531201Y-107882436D01*
X163526941Y-107876247D01*
X163533217Y-107871150D01*
X163549994Y-107867230D01*
X163559875Y-107865391D01*
X163570928Y-107860614D01*
X163572624Y-107853009D01*
X163565783Y-107841224D01*
X163558878Y-107829992D01*
X163558290Y-107819867D01*
X163567128Y-107813376D01*
X163585900Y-107809726D01*
X163590354Y-107809260D01*
X163618174Y-107806179D01*
X163637260Y-107803427D01*
X163649249Y-107800434D01*
X163655783Y-107796630D01*
X163658500Y-107791446D01*
X163659042Y-107784312D01*
X163658724Y-107776425D01*
X163656064Y-107771676D01*
X163648976Y-107774112D01*
X163646402Y-107775181D01*
X163630896Y-107776908D01*
X163607751Y-107774897D01*
X163600787Y-107773824D01*
X163587791Y-107771209D01*
X163584048Y-107768887D01*
X163588560Y-107766417D01*
X163594219Y-107764264D01*
X163599758Y-107759221D01*
X163595287Y-107753389D01*
X163580581Y-107746199D01*
X163569048Y-107740981D01*
X163565747Y-107737340D01*
X163570350Y-107734265D01*
X163577073Y-107729583D01*
X163584567Y-107718575D01*
X163585578Y-107716365D01*
X163592231Y-107710097D01*
X163677883Y-107710097D01*
X163678386Y-107718395D01*
X163680545Y-107723853D01*
X163689171Y-107733779D01*
X163699933Y-107734763D01*
X163703592Y-107734936D01*
X163708037Y-107741468D01*
X163710057Y-107746728D01*
X163713907Y-107743989D01*
X163714182Y-107743474D01*
X163714246Y-107734141D01*
X163709692Y-107721450D01*
X163708334Y-107718936D01*
X163699571Y-107708676D01*
X163688206Y-107706495D01*
X163685144Y-107706824D01*
X163677883Y-107710097D01*
X163592231Y-107710097D01*
X163595228Y-107707274D01*
X163613801Y-107700509D01*
X163629486Y-107694890D01*
X163635918Y-107688677D01*
X163632395Y-107682933D01*
X163618707Y-107678600D01*
X163603188Y-107675870D01*
X163616024Y-107666853D01*
X163626245Y-107661349D01*
X163633312Y-107660588D01*
X163637127Y-107662260D01*
X163637623Y-107659572D01*
X163632802Y-107652463D01*
X163623782Y-107642995D01*
X163621984Y-107641289D01*
X163614205Y-107631208D01*
X163615405Y-107624430D01*
X163616233Y-107623723D01*
X163626730Y-107621121D01*
X163641385Y-107622864D01*
X163655790Y-107627980D01*
X163665538Y-107635495D01*
X163671377Y-107641433D01*
X163683508Y-107649681D01*
X163697349Y-107656633D01*
X163709463Y-107660631D01*
X163716415Y-107660021D01*
X163717415Y-107658215D01*
X163714054Y-107653725D01*
X163712205Y-107653018D01*
X163694549Y-107643298D01*
X163675571Y-107628945D01*
X163658920Y-107613016D01*
X163648243Y-107598567D01*
X163637891Y-107578275D01*
X163651751Y-107567372D01*
X163652682Y-107566658D01*
X163663744Y-107560530D01*
X163671635Y-107559929D01*
X163690817Y-107572408D01*
X163703062Y-107584740D01*
X163706916Y-107596582D01*
X163707275Y-107601984D01*
X163711446Y-107608065D01*
X163722874Y-107609519D01*
X163727998Y-107609689D01*
X163736611Y-107612645D01*
X163738832Y-107620892D01*
X163740861Y-107627902D01*
X163748673Y-107641111D01*
X163760342Y-107655601D01*
X163769603Y-107666587D01*
X163777006Y-107677829D01*
X163778575Y-107684237D01*
X163778558Y-107684264D01*
X163773319Y-107684522D01*
X163765221Y-107677455D01*
X163764859Y-107677024D01*
X163757696Y-107670501D01*
X163754967Y-107672598D01*
X163752073Y-107677165D01*
X163741492Y-107676486D01*
X163737121Y-107675530D01*
X163729122Y-107675433D01*
X163729111Y-107678587D01*
X163736125Y-107683480D01*
X163749204Y-107688601D01*
X163764221Y-107695420D01*
X163779519Y-107708437D01*
X163788818Y-107723932D01*
X163789597Y-107734141D01*
X163789988Y-107739258D01*
X163789450Y-107741751D01*
X163790890Y-107751058D01*
X163800772Y-107757843D01*
X163808972Y-107762576D01*
X163812634Y-107769928D01*
X163811536Y-107783246D01*
X163811106Y-107785781D01*
X163808312Y-107798446D01*
X163805772Y-107805001D01*
X163804142Y-107805396D01*
X163794978Y-107803652D01*
X163781213Y-107798907D01*
X163772735Y-107795565D01*
X163763800Y-107792778D01*
X163761175Y-107794344D01*
X163762591Y-107800453D01*
X163763454Y-107807018D01*
X163760305Y-107814194D01*
X163759365Y-107815200D01*
X163760584Y-107823028D01*
X163768800Y-107836051D01*
X163772809Y-107841227D01*
X163780578Y-107849482D01*
X163786783Y-107850860D01*
X163794701Y-107846710D01*
X163806303Y-107842705D01*
X163815237Y-107847450D01*
X163818623Y-107860593D01*
X163820290Y-107866367D01*
X163829261Y-107870168D01*
X163835907Y-107871374D01*
X163839802Y-107876749D01*
X163834494Y-107883520D01*
X163832825Y-107884740D01*
X163831326Y-107890298D01*
X163837910Y-107894868D01*
X163850539Y-107896765D01*
X163852142Y-107896790D01*
X163865062Y-107899620D01*
X163870691Y-107905926D01*
X163867354Y-107913993D01*
X163867172Y-107914151D01*
X163859310Y-107916345D01*
X163843601Y-107918197D01*
X163822658Y-107919632D01*
X163799091Y-107920574D01*
X163775515Y-107920949D01*
X163754542Y-107920681D01*
X163738784Y-107919696D01*
X163730853Y-107917918D01*
X163729907Y-107917364D01*
X163720023Y-107914073D01*
X163705586Y-107911136D01*
X163702118Y-107910616D01*
X163690944Y-107909842D01*
X163686578Y-107913183D01*
X163686012Y-107922366D01*
X163687149Y-107933556D01*
X163690545Y-107947299D01*
X163692832Y-107952793D01*
X163695376Y-107954276D01*
X163698508Y-107945969D01*
X163703912Y-107936542D01*
X163712219Y-107935089D01*
X163721171Y-107943888D01*
X163722397Y-107945451D01*
X163732246Y-107952496D01*
X163747217Y-107959659D01*
X163763716Y-107965599D01*
X163778150Y-107968974D01*
X163786924Y-107968442D01*
X163790119Y-107968990D01*
X163792026Y-107976664D01*
X163792780Y-107983144D01*
X163797509Y-107986020D01*
X163809314Y-107984343D01*
X163809535Y-107984295D01*
X163823577Y-107980121D01*
X163833251Y-107975290D01*
X163838833Y-107973121D01*
X163839410Y-107979684D01*
X163834712Y-107994827D01*
X163832212Y-108002547D01*
X163834095Y-108007522D01*
X163844335Y-108008472D01*
X163856150Y-108010152D01*
X163868908Y-108015611D01*
X163874602Y-108020373D01*
X163874483Y-108024913D01*
X163866082Y-108031569D01*
X163855266Y-108037437D01*
X163843935Y-108040388D01*
X163841979Y-108040466D01*
X163836780Y-108043704D01*
X163837716Y-108053686D01*
X163838390Y-108056450D01*
X163838886Y-108062482D01*
X163835319Y-108065566D01*
X163825498Y-108066633D01*
X163807231Y-108066611D01*
X163790950Y-108065986D01*
X163773610Y-108064282D01*
X163762769Y-108061949D01*
X163756031Y-108060431D01*
X163744980Y-108063390D01*
X163743937Y-108064163D01*
X163736897Y-108065031D01*
X163728687Y-108057000D01*
X163724497Y-108051821D01*
X163718692Y-108048309D01*
X163713138Y-108052598D01*
X163710263Y-108057835D01*
X163709883Y-108068527D01*
X163712892Y-108073067D01*
X163723569Y-108082874D01*
X163737962Y-108093034D01*
X163752294Y-108100999D01*
X163762787Y-108104220D01*
X163769264Y-108107241D01*
X163775802Y-108116820D01*
X163777894Y-108120639D01*
X163785056Y-108126892D01*
X163797690Y-108132777D01*
X163817066Y-108138723D01*
X163844455Y-108145161D01*
X163881125Y-108152522D01*
X163897098Y-108156069D01*
X163909588Y-108159905D01*
X163914371Y-108162891D01*
X163914366Y-108163104D01*
X163909474Y-108168635D01*
X163897913Y-108171344D01*
X163883362Y-108170345D01*
X163874622Y-108168682D01*
X163872828Y-108169981D01*
X163879795Y-108176296D01*
X163883398Y-108179406D01*
X163886215Y-108183115D01*
X163881523Y-108183717D01*
X163867827Y-108181915D01*
X163864156Y-108181387D01*
X163851762Y-108180404D01*
X163846387Y-108182726D01*
X163845220Y-108189267D01*
X163844695Y-108196663D01*
X163841598Y-108199176D01*
X163833648Y-108196721D01*
X163818567Y-108189302D01*
X163808744Y-108184624D01*
X163801205Y-108182637D01*
X163800538Y-108186142D01*
X163800128Y-108189652D01*
X163792816Y-108192583D01*
X163779750Y-108192742D01*
X163763593Y-108190398D01*
X163747006Y-108185820D01*
X163732651Y-108179278D01*
X163721393Y-108173579D01*
X163711224Y-108172474D01*
X163707989Y-108179328D01*
X163711948Y-108193957D01*
X163712311Y-108194806D01*
X163725136Y-108211537D01*
X163733389Y-108215927D01*
X163744982Y-108222094D01*
X163769501Y-108225203D01*
G37*
G36*
X163397176Y-113253023D02*
G01*
X163406821Y-113276794D01*
X163404806Y-113289119D01*
X163388959Y-113303587D01*
X163380742Y-113300564D01*
X163371097Y-113276794D01*
X163373112Y-113264468D01*
X163388959Y-113250000D01*
X163397176Y-113253023D01*
G37*
G36*
X164639553Y-113544726D02*
G01*
X164631196Y-113558572D01*
X164600175Y-113573171D01*
X164599646Y-113573306D01*
X164559452Y-113578055D01*
X164538204Y-113570391D01*
X164543978Y-113553186D01*
X164556537Y-113544645D01*
X164590737Y-113534240D01*
X164623774Y-113533793D01*
X164639553Y-113544726D01*
G37*
G36*
X164721521Y-113978893D02*
G01*
X164666398Y-114046457D01*
X164599556Y-114109822D01*
X164550612Y-114150661D01*
X164501875Y-114192025D01*
X164469620Y-114220207D01*
X164432182Y-114250975D01*
X164347995Y-114301620D01*
X164266986Y-114327794D01*
X164262394Y-114328524D01*
X164220505Y-114337332D01*
X164198484Y-114345773D01*
X164184850Y-114349614D01*
X164150017Y-114347339D01*
X164112685Y-114342845D01*
X164052574Y-114337942D01*
X163982828Y-114333711D01*
X163951232Y-114331775D01*
X163880698Y-114322396D01*
X163822784Y-114303335D01*
X163760582Y-114269722D01*
X163743839Y-114259352D01*
X163604581Y-114154429D01*
X163494904Y-114035009D01*
X163491062Y-114029769D01*
X163454718Y-113973808D01*
X163417786Y-113907811D01*
X163385242Y-113841799D01*
X163362066Y-113785794D01*
X163353234Y-113749816D01*
X163349528Y-113712881D01*
X163323084Y-113632051D01*
X163276867Y-113551529D01*
X163217604Y-113484475D01*
X163163532Y-113429125D01*
X163130559Y-113368765D01*
X163129923Y-113328122D01*
X163174613Y-113328122D01*
X163174704Y-113334822D01*
X163179958Y-113377846D01*
X163190809Y-113400799D01*
X163198833Y-113399235D01*
X163197657Y-113375060D01*
X163197894Y-113349250D01*
X163214952Y-113339574D01*
X163238186Y-113358881D01*
X163239418Y-113360505D01*
X163266531Y-113370967D01*
X163310689Y-113371399D01*
X163355038Y-113371521D01*
X163371097Y-113386350D01*
X163369928Y-113393283D01*
X163347489Y-113414283D01*
X163306340Y-113423879D01*
X163259458Y-113418353D01*
X163253671Y-113416585D01*
X163236681Y-113414280D01*
X163243384Y-113426777D01*
X163275477Y-113458319D01*
X163300044Y-113485458D01*
X163328459Y-113531916D01*
X163356392Y-113598167D01*
X163387506Y-113691847D01*
X163421797Y-113790752D01*
X163465789Y-113892281D01*
X163509918Y-113970162D01*
X163564029Y-114040065D01*
X163648852Y-114127375D01*
X163739894Y-114201438D01*
X163826457Y-114252706D01*
X163849993Y-114261743D01*
X163920199Y-114278704D01*
X163991365Y-114285614D01*
X164043082Y-114285178D01*
X164070206Y-114280394D01*
X164075828Y-114266859D01*
X164067279Y-114240188D01*
X164063960Y-114230025D01*
X164053906Y-114176804D01*
X164049859Y-114116207D01*
X164047058Y-114074219D01*
X164040100Y-114052524D01*
X164075147Y-114052524D01*
X164078721Y-114122379D01*
X164091974Y-114192581D01*
X164115111Y-114254747D01*
X164116505Y-114257457D01*
X164122961Y-114266859D01*
X164136141Y-114286052D01*
X164162539Y-114298850D01*
X164204800Y-114297535D01*
X164272029Y-114283793D01*
X164273152Y-114283525D01*
X164330571Y-114260483D01*
X164399932Y-114218980D01*
X164475196Y-114164346D01*
X164550320Y-114101914D01*
X164619266Y-114037014D01*
X164675992Y-113974978D01*
X164714457Y-113921137D01*
X164728621Y-113880821D01*
X164727220Y-113875975D01*
X164703808Y-113857072D01*
X164660690Y-113840399D01*
X164632969Y-113830249D01*
X164573314Y-113798058D01*
X164516618Y-113756933D01*
X164488041Y-113733773D01*
X164445827Y-113708330D01*
X164422135Y-113710102D01*
X164418417Y-113714720D01*
X164416403Y-113747664D01*
X164440615Y-113790520D01*
X164487369Y-113836172D01*
X164518124Y-113863165D01*
X164530813Y-113885614D01*
X164511510Y-113893038D01*
X164497293Y-113886845D01*
X164463414Y-113860547D01*
X164422005Y-113820634D01*
X164413161Y-113811420D01*
X164375606Y-113776040D01*
X164353796Y-113765278D01*
X164342410Y-113776161D01*
X164342485Y-113792707D01*
X164358693Y-113832241D01*
X164387829Y-113877827D01*
X164422084Y-113917899D01*
X164453647Y-113940891D01*
X164464423Y-113946606D01*
X164478551Y-113966398D01*
X164476061Y-113978014D01*
X164456797Y-113980065D01*
X164420284Y-113954702D01*
X164368676Y-113903166D01*
X164343026Y-113876605D01*
X164298978Y-113841307D01*
X164269759Y-113834288D01*
X164269164Y-113834526D01*
X164252319Y-113858261D01*
X164253886Y-113900080D01*
X164271614Y-113949194D01*
X164303252Y-113994817D01*
X164305118Y-113996829D01*
X164327751Y-114027718D01*
X164331091Y-114046452D01*
X164325885Y-114047939D01*
X164303179Y-114033824D01*
X164272634Y-114001120D01*
X164241695Y-113958492D01*
X164217808Y-113914606D01*
X164217569Y-113914051D01*
X164203424Y-113887411D01*
X164192049Y-113886206D01*
X164180555Y-113913702D01*
X164166057Y-113973166D01*
X164159097Y-114000414D01*
X164149859Y-114012202D01*
X164136805Y-113995352D01*
X164128976Y-113975024D01*
X164130326Y-113946483D01*
X164133113Y-113939724D01*
X164122990Y-113928763D01*
X164120476Y-113928891D01*
X164096227Y-113947395D01*
X164081050Y-113991401D01*
X164075147Y-114052524D01*
X164040100Y-114052524D01*
X164034050Y-114033658D01*
X164013091Y-114021804D01*
X163987128Y-114042138D01*
X163962880Y-114067322D01*
X163948118Y-114066919D01*
X163950670Y-114038920D01*
X163948886Y-114010134D01*
X163916360Y-113985812D01*
X163888131Y-113975690D01*
X163866218Y-113983114D01*
X163844655Y-114017666D01*
X163825612Y-114063637D01*
X163817651Y-114101139D01*
X163813739Y-114120686D01*
X163797357Y-114112098D01*
X163790037Y-114099775D01*
X163792645Y-114068026D01*
X163814903Y-114015326D01*
X163821876Y-114000626D01*
X163839337Y-113949569D01*
X163835681Y-113921786D01*
X163815992Y-113914235D01*
X163778994Y-113923016D01*
X163742474Y-113947636D01*
X163719754Y-113981260D01*
X163709422Y-114003299D01*
X163691412Y-114018074D01*
X163679751Y-114014902D01*
X163675546Y-113993523D01*
X163693238Y-113957766D01*
X163730274Y-113914444D01*
X163744872Y-113899163D01*
X163770181Y-113864809D01*
X163775356Y-113843272D01*
X163758981Y-113834281D01*
X163720019Y-113835052D01*
X163674405Y-113847773D01*
X163636337Y-113869741D01*
X163616106Y-113882247D01*
X163596344Y-113878364D01*
X163597122Y-113856243D01*
X163626510Y-113831805D01*
X163680213Y-113811934D01*
X163713391Y-113797394D01*
X163724768Y-113771593D01*
X163710094Y-113750280D01*
X163671391Y-113731612D01*
X163623586Y-113725118D01*
X163581205Y-113734547D01*
X163558109Y-113743544D01*
X163535983Y-113742360D01*
X163531878Y-113735819D01*
X163540827Y-113716235D01*
X163572959Y-113699304D01*
X163619273Y-113690618D01*
X163621780Y-113690470D01*
X163659506Y-113684323D01*
X163674961Y-113674227D01*
X163674753Y-113645835D01*
X163662328Y-113629918D01*
X163629091Y-113610035D01*
X163610802Y-113598989D01*
X163595064Y-113577206D01*
X163601813Y-113562408D01*
X163630670Y-113565280D01*
X163646743Y-113568250D01*
X163655269Y-113555872D01*
X163652102Y-113520701D01*
X163637599Y-113457134D01*
X163606389Y-113381976D01*
X163553525Y-113310663D01*
X163486851Y-113251178D01*
X163413522Y-113208693D01*
X163340690Y-113188378D01*
X163275510Y-113195404D01*
X163270979Y-113197191D01*
X163241922Y-113218138D01*
X163241161Y-113251054D01*
X163243964Y-113263076D01*
X163240623Y-113281914D01*
X163212952Y-113277624D01*
X163188765Y-113273268D01*
X163177104Y-113287028D01*
X163174613Y-113328122D01*
X163129923Y-113328122D01*
X163129620Y-113308733D01*
X163159467Y-113243871D01*
X163168395Y-113230984D01*
X163230823Y-113172858D01*
X163305909Y-113145946D01*
X163387966Y-113151235D01*
X163471311Y-113189712D01*
X163495104Y-113206093D01*
X163570663Y-113266220D01*
X163622159Y-113326849D01*
X163657009Y-113398592D01*
X163682629Y-113492062D01*
X163692020Y-113532787D01*
X163736322Y-113676389D01*
X163792510Y-113790706D01*
X163862500Y-113879868D01*
X163900903Y-113915323D01*
X163959698Y-113952476D01*
X164010045Y-113958110D01*
X164055313Y-113933154D01*
X164070464Y-113920378D01*
X164118094Y-113885088D01*
X164172466Y-113849080D01*
X164198602Y-113831927D01*
X164264458Y-113783504D01*
X164324295Y-113733710D01*
X164354845Y-113707321D01*
X164399327Y-113673280D01*
X164430055Y-113655162D01*
X164449314Y-113645239D01*
X164451385Y-113627451D01*
X164434604Y-113590753D01*
X164408228Y-113554216D01*
X164362428Y-113505664D01*
X164308013Y-113457040D01*
X164203667Y-113362177D01*
X164088685Y-113222072D01*
X164007218Y-113070621D01*
X163958730Y-112906761D01*
X163947767Y-112785584D01*
X163978410Y-112785584D01*
X164054324Y-112785858D01*
X164069725Y-112786196D01*
X164121960Y-112792009D01*
X164158190Y-112802914D01*
X164171889Y-112816155D01*
X164156531Y-112828981D01*
X164148933Y-112830964D01*
X164107698Y-112834681D01*
X164053767Y-112833868D01*
X164022144Y-112832156D01*
X163991566Y-112834667D01*
X163983227Y-112849570D01*
X163988666Y-112883286D01*
X163996512Y-112915713D01*
X164013229Y-112946981D01*
X164042700Y-112952859D01*
X164094708Y-112938437D01*
X164112008Y-112932869D01*
X164155591Y-112922514D01*
X164179604Y-112922461D01*
X164182542Y-112924510D01*
X164185843Y-112942518D01*
X164158000Y-112962726D01*
X164102691Y-112982271D01*
X164068100Y-112992817D01*
X164038982Y-113011342D01*
X164037306Y-113040614D01*
X164059249Y-113090128D01*
X164078555Y-113123126D01*
X164100577Y-113139242D01*
X164131947Y-113132897D01*
X164182804Y-113105339D01*
X164216096Y-113087127D01*
X164239864Y-113080766D01*
X164246343Y-113093595D01*
X164245148Y-113099244D01*
X164223686Y-113125592D01*
X164183825Y-113153008D01*
X164170667Y-113160308D01*
X164135585Y-113182506D01*
X164121705Y-113196010D01*
X164121717Y-113196185D01*
X164132173Y-113215914D01*
X164156089Y-113249577D01*
X164190077Y-113293809D01*
X164261559Y-113253634D01*
X164284198Y-113241922D01*
X164326000Y-113228033D01*
X164343292Y-113233354D01*
X164332603Y-113253993D01*
X164290463Y-113286056D01*
X164257265Y-113308700D01*
X164240498Y-113330184D01*
X164247883Y-113350099D01*
X164286541Y-113372225D01*
X164338891Y-113368606D01*
X164394114Y-113339311D01*
X164395167Y-113338487D01*
X164432414Y-113313810D01*
X164459041Y-113303587D01*
X164473489Y-113306018D01*
X164477002Y-113321456D01*
X164453253Y-113347805D01*
X164404952Y-113381175D01*
X164374098Y-113399956D01*
X164348959Y-113419120D01*
X164348567Y-113431925D01*
X164369067Y-113445247D01*
X164376655Y-113449008D01*
X164413579Y-113455171D01*
X164459395Y-113438222D01*
X164461245Y-113437258D01*
X164500555Y-113413199D01*
X164523128Y-113393025D01*
X164523149Y-113392990D01*
X164545744Y-113377502D01*
X164572687Y-113377350D01*
X164585724Y-113392644D01*
X164581834Y-113400925D01*
X164556012Y-113426554D01*
X164513974Y-113457735D01*
X164484848Y-113477418D01*
X164459586Y-113498721D01*
X164458173Y-113513465D01*
X164476613Y-113529303D01*
X164495608Y-113548752D01*
X164501680Y-113589031D01*
X164498553Y-113607568D01*
X164506259Y-113624453D01*
X164534333Y-113637123D01*
X164590189Y-113650748D01*
X164602194Y-113653677D01*
X164635917Y-113668512D01*
X164638418Y-113682402D01*
X164613107Y-113690572D01*
X164563396Y-113688245D01*
X164487482Y-113676796D01*
X164550000Y-113730701D01*
X164582304Y-113756723D01*
X164645304Y-113795355D01*
X164695453Y-113808665D01*
X164728387Y-113795078D01*
X164739513Y-113776536D01*
X164755754Y-113720449D01*
X164762308Y-113651247D01*
X164757181Y-113583584D01*
X164752572Y-113568405D01*
X164728819Y-113518100D01*
X164689002Y-113447691D01*
X164636740Y-113362942D01*
X164575648Y-113269618D01*
X164509344Y-113173486D01*
X164441444Y-113080310D01*
X164416725Y-113045271D01*
X164360313Y-112942861D01*
X164323561Y-112839080D01*
X164307793Y-112740663D01*
X164314332Y-112654344D01*
X164344501Y-112586855D01*
X164367357Y-112559089D01*
X164437687Y-112500102D01*
X164522737Y-112466973D01*
X164630379Y-112456103D01*
X164682187Y-112457060D01*
X164776456Y-112469940D01*
X164862214Y-112501459D01*
X164954752Y-112556343D01*
X164994024Y-112585410D01*
X165043058Y-112634229D01*
X165080228Y-112692857D01*
X165107242Y-112766447D01*
X165125806Y-112860149D01*
X165137629Y-112979117D01*
X165144419Y-113128502D01*
X165146784Y-113201833D01*
X165150653Y-113276077D01*
X165156703Y-113328897D01*
X165166491Y-113368522D01*
X165181571Y-113403177D01*
X165203497Y-113441090D01*
X165256705Y-113511329D01*
X165332375Y-113568181D01*
X165426147Y-113598167D01*
X165543010Y-113603678D01*
X165578745Y-113601639D01*
X165642578Y-113593548D01*
X165689064Y-113577907D01*
X165731020Y-113551134D01*
X165771276Y-113513023D01*
X165827412Y-113435444D01*
X165872270Y-113344983D01*
X165898149Y-113255272D01*
X165901622Y-113224945D01*
X165896035Y-113115401D01*
X165867530Y-112996043D01*
X165819761Y-112876611D01*
X165756383Y-112766845D01*
X165681047Y-112676485D01*
X165668990Y-112664846D01*
X165631105Y-112629138D01*
X165614190Y-112616593D01*
X165614561Y-112625701D01*
X165628535Y-112654951D01*
X165631379Y-112660484D01*
X165655554Y-112700567D01*
X165675189Y-112722988D01*
X165685014Y-112734798D01*
X165693178Y-112769218D01*
X165703606Y-112796862D01*
X165742299Y-112824562D01*
X165760822Y-112832716D01*
X165775721Y-112844464D01*
X165760161Y-112852223D01*
X165740833Y-112864490D01*
X165728903Y-112902787D01*
X165728961Y-112907359D01*
X165737736Y-112936836D01*
X165767123Y-112941668D01*
X165791566Y-112943586D01*
X165813267Y-112959740D01*
X165809410Y-112974751D01*
X165777523Y-112982068D01*
X165764472Y-112982498D01*
X165741742Y-112992870D01*
X165742109Y-113025238D01*
X165753797Y-113052778D01*
X165793219Y-113079165D01*
X165810282Y-113085070D01*
X165832914Y-113102938D01*
X165831940Y-113119206D01*
X165804817Y-113124031D01*
X165788333Y-113122821D01*
X165751230Y-113122908D01*
X165734933Y-113137498D01*
X165729309Y-113168886D01*
X165735157Y-113200112D01*
X165752282Y-113214276D01*
X165774768Y-113219643D01*
X165806747Y-113237482D01*
X165830762Y-113259130D01*
X165834478Y-113275414D01*
X165833113Y-113276374D01*
X165807642Y-113276500D01*
X165765876Y-113265621D01*
X165733049Y-113256002D01*
X165701297Y-113258331D01*
X165670856Y-113282246D01*
X165648800Y-113306937D01*
X165644770Y-113330358D01*
X165663573Y-113364319D01*
X165688438Y-113409199D01*
X165691677Y-113431099D01*
X165675113Y-113426397D01*
X165641061Y-113392223D01*
X165606230Y-113357410D01*
X165575774Y-113346948D01*
X165555946Y-113370349D01*
X165545547Y-113428063D01*
X165545072Y-113432998D01*
X165534526Y-113474753D01*
X165517513Y-113496108D01*
X165508359Y-113496999D01*
X165501425Y-113481177D01*
X165506819Y-113437473D01*
X165510794Y-113390127D01*
X165498068Y-113357614D01*
X165467360Y-113355634D01*
X165420450Y-113385261D01*
X165416322Y-113388707D01*
X165370482Y-113421099D01*
X165344277Y-113425357D01*
X165335935Y-113401829D01*
X165337551Y-113389551D01*
X165350383Y-113375036D01*
X165365541Y-113370277D01*
X165397300Y-113351294D01*
X165404152Y-113346025D01*
X165420040Y-113322102D01*
X165408961Y-113288672D01*
X165392867Y-113264200D01*
X165372956Y-113260257D01*
X165336264Y-113276623D01*
X165334784Y-113277381D01*
X165295617Y-113291221D01*
X165274082Y-113286801D01*
X165273728Y-113286154D01*
X165281842Y-113267600D01*
X165313259Y-113246545D01*
X165346386Y-113223067D01*
X165368380Y-113173954D01*
X165368758Y-113170605D01*
X165369102Y-113134632D01*
X165354438Y-113127883D01*
X165318276Y-113146846D01*
X165287095Y-113159645D01*
X165261945Y-113147431D01*
X165251004Y-113135081D01*
X165253192Y-113125487D01*
X165276338Y-113115008D01*
X165327004Y-113098733D01*
X165346120Y-113078033D01*
X165353797Y-113027731D01*
X165353784Y-113021029D01*
X165350771Y-112983330D01*
X165336007Y-112971256D01*
X165300211Y-112975816D01*
X165261898Y-112978504D01*
X165246624Y-112968186D01*
X165246665Y-112967453D01*
X165263066Y-112949261D01*
X165300211Y-112931158D01*
X165329244Y-112918473D01*
X165349204Y-112893980D01*
X165353797Y-112848572D01*
X165353797Y-112784667D01*
X165302475Y-112811206D01*
X165275138Y-112823221D01*
X165240414Y-112825478D01*
X165228762Y-112800709D01*
X165229725Y-112797747D01*
X165250957Y-112780265D01*
X165291279Y-112759942D01*
X165299343Y-112756453D01*
X165342062Y-112728550D01*
X165351192Y-112695169D01*
X165328617Y-112650803D01*
X165313945Y-112632434D01*
X165296062Y-112626827D01*
X165269159Y-112647389D01*
X165242158Y-112667354D01*
X165213959Y-112678411D01*
X165194489Y-112668781D01*
X165198838Y-112648437D01*
X165224296Y-112630422D01*
X165236338Y-112625950D01*
X165277248Y-112603355D01*
X165287037Y-112575165D01*
X165269377Y-112533484D01*
X165254526Y-112509283D01*
X165232954Y-112486575D01*
X165210176Y-112492610D01*
X165175175Y-112526583D01*
X165171456Y-112530482D01*
X165139582Y-112559393D01*
X165118475Y-112571238D01*
X165114098Y-112570912D01*
X165103559Y-112557377D01*
X165116952Y-112529025D01*
X165151353Y-112492834D01*
X165198979Y-112451868D01*
X165164749Y-112406090D01*
X165122665Y-112356277D01*
X165091284Y-112337916D01*
X165065632Y-112350597D01*
X165040666Y-112393820D01*
X165031792Y-112411730D01*
X165006419Y-112449160D01*
X164984910Y-112464065D01*
X164982396Y-112464037D01*
X164963641Y-112458030D01*
X164968037Y-112437699D01*
X164996554Y-112397491D01*
X165010186Y-112378801D01*
X165029897Y-112331358D01*
X165016533Y-112293960D01*
X164969154Y-112261959D01*
X164921700Y-112241072D01*
X164889204Y-112235054D01*
X164874700Y-112250672D01*
X164871245Y-112289909D01*
X164869346Y-112318602D01*
X164858894Y-112362350D01*
X164842969Y-112388699D01*
X164825769Y-112388545D01*
X164825421Y-112388166D01*
X164822840Y-112363797D01*
X164832375Y-112323298D01*
X164833987Y-112318553D01*
X164844305Y-112254617D01*
X164825832Y-112211618D01*
X164778393Y-112189118D01*
X164740680Y-112182165D01*
X164706809Y-112180608D01*
X164695620Y-112192726D01*
X164699876Y-112221507D01*
X164700463Y-112223951D01*
X164703551Y-112268854D01*
X164694558Y-112305813D01*
X164676664Y-112321168D01*
X164675220Y-112320759D01*
X164666853Y-112300731D01*
X164662515Y-112259861D01*
X164658731Y-112212889D01*
X164643760Y-112178980D01*
X164609713Y-112163863D01*
X164548411Y-112160408D01*
X164459619Y-112160408D01*
X164497612Y-112211796D01*
X164500985Y-112216536D01*
X164523008Y-112260437D01*
X164527751Y-112296641D01*
X164523461Y-112311635D01*
X164515312Y-112314229D01*
X164501274Y-112285443D01*
X164465821Y-112224543D01*
X164417841Y-112191480D01*
X164358387Y-112191938D01*
X164286037Y-112225522D01*
X164245352Y-112251192D01*
X164299434Y-112296699D01*
X164309155Y-112305310D01*
X164340766Y-112340937D01*
X164353516Y-112368712D01*
X164350548Y-112376830D01*
X164329576Y-112371623D01*
X164286928Y-112340330D01*
X164264775Y-112322894D01*
X164225274Y-112296028D01*
X164201122Y-112285443D01*
X164181154Y-112295828D01*
X164147029Y-112323864D01*
X164109858Y-112359626D01*
X164079978Y-112393126D01*
X164067721Y-112414375D01*
X164081359Y-112425159D01*
X164116842Y-112436698D01*
X164142011Y-112443960D01*
X164188120Y-112466007D01*
X164217557Y-112491754D01*
X164221441Y-112514590D01*
X164218252Y-112517444D01*
X164190359Y-112516356D01*
X164144427Y-112497917D01*
X164110647Y-112481601D01*
X164064945Y-112466611D01*
X164035749Y-112472267D01*
X164014763Y-112498615D01*
X164009629Y-112508679D01*
X163995504Y-112560007D01*
X164012504Y-112595118D01*
X164061899Y-112617209D01*
X164072240Y-112620088D01*
X164114324Y-112638155D01*
X164135461Y-112657958D01*
X164134802Y-112672792D01*
X164110024Y-112672203D01*
X164054807Y-112656098D01*
X164010696Y-112646761D01*
X163988009Y-112651555D01*
X163979623Y-112672646D01*
X163978410Y-112712199D01*
X163978410Y-112785584D01*
X163947767Y-112785584D01*
X163942686Y-112729426D01*
X163950959Y-112613933D01*
X163987683Y-112478730D01*
X164054297Y-112362925D01*
X164151374Y-112265595D01*
X164279486Y-112185815D01*
X164335048Y-112160951D01*
X164390378Y-112144518D01*
X164455311Y-112135389D01*
X164542882Y-112130842D01*
X164558894Y-112130386D01*
X164642027Y-112130274D01*
X164708386Y-112136640D01*
X164774144Y-112151959D01*
X164855470Y-112178707D01*
X164914451Y-112201051D01*
X165062074Y-112275211D01*
X165182409Y-112367134D01*
X165279677Y-112479815D01*
X165327545Y-112555464D01*
X165365722Y-112639238D01*
X165390180Y-112731176D01*
X165403228Y-112840247D01*
X165407172Y-112975421D01*
X165410135Y-113089477D01*
X165420579Y-113184792D01*
X165439558Y-113251721D01*
X165468114Y-113293791D01*
X165507289Y-113314532D01*
X165545969Y-113316447D01*
X165600957Y-113290911D01*
X165640769Y-113254991D01*
X165676618Y-113197200D01*
X165695907Y-113120681D01*
X165701446Y-113017792D01*
X165700434Y-112967622D01*
X165693153Y-112898665D01*
X165675330Y-112835442D01*
X165642860Y-112759881D01*
X165605547Y-112690964D01*
X165558199Y-112620427D01*
X165513163Y-112567862D01*
X165478070Y-112533749D01*
X165459119Y-112511017D01*
X165462024Y-112501630D01*
X165484331Y-112499789D01*
X165521552Y-112509003D01*
X165580623Y-112540863D01*
X165648733Y-112590680D01*
X165718239Y-112653433D01*
X165730749Y-112666289D01*
X165812708Y-112771908D01*
X165876143Y-112892312D01*
X165919132Y-113020140D01*
X165939756Y-113148027D01*
X165937422Y-113224945D01*
X165936097Y-113268610D01*
X165906233Y-113374528D01*
X165856894Y-113468345D01*
X165790063Y-113552833D01*
X165711289Y-113607510D01*
X165615696Y-113635552D01*
X165498409Y-113640133D01*
X165383428Y-113626967D01*
X165294220Y-113597247D01*
X165224401Y-113547524D01*
X165167025Y-113474324D01*
X165156690Y-113457401D01*
X165139290Y-113425195D01*
X165126758Y-113391932D01*
X165117815Y-113350685D01*
X165111181Y-113294526D01*
X165105579Y-113216529D01*
X165099729Y-113109767D01*
X165095658Y-113036140D01*
X165087747Y-112926304D01*
X165077988Y-112842734D01*
X165064951Y-112779328D01*
X165047208Y-112729979D01*
X165023330Y-112688583D01*
X164991888Y-112649034D01*
X164986586Y-112643064D01*
X164917859Y-112579427D01*
X164842366Y-112538236D01*
X164751134Y-112515971D01*
X164635187Y-112509112D01*
X164479234Y-112508721D01*
X164412818Y-112575093D01*
X164377707Y-112613785D01*
X164353702Y-112656551D01*
X164348136Y-112702686D01*
X164349014Y-112721789D01*
X164364091Y-112815604D01*
X164399100Y-112911360D01*
X164456931Y-113015544D01*
X164540473Y-113134646D01*
X164623297Y-113248421D01*
X164708128Y-113379642D01*
X164766648Y-113492217D01*
X164799738Y-113588256D01*
X164808279Y-113669864D01*
X164793151Y-113739149D01*
X164790266Y-113746433D01*
X164776962Y-113797568D01*
X164776620Y-113837877D01*
X164777666Y-113860263D01*
X164771030Y-113880821D01*
X164760189Y-113914403D01*
X164721521Y-113978893D01*
G37*
G36*
X163972424Y-114119024D02*
G01*
X163978410Y-114153094D01*
X163973793Y-114181440D01*
X163960548Y-114187764D01*
X163950888Y-114176249D01*
X163942686Y-114142055D01*
X163945892Y-114122298D01*
X163960548Y-114107384D01*
X163972424Y-114119024D01*
G37*
D12*
X149210000Y-114530000D03*
X151010000Y-114530000D03*
X159360000Y-114530000D03*
X161160000Y-114530000D03*
X169510000Y-114530000D03*
X171310000Y-114530000D03*
D13*
X143940000Y-98985000D03*
X143940000Y-101285000D03*
X143940000Y-103585000D03*
X143940000Y-108585000D03*
X143940000Y-110885000D03*
X143940000Y-113185000D03*
X176580000Y-113185000D03*
X176580000Y-110885000D03*
X176580000Y-108585000D03*
X176580000Y-103585000D03*
X176580000Y-101285000D03*
X176580000Y-98985000D03*
D12*
X149210000Y-97640000D03*
X151010000Y-97640000D03*
X159360000Y-97640000D03*
X161160000Y-97640000D03*
X169510000Y-97640000D03*
X171310000Y-97640000D03*
D14*
X145021778Y-114723222D03*
X145021778Y-105073222D03*
X147561778Y-114723222D03*
X147561778Y-105073222D03*
X152641778Y-114723222D03*
X152641778Y-105073222D03*
X155181778Y-114723222D03*
X155181778Y-105073222D03*
X157721778Y-114723222D03*
X157721778Y-105073222D03*
X162801778Y-114723222D03*
X162801778Y-105073222D03*
X165341778Y-114723222D03*
X165341778Y-105073222D03*
X167881778Y-114723222D03*
X167881778Y-105073222D03*
X172961778Y-114723222D03*
X172961778Y-105073222D03*
X175511778Y-114723222D03*
X175511778Y-105073222D03*
X175511778Y-107103222D03*
X175511778Y-97453222D03*
X172961778Y-107103222D03*
X172961778Y-97453222D03*
X167881778Y-107103222D03*
X167881778Y-97453222D03*
X165341778Y-107103222D03*
X165341778Y-97453222D03*
X162801778Y-107103222D03*
X162801778Y-97453222D03*
X157721778Y-107103222D03*
X157721778Y-97453222D03*
X155181778Y-107103222D03*
X155181778Y-97453222D03*
X152641778Y-107103222D03*
X152641778Y-97453222D03*
X147561778Y-107103222D03*
X147561778Y-97453222D03*
X145021778Y-107103222D03*
X145021778Y-97453222D03*
D15*
X161090000Y-105365000D03*
X161090000Y-107015000D03*
D16*
X147618222Y-100571778D03*
D17*
X150158222Y-100571778D03*
X152698222Y-100571778D03*
X155238222Y-100571778D03*
X157778222Y-100571778D03*
X160318222Y-100571778D03*
X162858222Y-100571778D03*
X165398222Y-100571778D03*
X167938222Y-100571778D03*
X170478222Y-100571778D03*
X173018222Y-100571778D03*
D18*
X152840000Y-110265000D03*
X152840000Y-108615000D03*
D19*
X147715000Y-103340000D03*
X146165000Y-103340000D03*
D18*
X164840000Y-110265000D03*
X164840000Y-108615000D03*
D20*
X162290000Y-110827500D03*
X160390000Y-110827500D03*
X161340000Y-108952500D03*
D21*
X149290000Y-106965000D03*
X149290000Y-105415000D03*
D18*
X146840000Y-110265000D03*
X146840000Y-108615000D03*
D20*
X150290000Y-110827500D03*
X148390000Y-110827500D03*
X149340000Y-108952500D03*
D22*
X165915000Y-103340000D03*
X167565000Y-103340000D03*
D20*
X168290000Y-110827500D03*
X166390000Y-110827500D03*
X167340000Y-108952500D03*
X156290000Y-110827500D03*
X154390000Y-110827500D03*
X155340000Y-108952500D03*
D18*
X158840000Y-110265000D03*
X158840000Y-108615000D03*
X170840000Y-110265000D03*
X170840000Y-108615000D03*
D15*
X159490000Y-105365000D03*
X159490000Y-107015000D03*
D23*
X157490000Y-103390000D03*
X155840000Y-103390000D03*
D20*
X174290000Y-110827500D03*
X172390000Y-110827500D03*
X173340000Y-108952500D03*
D18*
X169590000Y-107015000D03*
X169590000Y-105365000D03*
D21*
X150890000Y-106965000D03*
X150890000Y-105415000D03*
D18*
X171190000Y-107015000D03*
X171190000Y-105365000D03*
M02*
