M48
; DRILL file {KiCad (6.0.4-0)} date Monday, May 02, 2022 at 09:47:53 PM
; FORMAT={-:-/ absolute / metric / decimal}
; #@! TF.CreationDate,2022-05-02T21:47:53-07:00
; #@! TF.GenerationSoftware,Kicad,Pcbnew,(6.0.4-0)
; #@! TF.FileFunction,Plated,1,4,PTH
FMAT,2
METRIC
; #@! TA.AperFunction,Plated,PTH,ViaDrill
T1C0.200
; #@! TA.AperFunction,Plated,PTH,ViaDrill
T2C0.400
; #@! TA.AperFunction,Plated,PTH,ComponentDrill
T3C0.610
; #@! TA.AperFunction,Plated,PTH,ComponentDrill
T4C1.000
%
G90
G05
T1
X143.04Y-115.49
X143.09Y-96.74
X143.09Y-104.79
X143.455Y-107.115
X143.855Y-105.69
X143.88Y-97.59
X144.38Y-106.22
X145.36Y-109.73
X145.709Y-110.377
X145.79Y-108.14
X145.81Y-109.09
X145.89Y-98.84
X145.936Y-104.308
X146.305Y-97.04
X146.49Y-107.59
X146.571Y-114.892
X146.94Y-102.59
X147.154Y-111.181
X147.74Y-98.89
X147.89Y-112.12
X148.49Y-108.664
X150.88Y-102.99
X150.905Y-108.015
X150.93Y-104.115
X151.74Y-102.59
X151.74Y-109.74
X151.79Y-108.54
X151.88Y-112.015
X153.39Y-103.99
X153.455Y-99.14
X153.84Y-114.79
X153.955Y-97.165
X155.39Y-99.14
X155.98Y-102.165
X156.23Y-115.06
X156.34Y-96.79
X156.394Y-97.536
X156.49Y-104.14
X156.505Y-106.615
X156.53Y-105.39
X156.59Y-98.39
X156.69Y-103.44
X156.81Y-115.46
X157.27Y-98.7
X157.39Y-109.19
X157.51Y-111.285
X157.655Y-102.215
X157.94Y-108.19
X158.08Y-98.67
X158.657Y-109.384
X158.74Y-111.29
X159.49Y-106.24
X159.89Y-109.74
X160.49Y-108.04
X161.48Y-112.76
X161.49Y-103.44
X162.39Y-98.39
X163.39Y-102.24
X163.44Y-98.39
X163.605Y-112.79
X163.73Y-106.09
X163.78Y-110.99
X164.08Y-114.49
X164.24Y-98.34
X164.84Y-109.39
X165.46Y-106.15
X165.717Y-108.769
X166.24Y-105.98
X166.58Y-114.515
X166.59Y-102.79
X166.68Y-97.79
X166.705Y-101.49
X168.13Y-112.815
X168.29Y-98.44
X168.454Y-106.251
X168.94Y-103.24
X169.09Y-109.94
X169.5Y-112.78
X169.705Y-110.89
X170.09Y-103.94
X170.23Y-111.49
X170.59Y-102.79
X170.99Y-109.39
X171.249Y-104.459
X171.56Y-111.29
X172.011Y-107.608
X172.68Y-102.64
X173.624Y-103.919
X173.64Y-99.19
X173.69Y-102.44
X174.19Y-115.04
X174.255Y-97.115
X174.69Y-113.29
X174.85Y-99.07
X174.86Y-108.51
X174.87Y-103.31
X174.87Y-104.21
X175.12Y-102.41
X176.83Y-114.515
X176.905Y-97.365
X177.25Y-104.92
T2
X143.74Y-114.74
X145.88Y-101.71
X149.29Y-103.34
X149.29Y-110.8
X150.37Y-112.18
X154.29Y-112.39
X155.34Y-110.84
X160.24Y-112.26
X161.34Y-110.79
X164.94Y-98.94
X166.34Y-112.34
X167.39Y-110.84
X172.38Y-112.21
X173.34Y-110.84
X174.14Y-98.39
X174.32Y-112.27
X174.71Y-100.95
T3
X145.022Y-97.453
X145.022Y-105.073
X145.022Y-107.103
X145.022Y-114.723
X147.562Y-97.453
X147.562Y-105.073
X147.562Y-107.103
X147.562Y-114.723
X152.642Y-97.453
X152.642Y-105.073
X152.642Y-107.103
X152.642Y-114.723
X155.182Y-97.453
X155.182Y-105.073
X155.182Y-107.103
X155.182Y-114.723
X157.722Y-97.453
X157.722Y-105.073
X157.722Y-107.103
X157.722Y-114.723
X162.802Y-97.453
X162.802Y-105.073
X162.802Y-107.103
X162.802Y-114.723
X165.342Y-97.453
X165.342Y-105.073
X165.342Y-107.103
X165.342Y-114.723
X167.882Y-97.453
X167.882Y-105.073
X167.882Y-107.103
X167.882Y-114.723
X172.962Y-97.453
X172.962Y-105.073
X172.962Y-107.103
X172.962Y-114.723
X175.512Y-97.453
X175.512Y-105.073
X175.512Y-107.103
X175.512Y-114.723
T4
X147.618Y-100.572
X150.158Y-100.572
X152.698Y-100.572
X155.238Y-100.572
X157.778Y-100.572
X160.318Y-100.572
X162.858Y-100.572
X165.398Y-100.572
X167.938Y-100.572
X170.478Y-100.572
X173.018Y-100.572
T0
M30
