%TF.GenerationSoftware,KiCad,Pcbnew,(6.0.4-0)*%
%TF.CreationDate,2022-05-02T21:47:31-07:00*%
%TF.ProjectId,hcms_dot_display_top,68636d73-5f64-46f7-945f-646973706c61,rev?*%
%TF.SameCoordinates,Original*%
%TF.FileFunction,Paste,Bot*%
%TF.FilePolarity,Positive*%
%FSLAX46Y46*%
G04 Gerber Fmt 4.6, Leading zero omitted, Abs format (unit mm)*
G04 Created by KiCad (PCBNEW (6.0.4-0)) date 2022-05-02 21:47:31*
%MOMM*%
%LPD*%
G01*
G04 APERTURE LIST*
G04 Aperture macros list*
%AMRoundRect*
0 Rectangle with rounded corners*
0 $1 Rounding radius*
0 $2 $3 $4 $5 $6 $7 $8 $9 X,Y pos of 4 corners*
0 Add a 4 corners polygon primitive as box body*
4,1,4,$2,$3,$4,$5,$6,$7,$8,$9,$2,$3,0*
0 Add four circle primitives for the rounded corners*
1,1,$1+$1,$2,$3*
1,1,$1+$1,$4,$5*
1,1,$1+$1,$6,$7*
1,1,$1+$1,$8,$9*
0 Add four rect primitives between the rounded corners*
20,1,$1+$1,$2,$3,$4,$5,0*
20,1,$1+$1,$4,$5,$6,$7,0*
20,1,$1+$1,$6,$7,$8,$9,0*
20,1,$1+$1,$8,$9,$2,$3,0*%
G04 Aperture macros list end*
%ADD10RoundRect,0.150000X-0.600000X-1.100000X0.600000X-1.100000X0.600000X1.100000X-0.600000X1.100000X0*%
%ADD11RoundRect,0.150000X-1.100000X0.600000X-1.100000X-0.600000X1.100000X-0.600000X1.100000X0.600000X0*%
%ADD12RoundRect,0.200000X-0.275000X0.200000X-0.275000X-0.200000X0.275000X-0.200000X0.275000X0.200000X0*%
%ADD13RoundRect,0.200000X0.275000X-0.200000X0.275000X0.200000X-0.275000X0.200000X-0.275000X-0.200000X0*%
%ADD14RoundRect,0.225000X0.225000X0.250000X-0.225000X0.250000X-0.225000X-0.250000X0.225000X-0.250000X0*%
%ADD15RoundRect,0.150000X0.150000X-0.587500X0.150000X0.587500X-0.150000X0.587500X-0.150000X-0.587500X0*%
%ADD16RoundRect,0.225000X0.250000X-0.225000X0.250000X0.225000X-0.250000X0.225000X-0.250000X-0.225000X0*%
%ADD17RoundRect,0.200000X-0.200000X-0.275000X0.200000X-0.275000X0.200000X0.275000X-0.200000X0.275000X0*%
%ADD18RoundRect,0.200000X0.200000X0.275000X-0.200000X0.275000X-0.200000X-0.275000X0.200000X-0.275000X0*%
G04 APERTURE END LIST*
D10*
X149210000Y-114530000D03*
X151010000Y-114530000D03*
X159360000Y-114530000D03*
X161160000Y-114530000D03*
X169510000Y-114530000D03*
X171310000Y-114530000D03*
D11*
X143940000Y-98985000D03*
X143940000Y-101285000D03*
X143940000Y-103585000D03*
X143940000Y-108585000D03*
X143940000Y-110885000D03*
X143940000Y-113185000D03*
X176580000Y-113185000D03*
X176580000Y-110885000D03*
X176580000Y-108585000D03*
X176580000Y-103585000D03*
X176580000Y-101285000D03*
X176580000Y-98985000D03*
D10*
X149210000Y-97640000D03*
X151010000Y-97640000D03*
X159360000Y-97640000D03*
X161160000Y-97640000D03*
X169510000Y-97640000D03*
X171310000Y-97640000D03*
D12*
X161090000Y-105365000D03*
X161090000Y-107015000D03*
D13*
X152840000Y-110265000D03*
X152840000Y-108615000D03*
D14*
X147715000Y-103340000D03*
X146165000Y-103340000D03*
D13*
X164840000Y-110265000D03*
X164840000Y-108615000D03*
D15*
X162290000Y-110827500D03*
X160390000Y-110827500D03*
X161340000Y-108952500D03*
D16*
X149290000Y-106965000D03*
X149290000Y-105415000D03*
D13*
X146840000Y-110265000D03*
X146840000Y-108615000D03*
D15*
X150290000Y-110827500D03*
X148390000Y-110827500D03*
X149340000Y-108952500D03*
D17*
X165915000Y-103340000D03*
X167565000Y-103340000D03*
D15*
X168290000Y-110827500D03*
X166390000Y-110827500D03*
X167340000Y-108952500D03*
X156290000Y-110827500D03*
X154390000Y-110827500D03*
X155340000Y-108952500D03*
D13*
X158840000Y-110265000D03*
X158840000Y-108615000D03*
X170840000Y-110265000D03*
X170840000Y-108615000D03*
D12*
X159490000Y-105365000D03*
X159490000Y-107015000D03*
D18*
X157490000Y-103390000D03*
X155840000Y-103390000D03*
D15*
X174290000Y-110827500D03*
X172390000Y-110827500D03*
X173340000Y-108952500D03*
D13*
X169590000Y-107015000D03*
X169590000Y-105365000D03*
D16*
X150890000Y-106965000D03*
X150890000Y-105415000D03*
D13*
X171190000Y-107015000D03*
X171190000Y-105365000D03*
M02*
