%TF.GenerationSoftware,KiCad,Pcbnew,(6.0.4-0)*%
%TF.CreationDate,2022-05-02T21:47:30-07:00*%
%TF.ProjectId,hcms_dot_display_top,68636d73-5f64-46f7-945f-646973706c61,rev?*%
%TF.SameCoordinates,Original*%
%TF.FileFunction,Copper,L2,Inr*%
%TF.FilePolarity,Positive*%
%FSLAX46Y46*%
G04 Gerber Fmt 4.6, Leading zero omitted, Abs format (unit mm)*
G04 Created by KiCad (PCBNEW (6.0.4-0)) date 2022-05-02 21:47:30*
%MOMM*%
%LPD*%
G01*
G04 APERTURE LIST*
%TA.AperFunction,ComponentPad*%
%ADD10C,1.000000*%
%TD*%
%TA.AperFunction,ComponentPad*%
%ADD11R,1.700000X1.700000*%
%TD*%
%TA.AperFunction,ComponentPad*%
%ADD12O,1.700000X1.700000*%
%TD*%
%TA.AperFunction,ViaPad*%
%ADD13C,0.500000*%
%TD*%
%TA.AperFunction,ViaPad*%
%ADD14C,0.800000*%
%TD*%
%TA.AperFunction,Conductor*%
%ADD15C,0.254000*%
%TD*%
%TA.AperFunction,Conductor*%
%ADD16C,0.152400*%
%TD*%
G04 APERTURE END LIST*
D10*
X145021778Y-114723222D03*
X145021778Y-105073222D03*
X147561778Y-114723222D03*
X147561778Y-105073222D03*
X152641778Y-114723222D03*
X152641778Y-105073222D03*
X155181778Y-114723222D03*
X155181778Y-105073222D03*
X157721778Y-114723222D03*
X157721778Y-105073222D03*
X162801778Y-114723222D03*
X162801778Y-105073222D03*
X165341778Y-114723222D03*
X165341778Y-105073222D03*
X167881778Y-114723222D03*
X167881778Y-105073222D03*
X172961778Y-114723222D03*
X172961778Y-105073222D03*
X175511778Y-114723222D03*
X175511778Y-105073222D03*
X175511778Y-107103222D03*
X175511778Y-97453222D03*
X172961778Y-107103222D03*
X172961778Y-97453222D03*
X167881778Y-107103222D03*
X167881778Y-97453222D03*
X165341778Y-107103222D03*
X165341778Y-97453222D03*
X162801778Y-107103222D03*
X162801778Y-97453222D03*
X157721778Y-107103222D03*
X157721778Y-97453222D03*
X155181778Y-107103222D03*
X155181778Y-97453222D03*
X152641778Y-107103222D03*
X152641778Y-97453222D03*
X147561778Y-107103222D03*
X147561778Y-97453222D03*
X145021778Y-107103222D03*
X145021778Y-97453222D03*
D11*
X147618222Y-100571778D03*
D12*
X150158222Y-100571778D03*
X152698222Y-100571778D03*
X155238222Y-100571778D03*
X157778222Y-100571778D03*
X160318222Y-100571778D03*
X162858222Y-100571778D03*
X165398222Y-100571778D03*
X167938222Y-100571778D03*
X170478222Y-100571778D03*
X173018222Y-100571778D03*
D13*
X145360000Y-109730000D03*
X144380000Y-106220000D03*
X168454002Y-106250608D03*
X166590000Y-102790000D03*
X166240000Y-105980000D03*
D14*
X149290000Y-110800000D03*
X155340000Y-110840000D03*
D13*
X156690000Y-103440000D03*
X156590000Y-98390000D03*
D14*
X161340000Y-110790000D03*
X174320000Y-112270000D03*
X174710000Y-100950000D03*
X154290000Y-112390000D03*
X145880000Y-101710000D03*
X172380000Y-112210000D03*
X150370000Y-112180000D03*
X166340000Y-112340000D03*
X160240000Y-112260000D03*
X167390000Y-110840000D03*
X173340000Y-110840000D03*
D13*
X160490000Y-108040000D03*
X161480000Y-112760000D03*
X156230000Y-115060000D03*
X143040000Y-115490000D03*
X173640000Y-99190000D03*
X171560000Y-111290000D03*
X155390000Y-99140000D03*
X143090000Y-104790000D03*
X174870000Y-103310000D03*
X156810000Y-115460000D03*
X156340000Y-96790000D03*
X175120000Y-102410000D03*
X143090000Y-96740000D03*
X150880000Y-102990000D03*
X168130000Y-112815000D03*
X143455000Y-107115000D03*
X166705000Y-101490000D03*
X156530000Y-105390000D03*
X150930000Y-104115000D03*
X166580000Y-114515000D03*
X155980000Y-102165000D03*
D14*
X143740000Y-114740000D03*
D13*
X150905000Y-108015000D03*
X151880000Y-112015000D03*
X174255000Y-97115000D03*
X164080000Y-114490000D03*
X174190000Y-115040000D03*
X153455000Y-99140000D03*
X176905000Y-97365000D03*
X172680000Y-102640000D03*
X146305000Y-97040000D03*
X143880000Y-97590000D03*
X169705000Y-110890000D03*
X166680000Y-97790000D03*
X157655000Y-102215000D03*
X176830000Y-114515000D03*
X163730000Y-106090000D03*
X143855000Y-105690000D03*
X153955000Y-97165000D03*
X156505000Y-106615000D03*
X163605000Y-112790000D03*
X163780000Y-110990000D03*
D14*
X174140000Y-98390000D03*
X149290000Y-103340000D03*
X164940000Y-98940000D03*
D13*
X157940000Y-108190000D03*
X151740000Y-102590000D03*
X158080000Y-98670000D03*
X151790000Y-108540000D03*
X174860000Y-108510000D03*
X151740000Y-109740000D03*
X158740000Y-111290000D03*
X145810000Y-109090000D03*
X163440000Y-98390000D03*
X156393991Y-97536406D03*
X170590000Y-102790000D03*
X145709440Y-110377100D03*
X164240000Y-98340000D03*
X170230000Y-111490000D03*
X170990000Y-109390000D03*
X171248501Y-104459483D03*
X174850000Y-99070000D03*
X147890000Y-112120000D03*
X147740000Y-98890000D03*
X145890000Y-98840000D03*
X157270000Y-98700000D03*
X158656647Y-109383918D03*
X174870000Y-104210000D03*
X146571355Y-114891744D03*
X153390000Y-103990000D03*
X146490000Y-107590000D03*
X173690000Y-102440000D03*
X173624068Y-103919205D03*
X153840000Y-114790000D03*
X146940000Y-102590000D03*
X157390000Y-109190000D03*
X163390000Y-102240000D03*
X165460000Y-106150000D03*
X165716950Y-108768507D03*
X164840000Y-109390000D03*
X157509785Y-111285191D03*
X145936072Y-104308326D03*
X145790000Y-108140000D03*
X172010514Y-107608336D03*
X177250000Y-104920000D03*
X147153913Y-111180861D03*
X148490000Y-108664300D03*
X174690000Y-113290000D03*
X169500000Y-112780000D03*
X162390000Y-98390000D03*
X156490000Y-104140000D03*
X170090000Y-103940000D03*
X161490000Y-103440000D03*
X169090000Y-109940000D03*
X159890000Y-109740000D03*
X168290000Y-98440000D03*
X159490000Y-106240000D03*
X168940000Y-103240000D03*
D15*
X174280000Y-101380000D02*
X174710000Y-100950000D01*
X174280000Y-112230000D02*
X174280000Y-101380000D01*
X174320000Y-112270000D02*
X174280000Y-112230000D01*
X149390000Y-114240000D02*
X149005000Y-114625000D01*
X149005000Y-114625000D02*
X147540000Y-114625000D01*
X149390000Y-110900000D02*
X149390000Y-114240000D01*
X149290000Y-110800000D02*
X149390000Y-110900000D01*
X149390000Y-105440000D02*
X148925000Y-104975000D01*
X148925000Y-104975000D02*
X147540000Y-104975000D01*
X149290000Y-110800000D02*
X149390000Y-110700000D01*
X149390000Y-110700000D02*
X149390000Y-105440000D01*
D16*
X166240000Y-103140000D02*
X166590000Y-102790000D01*
X166240000Y-105980000D02*
X166240000Y-103140000D01*
D15*
X152590000Y-114595000D02*
X152590000Y-112740000D01*
X154490000Y-110840000D02*
X154440000Y-110840000D01*
X155340000Y-110840000D02*
X154440000Y-110840000D01*
X152620000Y-114625000D02*
X152590000Y-114595000D01*
X154440000Y-110840000D02*
X154215000Y-110615000D01*
X153890000Y-105990000D02*
X152875000Y-104975000D01*
X152875000Y-104975000D02*
X152620000Y-104975000D01*
X154215000Y-110615000D02*
X153890000Y-110290000D01*
X153890000Y-110290000D02*
X153890000Y-105990000D01*
X152590000Y-112740000D02*
X154490000Y-110840000D01*
D16*
X156640000Y-98440000D02*
X156640000Y-103390000D01*
X156590000Y-98390000D02*
X156640000Y-98440000D01*
X156640000Y-103390000D02*
X156690000Y-103440000D01*
D15*
X162780000Y-112230000D02*
X162780000Y-114625000D01*
X161340000Y-110790000D02*
X162780000Y-112230000D01*
X161340000Y-110790000D02*
X161340000Y-105690000D01*
X161340000Y-105690000D02*
X162055000Y-104975000D01*
X162055000Y-104975000D02*
X162780000Y-104975000D01*
X145880000Y-101710000D02*
X146160000Y-101990000D01*
X150155001Y-101974999D02*
X150155001Y-111965001D01*
X150155001Y-100564996D02*
X150155001Y-101974999D01*
X146160000Y-101990000D02*
X150140000Y-101990000D01*
X150155001Y-111965001D02*
X150370000Y-112180000D01*
X150140000Y-101990000D02*
X150155001Y-101974999D01*
X166840000Y-105995000D02*
X167860000Y-104975000D01*
X166840000Y-110290000D02*
X166840000Y-105995000D01*
X167390000Y-110840000D02*
X167390000Y-114155000D01*
X167390000Y-110840000D02*
X166840000Y-110290000D01*
X167390000Y-114155000D02*
X167860000Y-114625000D01*
X173820000Y-107710000D02*
X173820000Y-105931444D01*
X173340000Y-114225000D02*
X172940000Y-114625000D01*
X173340000Y-108190000D02*
X173820000Y-107710000D01*
X173340000Y-110840000D02*
X173340000Y-114225000D01*
X173340000Y-110840000D02*
X173340000Y-108190000D01*
X173820000Y-105931444D02*
X172961778Y-105073222D01*
D16*
X160490000Y-111090000D02*
X160490000Y-108040000D01*
X161480000Y-112760000D02*
X161480000Y-112080000D01*
X161480000Y-112080000D02*
X160490000Y-111090000D01*
X172090000Y-99190000D02*
X173640000Y-99190000D01*
X172940000Y-107740000D02*
X172940000Y-107005000D01*
X172940000Y-98145601D02*
X172940000Y-97355000D01*
X172940000Y-107005000D02*
X171840967Y-105905967D01*
X153990000Y-105240000D02*
X155160000Y-106410000D01*
X153990000Y-99540000D02*
X153990000Y-105240000D01*
X171840967Y-105905967D02*
X171840967Y-99439033D01*
X173640000Y-99190000D02*
X173640000Y-98845601D01*
X156590000Y-108440000D02*
X156590000Y-114700000D01*
X154390000Y-99140000D02*
X153990000Y-99540000D01*
X171560000Y-109120000D02*
X172940000Y-107740000D01*
X156590000Y-114700000D02*
X156230000Y-115060000D01*
X173640000Y-98845601D02*
X172940000Y-98145601D01*
X155160000Y-107010000D02*
X156590000Y-108440000D01*
X171840967Y-99439033D02*
X172090000Y-99190000D01*
X155160000Y-106410000D02*
X155160000Y-107010000D01*
X155390000Y-99140000D02*
X155390000Y-97585000D01*
X155390000Y-99140000D02*
X154390000Y-99140000D01*
X155390000Y-97585000D02*
X155160000Y-97355000D01*
X171560000Y-111290000D02*
X171560000Y-109120000D01*
X167860000Y-97355000D02*
X167860000Y-98070000D01*
X167590000Y-98340000D02*
X167590000Y-100220000D01*
X175190000Y-102990000D02*
X175190000Y-102480000D01*
X168990000Y-104290000D02*
X168990000Y-106490000D01*
X167935000Y-100565000D02*
X167935000Y-103235000D01*
X156910000Y-115560000D02*
X156810000Y-115460000D01*
X168440000Y-110290000D02*
X168690000Y-110540000D01*
X168240000Y-115560000D02*
X156910000Y-115560000D01*
X167860000Y-98070000D02*
X167590000Y-98340000D01*
X168475000Y-107005000D02*
X167860000Y-107005000D01*
X168690000Y-115110000D02*
X168240000Y-115560000D01*
X174870000Y-103310000D02*
X175190000Y-102990000D01*
X167590000Y-100220000D02*
X167935000Y-100565000D01*
X175190000Y-102480000D02*
X175120000Y-102410000D01*
X167860000Y-107005000D02*
X168440000Y-107585000D01*
X143090000Y-96740000D02*
X143090000Y-104790000D01*
X168690000Y-110540000D02*
X168690000Y-115110000D01*
X168440000Y-107585000D02*
X168440000Y-110290000D01*
X167935000Y-103235000D02*
X168990000Y-104290000D01*
X168990000Y-106490000D02*
X168475000Y-107005000D01*
D15*
X152620000Y-97355000D02*
X150825000Y-97355000D01*
X150825000Y-97355000D02*
X147615000Y-100565000D01*
D16*
X156002681Y-97927716D02*
X156002681Y-99797319D01*
X151740000Y-108490000D02*
X151790000Y-108540000D01*
X151790000Y-108540000D02*
X151790000Y-109690000D01*
X156002681Y-99797319D02*
X155235000Y-100565000D01*
X151740000Y-102590000D02*
X151740000Y-108490000D01*
X151790000Y-109690000D02*
X151740000Y-109740000D01*
X157940000Y-110490000D02*
X157940000Y-108190000D01*
X158740000Y-111290000D02*
X157940000Y-110490000D01*
X156393991Y-97536406D02*
X156002681Y-97927716D01*
X170590000Y-102790000D02*
X170640000Y-102840000D01*
X170640000Y-102840000D02*
X170640000Y-109040000D01*
X170990000Y-110730000D02*
X170990000Y-109390000D01*
X162855000Y-100565000D02*
X162855000Y-99725000D01*
X170230000Y-111490000D02*
X170990000Y-110730000D01*
X162855000Y-99725000D02*
X164240000Y-98340000D01*
X170640000Y-109040000D02*
X170990000Y-109390000D01*
X171427733Y-101517733D02*
X170475000Y-100565000D01*
X171427733Y-103924934D02*
X171427733Y-101517733D01*
X171248501Y-104459483D02*
X171248501Y-104104166D01*
X171248501Y-104104166D02*
X171427733Y-103924934D01*
X157775000Y-99205000D02*
X157775000Y-100565000D01*
X157815000Y-100565000D02*
X158840000Y-101590000D01*
X157270000Y-98700000D02*
X157775000Y-99205000D01*
X158840000Y-109200565D02*
X158656647Y-109383918D01*
X175840000Y-100740000D02*
X174850000Y-99750000D01*
X174850000Y-99750000D02*
X174850000Y-99070000D01*
X175840000Y-103540000D02*
X175840000Y-100740000D01*
X158840000Y-101590000D02*
X158840000Y-109200565D01*
X175170000Y-104210000D02*
X175840000Y-103540000D01*
X157775000Y-100565000D02*
X157815000Y-100565000D01*
X174870000Y-104210000D02*
X175170000Y-104210000D01*
X146571355Y-114891744D02*
X146571355Y-113958645D01*
X146620456Y-107720456D02*
X146490000Y-107590000D01*
X153390000Y-101260000D02*
X153390000Y-103990000D01*
X146490000Y-103040000D02*
X146490000Y-107590000D01*
X146790000Y-112040000D02*
X146620456Y-111870456D01*
X146940000Y-102590000D02*
X146490000Y-103040000D01*
X146790000Y-113740000D02*
X146790000Y-112040000D01*
X146571355Y-113958645D02*
X146790000Y-113740000D01*
X173690000Y-103853273D02*
X173690000Y-102440000D01*
X173624068Y-103919205D02*
X173690000Y-103853273D01*
X152695000Y-100565000D02*
X153390000Y-101260000D01*
X146620456Y-111870456D02*
X146620456Y-107720456D01*
X165635576Y-106150000D02*
X166143072Y-106657496D01*
X145790000Y-108140000D02*
X145940000Y-107990000D01*
X145935605Y-104478029D02*
X145935605Y-104308793D01*
X157509785Y-111285191D02*
X157418222Y-111193628D01*
X164340000Y-103190000D02*
X164340000Y-108890000D01*
X166143072Y-108342385D02*
X165716950Y-108768507D01*
X145940000Y-107990000D02*
X145940000Y-104482424D01*
X165460000Y-106150000D02*
X165635576Y-106150000D01*
X164340000Y-108890000D02*
X164840000Y-109390000D01*
X157418222Y-109218222D02*
X157390000Y-109190000D01*
X145935605Y-104308793D02*
X145936072Y-104308326D01*
X163390000Y-102240000D02*
X164340000Y-103190000D01*
X166143072Y-106657496D02*
X166143072Y-108342385D01*
X145940000Y-104482424D02*
X145935605Y-104478029D01*
X157418222Y-111193628D02*
X157418222Y-109218222D01*
X148490000Y-108664300D02*
X148490000Y-108720000D01*
X148490000Y-108720000D02*
X147153913Y-110056087D01*
X147153913Y-110056087D02*
X147153913Y-111180861D01*
X175490000Y-97355000D02*
X175490000Y-99590000D01*
X176390000Y-100490000D02*
X176390000Y-111590000D01*
X176390000Y-111590000D02*
X174690000Y-113290000D01*
X175490000Y-99590000D02*
X176390000Y-100490000D01*
X162390000Y-98390000D02*
X161490000Y-99290000D01*
X161490000Y-99290000D02*
X161490000Y-103440000D01*
X169390000Y-109640000D02*
X169390000Y-103690000D01*
X159890000Y-109740000D02*
X159890000Y-106640000D01*
X168290000Y-98440000D02*
X169340000Y-99490000D01*
X159890000Y-106640000D02*
X159490000Y-106240000D01*
X169340000Y-102840000D02*
X168940000Y-103240000D01*
X169090000Y-109940000D02*
X169390000Y-109640000D01*
X169340000Y-99490000D02*
X169340000Y-102840000D01*
X169390000Y-103690000D02*
X168940000Y-103240000D01*
%TA.AperFunction,Conductor*%
G36*
X169884274Y-104404318D02*
G01*
X169999940Y-104440455D01*
X169999943Y-104440456D01*
X170008510Y-104443132D01*
X170078352Y-104444412D01*
X170144022Y-104445616D01*
X170144026Y-104445616D01*
X170152998Y-104445780D01*
X170161659Y-104443419D01*
X170167726Y-104442663D01*
X170237797Y-104454092D01*
X170290565Y-104501589D01*
X170309300Y-104567697D01*
X170309300Y-109020051D01*
X170308821Y-109031032D01*
X170306854Y-109053521D01*
X170305476Y-109069267D01*
X170315409Y-109106339D01*
X170317784Y-109117053D01*
X170324449Y-109154851D01*
X170329960Y-109164396D01*
X170331231Y-109167889D01*
X170332806Y-109171267D01*
X170335660Y-109181916D01*
X170341984Y-109190947D01*
X170341985Y-109190950D01*
X170357673Y-109213355D01*
X170363578Y-109222624D01*
X170382761Y-109255849D01*
X170391202Y-109262932D01*
X170391203Y-109262933D01*
X170412159Y-109280517D01*
X170420262Y-109287943D01*
X170444686Y-109312367D01*
X170478712Y-109374679D01*
X170480526Y-109385120D01*
X170499088Y-109527065D01*
X170557289Y-109659339D01*
X170563061Y-109666206D01*
X170563065Y-109666212D01*
X170629751Y-109745544D01*
X170658272Y-109810559D01*
X170659300Y-109826619D01*
X170659300Y-110540830D01*
X170639298Y-110608951D01*
X170622395Y-110629925D01*
X170303870Y-110948450D01*
X170241558Y-110982476D01*
X170214008Y-110985353D01*
X170160827Y-110985028D01*
X170152196Y-110987495D01*
X170152194Y-110987495D01*
X170030509Y-111022272D01*
X170030505Y-111022274D01*
X170021879Y-111024739D01*
X170014292Y-111029526D01*
X170014290Y-111029527D01*
X169932660Y-111081032D01*
X169899661Y-111101853D01*
X169893718Y-111108582D01*
X169893717Y-111108583D01*
X169856635Y-111150571D01*
X169803999Y-111210170D01*
X169800185Y-111218293D01*
X169800184Y-111218295D01*
X169786324Y-111247817D01*
X169742583Y-111340982D01*
X169741203Y-111349846D01*
X169741202Y-111349849D01*
X169722637Y-111469087D01*
X169720350Y-111483773D01*
X169721514Y-111492675D01*
X169721514Y-111492678D01*
X169734827Y-111594484D01*
X169739088Y-111627065D01*
X169797289Y-111759339D01*
X169803063Y-111766208D01*
X169883155Y-111861488D01*
X169890276Y-111869960D01*
X169897747Y-111874933D01*
X169897748Y-111874934D01*
X170003101Y-111945063D01*
X170003103Y-111945064D01*
X170010574Y-111950037D01*
X170019138Y-111952713D01*
X170019141Y-111952714D01*
X170069234Y-111968364D01*
X170148510Y-111993132D01*
X170292998Y-111995780D01*
X170329337Y-111985873D01*
X170423763Y-111960130D01*
X170423765Y-111960129D01*
X170432422Y-111957769D01*
X170555572Y-111882154D01*
X170562459Y-111874546D01*
X170603738Y-111828941D01*
X170652551Y-111775014D01*
X170696650Y-111683993D01*
X170711645Y-111653043D01*
X170711645Y-111653042D01*
X170715560Y-111644962D01*
X170739536Y-111502453D01*
X170739595Y-111497591D01*
X170740031Y-111492735D01*
X170741394Y-111492857D01*
X170760412Y-111430891D01*
X170776477Y-111411203D01*
X170852549Y-111335131D01*
X170914861Y-111301105D01*
X170985676Y-111306170D01*
X171042512Y-111348717D01*
X171066580Y-111407887D01*
X171069088Y-111427065D01*
X171127289Y-111559339D01*
X171133063Y-111566208D01*
X171208815Y-111656325D01*
X171220276Y-111669960D01*
X171227747Y-111674933D01*
X171227748Y-111674934D01*
X171333101Y-111745063D01*
X171333103Y-111745064D01*
X171340574Y-111750037D01*
X171349138Y-111752713D01*
X171349141Y-111752714D01*
X171400751Y-111768838D01*
X171478510Y-111793132D01*
X171622998Y-111795780D01*
X171631663Y-111793418D01*
X171640565Y-111792309D01*
X171641031Y-111796052D01*
X171694288Y-111797122D01*
X171753231Y-111836698D01*
X171781421Y-111901858D01*
X171773761Y-111963050D01*
X171771528Y-111968777D01*
X171745206Y-112036291D01*
X171741406Y-112046037D01*
X171740414Y-112053570D01*
X171740414Y-112053571D01*
X171721952Y-112193807D01*
X171720729Y-112203096D01*
X171727686Y-112266110D01*
X171737019Y-112350641D01*
X171738113Y-112360553D01*
X171740723Y-112367684D01*
X171740723Y-112367686D01*
X171788628Y-112498592D01*
X171792553Y-112509319D01*
X171796789Y-112515622D01*
X171796789Y-112515623D01*
X171875116Y-112632185D01*
X171880908Y-112640805D01*
X171886527Y-112645918D01*
X171886528Y-112645919D01*
X171986884Y-112737235D01*
X171998076Y-112747419D01*
X172137293Y-112823008D01*
X172290522Y-112863207D01*
X172374477Y-112864526D01*
X172441319Y-112865576D01*
X172441322Y-112865576D01*
X172448916Y-112865695D01*
X172603332Y-112830329D01*
X172688304Y-112787593D01*
X172738072Y-112762563D01*
X172738075Y-112762561D01*
X172744855Y-112759151D01*
X172750626Y-112754222D01*
X172750629Y-112754220D01*
X172750666Y-112754188D01*
X172750698Y-112754173D01*
X172756959Y-112750014D01*
X172757652Y-112751057D01*
X172815455Y-112725154D01*
X172885655Y-112735757D01*
X172938979Y-112782630D01*
X172958500Y-112849996D01*
X172958500Y-113851417D01*
X172938498Y-113919538D01*
X172884842Y-113966031D01*
X172845670Y-113976727D01*
X172805743Y-113980923D01*
X172805739Y-113980924D01*
X172798735Y-113981660D01*
X172792064Y-113983931D01*
X172645165Y-114033939D01*
X172645162Y-114033940D01*
X172638495Y-114036210D01*
X172632497Y-114039900D01*
X172632495Y-114039901D01*
X172500321Y-114121215D01*
X172500319Y-114121217D01*
X172494322Y-114124906D01*
X172373383Y-114243339D01*
X172369572Y-114249253D01*
X172369570Y-114249255D01*
X172344926Y-114287495D01*
X172281687Y-114385622D01*
X172272757Y-114410158D01*
X172226203Y-114538062D01*
X172226202Y-114538067D01*
X172223793Y-114544685D01*
X172202578Y-114712621D01*
X172219096Y-114881084D01*
X172272526Y-115041701D01*
X172276175Y-115047726D01*
X172353558Y-115175500D01*
X172360213Y-115186489D01*
X172365104Y-115191554D01*
X172365105Y-115191555D01*
X172423395Y-115251916D01*
X172477799Y-115308253D01*
X172619438Y-115400939D01*
X172778093Y-115459942D01*
X172785074Y-115460873D01*
X172785076Y-115460874D01*
X172938896Y-115481398D01*
X172938900Y-115481398D01*
X172945877Y-115482329D01*
X172952888Y-115481691D01*
X172952892Y-115481691D01*
X173107430Y-115467627D01*
X173114451Y-115466988D01*
X173275437Y-115414680D01*
X173388648Y-115347193D01*
X173414782Y-115331614D01*
X173414784Y-115331613D01*
X173420834Y-115328006D01*
X173543416Y-115211274D01*
X173552639Y-115197393D01*
X173633188Y-115076157D01*
X173633191Y-115076152D01*
X173637089Y-115070285D01*
X173697198Y-114912046D01*
X173712600Y-114802453D01*
X173720205Y-114748345D01*
X173720205Y-114748340D01*
X173720756Y-114744422D01*
X173721052Y-114723222D01*
X173719863Y-114712621D01*
X174752578Y-114712621D01*
X174769096Y-114881084D01*
X174822526Y-115041701D01*
X174826175Y-115047726D01*
X174903558Y-115175500D01*
X174910213Y-115186489D01*
X174915104Y-115191554D01*
X174915105Y-115191555D01*
X174973395Y-115251916D01*
X175027799Y-115308253D01*
X175169438Y-115400939D01*
X175328093Y-115459942D01*
X175335074Y-115460873D01*
X175335076Y-115460874D01*
X175488896Y-115481398D01*
X175488900Y-115481398D01*
X175495877Y-115482329D01*
X175502888Y-115481691D01*
X175502892Y-115481691D01*
X175657430Y-115467627D01*
X175664451Y-115466988D01*
X175825437Y-115414680D01*
X175938648Y-115347193D01*
X175964782Y-115331614D01*
X175964784Y-115331613D01*
X175970834Y-115328006D01*
X176093416Y-115211274D01*
X176102639Y-115197393D01*
X176183188Y-115076157D01*
X176183191Y-115076152D01*
X176187089Y-115070285D01*
X176247198Y-114912046D01*
X176262600Y-114802453D01*
X176270205Y-114748345D01*
X176270205Y-114748340D01*
X176270756Y-114744422D01*
X176271052Y-114723222D01*
X176262455Y-114646579D01*
X176252969Y-114562002D01*
X176252968Y-114561999D01*
X176252184Y-114555006D01*
X176196516Y-114395151D01*
X176106816Y-114251601D01*
X176098772Y-114243500D01*
X176032051Y-114176312D01*
X175987542Y-114131491D01*
X175981591Y-114127714D01*
X175918444Y-114087640D01*
X175844622Y-114040791D01*
X175793359Y-114022537D01*
X175691794Y-113986371D01*
X175691789Y-113986370D01*
X175685159Y-113984009D01*
X175678173Y-113983176D01*
X175678169Y-113983175D01*
X175559065Y-113968973D01*
X175517079Y-113963967D01*
X175510076Y-113964703D01*
X175510075Y-113964703D01*
X175355743Y-113980923D01*
X175355739Y-113980924D01*
X175348735Y-113981660D01*
X175342064Y-113983931D01*
X175195165Y-114033939D01*
X175195162Y-114033940D01*
X175188495Y-114036210D01*
X175182497Y-114039900D01*
X175182495Y-114039901D01*
X175050321Y-114121215D01*
X175050319Y-114121217D01*
X175044322Y-114124906D01*
X174923383Y-114243339D01*
X174919572Y-114249253D01*
X174919570Y-114249255D01*
X174894926Y-114287495D01*
X174831687Y-114385622D01*
X174822757Y-114410158D01*
X174776203Y-114538062D01*
X174776202Y-114538067D01*
X174773793Y-114544685D01*
X174752578Y-114712621D01*
X173719863Y-114712621D01*
X173702184Y-114555006D01*
X173699578Y-114547521D01*
X173686570Y-114510170D01*
X173679977Y-114491236D01*
X173676463Y-114420328D01*
X173683698Y-114400246D01*
X173687334Y-114395158D01*
X173702109Y-114345753D01*
X173703930Y-114340150D01*
X173718388Y-114298981D01*
X173721016Y-114291498D01*
X173721500Y-114285909D01*
X173721500Y-114283196D01*
X173721615Y-114280531D01*
X173721634Y-114280468D01*
X173721808Y-114280475D01*
X173721855Y-114279729D01*
X173723725Y-114273476D01*
X173721761Y-114223498D01*
X173721597Y-114219322D01*
X173721500Y-114214375D01*
X173721500Y-112895356D01*
X173741502Y-112827235D01*
X173795158Y-112780742D01*
X173865432Y-112770638D01*
X173925514Y-112798964D01*
X173926266Y-112797907D01*
X173932168Y-112802101D01*
X173932301Y-112802164D01*
X173938076Y-112807419D01*
X174077293Y-112883008D01*
X174084635Y-112884934D01*
X174084637Y-112884935D01*
X174150269Y-112902153D01*
X174211085Y-112938787D01*
X174242440Y-113002484D01*
X174232351Y-113077578D01*
X174202583Y-113140982D01*
X174201203Y-113149846D01*
X174201202Y-113149849D01*
X174183152Y-113265780D01*
X174180350Y-113283773D01*
X174181514Y-113292675D01*
X174181514Y-113292678D01*
X174197924Y-113418164D01*
X174199088Y-113427065D01*
X174257289Y-113559339D01*
X174350276Y-113669960D01*
X174357747Y-113674933D01*
X174357748Y-113674934D01*
X174463101Y-113745063D01*
X174463103Y-113745064D01*
X174470574Y-113750037D01*
X174479138Y-113752713D01*
X174479141Y-113752714D01*
X174532124Y-113769267D01*
X174608510Y-113793132D01*
X174752998Y-113795780D01*
X174772530Y-113790455D01*
X174883763Y-113760130D01*
X174883765Y-113760129D01*
X174892422Y-113757769D01*
X175015572Y-113682154D01*
X175112551Y-113575014D01*
X175175560Y-113444962D01*
X175199536Y-113302453D01*
X175199595Y-113297591D01*
X175200031Y-113292735D01*
X175201394Y-113292857D01*
X175220412Y-113230891D01*
X175236477Y-113211203D01*
X176609732Y-111837948D01*
X176617836Y-111830522D01*
X176638794Y-111812936D01*
X176638796Y-111812933D01*
X176647239Y-111805849D01*
X176666422Y-111772624D01*
X176672327Y-111763355D01*
X176688015Y-111740950D01*
X176688016Y-111740947D01*
X176694340Y-111731916D01*
X176697194Y-111721267D01*
X176698769Y-111717889D01*
X176700040Y-111714396D01*
X176705551Y-111704851D01*
X176712216Y-111667053D01*
X176714591Y-111656339D01*
X176724524Y-111619267D01*
X176723437Y-111606834D01*
X176721179Y-111581032D01*
X176720700Y-111570051D01*
X176720700Y-105409003D01*
X176740702Y-105340882D01*
X176794358Y-105294389D01*
X176864632Y-105284285D01*
X176916519Y-105304116D01*
X177023101Y-105375063D01*
X177023103Y-105375064D01*
X177030574Y-105380037D01*
X177039138Y-105382713D01*
X177039141Y-105382714D01*
X177099542Y-105401585D01*
X177168510Y-105423132D01*
X177312998Y-105425780D01*
X177333154Y-105420285D01*
X177443763Y-105390130D01*
X177443765Y-105390129D01*
X177452422Y-105387769D01*
X177575572Y-105312154D01*
X177580067Y-105307188D01*
X177644204Y-105279518D01*
X177714249Y-105291102D01*
X177766912Y-105338717D01*
X177785500Y-105404586D01*
X177785500Y-115609500D01*
X177765498Y-115677621D01*
X177711842Y-115724114D01*
X177659500Y-115735500D01*
X168836370Y-115735500D01*
X168768249Y-115715498D01*
X168721756Y-115661842D01*
X168711652Y-115591568D01*
X168741146Y-115526988D01*
X168747275Y-115520405D01*
X168909732Y-115357948D01*
X168917836Y-115350522D01*
X168938794Y-115332936D01*
X168938796Y-115332933D01*
X168947239Y-115325849D01*
X168966422Y-115292624D01*
X168972327Y-115283355D01*
X168988015Y-115260950D01*
X168988016Y-115260947D01*
X168994340Y-115251916D01*
X168997194Y-115241267D01*
X168998769Y-115237889D01*
X169000040Y-115234396D01*
X169005551Y-115224851D01*
X169008294Y-115209298D01*
X169012215Y-115187057D01*
X169014591Y-115176339D01*
X169024524Y-115139267D01*
X169021179Y-115101032D01*
X169020700Y-115090051D01*
X169020700Y-113302285D01*
X169040702Y-113234164D01*
X169094358Y-113187671D01*
X169164632Y-113177567D01*
X169216517Y-113197397D01*
X169280574Y-113240037D01*
X169289138Y-113242713D01*
X169289141Y-113242714D01*
X169322878Y-113253254D01*
X169418510Y-113283132D01*
X169562998Y-113285780D01*
X169582530Y-113280455D01*
X169693763Y-113250130D01*
X169693765Y-113250129D01*
X169702422Y-113247769D01*
X169825572Y-113172154D01*
X169922551Y-113065014D01*
X169973270Y-112960329D01*
X169981645Y-112943043D01*
X169981645Y-112943042D01*
X169985560Y-112934962D01*
X170009536Y-112792453D01*
X170009688Y-112780000D01*
X169998245Y-112700100D01*
X169990474Y-112645835D01*
X169990473Y-112645833D01*
X169989201Y-112636948D01*
X169981539Y-112620095D01*
X169964706Y-112583073D01*
X169929388Y-112505395D01*
X169923530Y-112498596D01*
X169923527Y-112498592D01*
X169840916Y-112402718D01*
X169840913Y-112402716D01*
X169835056Y-112395918D01*
X169765937Y-112351117D01*
X169721324Y-112322200D01*
X169721322Y-112322199D01*
X169713790Y-112317317D01*
X169682493Y-112307957D01*
X169583938Y-112278482D01*
X169583936Y-112278482D01*
X169575337Y-112275910D01*
X169566363Y-112275855D01*
X169566361Y-112275855D01*
X169503082Y-112275469D01*
X169430827Y-112275028D01*
X169422196Y-112277495D01*
X169422194Y-112277495D01*
X169300509Y-112312272D01*
X169300505Y-112312274D01*
X169291879Y-112314739D01*
X169284288Y-112319528D01*
X169284287Y-112319529D01*
X169213935Y-112363917D01*
X169145650Y-112383351D01*
X169077698Y-112362782D01*
X169031654Y-112308740D01*
X169020700Y-112257355D01*
X169020700Y-110571686D01*
X169040702Y-110503565D01*
X169094358Y-110457072D01*
X169135341Y-110448549D01*
X169135114Y-110446725D01*
X169144021Y-110445615D01*
X169152998Y-110445780D01*
X169162696Y-110443136D01*
X169283763Y-110410130D01*
X169283765Y-110410129D01*
X169292422Y-110407769D01*
X169415572Y-110332154D01*
X169512551Y-110225014D01*
X169566777Y-110113090D01*
X169571645Y-110103043D01*
X169571645Y-110103042D01*
X169575560Y-110094962D01*
X169588810Y-110016208D01*
X169598730Y-109957246D01*
X169598730Y-109957241D01*
X169599536Y-109952453D01*
X169599595Y-109947594D01*
X169599968Y-109943437D01*
X169625975Y-109877375D01*
X169631731Y-109871399D01*
X169631709Y-109871380D01*
X169638796Y-109862933D01*
X169647239Y-109855849D01*
X169666422Y-109822624D01*
X169672327Y-109813355D01*
X169688015Y-109790950D01*
X169688016Y-109790947D01*
X169694340Y-109781916D01*
X169697194Y-109771267D01*
X169698769Y-109767889D01*
X169700040Y-109764396D01*
X169705551Y-109754851D01*
X169707698Y-109742678D01*
X169712215Y-109717057D01*
X169714591Y-109706339D01*
X169724524Y-109669267D01*
X169721179Y-109631032D01*
X169720700Y-109620051D01*
X169720700Y-104524585D01*
X169740702Y-104456464D01*
X169794358Y-104409971D01*
X169864632Y-104399867D01*
X169884274Y-104404318D01*
G37*
%TD.AperFunction*%
%TA.AperFunction,Conductor*%
G36*
X155819294Y-96454502D02*
G01*
X155865787Y-96508158D01*
X155875891Y-96578432D01*
X155865228Y-96614049D01*
X155852583Y-96640982D01*
X155851203Y-96649846D01*
X155851202Y-96649849D01*
X155833392Y-96764233D01*
X155803147Y-96828466D01*
X155742977Y-96866150D01*
X155671986Y-96865322D01*
X155641378Y-96851233D01*
X155556855Y-96797593D01*
X155514622Y-96770791D01*
X155463123Y-96752453D01*
X155361794Y-96716371D01*
X155361789Y-96716370D01*
X155355159Y-96714009D01*
X155348173Y-96713176D01*
X155348169Y-96713175D01*
X155229065Y-96698973D01*
X155187079Y-96693967D01*
X155180076Y-96694703D01*
X155180075Y-96694703D01*
X155025743Y-96710923D01*
X155025739Y-96710924D01*
X155018735Y-96711660D01*
X155012064Y-96713931D01*
X154865165Y-96763939D01*
X154865162Y-96763940D01*
X154858495Y-96766210D01*
X154852497Y-96769900D01*
X154852495Y-96769901D01*
X154720321Y-96851215D01*
X154720319Y-96851217D01*
X154714322Y-96854906D01*
X154644598Y-96923185D01*
X154614112Y-96953040D01*
X154593383Y-96973339D01*
X154589572Y-96979253D01*
X154589570Y-96979255D01*
X154580053Y-96994023D01*
X154501687Y-97115622D01*
X154491162Y-97144539D01*
X154446203Y-97268062D01*
X154446202Y-97268067D01*
X154443793Y-97274685D01*
X154422578Y-97442621D01*
X154439096Y-97611084D01*
X154492526Y-97771701D01*
X154503741Y-97790219D01*
X154566195Y-97893342D01*
X154580213Y-97916489D01*
X154585104Y-97921554D01*
X154585105Y-97921555D01*
X154626478Y-97964398D01*
X154697799Y-98038253D01*
X154839438Y-98130939D01*
X154977221Y-98182180D01*
X155034096Y-98224672D01*
X155058970Y-98291168D01*
X155059300Y-98300277D01*
X155059300Y-98683300D01*
X155039298Y-98751421D01*
X154985642Y-98797914D01*
X154933300Y-98809300D01*
X154409938Y-98809300D01*
X154398957Y-98808821D01*
X154371710Y-98806437D01*
X154371708Y-98806437D01*
X154360733Y-98805477D01*
X154350089Y-98808329D01*
X154350087Y-98808329D01*
X154323682Y-98815404D01*
X154312953Y-98817783D01*
X154286003Y-98822535D01*
X154286002Y-98822535D01*
X154275149Y-98824449D01*
X154265604Y-98829960D01*
X154262114Y-98831230D01*
X154258735Y-98832806D01*
X154248083Y-98835660D01*
X154216639Y-98857678D01*
X154207383Y-98863574D01*
X154174151Y-98882761D01*
X154167066Y-98891204D01*
X154167063Y-98891207D01*
X154149478Y-98912164D01*
X154142052Y-98920268D01*
X153770268Y-99292052D01*
X153762164Y-99299478D01*
X153741206Y-99317064D01*
X153741204Y-99317067D01*
X153732761Y-99324151D01*
X153717815Y-99350037D01*
X153713578Y-99357376D01*
X153707673Y-99366645D01*
X153691985Y-99389050D01*
X153691984Y-99389053D01*
X153685660Y-99398084D01*
X153682806Y-99408733D01*
X153681231Y-99412111D01*
X153679960Y-99415604D01*
X153674449Y-99425149D01*
X153672535Y-99436002D01*
X153672535Y-99436003D01*
X153667785Y-99462943D01*
X153665409Y-99473661D01*
X153655476Y-99510733D01*
X153656436Y-99521708D01*
X153656436Y-99521709D01*
X153658821Y-99548968D01*
X153659300Y-99559949D01*
X153659300Y-99667915D01*
X153639298Y-99736036D01*
X153585642Y-99782529D01*
X153515368Y-99792633D01*
X153447773Y-99760441D01*
X153373480Y-99691765D01*
X153368597Y-99688684D01*
X153368593Y-99688681D01*
X153206686Y-99586526D01*
X153201803Y-99583445D01*
X153013261Y-99508224D01*
X153007601Y-99507098D01*
X153007597Y-99507097D01*
X152819835Y-99469749D01*
X152819832Y-99469749D01*
X152814168Y-99468622D01*
X152808393Y-99468546D01*
X152808389Y-99468546D01*
X152707015Y-99467219D01*
X152611193Y-99465965D01*
X152605496Y-99466944D01*
X152605495Y-99466944D01*
X152421002Y-99498646D01*
X152411132Y-99500342D01*
X152220685Y-99570602D01*
X152046232Y-99674390D01*
X152041892Y-99678196D01*
X152041888Y-99678199D01*
X151922924Y-99782529D01*
X151893614Y-99808233D01*
X151890039Y-99812768D01*
X151890038Y-99812769D01*
X151887235Y-99816325D01*
X151767942Y-99967647D01*
X151765253Y-99972758D01*
X151765251Y-99972761D01*
X151722788Y-100053470D01*
X151673425Y-100147293D01*
X151613229Y-100341156D01*
X151589370Y-100542742D01*
X151602646Y-100745300D01*
X151604067Y-100750896D01*
X151604068Y-100750901D01*
X151624341Y-100830723D01*
X151652614Y-100942047D01*
X151655031Y-100947290D01*
X151716779Y-101081232D01*
X151737599Y-101126394D01*
X151740932Y-101131110D01*
X151851216Y-101287159D01*
X151854755Y-101292167D01*
X151858897Y-101296202D01*
X151915859Y-101351691D01*
X152000160Y-101433813D01*
X152004964Y-101437023D01*
X152042511Y-101462111D01*
X152168942Y-101546590D01*
X152174245Y-101548868D01*
X152174248Y-101548870D01*
X152330394Y-101615955D01*
X152355450Y-101626720D01*
X152420362Y-101641408D01*
X152547801Y-101670245D01*
X152547806Y-101670246D01*
X152553438Y-101671520D01*
X152559209Y-101671747D01*
X152559211Y-101671747D01*
X152618978Y-101674095D01*
X152756275Y-101679490D01*
X152915220Y-101656444D01*
X152985506Y-101666464D01*
X153039217Y-101712893D01*
X153059300Y-101781140D01*
X153059300Y-103554588D01*
X153039298Y-103622709D01*
X153027742Y-103637995D01*
X152963999Y-103710170D01*
X152960185Y-103718293D01*
X152960184Y-103718295D01*
X152954819Y-103729723D01*
X152902583Y-103840982D01*
X152901203Y-103849846D01*
X152901202Y-103849849D01*
X152881792Y-103974514D01*
X152880350Y-103983773D01*
X152881514Y-103992675D01*
X152881514Y-103992678D01*
X152888666Y-104047369D01*
X152899088Y-104127065D01*
X152908319Y-104148044D01*
X152910958Y-104154042D01*
X152920084Y-104224449D01*
X152889697Y-104288614D01*
X152829444Y-104326164D01*
X152780709Y-104329901D01*
X152716485Y-104322243D01*
X152647079Y-104313967D01*
X152640076Y-104314703D01*
X152640075Y-104314703D01*
X152485743Y-104330923D01*
X152485739Y-104330924D01*
X152478735Y-104331660D01*
X152472064Y-104333931D01*
X152325165Y-104383939D01*
X152325162Y-104383940D01*
X152318495Y-104386210D01*
X152312499Y-104389898D01*
X152312492Y-104389902D01*
X152262723Y-104420521D01*
X152194222Y-104439180D01*
X152126507Y-104417841D01*
X152081079Y-104363282D01*
X152070700Y-104313204D01*
X152070700Y-103025045D01*
X152090702Y-102956924D01*
X152103285Y-102940490D01*
X152156523Y-102881674D01*
X152156526Y-102881670D01*
X152162551Y-102875014D01*
X152166816Y-102866212D01*
X152221645Y-102753043D01*
X152221645Y-102753042D01*
X152225560Y-102744962D01*
X152249536Y-102602453D01*
X152249688Y-102590000D01*
X152229201Y-102446948D01*
X152169388Y-102315395D01*
X152163530Y-102308596D01*
X152163527Y-102308592D01*
X152080916Y-102212718D01*
X152080913Y-102212716D01*
X152075056Y-102205918D01*
X151994096Y-102153442D01*
X151961324Y-102132200D01*
X151961322Y-102132199D01*
X151953790Y-102127317D01*
X151936921Y-102122272D01*
X151823938Y-102088482D01*
X151823936Y-102088482D01*
X151815337Y-102085910D01*
X151806363Y-102085855D01*
X151806361Y-102085855D01*
X151743082Y-102085469D01*
X151670827Y-102085028D01*
X151662196Y-102087495D01*
X151662194Y-102087495D01*
X151540509Y-102122272D01*
X151540505Y-102122274D01*
X151531879Y-102124739D01*
X151524292Y-102129526D01*
X151524290Y-102129527D01*
X151475724Y-102160170D01*
X151409661Y-102201853D01*
X151403718Y-102208582D01*
X151403717Y-102208583D01*
X151366219Y-102251042D01*
X151313999Y-102310170D01*
X151310185Y-102318293D01*
X151310184Y-102318295D01*
X151304911Y-102329527D01*
X151252583Y-102440982D01*
X151251203Y-102449846D01*
X151251202Y-102449849D01*
X151240765Y-102516886D01*
X151230350Y-102583773D01*
X151231514Y-102592675D01*
X151231514Y-102592678D01*
X151243699Y-102685852D01*
X151249088Y-102727065D01*
X151307289Y-102859339D01*
X151313061Y-102866206D01*
X151313065Y-102866212D01*
X151379751Y-102945544D01*
X151408272Y-103010559D01*
X151409300Y-103026619D01*
X151409300Y-108161202D01*
X151389298Y-108229323D01*
X151377741Y-108244610D01*
X151363999Y-108260170D01*
X151302583Y-108390982D01*
X151301203Y-108399846D01*
X151301202Y-108399849D01*
X151282113Y-108522453D01*
X151280350Y-108533773D01*
X151281514Y-108542675D01*
X151281514Y-108542678D01*
X151292718Y-108628356D01*
X151299088Y-108677065D01*
X151357289Y-108809339D01*
X151363061Y-108816206D01*
X151363065Y-108816212D01*
X151429751Y-108895544D01*
X151458272Y-108960559D01*
X151459300Y-108976619D01*
X151459300Y-109253057D01*
X151439298Y-109321178D01*
X151415945Y-109347888D01*
X151409661Y-109351853D01*
X151313999Y-109460170D01*
X151310185Y-109468293D01*
X151310184Y-109468295D01*
X151297194Y-109495963D01*
X151252583Y-109590982D01*
X151251203Y-109599846D01*
X151251202Y-109599849D01*
X151232953Y-109717057D01*
X151230350Y-109733773D01*
X151231514Y-109742675D01*
X151231514Y-109742678D01*
X151244903Y-109845063D01*
X151249088Y-109877065D01*
X151307289Y-110009339D01*
X151400276Y-110119960D01*
X151407747Y-110124933D01*
X151407748Y-110124934D01*
X151513101Y-110195063D01*
X151513103Y-110195064D01*
X151520574Y-110200037D01*
X151529138Y-110202713D01*
X151529141Y-110202714D01*
X151575172Y-110217095D01*
X151658510Y-110243132D01*
X151802998Y-110245780D01*
X151822530Y-110240455D01*
X151933763Y-110210130D01*
X151933765Y-110210129D01*
X151942422Y-110207769D01*
X152065572Y-110132154D01*
X152162551Y-110025014D01*
X152225560Y-109894962D01*
X152249536Y-109752453D01*
X152249688Y-109740000D01*
X152229201Y-109596948D01*
X152218249Y-109572859D01*
X152212460Y-109560127D01*
X152169388Y-109465395D01*
X152163529Y-109458596D01*
X152163527Y-109458592D01*
X152151246Y-109444340D01*
X152121933Y-109379677D01*
X152120700Y-109362093D01*
X152120700Y-108975045D01*
X152140702Y-108906924D01*
X152153285Y-108890490D01*
X152206523Y-108831674D01*
X152206524Y-108831672D01*
X152212551Y-108825014D01*
X152216816Y-108816212D01*
X152271645Y-108703043D01*
X152271645Y-108703042D01*
X152275560Y-108694962D01*
X152299536Y-108552453D01*
X152299688Y-108540000D01*
X152283432Y-108426489D01*
X152280474Y-108405835D01*
X152280473Y-108405833D01*
X152279201Y-108396948D01*
X152219388Y-108265395D01*
X152213530Y-108258596D01*
X152213527Y-108258592D01*
X152154423Y-108190000D01*
X152125056Y-108155918D01*
X152117525Y-108151036D01*
X152113871Y-108147849D01*
X152075686Y-108087995D01*
X152070700Y-108052900D01*
X152070700Y-107864289D01*
X152090702Y-107796168D01*
X152144358Y-107749675D01*
X152214632Y-107739571D01*
X152265693Y-107758857D01*
X152299438Y-107780939D01*
X152458093Y-107839942D01*
X152465074Y-107840873D01*
X152465076Y-107840874D01*
X152618896Y-107861398D01*
X152618900Y-107861398D01*
X152625877Y-107862329D01*
X152632888Y-107861691D01*
X152632892Y-107861691D01*
X152787430Y-107847627D01*
X152794451Y-107846988D01*
X152955437Y-107794680D01*
X153059943Y-107732382D01*
X153094782Y-107711614D01*
X153094784Y-107711613D01*
X153100834Y-107708006D01*
X153223416Y-107591274D01*
X153229446Y-107582199D01*
X153277552Y-107509793D01*
X153331910Y-107464122D01*
X153402329Y-107455090D01*
X153466453Y-107485563D01*
X153503923Y-107545867D01*
X153508500Y-107579520D01*
X153508500Y-110235865D01*
X153505914Y-110260164D01*
X153505846Y-110261602D01*
X153503655Y-110271780D01*
X153504879Y-110282120D01*
X153507627Y-110305342D01*
X153507979Y-110311320D01*
X153508072Y-110311312D01*
X153508500Y-110316490D01*
X153508500Y-110321692D01*
X153510242Y-110332154D01*
X153511686Y-110340832D01*
X153512522Y-110346704D01*
X153518582Y-110397907D01*
X153522567Y-110406206D01*
X153524078Y-110415283D01*
X153548558Y-110460651D01*
X153551239Y-110465914D01*
X153570127Y-110505250D01*
X153570130Y-110505254D01*
X153573560Y-110512398D01*
X153577170Y-110516692D01*
X153579102Y-110518624D01*
X153580889Y-110520573D01*
X153580918Y-110520626D01*
X153580788Y-110520745D01*
X153581289Y-110521313D01*
X153584388Y-110527057D01*
X153614007Y-110554436D01*
X153624194Y-110563853D01*
X153627760Y-110567283D01*
X153836382Y-110775905D01*
X153870408Y-110838217D01*
X153865343Y-110909032D01*
X153836382Y-110954095D01*
X152358521Y-112431956D01*
X152339505Y-112447315D01*
X152338444Y-112448281D01*
X152329696Y-112453929D01*
X152323250Y-112462106D01*
X152308771Y-112480472D01*
X152304794Y-112484947D01*
X152304865Y-112485008D01*
X152301512Y-112488965D01*
X152297829Y-112492648D01*
X152294803Y-112496883D01*
X152294801Y-112496885D01*
X152286547Y-112508436D01*
X152282982Y-112513185D01*
X152261407Y-112540553D01*
X152251066Y-112553670D01*
X152248015Y-112562357D01*
X152242666Y-112569843D01*
X152239683Y-112579819D01*
X152239682Y-112579820D01*
X152227902Y-112619211D01*
X152226072Y-112624843D01*
X152208984Y-112673502D01*
X152208500Y-112679091D01*
X152208500Y-112681802D01*
X152208385Y-112684469D01*
X152208366Y-112684532D01*
X152208192Y-112684525D01*
X152208145Y-112685271D01*
X152206275Y-112691524D01*
X152206908Y-112707624D01*
X152208403Y-112745678D01*
X152208500Y-112750625D01*
X152208500Y-114038471D01*
X152188498Y-114106592D01*
X152170658Y-114128494D01*
X152091684Y-114205832D01*
X152053383Y-114243339D01*
X152049572Y-114249253D01*
X152049570Y-114249255D01*
X152024926Y-114287495D01*
X151961687Y-114385622D01*
X151952757Y-114410158D01*
X151906203Y-114538062D01*
X151906202Y-114538067D01*
X151903793Y-114544685D01*
X151882578Y-114712621D01*
X151899096Y-114881084D01*
X151952526Y-115041701D01*
X151956175Y-115047726D01*
X152033558Y-115175500D01*
X152040213Y-115186489D01*
X152045104Y-115191554D01*
X152045105Y-115191555D01*
X152103395Y-115251916D01*
X152157799Y-115308253D01*
X152299438Y-115400939D01*
X152458093Y-115459942D01*
X152465074Y-115460873D01*
X152465076Y-115460874D01*
X152618896Y-115481398D01*
X152618900Y-115481398D01*
X152625877Y-115482329D01*
X152632888Y-115481691D01*
X152632892Y-115481691D01*
X152787430Y-115467627D01*
X152794451Y-115466988D01*
X152955437Y-115414680D01*
X153068648Y-115347193D01*
X153094782Y-115331614D01*
X153094784Y-115331613D01*
X153100834Y-115328006D01*
X153223416Y-115211274D01*
X153236518Y-115191555D01*
X153267849Y-115144397D01*
X153322207Y-115098726D01*
X153392626Y-115089694D01*
X153456750Y-115120167D01*
X153469248Y-115133048D01*
X153500276Y-115169960D01*
X153507747Y-115174933D01*
X153507748Y-115174934D01*
X153613101Y-115245063D01*
X153613103Y-115245064D01*
X153620574Y-115250037D01*
X153629138Y-115252713D01*
X153629141Y-115252714D01*
X153667935Y-115264834D01*
X153758510Y-115293132D01*
X153902998Y-115295780D01*
X153922530Y-115290455D01*
X154033763Y-115260130D01*
X154033765Y-115260129D01*
X154042422Y-115257769D01*
X154165572Y-115182154D01*
X154262551Y-115075014D01*
X154272651Y-115054168D01*
X154320351Y-115001586D01*
X154388909Y-114983140D01*
X154456557Y-115004687D01*
X154493818Y-115043835D01*
X154574057Y-115176325D01*
X154580213Y-115186489D01*
X154585104Y-115191554D01*
X154585105Y-115191555D01*
X154643395Y-115251916D01*
X154697799Y-115308253D01*
X154839438Y-115400939D01*
X154998093Y-115459942D01*
X155005074Y-115460873D01*
X155005076Y-115460874D01*
X155158896Y-115481398D01*
X155158900Y-115481398D01*
X155165877Y-115482329D01*
X155172888Y-115481691D01*
X155172892Y-115481691D01*
X155327430Y-115467627D01*
X155334451Y-115466988D01*
X155495437Y-115414680D01*
X155640834Y-115328006D01*
X155641786Y-115327100D01*
X155706021Y-115302653D01*
X155775494Y-115317282D01*
X155812297Y-115347193D01*
X155890276Y-115439960D01*
X155897747Y-115444933D01*
X155897748Y-115444934D01*
X155987403Y-115504613D01*
X156033026Y-115559010D01*
X156041997Y-115629438D01*
X156011467Y-115693535D01*
X155951131Y-115730952D01*
X155917584Y-115735500D01*
X144492254Y-115735500D01*
X144424133Y-115715498D01*
X144377640Y-115661842D01*
X144369076Y-115636020D01*
X144353954Y-115565780D01*
X144329596Y-115452643D01*
X144322084Y-115432281D01*
X144317272Y-115361448D01*
X144351519Y-115299257D01*
X144413952Y-115265455D01*
X144484749Y-115270772D01*
X144527382Y-115298808D01*
X144527476Y-115298694D01*
X144528511Y-115299551D01*
X144530933Y-115301143D01*
X144537799Y-115308253D01*
X144679438Y-115400939D01*
X144838093Y-115459942D01*
X144845074Y-115460873D01*
X144845076Y-115460874D01*
X144998896Y-115481398D01*
X144998900Y-115481398D01*
X145005877Y-115482329D01*
X145012888Y-115481691D01*
X145012892Y-115481691D01*
X145167430Y-115467627D01*
X145174451Y-115466988D01*
X145335437Y-115414680D01*
X145448648Y-115347193D01*
X145474782Y-115331614D01*
X145474784Y-115331613D01*
X145480834Y-115328006D01*
X145603416Y-115211274D01*
X145612639Y-115197393D01*
X145693188Y-115076157D01*
X145693191Y-115076152D01*
X145697089Y-115070285D01*
X145757198Y-114912046D01*
X145772600Y-114802453D01*
X145780205Y-114748345D01*
X145780205Y-114748340D01*
X145780756Y-114744422D01*
X145781052Y-114723222D01*
X145772455Y-114646579D01*
X145762969Y-114562002D01*
X145762968Y-114561999D01*
X145762184Y-114555006D01*
X145706516Y-114395151D01*
X145616816Y-114251601D01*
X145608772Y-114243500D01*
X145542051Y-114176312D01*
X145497542Y-114131491D01*
X145491591Y-114127714D01*
X145428444Y-114087640D01*
X145354622Y-114040791D01*
X145303359Y-114022537D01*
X145201794Y-113986371D01*
X145201789Y-113986370D01*
X145195159Y-113984009D01*
X145188173Y-113983176D01*
X145188169Y-113983175D01*
X145069065Y-113968973D01*
X145027079Y-113963967D01*
X145020076Y-113964703D01*
X145020075Y-113964703D01*
X144865743Y-113980923D01*
X144865739Y-113980924D01*
X144858735Y-113981660D01*
X144852064Y-113983931D01*
X144705165Y-114033939D01*
X144705162Y-114033940D01*
X144698495Y-114036210D01*
X144692497Y-114039900D01*
X144692495Y-114039901D01*
X144560321Y-114121215D01*
X144560319Y-114121217D01*
X144554322Y-114124906D01*
X144433383Y-114243339D01*
X144429572Y-114249253D01*
X144429570Y-114249255D01*
X144404926Y-114287495D01*
X144341687Y-114385622D01*
X144332757Y-114410158D01*
X144286203Y-114538062D01*
X144286202Y-114538067D01*
X144283793Y-114544685D01*
X144262578Y-114712621D01*
X144269685Y-114785099D01*
X144256426Y-114854846D01*
X144207563Y-114906354D01*
X144138611Y-114923267D01*
X144071460Y-114900217D01*
X144042935Y-114872255D01*
X144030077Y-114854846D01*
X143944597Y-114739116D01*
X143753735Y-114545231D01*
X143746541Y-114539740D01*
X143590072Y-114420328D01*
X143537458Y-114380174D01*
X143532501Y-114377398D01*
X143303968Y-114249413D01*
X143303965Y-114249412D01*
X143300082Y-114247237D01*
X143295943Y-114245636D01*
X143295935Y-114245632D01*
X143101320Y-114170342D01*
X143046343Y-114149073D01*
X143042018Y-114148070D01*
X143042013Y-114148069D01*
X142832049Y-114099402D01*
X142770204Y-114064535D01*
X142737027Y-114001766D01*
X142734500Y-113976656D01*
X142734500Y-106213773D01*
X143870350Y-106213773D01*
X143871514Y-106222675D01*
X143871514Y-106222678D01*
X143887625Y-106345876D01*
X143889088Y-106357065D01*
X143947289Y-106489339D01*
X144040276Y-106599960D01*
X144047747Y-106604933D01*
X144047748Y-106604934D01*
X144153101Y-106675063D01*
X144153103Y-106675064D01*
X144160574Y-106680037D01*
X144169138Y-106682713D01*
X144169143Y-106682715D01*
X144225203Y-106700229D01*
X144284260Y-106739635D01*
X144312637Y-106804714D01*
X144306030Y-106863588D01*
X144283793Y-106924685D01*
X144262578Y-107092621D01*
X144279096Y-107261084D01*
X144332526Y-107421701D01*
X144336175Y-107427726D01*
X144405277Y-107541826D01*
X144420213Y-107566489D01*
X144425104Y-107571554D01*
X144425105Y-107571555D01*
X144450700Y-107598059D01*
X144537799Y-107688253D01*
X144679438Y-107780939D01*
X144838093Y-107839942D01*
X144845074Y-107840873D01*
X144845076Y-107840874D01*
X144998896Y-107861398D01*
X144998900Y-107861398D01*
X145005877Y-107862329D01*
X145012888Y-107861691D01*
X145012891Y-107861691D01*
X145071559Y-107856352D01*
X145166415Y-107847719D01*
X145236067Y-107861464D01*
X145287231Y-107910685D01*
X145303662Y-107979754D01*
X145302333Y-107992585D01*
X145281731Y-108124900D01*
X145281731Y-108124904D01*
X145280350Y-108133773D01*
X145281514Y-108142675D01*
X145281514Y-108142678D01*
X145292749Y-108228592D01*
X145299088Y-108277065D01*
X145357289Y-108409339D01*
X145450276Y-108519960D01*
X145457747Y-108524933D01*
X145463941Y-108530471D01*
X145501392Y-108590786D01*
X145500289Y-108661775D01*
X145474400Y-108707810D01*
X145383999Y-108810170D01*
X145380185Y-108818293D01*
X145380184Y-108818295D01*
X145374658Y-108830065D01*
X145322583Y-108940982D01*
X145321203Y-108949846D01*
X145321202Y-108949849D01*
X145302609Y-109069267D01*
X145300350Y-109083773D01*
X145303736Y-109109663D01*
X145292737Y-109179801D01*
X145245563Y-109232859D01*
X145213430Y-109247148D01*
X145151879Y-109264739D01*
X145144292Y-109269526D01*
X145144290Y-109269527D01*
X145037254Y-109337062D01*
X145029661Y-109341853D01*
X145023718Y-109348582D01*
X145023717Y-109348583D01*
X144980851Y-109397120D01*
X144933999Y-109450170D01*
X144930185Y-109458293D01*
X144930184Y-109458295D01*
X144912499Y-109495963D01*
X144872583Y-109580982D01*
X144871203Y-109589846D01*
X144871202Y-109589849D01*
X144852207Y-109711849D01*
X144850350Y-109723773D01*
X144851514Y-109732675D01*
X144851514Y-109732678D01*
X144863799Y-109826619D01*
X144869088Y-109867065D01*
X144927289Y-109999339D01*
X144933063Y-110006208D01*
X145014462Y-110103043D01*
X145020276Y-110109960D01*
X145027747Y-110114933D01*
X145027748Y-110114934D01*
X145105523Y-110166705D01*
X145140574Y-110190037D01*
X145140724Y-110190084D01*
X145190293Y-110234502D01*
X145209158Y-110302947D01*
X145207675Y-110320233D01*
X145202342Y-110354486D01*
X145199790Y-110370873D01*
X145200954Y-110379775D01*
X145200954Y-110379778D01*
X145215584Y-110491649D01*
X145218528Y-110514165D01*
X145276729Y-110646439D01*
X145282503Y-110653308D01*
X145350625Y-110734348D01*
X145369716Y-110757060D01*
X145377187Y-110762033D01*
X145377188Y-110762034D01*
X145482541Y-110832163D01*
X145482543Y-110832164D01*
X145490014Y-110837137D01*
X145498578Y-110839813D01*
X145498581Y-110839814D01*
X145530167Y-110849682D01*
X145627950Y-110880232D01*
X145772438Y-110882880D01*
X145791970Y-110877555D01*
X145903203Y-110847230D01*
X145903205Y-110847229D01*
X145911862Y-110844869D01*
X146035012Y-110769254D01*
X146041033Y-110762602D01*
X146041038Y-110762598D01*
X146070341Y-110730224D01*
X146130884Y-110693143D01*
X146201864Y-110694680D01*
X146260745Y-110734348D01*
X146288833Y-110799552D01*
X146289756Y-110814779D01*
X146289756Y-111850507D01*
X146289277Y-111861488D01*
X146285932Y-111899723D01*
X146295865Y-111936795D01*
X146298240Y-111947509D01*
X146304905Y-111985307D01*
X146310416Y-111994852D01*
X146311687Y-111998345D01*
X146313262Y-112001723D01*
X146316116Y-112012372D01*
X146322440Y-112021403D01*
X146322441Y-112021406D01*
X146338129Y-112043811D01*
X146344034Y-112053080D01*
X146344613Y-112054083D01*
X146363217Y-112086305D01*
X146371660Y-112093389D01*
X146371662Y-112093392D01*
X146392620Y-112110978D01*
X146400724Y-112118404D01*
X146422395Y-112140075D01*
X146456421Y-112202387D01*
X146459300Y-112229170D01*
X146459300Y-113550828D01*
X146439298Y-113618949D01*
X146422396Y-113639923D01*
X146351618Y-113710702D01*
X146343513Y-113718129D01*
X146334661Y-113725557D01*
X146314116Y-113742796D01*
X146305170Y-113758291D01*
X146294933Y-113776021D01*
X146289028Y-113785290D01*
X146273340Y-113807695D01*
X146273339Y-113807698D01*
X146267015Y-113816729D01*
X146264161Y-113827378D01*
X146262586Y-113830756D01*
X146261315Y-113834249D01*
X146255804Y-113843794D01*
X146253890Y-113854647D01*
X146253890Y-113854648D01*
X146249140Y-113881588D01*
X146246764Y-113892306D01*
X146236831Y-113929378D01*
X146237791Y-113940353D01*
X146237791Y-113940354D01*
X146240176Y-113967613D01*
X146240655Y-113978594D01*
X146240655Y-114456332D01*
X146220653Y-114524453D01*
X146209097Y-114539739D01*
X146145354Y-114611914D01*
X146141540Y-114620037D01*
X146141539Y-114620039D01*
X146127126Y-114650738D01*
X146083938Y-114742726D01*
X146082558Y-114751590D01*
X146082557Y-114751593D01*
X146063487Y-114874075D01*
X146061705Y-114885517D01*
X146062869Y-114894419D01*
X146062869Y-114894422D01*
X146076063Y-114995315D01*
X146080443Y-115028809D01*
X146138644Y-115161083D01*
X146144418Y-115167952D01*
X146195987Y-115229300D01*
X146231631Y-115271704D01*
X146239102Y-115276677D01*
X146239103Y-115276678D01*
X146344456Y-115346807D01*
X146344458Y-115346808D01*
X146351929Y-115351781D01*
X146360493Y-115354457D01*
X146360496Y-115354458D01*
X146420897Y-115373328D01*
X146489865Y-115394876D01*
X146634353Y-115397524D01*
X146653885Y-115392199D01*
X146765118Y-115361874D01*
X146765120Y-115361873D01*
X146773777Y-115359513D01*
X146833765Y-115322680D01*
X146889275Y-115288597D01*
X146889278Y-115288595D01*
X146896927Y-115283898D01*
X146897322Y-115283462D01*
X146958633Y-115257010D01*
X147028678Y-115268593D01*
X147064568Y-115294552D01*
X147077799Y-115308253D01*
X147219438Y-115400939D01*
X147378093Y-115459942D01*
X147385074Y-115460873D01*
X147385076Y-115460874D01*
X147538896Y-115481398D01*
X147538900Y-115481398D01*
X147545877Y-115482329D01*
X147552888Y-115481691D01*
X147552892Y-115481691D01*
X147707430Y-115467627D01*
X147714451Y-115466988D01*
X147875437Y-115414680D01*
X147988648Y-115347193D01*
X148014782Y-115331614D01*
X148014784Y-115331613D01*
X148020834Y-115328006D01*
X148143416Y-115211274D01*
X148156518Y-115191555D01*
X148233191Y-115076152D01*
X148237089Y-115070285D01*
X148237785Y-115070747D01*
X148282764Y-115023458D01*
X148345898Y-115006500D01*
X148950865Y-115006500D01*
X148975164Y-115009086D01*
X148976602Y-115009154D01*
X148986780Y-115011345D01*
X149020341Y-115007373D01*
X149026320Y-115007021D01*
X149026312Y-115006928D01*
X149031490Y-115006500D01*
X149036692Y-115006500D01*
X149055846Y-115003312D01*
X149061704Y-115002478D01*
X149078318Y-115000512D01*
X149102567Y-114997642D01*
X149102568Y-114997642D01*
X149112907Y-114996418D01*
X149121206Y-114992433D01*
X149130283Y-114990922D01*
X149175651Y-114966442D01*
X149180914Y-114963761D01*
X149220250Y-114944873D01*
X149220254Y-114944870D01*
X149227398Y-114941440D01*
X149231692Y-114937830D01*
X149233624Y-114935898D01*
X149235573Y-114934111D01*
X149235626Y-114934082D01*
X149235745Y-114934212D01*
X149236313Y-114933711D01*
X149242057Y-114930612D01*
X149278853Y-114890806D01*
X149282283Y-114887239D01*
X149621483Y-114548040D01*
X149640494Y-114532686D01*
X149641556Y-114531720D01*
X149650304Y-114526071D01*
X149656748Y-114517896D01*
X149656751Y-114517894D01*
X149671229Y-114499528D01*
X149675208Y-114495050D01*
X149675137Y-114494990D01*
X149678490Y-114491033D01*
X149682171Y-114487352D01*
X149693469Y-114471543D01*
X149697032Y-114466798D01*
X149701450Y-114461193D01*
X149728934Y-114426330D01*
X149731984Y-114417645D01*
X149737334Y-114410158D01*
X149752109Y-114360753D01*
X149753930Y-114355150D01*
X149762929Y-114329527D01*
X149771016Y-114306498D01*
X149771500Y-114300909D01*
X149771500Y-114298196D01*
X149771615Y-114295531D01*
X149771634Y-114295468D01*
X149771808Y-114295475D01*
X149771855Y-114294729D01*
X149773725Y-114288476D01*
X149771597Y-114234322D01*
X149771500Y-114229375D01*
X149771500Y-112805356D01*
X149791502Y-112737235D01*
X149845158Y-112690742D01*
X149915432Y-112680638D01*
X149975514Y-112708964D01*
X149976266Y-112707907D01*
X149982168Y-112712101D01*
X149982301Y-112712164D01*
X149988076Y-112717419D01*
X150127293Y-112793008D01*
X150280522Y-112833207D01*
X150364477Y-112834526D01*
X150431319Y-112835576D01*
X150431322Y-112835576D01*
X150438916Y-112835695D01*
X150593332Y-112800329D01*
X150683094Y-112755184D01*
X150728072Y-112732563D01*
X150728075Y-112732561D01*
X150734855Y-112729151D01*
X150740626Y-112724222D01*
X150740629Y-112724220D01*
X150849536Y-112631204D01*
X150849536Y-112631203D01*
X150855314Y-112626269D01*
X150947755Y-112497624D01*
X151006842Y-112350641D01*
X151025864Y-112216980D01*
X151028581Y-112197891D01*
X151028581Y-112197888D01*
X151029162Y-112193807D01*
X151029307Y-112180000D01*
X151028686Y-112174864D01*
X151021853Y-112118404D01*
X151010276Y-112022733D01*
X150954280Y-111874546D01*
X150935833Y-111847705D01*
X150868855Y-111750251D01*
X150868854Y-111750249D01*
X150864553Y-111743992D01*
X150746275Y-111638611D01*
X150724469Y-111627065D01*
X150606274Y-111564484D01*
X150607490Y-111562188D01*
X150560912Y-111526617D01*
X150536741Y-111459862D01*
X150536501Y-111452081D01*
X150536501Y-102035371D01*
X150536856Y-102029726D01*
X150538726Y-102023474D01*
X150536598Y-101969310D01*
X150536501Y-101964364D01*
X150536501Y-101698809D01*
X150556503Y-101630688D01*
X150609459Y-101585241D01*
X150609387Y-101585112D01*
X150610029Y-101584753D01*
X150610031Y-101584751D01*
X150614429Y-101582288D01*
X150614432Y-101582287D01*
X150716755Y-101524983D01*
X150786498Y-101485925D01*
X150790945Y-101482227D01*
X150938135Y-101359809D01*
X150942567Y-101356123D01*
X150999924Y-101287159D01*
X151068675Y-101204496D01*
X151068677Y-101204493D01*
X151072369Y-101200054D01*
X151153546Y-101055102D01*
X151168732Y-101027986D01*
X151168733Y-101027984D01*
X151171556Y-101022943D01*
X151173412Y-101017476D01*
X151173414Y-101017471D01*
X151234950Y-100836192D01*
X151234951Y-100836187D01*
X151236806Y-100830723D01*
X151237634Y-100825014D01*
X151237635Y-100825009D01*
X151265401Y-100633505D01*
X151265934Y-100629831D01*
X151267454Y-100571778D01*
X151248880Y-100369637D01*
X151246826Y-100362354D01*
X151195347Y-100179824D01*
X151195346Y-100179822D01*
X151193779Y-100174265D01*
X151183200Y-100152811D01*
X151106553Y-99997387D01*
X151103998Y-99992206D01*
X150982542Y-99829557D01*
X150833480Y-99691765D01*
X150828597Y-99688684D01*
X150828593Y-99688681D01*
X150666686Y-99586526D01*
X150661803Y-99583445D01*
X150473261Y-99508224D01*
X150467601Y-99507098D01*
X150467597Y-99507097D01*
X150279835Y-99469749D01*
X150279832Y-99469749D01*
X150274168Y-99468622D01*
X150268393Y-99468546D01*
X150268389Y-99468546D01*
X150167015Y-99467219D01*
X150071193Y-99465965D01*
X150065496Y-99466944D01*
X150065495Y-99466944D01*
X149881002Y-99498646D01*
X149871132Y-99500342D01*
X149680685Y-99570602D01*
X149506232Y-99674390D01*
X149501892Y-99678196D01*
X149501888Y-99678199D01*
X149382924Y-99782529D01*
X149353614Y-99808233D01*
X149350039Y-99812768D01*
X149350038Y-99812769D01*
X149347235Y-99816325D01*
X149227942Y-99967647D01*
X149225253Y-99972758D01*
X149225251Y-99972761D01*
X149182788Y-100053470D01*
X149133425Y-100147293D01*
X149073229Y-100341156D01*
X149049370Y-100542742D01*
X149062646Y-100745300D01*
X149064067Y-100750896D01*
X149064068Y-100750901D01*
X149084341Y-100830723D01*
X149112614Y-100942047D01*
X149115031Y-100947290D01*
X149176779Y-101081232D01*
X149197599Y-101126394D01*
X149200932Y-101131110D01*
X149311216Y-101287159D01*
X149314755Y-101292167D01*
X149318897Y-101296202D01*
X149344764Y-101321400D01*
X149417472Y-101392228D01*
X149417490Y-101392246D01*
X149452328Y-101454107D01*
X149448191Y-101524983D01*
X149406392Y-101582371D01*
X149340203Y-101608050D01*
X149329569Y-101608500D01*
X148844098Y-101608500D01*
X148775977Y-101588498D01*
X148729484Y-101534842D01*
X148720520Y-101457916D01*
X148721515Y-101452916D01*
X148721516Y-101452910D01*
X148722722Y-101446845D01*
X148722721Y-100048991D01*
X148742723Y-99980870D01*
X148759626Y-99959896D01*
X150946117Y-97773405D01*
X151008429Y-97739379D01*
X151035212Y-97736500D01*
X151860210Y-97736500D01*
X151928331Y-97756502D01*
X151967986Y-97797229D01*
X152017828Y-97879527D01*
X152040213Y-97916489D01*
X152045104Y-97921554D01*
X152045105Y-97921555D01*
X152086478Y-97964398D01*
X152157799Y-98038253D01*
X152299438Y-98130939D01*
X152458093Y-98189942D01*
X152465074Y-98190873D01*
X152465076Y-98190874D01*
X152618896Y-98211398D01*
X152618900Y-98211398D01*
X152625877Y-98212329D01*
X152632888Y-98211691D01*
X152632892Y-98211691D01*
X152787430Y-98197627D01*
X152794451Y-98196988D01*
X152955437Y-98144680D01*
X153052194Y-98087001D01*
X153094782Y-98061614D01*
X153094784Y-98061613D01*
X153100834Y-98058006D01*
X153223416Y-97941274D01*
X153234522Y-97924558D01*
X153313188Y-97806157D01*
X153313189Y-97806155D01*
X153317089Y-97800285D01*
X153377198Y-97642046D01*
X153400756Y-97474422D01*
X153401052Y-97453222D01*
X153382184Y-97285006D01*
X153326516Y-97125151D01*
X153236816Y-96981601D01*
X153229620Y-96974354D01*
X153122504Y-96866488D01*
X153117542Y-96861491D01*
X152974622Y-96770791D01*
X152923123Y-96752453D01*
X152821794Y-96716371D01*
X152821789Y-96716370D01*
X152815159Y-96714009D01*
X152808173Y-96713176D01*
X152808169Y-96713175D01*
X152689065Y-96698973D01*
X152647079Y-96693967D01*
X152640076Y-96694703D01*
X152640075Y-96694703D01*
X152485743Y-96710923D01*
X152485739Y-96710924D01*
X152478735Y-96711660D01*
X152472064Y-96713931D01*
X152325165Y-96763939D01*
X152325162Y-96763940D01*
X152318495Y-96766210D01*
X152312497Y-96769900D01*
X152312495Y-96769901D01*
X152180321Y-96851215D01*
X152180319Y-96851217D01*
X152174322Y-96854906D01*
X152100636Y-96927065D01*
X152089957Y-96937523D01*
X152027292Y-96970894D01*
X152001799Y-96973500D01*
X150879140Y-96973500D01*
X150854824Y-96970913D01*
X150853401Y-96970846D01*
X150843220Y-96968654D01*
X150809681Y-96972624D01*
X150809652Y-96972627D01*
X150803678Y-96972979D01*
X150803686Y-96973072D01*
X150798508Y-96973500D01*
X150793308Y-96973500D01*
X150788179Y-96974354D01*
X150788176Y-96974354D01*
X150774165Y-96976686D01*
X150768286Y-96977523D01*
X150727433Y-96982358D01*
X150727432Y-96982358D01*
X150717093Y-96983582D01*
X150708794Y-96987567D01*
X150699717Y-96989078D01*
X150654376Y-97013543D01*
X150649083Y-97016240D01*
X150609749Y-97035127D01*
X150609745Y-97035129D01*
X150602603Y-97038559D01*
X150598308Y-97042169D01*
X150596381Y-97044096D01*
X150594424Y-97045891D01*
X150594366Y-97045922D01*
X150594248Y-97045793D01*
X150593684Y-97046290D01*
X150587943Y-97049388D01*
X150580874Y-97057035D01*
X150580873Y-97057036D01*
X150551146Y-97089195D01*
X150547716Y-97092761D01*
X148406022Y-99234455D01*
X148343710Y-99268481D01*
X148272895Y-99263416D01*
X148216059Y-99220869D01*
X148191248Y-99154349D01*
X148203535Y-99090422D01*
X148221645Y-99053043D01*
X148221645Y-99053042D01*
X148225560Y-99044962D01*
X148249536Y-98902453D01*
X148249612Y-98896227D01*
X148249629Y-98894860D01*
X148249629Y-98894856D01*
X148249688Y-98890000D01*
X148234243Y-98782154D01*
X148230474Y-98755835D01*
X148230473Y-98755833D01*
X148229201Y-98746948D01*
X148169388Y-98615395D01*
X148163530Y-98608596D01*
X148163527Y-98608592D01*
X148080916Y-98512718D01*
X148080913Y-98512716D01*
X148075056Y-98505918D01*
X147984253Y-98447062D01*
X147961324Y-98432200D01*
X147961322Y-98432199D01*
X147953790Y-98427317D01*
X147936440Y-98422128D01*
X147846176Y-98395133D01*
X147786643Y-98356451D01*
X147757473Y-98291723D01*
X147767929Y-98221501D01*
X147814689Y-98168079D01*
X147843342Y-98154583D01*
X147868532Y-98146398D01*
X147873466Y-98144160D01*
X147880747Y-98136308D01*
X147877242Y-98127896D01*
X147574590Y-97825244D01*
X147560646Y-97817630D01*
X147558813Y-97817761D01*
X147552198Y-97822012D01*
X147250011Y-98124199D01*
X147243251Y-98136579D01*
X147246034Y-98140297D01*
X147371613Y-98186999D01*
X147385198Y-98190386D01*
X147468322Y-98201477D01*
X147533198Y-98230313D01*
X147572186Y-98289646D01*
X147572907Y-98360639D01*
X147535132Y-98420752D01*
X147518893Y-98432931D01*
X147417258Y-98497058D01*
X147417251Y-98497064D01*
X147409661Y-98501853D01*
X147403718Y-98508582D01*
X147403717Y-98508583D01*
X147353867Y-98565028D01*
X147313999Y-98610170D01*
X147310185Y-98618293D01*
X147310184Y-98618295D01*
X147294192Y-98652358D01*
X147252583Y-98740982D01*
X147251203Y-98749846D01*
X147251202Y-98749849D01*
X147231802Y-98874449D01*
X147230350Y-98883773D01*
X147231514Y-98892675D01*
X147231514Y-98892678D01*
X147243099Y-98981267D01*
X147249088Y-99027065D01*
X147307289Y-99159339D01*
X147313061Y-99166206D01*
X147313065Y-99166212D01*
X147392074Y-99260204D01*
X147420595Y-99325219D01*
X147409439Y-99395334D01*
X147362147Y-99448286D01*
X147295624Y-99467279D01*
X146743156Y-99467279D01*
X146707404Y-99474390D01*
X146681096Y-99479622D01*
X146681094Y-99479623D01*
X146668921Y-99482044D01*
X146658601Y-99488939D01*
X146658600Y-99488940D01*
X146625985Y-99510733D01*
X146584738Y-99538294D01*
X146577845Y-99548610D01*
X146552294Y-99586850D01*
X146528488Y-99622477D01*
X146513722Y-99696711D01*
X146513723Y-100568083D01*
X146513723Y-101116969D01*
X146493721Y-101185090D01*
X146440065Y-101231583D01*
X146369791Y-101241687D01*
X146303905Y-101211046D01*
X146261951Y-101173667D01*
X146261945Y-101173663D01*
X146256275Y-101168611D01*
X146248889Y-101164700D01*
X146176541Y-101126394D01*
X146116274Y-101094484D01*
X145962633Y-101055892D01*
X145955034Y-101055852D01*
X145955033Y-101055852D01*
X145889181Y-101055507D01*
X145804221Y-101055062D01*
X145796841Y-101056834D01*
X145796839Y-101056834D01*
X145657563Y-101090271D01*
X145657560Y-101090272D01*
X145650184Y-101092043D01*
X145509414Y-101164700D01*
X145390039Y-101268838D01*
X145298950Y-101398444D01*
X145280080Y-101446844D01*
X145245771Y-101534842D01*
X145241406Y-101546037D01*
X145240414Y-101553570D01*
X145240414Y-101553571D01*
X145221821Y-101694804D01*
X145220729Y-101703096D01*
X145225461Y-101745952D01*
X145232628Y-101810868D01*
X145238113Y-101860553D01*
X145240723Y-101867684D01*
X145240723Y-101867686D01*
X145281651Y-101979527D01*
X145292553Y-102009319D01*
X145296789Y-102015622D01*
X145296789Y-102015623D01*
X145375126Y-102132200D01*
X145380908Y-102140805D01*
X145386527Y-102145918D01*
X145386528Y-102145919D01*
X145492460Y-102242309D01*
X145498076Y-102247419D01*
X145637293Y-102323008D01*
X145790522Y-102363207D01*
X145874477Y-102364526D01*
X145941319Y-102365576D01*
X145941322Y-102365576D01*
X145948916Y-102365695D01*
X145956320Y-102363999D01*
X145956322Y-102363999D01*
X145991751Y-102355885D01*
X146061626Y-102359822D01*
X146093502Y-102371016D01*
X146099091Y-102371500D01*
X146101802Y-102371500D01*
X146104469Y-102371615D01*
X146104532Y-102371634D01*
X146104525Y-102371808D01*
X146105271Y-102371855D01*
X146111524Y-102373725D01*
X146165688Y-102371597D01*
X146170634Y-102371500D01*
X146316265Y-102371500D01*
X146384386Y-102391502D01*
X146430879Y-102445158D01*
X146440765Y-102516884D01*
X146430350Y-102583773D01*
X146430397Y-102584135D01*
X146410835Y-102647864D01*
X146394773Y-102667547D01*
X146270268Y-102792052D01*
X146262164Y-102799478D01*
X146241206Y-102817064D01*
X146241204Y-102817067D01*
X146232761Y-102824151D01*
X146220874Y-102844739D01*
X146213578Y-102857376D01*
X146207673Y-102866645D01*
X146191985Y-102889050D01*
X146191984Y-102889053D01*
X146185660Y-102898084D01*
X146182806Y-102908733D01*
X146181231Y-102912111D01*
X146179960Y-102915604D01*
X146174449Y-102925149D01*
X146172535Y-102936002D01*
X146172535Y-102936003D01*
X146171126Y-102943997D01*
X146167926Y-102962146D01*
X146167785Y-102962943D01*
X146165409Y-102973661D01*
X146155476Y-103010733D01*
X146156436Y-103021708D01*
X146156436Y-103021709D01*
X146158821Y-103048968D01*
X146159300Y-103059949D01*
X146159300Y-103681395D01*
X146139298Y-103749516D01*
X146085642Y-103796009D01*
X146016489Y-103805755D01*
X146011409Y-103804236D01*
X146002433Y-103804181D01*
X146002432Y-103804181D01*
X145940060Y-103803801D01*
X145866899Y-103803354D01*
X145858268Y-103805821D01*
X145858266Y-103805821D01*
X145736581Y-103840598D01*
X145736577Y-103840600D01*
X145727951Y-103843065D01*
X145720364Y-103847852D01*
X145720362Y-103847853D01*
X145613326Y-103915388D01*
X145605733Y-103920179D01*
X145599790Y-103926908D01*
X145599789Y-103926909D01*
X145540538Y-103993999D01*
X145510071Y-104028496D01*
X145448655Y-104159308D01*
X145433080Y-104259339D01*
X145432978Y-104259995D01*
X145402734Y-104324227D01*
X145342564Y-104361912D01*
X145266212Y-104359309D01*
X145201797Y-104336372D01*
X145201791Y-104336371D01*
X145195159Y-104334009D01*
X145188173Y-104333176D01*
X145188169Y-104333175D01*
X145069065Y-104318973D01*
X145027079Y-104313967D01*
X145020076Y-104314703D01*
X145020075Y-104314703D01*
X144865743Y-104330923D01*
X144865739Y-104330924D01*
X144858735Y-104331660D01*
X144852064Y-104333931D01*
X144705165Y-104383939D01*
X144705162Y-104383940D01*
X144698495Y-104386210D01*
X144692497Y-104389900D01*
X144692495Y-104389901D01*
X144560321Y-104471215D01*
X144560319Y-104471217D01*
X144554322Y-104474906D01*
X144497649Y-104530405D01*
X144438480Y-104588348D01*
X144433383Y-104593339D01*
X144429572Y-104599253D01*
X144429570Y-104599255D01*
X144389025Y-104662169D01*
X144341687Y-104735622D01*
X144338219Y-104745151D01*
X144286203Y-104888062D01*
X144286202Y-104888067D01*
X144283793Y-104894685D01*
X144262578Y-105062621D01*
X144279096Y-105231084D01*
X144332526Y-105391701D01*
X144336175Y-105397726D01*
X144336177Y-105397730D01*
X144413029Y-105524628D01*
X144431208Y-105593257D01*
X144409398Y-105660821D01*
X144354522Y-105705867D01*
X144322356Y-105714733D01*
X144319803Y-105715083D01*
X144310827Y-105715028D01*
X144302196Y-105717495D01*
X144302194Y-105717495D01*
X144180509Y-105752272D01*
X144180505Y-105752274D01*
X144171879Y-105754739D01*
X144164292Y-105759526D01*
X144164290Y-105759527D01*
X144057254Y-105827062D01*
X144049661Y-105831853D01*
X144043718Y-105838582D01*
X144043717Y-105838583D01*
X143995109Y-105893622D01*
X143953999Y-105940170D01*
X143950185Y-105948293D01*
X143950184Y-105948295D01*
X143938918Y-105972292D01*
X143892583Y-106070982D01*
X143891203Y-106079846D01*
X143891202Y-106079849D01*
X143871829Y-106204275D01*
X143870350Y-106213773D01*
X142734500Y-106213773D01*
X142734500Y-105378896D01*
X142754502Y-105310775D01*
X142808158Y-105264282D01*
X142878432Y-105254178D01*
X142898074Y-105258629D01*
X143008510Y-105293132D01*
X143152998Y-105295780D01*
X143212647Y-105279518D01*
X143283763Y-105260130D01*
X143283765Y-105260129D01*
X143292422Y-105257769D01*
X143415572Y-105182154D01*
X143512551Y-105075014D01*
X143575560Y-104944962D01*
X143599536Y-104802453D01*
X143599688Y-104790000D01*
X143585337Y-104689794D01*
X143580474Y-104655835D01*
X143580473Y-104655833D01*
X143579201Y-104646948D01*
X143571840Y-104630757D01*
X143561757Y-104608582D01*
X143519388Y-104515395D01*
X143513530Y-104508596D01*
X143513527Y-104508592D01*
X143451247Y-104436314D01*
X143421933Y-104371652D01*
X143420700Y-104354066D01*
X143420700Y-98833773D01*
X145380350Y-98833773D01*
X145381514Y-98842675D01*
X145381514Y-98842678D01*
X145394399Y-98941206D01*
X145399088Y-98977065D01*
X145457289Y-99109339D01*
X145463063Y-99116208D01*
X145544378Y-99212943D01*
X145550276Y-99219960D01*
X145557747Y-99224933D01*
X145557748Y-99224934D01*
X145663101Y-99295063D01*
X145663103Y-99295064D01*
X145670574Y-99300037D01*
X145679138Y-99302713D01*
X145679141Y-99302714D01*
X145723767Y-99316656D01*
X145808510Y-99343132D01*
X145952998Y-99345780D01*
X145964978Y-99342514D01*
X146083763Y-99310130D01*
X146083765Y-99310129D01*
X146092422Y-99307769D01*
X146215572Y-99232154D01*
X146312551Y-99125014D01*
X146347420Y-99053043D01*
X146371645Y-99003043D01*
X146371645Y-99003042D01*
X146375560Y-98994962D01*
X146399536Y-98852453D01*
X146399688Y-98840000D01*
X146385507Y-98740982D01*
X146380474Y-98705835D01*
X146380473Y-98705833D01*
X146379201Y-98696948D01*
X146319388Y-98565395D01*
X146313530Y-98558596D01*
X146313527Y-98558592D01*
X146230916Y-98462718D01*
X146230913Y-98462716D01*
X146225056Y-98455918D01*
X146138295Y-98399682D01*
X146111324Y-98382200D01*
X146111322Y-98382199D01*
X146103790Y-98377317D01*
X146074432Y-98368537D01*
X145973938Y-98338482D01*
X145973936Y-98338482D01*
X145965337Y-98335910D01*
X145956363Y-98335855D01*
X145956361Y-98335855D01*
X145893082Y-98335469D01*
X145820827Y-98335028D01*
X145812196Y-98337495D01*
X145812194Y-98337495D01*
X145690509Y-98372272D01*
X145690505Y-98372274D01*
X145681879Y-98374739D01*
X145674292Y-98379526D01*
X145674290Y-98379527D01*
X145598548Y-98427317D01*
X145559661Y-98451853D01*
X145553718Y-98458582D01*
X145553717Y-98458583D01*
X145509559Y-98508583D01*
X145463999Y-98560170D01*
X145460185Y-98568293D01*
X145460184Y-98568295D01*
X145441265Y-98608592D01*
X145402583Y-98690982D01*
X145401203Y-98699846D01*
X145401202Y-98699849D01*
X145381802Y-98824449D01*
X145380350Y-98833773D01*
X143420700Y-98833773D01*
X143420700Y-97442621D01*
X144262578Y-97442621D01*
X144279096Y-97611084D01*
X144332526Y-97771701D01*
X144343741Y-97790219D01*
X144406195Y-97893342D01*
X144420213Y-97916489D01*
X144425104Y-97921554D01*
X144425105Y-97921555D01*
X144466478Y-97964398D01*
X144537799Y-98038253D01*
X144679438Y-98130939D01*
X144838093Y-98189942D01*
X144845074Y-98190873D01*
X144845076Y-98190874D01*
X144998896Y-98211398D01*
X144998900Y-98211398D01*
X145005877Y-98212329D01*
X145012888Y-98211691D01*
X145012892Y-98211691D01*
X145167430Y-98197627D01*
X145174451Y-98196988D01*
X145335437Y-98144680D01*
X145432194Y-98087001D01*
X145474782Y-98061614D01*
X145474784Y-98061613D01*
X145480834Y-98058006D01*
X145603416Y-97941274D01*
X145614522Y-97924558D01*
X145693188Y-97806157D01*
X145693189Y-97806155D01*
X145697089Y-97800285D01*
X145757198Y-97642046D01*
X145780756Y-97474422D01*
X145781052Y-97453222D01*
X145780650Y-97449640D01*
X146803769Y-97449640D01*
X146818901Y-97603970D01*
X146821812Y-97617664D01*
X146870758Y-97764803D01*
X146871465Y-97766332D01*
X146878275Y-97772558D01*
X146886895Y-97768895D01*
X147189756Y-97466034D01*
X147196134Y-97454354D01*
X147926186Y-97454354D01*
X147926317Y-97456187D01*
X147930568Y-97462802D01*
X148232413Y-97764647D01*
X148244793Y-97771407D01*
X148248609Y-97768550D01*
X148294209Y-97648507D01*
X148297691Y-97634946D01*
X148319702Y-97478331D01*
X148320308Y-97470447D01*
X148320494Y-97457184D01*
X148320107Y-97449284D01*
X148302478Y-97292113D01*
X148299377Y-97278467D01*
X148252738Y-97144539D01*
X148244535Y-97133066D01*
X148240527Y-97133847D01*
X148239917Y-97134293D01*
X147933800Y-97440410D01*
X147926186Y-97454354D01*
X147196134Y-97454354D01*
X147197370Y-97452090D01*
X147197239Y-97450257D01*
X147192988Y-97443642D01*
X146890428Y-97141082D01*
X146878048Y-97134322D01*
X146874426Y-97137033D01*
X146826691Y-97268184D01*
X146823399Y-97281792D01*
X146803965Y-97435634D01*
X146803769Y-97449640D01*
X145780650Y-97449640D01*
X145762184Y-97285006D01*
X145706516Y-97125151D01*
X145616816Y-96981601D01*
X145609620Y-96974354D01*
X145502504Y-96866488D01*
X145497542Y-96861491D01*
X145354622Y-96770791D01*
X145350370Y-96769277D01*
X147242047Y-96769277D01*
X147245867Y-96778101D01*
X147548966Y-97081200D01*
X147562910Y-97088814D01*
X147564743Y-97088683D01*
X147571358Y-97084432D01*
X147874322Y-96781468D01*
X147881082Y-96769088D01*
X147878497Y-96765634D01*
X147878197Y-96765474D01*
X147741680Y-96716862D01*
X147728053Y-96713665D01*
X147574067Y-96695303D01*
X147560071Y-96695205D01*
X147405843Y-96711415D01*
X147392179Y-96714420D01*
X147246926Y-96763868D01*
X147242047Y-96769277D01*
X145350370Y-96769277D01*
X145303123Y-96752453D01*
X145201794Y-96716371D01*
X145201789Y-96716370D01*
X145195159Y-96714009D01*
X145188173Y-96713176D01*
X145188169Y-96713175D01*
X145069065Y-96698973D01*
X145027079Y-96693967D01*
X145020076Y-96694703D01*
X145020075Y-96694703D01*
X144865743Y-96710923D01*
X144865739Y-96710924D01*
X144858735Y-96711660D01*
X144852064Y-96713931D01*
X144705165Y-96763939D01*
X144705162Y-96763940D01*
X144698495Y-96766210D01*
X144692497Y-96769900D01*
X144692495Y-96769901D01*
X144560321Y-96851215D01*
X144560319Y-96851217D01*
X144554322Y-96854906D01*
X144484598Y-96923185D01*
X144454112Y-96953040D01*
X144433383Y-96973339D01*
X144429572Y-96979253D01*
X144429570Y-96979255D01*
X144420053Y-96994023D01*
X144341687Y-97115622D01*
X144331162Y-97144539D01*
X144286203Y-97268062D01*
X144286202Y-97268067D01*
X144283793Y-97274685D01*
X144262578Y-97442621D01*
X143420700Y-97442621D01*
X143420700Y-97175045D01*
X143440702Y-97106924D01*
X143453285Y-97090490D01*
X143506523Y-97031674D01*
X143506524Y-97031672D01*
X143512551Y-97025014D01*
X143517425Y-97014955D01*
X143571645Y-96903043D01*
X143571645Y-96903042D01*
X143575560Y-96894962D01*
X143599536Y-96752453D01*
X143599688Y-96740000D01*
X143579201Y-96596948D01*
X143577560Y-96593339D01*
X143577639Y-96524864D01*
X143616090Y-96465181D01*
X143680705Y-96435762D01*
X143698494Y-96434500D01*
X155751173Y-96434500D01*
X155819294Y-96454502D01*
G37*
%TD.AperFunction*%
%TA.AperFunction,Conductor*%
G36*
X148782908Y-105376502D02*
G01*
X148803883Y-105393405D01*
X148971596Y-105561119D01*
X149005621Y-105623431D01*
X149008500Y-105650214D01*
X149008500Y-108167299D01*
X148988498Y-108235420D01*
X148934842Y-108281913D01*
X148864568Y-108292017D01*
X148813968Y-108273031D01*
X148711324Y-108206500D01*
X148711322Y-108206499D01*
X148703790Y-108201617D01*
X148673901Y-108192678D01*
X148573938Y-108162782D01*
X148573936Y-108162782D01*
X148565337Y-108160210D01*
X148556363Y-108160155D01*
X148556361Y-108160155D01*
X148493082Y-108159769D01*
X148420827Y-108159328D01*
X148412196Y-108161795D01*
X148412194Y-108161795D01*
X148290509Y-108196572D01*
X148290505Y-108196574D01*
X148281879Y-108199039D01*
X148274292Y-108203826D01*
X148274290Y-108203827D01*
X148167254Y-108271362D01*
X148159661Y-108276153D01*
X148153718Y-108282882D01*
X148153717Y-108282883D01*
X148116389Y-108325149D01*
X148063999Y-108384470D01*
X148060185Y-108392593D01*
X148060184Y-108392595D01*
X148046515Y-108421710D01*
X148002583Y-108515282D01*
X148001203Y-108524146D01*
X148001202Y-108524149D01*
X147985139Y-108627317D01*
X147980350Y-108658073D01*
X147984318Y-108688415D01*
X147973316Y-108758552D01*
X147948476Y-108793844D01*
X147166251Y-109576069D01*
X147103939Y-109610095D01*
X147033124Y-109605030D01*
X146976288Y-109562483D01*
X146951477Y-109495963D01*
X146951156Y-109486974D01*
X146951156Y-107837815D01*
X146971158Y-107769694D01*
X147024814Y-107723201D01*
X147095088Y-107713097D01*
X147146148Y-107732382D01*
X147213769Y-107776631D01*
X147226269Y-107782946D01*
X147371613Y-107836999D01*
X147385199Y-107840386D01*
X147538906Y-107860896D01*
X147552902Y-107861189D01*
X147707328Y-107847134D01*
X147721054Y-107844317D01*
X147868530Y-107796399D01*
X147873466Y-107794160D01*
X147880747Y-107786308D01*
X147877242Y-107777896D01*
X147203700Y-107104354D01*
X147926186Y-107104354D01*
X147926317Y-107106187D01*
X147930568Y-107112802D01*
X148232413Y-107414647D01*
X148244793Y-107421407D01*
X148248609Y-107418550D01*
X148294209Y-107298507D01*
X148297691Y-107284946D01*
X148319702Y-107128331D01*
X148320308Y-107120447D01*
X148320494Y-107107184D01*
X148320107Y-107099284D01*
X148302478Y-106942113D01*
X148299377Y-106928467D01*
X148252738Y-106794539D01*
X148244535Y-106783066D01*
X148240527Y-106783847D01*
X148239917Y-106784293D01*
X147933800Y-107090410D01*
X147926186Y-107104354D01*
X147203700Y-107104354D01*
X146890427Y-106791081D01*
X146886314Y-106788835D01*
X146836112Y-106738633D01*
X146820700Y-106678248D01*
X146820700Y-106419277D01*
X147242047Y-106419277D01*
X147245867Y-106428101D01*
X147548966Y-106731200D01*
X147562910Y-106738814D01*
X147564743Y-106738683D01*
X147571358Y-106734432D01*
X147874322Y-106431468D01*
X147881082Y-106419088D01*
X147878497Y-106415634D01*
X147878197Y-106415474D01*
X147741680Y-106366862D01*
X147728053Y-106363665D01*
X147574067Y-106345303D01*
X147560071Y-106345205D01*
X147405843Y-106361415D01*
X147392179Y-106364420D01*
X147246926Y-106413868D01*
X147242047Y-106419277D01*
X146820700Y-106419277D01*
X146820700Y-105703880D01*
X146840702Y-105635759D01*
X146894358Y-105589266D01*
X146964632Y-105579162D01*
X147029212Y-105608656D01*
X147037333Y-105616349D01*
X147077799Y-105658253D01*
X147219438Y-105750939D01*
X147378093Y-105809942D01*
X147385074Y-105810873D01*
X147385076Y-105810874D01*
X147538896Y-105831398D01*
X147538900Y-105831398D01*
X147545877Y-105832329D01*
X147552888Y-105831691D01*
X147552892Y-105831691D01*
X147707430Y-105817627D01*
X147714451Y-105816988D01*
X147875437Y-105764680D01*
X148020834Y-105678006D01*
X148143416Y-105561274D01*
X148156518Y-105541555D01*
X148233191Y-105426152D01*
X148235089Y-105423296D01*
X148237089Y-105420285D01*
X148237785Y-105420747D01*
X148282764Y-105373458D01*
X148345898Y-105356500D01*
X148714787Y-105356500D01*
X148782908Y-105376502D01*
G37*
%TD.AperFunction*%
%TA.AperFunction,Conductor*%
G36*
X177727621Y-96454502D02*
G01*
X177774114Y-96508158D01*
X177785500Y-96560500D01*
X177785500Y-104435343D01*
X177765498Y-104503464D01*
X177711842Y-104549957D01*
X177641568Y-104560061D01*
X177585944Y-104534547D01*
X177585056Y-104535918D01*
X177471324Y-104462200D01*
X177471322Y-104462199D01*
X177463790Y-104457317D01*
X177439448Y-104450037D01*
X177333938Y-104418482D01*
X177333936Y-104418482D01*
X177325337Y-104415910D01*
X177316363Y-104415855D01*
X177316361Y-104415855D01*
X177253082Y-104415469D01*
X177180827Y-104415028D01*
X177172196Y-104417495D01*
X177172194Y-104417495D01*
X177050509Y-104452272D01*
X177050505Y-104452274D01*
X177041879Y-104454739D01*
X177034292Y-104459526D01*
X177034290Y-104459527D01*
X176974204Y-104497439D01*
X176919661Y-104531853D01*
X176918747Y-104530405D01*
X176863531Y-104555035D01*
X176793349Y-104544312D01*
X176740105Y-104497347D01*
X176720700Y-104430164D01*
X176720700Y-100509949D01*
X176721179Y-100498968D01*
X176723564Y-100471709D01*
X176723564Y-100471708D01*
X176724524Y-100460733D01*
X176714591Y-100423661D01*
X176712215Y-100412943D01*
X176707465Y-100386003D01*
X176707465Y-100386002D01*
X176705551Y-100375149D01*
X176700040Y-100365604D01*
X176698769Y-100362111D01*
X176697194Y-100358733D01*
X176694340Y-100348084D01*
X176688016Y-100339053D01*
X176688015Y-100339050D01*
X176672327Y-100316645D01*
X176666422Y-100307376D01*
X176660335Y-100296834D01*
X176647239Y-100274151D01*
X176638796Y-100267067D01*
X176638794Y-100267064D01*
X176617836Y-100249478D01*
X176609732Y-100242052D01*
X175857605Y-99489925D01*
X175823579Y-99427613D01*
X175820700Y-99400830D01*
X175820700Y-98219082D01*
X175840702Y-98150961D01*
X175882182Y-98110853D01*
X175914397Y-98091649D01*
X175970834Y-98058006D01*
X176093416Y-97941274D01*
X176104522Y-97924558D01*
X176183188Y-97806157D01*
X176183189Y-97806155D01*
X176187089Y-97800285D01*
X176247198Y-97642046D01*
X176270756Y-97474422D01*
X176271052Y-97453222D01*
X176252184Y-97285006D01*
X176196516Y-97125151D01*
X176106816Y-96981601D01*
X176099620Y-96974354D01*
X175992504Y-96866488D01*
X175987542Y-96861491D01*
X175844622Y-96770791D01*
X175793123Y-96752453D01*
X175691794Y-96716371D01*
X175691789Y-96716370D01*
X175685159Y-96714009D01*
X175678173Y-96713176D01*
X175678169Y-96713175D01*
X175559065Y-96698973D01*
X175517079Y-96693967D01*
X175510076Y-96694703D01*
X175510075Y-96694703D01*
X175355743Y-96710923D01*
X175355739Y-96710924D01*
X175348735Y-96711660D01*
X175342064Y-96713931D01*
X175195165Y-96763939D01*
X175195162Y-96763940D01*
X175188495Y-96766210D01*
X175182497Y-96769900D01*
X175182495Y-96769901D01*
X175050321Y-96851215D01*
X175050319Y-96851217D01*
X175044322Y-96854906D01*
X174974598Y-96923185D01*
X174944112Y-96953040D01*
X174923383Y-96973339D01*
X174919572Y-96979253D01*
X174919570Y-96979255D01*
X174910053Y-96994023D01*
X174831687Y-97115622D01*
X174821162Y-97144539D01*
X174776203Y-97268062D01*
X174776202Y-97268067D01*
X174773793Y-97274685D01*
X174752578Y-97442621D01*
X174769096Y-97611084D01*
X174822526Y-97771701D01*
X174872165Y-97853664D01*
X174879878Y-97866400D01*
X174890789Y-97907591D01*
X174906888Y-97914348D01*
X174918005Y-97924558D01*
X174956478Y-97964398D01*
X175027799Y-98038253D01*
X175033695Y-98042111D01*
X175033696Y-98042112D01*
X175102293Y-98087001D01*
X175148342Y-98141039D01*
X175159300Y-98192433D01*
X175159300Y-98466684D01*
X175139298Y-98534805D01*
X175085642Y-98581298D01*
X175015368Y-98591402D01*
X174997197Y-98587401D01*
X174933938Y-98568482D01*
X174933936Y-98568482D01*
X174925337Y-98565910D01*
X174916362Y-98565855D01*
X174907481Y-98564528D01*
X174907848Y-98562072D01*
X174852538Y-98545468D01*
X174806370Y-98491533D01*
X174796554Y-98422130D01*
X174799162Y-98403807D01*
X174799231Y-98397265D01*
X174799264Y-98394134D01*
X174799264Y-98394128D01*
X174799307Y-98390000D01*
X174798554Y-98383773D01*
X174792953Y-98337495D01*
X174780276Y-98232733D01*
X174724280Y-98084546D01*
X174719979Y-98078288D01*
X174716459Y-98071555D01*
X174719169Y-98070138D01*
X174707552Y-98034680D01*
X174687081Y-98024664D01*
X174668262Y-98003039D01*
X174638855Y-97960251D01*
X174638854Y-97960249D01*
X174634553Y-97953992D01*
X174601726Y-97924744D01*
X174592460Y-97916489D01*
X174516275Y-97848611D01*
X174508889Y-97844700D01*
X174436094Y-97806157D01*
X174376274Y-97774484D01*
X174222633Y-97735892D01*
X174215034Y-97735852D01*
X174215033Y-97735852D01*
X174149181Y-97735507D01*
X174064221Y-97735062D01*
X174056841Y-97736834D01*
X174056839Y-97736834D01*
X173917563Y-97770271D01*
X173917560Y-97770272D01*
X173910184Y-97772043D01*
X173903443Y-97775522D01*
X173903441Y-97775523D01*
X173898567Y-97778039D01*
X173874968Y-97790219D01*
X173805263Y-97803689D01*
X173739339Y-97777335D01*
X173698128Y-97719523D01*
X173695157Y-97647420D01*
X173697198Y-97642046D01*
X173720756Y-97474422D01*
X173721052Y-97453222D01*
X173702184Y-97285006D01*
X173646516Y-97125151D01*
X173556816Y-96981601D01*
X173549620Y-96974354D01*
X173442504Y-96866488D01*
X173437542Y-96861491D01*
X173294622Y-96770791D01*
X173243123Y-96752453D01*
X173141794Y-96716371D01*
X173141789Y-96716370D01*
X173135159Y-96714009D01*
X173128173Y-96713176D01*
X173128169Y-96713175D01*
X173009065Y-96698973D01*
X172967079Y-96693967D01*
X172960076Y-96694703D01*
X172960075Y-96694703D01*
X172805743Y-96710923D01*
X172805739Y-96710924D01*
X172798735Y-96711660D01*
X172792064Y-96713931D01*
X172645165Y-96763939D01*
X172645162Y-96763940D01*
X172638495Y-96766210D01*
X172632497Y-96769900D01*
X172632495Y-96769901D01*
X172500321Y-96851215D01*
X172500319Y-96851217D01*
X172494322Y-96854906D01*
X172424598Y-96923185D01*
X172394112Y-96953040D01*
X172373383Y-96973339D01*
X172369572Y-96979253D01*
X172369570Y-96979255D01*
X172360053Y-96994023D01*
X172281687Y-97115622D01*
X172271162Y-97144539D01*
X172226203Y-97268062D01*
X172226202Y-97268067D01*
X172223793Y-97274685D01*
X172202578Y-97442621D01*
X172219096Y-97611084D01*
X172272526Y-97771701D01*
X172283741Y-97790219D01*
X172346195Y-97893342D01*
X172360213Y-97916489D01*
X172365104Y-97921554D01*
X172365105Y-97921555D01*
X172406478Y-97964398D01*
X172477799Y-98038253D01*
X172539218Y-98078444D01*
X172551394Y-98086412D01*
X172597442Y-98140449D01*
X172605701Y-98172299D01*
X172605476Y-98174868D01*
X172615409Y-98211940D01*
X172617784Y-98222654D01*
X172624449Y-98260452D01*
X172629960Y-98269997D01*
X172631231Y-98273490D01*
X172632806Y-98276868D01*
X172635660Y-98287517D01*
X172641984Y-98296548D01*
X172641985Y-98296551D01*
X172657673Y-98318956D01*
X172663578Y-98328225D01*
X172682761Y-98361450D01*
X172691204Y-98368534D01*
X172691206Y-98368537D01*
X172712164Y-98386123D01*
X172720268Y-98393549D01*
X172970924Y-98644205D01*
X173004950Y-98706517D01*
X172999885Y-98777332D01*
X172957338Y-98834168D01*
X172890818Y-98858979D01*
X172881829Y-98859300D01*
X172109949Y-98859300D01*
X172098968Y-98858821D01*
X172071709Y-98856436D01*
X172071708Y-98856436D01*
X172060733Y-98855476D01*
X172023661Y-98865409D01*
X172012947Y-98867784D01*
X171997100Y-98870578D01*
X171986003Y-98872535D01*
X171986002Y-98872535D01*
X171975149Y-98874449D01*
X171965604Y-98879960D01*
X171962111Y-98881231D01*
X171958733Y-98882806D01*
X171948084Y-98885660D01*
X171939053Y-98891984D01*
X171939050Y-98891985D01*
X171916645Y-98907673D01*
X171907375Y-98913578D01*
X171874151Y-98932761D01*
X171867067Y-98941204D01*
X171867064Y-98941206D01*
X171849478Y-98962164D01*
X171842052Y-98970268D01*
X171621235Y-99191085D01*
X171613131Y-99198511D01*
X171592173Y-99216097D01*
X171592171Y-99216100D01*
X171583728Y-99223184D01*
X171568547Y-99249478D01*
X171564545Y-99256409D01*
X171558640Y-99265678D01*
X171542952Y-99288083D01*
X171542951Y-99288086D01*
X171536627Y-99297117D01*
X171533773Y-99307766D01*
X171532198Y-99311144D01*
X171530927Y-99314637D01*
X171525416Y-99324182D01*
X171523502Y-99335035D01*
X171523502Y-99335036D01*
X171518752Y-99361976D01*
X171516376Y-99372694D01*
X171506443Y-99409766D01*
X171507403Y-99420741D01*
X171507403Y-99420742D01*
X171509788Y-99448001D01*
X171510267Y-99458982D01*
X171510267Y-99733517D01*
X171490265Y-99801638D01*
X171436609Y-99848131D01*
X171366335Y-99858235D01*
X171298738Y-99826041D01*
X171298304Y-99825639D01*
X171153480Y-99691765D01*
X171148597Y-99688684D01*
X171148593Y-99688681D01*
X170986686Y-99586526D01*
X170981803Y-99583445D01*
X170793261Y-99508224D01*
X170787601Y-99507098D01*
X170787597Y-99507097D01*
X170599835Y-99469749D01*
X170599832Y-99469749D01*
X170594168Y-99468622D01*
X170588393Y-99468546D01*
X170588389Y-99468546D01*
X170487015Y-99467219D01*
X170391193Y-99465965D01*
X170385496Y-99466944D01*
X170385495Y-99466944D01*
X170201002Y-99498646D01*
X170191132Y-99500342D01*
X170000685Y-99570602D01*
X169995724Y-99573554D01*
X169995723Y-99573554D01*
X169861123Y-99653632D01*
X169792352Y-99671272D01*
X169724962Y-99648931D01*
X169680348Y-99593703D01*
X169670700Y-99545347D01*
X169670700Y-99509949D01*
X169671179Y-99498968D01*
X169673564Y-99471709D01*
X169673564Y-99471708D01*
X169674524Y-99460733D01*
X169664591Y-99423661D01*
X169662215Y-99412942D01*
X169662069Y-99412111D01*
X169655551Y-99375149D01*
X169650040Y-99365603D01*
X169648770Y-99362114D01*
X169647194Y-99358735D01*
X169644340Y-99348083D01*
X169622322Y-99316639D01*
X169616426Y-99307383D01*
X169602751Y-99283698D01*
X169597239Y-99274151D01*
X169588796Y-99267066D01*
X169588793Y-99267063D01*
X169567836Y-99249478D01*
X169559732Y-99242052D01*
X168835767Y-98518087D01*
X168801741Y-98455775D01*
X168799675Y-98441075D01*
X168799688Y-98440000D01*
X168797277Y-98423163D01*
X168780474Y-98305835D01*
X168780473Y-98305833D01*
X168779201Y-98296948D01*
X168719388Y-98165395D01*
X168713530Y-98158596D01*
X168713527Y-98158592D01*
X168630916Y-98062718D01*
X168630913Y-98062716D01*
X168625056Y-98055918D01*
X168565769Y-98017490D01*
X168519485Y-97963654D01*
X168509654Y-97893342D01*
X168529353Y-97842031D01*
X168553188Y-97806157D01*
X168553189Y-97806155D01*
X168557089Y-97800285D01*
X168617198Y-97642046D01*
X168640756Y-97474422D01*
X168641052Y-97453222D01*
X168622184Y-97285006D01*
X168566516Y-97125151D01*
X168476816Y-96981601D01*
X168469620Y-96974354D01*
X168362504Y-96866488D01*
X168357542Y-96861491D01*
X168214622Y-96770791D01*
X168163123Y-96752453D01*
X168061794Y-96716371D01*
X168061789Y-96716370D01*
X168055159Y-96714009D01*
X168048173Y-96713176D01*
X168048169Y-96713175D01*
X167929065Y-96698973D01*
X167887079Y-96693967D01*
X167880076Y-96694703D01*
X167880075Y-96694703D01*
X167725743Y-96710923D01*
X167725739Y-96710924D01*
X167718735Y-96711660D01*
X167712064Y-96713931D01*
X167565165Y-96763939D01*
X167565162Y-96763940D01*
X167558495Y-96766210D01*
X167552497Y-96769900D01*
X167552495Y-96769901D01*
X167420321Y-96851215D01*
X167420319Y-96851217D01*
X167414322Y-96854906D01*
X167344598Y-96923185D01*
X167314112Y-96953040D01*
X167293383Y-96973339D01*
X167289572Y-96979253D01*
X167289570Y-96979255D01*
X167280053Y-96994023D01*
X167201687Y-97115622D01*
X167191162Y-97144539D01*
X167146203Y-97268062D01*
X167146202Y-97268067D01*
X167143793Y-97274685D01*
X167122578Y-97442621D01*
X167139096Y-97611084D01*
X167192526Y-97771701D01*
X167203741Y-97790219D01*
X167266195Y-97893342D01*
X167280213Y-97916489D01*
X167322474Y-97960251D01*
X167324093Y-97961928D01*
X167357025Y-98024825D01*
X167350725Y-98095541D01*
X167334674Y-98122546D01*
X167332761Y-98124151D01*
X167320908Y-98144680D01*
X167313578Y-98157376D01*
X167307673Y-98166645D01*
X167291985Y-98189050D01*
X167291984Y-98189053D01*
X167285660Y-98198084D01*
X167282806Y-98208733D01*
X167281231Y-98212111D01*
X167279960Y-98215604D01*
X167274449Y-98225149D01*
X167272535Y-98236002D01*
X167272535Y-98236003D01*
X167267785Y-98262943D01*
X167265409Y-98273661D01*
X167255476Y-98310733D01*
X167256436Y-98321708D01*
X167256436Y-98321709D01*
X167258821Y-98348968D01*
X167259300Y-98359949D01*
X167259300Y-99640919D01*
X167239298Y-99709040D01*
X167216379Y-99735650D01*
X167133614Y-99808233D01*
X167130039Y-99812768D01*
X167130038Y-99812769D01*
X167127235Y-99816325D01*
X167007942Y-99967647D01*
X167005253Y-99972758D01*
X167005251Y-99972761D01*
X166962788Y-100053470D01*
X166913425Y-100147293D01*
X166853229Y-100341156D01*
X166829370Y-100542742D01*
X166842646Y-100745300D01*
X166844067Y-100750896D01*
X166844068Y-100750901D01*
X166864341Y-100830723D01*
X166892614Y-100942047D01*
X166895031Y-100947290D01*
X166956779Y-101081232D01*
X166977599Y-101126394D01*
X166980932Y-101131110D01*
X167091216Y-101287159D01*
X167094755Y-101292167D01*
X167098897Y-101296202D01*
X167155859Y-101351691D01*
X167240160Y-101433813D01*
X167244964Y-101437023D01*
X167282511Y-101462111D01*
X167408942Y-101546590D01*
X167414245Y-101548868D01*
X167414248Y-101548870D01*
X167528038Y-101597758D01*
X167582731Y-101643027D01*
X167604300Y-101713526D01*
X167604300Y-103215051D01*
X167603821Y-103226032D01*
X167601510Y-103252453D01*
X167600476Y-103264267D01*
X167610409Y-103301339D01*
X167612784Y-103312053D01*
X167619449Y-103349851D01*
X167624960Y-103359396D01*
X167626231Y-103362889D01*
X167627806Y-103366267D01*
X167630660Y-103376916D01*
X167636984Y-103385947D01*
X167636985Y-103385950D01*
X167652673Y-103408355D01*
X167658578Y-103417624D01*
X167677761Y-103450849D01*
X167686204Y-103457933D01*
X167686206Y-103457936D01*
X167707164Y-103475522D01*
X167715268Y-103482948D01*
X168535477Y-104303157D01*
X168539254Y-104310073D01*
X168551880Y-104319560D01*
X168622395Y-104390075D01*
X168656421Y-104452387D01*
X168659300Y-104479170D01*
X168659300Y-104479664D01*
X168639298Y-104547785D01*
X168585642Y-104594278D01*
X168515368Y-104604382D01*
X168450788Y-104574888D01*
X168443894Y-104568448D01*
X168373379Y-104497439D01*
X168370819Y-104492711D01*
X168367431Y-104490450D01*
X168362508Y-104486492D01*
X168357542Y-104481491D01*
X168214622Y-104390791D01*
X168174912Y-104376651D01*
X168061794Y-104336371D01*
X168061789Y-104336370D01*
X168055159Y-104334009D01*
X168048173Y-104333176D01*
X168048169Y-104333175D01*
X167929065Y-104318973D01*
X167887079Y-104313967D01*
X167880076Y-104314703D01*
X167880075Y-104314703D01*
X167725743Y-104330923D01*
X167725739Y-104330924D01*
X167718735Y-104331660D01*
X167712064Y-104333931D01*
X167565165Y-104383939D01*
X167565162Y-104383940D01*
X167558495Y-104386210D01*
X167552497Y-104389900D01*
X167552495Y-104389901D01*
X167420321Y-104471215D01*
X167420319Y-104471217D01*
X167414322Y-104474906D01*
X167357649Y-104530405D01*
X167298480Y-104588348D01*
X167293383Y-104593339D01*
X167289572Y-104599253D01*
X167289570Y-104599255D01*
X167249025Y-104662169D01*
X167201687Y-104735622D01*
X167198219Y-104745151D01*
X167146203Y-104888062D01*
X167146202Y-104888067D01*
X167143793Y-104894685D01*
X167122578Y-105062621D01*
X167123788Y-105074962D01*
X167126613Y-105103779D01*
X167113353Y-105173526D01*
X167090309Y-105205168D01*
X166785795Y-105509682D01*
X166723483Y-105543708D01*
X166652668Y-105538643D01*
X166595832Y-105496096D01*
X166571021Y-105429576D01*
X166570700Y-105420587D01*
X166570700Y-103414464D01*
X166590702Y-103346343D01*
X166644358Y-103299850D01*
X166663558Y-103292901D01*
X166783763Y-103260130D01*
X166783765Y-103260129D01*
X166792422Y-103257769D01*
X166915572Y-103182154D01*
X167012551Y-103075014D01*
X167059685Y-102977729D01*
X167071645Y-102953043D01*
X167071645Y-102953042D01*
X167075560Y-102944962D01*
X167099536Y-102802453D01*
X167099688Y-102790000D01*
X167087231Y-102703020D01*
X167080474Y-102655835D01*
X167080473Y-102655833D01*
X167079201Y-102646948D01*
X167019388Y-102515395D01*
X167013530Y-102508596D01*
X167013527Y-102508592D01*
X166930916Y-102412718D01*
X166930913Y-102412716D01*
X166925056Y-102405918D01*
X166803790Y-102327317D01*
X166772928Y-102318087D01*
X166673938Y-102288482D01*
X166673936Y-102288482D01*
X166665337Y-102285910D01*
X166656363Y-102285855D01*
X166656361Y-102285855D01*
X166593082Y-102285469D01*
X166520827Y-102285028D01*
X166512196Y-102287495D01*
X166512194Y-102287495D01*
X166390509Y-102322272D01*
X166390505Y-102322274D01*
X166381879Y-102324739D01*
X166374292Y-102329526D01*
X166374290Y-102329527D01*
X166276066Y-102391502D01*
X166259661Y-102401853D01*
X166253718Y-102408582D01*
X166253717Y-102408583D01*
X166211986Y-102455835D01*
X166163999Y-102510170D01*
X166102583Y-102640982D01*
X166101203Y-102649846D01*
X166101202Y-102649849D01*
X166081731Y-102774901D01*
X166080350Y-102783773D01*
X166080397Y-102784135D01*
X166060835Y-102847864D01*
X166044773Y-102867547D01*
X166020268Y-102892052D01*
X166012164Y-102899478D01*
X165991206Y-102917064D01*
X165991204Y-102917067D01*
X165982761Y-102924151D01*
X165970177Y-102945947D01*
X165963578Y-102957376D01*
X165957673Y-102966645D01*
X165941985Y-102989050D01*
X165941984Y-102989053D01*
X165935660Y-102998084D01*
X165932806Y-103008733D01*
X165931231Y-103012111D01*
X165929960Y-103015604D01*
X165924449Y-103025149D01*
X165922535Y-103036002D01*
X165922535Y-103036003D01*
X165917785Y-103062943D01*
X165915409Y-103073661D01*
X165905476Y-103110733D01*
X165906436Y-103121708D01*
X165906436Y-103121709D01*
X165908821Y-103148968D01*
X165909300Y-103159949D01*
X165909300Y-104310530D01*
X165889298Y-104378651D01*
X165835642Y-104425144D01*
X165765368Y-104435248D01*
X165715789Y-104416917D01*
X165674622Y-104390791D01*
X165634912Y-104376651D01*
X165521794Y-104336371D01*
X165521789Y-104336370D01*
X165515159Y-104334009D01*
X165508173Y-104333176D01*
X165508169Y-104333175D01*
X165389065Y-104318973D01*
X165347079Y-104313967D01*
X165340076Y-104314703D01*
X165340075Y-104314703D01*
X165185743Y-104330923D01*
X165185739Y-104330924D01*
X165178735Y-104331660D01*
X165172064Y-104333931D01*
X165025165Y-104383939D01*
X165025162Y-104383940D01*
X165018495Y-104386210D01*
X165012497Y-104389900D01*
X165012495Y-104389901D01*
X164959417Y-104422555D01*
X164874322Y-104474906D01*
X164872580Y-104476612D01*
X164808280Y-104502118D01*
X164738609Y-104488461D01*
X164687382Y-104439305D01*
X164670700Y-104376651D01*
X164670700Y-103209949D01*
X164671179Y-103198968D01*
X164673564Y-103171709D01*
X164673564Y-103171708D01*
X164674524Y-103160733D01*
X164664591Y-103123661D01*
X164662215Y-103112943D01*
X164657465Y-103086003D01*
X164657465Y-103086002D01*
X164655551Y-103075149D01*
X164650040Y-103065604D01*
X164648769Y-103062111D01*
X164647194Y-103058733D01*
X164644340Y-103048084D01*
X164638016Y-103039053D01*
X164638015Y-103039050D01*
X164622327Y-103016645D01*
X164616422Y-103007376D01*
X164611057Y-102998084D01*
X164597239Y-102974151D01*
X164588796Y-102967067D01*
X164588794Y-102967064D01*
X164567836Y-102949478D01*
X164559732Y-102942052D01*
X163935767Y-102318087D01*
X163901741Y-102255775D01*
X163899675Y-102241075D01*
X163899688Y-102240000D01*
X163879201Y-102096948D01*
X163819388Y-101965395D01*
X163813530Y-101958596D01*
X163813527Y-101958592D01*
X163730916Y-101862718D01*
X163730913Y-101862716D01*
X163725056Y-101855918D01*
X163603790Y-101777317D01*
X163473225Y-101738269D01*
X163413692Y-101699587D01*
X163384522Y-101634859D01*
X163394978Y-101564637D01*
X163447760Y-101507620D01*
X163486498Y-101485925D01*
X163490945Y-101482227D01*
X163638135Y-101359809D01*
X163642567Y-101356123D01*
X163699924Y-101287159D01*
X163768675Y-101204496D01*
X163768677Y-101204493D01*
X163772369Y-101200054D01*
X163853546Y-101055102D01*
X163868732Y-101027986D01*
X163868733Y-101027984D01*
X163871556Y-101022943D01*
X163873412Y-101017476D01*
X163873414Y-101017471D01*
X163934950Y-100836192D01*
X163934951Y-100836187D01*
X163936806Y-100830723D01*
X163937634Y-100825014D01*
X163937635Y-100825009D01*
X163965401Y-100633505D01*
X163965934Y-100629831D01*
X163967454Y-100571778D01*
X163948880Y-100369637D01*
X163946826Y-100362354D01*
X163895347Y-100179824D01*
X163895346Y-100179822D01*
X163893779Y-100174265D01*
X163883200Y-100152811D01*
X163806553Y-99997387D01*
X163803998Y-99992206D01*
X163682542Y-99829557D01*
X163537438Y-99695424D01*
X163500995Y-99634498D01*
X163503276Y-99563538D01*
X163533874Y-99513806D01*
X164078670Y-98969011D01*
X164140982Y-98934986D01*
X164211798Y-98940051D01*
X164268633Y-98982598D01*
X164293004Y-99044279D01*
X164293160Y-99045695D01*
X164298113Y-99090553D01*
X164300723Y-99097684D01*
X164300723Y-99097686D01*
X164347544Y-99225630D01*
X164352553Y-99239319D01*
X164356789Y-99245622D01*
X164356789Y-99245623D01*
X164422505Y-99343418D01*
X164440908Y-99370805D01*
X164446527Y-99375918D01*
X164446528Y-99375919D01*
X164548326Y-99468547D01*
X164558076Y-99477419D01*
X164639648Y-99521709D01*
X164654126Y-99529570D01*
X164704448Y-99579653D01*
X164719704Y-99648991D01*
X164695052Y-99715570D01*
X164677082Y-99735033D01*
X164639159Y-99768291D01*
X164593614Y-99808233D01*
X164590039Y-99812768D01*
X164590038Y-99812769D01*
X164587235Y-99816325D01*
X164467942Y-99967647D01*
X164465253Y-99972758D01*
X164465251Y-99972761D01*
X164422788Y-100053470D01*
X164373425Y-100147293D01*
X164313229Y-100341156D01*
X164289370Y-100542742D01*
X164302646Y-100745300D01*
X164304067Y-100750896D01*
X164304068Y-100750901D01*
X164324341Y-100830723D01*
X164352614Y-100942047D01*
X164355031Y-100947290D01*
X164416779Y-101081232D01*
X164437599Y-101126394D01*
X164440932Y-101131110D01*
X164551216Y-101287159D01*
X164554755Y-101292167D01*
X164558897Y-101296202D01*
X164615859Y-101351691D01*
X164700160Y-101433813D01*
X164704964Y-101437023D01*
X164742511Y-101462111D01*
X164868942Y-101546590D01*
X164874245Y-101548868D01*
X164874248Y-101548870D01*
X165030394Y-101615955D01*
X165055450Y-101626720D01*
X165120362Y-101641408D01*
X165247801Y-101670245D01*
X165247806Y-101670246D01*
X165253438Y-101671520D01*
X165259209Y-101671747D01*
X165259211Y-101671747D01*
X165318978Y-101674095D01*
X165456275Y-101679490D01*
X165556721Y-101664926D01*
X165651453Y-101651191D01*
X165651458Y-101651190D01*
X165657167Y-101650362D01*
X165662631Y-101648507D01*
X165662636Y-101648506D01*
X165843915Y-101586970D01*
X165843920Y-101586968D01*
X165849387Y-101585112D01*
X165854432Y-101582287D01*
X165931803Y-101538957D01*
X166026498Y-101485925D01*
X166030945Y-101482227D01*
X166178135Y-101359809D01*
X166182567Y-101356123D01*
X166239924Y-101287159D01*
X166308675Y-101204496D01*
X166308677Y-101204493D01*
X166312369Y-101200054D01*
X166393546Y-101055102D01*
X166408732Y-101027986D01*
X166408733Y-101027984D01*
X166411556Y-101022943D01*
X166413412Y-101017476D01*
X166413414Y-101017471D01*
X166474950Y-100836192D01*
X166474951Y-100836187D01*
X166476806Y-100830723D01*
X166477634Y-100825014D01*
X166477635Y-100825009D01*
X166505401Y-100633505D01*
X166505934Y-100629831D01*
X166507454Y-100571778D01*
X166488880Y-100369637D01*
X166486826Y-100362354D01*
X166435347Y-100179824D01*
X166435346Y-100179822D01*
X166433779Y-100174265D01*
X166423200Y-100152811D01*
X166346553Y-99997387D01*
X166343998Y-99992206D01*
X166222542Y-99829557D01*
X166073480Y-99691765D01*
X166068597Y-99688684D01*
X166068593Y-99688681D01*
X165906686Y-99586526D01*
X165901803Y-99583445D01*
X165713261Y-99508224D01*
X165707604Y-99507099D01*
X165707598Y-99507097D01*
X165621266Y-99489925D01*
X165576590Y-99481038D01*
X165513681Y-99448132D01*
X165478549Y-99386437D01*
X165482349Y-99315542D01*
X165498846Y-99283938D01*
X165517755Y-99257624D01*
X165576842Y-99110641D01*
X165585039Y-99053043D01*
X165598581Y-98957891D01*
X165598581Y-98957888D01*
X165599162Y-98953807D01*
X165599307Y-98940000D01*
X165580276Y-98782733D01*
X165524280Y-98634546D01*
X165478747Y-98568295D01*
X165438855Y-98510251D01*
X165438854Y-98510249D01*
X165434553Y-98503992D01*
X165428882Y-98498940D01*
X165428880Y-98498937D01*
X165343832Y-98423163D01*
X165306276Y-98362913D01*
X165307255Y-98291923D01*
X165346459Y-98232732D01*
X165416229Y-98203605D01*
X165487329Y-98197134D01*
X165501054Y-98194317D01*
X165648530Y-98146399D01*
X165653466Y-98144160D01*
X165660747Y-98136308D01*
X165657242Y-98127896D01*
X164983700Y-97454354D01*
X165706186Y-97454354D01*
X165706317Y-97456187D01*
X165710568Y-97462802D01*
X166012413Y-97764647D01*
X166024793Y-97771407D01*
X166028609Y-97768550D01*
X166074209Y-97648507D01*
X166077691Y-97634946D01*
X166099702Y-97478331D01*
X166100308Y-97470447D01*
X166100494Y-97457184D01*
X166100107Y-97449284D01*
X166082478Y-97292113D01*
X166079377Y-97278467D01*
X166032738Y-97144539D01*
X166024535Y-97133066D01*
X166020527Y-97133847D01*
X166019917Y-97134293D01*
X165713800Y-97440410D01*
X165706186Y-97454354D01*
X164983700Y-97454354D01*
X164670428Y-97141082D01*
X164658048Y-97134322D01*
X164654426Y-97137033D01*
X164606691Y-97268184D01*
X164603399Y-97281792D01*
X164583965Y-97435634D01*
X164583769Y-97449640D01*
X164598901Y-97603970D01*
X164601812Y-97617663D01*
X164639404Y-97730669D01*
X164641927Y-97801621D01*
X164605690Y-97862673D01*
X164542198Y-97894442D01*
X164466993Y-97884820D01*
X164461324Y-97882201D01*
X164453790Y-97877317D01*
X164404825Y-97862673D01*
X164323938Y-97838482D01*
X164323936Y-97838482D01*
X164315337Y-97835910D01*
X164306363Y-97835855D01*
X164306361Y-97835855D01*
X164243082Y-97835469D01*
X164170827Y-97835028D01*
X164162196Y-97837495D01*
X164162194Y-97837495D01*
X164040509Y-97872272D01*
X164040505Y-97872274D01*
X164031879Y-97874739D01*
X164024292Y-97879526D01*
X164024290Y-97879527D01*
X163917254Y-97947062D01*
X163909661Y-97951853D01*
X163902895Y-97959514D01*
X163902161Y-97960345D01*
X163900188Y-97961587D01*
X163896885Y-97964398D01*
X163896479Y-97963921D01*
X163842074Y-97998163D01*
X163771081Y-97997492D01*
X163739188Y-97982669D01*
X163661324Y-97932200D01*
X163661322Y-97932199D01*
X163653790Y-97927317D01*
X163645191Y-97924745D01*
X163645188Y-97924744D01*
X163581576Y-97905720D01*
X163522042Y-97867038D01*
X163492872Y-97802311D01*
X163499890Y-97740260D01*
X163500846Y-97737743D01*
X163537198Y-97642046D01*
X163560756Y-97474422D01*
X163561052Y-97453222D01*
X163542184Y-97285006D01*
X163486516Y-97125151D01*
X163396816Y-96981601D01*
X163389620Y-96974354D01*
X163282504Y-96866488D01*
X163277542Y-96861491D01*
X163134622Y-96770791D01*
X163130370Y-96769277D01*
X165022047Y-96769277D01*
X165025867Y-96778101D01*
X165328966Y-97081200D01*
X165342910Y-97088814D01*
X165344743Y-97088683D01*
X165351358Y-97084432D01*
X165654322Y-96781468D01*
X165661082Y-96769088D01*
X165658497Y-96765634D01*
X165658197Y-96765474D01*
X165521680Y-96716862D01*
X165508053Y-96713665D01*
X165354067Y-96695303D01*
X165340071Y-96695205D01*
X165185843Y-96711415D01*
X165172179Y-96714420D01*
X165026926Y-96763868D01*
X165022047Y-96769277D01*
X163130370Y-96769277D01*
X163083123Y-96752453D01*
X162981794Y-96716371D01*
X162981789Y-96716370D01*
X162975159Y-96714009D01*
X162968173Y-96713176D01*
X162968169Y-96713175D01*
X162849065Y-96698973D01*
X162807079Y-96693967D01*
X162800076Y-96694703D01*
X162800075Y-96694703D01*
X162645743Y-96710923D01*
X162645739Y-96710924D01*
X162638735Y-96711660D01*
X162632064Y-96713931D01*
X162485165Y-96763939D01*
X162485162Y-96763940D01*
X162478495Y-96766210D01*
X162472497Y-96769900D01*
X162472495Y-96769901D01*
X162340321Y-96851215D01*
X162340319Y-96851217D01*
X162334322Y-96854906D01*
X162264598Y-96923185D01*
X162234112Y-96953040D01*
X162213383Y-96973339D01*
X162209572Y-96979253D01*
X162209570Y-96979255D01*
X162200053Y-96994023D01*
X162121687Y-97115622D01*
X162111162Y-97144539D01*
X162066203Y-97268062D01*
X162066202Y-97268067D01*
X162063793Y-97274685D01*
X162042578Y-97442621D01*
X162059096Y-97611084D01*
X162112526Y-97771701D01*
X162116174Y-97777725D01*
X162116177Y-97777731D01*
X162134672Y-97808270D01*
X162152851Y-97876900D01*
X162131040Y-97944463D01*
X162094132Y-97980102D01*
X162067259Y-97997058D01*
X162067254Y-97997062D01*
X162059661Y-98001853D01*
X162053718Y-98008582D01*
X162053717Y-98008583D01*
X162006885Y-98061611D01*
X161963999Y-98110170D01*
X161960185Y-98118293D01*
X161960184Y-98118295D01*
X161944848Y-98150961D01*
X161902583Y-98240982D01*
X161901203Y-98249846D01*
X161901202Y-98249849D01*
X161881731Y-98374902D01*
X161880350Y-98383773D01*
X161880397Y-98384135D01*
X161860835Y-98447864D01*
X161844773Y-98467547D01*
X161270268Y-99042052D01*
X161262164Y-99049478D01*
X161241206Y-99067064D01*
X161241204Y-99067067D01*
X161232761Y-99074151D01*
X161223367Y-99090422D01*
X161213578Y-99107376D01*
X161207673Y-99116645D01*
X161191985Y-99139050D01*
X161191984Y-99139053D01*
X161185660Y-99148084D01*
X161182806Y-99158733D01*
X161181231Y-99162111D01*
X161179960Y-99165604D01*
X161174449Y-99175149D01*
X161172535Y-99186002D01*
X161172535Y-99186003D01*
X161167785Y-99212943D01*
X161165409Y-99223661D01*
X161155476Y-99260733D01*
X161156436Y-99271708D01*
X161156436Y-99271709D01*
X161158821Y-99298968D01*
X161159300Y-99309949D01*
X161159300Y-99567905D01*
X161139298Y-99636026D01*
X161085642Y-99682519D01*
X161015368Y-99692623D01*
X160966065Y-99674467D01*
X160826687Y-99586526D01*
X160826682Y-99586524D01*
X160821803Y-99583445D01*
X160633261Y-99508224D01*
X160627601Y-99507098D01*
X160627597Y-99507097D01*
X160439835Y-99469749D01*
X160439832Y-99469749D01*
X160434168Y-99468622D01*
X160428393Y-99468546D01*
X160428389Y-99468546D01*
X160327015Y-99467219D01*
X160231193Y-99465965D01*
X160225496Y-99466944D01*
X160225495Y-99466944D01*
X160041002Y-99498646D01*
X160031132Y-99500342D01*
X159840685Y-99570602D01*
X159666232Y-99674390D01*
X159661892Y-99678196D01*
X159661888Y-99678199D01*
X159542924Y-99782529D01*
X159513614Y-99808233D01*
X159510039Y-99812768D01*
X159510038Y-99812769D01*
X159507235Y-99816325D01*
X159387942Y-99967647D01*
X159385253Y-99972758D01*
X159385251Y-99972761D01*
X159342788Y-100053470D01*
X159293425Y-100147293D01*
X159233229Y-100341156D01*
X159209370Y-100542742D01*
X159222646Y-100745300D01*
X159224067Y-100750896D01*
X159224068Y-100750901D01*
X159244341Y-100830723D01*
X159272614Y-100942047D01*
X159275031Y-100947290D01*
X159336779Y-101081232D01*
X159357599Y-101126394D01*
X159360932Y-101131110D01*
X159471216Y-101287159D01*
X159474755Y-101292167D01*
X159478897Y-101296202D01*
X159535859Y-101351691D01*
X159620160Y-101433813D01*
X159624964Y-101437023D01*
X159662511Y-101462111D01*
X159788942Y-101546590D01*
X159794245Y-101548868D01*
X159794248Y-101548870D01*
X159950394Y-101615955D01*
X159975450Y-101626720D01*
X160040362Y-101641408D01*
X160167801Y-101670245D01*
X160167806Y-101670246D01*
X160173438Y-101671520D01*
X160179209Y-101671747D01*
X160179211Y-101671747D01*
X160238978Y-101674095D01*
X160376275Y-101679490D01*
X160476721Y-101664926D01*
X160571453Y-101651191D01*
X160571458Y-101651190D01*
X160577167Y-101650362D01*
X160582631Y-101648507D01*
X160582636Y-101648506D01*
X160763915Y-101586970D01*
X160763920Y-101586968D01*
X160769387Y-101585112D01*
X160774432Y-101582287D01*
X160851803Y-101538957D01*
X160946498Y-101485925D01*
X160950941Y-101482230D01*
X160950945Y-101482227D01*
X160952732Y-101480741D01*
X160953745Y-101480303D01*
X160955705Y-101478956D01*
X160955970Y-101479341D01*
X161017896Y-101452561D01*
X161087951Y-101464085D01*
X161140655Y-101511654D01*
X161159300Y-101577616D01*
X161159300Y-103004588D01*
X161139298Y-103072709D01*
X161127742Y-103087995D01*
X161063999Y-103160170D01*
X161060185Y-103168293D01*
X161060184Y-103168295D01*
X161053250Y-103183064D01*
X161002583Y-103290982D01*
X161001203Y-103299846D01*
X161001202Y-103299849D01*
X160984308Y-103408355D01*
X160980350Y-103433773D01*
X160981514Y-103442675D01*
X160981514Y-103442678D01*
X160995298Y-103548084D01*
X160999088Y-103577065D01*
X161057289Y-103709339D01*
X161063063Y-103716208D01*
X161138551Y-103806011D01*
X161150276Y-103819960D01*
X161157747Y-103824933D01*
X161157748Y-103824934D01*
X161263101Y-103895063D01*
X161263103Y-103895064D01*
X161270574Y-103900037D01*
X161279138Y-103902713D01*
X161279141Y-103902714D01*
X161335043Y-103920179D01*
X161408510Y-103943132D01*
X161552998Y-103945780D01*
X161622217Y-103926909D01*
X161683763Y-103910130D01*
X161683765Y-103910129D01*
X161692422Y-103907769D01*
X161815572Y-103832154D01*
X161912551Y-103725014D01*
X161954042Y-103639375D01*
X161971645Y-103603043D01*
X161971645Y-103603042D01*
X161975560Y-103594962D01*
X161999536Y-103452453D01*
X161999688Y-103440000D01*
X161987141Y-103352387D01*
X161980474Y-103305835D01*
X161980473Y-103305833D01*
X161979201Y-103296948D01*
X161919388Y-103165395D01*
X161913530Y-103158596D01*
X161913527Y-103158592D01*
X161851247Y-103086314D01*
X161821933Y-103021652D01*
X161820700Y-103004066D01*
X161820700Y-101401773D01*
X161840702Y-101333652D01*
X161894358Y-101287159D01*
X161964632Y-101277055D01*
X162029212Y-101306549D01*
X162034613Y-101311512D01*
X162160160Y-101433813D01*
X162164964Y-101437023D01*
X162202511Y-101462111D01*
X162328942Y-101546590D01*
X162334245Y-101548868D01*
X162334248Y-101548870D01*
X162490394Y-101615955D01*
X162515450Y-101626720D01*
X162580362Y-101641408D01*
X162707801Y-101670245D01*
X162707806Y-101670246D01*
X162713438Y-101671520D01*
X162719209Y-101671747D01*
X162719211Y-101671747D01*
X162796337Y-101674777D01*
X162916275Y-101679490D01*
X162921996Y-101678661D01*
X162927023Y-101678397D01*
X162996098Y-101694804D01*
X163045336Y-101745952D01*
X163059106Y-101815600D01*
X163033036Y-101881637D01*
X163028063Y-101887631D01*
X162963999Y-101960170D01*
X162960185Y-101968293D01*
X162960184Y-101968295D01*
X162935039Y-102021853D01*
X162902583Y-102090982D01*
X162901203Y-102099846D01*
X162901202Y-102099849D01*
X162892858Y-102153442D01*
X162880350Y-102233773D01*
X162881514Y-102242675D01*
X162881514Y-102242678D01*
X162895935Y-102352952D01*
X162899088Y-102377065D01*
X162957289Y-102509339D01*
X162963063Y-102516208D01*
X163039590Y-102607247D01*
X163050276Y-102619960D01*
X163057747Y-102624933D01*
X163057748Y-102624934D01*
X163163101Y-102695063D01*
X163163103Y-102695064D01*
X163170574Y-102700037D01*
X163179138Y-102702713D01*
X163179141Y-102702714D01*
X163215970Y-102714220D01*
X163308510Y-102743132D01*
X163376801Y-102744383D01*
X163444543Y-102765630D01*
X163463587Y-102781267D01*
X163972395Y-103290075D01*
X164006421Y-103352387D01*
X164009300Y-103379170D01*
X164009300Y-108870051D01*
X164008821Y-108881032D01*
X164007994Y-108890490D01*
X164005476Y-108919267D01*
X164015409Y-108956339D01*
X164017784Y-108967053D01*
X164024449Y-109004851D01*
X164029960Y-109014396D01*
X164031231Y-109017889D01*
X164032806Y-109021267D01*
X164035660Y-109031916D01*
X164041984Y-109040947D01*
X164041985Y-109040950D01*
X164057673Y-109063355D01*
X164063578Y-109072624D01*
X164082761Y-109105849D01*
X164091202Y-109112932D01*
X164091203Y-109112933D01*
X164112159Y-109130517D01*
X164120263Y-109137943D01*
X164294687Y-109312368D01*
X164328712Y-109374680D01*
X164330527Y-109385124D01*
X164349088Y-109527065D01*
X164407289Y-109659339D01*
X164413063Y-109666208D01*
X164489590Y-109757247D01*
X164500276Y-109769960D01*
X164507747Y-109774933D01*
X164507748Y-109774934D01*
X164613101Y-109845063D01*
X164613103Y-109845064D01*
X164620574Y-109850037D01*
X164629138Y-109852713D01*
X164629141Y-109852714D01*
X164675076Y-109867065D01*
X164758510Y-109893132D01*
X164902998Y-109895780D01*
X164935020Y-109887050D01*
X165033763Y-109860130D01*
X165033765Y-109860129D01*
X165042422Y-109857769D01*
X165165572Y-109782154D01*
X165262551Y-109675014D01*
X165325560Y-109544962D01*
X165349536Y-109402453D01*
X165349688Y-109390000D01*
X165346868Y-109370310D01*
X165357013Y-109300042D01*
X165403536Y-109246413D01*
X165471669Y-109226450D01*
X165509171Y-109232183D01*
X165511335Y-109232859D01*
X165635460Y-109271639D01*
X165779948Y-109274287D01*
X165799480Y-109268962D01*
X165910713Y-109238637D01*
X165910715Y-109238636D01*
X165919372Y-109236276D01*
X166042522Y-109160661D01*
X166139501Y-109053521D01*
X166202510Y-108923469D01*
X166208246Y-108889375D01*
X166239273Y-108825517D01*
X166299899Y-108788571D01*
X166370875Y-108790266D01*
X166429668Y-108830065D01*
X166457610Y-108895331D01*
X166458500Y-108910280D01*
X166458500Y-110235865D01*
X166455914Y-110260164D01*
X166455846Y-110261602D01*
X166453655Y-110271780D01*
X166454879Y-110282120D01*
X166457627Y-110305342D01*
X166457979Y-110311320D01*
X166458072Y-110311312D01*
X166458500Y-110316490D01*
X166458500Y-110321692D01*
X166460242Y-110332154D01*
X166461686Y-110340832D01*
X166462522Y-110346704D01*
X166468582Y-110397907D01*
X166472567Y-110406206D01*
X166474078Y-110415283D01*
X166498558Y-110460651D01*
X166501239Y-110465914D01*
X166520127Y-110505250D01*
X166520130Y-110505254D01*
X166523560Y-110512398D01*
X166527170Y-110516692D01*
X166529102Y-110518624D01*
X166530889Y-110520573D01*
X166530918Y-110520626D01*
X166530788Y-110520745D01*
X166531289Y-110521313D01*
X166534388Y-110527057D01*
X166542032Y-110534123D01*
X166542033Y-110534124D01*
X166574208Y-110563866D01*
X166577774Y-110567296D01*
X166699920Y-110689442D01*
X166733946Y-110751754D01*
X166735747Y-110794981D01*
X166730729Y-110833096D01*
X166737724Y-110896454D01*
X166743465Y-110948450D01*
X166748113Y-110990553D01*
X166750723Y-110997684D01*
X166750723Y-110997686D01*
X166788843Y-111101853D01*
X166802553Y-111139319D01*
X166806789Y-111145622D01*
X166806789Y-111145623D01*
X166882576Y-111258405D01*
X166890908Y-111270805D01*
X166896527Y-111275918D01*
X166896528Y-111275919D01*
X166967299Y-111340315D01*
X167004222Y-111400955D01*
X167008500Y-111433509D01*
X167008500Y-111777954D01*
X166988498Y-111846075D01*
X166934842Y-111892568D01*
X166864568Y-111902672D01*
X166798682Y-111872031D01*
X166721951Y-111803667D01*
X166721945Y-111803663D01*
X166716275Y-111798611D01*
X166708889Y-111794700D01*
X166593257Y-111733476D01*
X166576274Y-111724484D01*
X166422633Y-111685892D01*
X166415034Y-111685852D01*
X166415033Y-111685852D01*
X166349181Y-111685507D01*
X166264221Y-111685062D01*
X166256841Y-111686834D01*
X166256839Y-111686834D01*
X166117563Y-111720271D01*
X166117560Y-111720272D01*
X166110184Y-111722043D01*
X165969414Y-111794700D01*
X165850039Y-111898838D01*
X165758950Y-112028444D01*
X165733628Y-112093392D01*
X165716530Y-112137247D01*
X165701406Y-112176037D01*
X165700414Y-112183570D01*
X165700414Y-112183571D01*
X165681918Y-112324066D01*
X165680729Y-112333096D01*
X165687126Y-112391035D01*
X165696967Y-112480170D01*
X165698113Y-112490553D01*
X165700723Y-112497684D01*
X165700723Y-112497686D01*
X165747619Y-112625835D01*
X165752553Y-112639319D01*
X165756789Y-112645622D01*
X165756789Y-112645623D01*
X165835370Y-112762563D01*
X165840908Y-112770805D01*
X165846527Y-112775918D01*
X165846528Y-112775919D01*
X165945191Y-112865695D01*
X165958076Y-112877419D01*
X166097293Y-112953008D01*
X166250522Y-112993207D01*
X166334477Y-112994526D01*
X166401319Y-112995576D01*
X166401322Y-112995576D01*
X166408916Y-112995695D01*
X166563332Y-112960329D01*
X166652078Y-112915695D01*
X166698072Y-112892563D01*
X166698075Y-112892561D01*
X166704855Y-112889151D01*
X166710626Y-112884222D01*
X166710629Y-112884220D01*
X166800669Y-112807318D01*
X166865459Y-112778287D01*
X166935659Y-112788892D01*
X166988982Y-112835767D01*
X167008500Y-112903129D01*
X167008500Y-114100865D01*
X167005914Y-114125164D01*
X167005846Y-114126602D01*
X167003655Y-114136780D01*
X167004879Y-114147120D01*
X167007627Y-114170342D01*
X167007979Y-114176320D01*
X167008072Y-114176312D01*
X167008500Y-114181490D01*
X167008500Y-114186692D01*
X167009354Y-114191822D01*
X167011686Y-114205832D01*
X167012522Y-114211704D01*
X167018582Y-114262907D01*
X167022567Y-114271206D01*
X167024078Y-114280283D01*
X167048558Y-114325651D01*
X167051239Y-114330914D01*
X167070127Y-114370250D01*
X167070130Y-114370254D01*
X167073560Y-114377398D01*
X167077170Y-114381692D01*
X167079102Y-114383624D01*
X167080889Y-114385573D01*
X167080918Y-114385626D01*
X167080788Y-114385746D01*
X167081290Y-114386315D01*
X167084388Y-114392057D01*
X167092032Y-114399123D01*
X167092035Y-114399127D01*
X167109435Y-114415212D01*
X167145880Y-114476141D01*
X167146373Y-114537359D01*
X167146202Y-114538067D01*
X167143793Y-114544685D01*
X167122578Y-114712621D01*
X167139096Y-114881084D01*
X167192526Y-115041701D01*
X167196175Y-115047726D01*
X167197434Y-115050451D01*
X167207849Y-115120680D01*
X167178642Y-115185390D01*
X167119086Y-115224038D01*
X167083053Y-115229300D01*
X166139332Y-115229300D01*
X166071211Y-115209298D01*
X166024718Y-115155642D01*
X166014614Y-115085368D01*
X166021544Y-115058557D01*
X166040987Y-115007373D01*
X166077198Y-114912046D01*
X166092600Y-114802453D01*
X166100205Y-114748345D01*
X166100205Y-114748340D01*
X166100756Y-114744422D01*
X166101052Y-114723222D01*
X166092455Y-114646579D01*
X166082969Y-114562002D01*
X166082968Y-114561999D01*
X166082184Y-114555006D01*
X166026516Y-114395151D01*
X165936816Y-114251601D01*
X165928772Y-114243500D01*
X165862051Y-114176312D01*
X165817542Y-114131491D01*
X165811591Y-114127714D01*
X165748444Y-114087640D01*
X165674622Y-114040791D01*
X165623359Y-114022537D01*
X165521794Y-113986371D01*
X165521789Y-113986370D01*
X165515159Y-113984009D01*
X165508173Y-113983176D01*
X165508169Y-113983175D01*
X165389065Y-113968973D01*
X165347079Y-113963967D01*
X165340076Y-113964703D01*
X165340075Y-113964703D01*
X165185743Y-113980923D01*
X165185739Y-113980924D01*
X165178735Y-113981660D01*
X165172064Y-113983931D01*
X165025165Y-114033939D01*
X165025162Y-114033940D01*
X165018495Y-114036210D01*
X165012497Y-114039900D01*
X165012495Y-114039901D01*
X164880321Y-114121215D01*
X164880319Y-114121217D01*
X164874322Y-114124906D01*
X164753383Y-114243339D01*
X164749572Y-114249253D01*
X164749570Y-114249255D01*
X164724926Y-114287495D01*
X164661687Y-114385622D01*
X164652757Y-114410158D01*
X164606203Y-114538062D01*
X164606202Y-114538067D01*
X164603793Y-114544685D01*
X164582578Y-114712621D01*
X164599096Y-114881084D01*
X164652526Y-115041701D01*
X164656175Y-115047726D01*
X164657434Y-115050451D01*
X164667849Y-115120680D01*
X164638642Y-115185390D01*
X164579086Y-115224038D01*
X164543053Y-115229300D01*
X163599332Y-115229300D01*
X163531211Y-115209298D01*
X163484718Y-115155642D01*
X163474614Y-115085368D01*
X163481544Y-115058557D01*
X163500987Y-115007373D01*
X163537198Y-114912046D01*
X163552600Y-114802453D01*
X163560205Y-114748345D01*
X163560205Y-114748340D01*
X163560756Y-114744422D01*
X163561052Y-114723222D01*
X163552455Y-114646579D01*
X163542969Y-114562002D01*
X163542968Y-114561999D01*
X163542184Y-114555006D01*
X163486516Y-114395151D01*
X163396816Y-114251601D01*
X163388772Y-114243500D01*
X163296593Y-114150676D01*
X163277542Y-114131491D01*
X163271593Y-114127716D01*
X163271591Y-114127714D01*
X163219986Y-114094964D01*
X163173187Y-114041575D01*
X163161500Y-113988579D01*
X163161500Y-112284140D01*
X163164087Y-112259824D01*
X163164154Y-112258401D01*
X163166346Y-112248220D01*
X163162373Y-112214652D01*
X163162021Y-112208678D01*
X163161928Y-112208686D01*
X163161500Y-112203508D01*
X163161500Y-112198308D01*
X163159047Y-112183571D01*
X163158314Y-112179165D01*
X163157477Y-112173286D01*
X163152642Y-112132433D01*
X163152642Y-112132432D01*
X163151418Y-112122093D01*
X163147433Y-112113794D01*
X163145922Y-112104717D01*
X163121456Y-112059374D01*
X163118760Y-112054083D01*
X163099873Y-112014749D01*
X163099871Y-112014745D01*
X163096441Y-112007603D01*
X163092831Y-112003308D01*
X163090904Y-112001381D01*
X163089109Y-111999424D01*
X163089078Y-111999366D01*
X163089207Y-111999248D01*
X163088710Y-111998684D01*
X163085612Y-111992943D01*
X163077352Y-111985307D01*
X163045805Y-111956146D01*
X163042239Y-111952716D01*
X162030495Y-110940972D01*
X161996469Y-110878660D01*
X161994847Y-110834126D01*
X161999162Y-110803807D01*
X161999307Y-110790000D01*
X161998806Y-110785855D01*
X161993853Y-110744927D01*
X161980276Y-110632733D01*
X161924280Y-110484546D01*
X161899540Y-110448549D01*
X161838855Y-110360251D01*
X161838854Y-110360249D01*
X161834553Y-110353992D01*
X161819783Y-110340832D01*
X161798300Y-110321692D01*
X161763681Y-110290847D01*
X161726126Y-110230598D01*
X161721500Y-110196771D01*
X161721500Y-107092621D01*
X162042578Y-107092621D01*
X162059096Y-107261084D01*
X162112526Y-107421701D01*
X162116175Y-107427726D01*
X162185277Y-107541826D01*
X162200213Y-107566489D01*
X162205104Y-107571554D01*
X162205105Y-107571555D01*
X162230700Y-107598059D01*
X162317799Y-107688253D01*
X162459438Y-107780939D01*
X162618093Y-107839942D01*
X162625074Y-107840873D01*
X162625076Y-107840874D01*
X162778896Y-107861398D01*
X162778900Y-107861398D01*
X162785877Y-107862329D01*
X162792888Y-107861691D01*
X162792892Y-107861691D01*
X162947430Y-107847627D01*
X162954451Y-107846988D01*
X163115437Y-107794680D01*
X163219943Y-107732382D01*
X163254782Y-107711614D01*
X163254784Y-107711613D01*
X163260834Y-107708006D01*
X163383416Y-107591274D01*
X163389300Y-107582418D01*
X163473188Y-107456157D01*
X163473189Y-107456155D01*
X163477089Y-107450285D01*
X163537198Y-107292046D01*
X163547970Y-107215398D01*
X163560205Y-107128345D01*
X163560205Y-107128340D01*
X163560756Y-107124422D01*
X163561052Y-107103222D01*
X163542184Y-106935006D01*
X163486516Y-106775151D01*
X163396816Y-106631601D01*
X163388773Y-106623501D01*
X163289646Y-106523680D01*
X163277542Y-106511491D01*
X163256415Y-106498083D01*
X163208753Y-106467836D01*
X163134622Y-106420791D01*
X163074768Y-106399478D01*
X162981794Y-106366371D01*
X162981789Y-106366370D01*
X162975159Y-106364009D01*
X162968173Y-106363176D01*
X162968169Y-106363175D01*
X162849065Y-106348973D01*
X162807079Y-106343967D01*
X162800076Y-106344703D01*
X162800075Y-106344703D01*
X162645743Y-106360923D01*
X162645739Y-106360924D01*
X162638735Y-106361660D01*
X162632064Y-106363931D01*
X162485165Y-106413939D01*
X162485162Y-106413940D01*
X162478495Y-106416210D01*
X162472497Y-106419900D01*
X162472495Y-106419901D01*
X162340321Y-106501215D01*
X162340319Y-106501217D01*
X162334322Y-106504906D01*
X162323422Y-106515580D01*
X162228518Y-106608518D01*
X162213383Y-106623339D01*
X162209572Y-106629253D01*
X162209570Y-106629255D01*
X162192476Y-106655780D01*
X162121687Y-106765622D01*
X162107459Y-106804714D01*
X162066203Y-106918062D01*
X162066202Y-106918066D01*
X162063793Y-106924685D01*
X162042578Y-107092621D01*
X161721500Y-107092621D01*
X161721500Y-105900212D01*
X161741502Y-105832091D01*
X161758405Y-105811117D01*
X162027418Y-105542104D01*
X162089730Y-105508078D01*
X162160545Y-105513143D01*
X162207149Y-105543671D01*
X162317799Y-105658253D01*
X162459438Y-105750939D01*
X162618093Y-105809942D01*
X162625074Y-105810873D01*
X162625076Y-105810874D01*
X162778896Y-105831398D01*
X162778900Y-105831398D01*
X162785877Y-105832329D01*
X162792888Y-105831691D01*
X162792892Y-105831691D01*
X162947430Y-105817627D01*
X162954451Y-105816988D01*
X163115437Y-105764680D01*
X163260834Y-105678006D01*
X163383416Y-105561274D01*
X163396153Y-105542104D01*
X163473188Y-105426157D01*
X163473191Y-105426152D01*
X163477089Y-105420285D01*
X163537198Y-105262046D01*
X163560756Y-105094422D01*
X163561052Y-105073222D01*
X163543371Y-104915587D01*
X163542969Y-104912002D01*
X163542968Y-104911999D01*
X163542184Y-104905006D01*
X163486516Y-104745151D01*
X163396816Y-104601601D01*
X163389620Y-104594354D01*
X163330229Y-104534547D01*
X163277542Y-104481491D01*
X163247145Y-104462200D01*
X163210871Y-104439180D01*
X163134622Y-104390791D01*
X163094912Y-104376651D01*
X162981794Y-104336371D01*
X162981789Y-104336370D01*
X162975159Y-104334009D01*
X162968173Y-104333176D01*
X162968169Y-104333175D01*
X162849065Y-104318973D01*
X162807079Y-104313967D01*
X162800076Y-104314703D01*
X162800075Y-104314703D01*
X162645743Y-104330923D01*
X162645739Y-104330924D01*
X162638735Y-104331660D01*
X162632064Y-104333931D01*
X162485165Y-104383939D01*
X162485162Y-104383940D01*
X162478495Y-104386210D01*
X162472497Y-104389900D01*
X162472495Y-104389901D01*
X162340321Y-104471215D01*
X162340319Y-104471217D01*
X162334322Y-104474906D01*
X162251222Y-104556284D01*
X162249957Y-104557523D01*
X162187292Y-104590894D01*
X162161799Y-104593500D01*
X162109140Y-104593500D01*
X162084824Y-104590913D01*
X162083401Y-104590846D01*
X162073220Y-104588654D01*
X162040674Y-104592506D01*
X162039652Y-104592627D01*
X162033678Y-104592979D01*
X162033686Y-104593072D01*
X162028508Y-104593500D01*
X162023308Y-104593500D01*
X162018179Y-104594354D01*
X162018176Y-104594354D01*
X162004165Y-104596686D01*
X161998286Y-104597523D01*
X161957433Y-104602358D01*
X161957432Y-104602358D01*
X161947093Y-104603582D01*
X161938794Y-104607567D01*
X161929717Y-104609078D01*
X161884349Y-104633558D01*
X161879086Y-104636239D01*
X161859560Y-104645615D01*
X161832602Y-104658560D01*
X161828308Y-104662169D01*
X161826382Y-104664095D01*
X161824424Y-104665891D01*
X161824367Y-104665921D01*
X161824249Y-104665792D01*
X161823684Y-104666290D01*
X161817943Y-104669388D01*
X161810874Y-104677035D01*
X161810873Y-104677036D01*
X161781146Y-104709195D01*
X161777716Y-104712761D01*
X161108521Y-105381956D01*
X161089505Y-105397315D01*
X161088444Y-105398281D01*
X161079696Y-105403929D01*
X161064428Y-105423296D01*
X161058771Y-105430472D01*
X161054794Y-105434947D01*
X161054865Y-105435008D01*
X161051512Y-105438965D01*
X161047829Y-105442648D01*
X161044803Y-105446883D01*
X161044801Y-105446885D01*
X161036547Y-105458436D01*
X161032984Y-105463182D01*
X161001066Y-105503670D01*
X160998015Y-105512357D01*
X160992666Y-105519843D01*
X160989683Y-105529819D01*
X160989682Y-105529820D01*
X160985965Y-105542250D01*
X160978247Y-105568059D01*
X160977902Y-105569211D01*
X160976072Y-105574843D01*
X160958984Y-105623502D01*
X160958500Y-105629091D01*
X160958500Y-105631802D01*
X160958385Y-105634469D01*
X160958366Y-105634532D01*
X160958192Y-105634525D01*
X160958145Y-105635271D01*
X160956275Y-105641524D01*
X160956969Y-105659194D01*
X160958403Y-105695678D01*
X160958500Y-105700625D01*
X160958500Y-107510591D01*
X160938498Y-107578712D01*
X160884842Y-107625205D01*
X160814568Y-107635309D01*
X160763971Y-107616324D01*
X160703790Y-107577317D01*
X160695170Y-107574739D01*
X160573938Y-107538482D01*
X160573936Y-107538482D01*
X160565337Y-107535910D01*
X160556363Y-107535855D01*
X160556361Y-107535855D01*
X160493082Y-107535469D01*
X160420827Y-107535028D01*
X160381324Y-107546318D01*
X160310330Y-107545806D01*
X160250882Y-107506992D01*
X160221856Y-107442200D01*
X160220700Y-107425169D01*
X160220700Y-106659938D01*
X160221179Y-106648957D01*
X160223563Y-106621710D01*
X160223563Y-106621708D01*
X160224523Y-106610733D01*
X160218394Y-106587855D01*
X160214596Y-106573682D01*
X160212217Y-106562953D01*
X160207465Y-106536003D01*
X160207465Y-106536002D01*
X160205551Y-106525149D01*
X160200040Y-106515604D01*
X160198770Y-106512114D01*
X160197194Y-106508735D01*
X160194340Y-106498083D01*
X160172322Y-106466639D01*
X160166426Y-106457383D01*
X160152751Y-106433698D01*
X160147239Y-106424151D01*
X160138796Y-106417066D01*
X160138793Y-106417063D01*
X160117836Y-106399478D01*
X160109732Y-106392052D01*
X160035767Y-106318087D01*
X160001741Y-106255775D01*
X159999675Y-106241075D01*
X159999688Y-106240000D01*
X159988525Y-106162052D01*
X159980474Y-106105835D01*
X159980473Y-106105833D01*
X159979201Y-106096948D01*
X159919388Y-105965395D01*
X159913530Y-105958596D01*
X159913527Y-105958592D01*
X159830916Y-105862718D01*
X159830913Y-105862716D01*
X159825056Y-105855918D01*
X159754124Y-105809942D01*
X159711324Y-105782200D01*
X159711322Y-105782199D01*
X159703790Y-105777317D01*
X159646208Y-105760096D01*
X159573938Y-105738482D01*
X159573936Y-105738482D01*
X159565337Y-105735910D01*
X159556363Y-105735855D01*
X159556361Y-105735855D01*
X159493082Y-105735469D01*
X159420827Y-105735028D01*
X159331323Y-105760608D01*
X159260330Y-105760096D01*
X159200882Y-105721282D01*
X159171856Y-105656490D01*
X159170700Y-105639459D01*
X159170700Y-101609949D01*
X159171179Y-101598968D01*
X159173564Y-101571709D01*
X159173564Y-101571708D01*
X159174524Y-101560733D01*
X159164591Y-101523661D01*
X159162215Y-101512943D01*
X159157465Y-101486003D01*
X159157465Y-101486002D01*
X159155551Y-101475149D01*
X159150040Y-101465604D01*
X159148769Y-101462111D01*
X159147194Y-101458733D01*
X159144340Y-101448084D01*
X159138016Y-101439053D01*
X159138015Y-101439050D01*
X159122327Y-101416645D01*
X159116422Y-101407376D01*
X159105319Y-101388146D01*
X159097239Y-101374151D01*
X159088796Y-101367067D01*
X159088794Y-101367064D01*
X159067836Y-101349478D01*
X159059732Y-101342052D01*
X158834051Y-101116371D01*
X158800025Y-101054059D01*
X158803833Y-100986777D01*
X158856806Y-100830723D01*
X158857634Y-100825014D01*
X158857635Y-100825009D01*
X158885401Y-100633505D01*
X158885934Y-100629831D01*
X158887454Y-100571778D01*
X158868880Y-100369637D01*
X158866826Y-100362354D01*
X158815347Y-100179824D01*
X158815346Y-100179822D01*
X158813779Y-100174265D01*
X158803200Y-100152811D01*
X158726553Y-99997387D01*
X158723998Y-99992206D01*
X158602542Y-99829557D01*
X158453480Y-99691765D01*
X158448597Y-99688684D01*
X158448593Y-99688681D01*
X158286686Y-99586526D01*
X158281803Y-99583445D01*
X158185009Y-99544828D01*
X158129150Y-99501007D01*
X158105700Y-99427798D01*
X158105700Y-99282196D01*
X158125702Y-99214075D01*
X158179358Y-99167582D01*
X158198558Y-99160633D01*
X158273763Y-99140130D01*
X158273765Y-99140129D01*
X158282422Y-99137769D01*
X158405572Y-99062154D01*
X158502551Y-98955014D01*
X158548184Y-98860826D01*
X158561645Y-98833043D01*
X158561645Y-98833042D01*
X158565560Y-98824962D01*
X158589536Y-98682453D01*
X158589688Y-98670000D01*
X158575149Y-98568482D01*
X158570474Y-98535835D01*
X158570473Y-98535833D01*
X158569201Y-98526948D01*
X158509388Y-98395395D01*
X158503530Y-98388596D01*
X158503527Y-98388592D01*
X158420916Y-98292718D01*
X158420913Y-98292716D01*
X158415056Y-98285918D01*
X158338047Y-98236003D01*
X158301324Y-98212200D01*
X158301322Y-98212199D01*
X158293790Y-98207317D01*
X158285190Y-98204745D01*
X158279481Y-98202107D01*
X158226033Y-98155375D01*
X158206335Y-98087166D01*
X158226641Y-98019135D01*
X158245442Y-97996482D01*
X158284262Y-97959514D01*
X158303416Y-97941274D01*
X158314522Y-97924558D01*
X158393188Y-97806157D01*
X158393189Y-97806155D01*
X158397089Y-97800285D01*
X158457198Y-97642046D01*
X158480756Y-97474422D01*
X158481052Y-97453222D01*
X158462184Y-97285006D01*
X158406516Y-97125151D01*
X158316816Y-96981601D01*
X158309620Y-96974354D01*
X158202504Y-96866488D01*
X158197542Y-96861491D01*
X158054622Y-96770791D01*
X158003123Y-96752453D01*
X157901794Y-96716371D01*
X157901789Y-96716370D01*
X157895159Y-96714009D01*
X157888173Y-96713176D01*
X157888169Y-96713175D01*
X157769065Y-96698973D01*
X157727079Y-96693967D01*
X157720076Y-96694703D01*
X157720075Y-96694703D01*
X157565743Y-96710923D01*
X157565739Y-96710924D01*
X157558735Y-96711660D01*
X157552064Y-96713931D01*
X157405165Y-96763939D01*
X157405162Y-96763940D01*
X157398495Y-96766210D01*
X157392497Y-96769900D01*
X157392495Y-96769901D01*
X157260321Y-96851215D01*
X157260319Y-96851217D01*
X157254322Y-96854906D01*
X157184598Y-96923185D01*
X157154112Y-96953040D01*
X157133383Y-96973339D01*
X157129572Y-96979253D01*
X157129570Y-96979255D01*
X157120053Y-96994023D01*
X157041687Y-97115622D01*
X157031162Y-97144539D01*
X157012978Y-97194499D01*
X156970883Y-97251670D01*
X156904562Y-97277008D01*
X156835070Y-97262467D01*
X156799124Y-97233652D01*
X156780544Y-97212089D01*
X156751230Y-97147427D01*
X156762604Y-97074904D01*
X156774967Y-97049388D01*
X156825560Y-96944962D01*
X156849536Y-96802453D01*
X156849688Y-96790000D01*
X156829201Y-96646948D01*
X156813607Y-96612650D01*
X156803621Y-96542361D01*
X156833221Y-96477829D01*
X156893011Y-96439545D01*
X156928308Y-96434500D01*
X177659500Y-96434500D01*
X177727621Y-96454502D01*
G37*
%TD.AperFunction*%
%TA.AperFunction,Conductor*%
G36*
X168207455Y-110533750D02*
G01*
X168239131Y-110556811D01*
X168322395Y-110640075D01*
X168356421Y-110702387D01*
X168359300Y-110729170D01*
X168359300Y-113913692D01*
X168339298Y-113981813D01*
X168285642Y-114028306D01*
X168215368Y-114038410D01*
X168191034Y-114032391D01*
X168061797Y-113986372D01*
X168061791Y-113986371D01*
X168055159Y-113984009D01*
X168048173Y-113983176D01*
X168048169Y-113983175D01*
X167887079Y-113963967D01*
X167887312Y-113962013D01*
X167828650Y-113944348D01*
X167782528Y-113890373D01*
X167771500Y-113838822D01*
X167771500Y-111433022D01*
X167791502Y-111364901D01*
X167815669Y-111337211D01*
X167869536Y-111291204D01*
X167875314Y-111286269D01*
X167967755Y-111157624D01*
X168026842Y-111010641D01*
X168034889Y-110954095D01*
X168048581Y-110857891D01*
X168048581Y-110857888D01*
X168049162Y-110853807D01*
X168049307Y-110840000D01*
X168047561Y-110825567D01*
X168031189Y-110690279D01*
X168031188Y-110690273D01*
X168030276Y-110682733D01*
X168027677Y-110675854D01*
X168030850Y-110605033D01*
X168071868Y-110547084D01*
X168137704Y-110520511D01*
X168207455Y-110533750D01*
G37*
%TD.AperFunction*%
%TA.AperFunction,Conductor*%
G36*
X165385810Y-106804146D02*
G01*
X165430873Y-106833107D01*
X165611893Y-107014127D01*
X165645919Y-107076439D01*
X165640854Y-107147254D01*
X165611893Y-107192317D01*
X165030011Y-107774199D01*
X165023251Y-107786579D01*
X165026034Y-107790297D01*
X165151613Y-107836999D01*
X165165199Y-107840386D01*
X165318906Y-107860896D01*
X165332902Y-107861189D01*
X165487328Y-107847134D01*
X165501054Y-107844317D01*
X165647436Y-107796754D01*
X165718403Y-107794726D01*
X165779201Y-107831389D01*
X165810527Y-107895101D01*
X165812372Y-107916587D01*
X165812372Y-108137768D01*
X165792370Y-108205889D01*
X165738714Y-108252382D01*
X165685603Y-108263766D01*
X165647777Y-108263535D01*
X165639146Y-108266002D01*
X165639144Y-108266002D01*
X165517459Y-108300779D01*
X165517455Y-108300781D01*
X165508829Y-108303246D01*
X165501242Y-108308033D01*
X165501240Y-108308034D01*
X165405623Y-108368364D01*
X165386611Y-108380360D01*
X165380668Y-108387089D01*
X165380667Y-108387090D01*
X165318529Y-108457449D01*
X165290949Y-108488677D01*
X165287135Y-108496800D01*
X165287134Y-108496802D01*
X165258292Y-108558234D01*
X165229533Y-108619489D01*
X165228153Y-108628353D01*
X165228152Y-108628356D01*
X165208742Y-108753020D01*
X165207300Y-108762280D01*
X165210738Y-108788571D01*
X165210802Y-108789057D01*
X165199803Y-108859196D01*
X165152629Y-108912254D01*
X165084258Y-108931386D01*
X165049765Y-108926113D01*
X164966757Y-108901288D01*
X164923938Y-108888482D01*
X164923936Y-108888482D01*
X164915337Y-108885910D01*
X164906364Y-108885855D01*
X164906362Y-108885855D01*
X164883924Y-108885718D01*
X164854643Y-108885540D01*
X164786646Y-108865123D01*
X164766317Y-108848637D01*
X164707605Y-108789925D01*
X164673579Y-108727613D01*
X164670700Y-108700830D01*
X164670700Y-107467280D01*
X164690702Y-107399159D01*
X164707605Y-107378185D01*
X165252683Y-106833107D01*
X165314995Y-106799081D01*
X165385810Y-106804146D01*
G37*
%TD.AperFunction*%
%TA.AperFunction,Conductor*%
G36*
X156276836Y-101275489D02*
G01*
X156307629Y-101339460D01*
X156309300Y-101359911D01*
X156309300Y-103061202D01*
X156289298Y-103129323D01*
X156277741Y-103144610D01*
X156263999Y-103160170D01*
X156202583Y-103290982D01*
X156201203Y-103299846D01*
X156201202Y-103299849D01*
X156184308Y-103408355D01*
X156180350Y-103433773D01*
X156181514Y-103442675D01*
X156181514Y-103442678D01*
X156195298Y-103548084D01*
X156199088Y-103577065D01*
X156202701Y-103585277D01*
X156202703Y-103585283D01*
X156207045Y-103595150D01*
X156216173Y-103665558D01*
X156185786Y-103729723D01*
X156173377Y-103741851D01*
X156167253Y-103747063D01*
X156159661Y-103751853D01*
X156063999Y-103860170D01*
X156060185Y-103868293D01*
X156060184Y-103868295D01*
X156044025Y-103902714D01*
X156002583Y-103990982D01*
X156001203Y-103999846D01*
X156001202Y-103999849D01*
X155991138Y-104064488D01*
X155980350Y-104133773D01*
X155981514Y-104142675D01*
X155981514Y-104142678D01*
X155995287Y-104248001D01*
X155999088Y-104277065D01*
X156057289Y-104409339D01*
X156063063Y-104416208D01*
X156136410Y-104503464D01*
X156150276Y-104519960D01*
X156157747Y-104524933D01*
X156157748Y-104524934D01*
X156263101Y-104595063D01*
X156263103Y-104595064D01*
X156270574Y-104600037D01*
X156279138Y-104602713D01*
X156279141Y-104602714D01*
X156331855Y-104619183D01*
X156408510Y-104643132D01*
X156552998Y-104645780D01*
X156572530Y-104640455D01*
X156683763Y-104610130D01*
X156683765Y-104610129D01*
X156692422Y-104607769D01*
X156815572Y-104532154D01*
X156912551Y-104425014D01*
X156961381Y-104324227D01*
X156971645Y-104303043D01*
X156971645Y-104303042D01*
X156975560Y-104294962D01*
X156999536Y-104152453D01*
X156999688Y-104140000D01*
X156982756Y-104021768D01*
X156980474Y-104005835D01*
X156980473Y-104005833D01*
X156979201Y-103996948D01*
X156975485Y-103988774D01*
X156974063Y-103985646D01*
X156973584Y-103982271D01*
X156972966Y-103980159D01*
X156973271Y-103980070D01*
X156964078Y-103915355D01*
X156993680Y-103850825D01*
X157008067Y-103836762D01*
X157015572Y-103832154D01*
X157112551Y-103725014D01*
X157154042Y-103639375D01*
X157171645Y-103603043D01*
X157171645Y-103603042D01*
X157175560Y-103594962D01*
X157199536Y-103452453D01*
X157199688Y-103440000D01*
X157187141Y-103352387D01*
X157180474Y-103305835D01*
X157180473Y-103305833D01*
X157179201Y-103296948D01*
X157119388Y-103165395D01*
X157113530Y-103158596D01*
X157113527Y-103158592D01*
X157046256Y-103080522D01*
X157025056Y-103055918D01*
X157017525Y-103051036D01*
X157013871Y-103047849D01*
X156975686Y-102987995D01*
X156970700Y-102952900D01*
X156970700Y-101596404D01*
X156990702Y-101528283D01*
X157044358Y-101481790D01*
X157114632Y-101471686D01*
X157166703Y-101491639D01*
X157248942Y-101546590D01*
X157254245Y-101548868D01*
X157254248Y-101548870D01*
X157410394Y-101615955D01*
X157435450Y-101626720D01*
X157500362Y-101641408D01*
X157627801Y-101670245D01*
X157627806Y-101670246D01*
X157633438Y-101671520D01*
X157639209Y-101671747D01*
X157639211Y-101671747D01*
X157698978Y-101674095D01*
X157836275Y-101679490D01*
X157936721Y-101664926D01*
X158031453Y-101651191D01*
X158031458Y-101651190D01*
X158037167Y-101650362D01*
X158042631Y-101648507D01*
X158042636Y-101648506D01*
X158196122Y-101596404D01*
X158229387Y-101585112D01*
X158234421Y-101582293D01*
X158234425Y-101582291D01*
X158234666Y-101582156D01*
X158234794Y-101582127D01*
X158239708Y-101579939D01*
X158240138Y-101580905D01*
X158303876Y-101566327D01*
X158370656Y-101590429D01*
X158385320Y-101603000D01*
X158472395Y-101690075D01*
X158506421Y-101752387D01*
X158509300Y-101779170D01*
X158509300Y-104489734D01*
X158489298Y-104557855D01*
X158435642Y-104604348D01*
X158365368Y-104614452D01*
X158300788Y-104584958D01*
X158293894Y-104578518D01*
X158202505Y-104486488D01*
X158202501Y-104486485D01*
X158197542Y-104481491D01*
X158167145Y-104462200D01*
X158130871Y-104439180D01*
X158054622Y-104390791D01*
X158014912Y-104376651D01*
X157901794Y-104336371D01*
X157901789Y-104336370D01*
X157895159Y-104334009D01*
X157888173Y-104333176D01*
X157888169Y-104333175D01*
X157769065Y-104318973D01*
X157727079Y-104313967D01*
X157720076Y-104314703D01*
X157720075Y-104314703D01*
X157565743Y-104330923D01*
X157565739Y-104330924D01*
X157558735Y-104331660D01*
X157552064Y-104333931D01*
X157405165Y-104383939D01*
X157405162Y-104383940D01*
X157398495Y-104386210D01*
X157392497Y-104389900D01*
X157392495Y-104389901D01*
X157260321Y-104471215D01*
X157260319Y-104471217D01*
X157254322Y-104474906D01*
X157197649Y-104530405D01*
X157138480Y-104588348D01*
X157133383Y-104593339D01*
X157129572Y-104599253D01*
X157129570Y-104599255D01*
X157089025Y-104662169D01*
X157041687Y-104735622D01*
X157038219Y-104745151D01*
X156986203Y-104888062D01*
X156986202Y-104888067D01*
X156983793Y-104894685D01*
X156962578Y-105062621D01*
X156979096Y-105231084D01*
X157032526Y-105391701D01*
X157044884Y-105412106D01*
X157113030Y-105524628D01*
X157120213Y-105536489D01*
X157125104Y-105541554D01*
X157125105Y-105541555D01*
X157150700Y-105568059D01*
X157237799Y-105658253D01*
X157379438Y-105750939D01*
X157538093Y-105809942D01*
X157545074Y-105810873D01*
X157545076Y-105810874D01*
X157698896Y-105831398D01*
X157698900Y-105831398D01*
X157705877Y-105832329D01*
X157712888Y-105831691D01*
X157712892Y-105831691D01*
X157867430Y-105817627D01*
X157874451Y-105816988D01*
X158035437Y-105764680D01*
X158180834Y-105678006D01*
X158185940Y-105673144D01*
X158296409Y-105567948D01*
X158359534Y-105535456D01*
X158430205Y-105542250D01*
X158485983Y-105586173D01*
X158509300Y-105659194D01*
X158509300Y-106519734D01*
X158489298Y-106587855D01*
X158435642Y-106634348D01*
X158365368Y-106644452D01*
X158300788Y-106614958D01*
X158293894Y-106608518D01*
X158202505Y-106516488D01*
X158202501Y-106516485D01*
X158197542Y-106511491D01*
X158176415Y-106498083D01*
X158128753Y-106467836D01*
X158054622Y-106420791D01*
X157994768Y-106399478D01*
X157901794Y-106366371D01*
X157901789Y-106366370D01*
X157895159Y-106364009D01*
X157888173Y-106363176D01*
X157888169Y-106363175D01*
X157769065Y-106348973D01*
X157727079Y-106343967D01*
X157720076Y-106344703D01*
X157720075Y-106344703D01*
X157565743Y-106360923D01*
X157565739Y-106360924D01*
X157558735Y-106361660D01*
X157552064Y-106363931D01*
X157405165Y-106413939D01*
X157405162Y-106413940D01*
X157398495Y-106416210D01*
X157392497Y-106419900D01*
X157392495Y-106419901D01*
X157260321Y-106501215D01*
X157260319Y-106501217D01*
X157254322Y-106504906D01*
X157243422Y-106515580D01*
X157148518Y-106608518D01*
X157133383Y-106623339D01*
X157129572Y-106629253D01*
X157129570Y-106629255D01*
X157112476Y-106655780D01*
X157041687Y-106765622D01*
X157027459Y-106804714D01*
X156986203Y-106918062D01*
X156986202Y-106918066D01*
X156983793Y-106924685D01*
X156962578Y-107092621D01*
X156979096Y-107261084D01*
X157032526Y-107421701D01*
X157036175Y-107427726D01*
X157105277Y-107541826D01*
X157120213Y-107566489D01*
X157125104Y-107571554D01*
X157125105Y-107571555D01*
X157150700Y-107598059D01*
X157237799Y-107688253D01*
X157379438Y-107780939D01*
X157386042Y-107783395D01*
X157417333Y-107795032D01*
X157474209Y-107837525D01*
X157499083Y-107904022D01*
X157487468Y-107966678D01*
X157456397Y-108032856D01*
X157456395Y-108032863D01*
X157452583Y-108040982D01*
X157451203Y-108049846D01*
X157451202Y-108049849D01*
X157434019Y-108160210D01*
X157430350Y-108183773D01*
X157431514Y-108192675D01*
X157431514Y-108192678D01*
X157443310Y-108282883D01*
X157449088Y-108327065D01*
X157507289Y-108459339D01*
X157523477Y-108478596D01*
X157551999Y-108543610D01*
X157540845Y-108613725D01*
X157493554Y-108666678D01*
X157426259Y-108685671D01*
X157359234Y-108685262D01*
X157320827Y-108685028D01*
X157312196Y-108687495D01*
X157312194Y-108687495D01*
X157190509Y-108722272D01*
X157190505Y-108722274D01*
X157181879Y-108724739D01*
X157128289Y-108758552D01*
X157113936Y-108767608D01*
X157045651Y-108787042D01*
X156977699Y-108766473D01*
X156931654Y-108712432D01*
X156920700Y-108661046D01*
X156920700Y-108459940D01*
X156921179Y-108448960D01*
X156923563Y-108421710D01*
X156923563Y-108421709D01*
X156924523Y-108410733D01*
X156915173Y-108375835D01*
X156914596Y-108373682D01*
X156912217Y-108362953D01*
X156907465Y-108336003D01*
X156907465Y-108336002D01*
X156905551Y-108325149D01*
X156900040Y-108315604D01*
X156898770Y-108312114D01*
X156897194Y-108308735D01*
X156894340Y-108298083D01*
X156872322Y-108266639D01*
X156866426Y-108257383D01*
X156852751Y-108233698D01*
X156847239Y-108224151D01*
X156838796Y-108217066D01*
X156838793Y-108217063D01*
X156817836Y-108199478D01*
X156809732Y-108192052D01*
X155960699Y-107343019D01*
X155926673Y-107280707D01*
X155925020Y-107236388D01*
X155925399Y-107233695D01*
X155937547Y-107147254D01*
X155940205Y-107128345D01*
X155940205Y-107128340D01*
X155940756Y-107124422D01*
X155941052Y-107103222D01*
X155922184Y-106935006D01*
X155866516Y-106775151D01*
X155776816Y-106631601D01*
X155768773Y-106623501D01*
X155669646Y-106523680D01*
X155657542Y-106511491D01*
X155544814Y-106439951D01*
X155498018Y-106386565D01*
X155490624Y-106366179D01*
X155490384Y-106365280D01*
X155484592Y-106343666D01*
X155482215Y-106332943D01*
X155477465Y-106306003D01*
X155477465Y-106306002D01*
X155475551Y-106295149D01*
X155470040Y-106285604D01*
X155468769Y-106282111D01*
X155467194Y-106278733D01*
X155464340Y-106268084D01*
X155458016Y-106259053D01*
X155458015Y-106259050D01*
X155442327Y-106236645D01*
X155436422Y-106227376D01*
X155435194Y-106225249D01*
X155417239Y-106194151D01*
X155408796Y-106187067D01*
X155408794Y-106187064D01*
X155387836Y-106169478D01*
X155379732Y-106162052D01*
X155249872Y-106032192D01*
X155215846Y-105969880D01*
X155220911Y-105899065D01*
X155263458Y-105842229D01*
X155320777Y-105820216D01*
X155320536Y-105819042D01*
X155327430Y-105817627D01*
X155334451Y-105816988D01*
X155495437Y-105764680D01*
X155640834Y-105678006D01*
X155763416Y-105561274D01*
X155776153Y-105542104D01*
X155853188Y-105426157D01*
X155853191Y-105426152D01*
X155857089Y-105420285D01*
X155917198Y-105262046D01*
X155940756Y-105094422D01*
X155941052Y-105073222D01*
X155923371Y-104915587D01*
X155922969Y-104912002D01*
X155922968Y-104911999D01*
X155922184Y-104905006D01*
X155866516Y-104745151D01*
X155776816Y-104601601D01*
X155769620Y-104594354D01*
X155710229Y-104534547D01*
X155657542Y-104481491D01*
X155627145Y-104462200D01*
X155590871Y-104439180D01*
X155514622Y-104390791D01*
X155474912Y-104376651D01*
X155361794Y-104336371D01*
X155361789Y-104336370D01*
X155355159Y-104334009D01*
X155348173Y-104333176D01*
X155348169Y-104333175D01*
X155229065Y-104318973D01*
X155187079Y-104313967D01*
X155180076Y-104314703D01*
X155180075Y-104314703D01*
X155025743Y-104330923D01*
X155025739Y-104330924D01*
X155018735Y-104331660D01*
X155012064Y-104333931D01*
X154865165Y-104383939D01*
X154865162Y-104383940D01*
X154858495Y-104386210D01*
X154852497Y-104389900D01*
X154852495Y-104389901D01*
X154720321Y-104471215D01*
X154720319Y-104471217D01*
X154714322Y-104474906D01*
X154657649Y-104530405D01*
X154598480Y-104588348D01*
X154593383Y-104593339D01*
X154589572Y-104599253D01*
X154589570Y-104599255D01*
X154552611Y-104656604D01*
X154498896Y-104703028D01*
X154428609Y-104713043D01*
X154364066Y-104683467D01*
X154325759Y-104623692D01*
X154320700Y-104588348D01*
X154320700Y-101518671D01*
X154340702Y-101450550D01*
X154394358Y-101404057D01*
X154464632Y-101393953D01*
X154529212Y-101423447D01*
X154534602Y-101428399D01*
X154540160Y-101433813D01*
X154544964Y-101437023D01*
X154582511Y-101462111D01*
X154708942Y-101546590D01*
X154714245Y-101548868D01*
X154714248Y-101548870D01*
X154870394Y-101615955D01*
X154895450Y-101626720D01*
X154960362Y-101641408D01*
X155087801Y-101670245D01*
X155087806Y-101670246D01*
X155093438Y-101671520D01*
X155099209Y-101671747D01*
X155099211Y-101671747D01*
X155158978Y-101674095D01*
X155296275Y-101679490D01*
X155396721Y-101664926D01*
X155491453Y-101651191D01*
X155491458Y-101651190D01*
X155497167Y-101650362D01*
X155502631Y-101648507D01*
X155502636Y-101648506D01*
X155683915Y-101586970D01*
X155683920Y-101586968D01*
X155689387Y-101585112D01*
X155694432Y-101582287D01*
X155771803Y-101538957D01*
X155866498Y-101485925D01*
X155870945Y-101482227D01*
X156018135Y-101359809D01*
X156022567Y-101356123D01*
X156026253Y-101351691D01*
X156026258Y-101351686D01*
X156086426Y-101279342D01*
X156145363Y-101239758D01*
X156216346Y-101238322D01*
X156276836Y-101275489D01*
G37*
%TD.AperFunction*%
%TA.AperFunction,Conductor*%
G36*
X173214343Y-100337780D02*
G01*
X173260836Y-100391436D01*
X173272222Y-100443778D01*
X173272222Y-101632459D01*
X173276188Y-101645965D01*
X173284894Y-101647211D01*
X173463719Y-101586508D01*
X173474216Y-101581834D01*
X173641180Y-101488330D01*
X173650645Y-101481825D01*
X173691931Y-101447488D01*
X173757096Y-101419308D01*
X173827151Y-101430832D01*
X173879855Y-101478401D01*
X173898500Y-101544363D01*
X173898500Y-101810868D01*
X173878498Y-101878989D01*
X173824842Y-101925482D01*
X173765349Y-101933865D01*
X173765337Y-101935910D01*
X173620827Y-101935028D01*
X173612196Y-101937495D01*
X173612194Y-101937495D01*
X173490509Y-101972272D01*
X173490505Y-101972274D01*
X173481879Y-101974739D01*
X173474292Y-101979526D01*
X173474290Y-101979527D01*
X173417082Y-102015623D01*
X173359661Y-102051853D01*
X173353718Y-102058582D01*
X173353717Y-102058583D01*
X173311986Y-102105835D01*
X173263999Y-102160170D01*
X173202583Y-102290982D01*
X173201203Y-102299846D01*
X173201202Y-102299849D01*
X173186932Y-102391502D01*
X173180350Y-102433773D01*
X173181514Y-102442675D01*
X173181514Y-102442678D01*
X173191403Y-102518295D01*
X173199088Y-102577065D01*
X173257289Y-102709339D01*
X173263061Y-102716206D01*
X173263065Y-102716212D01*
X173329751Y-102795544D01*
X173358272Y-102860559D01*
X173359300Y-102876619D01*
X173359300Y-103420202D01*
X173339298Y-103488323D01*
X173307582Y-103519775D01*
X173308157Y-103520450D01*
X173301321Y-103526268D01*
X173293729Y-103531058D01*
X173198067Y-103639375D01*
X173136651Y-103770187D01*
X173135271Y-103779051D01*
X173135270Y-103779054D01*
X173117744Y-103891620D01*
X173114418Y-103912978D01*
X173115582Y-103921880D01*
X173115582Y-103921883D01*
X173131992Y-104047369D01*
X173133156Y-104056270D01*
X173136769Y-104064482D01*
X173136771Y-104064488D01*
X173173142Y-104147147D01*
X173182269Y-104217555D01*
X173151883Y-104281720D01*
X173091629Y-104319270D01*
X173042895Y-104323007D01*
X172974073Y-104314801D01*
X172967079Y-104313967D01*
X172960076Y-104314703D01*
X172960075Y-104314703D01*
X172805743Y-104330923D01*
X172805739Y-104330924D01*
X172798735Y-104331660D01*
X172792064Y-104333931D01*
X172645165Y-104383939D01*
X172645162Y-104383940D01*
X172638495Y-104386210D01*
X172632497Y-104389900D01*
X172632495Y-104389901D01*
X172500321Y-104471215D01*
X172500319Y-104471217D01*
X172494322Y-104474906D01*
X172390700Y-104576381D01*
X172385825Y-104581155D01*
X172323160Y-104614526D01*
X172252401Y-104608720D01*
X172196014Y-104565581D01*
X172171901Y-104498805D01*
X172171667Y-104491132D01*
X172171667Y-101569721D01*
X172191669Y-101501600D01*
X172245325Y-101455107D01*
X172315599Y-101445003D01*
X172367669Y-101464956D01*
X172484378Y-101542939D01*
X172494488Y-101548429D01*
X172670299Y-101623963D01*
X172681242Y-101627518D01*
X172746554Y-101642297D01*
X172760627Y-101641408D01*
X172764222Y-101632010D01*
X172764222Y-100443778D01*
X172784224Y-100375657D01*
X172837880Y-100329164D01*
X172890222Y-100317778D01*
X173146222Y-100317778D01*
X173214343Y-100337780D01*
G37*
%TD.AperFunction*%
M02*
