%TF.GenerationSoftware,KiCad,Pcbnew,(6.0.2)*%
%TF.CreationDate,2022-05-02T21:41:20-07:00*%
%TF.ProjectId,hcms_dot_display_bottom,68636d73-5f64-46f7-945f-646973706c61,rev?*%
%TF.SameCoordinates,Original*%
%TF.FileFunction,Soldermask,Top*%
%TF.FilePolarity,Negative*%
%FSLAX46Y46*%
G04 Gerber Fmt 4.6, Leading zero omitted, Abs format (unit mm)*
G04 Created by KiCad (PCBNEW (6.0.2)) date 2022-05-02 21:41:20*
%MOMM*%
%LPD*%
G01*
G04 APERTURE LIST*
G04 Aperture macros list*
%AMRoundRect*
0 Rectangle with rounded corners*
0 $1 Rounding radius*
0 $2 $3 $4 $5 $6 $7 $8 $9 X,Y pos of 4 corners*
0 Add a 4 corners polygon primitive as box body*
4,1,4,$2,$3,$4,$5,$6,$7,$8,$9,$2,$3,0*
0 Add four circle primitives for the rounded corners*
1,1,$1+$1,$2,$3*
1,1,$1+$1,$4,$5*
1,1,$1+$1,$6,$7*
1,1,$1+$1,$8,$9*
0 Add four rect primitives between the rounded corners*
20,1,$1+$1,$2,$3,$4,$5,0*
20,1,$1+$1,$4,$5,$6,$7,0*
20,1,$1+$1,$6,$7,$8,$9,0*
20,1,$1+$1,$8,$9,$2,$3,0*%
G04 Aperture macros list end*
%ADD10RoundRect,0.152000X0.923000X-0.608000X0.923000X0.608000X-0.923000X0.608000X-0.923000X-0.608000X0*%
%ADD11R,1.200000X0.400000*%
%ADD12RoundRect,0.225000X0.225000X0.250000X-0.225000X0.250000X-0.225000X-0.250000X0.225000X-0.250000X0*%
%ADD13RoundRect,0.200000X-0.275000X0.200000X-0.275000X-0.200000X0.275000X-0.200000X0.275000X0.200000X0*%
%ADD14RoundRect,0.200000X0.200000X0.275000X-0.200000X0.275000X-0.200000X-0.275000X0.200000X-0.275000X0*%
%ADD15R,1.700000X1.700000*%
%ADD16O,1.700000X1.700000*%
%ADD17RoundRect,0.225000X-0.250000X0.225000X-0.250000X-0.225000X0.250000X-0.225000X0.250000X0.225000X0*%
%ADD18R,1.160000X1.160000*%
%ADD19C,1.160000*%
%ADD20C,0.600000*%
%ADD21O,3.200000X1.300000*%
%ADD22O,2.500000X1.300000*%
%ADD23RoundRect,0.200000X-0.200000X-0.275000X0.200000X-0.275000X0.200000X0.275000X-0.200000X0.275000X0*%
%ADD24C,0.700000*%
%ADD25C,4.400000*%
G04 APERTURE END LIST*
D10*
X188545000Y-127020000D03*
X188545000Y-124480000D03*
X188545000Y-121940000D03*
X196805000Y-121940000D03*
X196805000Y-124480000D03*
X196805000Y-127020000D03*
D11*
X183450000Y-125707500D03*
X183450000Y-125072500D03*
X183450000Y-124437500D03*
X183450000Y-123802500D03*
X183450000Y-123167500D03*
X183450000Y-122532500D03*
X183450000Y-121897500D03*
X183450000Y-121262500D03*
X183450000Y-120627500D03*
X183450000Y-119992500D03*
X178250000Y-119992500D03*
X178250000Y-120627500D03*
X178250000Y-121262500D03*
X178250000Y-121897500D03*
X178250000Y-122532500D03*
X178250000Y-123167500D03*
X178250000Y-123802500D03*
X178250000Y-124437500D03*
X178250000Y-125072500D03*
X178250000Y-125707500D03*
D12*
X176375000Y-125650000D03*
X174825000Y-125650000D03*
D13*
X186600000Y-117150000D03*
X186600000Y-118800000D03*
D12*
X176375000Y-122550000D03*
X174825000Y-122550000D03*
D14*
X166925000Y-111450000D03*
X165275000Y-111450000D03*
X176425000Y-119450000D03*
X174775000Y-119450000D03*
D15*
X164100000Y-114400000D03*
D16*
X164100000Y-116940000D03*
D12*
X176375000Y-121000000D03*
X174825000Y-121000000D03*
X176375000Y-124100000D03*
X174825000Y-124100000D03*
D17*
X192050000Y-117200000D03*
X192050000Y-118750000D03*
D13*
X185050000Y-117150000D03*
X185050000Y-118800000D03*
D18*
X197530000Y-111800000D03*
D19*
X197530000Y-114340000D03*
X197530000Y-116880000D03*
D13*
X188150000Y-117150000D03*
X188150000Y-118800000D03*
D14*
X176425000Y-117900000D03*
X174775000Y-117900000D03*
D20*
X170415000Y-121495000D03*
X170415000Y-122345000D03*
X170415000Y-123195000D03*
X170415000Y-124045000D03*
X170415000Y-124895000D03*
X170415000Y-125745000D03*
X170415000Y-126595000D03*
X170415000Y-127445000D03*
X169065000Y-127445000D03*
X169065000Y-126595000D03*
X169065000Y-125745000D03*
X169065000Y-124895000D03*
X169065000Y-124045000D03*
X169065000Y-123195000D03*
X169065000Y-122345000D03*
X169065000Y-121495000D03*
D21*
X169915000Y-120150000D03*
D22*
X165765000Y-120150000D03*
X165765000Y-128790000D03*
D21*
X169915000Y-128790000D03*
D17*
X190500000Y-117200000D03*
X190500000Y-118750000D03*
D15*
X167888000Y-114312000D03*
D16*
X170428000Y-114312000D03*
X172968000Y-114312000D03*
X175508000Y-114312000D03*
X178048000Y-114312000D03*
X180588000Y-114312000D03*
X183128000Y-114312000D03*
X185668000Y-114312000D03*
X188208000Y-114312000D03*
X190748000Y-114312000D03*
X193288000Y-114312000D03*
D23*
X174775000Y-127200000D03*
X176425000Y-127200000D03*
D24*
X194100000Y-128200000D03*
X191150000Y-126950000D03*
X194100000Y-125700000D03*
X191600000Y-128200000D03*
X192850000Y-125250000D03*
X192850000Y-128650000D03*
D25*
X192850000Y-126950000D03*
D24*
X194550000Y-126950000D03*
X191600000Y-125700000D03*
D25*
X165900000Y-125100000D03*
D24*
X167150000Y-126350000D03*
X167150000Y-123850000D03*
X164650000Y-126350000D03*
X164200000Y-125100000D03*
X165900000Y-126800000D03*
X164650000Y-123850000D03*
X167600000Y-125100000D03*
X165900000Y-123400000D03*
M02*
