%TF.GenerationSoftware,KiCad,Pcbnew,(6.0.2)*%
%TF.CreationDate,2022-05-02T21:41:20-07:00*%
%TF.ProjectId,hcms_dot_display_bottom,68636d73-5f64-46f7-945f-646973706c61,rev?*%
%TF.SameCoordinates,Original*%
%TF.FileFunction,Paste,Top*%
%TF.FilePolarity,Positive*%
%FSLAX46Y46*%
G04 Gerber Fmt 4.6, Leading zero omitted, Abs format (unit mm)*
G04 Created by KiCad (PCBNEW (6.0.2)) date 2022-05-02 21:41:20*
%MOMM*%
%LPD*%
G01*
G04 APERTURE LIST*
G04 Aperture macros list*
%AMRoundRect*
0 Rectangle with rounded corners*
0 $1 Rounding radius*
0 $2 $3 $4 $5 $6 $7 $8 $9 X,Y pos of 4 corners*
0 Add a 4 corners polygon primitive as box body*
4,1,4,$2,$3,$4,$5,$6,$7,$8,$9,$2,$3,0*
0 Add four circle primitives for the rounded corners*
1,1,$1+$1,$2,$3*
1,1,$1+$1,$4,$5*
1,1,$1+$1,$6,$7*
1,1,$1+$1,$8,$9*
0 Add four rect primitives between the rounded corners*
20,1,$1+$1,$2,$3,$4,$5,0*
20,1,$1+$1,$4,$5,$6,$7,0*
20,1,$1+$1,$6,$7,$8,$9,0*
20,1,$1+$1,$8,$9,$2,$3,0*%
G04 Aperture macros list end*
%ADD10RoundRect,0.152000X0.923000X-0.608000X0.923000X0.608000X-0.923000X0.608000X-0.923000X-0.608000X0*%
%ADD11R,1.200000X0.400000*%
%ADD12RoundRect,0.225000X0.225000X0.250000X-0.225000X0.250000X-0.225000X-0.250000X0.225000X-0.250000X0*%
%ADD13RoundRect,0.200000X-0.275000X0.200000X-0.275000X-0.200000X0.275000X-0.200000X0.275000X0.200000X0*%
%ADD14RoundRect,0.200000X0.200000X0.275000X-0.200000X0.275000X-0.200000X-0.275000X0.200000X-0.275000X0*%
%ADD15RoundRect,0.225000X-0.250000X0.225000X-0.250000X-0.225000X0.250000X-0.225000X0.250000X0.225000X0*%
%ADD16RoundRect,0.200000X-0.200000X-0.275000X0.200000X-0.275000X0.200000X0.275000X-0.200000X0.275000X0*%
G04 APERTURE END LIST*
D10*
X188545000Y-127020000D03*
X188545000Y-124480000D03*
X188545000Y-121940000D03*
X196805000Y-121940000D03*
X196805000Y-124480000D03*
X196805000Y-127020000D03*
D11*
X183450000Y-125707500D03*
X183450000Y-125072500D03*
X183450000Y-124437500D03*
X183450000Y-123802500D03*
X183450000Y-123167500D03*
X183450000Y-122532500D03*
X183450000Y-121897500D03*
X183450000Y-121262500D03*
X183450000Y-120627500D03*
X183450000Y-119992500D03*
X178250000Y-119992500D03*
X178250000Y-120627500D03*
X178250000Y-121262500D03*
X178250000Y-121897500D03*
X178250000Y-122532500D03*
X178250000Y-123167500D03*
X178250000Y-123802500D03*
X178250000Y-124437500D03*
X178250000Y-125072500D03*
X178250000Y-125707500D03*
D12*
X176375000Y-125650000D03*
X174825000Y-125650000D03*
D13*
X186600000Y-117150000D03*
X186600000Y-118800000D03*
D12*
X176375000Y-122550000D03*
X174825000Y-122550000D03*
D14*
X166925000Y-111450000D03*
X165275000Y-111450000D03*
X176425000Y-119450000D03*
X174775000Y-119450000D03*
D12*
X176375000Y-121000000D03*
X174825000Y-121000000D03*
X176375000Y-124100000D03*
X174825000Y-124100000D03*
D15*
X192050000Y-117200000D03*
X192050000Y-118750000D03*
D13*
X185050000Y-117150000D03*
X185050000Y-118800000D03*
X188150000Y-117150000D03*
X188150000Y-118800000D03*
D14*
X176425000Y-117900000D03*
X174775000Y-117900000D03*
D15*
X190500000Y-117200000D03*
X190500000Y-118750000D03*
D16*
X174775000Y-127200000D03*
X176425000Y-127200000D03*
M02*
