%TF.GenerationSoftware,KiCad,Pcbnew,(6.0.2)*%
%TF.CreationDate,2022-05-02T21:41:20-07:00*%
%TF.ProjectId,hcms_dot_display_bottom,68636d73-5f64-46f7-945f-646973706c61,rev?*%
%TF.SameCoordinates,Original*%
%TF.FileFunction,Copper,L1,Top*%
%TF.FilePolarity,Positive*%
%FSLAX46Y46*%
G04 Gerber Fmt 4.6, Leading zero omitted, Abs format (unit mm)*
G04 Created by KiCad (PCBNEW (6.0.2)) date 2022-05-02 21:41:20*
%MOMM*%
%LPD*%
G01*
G04 APERTURE LIST*
G04 Aperture macros list*
%AMRoundRect*
0 Rectangle with rounded corners*
0 $1 Rounding radius*
0 $2 $3 $4 $5 $6 $7 $8 $9 X,Y pos of 4 corners*
0 Add a 4 corners polygon primitive as box body*
4,1,4,$2,$3,$4,$5,$6,$7,$8,$9,$2,$3,0*
0 Add four circle primitives for the rounded corners*
1,1,$1+$1,$2,$3*
1,1,$1+$1,$4,$5*
1,1,$1+$1,$6,$7*
1,1,$1+$1,$8,$9*
0 Add four rect primitives between the rounded corners*
20,1,$1+$1,$2,$3,$4,$5,0*
20,1,$1+$1,$4,$5,$6,$7,0*
20,1,$1+$1,$6,$7,$8,$9,0*
20,1,$1+$1,$8,$9,$2,$3,0*%
G04 Aperture macros list end*
%TA.AperFunction,SMDPad,CuDef*%
%ADD10RoundRect,0.152000X0.923000X-0.608000X0.923000X0.608000X-0.923000X0.608000X-0.923000X-0.608000X0*%
%TD*%
%TA.AperFunction,SMDPad,CuDef*%
%ADD11R,1.200000X0.400000*%
%TD*%
%TA.AperFunction,SMDPad,CuDef*%
%ADD12RoundRect,0.225000X0.225000X0.250000X-0.225000X0.250000X-0.225000X-0.250000X0.225000X-0.250000X0*%
%TD*%
%TA.AperFunction,SMDPad,CuDef*%
%ADD13RoundRect,0.200000X-0.275000X0.200000X-0.275000X-0.200000X0.275000X-0.200000X0.275000X0.200000X0*%
%TD*%
%TA.AperFunction,SMDPad,CuDef*%
%ADD14RoundRect,0.200000X0.200000X0.275000X-0.200000X0.275000X-0.200000X-0.275000X0.200000X-0.275000X0*%
%TD*%
%TA.AperFunction,ComponentPad*%
%ADD15R,1.700000X1.700000*%
%TD*%
%TA.AperFunction,ComponentPad*%
%ADD16O,1.700000X1.700000*%
%TD*%
%TA.AperFunction,SMDPad,CuDef*%
%ADD17RoundRect,0.225000X-0.250000X0.225000X-0.250000X-0.225000X0.250000X-0.225000X0.250000X0.225000X0*%
%TD*%
%TA.AperFunction,ComponentPad*%
%ADD18R,1.160000X1.160000*%
%TD*%
%TA.AperFunction,ComponentPad*%
%ADD19C,1.160000*%
%TD*%
%TA.AperFunction,ComponentPad*%
%ADD20C,0.600000*%
%TD*%
%TA.AperFunction,ComponentPad*%
%ADD21O,3.200000X1.300000*%
%TD*%
%TA.AperFunction,ComponentPad*%
%ADD22O,2.500000X1.300000*%
%TD*%
%TA.AperFunction,SMDPad,CuDef*%
%ADD23RoundRect,0.200000X-0.200000X-0.275000X0.200000X-0.275000X0.200000X0.275000X-0.200000X0.275000X0*%
%TD*%
%TA.AperFunction,ComponentPad*%
%ADD24C,0.700000*%
%TD*%
%TA.AperFunction,ComponentPad*%
%ADD25C,4.400000*%
%TD*%
%TA.AperFunction,ViaPad*%
%ADD26C,0.600000*%
%TD*%
%TA.AperFunction,Conductor*%
%ADD27C,0.250000*%
%TD*%
%TA.AperFunction,Conductor*%
%ADD28C,0.381000*%
%TD*%
%TA.AperFunction,Conductor*%
%ADD29C,0.152400*%
%TD*%
%TA.AperFunction,Conductor*%
%ADD30C,0.127000*%
%TD*%
%TA.AperFunction,Conductor*%
%ADD31C,0.254000*%
%TD*%
%TA.AperFunction,Conductor*%
%ADD32C,0.200000*%
%TD*%
G04 APERTURE END LIST*
D10*
X188545000Y-127020000D03*
X188545000Y-124480000D03*
X188545000Y-121940000D03*
X196805000Y-121940000D03*
X196805000Y-124480000D03*
X196805000Y-127020000D03*
D11*
X183450000Y-125707500D03*
X183450000Y-125072500D03*
X183450000Y-124437500D03*
X183450000Y-123802500D03*
X183450000Y-123167500D03*
X183450000Y-122532500D03*
X183450000Y-121897500D03*
X183450000Y-121262500D03*
X183450000Y-120627500D03*
X183450000Y-119992500D03*
X178250000Y-119992500D03*
X178250000Y-120627500D03*
X178250000Y-121262500D03*
X178250000Y-121897500D03*
X178250000Y-122532500D03*
X178250000Y-123167500D03*
X178250000Y-123802500D03*
X178250000Y-124437500D03*
X178250000Y-125072500D03*
X178250000Y-125707500D03*
D12*
X176375000Y-125650000D03*
X174825000Y-125650000D03*
D13*
X186600000Y-117150000D03*
X186600000Y-118800000D03*
D12*
X176375000Y-122550000D03*
X174825000Y-122550000D03*
D14*
X166925000Y-111450000D03*
X165275000Y-111450000D03*
X176425000Y-119450000D03*
X174775000Y-119450000D03*
D15*
X164100000Y-114400000D03*
D16*
X164100000Y-116940000D03*
D12*
X176375000Y-121000000D03*
X174825000Y-121000000D03*
X176375000Y-124100000D03*
X174825000Y-124100000D03*
D17*
X192050000Y-117200000D03*
X192050000Y-118750000D03*
D13*
X185050000Y-117150000D03*
X185050000Y-118800000D03*
D18*
X197530000Y-111800000D03*
D19*
X197530000Y-114340000D03*
X197530000Y-116880000D03*
D13*
X188150000Y-117150000D03*
X188150000Y-118800000D03*
D14*
X176425000Y-117900000D03*
X174775000Y-117900000D03*
D20*
X170415000Y-121495000D03*
X170415000Y-122345000D03*
X170415000Y-123195000D03*
X170415000Y-124045000D03*
X170415000Y-124895000D03*
X170415000Y-125745000D03*
X170415000Y-126595000D03*
X170415000Y-127445000D03*
X169065000Y-127445000D03*
X169065000Y-126595000D03*
X169065000Y-125745000D03*
X169065000Y-124895000D03*
X169065000Y-124045000D03*
X169065000Y-123195000D03*
X169065000Y-122345000D03*
X169065000Y-121495000D03*
D21*
X169915000Y-120150000D03*
D22*
X165765000Y-120150000D03*
X165765000Y-128790000D03*
D21*
X169915000Y-128790000D03*
D17*
X190500000Y-117200000D03*
X190500000Y-118750000D03*
D15*
X167888000Y-114312000D03*
D16*
X170428000Y-114312000D03*
X172968000Y-114312000D03*
X175508000Y-114312000D03*
X178048000Y-114312000D03*
X180588000Y-114312000D03*
X183128000Y-114312000D03*
X185668000Y-114312000D03*
X188208000Y-114312000D03*
X190748000Y-114312000D03*
X193288000Y-114312000D03*
D23*
X174775000Y-127200000D03*
X176425000Y-127200000D03*
D24*
X194100000Y-128200000D03*
X191150000Y-126950000D03*
X194100000Y-125700000D03*
X191600000Y-128200000D03*
X192850000Y-125250000D03*
X192850000Y-128650000D03*
D25*
X192850000Y-126950000D03*
D24*
X194550000Y-126950000D03*
X191600000Y-125700000D03*
D25*
X165900000Y-125100000D03*
D24*
X167150000Y-126350000D03*
X167150000Y-123850000D03*
X164650000Y-126350000D03*
X164200000Y-125100000D03*
X165900000Y-126800000D03*
X164650000Y-123850000D03*
X167600000Y-125100000D03*
X165900000Y-123400000D03*
D26*
X171550000Y-123900000D03*
X194450000Y-115850000D03*
X177150000Y-123250000D03*
X175434724Y-121791744D03*
X190617182Y-119686433D03*
X189050000Y-115600000D03*
X172350000Y-127100000D03*
X185450000Y-116300000D03*
X182250000Y-122500000D03*
X180300000Y-121050000D03*
X191680000Y-116230000D03*
X188650000Y-120850000D03*
X171200000Y-118000000D03*
X189500000Y-118600000D03*
X174000000Y-118700000D03*
X174150000Y-120100000D03*
X195250000Y-111900000D03*
X188825000Y-117975000D03*
X184650000Y-123800000D03*
X185350000Y-123200000D03*
X195950000Y-111200000D03*
X195800000Y-112700000D03*
X179500000Y-121500000D03*
X182450000Y-124400000D03*
X183900000Y-118550000D03*
X194800000Y-119350000D03*
X194800000Y-118050000D03*
D27*
X195860249Y-116999519D02*
X194710730Y-115850000D01*
D28*
X177232500Y-123167500D02*
X178250000Y-123167500D01*
D27*
X190500000Y-118875000D02*
X190500000Y-119569251D01*
D28*
X174825000Y-124100000D02*
X174825000Y-125650000D01*
X174825000Y-121182020D02*
X175434724Y-121791744D01*
X175434724Y-121791744D02*
X174825000Y-122401468D01*
D27*
X192200000Y-118925000D02*
X190700000Y-118925000D01*
X194710730Y-115850000D02*
X194450000Y-115850000D01*
D28*
X174825000Y-122401468D02*
X174825000Y-122550000D01*
D29*
X172400000Y-124750000D02*
X172400000Y-127050000D01*
D27*
X189050000Y-115600000D02*
X188150000Y-116500000D01*
D28*
X177150000Y-123250000D02*
X177232500Y-123167500D01*
D27*
X188150000Y-117275000D02*
X185450000Y-117275000D01*
X197430000Y-116940000D02*
X197370481Y-116999519D01*
X197370481Y-116999519D02*
X195860249Y-116999519D01*
D30*
X174825000Y-121000000D02*
X174825000Y-121182020D01*
D28*
X169905002Y-120024989D02*
X165755002Y-120024989D01*
D29*
X182282500Y-122532500D02*
X182250000Y-122500000D01*
D27*
X188150000Y-116500000D02*
X188150000Y-117275000D01*
D29*
X172400000Y-127050000D02*
X172350000Y-127100000D01*
D27*
X190700000Y-118925000D02*
X190700000Y-118875000D01*
D30*
X190500000Y-119569251D02*
X190617182Y-119686433D01*
D27*
X185450000Y-117275000D02*
X185450000Y-116300000D01*
D29*
X183450000Y-122532500D02*
X182282500Y-122532500D01*
X171550000Y-123900000D02*
X172400000Y-124750000D01*
D28*
X174825000Y-122550000D02*
X174825000Y-124100000D01*
D31*
X176375000Y-122550000D02*
X176375000Y-124100000D01*
D27*
X190500000Y-117250000D02*
X189850000Y-117250000D01*
D31*
X178250000Y-122532500D02*
X176392500Y-122532500D01*
X190500000Y-117200000D02*
X191470000Y-116230000D01*
D27*
X189500000Y-117600000D02*
X189500000Y-118525000D01*
X166925000Y-111450000D02*
X167825000Y-112350000D01*
X189850000Y-117250000D02*
X189500000Y-117600000D01*
D31*
X178250000Y-122532500D02*
X179417500Y-122532500D01*
D30*
X188650000Y-121835000D02*
X188545000Y-121940000D01*
D31*
X188650000Y-120850000D02*
X188650000Y-121835000D01*
D27*
X167825000Y-112350000D02*
X167825000Y-114350000D01*
D31*
X179417500Y-122532500D02*
X180200000Y-121750000D01*
X180300000Y-121650000D02*
X180300000Y-121000000D01*
X180200000Y-121750000D02*
X180300000Y-121650000D01*
X176392500Y-122532500D02*
X176375000Y-122550000D01*
X191470000Y-116230000D02*
X191680000Y-116230000D01*
X176375000Y-125650000D02*
X176375000Y-124100000D01*
D29*
X169055002Y-124769989D02*
X169630011Y-124769989D01*
X169630011Y-124769989D02*
X170405002Y-123994998D01*
D32*
X174000000Y-118675000D02*
X174775000Y-117900000D01*
X174000000Y-118700000D02*
X174000000Y-118675000D01*
X174150000Y-120100000D02*
X174150000Y-120075000D01*
X174150000Y-120075000D02*
X174775000Y-119450000D01*
X175445000Y-114350000D02*
X177895000Y-111900000D01*
X177895000Y-111900000D02*
X195284994Y-111900000D01*
D30*
X190750000Y-115600000D02*
X193850000Y-115600000D01*
X188815020Y-117965020D02*
X188815020Y-117534980D01*
X195010000Y-114440000D02*
X197497500Y-114440000D01*
X188815020Y-117534980D02*
X190750000Y-115600000D01*
X188825000Y-117975000D02*
X188815020Y-117965020D01*
X193850000Y-115600000D02*
X195010000Y-114440000D01*
D27*
X184647500Y-123802500D02*
X184650000Y-123800000D01*
X183450000Y-123802500D02*
X184647500Y-123802500D01*
D29*
X183450000Y-123802500D02*
X181947500Y-123802500D01*
X181947500Y-123802500D02*
X177450000Y-128300000D01*
X177450000Y-128300000D02*
X175875000Y-128300000D01*
X175875000Y-128300000D02*
X174775000Y-127200000D01*
X180300000Y-116000000D02*
X179635000Y-116000000D01*
X185350000Y-120687078D02*
X183912922Y-119250000D01*
X179635000Y-116000000D02*
X177985000Y-114350000D01*
X183912922Y-119250000D02*
X183550000Y-119250000D01*
X185350000Y-123200000D02*
X185350000Y-120687078D01*
X183550000Y-119250000D02*
X180300000Y-116000000D01*
D32*
X172905000Y-114350000D02*
X176105000Y-111150000D01*
X176105000Y-111150000D02*
X195900000Y-111150000D01*
X195900000Y-111150000D02*
X195950000Y-111200000D01*
X195650000Y-112550000D02*
X195800000Y-112700000D01*
X180525000Y-114350000D02*
X182325000Y-112550000D01*
X182325000Y-112550000D02*
X195650000Y-112550000D01*
D31*
X178250000Y-121897500D02*
X178250000Y-121262500D01*
X179262500Y-121262500D02*
X179500000Y-121500000D01*
X182450000Y-124400000D02*
X183412500Y-124400000D01*
X176637500Y-121262500D02*
X176375000Y-121000000D01*
X178250000Y-121262500D02*
X176637500Y-121262500D01*
X183412500Y-124400000D02*
X183450000Y-124437500D01*
X178250000Y-121262500D02*
X179262500Y-121262500D01*
D29*
X177900000Y-117900000D02*
X176425000Y-117900000D01*
X178250000Y-119992500D02*
X178250000Y-118250000D01*
X178250000Y-118250000D02*
X177900000Y-117900000D01*
X177527500Y-120627500D02*
X177300000Y-120400000D01*
X177100000Y-119450000D02*
X176425000Y-119450000D01*
X177300000Y-119650000D02*
X177100000Y-119450000D01*
X177300000Y-120400000D02*
X177300000Y-119650000D01*
X178250000Y-120627500D02*
X177527500Y-120627500D01*
X177450000Y-127200000D02*
X178250000Y-126400000D01*
X176425000Y-127200000D02*
X177450000Y-127200000D01*
X178250000Y-126400000D02*
X178250000Y-125707500D01*
D30*
X170978021Y-126021979D02*
X170978021Y-122908021D01*
X170978021Y-122908021D02*
X170415000Y-122345000D01*
X170405002Y-126469989D02*
X170530011Y-126469989D01*
X170530011Y-126469989D02*
X170978021Y-126021979D01*
D27*
X192328564Y-123600000D02*
X193450000Y-123600000D01*
D32*
X185100000Y-118950000D02*
X185050000Y-118900000D01*
D27*
X185100000Y-118975000D02*
X186224040Y-120099040D01*
D32*
X185050000Y-118900000D02*
X184250000Y-118900000D01*
D27*
X193450000Y-123600000D02*
X195750000Y-125900000D01*
X188827604Y-120099040D02*
X192328564Y-123600000D01*
X195750000Y-126550000D02*
X196489992Y-127289992D01*
X196489992Y-127289992D02*
X196980008Y-127289992D01*
X186224040Y-120099040D02*
X188827604Y-120099040D01*
D32*
X184250000Y-118900000D02*
X183900000Y-118550000D01*
D27*
X185100000Y-118950000D02*
X185100000Y-118975000D01*
X195750000Y-125900000D02*
X195750000Y-126550000D01*
X187724520Y-119649520D02*
X187000000Y-118925000D01*
X192587762Y-123223480D02*
X189013802Y-119649520D01*
X195450000Y-123750000D02*
X194923480Y-123223480D01*
X194923480Y-123223480D02*
X192587762Y-123223480D01*
X195450000Y-123750000D02*
X196449992Y-124749992D01*
D32*
X195000000Y-119550000D02*
X194800000Y-119350000D01*
D27*
X189013802Y-119649520D02*
X187724520Y-119649520D01*
D32*
X195000000Y-123300000D02*
X195000000Y-119550000D01*
X195450000Y-123750000D02*
X195000000Y-123300000D01*
D27*
X196449992Y-124749992D02*
X196980008Y-124749992D01*
D32*
X196980008Y-119530008D02*
X196980008Y-122209992D01*
D27*
X194800000Y-118050000D02*
X192450000Y-120400000D01*
X192450000Y-120400000D02*
X190400000Y-120400000D01*
X190400000Y-120400000D02*
X189200000Y-119200000D01*
X188825000Y-119200000D02*
X188550000Y-118925000D01*
X189200000Y-119200000D02*
X188825000Y-119200000D01*
D32*
X194800000Y-118050000D02*
X195500000Y-118050000D01*
X195500000Y-118050000D02*
X196980008Y-119530008D01*
D27*
X164500000Y-112225000D02*
X164500000Y-114360000D01*
X165275000Y-111450000D02*
X164500000Y-112225000D01*
%TA.AperFunction,Conductor*%
G36*
X197998121Y-110194002D02*
G01*
X198044614Y-110247658D01*
X198056000Y-110300000D01*
X198056000Y-110840000D01*
X198035998Y-110908121D01*
X197982342Y-110954614D01*
X197930000Y-110966000D01*
X197802115Y-110966000D01*
X197786876Y-110970475D01*
X197785671Y-110971865D01*
X197784000Y-110979548D01*
X197784000Y-112615884D01*
X197788475Y-112631123D01*
X197789865Y-112632328D01*
X197797548Y-112633999D01*
X197930000Y-112633999D01*
X197998121Y-112654001D01*
X198044614Y-112707657D01*
X198056000Y-112759999D01*
X198056000Y-113466693D01*
X198035998Y-113534814D01*
X197982342Y-113581307D01*
X197912068Y-113591411D01*
X197878751Y-113581799D01*
X197795334Y-113544659D01*
X197795328Y-113544657D01*
X197789295Y-113541971D01*
X197680579Y-113518863D01*
X197624167Y-113506872D01*
X197624163Y-113506872D01*
X197617710Y-113505500D01*
X197442290Y-113505500D01*
X197435837Y-113506872D01*
X197435833Y-113506872D01*
X197379421Y-113518863D01*
X197270705Y-113541971D01*
X197264676Y-113544655D01*
X197264674Y-113544656D01*
X197116482Y-113610636D01*
X197116480Y-113610637D01*
X197110452Y-113613321D01*
X196968535Y-113716429D01*
X196964122Y-113721331D01*
X196964120Y-113721332D01*
X196954129Y-113732428D01*
X196851156Y-113846791D01*
X196847856Y-113852507D01*
X196847853Y-113852511D01*
X196808862Y-113920047D01*
X196763447Y-113998709D01*
X196761406Y-114004991D01*
X196751676Y-114034937D01*
X196711602Y-114093542D01*
X196646205Y-114121179D01*
X196631843Y-114122000D01*
X195029394Y-114122000D01*
X195018416Y-114121521D01*
X195007668Y-114120581D01*
X194992833Y-114119283D01*
X194992832Y-114119283D01*
X194981857Y-114118323D01*
X194971214Y-114121175D01*
X194971212Y-114121175D01*
X194946419Y-114127818D01*
X194935690Y-114130196D01*
X194910421Y-114134652D01*
X194910416Y-114134654D01*
X194899560Y-114136568D01*
X194890013Y-114142081D01*
X194887047Y-114143160D01*
X194884186Y-114144494D01*
X194873534Y-114147348D01*
X194864504Y-114153671D01*
X194843480Y-114168392D01*
X194834210Y-114174297D01*
X194811989Y-114187126D01*
X194811985Y-114187129D01*
X194802440Y-114192640D01*
X194795352Y-114201087D01*
X194778857Y-114220745D01*
X194771431Y-114228849D01*
X194611707Y-114388573D01*
X194549395Y-114422599D01*
X194478580Y-114417534D01*
X194421744Y-114374987D01*
X194397141Y-114311007D01*
X194379187Y-114115613D01*
X194379186Y-114115610D01*
X194378658Y-114109859D01*
X194374056Y-114093542D01*
X194325125Y-113920046D01*
X194325124Y-113920044D01*
X194323557Y-113914487D01*
X194312978Y-113893033D01*
X194236331Y-113737609D01*
X194233776Y-113732428D01*
X194112320Y-113569779D01*
X193963258Y-113431987D01*
X193958375Y-113428906D01*
X193958371Y-113428903D01*
X193796464Y-113326748D01*
X193791581Y-113323667D01*
X193603039Y-113248446D01*
X193597379Y-113247320D01*
X193597375Y-113247319D01*
X193409613Y-113209971D01*
X193409610Y-113209971D01*
X193403946Y-113208844D01*
X193398171Y-113208768D01*
X193398167Y-113208768D01*
X193296793Y-113207441D01*
X193200971Y-113206187D01*
X193195274Y-113207166D01*
X193195273Y-113207166D01*
X193064530Y-113229632D01*
X193000910Y-113240564D01*
X192810463Y-113310824D01*
X192636010Y-113414612D01*
X192631670Y-113418418D01*
X192631666Y-113418421D01*
X192492350Y-113540599D01*
X192483392Y-113548455D01*
X192357720Y-113707869D01*
X192355031Y-113712980D01*
X192355029Y-113712983D01*
X192307128Y-113804027D01*
X192263203Y-113887515D01*
X192203007Y-114081378D01*
X192179148Y-114282964D01*
X192192424Y-114485522D01*
X192193845Y-114491118D01*
X192193846Y-114491123D01*
X192238246Y-114665944D01*
X192242392Y-114682269D01*
X192244809Y-114687512D01*
X192282008Y-114768203D01*
X192327377Y-114866616D01*
X192330710Y-114871332D01*
X192395898Y-114963571D01*
X192444533Y-115032389D01*
X192448675Y-115036424D01*
X192478775Y-115065746D01*
X192513613Y-115127607D01*
X192509476Y-115198483D01*
X192467677Y-115255871D01*
X192401487Y-115281551D01*
X192390854Y-115282000D01*
X191646614Y-115282000D01*
X191578493Y-115261998D01*
X191532000Y-115208342D01*
X191521896Y-115138068D01*
X191549740Y-115075430D01*
X191658453Y-114944718D01*
X191658455Y-114944715D01*
X191662147Y-114940276D01*
X191761334Y-114763165D01*
X191763190Y-114757698D01*
X191763192Y-114757693D01*
X191824728Y-114576414D01*
X191824729Y-114576409D01*
X191826584Y-114570945D01*
X191827412Y-114565236D01*
X191827413Y-114565231D01*
X191848093Y-114422599D01*
X191855712Y-114370053D01*
X191857232Y-114312000D01*
X191838658Y-114109859D01*
X191834056Y-114093542D01*
X191785125Y-113920046D01*
X191785124Y-113920044D01*
X191783557Y-113914487D01*
X191772978Y-113893033D01*
X191696331Y-113737609D01*
X191693776Y-113732428D01*
X191572320Y-113569779D01*
X191423258Y-113431987D01*
X191418375Y-113428906D01*
X191418371Y-113428903D01*
X191256464Y-113326748D01*
X191251581Y-113323667D01*
X191063039Y-113248446D01*
X191057379Y-113247320D01*
X191057375Y-113247319D01*
X190869613Y-113209971D01*
X190869610Y-113209971D01*
X190863946Y-113208844D01*
X190858171Y-113208768D01*
X190858167Y-113208768D01*
X190756793Y-113207441D01*
X190660971Y-113206187D01*
X190655274Y-113207166D01*
X190655273Y-113207166D01*
X190524530Y-113229632D01*
X190460910Y-113240564D01*
X190270463Y-113310824D01*
X190096010Y-113414612D01*
X190091670Y-113418418D01*
X190091666Y-113418421D01*
X189952350Y-113540599D01*
X189943392Y-113548455D01*
X189817720Y-113707869D01*
X189815031Y-113712980D01*
X189815029Y-113712983D01*
X189767128Y-113804027D01*
X189723203Y-113887515D01*
X189663007Y-114081378D01*
X189639148Y-114282964D01*
X189652424Y-114485522D01*
X189653845Y-114491118D01*
X189653846Y-114491123D01*
X189698246Y-114665944D01*
X189702392Y-114682269D01*
X189704809Y-114687512D01*
X189742008Y-114768203D01*
X189787377Y-114866616D01*
X189790710Y-114871332D01*
X189855898Y-114963571D01*
X189904533Y-115032389D01*
X189908675Y-115036424D01*
X189973970Y-115100031D01*
X190049938Y-115174035D01*
X190218720Y-115286812D01*
X190224023Y-115289090D01*
X190224026Y-115289092D01*
X190324011Y-115332049D01*
X190378704Y-115377318D01*
X190400241Y-115444969D01*
X190381784Y-115513524D01*
X190363368Y-115536912D01*
X189059673Y-116840607D01*
X188997361Y-116874633D01*
X188926546Y-116869568D01*
X188869710Y-116827021D01*
X188851696Y-116793261D01*
X188841806Y-116765101D01*
X188831209Y-116734924D01*
X188750010Y-116624990D01*
X188743598Y-116620254D01*
X188709937Y-116558610D01*
X188715002Y-116487795D01*
X188743962Y-116442732D01*
X188993741Y-116192953D01*
X189056052Y-116158929D01*
X189066380Y-116157129D01*
X189194754Y-116140228D01*
X189329643Y-116084355D01*
X189365419Y-116056903D01*
X189438921Y-116000503D01*
X189438924Y-116000500D01*
X189445474Y-115995474D01*
X189534355Y-115879642D01*
X189539350Y-115867585D01*
X189587069Y-115752380D01*
X189590228Y-115744754D01*
X189593379Y-115720824D01*
X189608207Y-115608188D01*
X189609285Y-115600000D01*
X189601988Y-115544574D01*
X189591306Y-115463432D01*
X189591305Y-115463430D01*
X189590228Y-115455246D01*
X189563443Y-115390581D01*
X189537515Y-115327986D01*
X189537514Y-115327984D01*
X189534355Y-115320358D01*
X189484872Y-115255871D01*
X189450501Y-115211077D01*
X189450500Y-115211076D01*
X189445474Y-115204526D01*
X189438924Y-115199500D01*
X189438921Y-115199497D01*
X189336196Y-115120673D01*
X189336194Y-115120672D01*
X189329643Y-115115645D01*
X189212496Y-115067121D01*
X189157216Y-115022572D01*
X189134795Y-114955209D01*
X189150781Y-114889146D01*
X189160758Y-114871332D01*
X189221334Y-114763165D01*
X189223190Y-114757698D01*
X189223192Y-114757693D01*
X189284728Y-114576414D01*
X189284729Y-114576409D01*
X189286584Y-114570945D01*
X189287412Y-114565236D01*
X189287413Y-114565231D01*
X189308093Y-114422599D01*
X189315712Y-114370053D01*
X189317232Y-114312000D01*
X189298658Y-114109859D01*
X189294056Y-114093542D01*
X189245125Y-113920046D01*
X189245124Y-113920044D01*
X189243557Y-113914487D01*
X189232978Y-113893033D01*
X189156331Y-113737609D01*
X189153776Y-113732428D01*
X189032320Y-113569779D01*
X188883258Y-113431987D01*
X188878375Y-113428906D01*
X188878371Y-113428903D01*
X188716464Y-113326748D01*
X188711581Y-113323667D01*
X188523039Y-113248446D01*
X188517379Y-113247320D01*
X188517375Y-113247319D01*
X188329613Y-113209971D01*
X188329610Y-113209971D01*
X188323946Y-113208844D01*
X188318171Y-113208768D01*
X188318167Y-113208768D01*
X188216793Y-113207441D01*
X188120971Y-113206187D01*
X188115274Y-113207166D01*
X188115273Y-113207166D01*
X187984530Y-113229632D01*
X187920910Y-113240564D01*
X187730463Y-113310824D01*
X187556010Y-113414612D01*
X187551670Y-113418418D01*
X187551666Y-113418421D01*
X187412350Y-113540599D01*
X187403392Y-113548455D01*
X187277720Y-113707869D01*
X187275031Y-113712980D01*
X187275029Y-113712983D01*
X187227128Y-113804027D01*
X187183203Y-113887515D01*
X187123007Y-114081378D01*
X187099148Y-114282964D01*
X187112424Y-114485522D01*
X187113845Y-114491118D01*
X187113846Y-114491123D01*
X187158246Y-114665944D01*
X187162392Y-114682269D01*
X187164809Y-114687512D01*
X187202008Y-114768203D01*
X187247377Y-114866616D01*
X187250710Y-114871332D01*
X187315898Y-114963571D01*
X187364533Y-115032389D01*
X187368675Y-115036424D01*
X187433970Y-115100031D01*
X187509938Y-115174035D01*
X187678720Y-115286812D01*
X187684023Y-115289090D01*
X187684026Y-115289092D01*
X187859921Y-115364662D01*
X187865228Y-115366942D01*
X187933485Y-115382387D01*
X188057579Y-115410467D01*
X188057584Y-115410468D01*
X188063216Y-115411742D01*
X188068987Y-115411969D01*
X188068989Y-115411969D01*
X188128756Y-115414317D01*
X188266053Y-115419712D01*
X188329815Y-115410467D01*
X188354556Y-115406880D01*
X188424842Y-115416900D01*
X188478553Y-115463330D01*
X188498636Y-115531427D01*
X188497558Y-115548021D01*
X188492873Y-115583610D01*
X188464151Y-115648537D01*
X188457046Y-115656260D01*
X187919784Y-116193522D01*
X187901036Y-116208664D01*
X187899811Y-116209779D01*
X187891060Y-116215429D01*
X187884613Y-116223607D01*
X187884611Y-116223609D01*
X187870271Y-116241800D01*
X187866325Y-116246241D01*
X187866398Y-116246303D01*
X187863039Y-116250267D01*
X187859362Y-116253944D01*
X187848108Y-116269692D01*
X187844602Y-116274362D01*
X187812844Y-116314647D01*
X187809812Y-116323281D01*
X187804486Y-116330734D01*
X187801501Y-116340715D01*
X187789799Y-116379844D01*
X187787964Y-116385492D01*
X187773607Y-116426373D01*
X187773605Y-116426381D01*
X187770982Y-116433851D01*
X187770500Y-116439416D01*
X187770500Y-116440806D01*
X187770410Y-116441224D01*
X187736519Y-116503609D01*
X187688985Y-116533585D01*
X187659924Y-116543791D01*
X187549990Y-116624990D01*
X187544398Y-116632561D01*
X187544395Y-116632564D01*
X187476351Y-116724688D01*
X187419790Y-116767599D01*
X187349008Y-116773119D01*
X187286479Y-116739495D01*
X187273649Y-116724688D01*
X187205605Y-116632564D01*
X187205602Y-116632561D01*
X187200010Y-116624990D01*
X187090076Y-116543791D01*
X186961127Y-116498507D01*
X186953485Y-116497785D01*
X186953482Y-116497784D01*
X186938508Y-116496369D01*
X186929315Y-116495500D01*
X186600223Y-116495500D01*
X186270686Y-116495501D01*
X186267738Y-116495780D01*
X186267729Y-116495780D01*
X186246522Y-116497784D01*
X186246520Y-116497784D01*
X186238873Y-116498507D01*
X186164184Y-116524736D01*
X186093285Y-116528435D01*
X186031640Y-116493216D01*
X185998822Y-116430260D01*
X185997514Y-116389407D01*
X185997859Y-116386791D01*
X186009285Y-116300000D01*
X186003778Y-116258168D01*
X185991306Y-116163432D01*
X185991305Y-116163430D01*
X185990228Y-116155246D01*
X185956912Y-116074814D01*
X185937515Y-116027986D01*
X185937514Y-116027984D01*
X185934355Y-116020358D01*
X185881647Y-115951667D01*
X185850501Y-115911077D01*
X185850500Y-115911076D01*
X185845474Y-115904526D01*
X185838924Y-115899500D01*
X185838921Y-115899497D01*
X185736196Y-115820673D01*
X185736194Y-115820672D01*
X185729643Y-115815645D01*
X185594754Y-115759772D01*
X185450000Y-115740715D01*
X185441812Y-115741793D01*
X185313432Y-115758694D01*
X185313430Y-115758695D01*
X185305246Y-115759772D01*
X185265168Y-115776373D01*
X185177986Y-115812485D01*
X185177984Y-115812486D01*
X185170358Y-115815645D01*
X185054526Y-115904526D01*
X184965645Y-116020358D01*
X184962486Y-116027984D01*
X184962485Y-116027986D01*
X184943088Y-116074814D01*
X184909772Y-116155246D01*
X184908695Y-116163430D01*
X184908694Y-116163432D01*
X184896222Y-116258168D01*
X184890715Y-116300000D01*
X184893766Y-116323171D01*
X184897700Y-116353054D01*
X184886761Y-116423203D01*
X184839633Y-116476302D01*
X184772778Y-116495501D01*
X184720686Y-116495501D01*
X184717738Y-116495780D01*
X184717729Y-116495780D01*
X184696522Y-116497784D01*
X184696520Y-116497784D01*
X184688873Y-116498507D01*
X184559924Y-116543791D01*
X184449990Y-116624990D01*
X184368791Y-116734924D01*
X184323507Y-116863873D01*
X184320500Y-116895685D01*
X184320501Y-117404314D01*
X184323507Y-117436127D01*
X184368791Y-117565076D01*
X184449990Y-117675010D01*
X184559924Y-117756209D01*
X184688873Y-117801493D01*
X184696515Y-117802215D01*
X184696518Y-117802216D01*
X184711421Y-117803624D01*
X184720685Y-117804500D01*
X185049777Y-117804500D01*
X185379314Y-117804499D01*
X185382262Y-117804220D01*
X185382271Y-117804220D01*
X185403478Y-117802216D01*
X185403480Y-117802216D01*
X185411127Y-117801493D01*
X185540076Y-117756209D01*
X185644407Y-117679149D01*
X185711085Y-117654766D01*
X185719266Y-117654500D01*
X185930734Y-117654500D01*
X185998855Y-117674502D01*
X186005590Y-117679146D01*
X186109924Y-117756209D01*
X186238873Y-117801493D01*
X186246515Y-117802215D01*
X186246518Y-117802216D01*
X186261421Y-117803624D01*
X186270685Y-117804500D01*
X186599777Y-117804500D01*
X186929314Y-117804499D01*
X186932262Y-117804220D01*
X186932271Y-117804220D01*
X186953478Y-117802216D01*
X186953480Y-117802216D01*
X186961127Y-117801493D01*
X187090076Y-117756209D01*
X187194407Y-117679149D01*
X187261085Y-117654766D01*
X187269266Y-117654500D01*
X187480734Y-117654500D01*
X187548855Y-117674502D01*
X187555590Y-117679146D01*
X187659924Y-117756209D01*
X187788873Y-117801493D01*
X187796515Y-117802215D01*
X187796518Y-117802216D01*
X187811421Y-117803624D01*
X187820685Y-117804500D01*
X187829827Y-117804500D01*
X188144487Y-117804499D01*
X188212606Y-117824501D01*
X188259099Y-117878156D01*
X188269408Y-117946943D01*
X188266906Y-117965953D01*
X188265715Y-117975000D01*
X188266793Y-117983188D01*
X188266793Y-117983190D01*
X188269408Y-118003055D01*
X188258468Y-118073204D01*
X188211339Y-118126302D01*
X188144486Y-118145500D01*
X187829841Y-118145501D01*
X187820686Y-118145501D01*
X187817738Y-118145780D01*
X187817729Y-118145780D01*
X187796522Y-118147784D01*
X187796520Y-118147784D01*
X187788873Y-118148507D01*
X187781623Y-118151053D01*
X187767680Y-118155949D01*
X187659924Y-118193791D01*
X187549990Y-118274990D01*
X187544398Y-118282561D01*
X187544395Y-118282564D01*
X187476351Y-118374688D01*
X187419790Y-118417599D01*
X187349008Y-118423119D01*
X187286479Y-118389495D01*
X187273649Y-118374688D01*
X187205605Y-118282564D01*
X187205602Y-118282561D01*
X187200010Y-118274990D01*
X187090076Y-118193791D01*
X186961127Y-118148507D01*
X186953485Y-118147785D01*
X186953482Y-118147784D01*
X186938579Y-118146376D01*
X186929315Y-118145500D01*
X186600223Y-118145500D01*
X186270686Y-118145501D01*
X186267738Y-118145780D01*
X186267729Y-118145780D01*
X186246522Y-118147784D01*
X186246520Y-118147784D01*
X186238873Y-118148507D01*
X186231623Y-118151053D01*
X186217680Y-118155949D01*
X186109924Y-118193791D01*
X185999990Y-118274990D01*
X185994398Y-118282561D01*
X185994395Y-118282564D01*
X185926351Y-118374688D01*
X185869790Y-118417599D01*
X185799008Y-118423119D01*
X185736479Y-118389495D01*
X185723649Y-118374688D01*
X185655605Y-118282564D01*
X185655602Y-118282561D01*
X185650010Y-118274990D01*
X185540076Y-118193791D01*
X185411127Y-118148507D01*
X185403485Y-118147785D01*
X185403482Y-118147784D01*
X185388579Y-118146376D01*
X185379315Y-118145500D01*
X185050223Y-118145500D01*
X184720686Y-118145501D01*
X184717738Y-118145780D01*
X184717729Y-118145780D01*
X184696522Y-118147784D01*
X184696520Y-118147784D01*
X184688873Y-118148507D01*
X184681623Y-118151053D01*
X184667680Y-118155949D01*
X184559924Y-118193791D01*
X184552352Y-118199384D01*
X184552348Y-118199386D01*
X184509878Y-118230756D01*
X184443200Y-118255139D01*
X184373924Y-118239603D01*
X184335055Y-118206109D01*
X184300501Y-118161077D01*
X184300500Y-118161076D01*
X184295474Y-118154526D01*
X184288924Y-118149500D01*
X184288921Y-118149497D01*
X184186196Y-118070673D01*
X184186194Y-118070672D01*
X184179643Y-118065645D01*
X184044754Y-118009772D01*
X183900000Y-117990715D01*
X183891812Y-117991793D01*
X183763432Y-118008694D01*
X183763430Y-118008695D01*
X183755246Y-118009772D01*
X183738453Y-118016728D01*
X183627986Y-118062485D01*
X183627984Y-118062486D01*
X183620358Y-118065645D01*
X183504526Y-118154526D01*
X183415645Y-118270358D01*
X183412485Y-118277987D01*
X183377209Y-118363149D01*
X183332660Y-118418429D01*
X183265296Y-118440850D01*
X183196505Y-118423291D01*
X183171705Y-118404025D01*
X180547948Y-115780268D01*
X180540522Y-115772164D01*
X180522936Y-115751206D01*
X180522933Y-115751204D01*
X180515849Y-115742761D01*
X180482625Y-115723578D01*
X180473355Y-115717673D01*
X180450950Y-115701985D01*
X180450947Y-115701984D01*
X180441916Y-115695660D01*
X180431267Y-115692806D01*
X180427889Y-115691231D01*
X180424396Y-115689960D01*
X180414851Y-115684449D01*
X180403998Y-115682535D01*
X180403997Y-115682535D01*
X180392900Y-115680578D01*
X180377053Y-115677784D01*
X180366339Y-115675409D01*
X180329267Y-115665476D01*
X180318292Y-115666436D01*
X180318291Y-115666436D01*
X180291032Y-115668821D01*
X180280051Y-115669300D01*
X179824170Y-115669300D01*
X179756049Y-115649298D01*
X179735075Y-115632395D01*
X179058600Y-114955920D01*
X179024574Y-114893608D01*
X179029639Y-114822793D01*
X179037760Y-114805259D01*
X179061334Y-114763165D01*
X179063190Y-114757698D01*
X179063192Y-114757693D01*
X179124728Y-114576414D01*
X179124729Y-114576409D01*
X179126584Y-114570945D01*
X179127412Y-114565236D01*
X179127413Y-114565231D01*
X179148093Y-114422599D01*
X179155712Y-114370053D01*
X179157232Y-114312000D01*
X179138658Y-114109859D01*
X179134056Y-114093542D01*
X179085125Y-113920046D01*
X179085124Y-113920044D01*
X179083557Y-113914487D01*
X179072978Y-113893033D01*
X178996331Y-113737609D01*
X178993776Y-113732428D01*
X178872320Y-113569779D01*
X178723258Y-113431987D01*
X178718375Y-113428906D01*
X178718371Y-113428903D01*
X178556464Y-113326748D01*
X178551581Y-113323667D01*
X178363039Y-113248446D01*
X178357379Y-113247320D01*
X178357375Y-113247319D01*
X178169613Y-113209971D01*
X178169610Y-113209971D01*
X178163946Y-113208844D01*
X178158171Y-113208768D01*
X178158167Y-113208768D01*
X178056793Y-113207441D01*
X177960971Y-113206187D01*
X177955274Y-113207166D01*
X177955273Y-113207166D01*
X177824530Y-113229632D01*
X177760910Y-113240564D01*
X177570463Y-113310824D01*
X177396010Y-113414612D01*
X177391670Y-113418418D01*
X177391666Y-113418421D01*
X177252350Y-113540599D01*
X177243392Y-113548455D01*
X177117720Y-113707869D01*
X177115031Y-113712980D01*
X177115029Y-113712983D01*
X177067128Y-113804027D01*
X177023203Y-113887515D01*
X176963007Y-114081378D01*
X176939148Y-114282964D01*
X176952424Y-114485522D01*
X176953845Y-114491118D01*
X176953846Y-114491123D01*
X176998246Y-114665944D01*
X177002392Y-114682269D01*
X177004809Y-114687512D01*
X177042008Y-114768203D01*
X177087377Y-114866616D01*
X177090710Y-114871332D01*
X177155898Y-114963571D01*
X177204533Y-115032389D01*
X177208675Y-115036424D01*
X177273970Y-115100031D01*
X177349938Y-115174035D01*
X177518720Y-115286812D01*
X177524023Y-115289090D01*
X177524026Y-115289092D01*
X177699921Y-115364662D01*
X177705228Y-115366942D01*
X177773485Y-115382387D01*
X177897579Y-115410467D01*
X177897584Y-115410468D01*
X177903216Y-115411742D01*
X177908987Y-115411969D01*
X177908989Y-115411969D01*
X177968756Y-115414317D01*
X178106053Y-115419712D01*
X178216596Y-115403684D01*
X178301231Y-115391413D01*
X178301236Y-115391412D01*
X178306945Y-115390584D01*
X178420112Y-115352169D01*
X178491045Y-115349213D01*
X178549707Y-115382387D01*
X179387052Y-116219732D01*
X179394478Y-116227836D01*
X179412063Y-116248793D01*
X179412066Y-116248796D01*
X179419151Y-116257239D01*
X179428698Y-116262751D01*
X179452383Y-116276426D01*
X179461639Y-116282322D01*
X179493083Y-116304340D01*
X179503735Y-116307194D01*
X179507114Y-116308770D01*
X179510604Y-116310040D01*
X179520149Y-116315551D01*
X179531002Y-116317465D01*
X179531003Y-116317465D01*
X179557953Y-116322217D01*
X179568682Y-116324596D01*
X179595088Y-116331671D01*
X179605733Y-116334523D01*
X179616709Y-116333563D01*
X179616710Y-116333563D01*
X179643960Y-116331179D01*
X179654940Y-116330700D01*
X180110830Y-116330700D01*
X180178951Y-116350702D01*
X180199925Y-116367605D01*
X183155226Y-119322906D01*
X183189252Y-119385218D01*
X183184187Y-119456033D01*
X183141640Y-119512869D01*
X183075120Y-119537680D01*
X183066131Y-119538001D01*
X182824934Y-119538001D01*
X182791761Y-119544599D01*
X182762874Y-119550344D01*
X182762872Y-119550345D01*
X182750699Y-119552766D01*
X182740379Y-119559661D01*
X182740378Y-119559662D01*
X182709957Y-119579989D01*
X182666516Y-119609016D01*
X182610266Y-119693199D01*
X182595500Y-119767433D01*
X182595501Y-120217566D01*
X182608997Y-120285418D01*
X182608997Y-120334579D01*
X182595500Y-120402433D01*
X182595501Y-120852566D01*
X182596708Y-120858633D01*
X182596708Y-120858635D01*
X182598496Y-120867622D01*
X182608997Y-120920418D01*
X182608997Y-120969579D01*
X182595500Y-121037433D01*
X182595501Y-121487566D01*
X182608997Y-121555418D01*
X182608997Y-121604579D01*
X182595500Y-121672433D01*
X182595500Y-121854351D01*
X182575498Y-121922472D01*
X182521842Y-121968965D01*
X182451568Y-121979069D01*
X182421283Y-121970760D01*
X182402387Y-121962933D01*
X182402380Y-121962931D01*
X182394754Y-121959772D01*
X182250000Y-121940715D01*
X182241812Y-121941793D01*
X182113432Y-121958694D01*
X182113430Y-121958695D01*
X182105246Y-121959772D01*
X182078719Y-121970760D01*
X181977986Y-122012485D01*
X181977984Y-122012486D01*
X181970358Y-122015645D01*
X181854526Y-122104526D01*
X181849503Y-122111072D01*
X181830168Y-122136270D01*
X181765645Y-122220358D01*
X181762486Y-122227984D01*
X181762485Y-122227986D01*
X181736742Y-122290135D01*
X181709772Y-122355246D01*
X181708695Y-122363430D01*
X181708694Y-122363432D01*
X181693841Y-122476255D01*
X181690715Y-122500000D01*
X181691793Y-122508188D01*
X181707987Y-122631193D01*
X181709772Y-122644754D01*
X181712931Y-122652380D01*
X181759014Y-122763633D01*
X181765645Y-122779642D01*
X181807134Y-122833711D01*
X181838009Y-122873948D01*
X181854526Y-122895474D01*
X181861076Y-122900500D01*
X181861079Y-122900503D01*
X181963804Y-122979327D01*
X181970357Y-122984355D01*
X182105246Y-123040228D01*
X182250000Y-123059285D01*
X182258188Y-123058207D01*
X182280680Y-123055246D01*
X182394754Y-123040228D01*
X182402382Y-123037068D01*
X182402387Y-123037067D01*
X182421283Y-123029240D01*
X182491873Y-123021651D01*
X182555359Y-123053431D01*
X182591586Y-123114489D01*
X182595500Y-123145648D01*
X182595501Y-123345799D01*
X182575499Y-123413920D01*
X182521844Y-123460413D01*
X182469501Y-123471800D01*
X181967437Y-123471800D01*
X181956456Y-123471321D01*
X181929208Y-123468937D01*
X181929207Y-123468937D01*
X181918232Y-123467977D01*
X181903166Y-123472014D01*
X181881173Y-123477907D01*
X181870440Y-123480286D01*
X181843509Y-123485034D01*
X181843508Y-123485034D01*
X181832649Y-123486949D01*
X181823097Y-123492463D01*
X181819604Y-123493735D01*
X181816236Y-123495305D01*
X181805583Y-123498160D01*
X181774139Y-123520178D01*
X181764883Y-123526074D01*
X181744803Y-123537668D01*
X181731651Y-123545261D01*
X181724566Y-123553704D01*
X181724563Y-123553707D01*
X181706978Y-123574664D01*
X181699552Y-123582768D01*
X179319595Y-125962725D01*
X179257283Y-125996751D01*
X179186468Y-125991686D01*
X179129632Y-125949139D01*
X179104821Y-125882619D01*
X179104500Y-125873630D01*
X179104499Y-125488623D01*
X179104499Y-125482434D01*
X179091003Y-125414579D01*
X179091003Y-125365419D01*
X179104500Y-125297567D01*
X179104499Y-124847434D01*
X179091003Y-124779579D01*
X179091003Y-124730419D01*
X179104500Y-124662567D01*
X179104499Y-124212434D01*
X179091003Y-124144579D01*
X179091003Y-124095419D01*
X179104500Y-124027567D01*
X179104499Y-123577434D01*
X179091003Y-123509579D01*
X179091003Y-123460421D01*
X179104500Y-123392567D01*
X179104499Y-122942434D01*
X179103197Y-122935885D01*
X179100108Y-122920358D01*
X179090748Y-122873297D01*
X179090748Y-122824139D01*
X179102793Y-122763585D01*
X179104000Y-122751330D01*
X179104000Y-122750615D01*
X179099525Y-122735376D01*
X179098135Y-122734171D01*
X179090452Y-122732500D01*
X178979466Y-122732500D01*
X178949543Y-122726548D01*
X178949301Y-122727766D01*
X178881135Y-122714207D01*
X178875067Y-122713000D01*
X178250102Y-122713000D01*
X177624934Y-122713001D01*
X177599901Y-122717980D01*
X177589347Y-122720079D01*
X177564768Y-122722500D01*
X177350545Y-122722500D01*
X177310505Y-122714535D01*
X177310362Y-122715070D01*
X177302383Y-122712932D01*
X177294754Y-122709772D01*
X177150000Y-122690715D01*
X177141812Y-122691793D01*
X177013432Y-122708694D01*
X177013430Y-122708695D01*
X177005246Y-122709772D01*
X176870358Y-122765645D01*
X176858362Y-122774850D01*
X176854305Y-122777963D01*
X176788085Y-122803563D01*
X176777602Y-122804000D01*
X176247000Y-122804000D01*
X176178879Y-122783998D01*
X176132386Y-122730342D01*
X176121000Y-122678000D01*
X176121000Y-122422000D01*
X176141002Y-122353879D01*
X176194658Y-122307386D01*
X176247000Y-122296000D01*
X177060885Y-122296000D01*
X177076124Y-122291525D01*
X177077329Y-122290135D01*
X177079000Y-122282452D01*
X177079000Y-122258073D01*
X177078631Y-122251259D01*
X177073490Y-122203934D01*
X177069865Y-122188689D01*
X177027625Y-122076012D01*
X177019092Y-122060425D01*
X176947566Y-121964990D01*
X176935010Y-121952434D01*
X176833210Y-121876138D01*
X176790696Y-121819278D01*
X176785671Y-121748459D01*
X176819731Y-121686166D01*
X176833212Y-121674485D01*
X176840300Y-121669173D01*
X176906807Y-121644326D01*
X176915864Y-121644000D01*
X177269500Y-121644000D01*
X177337621Y-121664002D01*
X177384114Y-121717658D01*
X177395500Y-121770000D01*
X177395501Y-121949526D01*
X177395501Y-122122566D01*
X177409252Y-122191701D01*
X177409252Y-122240861D01*
X177397207Y-122301415D01*
X177396000Y-122313670D01*
X177396000Y-122314385D01*
X177400475Y-122329624D01*
X177401865Y-122330829D01*
X177409548Y-122332500D01*
X177520534Y-122332500D01*
X177550457Y-122338452D01*
X177550699Y-122337234D01*
X177624933Y-122352000D01*
X178249898Y-122352000D01*
X178875066Y-122351999D01*
X178949301Y-122337234D01*
X178949543Y-122338451D01*
X178979464Y-122332500D01*
X179085884Y-122332500D01*
X179101123Y-122328025D01*
X179102328Y-122326635D01*
X179103999Y-122318952D01*
X179103999Y-122313672D01*
X179102792Y-122301415D01*
X179090748Y-122240863D01*
X179090748Y-122191701D01*
X179090749Y-122191700D01*
X179104500Y-122122567D01*
X179104500Y-122116377D01*
X179104883Y-122112493D01*
X179131467Y-122046661D01*
X179189422Y-122005652D01*
X179260348Y-122002486D01*
X179278492Y-122008435D01*
X179355246Y-122040228D01*
X179500000Y-122059285D01*
X179508188Y-122058207D01*
X179636566Y-122041306D01*
X179644754Y-122040228D01*
X179779643Y-121984355D01*
X179786537Y-121979065D01*
X179888921Y-121900503D01*
X179888924Y-121900500D01*
X179895474Y-121895474D01*
X179910551Y-121875826D01*
X179979328Y-121786193D01*
X179984355Y-121779642D01*
X180007857Y-121722905D01*
X180030647Y-121667885D01*
X180040228Y-121644754D01*
X180047102Y-121592544D01*
X180058207Y-121508188D01*
X180059285Y-121500000D01*
X180040228Y-121355246D01*
X180014018Y-121291970D01*
X179987515Y-121227986D01*
X179987514Y-121227984D01*
X179984355Y-121220358D01*
X179936605Y-121158129D01*
X179900501Y-121111077D01*
X179900500Y-121111076D01*
X179895474Y-121104526D01*
X179888924Y-121099500D01*
X179888921Y-121099497D01*
X179786196Y-121020673D01*
X179786194Y-121020672D01*
X179779643Y-121015645D01*
X179662779Y-120967238D01*
X179652383Y-120962932D01*
X179644754Y-120959772D01*
X179500000Y-120940715D01*
X179500215Y-120939079D01*
X179453196Y-120927008D01*
X179448830Y-120923566D01*
X179440143Y-120920515D01*
X179432657Y-120915166D01*
X179422681Y-120912183D01*
X179422680Y-120912182D01*
X179383289Y-120900402D01*
X179377657Y-120898572D01*
X179328998Y-120881484D01*
X179323409Y-120881000D01*
X179320698Y-120881000D01*
X179318031Y-120880885D01*
X179317968Y-120880866D01*
X179317975Y-120880692D01*
X179317229Y-120880645D01*
X179310976Y-120878775D01*
X179262192Y-120880692D01*
X179256822Y-120880903D01*
X179251875Y-120881000D01*
X179230500Y-120881000D01*
X179162379Y-120860998D01*
X179115886Y-120807342D01*
X179104500Y-120755000D01*
X179104499Y-120408623D01*
X179104499Y-120402434D01*
X179091003Y-120334579D01*
X179091003Y-120285419D01*
X179104500Y-120217567D01*
X179104499Y-119767434D01*
X179089734Y-119693199D01*
X179082676Y-119682635D01*
X179040377Y-119619332D01*
X179033484Y-119609016D01*
X178983384Y-119575540D01*
X178959620Y-119559661D01*
X178949301Y-119552766D01*
X178875067Y-119538000D01*
X178706700Y-119538000D01*
X178638579Y-119517998D01*
X178592086Y-119464342D01*
X178580700Y-119412000D01*
X178580700Y-118269949D01*
X178581179Y-118258968D01*
X178583564Y-118231709D01*
X178583564Y-118231708D01*
X178584524Y-118220733D01*
X178574591Y-118183661D01*
X178572215Y-118172943D01*
X178567465Y-118146003D01*
X178567465Y-118146002D01*
X178565551Y-118135149D01*
X178560040Y-118125604D01*
X178558769Y-118122111D01*
X178557194Y-118118733D01*
X178554340Y-118108084D01*
X178548016Y-118099053D01*
X178548015Y-118099050D01*
X178532327Y-118076645D01*
X178526421Y-118067375D01*
X178512750Y-118043696D01*
X178512749Y-118043695D01*
X178507239Y-118034151D01*
X178477847Y-118009488D01*
X178469744Y-118002063D01*
X178147943Y-117680263D01*
X178140517Y-117672159D01*
X178122933Y-117651203D01*
X178122932Y-117651202D01*
X178115849Y-117642761D01*
X178082625Y-117623578D01*
X178073355Y-117617673D01*
X178050950Y-117601985D01*
X178050947Y-117601984D01*
X178041916Y-117595660D01*
X178031267Y-117592806D01*
X178027889Y-117591231D01*
X178024396Y-117589960D01*
X178014851Y-117584449D01*
X178003998Y-117582535D01*
X178003997Y-117582535D01*
X177992900Y-117580578D01*
X177977053Y-117577784D01*
X177966339Y-117575409D01*
X177929267Y-117565476D01*
X177918292Y-117566436D01*
X177918291Y-117566436D01*
X177891032Y-117568821D01*
X177880051Y-117569300D01*
X177176473Y-117569300D01*
X177108352Y-117549298D01*
X177061859Y-117495642D01*
X177057599Y-117485072D01*
X177031209Y-117409924D01*
X176950010Y-117299990D01*
X176840076Y-117218791D01*
X176711127Y-117173507D01*
X176703485Y-117172785D01*
X176703482Y-117172784D01*
X176688579Y-117171376D01*
X176679315Y-117170500D01*
X176425172Y-117170500D01*
X176170686Y-117170501D01*
X176167738Y-117170780D01*
X176167729Y-117170780D01*
X176146522Y-117172784D01*
X176146520Y-117172784D01*
X176138873Y-117173507D01*
X176009924Y-117218791D01*
X175899990Y-117299990D01*
X175818791Y-117409924D01*
X175773507Y-117538873D01*
X175772785Y-117546515D01*
X175772784Y-117546518D01*
X175771870Y-117556188D01*
X175770500Y-117570685D01*
X175770501Y-118229314D01*
X175773507Y-118261127D01*
X175818791Y-118390076D01*
X175899990Y-118500010D01*
X175907561Y-118505602D01*
X175907564Y-118505605D01*
X175999688Y-118573649D01*
X176042599Y-118630210D01*
X176048119Y-118700992D01*
X176014495Y-118763521D01*
X175999688Y-118776351D01*
X175907564Y-118844395D01*
X175907561Y-118844398D01*
X175899990Y-118849990D01*
X175818791Y-118959924D01*
X175773507Y-119088873D01*
X175772785Y-119096515D01*
X175772784Y-119096518D01*
X175771761Y-119107347D01*
X175770500Y-119120685D01*
X175770501Y-119779314D01*
X175773507Y-119811127D01*
X175776052Y-119818374D01*
X175776053Y-119818377D01*
X175779898Y-119829327D01*
X175818791Y-119940076D01*
X175899990Y-120050010D01*
X175907561Y-120055602D01*
X175966211Y-120098922D01*
X176009121Y-120155483D01*
X176014641Y-120226265D01*
X175981017Y-120288794D01*
X175935580Y-120318255D01*
X175917365Y-120325083D01*
X175910186Y-120330463D01*
X175910183Y-120330465D01*
X175822252Y-120396367D01*
X175807456Y-120407456D01*
X175802077Y-120414633D01*
X175730465Y-120510183D01*
X175730463Y-120510186D01*
X175725083Y-120517365D01*
X175721932Y-120525771D01*
X175717982Y-120536307D01*
X175675341Y-120593072D01*
X175608779Y-120617772D01*
X175539430Y-120602565D01*
X175489312Y-120552279D01*
X175482018Y-120536307D01*
X175478068Y-120525771D01*
X175474917Y-120517365D01*
X175469537Y-120510186D01*
X175469535Y-120510183D01*
X175397923Y-120414633D01*
X175392544Y-120407456D01*
X175377748Y-120396367D01*
X175289817Y-120330465D01*
X175289814Y-120330463D01*
X175282635Y-120325083D01*
X175264420Y-120318255D01*
X175207657Y-120275616D01*
X175182955Y-120209055D01*
X175198161Y-120139706D01*
X175233789Y-120098922D01*
X175292439Y-120055602D01*
X175300010Y-120050010D01*
X175381209Y-119940076D01*
X175426493Y-119811127D01*
X175429500Y-119779315D01*
X175429499Y-119120686D01*
X175426493Y-119088873D01*
X175381209Y-118959924D01*
X175300010Y-118849990D01*
X175292439Y-118844398D01*
X175292436Y-118844395D01*
X175200312Y-118776351D01*
X175157401Y-118719790D01*
X175151881Y-118649008D01*
X175185505Y-118586479D01*
X175200312Y-118573649D01*
X175292436Y-118505605D01*
X175292439Y-118505602D01*
X175300010Y-118500010D01*
X175381209Y-118390076D01*
X175426493Y-118261127D01*
X175427479Y-118250702D01*
X175428624Y-118238579D01*
X175429500Y-118229315D01*
X175429499Y-117570686D01*
X175429098Y-117566436D01*
X175427216Y-117546522D01*
X175427215Y-117546518D01*
X175426493Y-117538873D01*
X175381209Y-117409924D01*
X175300010Y-117299990D01*
X175190076Y-117218791D01*
X175061127Y-117173507D01*
X175053485Y-117172785D01*
X175053482Y-117172784D01*
X175038579Y-117171376D01*
X175029315Y-117170500D01*
X174775172Y-117170500D01*
X174520686Y-117170501D01*
X174517738Y-117170780D01*
X174517729Y-117170780D01*
X174496522Y-117172784D01*
X174496520Y-117172784D01*
X174488873Y-117173507D01*
X174359924Y-117218791D01*
X174249990Y-117299990D01*
X174168791Y-117409924D01*
X174123507Y-117538873D01*
X174122785Y-117546515D01*
X174122784Y-117546518D01*
X174121870Y-117556188D01*
X174120500Y-117570685D01*
X174120501Y-117808118D01*
X174120501Y-118000971D01*
X174100499Y-118069091D01*
X174083596Y-118090066D01*
X174068187Y-118105475D01*
X174005875Y-118139501D01*
X173995538Y-118141302D01*
X173863432Y-118158694D01*
X173863430Y-118158695D01*
X173855246Y-118159772D01*
X173810376Y-118178358D01*
X173727986Y-118212485D01*
X173727984Y-118212486D01*
X173720358Y-118215645D01*
X173666064Y-118257306D01*
X173620375Y-118292365D01*
X173604526Y-118304526D01*
X173515645Y-118420358D01*
X173512486Y-118427984D01*
X173512485Y-118427986D01*
X173501574Y-118454327D01*
X173459772Y-118555246D01*
X173458695Y-118563430D01*
X173458694Y-118563432D01*
X173449996Y-118629500D01*
X173440715Y-118700000D01*
X173441793Y-118708188D01*
X173456539Y-118820193D01*
X173459772Y-118844754D01*
X173470508Y-118870673D01*
X173511562Y-118969784D01*
X173515645Y-118979642D01*
X173604526Y-119095474D01*
X173611076Y-119100500D01*
X173611079Y-119100503D01*
X173702723Y-119170824D01*
X173720357Y-119184355D01*
X173855246Y-119240228D01*
X173863434Y-119241306D01*
X173895291Y-119245500D01*
X173996682Y-119258848D01*
X173996685Y-119258849D01*
X174000000Y-119259285D01*
X173999932Y-119259802D01*
X174062621Y-119278209D01*
X174109114Y-119331865D01*
X174120500Y-119384204D01*
X174120501Y-119434097D01*
X174100500Y-119502219D01*
X174046846Y-119548713D01*
X174021275Y-119556055D01*
X174021409Y-119556557D01*
X174013432Y-119558694D01*
X174005246Y-119559772D01*
X173985735Y-119567854D01*
X173877986Y-119612485D01*
X173877984Y-119612486D01*
X173870358Y-119615645D01*
X173754526Y-119704526D01*
X173665645Y-119820358D01*
X173662486Y-119827984D01*
X173662485Y-119827986D01*
X173648013Y-119862924D01*
X173609772Y-119955246D01*
X173608695Y-119963430D01*
X173608694Y-119963432D01*
X173601560Y-120017621D01*
X173590715Y-120100000D01*
X173591793Y-120108188D01*
X173606992Y-120223635D01*
X173609772Y-120244754D01*
X173620437Y-120270501D01*
X173659344Y-120364429D01*
X173665645Y-120379642D01*
X173692495Y-120414633D01*
X173741768Y-120478847D01*
X173754526Y-120495474D01*
X173761076Y-120500500D01*
X173761079Y-120500503D01*
X173863804Y-120579327D01*
X173870357Y-120584355D01*
X174005246Y-120640228D01*
X174013434Y-120641306D01*
X174021410Y-120643443D01*
X174020891Y-120645380D01*
X174075867Y-120669695D01*
X174114962Y-120728957D01*
X174120500Y-120765900D01*
X174120501Y-121031362D01*
X174120501Y-121295388D01*
X174126870Y-121354024D01*
X174175083Y-121482635D01*
X174180463Y-121489814D01*
X174180465Y-121489817D01*
X174194234Y-121508188D01*
X174257456Y-121592544D01*
X174264633Y-121597923D01*
X174264636Y-121597926D01*
X174366373Y-121674174D01*
X174408888Y-121731033D01*
X174413914Y-121801852D01*
X174379854Y-121864145D01*
X174366373Y-121875826D01*
X174264636Y-121952074D01*
X174264633Y-121952077D01*
X174257456Y-121957456D01*
X174252077Y-121964633D01*
X174180465Y-122060183D01*
X174180463Y-122060186D01*
X174175083Y-122067365D01*
X174171933Y-122075769D01*
X174171932Y-122075770D01*
X174154390Y-122122566D01*
X174126870Y-122195976D01*
X174120500Y-122254611D01*
X174120501Y-122845388D01*
X174120870Y-122848782D01*
X174120870Y-122848788D01*
X174125230Y-122888923D01*
X174126870Y-122904024D01*
X174151737Y-122970358D01*
X174171659Y-123023500D01*
X174175083Y-123032635D01*
X174180463Y-123039814D01*
X174180465Y-123039817D01*
X174252077Y-123135367D01*
X174257456Y-123142544D01*
X174264633Y-123147923D01*
X174329566Y-123196588D01*
X174372080Y-123253448D01*
X174380000Y-123297414D01*
X174380000Y-123352586D01*
X174359998Y-123420707D01*
X174329566Y-123453412D01*
X174264731Y-123502004D01*
X174257456Y-123507456D01*
X174252077Y-123514633D01*
X174180465Y-123610183D01*
X174180463Y-123610186D01*
X174175083Y-123617365D01*
X174171933Y-123625769D01*
X174171932Y-123625770D01*
X174130557Y-123736142D01*
X174126870Y-123745976D01*
X174126017Y-123753826D01*
X174126017Y-123753827D01*
X174121466Y-123795718D01*
X174120500Y-123804611D01*
X174120501Y-124395388D01*
X174120870Y-124398782D01*
X174120870Y-124398788D01*
X174126006Y-124446066D01*
X174126870Y-124454024D01*
X174154252Y-124527067D01*
X174167716Y-124562982D01*
X174175083Y-124582635D01*
X174180463Y-124589814D01*
X174180465Y-124589817D01*
X174252077Y-124685367D01*
X174257456Y-124692544D01*
X174264633Y-124697923D01*
X174329566Y-124746588D01*
X174372080Y-124803448D01*
X174380000Y-124847414D01*
X174380000Y-124902586D01*
X174359998Y-124970707D01*
X174329566Y-125003412D01*
X174268519Y-125049165D01*
X174257456Y-125057456D01*
X174252077Y-125064633D01*
X174180465Y-125160183D01*
X174180463Y-125160186D01*
X174175083Y-125167365D01*
X174171933Y-125175769D01*
X174171932Y-125175770D01*
X174167716Y-125187018D01*
X174126870Y-125295976D01*
X174120500Y-125354611D01*
X174120501Y-125945388D01*
X174120870Y-125948782D01*
X174120870Y-125948788D01*
X174126006Y-125996066D01*
X174126870Y-126004024D01*
X174154990Y-126079035D01*
X174170931Y-126121558D01*
X174175083Y-126132635D01*
X174180463Y-126139814D01*
X174180465Y-126139817D01*
X174252077Y-126235367D01*
X174257456Y-126242544D01*
X174264633Y-126247923D01*
X174358442Y-126318230D01*
X174400956Y-126375090D01*
X174405981Y-126445909D01*
X174371921Y-126508202D01*
X174357736Y-126520407D01*
X174316211Y-126551078D01*
X174249990Y-126599990D01*
X174168791Y-126709924D01*
X174123507Y-126838873D01*
X174122785Y-126846515D01*
X174122784Y-126846518D01*
X174121376Y-126861421D01*
X174120500Y-126870685D01*
X174120501Y-127529314D01*
X174120780Y-127532262D01*
X174120780Y-127532271D01*
X174122784Y-127553478D01*
X174123507Y-127561127D01*
X174168791Y-127690076D01*
X174249990Y-127800010D01*
X174359924Y-127881209D01*
X174488873Y-127926493D01*
X174496515Y-127927215D01*
X174496518Y-127927216D01*
X174511421Y-127928624D01*
X174520685Y-127929500D01*
X174552324Y-127929500D01*
X174984629Y-127929499D01*
X175052750Y-127949501D01*
X175073724Y-127966404D01*
X175627052Y-128519732D01*
X175634478Y-128527836D01*
X175652064Y-128548794D01*
X175652067Y-128548796D01*
X175659151Y-128557239D01*
X175690983Y-128575618D01*
X175692376Y-128576422D01*
X175701645Y-128582327D01*
X175724050Y-128598015D01*
X175724053Y-128598016D01*
X175733084Y-128604340D01*
X175743733Y-128607194D01*
X175747111Y-128608769D01*
X175750604Y-128610040D01*
X175760149Y-128615551D01*
X175771002Y-128617465D01*
X175771003Y-128617465D01*
X175782100Y-128619422D01*
X175797947Y-128622216D01*
X175808661Y-128624591D01*
X175845733Y-128634524D01*
X175856708Y-128633564D01*
X175856709Y-128633564D01*
X175883968Y-128631179D01*
X175894949Y-128630700D01*
X177430051Y-128630700D01*
X177441032Y-128631179D01*
X177468291Y-128633564D01*
X177468292Y-128633564D01*
X177479267Y-128634524D01*
X177516339Y-128624591D01*
X177527053Y-128622216D01*
X177542900Y-128619422D01*
X177553997Y-128617465D01*
X177553998Y-128617465D01*
X177564851Y-128615551D01*
X177574396Y-128610040D01*
X177577889Y-128608769D01*
X177581267Y-128607194D01*
X177591916Y-128604340D01*
X177600947Y-128598016D01*
X177600950Y-128598015D01*
X177623355Y-128582327D01*
X177632624Y-128576422D01*
X177634017Y-128575618D01*
X177665849Y-128557239D01*
X177672933Y-128548796D01*
X177672936Y-128548794D01*
X177690522Y-128527836D01*
X177697948Y-128519732D01*
X178562679Y-127655001D01*
X187216000Y-127655001D01*
X187216775Y-127664844D01*
X187229507Y-127745233D01*
X187235559Y-127763858D01*
X187284945Y-127860784D01*
X187296456Y-127876627D01*
X187373373Y-127953544D01*
X187389216Y-127965055D01*
X187486142Y-128014441D01*
X187504767Y-128020493D01*
X187585156Y-128033225D01*
X187594999Y-128034000D01*
X188272885Y-128034000D01*
X188288124Y-128029525D01*
X188289329Y-128028135D01*
X188291000Y-128020452D01*
X188291000Y-128015885D01*
X188799000Y-128015885D01*
X188803475Y-128031124D01*
X188804865Y-128032329D01*
X188812548Y-128034000D01*
X189495001Y-128034000D01*
X189504844Y-128033225D01*
X189585233Y-128020493D01*
X189603858Y-128014441D01*
X189700784Y-127965055D01*
X189716627Y-127953544D01*
X189793544Y-127876627D01*
X189805055Y-127860784D01*
X189854441Y-127763858D01*
X189860493Y-127745233D01*
X189873225Y-127664844D01*
X189874000Y-127655001D01*
X189874000Y-127292115D01*
X189869525Y-127276876D01*
X189868135Y-127275671D01*
X189860452Y-127274000D01*
X188817115Y-127274000D01*
X188801876Y-127278475D01*
X188800671Y-127279865D01*
X188799000Y-127287548D01*
X188799000Y-128015885D01*
X188291000Y-128015885D01*
X188291000Y-127292115D01*
X188286525Y-127276876D01*
X188285135Y-127275671D01*
X188277452Y-127274000D01*
X187234115Y-127274000D01*
X187218876Y-127278475D01*
X187217671Y-127279865D01*
X187216000Y-127287548D01*
X187216000Y-127655001D01*
X178562679Y-127655001D01*
X179469795Y-126747885D01*
X187216000Y-126747885D01*
X187220475Y-126763124D01*
X187221865Y-126764329D01*
X187229548Y-126766000D01*
X188272885Y-126766000D01*
X188288124Y-126761525D01*
X188289329Y-126760135D01*
X188291000Y-126752452D01*
X188291000Y-126747885D01*
X188799000Y-126747885D01*
X188803475Y-126763124D01*
X188804865Y-126764329D01*
X188812548Y-126766000D01*
X189855885Y-126766000D01*
X189871124Y-126761525D01*
X189872329Y-126760135D01*
X189874000Y-126752452D01*
X189874000Y-126384999D01*
X189873225Y-126375156D01*
X189860493Y-126294767D01*
X189854441Y-126276142D01*
X189805055Y-126179216D01*
X189793544Y-126163373D01*
X189716627Y-126086456D01*
X189700784Y-126074945D01*
X189603858Y-126025559D01*
X189585233Y-126019507D01*
X189504844Y-126006775D01*
X189495001Y-126006000D01*
X188817115Y-126006000D01*
X188801876Y-126010475D01*
X188800671Y-126011865D01*
X188799000Y-126019548D01*
X188799000Y-126747885D01*
X188291000Y-126747885D01*
X188291000Y-126024115D01*
X188286525Y-126008876D01*
X188285135Y-126007671D01*
X188277452Y-126006000D01*
X187594999Y-126006000D01*
X187585156Y-126006775D01*
X187504767Y-126019507D01*
X187486142Y-126025559D01*
X187389216Y-126074945D01*
X187373373Y-126086456D01*
X187296456Y-126163373D01*
X187284945Y-126179216D01*
X187235559Y-126276142D01*
X187229507Y-126294767D01*
X187216775Y-126375156D01*
X187216000Y-126384999D01*
X187216000Y-126747885D01*
X179469795Y-126747885D01*
X181707060Y-124510620D01*
X181769372Y-124476594D01*
X181840187Y-124481659D01*
X181897023Y-124524206D01*
X181912563Y-124551496D01*
X181962482Y-124672007D01*
X181965645Y-124679642D01*
X182054526Y-124795474D01*
X182061076Y-124800500D01*
X182061079Y-124800503D01*
X182159248Y-124875831D01*
X182170357Y-124884355D01*
X182305246Y-124940228D01*
X182450000Y-124959285D01*
X182458188Y-124958207D01*
X182466446Y-124958207D01*
X182466446Y-124960971D01*
X182523205Y-124969823D01*
X182576302Y-125016953D01*
X182595500Y-125083804D01*
X182595501Y-125202992D01*
X182595501Y-125297566D01*
X182596708Y-125303633D01*
X182596708Y-125303635D01*
X182597878Y-125309516D01*
X182608997Y-125365418D01*
X182608997Y-125414579D01*
X182595500Y-125482433D01*
X182595501Y-125932566D01*
X182602612Y-125968318D01*
X182607260Y-125991686D01*
X182610266Y-126006801D01*
X182617161Y-126017120D01*
X182617162Y-126017122D01*
X182643284Y-126056216D01*
X182666516Y-126090984D01*
X182750699Y-126147234D01*
X182824933Y-126162000D01*
X183449898Y-126162000D01*
X184075066Y-126161999D01*
X184110818Y-126154888D01*
X184137126Y-126149656D01*
X184137128Y-126149655D01*
X184149301Y-126147234D01*
X184159621Y-126140339D01*
X184159622Y-126140338D01*
X184223168Y-126097877D01*
X184233484Y-126090984D01*
X184289734Y-126006801D01*
X184304500Y-125932567D01*
X184304499Y-125482434D01*
X184291003Y-125414579D01*
X184291003Y-125365419D01*
X184304500Y-125297567D01*
X184304500Y-125115001D01*
X187216000Y-125115001D01*
X187216775Y-125124844D01*
X187229507Y-125205233D01*
X187235559Y-125223858D01*
X187284945Y-125320784D01*
X187296456Y-125336627D01*
X187373373Y-125413544D01*
X187389216Y-125425055D01*
X187486142Y-125474441D01*
X187504767Y-125480493D01*
X187585156Y-125493225D01*
X187594999Y-125494000D01*
X188272885Y-125494000D01*
X188288124Y-125489525D01*
X188289329Y-125488135D01*
X188291000Y-125480452D01*
X188291000Y-125475885D01*
X188799000Y-125475885D01*
X188803475Y-125491124D01*
X188804865Y-125492329D01*
X188812548Y-125494000D01*
X189495001Y-125494000D01*
X189504844Y-125493225D01*
X189585233Y-125480493D01*
X189603858Y-125474441D01*
X189700784Y-125425055D01*
X189716627Y-125413544D01*
X189793544Y-125336627D01*
X189805055Y-125320784D01*
X189854441Y-125223858D01*
X189860493Y-125205233D01*
X189873225Y-125124844D01*
X189874000Y-125115001D01*
X189874000Y-124752115D01*
X189869525Y-124736876D01*
X189868135Y-124735671D01*
X189860452Y-124734000D01*
X188817115Y-124734000D01*
X188801876Y-124738475D01*
X188800671Y-124739865D01*
X188799000Y-124747548D01*
X188799000Y-125475885D01*
X188291000Y-125475885D01*
X188291000Y-124752115D01*
X188286525Y-124736876D01*
X188285135Y-124735671D01*
X188277452Y-124734000D01*
X187234115Y-124734000D01*
X187218876Y-124738475D01*
X187217671Y-124739865D01*
X187216000Y-124747548D01*
X187216000Y-125115001D01*
X184304500Y-125115001D01*
X184304499Y-124847434D01*
X184291003Y-124779579D01*
X184291003Y-124730419D01*
X184304500Y-124662567D01*
X184304499Y-124445648D01*
X184324501Y-124377529D01*
X184378156Y-124331036D01*
X184448430Y-124320931D01*
X184478715Y-124329239D01*
X184497616Y-124337068D01*
X184497619Y-124337069D01*
X184505246Y-124340228D01*
X184650000Y-124359285D01*
X184658188Y-124358207D01*
X184786566Y-124341306D01*
X184794754Y-124340228D01*
X184929643Y-124284355D01*
X184941458Y-124275289D01*
X185029301Y-124207885D01*
X187216000Y-124207885D01*
X187220475Y-124223124D01*
X187221865Y-124224329D01*
X187229548Y-124226000D01*
X188272885Y-124226000D01*
X188288124Y-124221525D01*
X188289329Y-124220135D01*
X188291000Y-124212452D01*
X188291000Y-124207885D01*
X188799000Y-124207885D01*
X188803475Y-124223124D01*
X188804865Y-124224329D01*
X188812548Y-124226000D01*
X189855885Y-124226000D01*
X189871124Y-124221525D01*
X189872329Y-124220135D01*
X189874000Y-124212452D01*
X189874000Y-123844999D01*
X189873225Y-123835156D01*
X189860493Y-123754767D01*
X189854441Y-123736142D01*
X189805055Y-123639216D01*
X189793544Y-123623373D01*
X189716627Y-123546456D01*
X189700784Y-123534945D01*
X189603858Y-123485559D01*
X189585233Y-123479507D01*
X189504844Y-123466775D01*
X189495001Y-123466000D01*
X188817115Y-123466000D01*
X188801876Y-123470475D01*
X188800671Y-123471865D01*
X188799000Y-123479548D01*
X188799000Y-124207885D01*
X188291000Y-124207885D01*
X188291000Y-123484115D01*
X188286525Y-123468876D01*
X188285135Y-123467671D01*
X188277452Y-123466000D01*
X187594999Y-123466000D01*
X187585156Y-123466775D01*
X187504767Y-123479507D01*
X187486142Y-123485559D01*
X187389216Y-123534945D01*
X187373373Y-123546456D01*
X187296456Y-123623373D01*
X187284945Y-123639216D01*
X187235559Y-123736142D01*
X187229507Y-123754767D01*
X187216775Y-123835156D01*
X187216000Y-123844999D01*
X187216000Y-124207885D01*
X185029301Y-124207885D01*
X185038921Y-124200503D01*
X185038924Y-124200500D01*
X185045474Y-124195474D01*
X185056145Y-124181568D01*
X185122249Y-124095419D01*
X185134355Y-124079642D01*
X185148705Y-124045000D01*
X185183476Y-123961055D01*
X185190228Y-123944754D01*
X185192078Y-123930707D01*
X185200505Y-123866691D01*
X185229227Y-123801764D01*
X185288492Y-123762672D01*
X185333554Y-123758910D01*
X185333554Y-123758207D01*
X185341812Y-123758207D01*
X185350000Y-123759285D01*
X185358188Y-123758207D01*
X185376753Y-123755763D01*
X185494754Y-123740228D01*
X185504619Y-123736142D01*
X185512779Y-123732762D01*
X185629643Y-123684355D01*
X185636537Y-123679065D01*
X185738921Y-123600503D01*
X185738924Y-123600500D01*
X185745474Y-123595474D01*
X185758213Y-123578873D01*
X185803259Y-123520167D01*
X185834355Y-123479642D01*
X185837577Y-123471865D01*
X185887069Y-123352380D01*
X185890228Y-123344754D01*
X185896461Y-123297414D01*
X185908207Y-123208188D01*
X185909285Y-123200000D01*
X185898464Y-123117806D01*
X185891306Y-123063432D01*
X185891305Y-123063430D01*
X185890228Y-123055246D01*
X185847099Y-122951124D01*
X185837515Y-122927986D01*
X185837514Y-122927984D01*
X185834355Y-122920358D01*
X185772025Y-122839128D01*
X185750501Y-122811077D01*
X185750500Y-122811076D01*
X185745474Y-122804526D01*
X185729994Y-122792648D01*
X185688128Y-122735310D01*
X185680700Y-122692687D01*
X185680700Y-122575001D01*
X187216000Y-122575001D01*
X187216775Y-122584844D01*
X187229507Y-122665233D01*
X187235559Y-122683858D01*
X187284945Y-122780784D01*
X187296456Y-122796627D01*
X187373373Y-122873544D01*
X187389216Y-122885055D01*
X187486142Y-122934441D01*
X187504767Y-122940493D01*
X187585156Y-122953225D01*
X187594999Y-122954000D01*
X188272885Y-122954000D01*
X188288124Y-122949525D01*
X188289329Y-122948135D01*
X188291000Y-122940452D01*
X188291000Y-122935885D01*
X188799000Y-122935885D01*
X188803475Y-122951124D01*
X188804865Y-122952329D01*
X188812548Y-122954000D01*
X189495001Y-122954000D01*
X189504844Y-122953225D01*
X189585233Y-122940493D01*
X189603858Y-122934441D01*
X189700784Y-122885055D01*
X189716627Y-122873544D01*
X189793544Y-122796627D01*
X189805055Y-122780784D01*
X189854441Y-122683858D01*
X189860493Y-122665233D01*
X189873225Y-122584844D01*
X189874000Y-122575001D01*
X189874000Y-122212115D01*
X189869525Y-122196876D01*
X189868135Y-122195671D01*
X189860452Y-122194000D01*
X188817115Y-122194000D01*
X188801876Y-122198475D01*
X188800671Y-122199865D01*
X188799000Y-122207548D01*
X188799000Y-122935885D01*
X188291000Y-122935885D01*
X188291000Y-122212115D01*
X188286525Y-122196876D01*
X188285135Y-122195671D01*
X188277452Y-122194000D01*
X187234115Y-122194000D01*
X187218876Y-122198475D01*
X187217671Y-122199865D01*
X187216000Y-122207548D01*
X187216000Y-122575001D01*
X185680700Y-122575001D01*
X185680700Y-121667885D01*
X187216000Y-121667885D01*
X187220475Y-121683124D01*
X187221865Y-121684329D01*
X187229548Y-121686000D01*
X188272885Y-121686000D01*
X188288124Y-121681525D01*
X188289329Y-121680135D01*
X188291000Y-121672452D01*
X188291000Y-120944115D01*
X188286525Y-120928876D01*
X188285135Y-120927671D01*
X188277452Y-120926000D01*
X187594999Y-120926000D01*
X187585156Y-120926775D01*
X187504767Y-120939507D01*
X187486142Y-120945559D01*
X187389216Y-120994945D01*
X187373373Y-121006456D01*
X187296456Y-121083373D01*
X187284945Y-121099216D01*
X187235559Y-121196142D01*
X187229507Y-121214767D01*
X187216775Y-121295156D01*
X187216000Y-121304999D01*
X187216000Y-121667885D01*
X185680700Y-121667885D01*
X185680700Y-120707027D01*
X185681179Y-120696046D01*
X185683564Y-120668787D01*
X185683564Y-120668786D01*
X185684524Y-120657811D01*
X185674591Y-120620739D01*
X185672215Y-120610021D01*
X185667465Y-120583081D01*
X185667465Y-120583080D01*
X185665551Y-120572227D01*
X185660040Y-120562682D01*
X185658769Y-120559189D01*
X185657194Y-120555811D01*
X185654340Y-120545162D01*
X185648016Y-120536131D01*
X185648015Y-120536128D01*
X185632327Y-120513723D01*
X185626422Y-120504454D01*
X185624141Y-120500503D01*
X185607239Y-120471229D01*
X185598796Y-120464145D01*
X185598794Y-120464142D01*
X185577836Y-120446556D01*
X185569732Y-120439130D01*
X184800197Y-119669595D01*
X184766171Y-119607283D01*
X184771236Y-119536468D01*
X184813783Y-119479632D01*
X184880303Y-119454821D01*
X184889292Y-119454500D01*
X184990616Y-119454500D01*
X185058737Y-119474502D01*
X185079711Y-119491405D01*
X185917562Y-120329256D01*
X185932704Y-120348004D01*
X185933819Y-120349229D01*
X185939469Y-120357980D01*
X185947647Y-120364427D01*
X185947649Y-120364429D01*
X185965840Y-120378769D01*
X185970281Y-120382715D01*
X185970343Y-120382642D01*
X185974307Y-120386001D01*
X185977984Y-120389678D01*
X185993732Y-120400932D01*
X185998402Y-120404438D01*
X186038687Y-120436196D01*
X186047321Y-120439228D01*
X186054774Y-120444554D01*
X186103890Y-120459243D01*
X186109532Y-120461076D01*
X186150407Y-120475430D01*
X186157891Y-120478058D01*
X186163456Y-120478540D01*
X186166164Y-120478540D01*
X186168798Y-120478654D01*
X186168896Y-120478683D01*
X186168889Y-120478847D01*
X186169593Y-120478891D01*
X186175818Y-120480753D01*
X186229675Y-120478637D01*
X186234622Y-120478540D01*
X188618220Y-120478540D01*
X188686341Y-120498542D01*
X188707315Y-120515445D01*
X188902775Y-120710905D01*
X188936801Y-120773217D01*
X188931736Y-120844032D01*
X188889189Y-120900868D01*
X188822669Y-120925679D01*
X188817591Y-120925860D01*
X188801876Y-120930475D01*
X188800671Y-120931865D01*
X188799000Y-120939548D01*
X188799000Y-121667885D01*
X188803475Y-121683124D01*
X188804865Y-121684329D01*
X188812548Y-121686000D01*
X189825680Y-121686000D01*
X189893801Y-121706002D01*
X189914775Y-121722905D01*
X192022086Y-123830216D01*
X192037228Y-123848964D01*
X192038343Y-123850189D01*
X192043993Y-123858940D01*
X192052171Y-123865387D01*
X192052173Y-123865389D01*
X192070364Y-123879729D01*
X192074805Y-123883675D01*
X192074867Y-123883602D01*
X192078831Y-123886961D01*
X192082508Y-123890638D01*
X192098256Y-123901892D01*
X192102926Y-123905398D01*
X192143211Y-123937156D01*
X192151845Y-123940188D01*
X192159298Y-123945514D01*
X192208414Y-123960203D01*
X192214056Y-123962036D01*
X192242430Y-123972000D01*
X192262415Y-123979018D01*
X192267980Y-123979500D01*
X192270688Y-123979500D01*
X192273322Y-123979614D01*
X192273420Y-123979643D01*
X192273413Y-123979807D01*
X192274117Y-123979851D01*
X192280342Y-123981713D01*
X192334199Y-123979597D01*
X192339146Y-123979500D01*
X193240616Y-123979500D01*
X193308737Y-123999502D01*
X193329711Y-124016405D01*
X193707234Y-124393928D01*
X193741260Y-124456240D01*
X193736195Y-124527055D01*
X193693648Y-124583891D01*
X193627128Y-124608702D01*
X193586804Y-124605065D01*
X193310837Y-124534209D01*
X193004424Y-124495500D01*
X192695576Y-124495500D01*
X192389163Y-124534209D01*
X192090018Y-124611016D01*
X191802858Y-124724711D01*
X191799399Y-124726612D01*
X191799396Y-124726614D01*
X191711534Y-124774917D01*
X191532213Y-124873500D01*
X191529009Y-124875828D01*
X191529004Y-124875831D01*
X191285934Y-125052431D01*
X191282349Y-125055036D01*
X191057209Y-125266457D01*
X190860342Y-125504429D01*
X190822265Y-125564429D01*
X190705932Y-125747741D01*
X190694853Y-125765198D01*
X190563351Y-126044652D01*
X190467912Y-126338384D01*
X190410040Y-126641761D01*
X190390647Y-126950000D01*
X190410040Y-127258239D01*
X190467912Y-127561616D01*
X190563351Y-127855348D01*
X190694853Y-128134802D01*
X190860342Y-128395571D01*
X191057209Y-128633543D01*
X191282349Y-128844964D01*
X191285551Y-128847291D01*
X191285553Y-128847292D01*
X191529004Y-129024169D01*
X191529009Y-129024172D01*
X191532213Y-129026500D01*
X191802858Y-129175289D01*
X191939932Y-129229561D01*
X191948235Y-129232848D01*
X192004209Y-129276523D01*
X192027685Y-129343526D01*
X192011209Y-129412584D01*
X191960013Y-129461773D01*
X191901851Y-129476000D01*
X171731904Y-129476000D01*
X171663783Y-129455998D01*
X171617290Y-129402342D01*
X171607186Y-129332068D01*
X171629967Y-129275941D01*
X171652635Y-129244741D01*
X171682910Y-129176743D01*
X171727284Y-129077076D01*
X171727284Y-129077075D01*
X171729969Y-129071045D01*
X171769500Y-128885067D01*
X171769500Y-128694933D01*
X171757028Y-128636254D01*
X171744895Y-128579176D01*
X171729969Y-128508955D01*
X171680845Y-128398620D01*
X171655320Y-128341289D01*
X171655319Y-128341287D01*
X171652635Y-128335259D01*
X171540877Y-128181438D01*
X171399580Y-128054214D01*
X171299885Y-127996655D01*
X171240643Y-127962451D01*
X171240642Y-127962450D01*
X171234920Y-127959147D01*
X171054092Y-127900392D01*
X171047529Y-127899702D01*
X171047528Y-127899702D01*
X171034848Y-127898369D01*
X171003861Y-127895113D01*
X170938205Y-127868100D01*
X170897574Y-127809879D01*
X170894871Y-127738934D01*
X170900622Y-127721585D01*
X170952068Y-127597383D01*
X170952069Y-127597380D01*
X170955228Y-127589754D01*
X170958043Y-127568377D01*
X170973207Y-127453188D01*
X170974285Y-127445000D01*
X170959755Y-127334630D01*
X170956306Y-127308432D01*
X170956305Y-127308430D01*
X170955228Y-127300246D01*
X170932242Y-127244754D01*
X170902515Y-127172986D01*
X170902514Y-127172984D01*
X170899355Y-127165358D01*
X170846675Y-127096704D01*
X170821075Y-127030484D01*
X170835340Y-126960935D01*
X170846675Y-126943296D01*
X170894328Y-126881193D01*
X170899355Y-126874642D01*
X170902761Y-126866421D01*
X170944356Y-126766000D01*
X170955228Y-126739754D01*
X170957520Y-126722349D01*
X170973207Y-126603188D01*
X170974285Y-126595000D01*
X170971336Y-126572599D01*
X170968486Y-126550947D01*
X170979426Y-126480798D01*
X171004313Y-126445407D01*
X171189172Y-126260548D01*
X171197276Y-126253122D01*
X171216934Y-126236627D01*
X171225381Y-126229539D01*
X171230892Y-126219994D01*
X171230895Y-126219990D01*
X171243724Y-126197769D01*
X171249629Y-126188499D01*
X171264350Y-126167475D01*
X171270673Y-126158445D01*
X171273527Y-126147793D01*
X171274861Y-126144932D01*
X171275940Y-126141966D01*
X171281453Y-126132419D01*
X171283367Y-126121563D01*
X171283369Y-126121558D01*
X171287825Y-126096289D01*
X171290203Y-126085560D01*
X171296846Y-126060767D01*
X171296846Y-126060765D01*
X171299698Y-126050122D01*
X171298071Y-126031516D01*
X171296500Y-126013565D01*
X171296021Y-126002584D01*
X171296021Y-124569524D01*
X171316023Y-124501403D01*
X171369679Y-124454910D01*
X171438467Y-124444602D01*
X171541811Y-124458207D01*
X171541812Y-124458207D01*
X171550000Y-124459285D01*
X171569343Y-124456738D01*
X171639489Y-124467676D01*
X171674885Y-124492565D01*
X171854326Y-124672007D01*
X172032396Y-124850077D01*
X172066421Y-124912389D01*
X172069300Y-124939172D01*
X172069300Y-126554320D01*
X172049298Y-126622441D01*
X172020004Y-126654283D01*
X171993493Y-126674626D01*
X171954526Y-126704526D01*
X171865645Y-126820358D01*
X171862486Y-126827984D01*
X171862485Y-126827986D01*
X171840446Y-126881193D01*
X171809772Y-126955246D01*
X171808695Y-126963430D01*
X171808694Y-126963432D01*
X171802627Y-127009516D01*
X171790715Y-127100000D01*
X171791793Y-127108188D01*
X171801038Y-127178409D01*
X171809772Y-127244754D01*
X171812931Y-127252380D01*
X171836149Y-127308432D01*
X171865645Y-127379642D01*
X171954526Y-127495474D01*
X171961076Y-127500500D01*
X171961079Y-127500503D01*
X172063804Y-127579327D01*
X172070357Y-127584355D01*
X172205246Y-127640228D01*
X172350000Y-127659285D01*
X172358188Y-127658207D01*
X172382541Y-127655001D01*
X172494754Y-127640228D01*
X172629643Y-127584355D01*
X172636196Y-127579327D01*
X172738921Y-127500503D01*
X172738924Y-127500500D01*
X172745474Y-127495474D01*
X172834355Y-127379642D01*
X172863852Y-127308432D01*
X172887069Y-127252380D01*
X172890228Y-127244754D01*
X172898963Y-127178409D01*
X172908207Y-127108188D01*
X172909285Y-127100000D01*
X172897373Y-127009516D01*
X172891306Y-126963432D01*
X172891305Y-126963430D01*
X172890228Y-126955246D01*
X172859554Y-126881193D01*
X172837515Y-126827986D01*
X172837514Y-126827984D01*
X172834355Y-126820358D01*
X172756737Y-126719204D01*
X172731137Y-126652983D01*
X172730700Y-126642500D01*
X172730700Y-124769949D01*
X172731179Y-124758968D01*
X172733564Y-124731709D01*
X172733564Y-124731708D01*
X172734524Y-124720733D01*
X172728412Y-124697923D01*
X172724593Y-124683668D01*
X172722214Y-124672938D01*
X172717465Y-124646004D01*
X172715551Y-124635149D01*
X172710038Y-124625602D01*
X172708762Y-124622095D01*
X172707194Y-124618732D01*
X172704341Y-124608084D01*
X172682325Y-124576642D01*
X172676419Y-124567372D01*
X172657239Y-124534151D01*
X172648783Y-124527055D01*
X172627847Y-124509488D01*
X172619744Y-124502063D01*
X172142565Y-124024885D01*
X172108540Y-123962572D01*
X172106738Y-123919345D01*
X172109285Y-123900000D01*
X172102044Y-123844999D01*
X172091306Y-123763432D01*
X172091305Y-123763430D01*
X172090228Y-123755246D01*
X172058781Y-123679327D01*
X172037515Y-123627986D01*
X172037514Y-123627984D01*
X172034355Y-123620358D01*
X171964746Y-123529642D01*
X171950501Y-123511077D01*
X171950500Y-123511076D01*
X171945474Y-123504526D01*
X171938924Y-123499500D01*
X171938921Y-123499497D01*
X171836196Y-123420673D01*
X171836194Y-123420672D01*
X171829643Y-123415645D01*
X171694754Y-123359772D01*
X171550000Y-123340715D01*
X171541812Y-123341793D01*
X171541811Y-123341793D01*
X171438467Y-123355398D01*
X171368318Y-123344458D01*
X171315220Y-123297330D01*
X171296021Y-123230476D01*
X171296021Y-122927413D01*
X171296500Y-122916431D01*
X171297585Y-122904024D01*
X171299698Y-122879878D01*
X171292905Y-122854526D01*
X171290203Y-122844440D01*
X171287825Y-122833711D01*
X171283369Y-122808442D01*
X171283367Y-122808437D01*
X171281453Y-122797581D01*
X171275940Y-122788034D01*
X171274861Y-122785068D01*
X171273527Y-122782207D01*
X171270673Y-122771555D01*
X171249629Y-122741501D01*
X171243724Y-122732231D01*
X171230895Y-122710010D01*
X171230892Y-122710006D01*
X171225381Y-122700461D01*
X171197276Y-122676878D01*
X171189172Y-122669452D01*
X171005476Y-122485756D01*
X170971450Y-122423444D01*
X170969649Y-122380215D01*
X170973207Y-122353188D01*
X170974285Y-122345000D01*
X170967062Y-122290135D01*
X170956306Y-122208432D01*
X170956305Y-122208430D01*
X170955228Y-122200246D01*
X170935422Y-122152430D01*
X170902515Y-122072986D01*
X170902514Y-122072984D01*
X170899355Y-122065358D01*
X170846675Y-121996704D01*
X170821075Y-121930484D01*
X170835340Y-121860935D01*
X170846675Y-121843296D01*
X170886232Y-121791744D01*
X170899355Y-121774642D01*
X170910201Y-121748459D01*
X170952069Y-121647380D01*
X170955228Y-121639754D01*
X170974285Y-121495000D01*
X170955228Y-121350246D01*
X170929950Y-121289219D01*
X170900622Y-121218415D01*
X170893033Y-121147825D01*
X170924812Y-121084338D01*
X170985870Y-121048111D01*
X171003858Y-121044888D01*
X171034848Y-121041631D01*
X171047528Y-121040298D01*
X171047529Y-121040298D01*
X171054092Y-121039608D01*
X171234920Y-120980853D01*
X171244653Y-120975234D01*
X171328585Y-120926775D01*
X171399580Y-120885786D01*
X171404816Y-120881072D01*
X171535966Y-120762984D01*
X171535967Y-120762983D01*
X171540877Y-120758562D01*
X171641002Y-120620753D01*
X171648754Y-120610083D01*
X171648755Y-120610082D01*
X171652635Y-120604741D01*
X171657831Y-120593072D01*
X171727284Y-120437076D01*
X171727284Y-120437075D01*
X171729969Y-120431045D01*
X171758072Y-120298833D01*
X171768128Y-120251524D01*
X171768128Y-120251520D01*
X171769500Y-120245067D01*
X171769500Y-120054933D01*
X171766845Y-120042439D01*
X171743197Y-119931188D01*
X171729969Y-119868955D01*
X171716552Y-119838819D01*
X171655320Y-119701289D01*
X171655319Y-119701287D01*
X171652635Y-119695259D01*
X171540877Y-119541438D01*
X171532672Y-119534050D01*
X171404488Y-119418633D01*
X171404487Y-119418632D01*
X171399580Y-119414214D01*
X171234920Y-119319147D01*
X171054092Y-119260392D01*
X171047531Y-119259702D01*
X171047529Y-119259702D01*
X170994068Y-119254083D01*
X170912401Y-119245500D01*
X168917599Y-119245500D01*
X168835932Y-119254083D01*
X168782471Y-119259702D01*
X168782469Y-119259702D01*
X168775908Y-119260392D01*
X168595080Y-119319147D01*
X168430420Y-119414214D01*
X168425513Y-119418632D01*
X168425512Y-119418633D01*
X168297328Y-119534050D01*
X168289123Y-119541438D01*
X168288646Y-119540908D01*
X168232430Y-119575540D01*
X168199242Y-119579989D01*
X167130758Y-119579989D01*
X167062637Y-119559987D01*
X167040979Y-119541579D01*
X167040877Y-119541438D01*
X167032672Y-119534050D01*
X166904488Y-119418633D01*
X166904487Y-119418632D01*
X166899580Y-119414214D01*
X166734920Y-119319147D01*
X166554092Y-119260392D01*
X166547531Y-119259702D01*
X166547529Y-119259702D01*
X166494068Y-119254083D01*
X166412401Y-119245500D01*
X165117599Y-119245500D01*
X165035932Y-119254083D01*
X164982471Y-119259702D01*
X164982469Y-119259702D01*
X164975908Y-119260392D01*
X164795080Y-119319147D01*
X164630420Y-119414214D01*
X164625513Y-119418632D01*
X164625512Y-119418633D01*
X164497328Y-119534050D01*
X164489123Y-119541438D01*
X164377365Y-119695259D01*
X164374681Y-119701287D01*
X164374680Y-119701289D01*
X164313448Y-119838819D01*
X164300031Y-119868955D01*
X164286803Y-119931188D01*
X164263156Y-120042439D01*
X164260500Y-120054933D01*
X164260500Y-120245067D01*
X164261872Y-120251520D01*
X164261872Y-120251524D01*
X164271928Y-120298833D01*
X164300031Y-120431045D01*
X164302716Y-120437075D01*
X164302716Y-120437076D01*
X164372170Y-120593072D01*
X164377365Y-120604741D01*
X164381245Y-120610082D01*
X164381246Y-120610083D01*
X164388998Y-120620753D01*
X164489123Y-120758562D01*
X164494033Y-120762983D01*
X164494034Y-120762984D01*
X164625185Y-120881072D01*
X164630420Y-120885786D01*
X164701415Y-120926775D01*
X164785348Y-120975234D01*
X164795080Y-120980853D01*
X164975908Y-121039608D01*
X164982469Y-121040298D01*
X164982471Y-121040298D01*
X165026135Y-121044887D01*
X165117599Y-121054500D01*
X166412401Y-121054500D01*
X166503865Y-121044887D01*
X166547529Y-121040298D01*
X166547531Y-121040298D01*
X166554092Y-121039608D01*
X166734920Y-120980853D01*
X166744653Y-120975234D01*
X166828585Y-120926775D01*
X166899580Y-120885786D01*
X166904816Y-120881072D01*
X167035966Y-120762984D01*
X167035967Y-120762983D01*
X167040877Y-120758562D01*
X167141002Y-120620753D01*
X167148754Y-120610083D01*
X167148755Y-120610082D01*
X167152635Y-120604741D01*
X167179349Y-120544740D01*
X167225330Y-120490644D01*
X167294456Y-120469989D01*
X168035544Y-120469989D01*
X168103665Y-120489991D01*
X168150651Y-120544740D01*
X168177365Y-120604741D01*
X168181245Y-120610082D01*
X168181246Y-120610083D01*
X168188998Y-120620753D01*
X168289123Y-120758562D01*
X168294033Y-120762983D01*
X168294034Y-120762984D01*
X168425185Y-120881072D01*
X168430420Y-120885786D01*
X168585348Y-120975234D01*
X168634341Y-121026617D01*
X168647777Y-121096330D01*
X168622311Y-121161056D01*
X168585674Y-121208803D01*
X168585671Y-121208807D01*
X168580645Y-121215358D01*
X168577486Y-121222984D01*
X168577485Y-121222986D01*
X168550050Y-121289219D01*
X168524772Y-121350246D01*
X168505715Y-121495000D01*
X168524772Y-121639754D01*
X168527931Y-121647380D01*
X168569800Y-121748459D01*
X168580645Y-121774642D01*
X168593768Y-121791744D01*
X168633325Y-121843296D01*
X168658925Y-121909516D01*
X168644660Y-121979065D01*
X168633325Y-121996704D01*
X168580645Y-122065358D01*
X168577486Y-122072984D01*
X168577485Y-122072986D01*
X168544578Y-122152430D01*
X168524772Y-122200246D01*
X168523695Y-122208430D01*
X168523694Y-122208432D01*
X168512938Y-122290135D01*
X168505715Y-122345000D01*
X168524772Y-122489754D01*
X168580645Y-122624642D01*
X168596650Y-122645500D01*
X168633325Y-122693296D01*
X168658925Y-122759516D01*
X168644660Y-122829065D01*
X168633325Y-122846704D01*
X168580645Y-122915358D01*
X168577486Y-122922984D01*
X168577485Y-122922986D01*
X168563721Y-122956216D01*
X168524772Y-123050246D01*
X168523695Y-123058430D01*
X168523694Y-123058432D01*
X168517531Y-123105246D01*
X168505715Y-123195000D01*
X168506793Y-123203188D01*
X168511288Y-123237328D01*
X168524772Y-123339754D01*
X168527931Y-123347380D01*
X168577301Y-123466568D01*
X168580645Y-123474642D01*
X168593888Y-123491900D01*
X168633325Y-123543296D01*
X168658925Y-123609516D01*
X168644660Y-123679065D01*
X168633325Y-123696704D01*
X168580645Y-123765358D01*
X168577486Y-123772984D01*
X168577485Y-123772986D01*
X168562155Y-123809996D01*
X168524772Y-123900246D01*
X168523695Y-123908430D01*
X168523694Y-123908432D01*
X168514101Y-123981304D01*
X168505715Y-124045000D01*
X168506793Y-124053188D01*
X168518825Y-124144579D01*
X168524772Y-124189754D01*
X168539094Y-124224329D01*
X168577021Y-124315892D01*
X168580645Y-124324642D01*
X168605379Y-124356876D01*
X168633325Y-124393296D01*
X168658925Y-124459516D01*
X168644660Y-124529065D01*
X168633325Y-124546704D01*
X168580645Y-124615358D01*
X168577486Y-124622984D01*
X168577485Y-124622986D01*
X168554043Y-124679580D01*
X168509494Y-124734860D01*
X168442131Y-124757281D01*
X168373339Y-124739722D01*
X168324961Y-124687760D01*
X168313866Y-124654971D01*
X168291017Y-124535194D01*
X168282088Y-124488384D01*
X168186649Y-124194652D01*
X168055147Y-123915198D01*
X168035557Y-123884328D01*
X167940381Y-123734355D01*
X167889658Y-123654429D01*
X167692791Y-123416457D01*
X167467651Y-123205036D01*
X167457610Y-123197741D01*
X167220996Y-123025831D01*
X167220991Y-123025828D01*
X167217787Y-123023500D01*
X167067673Y-122940974D01*
X166950604Y-122876614D01*
X166950601Y-122876612D01*
X166947142Y-122874711D01*
X166682673Y-122770000D01*
X166663652Y-122762469D01*
X166663651Y-122762469D01*
X166659982Y-122761016D01*
X166360837Y-122684209D01*
X166054424Y-122645500D01*
X165745576Y-122645500D01*
X165439163Y-122684209D01*
X165140018Y-122761016D01*
X165136349Y-122762469D01*
X165136348Y-122762469D01*
X165117327Y-122770000D01*
X164852858Y-122874711D01*
X164849399Y-122876612D01*
X164849396Y-122876614D01*
X164732327Y-122940974D01*
X164582213Y-123023500D01*
X164579009Y-123025828D01*
X164579004Y-123025831D01*
X164342390Y-123197741D01*
X164332349Y-123205036D01*
X164107209Y-123416457D01*
X163910342Y-123654429D01*
X163859619Y-123734355D01*
X163764444Y-123884328D01*
X163744853Y-123915198D01*
X163613351Y-124194652D01*
X163517912Y-124488384D01*
X163460040Y-124791761D01*
X163440647Y-125100000D01*
X163460040Y-125408239D01*
X163517912Y-125711616D01*
X163613351Y-126005348D01*
X163744853Y-126284802D01*
X163746971Y-126288140D01*
X163746973Y-126288143D01*
X163804950Y-126379500D01*
X163910342Y-126545571D01*
X164107209Y-126783543D01*
X164332349Y-126994964D01*
X164335551Y-126997291D01*
X164335553Y-126997292D01*
X164579004Y-127174169D01*
X164579009Y-127174172D01*
X164582213Y-127176500D01*
X164691476Y-127236568D01*
X164793434Y-127292620D01*
X164852858Y-127325289D01*
X165140018Y-127438984D01*
X165439163Y-127515791D01*
X165745576Y-127554500D01*
X166054424Y-127554500D01*
X166360837Y-127515791D01*
X166659982Y-127438984D01*
X166947142Y-127325289D01*
X167006567Y-127292620D01*
X167108524Y-127236568D01*
X167217787Y-127176500D01*
X167220991Y-127174172D01*
X167220996Y-127174169D01*
X167464447Y-126997292D01*
X167464449Y-126997291D01*
X167467651Y-126994964D01*
X167692791Y-126783543D01*
X167889658Y-126545571D01*
X167995050Y-126379500D01*
X168053027Y-126288143D01*
X168053029Y-126288140D01*
X168055147Y-126284802D01*
X168186649Y-126005348D01*
X168226526Y-125882619D01*
X168266032Y-125761033D01*
X168306106Y-125702427D01*
X168371502Y-125674790D01*
X168441459Y-125686897D01*
X168493765Y-125734903D01*
X168510786Y-125783521D01*
X168512072Y-125793285D01*
X168523146Y-125877401D01*
X168524772Y-125889754D01*
X168542506Y-125932567D01*
X168576057Y-126013565D01*
X168580645Y-126024642D01*
X168604873Y-126056216D01*
X168633325Y-126093296D01*
X168658925Y-126159516D01*
X168644660Y-126229065D01*
X168633325Y-126246704D01*
X168580645Y-126315358D01*
X168577486Y-126322984D01*
X168577485Y-126322986D01*
X168555073Y-126377094D01*
X168524772Y-126450246D01*
X168523695Y-126458430D01*
X168523694Y-126458432D01*
X168512663Y-126542227D01*
X168505715Y-126595000D01*
X168506793Y-126603188D01*
X168522481Y-126722349D01*
X168524772Y-126739754D01*
X168535644Y-126766000D01*
X168577240Y-126866421D01*
X168580645Y-126874642D01*
X168585672Y-126881193D01*
X168633325Y-126943296D01*
X168658925Y-127009516D01*
X168644660Y-127079065D01*
X168633325Y-127096704D01*
X168580645Y-127165358D01*
X168577486Y-127172984D01*
X168577485Y-127172986D01*
X168547758Y-127244754D01*
X168524772Y-127300246D01*
X168523695Y-127308430D01*
X168523694Y-127308432D01*
X168520245Y-127334630D01*
X168505715Y-127445000D01*
X168506793Y-127453188D01*
X168521958Y-127568377D01*
X168524772Y-127589754D01*
X168527931Y-127597380D01*
X168575111Y-127711281D01*
X168580645Y-127724642D01*
X168585671Y-127731193D01*
X168585674Y-127731197D01*
X168622311Y-127778944D01*
X168647911Y-127845164D01*
X168633646Y-127914713D01*
X168585348Y-127964766D01*
X168430420Y-128054214D01*
X168289123Y-128181438D01*
X168177365Y-128335259D01*
X168174681Y-128341287D01*
X168174680Y-128341289D01*
X168149155Y-128398620D01*
X168100031Y-128508955D01*
X168085105Y-128579176D01*
X168072973Y-128636254D01*
X168060500Y-128694933D01*
X168060500Y-128885067D01*
X168100031Y-129071045D01*
X168102716Y-129077075D01*
X168102716Y-129077076D01*
X168147091Y-129176743D01*
X168177365Y-129244741D01*
X168200033Y-129275941D01*
X168223890Y-129342806D01*
X168207810Y-129411958D01*
X168156897Y-129461438D01*
X168098096Y-129476000D01*
X167231904Y-129476000D01*
X167163783Y-129455998D01*
X167117290Y-129402342D01*
X167107186Y-129332068D01*
X167129967Y-129275941D01*
X167152635Y-129244741D01*
X167182910Y-129176743D01*
X167227284Y-129077076D01*
X167227284Y-129077075D01*
X167229969Y-129071045D01*
X167269500Y-128885067D01*
X167269500Y-128694933D01*
X167257028Y-128636254D01*
X167244895Y-128579176D01*
X167229969Y-128508955D01*
X167180845Y-128398620D01*
X167155320Y-128341289D01*
X167155319Y-128341287D01*
X167152635Y-128335259D01*
X167040877Y-128181438D01*
X166899580Y-128054214D01*
X166799885Y-127996655D01*
X166740643Y-127962451D01*
X166740642Y-127962450D01*
X166734920Y-127959147D01*
X166554092Y-127900392D01*
X166547531Y-127899702D01*
X166547529Y-127899702D01*
X166494068Y-127894083D01*
X166412401Y-127885500D01*
X165117599Y-127885500D01*
X165035932Y-127894083D01*
X164982471Y-127899702D01*
X164982469Y-127899702D01*
X164975908Y-127900392D01*
X164795080Y-127959147D01*
X164789358Y-127962450D01*
X164789357Y-127962451D01*
X164730115Y-127996655D01*
X164630420Y-128054214D01*
X164489123Y-128181438D01*
X164377365Y-128335259D01*
X164374681Y-128341287D01*
X164374680Y-128341289D01*
X164349155Y-128398620D01*
X164300031Y-128508955D01*
X164285105Y-128579176D01*
X164272973Y-128636254D01*
X164260500Y-128694933D01*
X164260500Y-128885067D01*
X164300031Y-129071045D01*
X164302716Y-129077075D01*
X164302716Y-129077076D01*
X164347091Y-129176743D01*
X164377365Y-129244741D01*
X164400033Y-129275941D01*
X164423890Y-129342806D01*
X164407810Y-129411958D01*
X164356897Y-129461438D01*
X164298096Y-129476000D01*
X163130000Y-129476000D01*
X163061879Y-129455998D01*
X163015386Y-129402342D01*
X163004000Y-129350000D01*
X163004000Y-117699665D01*
X163024002Y-117631544D01*
X163077658Y-117585051D01*
X163147932Y-117574947D01*
X163212512Y-117604441D01*
X163232895Y-117626942D01*
X163256533Y-117660389D01*
X163260675Y-117664424D01*
X163333179Y-117735054D01*
X163401938Y-117802035D01*
X163406742Y-117805245D01*
X163435561Y-117824501D01*
X163570720Y-117914812D01*
X163576023Y-117917090D01*
X163576026Y-117917092D01*
X163729870Y-117983188D01*
X163757228Y-117994942D01*
X163818003Y-118008694D01*
X163949579Y-118038467D01*
X163949584Y-118038468D01*
X163955216Y-118039742D01*
X163960987Y-118039969D01*
X163960989Y-118039969D01*
X164020756Y-118042317D01*
X164158053Y-118047712D01*
X164258499Y-118033148D01*
X164353231Y-118019413D01*
X164353236Y-118019412D01*
X164358945Y-118018584D01*
X164364409Y-118016729D01*
X164364414Y-118016728D01*
X164545693Y-117955192D01*
X164545698Y-117955190D01*
X164551165Y-117953334D01*
X164728276Y-117854147D01*
X164747172Y-117838432D01*
X164879913Y-117728031D01*
X164884345Y-117724345D01*
X164925099Y-117675344D01*
X165010453Y-117572718D01*
X165010455Y-117572715D01*
X165014147Y-117568276D01*
X165097854Y-117418806D01*
X165110510Y-117396208D01*
X165110511Y-117396206D01*
X165113334Y-117391165D01*
X165115190Y-117385698D01*
X165115192Y-117385693D01*
X165176728Y-117204414D01*
X165176729Y-117204409D01*
X165178584Y-117198945D01*
X165179412Y-117193236D01*
X165179413Y-117193231D01*
X165196991Y-117071996D01*
X165207712Y-116998053D01*
X165209232Y-116940000D01*
X165190658Y-116737859D01*
X165186943Y-116724688D01*
X165137125Y-116548046D01*
X165137124Y-116548044D01*
X165135557Y-116542487D01*
X165130874Y-116532989D01*
X165048331Y-116365609D01*
X165045776Y-116360428D01*
X164924320Y-116197779D01*
X164775258Y-116059987D01*
X164770375Y-116056906D01*
X164770371Y-116056903D01*
X164608464Y-115954748D01*
X164603581Y-115951667D01*
X164415039Y-115876446D01*
X164409379Y-115875320D01*
X164409375Y-115875319D01*
X164221613Y-115837971D01*
X164221610Y-115837971D01*
X164215946Y-115836844D01*
X164210171Y-115836768D01*
X164210167Y-115836768D01*
X164108793Y-115835441D01*
X164012971Y-115834187D01*
X164007274Y-115835166D01*
X164007273Y-115835166D01*
X163818607Y-115867585D01*
X163812910Y-115868564D01*
X163622463Y-115938824D01*
X163448010Y-116042612D01*
X163443670Y-116046418D01*
X163443666Y-116046421D01*
X163310242Y-116163432D01*
X163295392Y-116176455D01*
X163291817Y-116180990D01*
X163291816Y-116180991D01*
X163228950Y-116260736D01*
X163171069Y-116301849D01*
X163100148Y-116305143D01*
X163038706Y-116269571D01*
X163006249Y-116206428D01*
X163004000Y-116182730D01*
X163004000Y-115614085D01*
X163024002Y-115545964D01*
X163077658Y-115499471D01*
X163154581Y-115490506D01*
X163224933Y-115504500D01*
X164099858Y-115504500D01*
X164975066Y-115504499D01*
X165010818Y-115497388D01*
X165037126Y-115492156D01*
X165037128Y-115492155D01*
X165049301Y-115489734D01*
X165059621Y-115482839D01*
X165059622Y-115482838D01*
X165123168Y-115440377D01*
X165133484Y-115433484D01*
X165189734Y-115349301D01*
X165204500Y-115275067D01*
X165204500Y-115180828D01*
X166784001Y-115180828D01*
X166785209Y-115193088D01*
X166796315Y-115248931D01*
X166805633Y-115271427D01*
X166847983Y-115334808D01*
X166865192Y-115352017D01*
X166928575Y-115394368D01*
X166951066Y-115403684D01*
X167006915Y-115414793D01*
X167019170Y-115416000D01*
X167615885Y-115416000D01*
X167631124Y-115411525D01*
X167632329Y-115410135D01*
X167634000Y-115402452D01*
X167634000Y-115397884D01*
X168142000Y-115397884D01*
X168146475Y-115413123D01*
X168147865Y-115414328D01*
X168155548Y-115415999D01*
X168756828Y-115415999D01*
X168769088Y-115414791D01*
X168824931Y-115403685D01*
X168847427Y-115394367D01*
X168910808Y-115352017D01*
X168928017Y-115334808D01*
X168970368Y-115271425D01*
X168979684Y-115248934D01*
X168990793Y-115193085D01*
X168992000Y-115180830D01*
X168992000Y-114584115D01*
X168987525Y-114568876D01*
X168986135Y-114567671D01*
X168978452Y-114566000D01*
X168160115Y-114566000D01*
X168144876Y-114570475D01*
X168143671Y-114571865D01*
X168142000Y-114579548D01*
X168142000Y-115397884D01*
X167634000Y-115397884D01*
X167634000Y-114584115D01*
X167629525Y-114568876D01*
X167628135Y-114567671D01*
X167620452Y-114566000D01*
X166802116Y-114566000D01*
X166786877Y-114570475D01*
X166785672Y-114571865D01*
X166784001Y-114579548D01*
X166784001Y-115180828D01*
X165204500Y-115180828D01*
X165204499Y-114282964D01*
X169319148Y-114282964D01*
X169332424Y-114485522D01*
X169333845Y-114491118D01*
X169333846Y-114491123D01*
X169378246Y-114665944D01*
X169382392Y-114682269D01*
X169384809Y-114687512D01*
X169422008Y-114768203D01*
X169467377Y-114866616D01*
X169470710Y-114871332D01*
X169535898Y-114963571D01*
X169584533Y-115032389D01*
X169588675Y-115036424D01*
X169653970Y-115100031D01*
X169729938Y-115174035D01*
X169898720Y-115286812D01*
X169904023Y-115289090D01*
X169904026Y-115289092D01*
X170079921Y-115364662D01*
X170085228Y-115366942D01*
X170153485Y-115382387D01*
X170277579Y-115410467D01*
X170277584Y-115410468D01*
X170283216Y-115411742D01*
X170288987Y-115411969D01*
X170288989Y-115411969D01*
X170348756Y-115414317D01*
X170486053Y-115419712D01*
X170596596Y-115403684D01*
X170681231Y-115391413D01*
X170681236Y-115391412D01*
X170686945Y-115390584D01*
X170692409Y-115388729D01*
X170692414Y-115388728D01*
X170873693Y-115327192D01*
X170873698Y-115327190D01*
X170879165Y-115325334D01*
X170888051Y-115320358D01*
X171031559Y-115239989D01*
X171056276Y-115226147D01*
X171071715Y-115213307D01*
X171207913Y-115100031D01*
X171212345Y-115096345D01*
X171273702Y-115022572D01*
X171338453Y-114944718D01*
X171338455Y-114944715D01*
X171342147Y-114940276D01*
X171441334Y-114763165D01*
X171443190Y-114757698D01*
X171443192Y-114757693D01*
X171504728Y-114576414D01*
X171504729Y-114576409D01*
X171506584Y-114570945D01*
X171507412Y-114565236D01*
X171507413Y-114565231D01*
X171528093Y-114422599D01*
X171535712Y-114370053D01*
X171537232Y-114312000D01*
X171534564Y-114282964D01*
X171859148Y-114282964D01*
X171872424Y-114485522D01*
X171873845Y-114491118D01*
X171873846Y-114491123D01*
X171918246Y-114665944D01*
X171922392Y-114682269D01*
X171924809Y-114687512D01*
X171962008Y-114768203D01*
X172007377Y-114866616D01*
X172010710Y-114871332D01*
X172075898Y-114963571D01*
X172124533Y-115032389D01*
X172128675Y-115036424D01*
X172193970Y-115100031D01*
X172269938Y-115174035D01*
X172438720Y-115286812D01*
X172444023Y-115289090D01*
X172444026Y-115289092D01*
X172619921Y-115364662D01*
X172625228Y-115366942D01*
X172693485Y-115382387D01*
X172817579Y-115410467D01*
X172817584Y-115410468D01*
X172823216Y-115411742D01*
X172828987Y-115411969D01*
X172828989Y-115411969D01*
X172888756Y-115414317D01*
X173026053Y-115419712D01*
X173136596Y-115403684D01*
X173221231Y-115391413D01*
X173221236Y-115391412D01*
X173226945Y-115390584D01*
X173232409Y-115388729D01*
X173232414Y-115388728D01*
X173413693Y-115327192D01*
X173413698Y-115327190D01*
X173419165Y-115325334D01*
X173428051Y-115320358D01*
X173571559Y-115239989D01*
X173596276Y-115226147D01*
X173611715Y-115213307D01*
X173747913Y-115100031D01*
X173752345Y-115096345D01*
X173813702Y-115022572D01*
X173878453Y-114944718D01*
X173878455Y-114944715D01*
X173882147Y-114940276D01*
X173981334Y-114763165D01*
X173983190Y-114757698D01*
X173983192Y-114757693D01*
X174044728Y-114576414D01*
X174044729Y-114576409D01*
X174046584Y-114570945D01*
X174047412Y-114565236D01*
X174047413Y-114565231D01*
X174068093Y-114422599D01*
X174075712Y-114370053D01*
X174077232Y-114312000D01*
X174058658Y-114109859D01*
X174052244Y-114087115D01*
X174005125Y-113920047D01*
X174005125Y-113920046D01*
X174003557Y-113914487D01*
X173990085Y-113887168D01*
X173977894Y-113817228D01*
X174005452Y-113751798D01*
X174013995Y-113742344D01*
X176214934Y-111541405D01*
X176277246Y-111507379D01*
X176304029Y-111504500D01*
X177484971Y-111504500D01*
X177553092Y-111524502D01*
X177599585Y-111578158D01*
X177609689Y-111648432D01*
X177580195Y-111713012D01*
X177574066Y-111719595D01*
X176040546Y-113253115D01*
X175978234Y-113287141D01*
X175904762Y-113281050D01*
X175823039Y-113248446D01*
X175817379Y-113247320D01*
X175817375Y-113247319D01*
X175629613Y-113209971D01*
X175629610Y-113209971D01*
X175623946Y-113208844D01*
X175618171Y-113208768D01*
X175618167Y-113208768D01*
X175516793Y-113207441D01*
X175420971Y-113206187D01*
X175415274Y-113207166D01*
X175415273Y-113207166D01*
X175284530Y-113229632D01*
X175220910Y-113240564D01*
X175030463Y-113310824D01*
X174856010Y-113414612D01*
X174851670Y-113418418D01*
X174851666Y-113418421D01*
X174712350Y-113540599D01*
X174703392Y-113548455D01*
X174577720Y-113707869D01*
X174575031Y-113712980D01*
X174575029Y-113712983D01*
X174527128Y-113804027D01*
X174483203Y-113887515D01*
X174423007Y-114081378D01*
X174399148Y-114282964D01*
X174412424Y-114485522D01*
X174413845Y-114491118D01*
X174413846Y-114491123D01*
X174458246Y-114665944D01*
X174462392Y-114682269D01*
X174464809Y-114687512D01*
X174502008Y-114768203D01*
X174547377Y-114866616D01*
X174550710Y-114871332D01*
X174615898Y-114963571D01*
X174664533Y-115032389D01*
X174668675Y-115036424D01*
X174733970Y-115100031D01*
X174809938Y-115174035D01*
X174978720Y-115286812D01*
X174984023Y-115289090D01*
X174984026Y-115289092D01*
X175159921Y-115364662D01*
X175165228Y-115366942D01*
X175233485Y-115382387D01*
X175357579Y-115410467D01*
X175357584Y-115410468D01*
X175363216Y-115411742D01*
X175368987Y-115411969D01*
X175368989Y-115411969D01*
X175428756Y-115414317D01*
X175566053Y-115419712D01*
X175676596Y-115403684D01*
X175761231Y-115391413D01*
X175761236Y-115391412D01*
X175766945Y-115390584D01*
X175772409Y-115388729D01*
X175772414Y-115388728D01*
X175953693Y-115327192D01*
X175953698Y-115327190D01*
X175959165Y-115325334D01*
X175968051Y-115320358D01*
X176111559Y-115239989D01*
X176136276Y-115226147D01*
X176151715Y-115213307D01*
X176287913Y-115100031D01*
X176292345Y-115096345D01*
X176353702Y-115022572D01*
X176418453Y-114944718D01*
X176418455Y-114944715D01*
X176422147Y-114940276D01*
X176521334Y-114763165D01*
X176523190Y-114757698D01*
X176523192Y-114757693D01*
X176584728Y-114576414D01*
X176584729Y-114576409D01*
X176586584Y-114570945D01*
X176587412Y-114565236D01*
X176587413Y-114565231D01*
X176608093Y-114422599D01*
X176615712Y-114370053D01*
X176617232Y-114312000D01*
X176598658Y-114109859D01*
X176592244Y-114087115D01*
X176545125Y-113920047D01*
X176545125Y-113920046D01*
X176543557Y-113914487D01*
X176530085Y-113887168D01*
X176517894Y-113817228D01*
X176545452Y-113751798D01*
X176553995Y-113742344D01*
X178004934Y-112291405D01*
X178067246Y-112257379D01*
X178094029Y-112254500D01*
X181814972Y-112254500D01*
X181883093Y-112274502D01*
X181929586Y-112328158D01*
X181939690Y-112398432D01*
X181910196Y-112463012D01*
X181904067Y-112469595D01*
X181120547Y-113253115D01*
X181058235Y-113287141D01*
X180984762Y-113281050D01*
X180908403Y-113250586D01*
X180908400Y-113250585D01*
X180903039Y-113248446D01*
X180897379Y-113247320D01*
X180897375Y-113247319D01*
X180709613Y-113209971D01*
X180709610Y-113209971D01*
X180703946Y-113208844D01*
X180698171Y-113208768D01*
X180698167Y-113208768D01*
X180596793Y-113207441D01*
X180500971Y-113206187D01*
X180495274Y-113207166D01*
X180495273Y-113207166D01*
X180364530Y-113229632D01*
X180300910Y-113240564D01*
X180110463Y-113310824D01*
X179936010Y-113414612D01*
X179931670Y-113418418D01*
X179931666Y-113418421D01*
X179792350Y-113540599D01*
X179783392Y-113548455D01*
X179657720Y-113707869D01*
X179655031Y-113712980D01*
X179655029Y-113712983D01*
X179607128Y-113804027D01*
X179563203Y-113887515D01*
X179503007Y-114081378D01*
X179479148Y-114282964D01*
X179492424Y-114485522D01*
X179493845Y-114491118D01*
X179493846Y-114491123D01*
X179538246Y-114665944D01*
X179542392Y-114682269D01*
X179544809Y-114687512D01*
X179582008Y-114768203D01*
X179627377Y-114866616D01*
X179630710Y-114871332D01*
X179695898Y-114963571D01*
X179744533Y-115032389D01*
X179748675Y-115036424D01*
X179813970Y-115100031D01*
X179889938Y-115174035D01*
X180058720Y-115286812D01*
X180064023Y-115289090D01*
X180064026Y-115289092D01*
X180239921Y-115364662D01*
X180245228Y-115366942D01*
X180313485Y-115382387D01*
X180437579Y-115410467D01*
X180437584Y-115410468D01*
X180443216Y-115411742D01*
X180448987Y-115411969D01*
X180448989Y-115411969D01*
X180508756Y-115414317D01*
X180646053Y-115419712D01*
X180756596Y-115403684D01*
X180841231Y-115391413D01*
X180841236Y-115391412D01*
X180846945Y-115390584D01*
X180852409Y-115388729D01*
X180852414Y-115388728D01*
X181033693Y-115327192D01*
X181033698Y-115327190D01*
X181039165Y-115325334D01*
X181048051Y-115320358D01*
X181191559Y-115239989D01*
X181216276Y-115226147D01*
X181231715Y-115213307D01*
X181367913Y-115100031D01*
X181372345Y-115096345D01*
X181433702Y-115022572D01*
X181498453Y-114944718D01*
X181498455Y-114944715D01*
X181502147Y-114940276D01*
X181601334Y-114763165D01*
X181603190Y-114757698D01*
X181603192Y-114757693D01*
X181664728Y-114576414D01*
X181664729Y-114576409D01*
X181666584Y-114570945D01*
X181667412Y-114565236D01*
X181667413Y-114565231D01*
X181688093Y-114422599D01*
X181695712Y-114370053D01*
X181697232Y-114312000D01*
X181694564Y-114282964D01*
X182019148Y-114282964D01*
X182032424Y-114485522D01*
X182033845Y-114491118D01*
X182033846Y-114491123D01*
X182078246Y-114665944D01*
X182082392Y-114682269D01*
X182084809Y-114687512D01*
X182122008Y-114768203D01*
X182167377Y-114866616D01*
X182170710Y-114871332D01*
X182235898Y-114963571D01*
X182284533Y-115032389D01*
X182288675Y-115036424D01*
X182353970Y-115100031D01*
X182429938Y-115174035D01*
X182598720Y-115286812D01*
X182604023Y-115289090D01*
X182604026Y-115289092D01*
X182779921Y-115364662D01*
X182785228Y-115366942D01*
X182853485Y-115382387D01*
X182977579Y-115410467D01*
X182977584Y-115410468D01*
X182983216Y-115411742D01*
X182988987Y-115411969D01*
X182988989Y-115411969D01*
X183048756Y-115414317D01*
X183186053Y-115419712D01*
X183296596Y-115403684D01*
X183381231Y-115391413D01*
X183381236Y-115391412D01*
X183386945Y-115390584D01*
X183392409Y-115388729D01*
X183392414Y-115388728D01*
X183573693Y-115327192D01*
X183573698Y-115327190D01*
X183579165Y-115325334D01*
X183588051Y-115320358D01*
X183731559Y-115239989D01*
X183756276Y-115226147D01*
X183771715Y-115213307D01*
X183907913Y-115100031D01*
X183912345Y-115096345D01*
X183973702Y-115022572D01*
X184038453Y-114944718D01*
X184038455Y-114944715D01*
X184042147Y-114940276D01*
X184141334Y-114763165D01*
X184143190Y-114757698D01*
X184143192Y-114757693D01*
X184204728Y-114576414D01*
X184204729Y-114576409D01*
X184206584Y-114570945D01*
X184207412Y-114565236D01*
X184207413Y-114565231D01*
X184228093Y-114422599D01*
X184235712Y-114370053D01*
X184237232Y-114312000D01*
X184234564Y-114282964D01*
X184559148Y-114282964D01*
X184572424Y-114485522D01*
X184573845Y-114491118D01*
X184573846Y-114491123D01*
X184618246Y-114665944D01*
X184622392Y-114682269D01*
X184624809Y-114687512D01*
X184662008Y-114768203D01*
X184707377Y-114866616D01*
X184710710Y-114871332D01*
X184775898Y-114963571D01*
X184824533Y-115032389D01*
X184828675Y-115036424D01*
X184893970Y-115100031D01*
X184969938Y-115174035D01*
X185138720Y-115286812D01*
X185144023Y-115289090D01*
X185144026Y-115289092D01*
X185319921Y-115364662D01*
X185325228Y-115366942D01*
X185393485Y-115382387D01*
X185517579Y-115410467D01*
X185517584Y-115410468D01*
X185523216Y-115411742D01*
X185528987Y-115411969D01*
X185528989Y-115411969D01*
X185588756Y-115414317D01*
X185726053Y-115419712D01*
X185836596Y-115403684D01*
X185921231Y-115391413D01*
X185921236Y-115391412D01*
X185926945Y-115390584D01*
X185932409Y-115388729D01*
X185932414Y-115388728D01*
X186113693Y-115327192D01*
X186113698Y-115327190D01*
X186119165Y-115325334D01*
X186128051Y-115320358D01*
X186271559Y-115239989D01*
X186296276Y-115226147D01*
X186311715Y-115213307D01*
X186447913Y-115100031D01*
X186452345Y-115096345D01*
X186513702Y-115022572D01*
X186578453Y-114944718D01*
X186578455Y-114944715D01*
X186582147Y-114940276D01*
X186681334Y-114763165D01*
X186683190Y-114757698D01*
X186683192Y-114757693D01*
X186744728Y-114576414D01*
X186744729Y-114576409D01*
X186746584Y-114570945D01*
X186747412Y-114565236D01*
X186747413Y-114565231D01*
X186768093Y-114422599D01*
X186775712Y-114370053D01*
X186777232Y-114312000D01*
X186758658Y-114109859D01*
X186754056Y-114093542D01*
X186705125Y-113920046D01*
X186705124Y-113920044D01*
X186703557Y-113914487D01*
X186692978Y-113893033D01*
X186616331Y-113737609D01*
X186613776Y-113732428D01*
X186492320Y-113569779D01*
X186343258Y-113431987D01*
X186338375Y-113428906D01*
X186338371Y-113428903D01*
X186176464Y-113326748D01*
X186171581Y-113323667D01*
X185983039Y-113248446D01*
X185977379Y-113247320D01*
X185977375Y-113247319D01*
X185789613Y-113209971D01*
X185789610Y-113209971D01*
X185783946Y-113208844D01*
X185778171Y-113208768D01*
X185778167Y-113208768D01*
X185676793Y-113207441D01*
X185580971Y-113206187D01*
X185575274Y-113207166D01*
X185575273Y-113207166D01*
X185444530Y-113229632D01*
X185380910Y-113240564D01*
X185190463Y-113310824D01*
X185016010Y-113414612D01*
X185011670Y-113418418D01*
X185011666Y-113418421D01*
X184872350Y-113540599D01*
X184863392Y-113548455D01*
X184737720Y-113707869D01*
X184735031Y-113712980D01*
X184735029Y-113712983D01*
X184687128Y-113804027D01*
X184643203Y-113887515D01*
X184583007Y-114081378D01*
X184559148Y-114282964D01*
X184234564Y-114282964D01*
X184218658Y-114109859D01*
X184214056Y-114093542D01*
X184165125Y-113920046D01*
X184165124Y-113920044D01*
X184163557Y-113914487D01*
X184152978Y-113893033D01*
X184076331Y-113737609D01*
X184073776Y-113732428D01*
X183952320Y-113569779D01*
X183803258Y-113431987D01*
X183798375Y-113428906D01*
X183798371Y-113428903D01*
X183636464Y-113326748D01*
X183631581Y-113323667D01*
X183443039Y-113248446D01*
X183437379Y-113247320D01*
X183437375Y-113247319D01*
X183249613Y-113209971D01*
X183249610Y-113209971D01*
X183243946Y-113208844D01*
X183238171Y-113208768D01*
X183238167Y-113208768D01*
X183136793Y-113207441D01*
X183040971Y-113206187D01*
X183035274Y-113207166D01*
X183035273Y-113207166D01*
X182904530Y-113229632D01*
X182840910Y-113240564D01*
X182650463Y-113310824D01*
X182476010Y-113414612D01*
X182471670Y-113418418D01*
X182471666Y-113418421D01*
X182332350Y-113540599D01*
X182323392Y-113548455D01*
X182197720Y-113707869D01*
X182195031Y-113712980D01*
X182195029Y-113712983D01*
X182147128Y-113804027D01*
X182103203Y-113887515D01*
X182043007Y-114081378D01*
X182019148Y-114282964D01*
X181694564Y-114282964D01*
X181678658Y-114109859D01*
X181672244Y-114087115D01*
X181625125Y-113920047D01*
X181625125Y-113920046D01*
X181623557Y-113914487D01*
X181610085Y-113887168D01*
X181597894Y-113817228D01*
X181625452Y-113751798D01*
X181633995Y-113742344D01*
X182434934Y-112941405D01*
X182497246Y-112907379D01*
X182524029Y-112904500D01*
X195200760Y-112904500D01*
X195268881Y-112924502D01*
X195309880Y-112967501D01*
X195312485Y-112972014D01*
X195315645Y-112979642D01*
X195320669Y-112986189D01*
X195320671Y-112986193D01*
X195399499Y-113088923D01*
X195404526Y-113095474D01*
X195411076Y-113100500D01*
X195411079Y-113100503D01*
X195513804Y-113179327D01*
X195520357Y-113184355D01*
X195655246Y-113240228D01*
X195800000Y-113259285D01*
X195808188Y-113258207D01*
X195936566Y-113241306D01*
X195944754Y-113240228D01*
X196079643Y-113184355D01*
X196086196Y-113179327D01*
X196188921Y-113100503D01*
X196188924Y-113100500D01*
X196195474Y-113095474D01*
X196284355Y-112979642D01*
X196300194Y-112941405D01*
X196337069Y-112852380D01*
X196340228Y-112844754D01*
X196359285Y-112700000D01*
X196348975Y-112621684D01*
X196341306Y-112563432D01*
X196341305Y-112563430D01*
X196340228Y-112555246D01*
X196304750Y-112469595D01*
X196287515Y-112427986D01*
X196287514Y-112427984D01*
X196284355Y-112420358D01*
X196267835Y-112398828D01*
X196696001Y-112398828D01*
X196697209Y-112411088D01*
X196708315Y-112466931D01*
X196717633Y-112489427D01*
X196759983Y-112552808D01*
X196777192Y-112570017D01*
X196840575Y-112612368D01*
X196863066Y-112621684D01*
X196918915Y-112632793D01*
X196931170Y-112634000D01*
X197257885Y-112634000D01*
X197273124Y-112629525D01*
X197274329Y-112628135D01*
X197276000Y-112620452D01*
X197276000Y-112072115D01*
X197271525Y-112056876D01*
X197270135Y-112055671D01*
X197262452Y-112054000D01*
X196714116Y-112054000D01*
X196698877Y-112058475D01*
X196697672Y-112059865D01*
X196696001Y-112067548D01*
X196696001Y-112398828D01*
X196267835Y-112398828D01*
X196226753Y-112345289D01*
X196200501Y-112311077D01*
X196200500Y-112311076D01*
X196195474Y-112304526D01*
X196188924Y-112299500D01*
X196188921Y-112299497D01*
X196086196Y-112220673D01*
X196086194Y-112220672D01*
X196079643Y-112215645D01*
X195944754Y-112159772D01*
X195902898Y-112154262D01*
X195837972Y-112125540D01*
X195798879Y-112066276D01*
X195794422Y-112012895D01*
X195809285Y-111900000D01*
X195808207Y-111891812D01*
X195808207Y-111884207D01*
X195828209Y-111816086D01*
X195881865Y-111769593D01*
X195934207Y-111758207D01*
X195941812Y-111758207D01*
X195950000Y-111759285D01*
X195958188Y-111758207D01*
X195980680Y-111755246D01*
X196094754Y-111740228D01*
X196229643Y-111684355D01*
X196236196Y-111679327D01*
X196338921Y-111600503D01*
X196338924Y-111600500D01*
X196345474Y-111595474D01*
X196373792Y-111558570D01*
X196429328Y-111486193D01*
X196434355Y-111479642D01*
X196453591Y-111433203D01*
X196498140Y-111377923D01*
X196565504Y-111355502D01*
X196634295Y-111373061D01*
X196682673Y-111425023D01*
X196696000Y-111481422D01*
X196696000Y-111527885D01*
X196700475Y-111543124D01*
X196701865Y-111544329D01*
X196709548Y-111546000D01*
X197257885Y-111546000D01*
X197273124Y-111541525D01*
X197274329Y-111540135D01*
X197276000Y-111532452D01*
X197276000Y-110984116D01*
X197271525Y-110968877D01*
X197270135Y-110967672D01*
X197262452Y-110966001D01*
X196931172Y-110966001D01*
X196918912Y-110967209D01*
X196863069Y-110978315D01*
X196840573Y-110987633D01*
X196777192Y-111029983D01*
X196759984Y-111047191D01*
X196719602Y-111107628D01*
X196665125Y-111153156D01*
X196594682Y-111162005D01*
X196530638Y-111131364D01*
X196493129Y-111070237D01*
X196491306Y-111063432D01*
X196490228Y-111055246D01*
X196487069Y-111047619D01*
X196437515Y-110927986D01*
X196437514Y-110927984D01*
X196434355Y-110920358D01*
X196380360Y-110849990D01*
X196350501Y-110811077D01*
X196350500Y-110811076D01*
X196345474Y-110804526D01*
X196338924Y-110799500D01*
X196338921Y-110799497D01*
X196236196Y-110720673D01*
X196236194Y-110720672D01*
X196229643Y-110715645D01*
X196094754Y-110659772D01*
X195950000Y-110640715D01*
X195941812Y-110641793D01*
X195813432Y-110658694D01*
X195813430Y-110658695D01*
X195805246Y-110659772D01*
X195670358Y-110715645D01*
X195600220Y-110769464D01*
X195534001Y-110795063D01*
X195523518Y-110795500D01*
X176156257Y-110795500D01*
X176136463Y-110793394D01*
X176132110Y-110793189D01*
X176121930Y-110790997D01*
X176091260Y-110794627D01*
X176085917Y-110794942D01*
X176085928Y-110795072D01*
X176080748Y-110795500D01*
X176075549Y-110795500D01*
X176070425Y-110796353D01*
X176070412Y-110796354D01*
X176057959Y-110798427D01*
X176052084Y-110799264D01*
X176015071Y-110803645D01*
X176004730Y-110804869D01*
X175997022Y-110808570D01*
X175988583Y-110809975D01*
X175979413Y-110814923D01*
X175946619Y-110832618D01*
X175941328Y-110835314D01*
X175905489Y-110852523D01*
X175905482Y-110852527D01*
X175898342Y-110855956D01*
X175894350Y-110859312D01*
X175892403Y-110861259D01*
X175890781Y-110862747D01*
X175890345Y-110862982D01*
X175890313Y-110862946D01*
X175890158Y-110863083D01*
X175884720Y-110866017D01*
X175877650Y-110873665D01*
X175877649Y-110873666D01*
X175850631Y-110902894D01*
X175847202Y-110906460D01*
X173500547Y-113253115D01*
X173438235Y-113287141D01*
X173364762Y-113281050D01*
X173288403Y-113250586D01*
X173288400Y-113250585D01*
X173283039Y-113248446D01*
X173277379Y-113247320D01*
X173277375Y-113247319D01*
X173089613Y-113209971D01*
X173089610Y-113209971D01*
X173083946Y-113208844D01*
X173078171Y-113208768D01*
X173078167Y-113208768D01*
X172976793Y-113207441D01*
X172880971Y-113206187D01*
X172875274Y-113207166D01*
X172875273Y-113207166D01*
X172744530Y-113229632D01*
X172680910Y-113240564D01*
X172490463Y-113310824D01*
X172316010Y-113414612D01*
X172311670Y-113418418D01*
X172311666Y-113418421D01*
X172172350Y-113540599D01*
X172163392Y-113548455D01*
X172037720Y-113707869D01*
X172035031Y-113712980D01*
X172035029Y-113712983D01*
X171987128Y-113804027D01*
X171943203Y-113887515D01*
X171883007Y-114081378D01*
X171859148Y-114282964D01*
X171534564Y-114282964D01*
X171518658Y-114109859D01*
X171514056Y-114093542D01*
X171465125Y-113920046D01*
X171465124Y-113920044D01*
X171463557Y-113914487D01*
X171452978Y-113893033D01*
X171376331Y-113737609D01*
X171373776Y-113732428D01*
X171252320Y-113569779D01*
X171103258Y-113431987D01*
X171098375Y-113428906D01*
X171098371Y-113428903D01*
X170936464Y-113326748D01*
X170931581Y-113323667D01*
X170743039Y-113248446D01*
X170737379Y-113247320D01*
X170737375Y-113247319D01*
X170549613Y-113209971D01*
X170549610Y-113209971D01*
X170543946Y-113208844D01*
X170538171Y-113208768D01*
X170538167Y-113208768D01*
X170436793Y-113207441D01*
X170340971Y-113206187D01*
X170335274Y-113207166D01*
X170335273Y-113207166D01*
X170204530Y-113229632D01*
X170140910Y-113240564D01*
X169950463Y-113310824D01*
X169776010Y-113414612D01*
X169771670Y-113418418D01*
X169771666Y-113418421D01*
X169632350Y-113540599D01*
X169623392Y-113548455D01*
X169497720Y-113707869D01*
X169495031Y-113712980D01*
X169495029Y-113712983D01*
X169447128Y-113804027D01*
X169403203Y-113887515D01*
X169343007Y-114081378D01*
X169319148Y-114282964D01*
X165204499Y-114282964D01*
X165204499Y-114039885D01*
X166784000Y-114039885D01*
X166788475Y-114055124D01*
X166789865Y-114056329D01*
X166797548Y-114058000D01*
X167615885Y-114058000D01*
X167631124Y-114053525D01*
X167632329Y-114052135D01*
X167634000Y-114044452D01*
X167634000Y-114039885D01*
X168142000Y-114039885D01*
X168146475Y-114055124D01*
X168147865Y-114056329D01*
X168155548Y-114058000D01*
X168973884Y-114058000D01*
X168989123Y-114053525D01*
X168990328Y-114052135D01*
X168991999Y-114044452D01*
X168991999Y-113443172D01*
X168990791Y-113430912D01*
X168979685Y-113375069D01*
X168970367Y-113352573D01*
X168928017Y-113289192D01*
X168910808Y-113271983D01*
X168847425Y-113229632D01*
X168824934Y-113220316D01*
X168769085Y-113209207D01*
X168756830Y-113208000D01*
X168160115Y-113208000D01*
X168144876Y-113212475D01*
X168143671Y-113213865D01*
X168142000Y-113221548D01*
X168142000Y-114039885D01*
X167634000Y-114039885D01*
X167634000Y-113226116D01*
X167629525Y-113210877D01*
X167628135Y-113209672D01*
X167620452Y-113208001D01*
X167019172Y-113208001D01*
X167006912Y-113209209D01*
X166951069Y-113220315D01*
X166928573Y-113229633D01*
X166865192Y-113271983D01*
X166847983Y-113289192D01*
X166805632Y-113352575D01*
X166796316Y-113375066D01*
X166785207Y-113430915D01*
X166784000Y-113443170D01*
X166784000Y-114039885D01*
X165204499Y-114039885D01*
X165204499Y-113524934D01*
X165197388Y-113489182D01*
X165192156Y-113462874D01*
X165192155Y-113462872D01*
X165189734Y-113450699D01*
X165133484Y-113366516D01*
X165049301Y-113310266D01*
X164980919Y-113296664D01*
X164918009Y-113263757D01*
X164882877Y-113202062D01*
X164879500Y-113173085D01*
X164879500Y-112434384D01*
X164899502Y-112366263D01*
X164916405Y-112345289D01*
X165045289Y-112216405D01*
X165107601Y-112182379D01*
X165134384Y-112179500D01*
X165505255Y-112179499D01*
X165529314Y-112179499D01*
X165532262Y-112179220D01*
X165532271Y-112179220D01*
X165553478Y-112177216D01*
X165553480Y-112177216D01*
X165561127Y-112176493D01*
X165569787Y-112173452D01*
X165599743Y-112162932D01*
X165690076Y-112131209D01*
X165800010Y-112050010D01*
X165881209Y-111940076D01*
X165926493Y-111811127D01*
X165929500Y-111779315D01*
X165929500Y-111776283D01*
X166271001Y-111776283D01*
X166271280Y-111782207D01*
X166273281Y-111803382D01*
X166276549Y-111818280D01*
X166316116Y-111930951D01*
X166324837Y-111947420D01*
X166394752Y-112042078D01*
X166407922Y-112055248D01*
X166502580Y-112125163D01*
X166519049Y-112133884D01*
X166631723Y-112173452D01*
X166646614Y-112176719D01*
X166657235Y-112177723D01*
X166668124Y-112174525D01*
X166669329Y-112173135D01*
X166671000Y-112165452D01*
X166671000Y-112160884D01*
X167179000Y-112160884D01*
X167183475Y-112176123D01*
X167184865Y-112177328D01*
X167188521Y-112178123D01*
X167203382Y-112176719D01*
X167218280Y-112173451D01*
X167330951Y-112133884D01*
X167347420Y-112125163D01*
X167442078Y-112055248D01*
X167455248Y-112042078D01*
X167525163Y-111947420D01*
X167533884Y-111930951D01*
X167573452Y-111818277D01*
X167576719Y-111803386D01*
X167578721Y-111782201D01*
X167579000Y-111776287D01*
X167579000Y-111722115D01*
X167574525Y-111706876D01*
X167573135Y-111705671D01*
X167565452Y-111704000D01*
X167197115Y-111704000D01*
X167181876Y-111708475D01*
X167180671Y-111709865D01*
X167179000Y-111717548D01*
X167179000Y-112160884D01*
X166671000Y-112160884D01*
X166671000Y-111722115D01*
X166666525Y-111706876D01*
X166665135Y-111705671D01*
X166657452Y-111704000D01*
X166289116Y-111704000D01*
X166273877Y-111708475D01*
X166272672Y-111709865D01*
X166271001Y-111717548D01*
X166271001Y-111776283D01*
X165929500Y-111776283D01*
X165929499Y-111177885D01*
X166271000Y-111177885D01*
X166275475Y-111193124D01*
X166276865Y-111194329D01*
X166284548Y-111196000D01*
X166652885Y-111196000D01*
X166668124Y-111191525D01*
X166669329Y-111190135D01*
X166671000Y-111182452D01*
X166671000Y-111177885D01*
X167179000Y-111177885D01*
X167183475Y-111193124D01*
X167184865Y-111194329D01*
X167192548Y-111196000D01*
X167560884Y-111196000D01*
X167576123Y-111191525D01*
X167577328Y-111190135D01*
X167578999Y-111182452D01*
X167578999Y-111123717D01*
X167578720Y-111117793D01*
X167576719Y-111096618D01*
X167573451Y-111081720D01*
X167533884Y-110969049D01*
X167525163Y-110952580D01*
X167455248Y-110857922D01*
X167442078Y-110844752D01*
X167347420Y-110774837D01*
X167330951Y-110766116D01*
X167218277Y-110726548D01*
X167203386Y-110723281D01*
X167192765Y-110722277D01*
X167181876Y-110725475D01*
X167180671Y-110726865D01*
X167179000Y-110734548D01*
X167179000Y-111177885D01*
X166671000Y-111177885D01*
X166671000Y-110739116D01*
X166666525Y-110723877D01*
X166665135Y-110722672D01*
X166661479Y-110721877D01*
X166646618Y-110723281D01*
X166631720Y-110726549D01*
X166519049Y-110766116D01*
X166502580Y-110774837D01*
X166407922Y-110844752D01*
X166394752Y-110857922D01*
X166324837Y-110952580D01*
X166316116Y-110969049D01*
X166276548Y-111081723D01*
X166273281Y-111096614D01*
X166271279Y-111117799D01*
X166271000Y-111123713D01*
X166271000Y-111177885D01*
X165929499Y-111177885D01*
X165929499Y-111120686D01*
X165927225Y-111096614D01*
X165927216Y-111096522D01*
X165927215Y-111096518D01*
X165926493Y-111088873D01*
X165881209Y-110959924D01*
X165800010Y-110849990D01*
X165690076Y-110768791D01*
X165561127Y-110723507D01*
X165553485Y-110722785D01*
X165553482Y-110722784D01*
X165538579Y-110721376D01*
X165529315Y-110720500D01*
X165275172Y-110720500D01*
X165020686Y-110720501D01*
X165017738Y-110720780D01*
X165017729Y-110720780D01*
X164996522Y-110722784D01*
X164996520Y-110722784D01*
X164988873Y-110723507D01*
X164981623Y-110726053D01*
X164980211Y-110726549D01*
X164859924Y-110768791D01*
X164749990Y-110849990D01*
X164668791Y-110959924D01*
X164623507Y-111088873D01*
X164620500Y-111120685D01*
X164620500Y-111123649D01*
X164620501Y-111515615D01*
X164600499Y-111583735D01*
X164583596Y-111604710D01*
X164269784Y-111918522D01*
X164251036Y-111933664D01*
X164249811Y-111934779D01*
X164241060Y-111940429D01*
X164234613Y-111948607D01*
X164234611Y-111948609D01*
X164220271Y-111966800D01*
X164216325Y-111971241D01*
X164216398Y-111971303D01*
X164213039Y-111975267D01*
X164209362Y-111978944D01*
X164198108Y-111994692D01*
X164194602Y-111999362D01*
X164162844Y-112039647D01*
X164159812Y-112048281D01*
X164154486Y-112055734D01*
X164151501Y-112065715D01*
X164139799Y-112104844D01*
X164137964Y-112110492D01*
X164129593Y-112134330D01*
X164120982Y-112158851D01*
X164120500Y-112164416D01*
X164120500Y-112167124D01*
X164120386Y-112169758D01*
X164120357Y-112169856D01*
X164120193Y-112169849D01*
X164120149Y-112170553D01*
X164118287Y-112176778D01*
X164118696Y-112187183D01*
X164120403Y-112230635D01*
X164120500Y-112235582D01*
X164120500Y-113169500D01*
X164100498Y-113237621D01*
X164046842Y-113284114D01*
X163994500Y-113295500D01*
X163266864Y-113295501D01*
X163224934Y-113295501D01*
X163186401Y-113303165D01*
X163154579Y-113309494D01*
X163083865Y-113303165D01*
X163027799Y-113259609D01*
X163004000Y-113185915D01*
X163004000Y-110300000D01*
X163024002Y-110231879D01*
X163077658Y-110185386D01*
X163130000Y-110174000D01*
X197930000Y-110174000D01*
X197998121Y-110194002D01*
G37*
%TD.AperFunction*%
%TA.AperFunction,Conductor*%
G36*
X177323204Y-123806658D02*
G01*
X177376302Y-123853786D01*
X177395501Y-123920639D01*
X177395501Y-124027566D01*
X177408997Y-124095418D01*
X177408997Y-124144579D01*
X177395500Y-124212433D01*
X177395501Y-124662566D01*
X177408997Y-124730418D01*
X177408997Y-124779579D01*
X177395500Y-124847433D01*
X177395501Y-125297566D01*
X177396708Y-125303633D01*
X177396708Y-125303635D01*
X177397878Y-125309516D01*
X177408997Y-125365418D01*
X177408997Y-125414579D01*
X177395500Y-125482433D01*
X177395501Y-125932566D01*
X177402612Y-125968318D01*
X177407260Y-125991686D01*
X177410266Y-126006801D01*
X177417161Y-126017120D01*
X177417162Y-126017122D01*
X177443284Y-126056216D01*
X177466516Y-126090984D01*
X177550699Y-126147234D01*
X177624933Y-126162000D01*
X177716130Y-126162000D01*
X177784251Y-126182002D01*
X177830744Y-126235658D01*
X177840848Y-126305932D01*
X177811354Y-126370512D01*
X177805225Y-126377095D01*
X177349925Y-126832395D01*
X177287613Y-126866421D01*
X177260830Y-126869300D01*
X177176473Y-126869300D01*
X177108352Y-126849298D01*
X177061859Y-126795642D01*
X177057599Y-126785072D01*
X177031209Y-126709924D01*
X176950010Y-126599990D01*
X176942439Y-126594398D01*
X176942436Y-126594395D01*
X176841845Y-126520097D01*
X176798934Y-126463536D01*
X176793414Y-126392754D01*
X176827038Y-126330225D01*
X176841138Y-126317920D01*
X176935010Y-126247566D01*
X176947566Y-126235010D01*
X177019092Y-126139575D01*
X177027625Y-126123988D01*
X177069865Y-126011311D01*
X177073490Y-125996066D01*
X177078631Y-125948741D01*
X177079000Y-125941927D01*
X177079000Y-125922115D01*
X177074525Y-125906876D01*
X177073135Y-125905671D01*
X177065452Y-125904000D01*
X176247000Y-125904000D01*
X176178879Y-125883998D01*
X176132386Y-125830342D01*
X176121000Y-125778000D01*
X176121000Y-125522000D01*
X176141002Y-125453879D01*
X176194658Y-125407386D01*
X176247000Y-125396000D01*
X177060885Y-125396000D01*
X177076124Y-125391525D01*
X177077329Y-125390135D01*
X177079000Y-125382452D01*
X177079000Y-125358073D01*
X177078631Y-125351259D01*
X177073490Y-125303934D01*
X177069865Y-125288689D01*
X177027625Y-125176012D01*
X177019092Y-125160425D01*
X176947566Y-125064990D01*
X176935007Y-125052431D01*
X176832794Y-124975826D01*
X176790279Y-124918966D01*
X176785254Y-124848148D01*
X176819313Y-124785855D01*
X176832794Y-124774174D01*
X176935007Y-124697569D01*
X176947566Y-124685010D01*
X177019092Y-124589575D01*
X177027625Y-124573988D01*
X177069865Y-124461311D01*
X177073490Y-124446066D01*
X177078631Y-124398741D01*
X177079000Y-124391927D01*
X177079000Y-124372115D01*
X177074525Y-124356876D01*
X177073135Y-124355671D01*
X177065452Y-124354000D01*
X176247000Y-124354000D01*
X176178879Y-124333998D01*
X176132386Y-124280342D01*
X176121000Y-124228000D01*
X176121000Y-123972000D01*
X176141002Y-123903879D01*
X176194658Y-123857386D01*
X176247000Y-123846000D01*
X177060885Y-123846000D01*
X177089037Y-123837734D01*
X177127039Y-123813311D01*
X177150094Y-123809996D01*
X177150000Y-123809285D01*
X177253055Y-123795718D01*
X177323204Y-123806658D01*
G37*
%TD.AperFunction*%
%TA.AperFunction,Conductor*%
G36*
X193861909Y-115938002D02*
G01*
X193910197Y-115995781D01*
X193945899Y-116081971D01*
X193965645Y-116129642D01*
X194054526Y-116245474D01*
X194061076Y-116250500D01*
X194061079Y-116250503D01*
X194163804Y-116329327D01*
X194170357Y-116334355D01*
X194280177Y-116379844D01*
X194292456Y-116384930D01*
X194305246Y-116390228D01*
X194450000Y-116409285D01*
X194458188Y-116408207D01*
X194586568Y-116391306D01*
X194586570Y-116391305D01*
X194594754Y-116390228D01*
X194602379Y-116387069D01*
X194610364Y-116384930D01*
X194610769Y-116386443D01*
X194672079Y-116379856D01*
X194738793Y-116414757D01*
X195553771Y-117229735D01*
X195568913Y-117248483D01*
X195570028Y-117249708D01*
X195575678Y-117258459D01*
X195583856Y-117264906D01*
X195583858Y-117264908D01*
X195602049Y-117279248D01*
X195606493Y-117283197D01*
X195606555Y-117283123D01*
X195610512Y-117286476D01*
X195614193Y-117290157D01*
X195629903Y-117301384D01*
X195634629Y-117304932D01*
X195674896Y-117336675D01*
X195683533Y-117339708D01*
X195690983Y-117345032D01*
X195700959Y-117348016D01*
X195700960Y-117348016D01*
X195716295Y-117352602D01*
X195740098Y-117359721D01*
X195745735Y-117361553D01*
X195786616Y-117375909D01*
X195794100Y-117378537D01*
X195799665Y-117379019D01*
X195802373Y-117379019D01*
X195805007Y-117379133D01*
X195805105Y-117379162D01*
X195805098Y-117379326D01*
X195805802Y-117379370D01*
X195812027Y-117381232D01*
X195865884Y-117379116D01*
X195870831Y-117379019D01*
X196800288Y-117379019D01*
X196868409Y-117399021D01*
X196893924Y-117420708D01*
X196961396Y-117495642D01*
X196968535Y-117503571D01*
X196973874Y-117507450D01*
X197102379Y-117600814D01*
X197110451Y-117606679D01*
X197116479Y-117609363D01*
X197116481Y-117609364D01*
X197264674Y-117675344D01*
X197270705Y-117678029D01*
X197352901Y-117695500D01*
X197435833Y-117713128D01*
X197435837Y-117713128D01*
X197442290Y-117714500D01*
X197617710Y-117714500D01*
X197624163Y-117713128D01*
X197624167Y-117713128D01*
X197707099Y-117695500D01*
X197789295Y-117678029D01*
X197795328Y-117675343D01*
X197795334Y-117675341D01*
X197878751Y-117638201D01*
X197949117Y-117628766D01*
X198013415Y-117658872D01*
X198051228Y-117718961D01*
X198056000Y-117753307D01*
X198056000Y-120837286D01*
X198035998Y-120905407D01*
X197982342Y-120951900D01*
X197912068Y-120962004D01*
X197872801Y-120949555D01*
X197855181Y-120940577D01*
X197759991Y-120925500D01*
X197460508Y-120925500D01*
X197392387Y-120905498D01*
X197345894Y-120851842D01*
X197334508Y-120799500D01*
X197334508Y-119581265D01*
X197336614Y-119561471D01*
X197336819Y-119557118D01*
X197339011Y-119546938D01*
X197335381Y-119516268D01*
X197335066Y-119510925D01*
X197334936Y-119510936D01*
X197334508Y-119505756D01*
X197334508Y-119500557D01*
X197333655Y-119495433D01*
X197333654Y-119495420D01*
X197331581Y-119482967D01*
X197330744Y-119477092D01*
X197326363Y-119440079D01*
X197325139Y-119429738D01*
X197321438Y-119422030D01*
X197320033Y-119413591D01*
X197297390Y-119371627D01*
X197294694Y-119366336D01*
X197277485Y-119330497D01*
X197277481Y-119330490D01*
X197274052Y-119323350D01*
X197270696Y-119319358D01*
X197268749Y-119317411D01*
X197267261Y-119315789D01*
X197267026Y-119315353D01*
X197267062Y-119315321D01*
X197266925Y-119315166D01*
X197263991Y-119309728D01*
X197227114Y-119275639D01*
X197223548Y-119272210D01*
X195786918Y-117835580D01*
X195774413Y-117820098D01*
X195771477Y-117816871D01*
X195765825Y-117808118D01*
X195741562Y-117788991D01*
X195737567Y-117785441D01*
X195737483Y-117785540D01*
X195733520Y-117782182D01*
X195729844Y-117778506D01*
X195725614Y-117775483D01*
X195715348Y-117768146D01*
X195710605Y-117764585D01*
X195681325Y-117741503D01*
X195681321Y-117741501D01*
X195673143Y-117735054D01*
X195665075Y-117732221D01*
X195658115Y-117727247D01*
X195633591Y-117719913D01*
X195612414Y-117713580D01*
X195606765Y-117711744D01*
X195569269Y-117698576D01*
X195569270Y-117698576D01*
X195561792Y-117695950D01*
X195556596Y-117695500D01*
X195553891Y-117695500D01*
X195551635Y-117695403D01*
X195551159Y-117695260D01*
X195551161Y-117695214D01*
X195550962Y-117695201D01*
X195545045Y-117693432D01*
X195495411Y-117695382D01*
X195494876Y-117695403D01*
X195489930Y-117695500D01*
X195287114Y-117695500D01*
X195218993Y-117675498D01*
X195199532Y-117659814D01*
X195195474Y-117654526D01*
X195130203Y-117604441D01*
X195086196Y-117570673D01*
X195086194Y-117570672D01*
X195079643Y-117565645D01*
X194944754Y-117509772D01*
X194927117Y-117507450D01*
X194808188Y-117491793D01*
X194800000Y-117490715D01*
X194791812Y-117491793D01*
X194663432Y-117508694D01*
X194663430Y-117508695D01*
X194655246Y-117509772D01*
X194627980Y-117521066D01*
X194527986Y-117562485D01*
X194527984Y-117562486D01*
X194520358Y-117565645D01*
X194455674Y-117615279D01*
X194427041Y-117637250D01*
X194404526Y-117654526D01*
X194399503Y-117661072D01*
X194385632Y-117679149D01*
X194315645Y-117770358D01*
X194312486Y-117777984D01*
X194312485Y-117777986D01*
X194285103Y-117844092D01*
X194259772Y-117905246D01*
X194258695Y-117913430D01*
X194258694Y-117913432D01*
X194251780Y-117965953D01*
X194245096Y-118016728D01*
X194242873Y-118033611D01*
X194214151Y-118098538D01*
X194207046Y-118106260D01*
X192836545Y-119476761D01*
X192817596Y-119487108D01*
X192813577Y-119497902D01*
X192801761Y-119511545D01*
X192329711Y-119983595D01*
X192267399Y-120017621D01*
X192240616Y-120020500D01*
X191267567Y-120020500D01*
X191199446Y-120000498D01*
X191152953Y-119946842D01*
X191142849Y-119876568D01*
X191151158Y-119846283D01*
X191154249Y-119838819D01*
X191154250Y-119838817D01*
X191157410Y-119831187D01*
X191159097Y-119818377D01*
X191175389Y-119694621D01*
X191176467Y-119686433D01*
X191169853Y-119636193D01*
X191158488Y-119549865D01*
X191158487Y-119549863D01*
X191157410Y-119541679D01*
X191148658Y-119520549D01*
X191131331Y-119478718D01*
X191123742Y-119408128D01*
X191155521Y-119344641D01*
X191216579Y-119308414D01*
X191247740Y-119304500D01*
X191398075Y-119304500D01*
X191466196Y-119324502D01*
X191473641Y-119329674D01*
X191560183Y-119394535D01*
X191560186Y-119394537D01*
X191567365Y-119399917D01*
X191575769Y-119403067D01*
X191575770Y-119403068D01*
X191688581Y-119445358D01*
X191688582Y-119445358D01*
X191695976Y-119448130D01*
X191703826Y-119448983D01*
X191703827Y-119448983D01*
X191748425Y-119453828D01*
X191754611Y-119454500D01*
X192049956Y-119454500D01*
X192345388Y-119454499D01*
X192348782Y-119454130D01*
X192348788Y-119454130D01*
X192396166Y-119448984D01*
X192396170Y-119448983D01*
X192404024Y-119448130D01*
X192503303Y-119410913D01*
X192524230Y-119403068D01*
X192524231Y-119403067D01*
X192532635Y-119399917D01*
X192539814Y-119394537D01*
X192539817Y-119394535D01*
X192634797Y-119323350D01*
X192637100Y-119321624D01*
X192641575Y-119319952D01*
X192646624Y-119312100D01*
X192719535Y-119214817D01*
X192719537Y-119214814D01*
X192724917Y-119207635D01*
X192728068Y-119199230D01*
X192770358Y-119086419D01*
X192770358Y-119086418D01*
X192773130Y-119079024D01*
X192774072Y-119070358D01*
X192779131Y-119023786D01*
X192779131Y-119023785D01*
X192779500Y-119020389D01*
X192779499Y-118479612D01*
X192775289Y-118440850D01*
X192773984Y-118428834D01*
X192773983Y-118428830D01*
X192773130Y-118420976D01*
X192724917Y-118292365D01*
X192719537Y-118285186D01*
X192719535Y-118285183D01*
X192647923Y-118189633D01*
X192642544Y-118182456D01*
X192616492Y-118162931D01*
X192539817Y-118105465D01*
X192539814Y-118105463D01*
X192532635Y-118100083D01*
X192512980Y-118092715D01*
X192456216Y-118050073D01*
X192431516Y-117983512D01*
X192446724Y-117914163D01*
X192497010Y-117864045D01*
X192512982Y-117856751D01*
X192523986Y-117852626D01*
X192539575Y-117844092D01*
X192635010Y-117772566D01*
X192647566Y-117760010D01*
X192719092Y-117664575D01*
X192727625Y-117648988D01*
X192769865Y-117536311D01*
X192773490Y-117521066D01*
X192778631Y-117473741D01*
X192778763Y-117471307D01*
X192774525Y-117456876D01*
X192773135Y-117455671D01*
X192765452Y-117454000D01*
X191922000Y-117454000D01*
X191853879Y-117433998D01*
X191807386Y-117380342D01*
X191796000Y-117328000D01*
X191796000Y-116927885D01*
X192304000Y-116927885D01*
X192308475Y-116943124D01*
X192309865Y-116944329D01*
X192317548Y-116946000D01*
X192760885Y-116946000D01*
X192776124Y-116941525D01*
X192777329Y-116940135D01*
X192778973Y-116932576D01*
X192778631Y-116926259D01*
X192773490Y-116878934D01*
X192769865Y-116863689D01*
X192727625Y-116751012D01*
X192719092Y-116735425D01*
X192647566Y-116639990D01*
X192635010Y-116627434D01*
X192539575Y-116555908D01*
X192523988Y-116547375D01*
X192411311Y-116505135D01*
X192396066Y-116501510D01*
X192348741Y-116496369D01*
X192341927Y-116496000D01*
X192322115Y-116496000D01*
X192306876Y-116500475D01*
X192305671Y-116501865D01*
X192304000Y-116509548D01*
X192304000Y-116927885D01*
X191796000Y-116927885D01*
X191796000Y-116514115D01*
X191791525Y-116498876D01*
X191790135Y-116497671D01*
X191782452Y-116496000D01*
X191758073Y-116496000D01*
X191751259Y-116496369D01*
X191703934Y-116501510D01*
X191688689Y-116505135D01*
X191576012Y-116547375D01*
X191560425Y-116555908D01*
X191464990Y-116627434D01*
X191452431Y-116639993D01*
X191375826Y-116742206D01*
X191318966Y-116784721D01*
X191248148Y-116789746D01*
X191185855Y-116755687D01*
X191174174Y-116742206D01*
X191097569Y-116639993D01*
X191085010Y-116627434D01*
X190989575Y-116555908D01*
X190973988Y-116547375D01*
X190861311Y-116505135D01*
X190846066Y-116501510D01*
X190798741Y-116496369D01*
X190791927Y-116496000D01*
X190607910Y-116496000D01*
X190539789Y-116475998D01*
X190493296Y-116422342D01*
X190483192Y-116352068D01*
X190512686Y-116287488D01*
X190518815Y-116280905D01*
X190844815Y-115954905D01*
X190907127Y-115920879D01*
X190933910Y-115918000D01*
X193793788Y-115918000D01*
X193861909Y-115938002D01*
G37*
%TD.AperFunction*%
%TA.AperFunction,Conductor*%
G36*
X189689032Y-117214854D02*
G01*
X189745868Y-117257401D01*
X189770679Y-117323921D01*
X189771000Y-117332910D01*
X189771000Y-117466927D01*
X189771369Y-117473741D01*
X189776510Y-117521066D01*
X189780135Y-117536311D01*
X189822375Y-117648988D01*
X189830908Y-117664575D01*
X189902434Y-117760010D01*
X189914990Y-117772566D01*
X190010425Y-117844092D01*
X190026014Y-117852626D01*
X190037018Y-117856751D01*
X190093783Y-117899391D01*
X190118484Y-117965953D01*
X190103277Y-118035302D01*
X190052992Y-118085421D01*
X190037022Y-118092714D01*
X190017365Y-118100083D01*
X190010186Y-118105463D01*
X190010183Y-118105465D01*
X189933508Y-118162931D01*
X189907456Y-118182456D01*
X189902077Y-118189633D01*
X189830465Y-118285183D01*
X189830463Y-118285186D01*
X189825083Y-118292365D01*
X189821933Y-118300769D01*
X189821932Y-118300770D01*
X189780089Y-118412390D01*
X189776870Y-118420976D01*
X189770500Y-118479611D01*
X189770501Y-118723507D01*
X189770501Y-118929617D01*
X189750499Y-118997738D01*
X189696844Y-119044231D01*
X189626570Y-119054335D01*
X189561989Y-119024842D01*
X189555406Y-119018712D01*
X189506478Y-118969784D01*
X189491336Y-118951036D01*
X189490221Y-118949811D01*
X189484571Y-118941060D01*
X189476393Y-118934613D01*
X189476391Y-118934611D01*
X189458200Y-118920271D01*
X189453759Y-118916325D01*
X189453697Y-118916398D01*
X189449733Y-118913039D01*
X189446056Y-118909362D01*
X189430308Y-118898108D01*
X189425638Y-118894602D01*
X189385353Y-118862844D01*
X189376719Y-118859812D01*
X189369266Y-118854486D01*
X189320150Y-118839797D01*
X189314508Y-118837964D01*
X189273633Y-118823610D01*
X189273632Y-118823610D01*
X189266149Y-118820982D01*
X189260584Y-118820500D01*
X189257876Y-118820500D01*
X189255242Y-118820386D01*
X189255144Y-118820357D01*
X189255151Y-118820193D01*
X189254447Y-118820149D01*
X189248222Y-118818287D01*
X189194365Y-118820403D01*
X189189418Y-118820500D01*
X189034384Y-118820500D01*
X188966263Y-118800498D01*
X188945289Y-118783595D01*
X188916404Y-118754710D01*
X188882378Y-118692398D01*
X188879499Y-118665615D01*
X188879499Y-118634979D01*
X188899501Y-118566858D01*
X188953157Y-118520365D01*
X188966115Y-118515707D01*
X188969754Y-118515228D01*
X188977381Y-118512069D01*
X188977384Y-118512068D01*
X189037199Y-118487291D01*
X189104643Y-118459355D01*
X189130946Y-118439172D01*
X189213921Y-118375503D01*
X189213924Y-118375500D01*
X189220474Y-118370474D01*
X189248548Y-118333888D01*
X189293741Y-118274990D01*
X189309355Y-118254642D01*
X189315585Y-118239603D01*
X189354355Y-118146003D01*
X189365228Y-118119754D01*
X189366765Y-118108084D01*
X189383207Y-117983188D01*
X189384285Y-117975000D01*
X189374098Y-117897620D01*
X189366306Y-117838432D01*
X189366305Y-117838430D01*
X189365228Y-117830246D01*
X189325275Y-117733792D01*
X189312515Y-117702986D01*
X189312514Y-117702984D01*
X189309355Y-117695358D01*
X189304329Y-117688808D01*
X189304325Y-117688801D01*
X189287621Y-117667033D01*
X189262019Y-117600814D01*
X189276283Y-117531265D01*
X189298487Y-117501233D01*
X189555905Y-117243815D01*
X189618217Y-117209789D01*
X189689032Y-117214854D01*
G37*
%TD.AperFunction*%
M02*
