%TF.GenerationSoftware,KiCad,Pcbnew,(6.0.2)*%
%TF.CreationDate,2022-05-02T21:41:20-07:00*%
%TF.ProjectId,hcms_dot_display_bottom,68636d73-5f64-46f7-945f-646973706c61,rev?*%
%TF.SameCoordinates,Original*%
%TF.FileFunction,Paste,Bot*%
%TF.FilePolarity,Positive*%
%FSLAX46Y46*%
G04 Gerber Fmt 4.6, Leading zero omitted, Abs format (unit mm)*
G04 Created by KiCad (PCBNEW (6.0.2)) date 2022-05-02 21:41:20*
%MOMM*%
%LPD*%
G01*
G04 APERTURE LIST*
G04 Aperture macros list*
%AMRoundRect*
0 Rectangle with rounded corners*
0 $1 Rounding radius*
0 $2 $3 $4 $5 $6 $7 $8 $9 X,Y pos of 4 corners*
0 Add a 4 corners polygon primitive as box body*
4,1,4,$2,$3,$4,$5,$6,$7,$8,$9,$2,$3,0*
0 Add four circle primitives for the rounded corners*
1,1,$1+$1,$2,$3*
1,1,$1+$1,$4,$5*
1,1,$1+$1,$6,$7*
1,1,$1+$1,$8,$9*
0 Add four rect primitives between the rounded corners*
20,1,$1+$1,$2,$3,$4,$5,0*
20,1,$1+$1,$4,$5,$6,$7,0*
20,1,$1+$1,$6,$7,$8,$9,0*
20,1,$1+$1,$8,$9,$2,$3,0*%
G04 Aperture macros list end*
%ADD10RoundRect,0.200000X0.200000X0.275000X-0.200000X0.275000X-0.200000X-0.275000X0.200000X-0.275000X0*%
%ADD11RoundRect,0.125000X0.825000X0.125000X-0.825000X0.125000X-0.825000X-0.125000X0.825000X-0.125000X0*%
%ADD12RoundRect,0.200000X-0.200000X-0.275000X0.200000X-0.275000X0.200000X0.275000X-0.200000X0.275000X0*%
%ADD13RoundRect,0.225000X0.225000X0.250000X-0.225000X0.250000X-0.225000X-0.250000X0.225000X-0.250000X0*%
%ADD14RoundRect,0.225000X-0.225000X-0.250000X0.225000X-0.250000X0.225000X0.250000X-0.225000X0.250000X0*%
%ADD15RoundRect,0.150000X-0.150000X0.800000X-0.150000X-0.800000X0.150000X-0.800000X0.150000X0.800000X0*%
%ADD16RoundRect,0.200000X-0.275000X0.200000X-0.275000X-0.200000X0.275000X-0.200000X0.275000X0.200000X0*%
G04 APERTURE END LIST*
D10*
X169925000Y-118000000D03*
X168275000Y-118000000D03*
D11*
X193600000Y-117375000D03*
X193600000Y-118025000D03*
X193600000Y-118675000D03*
X193600000Y-119325000D03*
X193600000Y-119975000D03*
X193600000Y-120625000D03*
X193600000Y-121275000D03*
X193600000Y-121925000D03*
X193600000Y-122575000D03*
X193600000Y-123225000D03*
X186600000Y-123225000D03*
X186600000Y-122575000D03*
X186600000Y-121925000D03*
X186600000Y-121275000D03*
X186600000Y-120625000D03*
X186600000Y-119975000D03*
X186600000Y-119325000D03*
X186600000Y-118675000D03*
X186600000Y-118025000D03*
X186600000Y-117375000D03*
D12*
X174775000Y-116350000D03*
X176425000Y-116350000D03*
D13*
X176375000Y-121000000D03*
X174825000Y-121000000D03*
D10*
X167475000Y-121850000D03*
X165825000Y-121850000D03*
D14*
X174825000Y-117900000D03*
X176375000Y-117900000D03*
D10*
X183575000Y-117200000D03*
X181925000Y-117200000D03*
D15*
X178995000Y-119350000D03*
X180265000Y-119350000D03*
X181535000Y-119350000D03*
X182805000Y-119350000D03*
X182805000Y-126350000D03*
X181535000Y-126350000D03*
X180265000Y-126350000D03*
X178995000Y-126350000D03*
D14*
X174825000Y-119450000D03*
X176375000Y-119450000D03*
D16*
X172400000Y-123125000D03*
X172400000Y-124775000D03*
M02*
