M48
; DRILL file {KiCad (6.0.2)} date Mon May  2 21:45:22 2022
; FORMAT={-:-/ absolute / metric / decimal}
; #@! TF.CreationDate,2022-05-02T21:45:22-07:00
; #@! TF.GenerationSoftware,Kicad,Pcbnew,(6.0.2)
; #@! TF.FileFunction,Plated,1,2,PTH
FMAT,2
METRIC
; #@! TA.AperFunction,Plated,PTH,ViaDrill
T1C0.300
; #@! TA.AperFunction,Plated,PTH,ComponentDrill
T2C0.300
; #@! TA.AperFunction,Plated,PTH,ComponentDrill
T3C0.700
; #@! TA.AperFunction,Plated,PTH,ComponentDrill
T4C0.760
; #@! TA.AperFunction,Plated,PTH,ComponentDrill
T5C1.000
; #@! TA.AperFunction,Plated,PTH,ComponentDrill
T6C2.100
%
G90
G05
T1
X171.2Y-118.0
X171.55Y-123.9
X172.35Y-127.1
X174.0Y-118.7
X174.15Y-120.1
X175.435Y-121.792
X177.15Y-123.25
X179.5Y-121.5
X180.3Y-121.05
X182.25Y-122.5
X182.45Y-124.4
X183.9Y-118.55
X184.65Y-123.8
X185.35Y-123.2
X185.45Y-116.3
X188.65Y-120.85
X188.825Y-117.975
X189.05Y-115.6
X189.5Y-118.6
X190.617Y-119.686
X191.68Y-116.23
X194.45Y-115.85
X194.8Y-118.05
X194.8Y-119.35
X195.25Y-111.9
X195.8Y-112.7
X195.95Y-111.2
T2
X164.2Y-125.1
X164.65Y-123.85
X164.65Y-126.35
X165.9Y-123.4
X165.9Y-126.8
X167.15Y-123.85
X167.15Y-126.35
X167.6Y-125.1
X169.065Y-121.495
X169.065Y-122.345
X169.065Y-123.195
X169.065Y-124.045
X169.065Y-124.895
X169.065Y-125.745
X169.065Y-126.595
X169.065Y-127.445
X170.415Y-121.495
X170.415Y-122.345
X170.415Y-123.195
X170.415Y-124.045
X170.415Y-124.895
X170.415Y-125.745
X170.415Y-126.595
X170.415Y-127.445
X191.15Y-126.95
X191.6Y-125.7
X191.6Y-128.2
X192.85Y-125.25
X192.85Y-128.65
X194.1Y-125.7
X194.1Y-128.2
X194.55Y-126.95
T4
X197.53Y-111.8
X197.53Y-114.34
X197.53Y-116.88
T5
X164.1Y-114.4
X164.1Y-116.94
X167.888Y-114.312
X170.428Y-114.312
X172.968Y-114.312
X175.508Y-114.312
X178.048Y-114.312
X180.588Y-114.312
X183.128Y-114.312
X185.668Y-114.312
X188.208Y-114.312
X190.748Y-114.312
X193.288Y-114.312
T6
X165.9Y-125.1
X192.85Y-126.95
T3
X166.215Y-120.15G85X165.315Y-120.15
G05
X166.215Y-128.79G85X165.315Y-128.79
G05
X170.565Y-120.15G85X169.265Y-120.15
G05
X170.565Y-128.79G85X169.265Y-128.79
G05
T0
M30
