%TF.GenerationSoftware,KiCad,Pcbnew,(6.0.2)*%
%TF.CreationDate,2022-05-02T21:41:20-07:00*%
%TF.ProjectId,hcms_dot_display_bottom,68636d73-5f64-46f7-945f-646973706c61,rev?*%
%TF.SameCoordinates,Original*%
%TF.FileFunction,Legend,Bot*%
%TF.FilePolarity,Positive*%
%FSLAX46Y46*%
G04 Gerber Fmt 4.6, Leading zero omitted, Abs format (unit mm)*
G04 Created by KiCad (PCBNEW (6.0.2)) date 2022-05-02 21:41:20*
%MOMM*%
%LPD*%
G01*
G04 APERTURE LIST*
G04 Aperture macros list*
%AMRoundRect*
0 Rectangle with rounded corners*
0 $1 Rounding radius*
0 $2 $3 $4 $5 $6 $7 $8 $9 X,Y pos of 4 corners*
0 Add a 4 corners polygon primitive as box body*
4,1,4,$2,$3,$4,$5,$6,$7,$8,$9,$2,$3,0*
0 Add four circle primitives for the rounded corners*
1,1,$1+$1,$2,$3*
1,1,$1+$1,$4,$5*
1,1,$1+$1,$6,$7*
1,1,$1+$1,$8,$9*
0 Add four rect primitives between the rounded corners*
20,1,$1+$1,$2,$3,$4,$5,0*
20,1,$1+$1,$4,$5,$6,$7,0*
20,1,$1+$1,$6,$7,$8,$9,0*
20,1,$1+$1,$8,$9,$2,$3,0*%
G04 Aperture macros list end*
%ADD10C,0.200000*%
%ADD11C,0.150000*%
%ADD12C,0.120000*%
%ADD13R,1.700000X1.700000*%
%ADD14O,1.700000X1.700000*%
%ADD15R,1.160000X1.160000*%
%ADD16C,1.160000*%
%ADD17C,0.600000*%
%ADD18O,3.200000X1.300000*%
%ADD19O,2.500000X1.300000*%
%ADD20RoundRect,0.200000X0.200000X0.275000X-0.200000X0.275000X-0.200000X-0.275000X0.200000X-0.275000X0*%
%ADD21RoundRect,0.125000X0.825000X0.125000X-0.825000X0.125000X-0.825000X-0.125000X0.825000X-0.125000X0*%
%ADD22RoundRect,0.200000X-0.200000X-0.275000X0.200000X-0.275000X0.200000X0.275000X-0.200000X0.275000X0*%
%ADD23RoundRect,0.225000X0.225000X0.250000X-0.225000X0.250000X-0.225000X-0.250000X0.225000X-0.250000X0*%
%ADD24RoundRect,0.225000X-0.225000X-0.250000X0.225000X-0.250000X0.225000X0.250000X-0.225000X0.250000X0*%
%ADD25RoundRect,0.150000X-0.150000X0.800000X-0.150000X-0.800000X0.150000X-0.800000X0.150000X0.800000X0*%
%ADD26C,0.700000*%
%ADD27C,4.400000*%
%ADD28RoundRect,0.200000X-0.275000X0.200000X-0.275000X-0.200000X0.275000X-0.200000X0.275000X0.200000X0*%
G04 APERTURE END LIST*
D10*
X192270000Y-112328571D02*
X192270000Y-110828571D01*
X192270000Y-112257142D02*
X192412857Y-112328571D01*
X192698571Y-112328571D01*
X192841428Y-112257142D01*
X192912857Y-112185714D01*
X192984285Y-112042857D01*
X192984285Y-111614285D01*
X192912857Y-111471428D01*
X192841428Y-111400000D01*
X192698571Y-111328571D01*
X192412857Y-111328571D01*
X192270000Y-111400000D01*
X191341428Y-112328571D02*
X191484285Y-112257142D01*
X191555714Y-112185714D01*
X191627142Y-112042857D01*
X191627142Y-111614285D01*
X191555714Y-111471428D01*
X191484285Y-111400000D01*
X191341428Y-111328571D01*
X191127142Y-111328571D01*
X190984285Y-111400000D01*
X190912857Y-111471428D01*
X190841428Y-111614285D01*
X190841428Y-112042857D01*
X190912857Y-112185714D01*
X190984285Y-112257142D01*
X191127142Y-112328571D01*
X191341428Y-112328571D01*
X190412857Y-111328571D02*
X189841428Y-111328571D01*
X190198571Y-110828571D02*
X190198571Y-112114285D01*
X190127142Y-112257142D01*
X189984285Y-112328571D01*
X189841428Y-112328571D01*
X187555714Y-112328571D02*
X187555714Y-110828571D01*
X187555714Y-112257142D02*
X187698571Y-112328571D01*
X187984285Y-112328571D01*
X188127142Y-112257142D01*
X188198571Y-112185714D01*
X188270000Y-112042857D01*
X188270000Y-111614285D01*
X188198571Y-111471428D01*
X188127142Y-111400000D01*
X187984285Y-111328571D01*
X187698571Y-111328571D01*
X187555714Y-111400000D01*
X186841428Y-112328571D02*
X186841428Y-111328571D01*
X186841428Y-110828571D02*
X186912857Y-110900000D01*
X186841428Y-110971428D01*
X186770000Y-110900000D01*
X186841428Y-110828571D01*
X186841428Y-110971428D01*
X186198571Y-112257142D02*
X186055714Y-112328571D01*
X185770000Y-112328571D01*
X185627142Y-112257142D01*
X185555714Y-112114285D01*
X185555714Y-112042857D01*
X185627142Y-111900000D01*
X185770000Y-111828571D01*
X185984285Y-111828571D01*
X186127142Y-111757142D01*
X186198571Y-111614285D01*
X186198571Y-111542857D01*
X186127142Y-111400000D01*
X185984285Y-111328571D01*
X185770000Y-111328571D01*
X185627142Y-111400000D01*
X184912857Y-111328571D02*
X184912857Y-112828571D01*
X184912857Y-111400000D02*
X184770000Y-111328571D01*
X184484285Y-111328571D01*
X184341428Y-111400000D01*
X184270000Y-111471428D01*
X184198571Y-111614285D01*
X184198571Y-112042857D01*
X184270000Y-112185714D01*
X184341428Y-112257142D01*
X184484285Y-112328571D01*
X184770000Y-112328571D01*
X184912857Y-112257142D01*
X183341428Y-112328571D02*
X183484285Y-112257142D01*
X183555714Y-112114285D01*
X183555714Y-110828571D01*
X182127142Y-112328571D02*
X182127142Y-111542857D01*
X182198571Y-111400000D01*
X182341428Y-111328571D01*
X182627142Y-111328571D01*
X182770000Y-111400000D01*
X182127142Y-112257142D02*
X182270000Y-112328571D01*
X182627142Y-112328571D01*
X182770000Y-112257142D01*
X182841428Y-112114285D01*
X182841428Y-111971428D01*
X182770000Y-111828571D01*
X182627142Y-111757142D01*
X182270000Y-111757142D01*
X182127142Y-111685714D01*
X181555714Y-111328571D02*
X181198571Y-112328571D01*
X180841428Y-111328571D02*
X181198571Y-112328571D01*
X181341428Y-112685714D01*
X181412857Y-112757142D01*
X181555714Y-112828571D01*
D11*
X179864404Y-111352380D02*
X179864404Y-110685714D01*
X179864404Y-110876190D02*
X179816785Y-110780952D01*
X179769166Y-110733333D01*
X179673928Y-110685714D01*
X179578690Y-110685714D01*
X178864404Y-111304761D02*
X178959642Y-111352380D01*
X179150119Y-111352380D01*
X179245357Y-111304761D01*
X179292976Y-111209523D01*
X179292976Y-110828571D01*
X179245357Y-110733333D01*
X179150119Y-110685714D01*
X178959642Y-110685714D01*
X178864404Y-110733333D01*
X178816785Y-110828571D01*
X178816785Y-110923809D01*
X179292976Y-111019047D01*
X178483452Y-110685714D02*
X178245357Y-111352380D01*
X178007261Y-110685714D01*
X176340595Y-111352380D02*
X176912023Y-111352380D01*
X176626309Y-111352380D02*
X176626309Y-110352380D01*
X176721547Y-110495238D01*
X176816785Y-110590476D01*
X176912023Y-110638095D01*
X179485833Y-112702380D02*
X179485833Y-112178571D01*
X179533452Y-112083333D01*
X179628690Y-112035714D01*
X179819166Y-112035714D01*
X179914404Y-112083333D01*
X179485833Y-112654761D02*
X179581071Y-112702380D01*
X179819166Y-112702380D01*
X179914404Y-112654761D01*
X179962023Y-112559523D01*
X179962023Y-112464285D01*
X179914404Y-112369047D01*
X179819166Y-112321428D01*
X179581071Y-112321428D01*
X179485833Y-112273809D01*
X179009642Y-112035714D02*
X179009642Y-113035714D01*
X179009642Y-112083333D02*
X178914404Y-112035714D01*
X178723928Y-112035714D01*
X178628690Y-112083333D01*
X178581071Y-112130952D01*
X178533452Y-112226190D01*
X178533452Y-112511904D01*
X178581071Y-112607142D01*
X178628690Y-112654761D01*
X178723928Y-112702380D01*
X178914404Y-112702380D01*
X179009642Y-112654761D01*
X177342976Y-112035714D02*
X177342976Y-112702380D01*
X177342976Y-112130952D02*
X177295357Y-112083333D01*
X177200119Y-112035714D01*
X177057261Y-112035714D01*
X176962023Y-112083333D01*
X176914404Y-112178571D01*
X176914404Y-112702380D01*
X176295357Y-112702380D02*
X176390595Y-112654761D01*
X176438214Y-112559523D01*
X176438214Y-111702380D01*
X174962023Y-111702380D02*
X174866785Y-111702380D01*
X174771547Y-111750000D01*
X174723928Y-111797619D01*
X174676309Y-111892857D01*
X174628690Y-112083333D01*
X174628690Y-112321428D01*
X174676309Y-112511904D01*
X174723928Y-112607142D01*
X174771547Y-112654761D01*
X174866785Y-112702380D01*
X174962023Y-112702380D01*
X175057261Y-112654761D01*
X175104880Y-112607142D01*
X175152500Y-112511904D01*
X175200119Y-112321428D01*
X175200119Y-112083333D01*
X175152500Y-111892857D01*
X175104880Y-111797619D01*
X175057261Y-111750000D01*
X174962023Y-111702380D01*
X173771547Y-112035714D02*
X173771547Y-112702380D01*
X174009642Y-111654761D02*
X174247738Y-112369047D01*
X173628690Y-112369047D01*
X173295357Y-111797619D02*
X173247738Y-111750000D01*
X173152500Y-111702380D01*
X172914404Y-111702380D01*
X172819166Y-111750000D01*
X172771547Y-111797619D01*
X172723928Y-111892857D01*
X172723928Y-111988095D01*
X172771547Y-112130952D01*
X173342976Y-112702380D01*
X172723928Y-112702380D01*
X172342976Y-111797619D02*
X172295357Y-111750000D01*
X172200119Y-111702380D01*
X171962023Y-111702380D01*
X171866785Y-111750000D01*
X171819166Y-111797619D01*
X171771547Y-111892857D01*
X171771547Y-111988095D01*
X171819166Y-112130952D01*
X172390595Y-112702380D01*
X171771547Y-112702380D01*
X169622857Y-116822380D02*
X169956190Y-116346190D01*
X170194285Y-116822380D02*
X170194285Y-115822380D01*
X169813333Y-115822380D01*
X169718095Y-115870000D01*
X169670476Y-115917619D01*
X169622857Y-116012857D01*
X169622857Y-116155714D01*
X169670476Y-116250952D01*
X169718095Y-116298571D01*
X169813333Y-116346190D01*
X170194285Y-116346190D01*
X169241904Y-115917619D02*
X169194285Y-115870000D01*
X169099047Y-115822380D01*
X168860952Y-115822380D01*
X168765714Y-115870000D01*
X168718095Y-115917619D01*
X168670476Y-116012857D01*
X168670476Y-116108095D01*
X168718095Y-116250952D01*
X169289523Y-116822380D01*
X168670476Y-116822380D01*
X167718095Y-116822380D02*
X168289523Y-116822380D01*
X168003809Y-116822380D02*
X168003809Y-115822380D01*
X168099047Y-115965238D01*
X168194285Y-116060476D01*
X168289523Y-116108095D01*
X188711904Y-124452380D02*
X188711904Y-125261904D01*
X188664285Y-125357142D01*
X188616666Y-125404761D01*
X188521428Y-125452380D01*
X188330952Y-125452380D01*
X188235714Y-125404761D01*
X188188095Y-125357142D01*
X188140476Y-125261904D01*
X188140476Y-124452380D01*
X187140476Y-125452380D02*
X187711904Y-125452380D01*
X187426190Y-125452380D02*
X187426190Y-124452380D01*
X187521428Y-124595238D01*
X187616666Y-124690476D01*
X187711904Y-124738095D01*
X173092857Y-116802380D02*
X173426190Y-116326190D01*
X173664285Y-116802380D02*
X173664285Y-115802380D01*
X173283333Y-115802380D01*
X173188095Y-115850000D01*
X173140476Y-115897619D01*
X173092857Y-115992857D01*
X173092857Y-116135714D01*
X173140476Y-116230952D01*
X173188095Y-116278571D01*
X173283333Y-116326190D01*
X173664285Y-116326190D01*
X172711904Y-115897619D02*
X172664285Y-115850000D01*
X172569047Y-115802380D01*
X172330952Y-115802380D01*
X172235714Y-115850000D01*
X172188095Y-115897619D01*
X172140476Y-115992857D01*
X172140476Y-116088095D01*
X172188095Y-116230952D01*
X172759523Y-116802380D01*
X172140476Y-116802380D01*
X171759523Y-115897619D02*
X171711904Y-115850000D01*
X171616666Y-115802380D01*
X171378571Y-115802380D01*
X171283333Y-115850000D01*
X171235714Y-115897619D01*
X171188095Y-115992857D01*
X171188095Y-116088095D01*
X171235714Y-116230952D01*
X171807142Y-116802380D01*
X171188095Y-116802380D01*
X176242857Y-123007142D02*
X176290476Y-123054761D01*
X176433333Y-123102380D01*
X176528571Y-123102380D01*
X176671428Y-123054761D01*
X176766666Y-122959523D01*
X176814285Y-122864285D01*
X176861904Y-122673809D01*
X176861904Y-122530952D01*
X176814285Y-122340476D01*
X176766666Y-122245238D01*
X176671428Y-122150000D01*
X176528571Y-122102380D01*
X176433333Y-122102380D01*
X176290476Y-122150000D01*
X176242857Y-122197619D01*
X175290476Y-123102380D02*
X175861904Y-123102380D01*
X175576190Y-123102380D02*
X175576190Y-122102380D01*
X175671428Y-122245238D01*
X175766666Y-122340476D01*
X175861904Y-122388095D01*
X174909523Y-122197619D02*
X174861904Y-122150000D01*
X174766666Y-122102380D01*
X174528571Y-122102380D01*
X174433333Y-122150000D01*
X174385714Y-122197619D01*
X174338095Y-122292857D01*
X174338095Y-122388095D01*
X174385714Y-122530952D01*
X174957142Y-123102380D01*
X174338095Y-123102380D01*
X164216666Y-122302380D02*
X164550000Y-121826190D01*
X164788095Y-122302380D02*
X164788095Y-121302380D01*
X164407142Y-121302380D01*
X164311904Y-121350000D01*
X164264285Y-121397619D01*
X164216666Y-121492857D01*
X164216666Y-121635714D01*
X164264285Y-121730952D01*
X164311904Y-121778571D01*
X164407142Y-121826190D01*
X164788095Y-121826190D01*
X163359523Y-121635714D02*
X163359523Y-122302380D01*
X163597619Y-121254761D02*
X163835714Y-121969047D01*
X163216666Y-121969047D01*
X173066666Y-118257142D02*
X173114285Y-118304761D01*
X173257142Y-118352380D01*
X173352380Y-118352380D01*
X173495238Y-118304761D01*
X173590476Y-118209523D01*
X173638095Y-118114285D01*
X173685714Y-117923809D01*
X173685714Y-117780952D01*
X173638095Y-117590476D01*
X173590476Y-117495238D01*
X173495238Y-117400000D01*
X173352380Y-117352380D01*
X173257142Y-117352380D01*
X173114285Y-117400000D01*
X173066666Y-117447619D01*
X172161904Y-117352380D02*
X172638095Y-117352380D01*
X172685714Y-117828571D01*
X172638095Y-117780952D01*
X172542857Y-117733333D01*
X172304761Y-117733333D01*
X172209523Y-117780952D01*
X172161904Y-117828571D01*
X172114285Y-117923809D01*
X172114285Y-118161904D01*
X172161904Y-118257142D01*
X172209523Y-118304761D01*
X172304761Y-118352380D01*
X172542857Y-118352380D01*
X172638095Y-118304761D01*
X172685714Y-118257142D01*
X180266666Y-117602380D02*
X180600000Y-117126190D01*
X180838095Y-117602380D02*
X180838095Y-116602380D01*
X180457142Y-116602380D01*
X180361904Y-116650000D01*
X180314285Y-116697619D01*
X180266666Y-116792857D01*
X180266666Y-116935714D01*
X180314285Y-117030952D01*
X180361904Y-117078571D01*
X180457142Y-117126190D01*
X180838095Y-117126190D01*
X179933333Y-116602380D02*
X179314285Y-116602380D01*
X179647619Y-116983333D01*
X179504761Y-116983333D01*
X179409523Y-117030952D01*
X179361904Y-117078571D01*
X179314285Y-117173809D01*
X179314285Y-117411904D01*
X179361904Y-117507142D01*
X179409523Y-117554761D01*
X179504761Y-117602380D01*
X179790476Y-117602380D01*
X179885714Y-117554761D01*
X179933333Y-117507142D01*
X178695238Y-129097619D02*
X178790476Y-129050000D01*
X178885714Y-128954761D01*
X179028571Y-128811904D01*
X179123809Y-128764285D01*
X179219047Y-128764285D01*
X179171428Y-129002380D02*
X179266666Y-128954761D01*
X179361904Y-128859523D01*
X179409523Y-128669047D01*
X179409523Y-128335714D01*
X179361904Y-128145238D01*
X179266666Y-128050000D01*
X179171428Y-128002380D01*
X178980952Y-128002380D01*
X178885714Y-128050000D01*
X178790476Y-128145238D01*
X178742857Y-128335714D01*
X178742857Y-128669047D01*
X178790476Y-128859523D01*
X178885714Y-128954761D01*
X178980952Y-129002380D01*
X179171428Y-129002380D01*
X177885714Y-128002380D02*
X178076190Y-128002380D01*
X178171428Y-128050000D01*
X178219047Y-128097619D01*
X178314285Y-128240476D01*
X178361904Y-128430952D01*
X178361904Y-128811904D01*
X178314285Y-128907142D01*
X178266666Y-128954761D01*
X178171428Y-129002380D01*
X177980952Y-129002380D01*
X177885714Y-128954761D01*
X177838095Y-128907142D01*
X177790476Y-128811904D01*
X177790476Y-128573809D01*
X177838095Y-128478571D01*
X177885714Y-128430952D01*
X177980952Y-128383333D01*
X178171428Y-128383333D01*
X178266666Y-128430952D01*
X178314285Y-128478571D01*
X178361904Y-128573809D01*
X173066666Y-119807142D02*
X173114285Y-119854761D01*
X173257142Y-119902380D01*
X173352380Y-119902380D01*
X173495238Y-119854761D01*
X173590476Y-119759523D01*
X173638095Y-119664285D01*
X173685714Y-119473809D01*
X173685714Y-119330952D01*
X173638095Y-119140476D01*
X173590476Y-119045238D01*
X173495238Y-118950000D01*
X173352380Y-118902380D01*
X173257142Y-118902380D01*
X173114285Y-118950000D01*
X173066666Y-118997619D01*
X172209523Y-119235714D02*
X172209523Y-119902380D01*
X172447619Y-118854761D02*
X172685714Y-119569047D01*
X172066666Y-119569047D01*
X172566666Y-126902380D02*
X172900000Y-126426190D01*
X173138095Y-126902380D02*
X173138095Y-125902380D01*
X172757142Y-125902380D01*
X172661904Y-125950000D01*
X172614285Y-125997619D01*
X172566666Y-126092857D01*
X172566666Y-126235714D01*
X172614285Y-126330952D01*
X172661904Y-126378571D01*
X172757142Y-126426190D01*
X173138095Y-126426190D01*
X171661904Y-125902380D02*
X172138095Y-125902380D01*
X172185714Y-126378571D01*
X172138095Y-126330952D01*
X172042857Y-126283333D01*
X171804761Y-126283333D01*
X171709523Y-126330952D01*
X171661904Y-126378571D01*
X171614285Y-126473809D01*
X171614285Y-126711904D01*
X171661904Y-126807142D01*
X171709523Y-126854761D01*
X171804761Y-126902380D01*
X172042857Y-126902380D01*
X172138095Y-126854761D01*
X172185714Y-126807142D01*
D12*
X169337258Y-117477500D02*
X168862742Y-117477500D01*
X169337258Y-118522500D02*
X168862742Y-118522500D01*
X192860000Y-124010000D02*
X192860000Y-123735000D01*
X190100000Y-124010000D02*
X192860000Y-124010000D01*
X190100000Y-124010000D02*
X187340000Y-124010000D01*
X190100000Y-116590000D02*
X187340000Y-116590000D01*
X187340000Y-116590000D02*
X187340000Y-116865000D01*
X192860000Y-116590000D02*
X192860000Y-116865000D01*
X192860000Y-116865000D02*
X194550000Y-116865000D01*
X190100000Y-116590000D02*
X192860000Y-116590000D01*
X187340000Y-124010000D02*
X187340000Y-123735000D01*
X175362742Y-116872500D02*
X175837258Y-116872500D01*
X175362742Y-115827500D02*
X175837258Y-115827500D01*
X175740580Y-120490000D02*
X175459420Y-120490000D01*
X175740580Y-121510000D02*
X175459420Y-121510000D01*
X166887258Y-122372500D02*
X166412742Y-122372500D01*
X166887258Y-121327500D02*
X166412742Y-121327500D01*
X175459420Y-118410000D02*
X175740580Y-118410000D01*
X175459420Y-117390000D02*
X175740580Y-117390000D01*
X182987258Y-116677500D02*
X182512742Y-116677500D01*
X182987258Y-117722500D02*
X182512742Y-117722500D01*
X184110000Y-120090000D02*
X183365000Y-120090000D01*
X177690000Y-122850000D02*
X177690000Y-125610000D01*
X177690000Y-120090000D02*
X178435000Y-120090000D01*
X184110000Y-125610000D02*
X183365000Y-125610000D01*
X184110000Y-122850000D02*
X184110000Y-125610000D01*
X184110000Y-122850000D02*
X184110000Y-120090000D01*
X178435000Y-120090000D02*
X178435000Y-118400000D01*
X177690000Y-125610000D02*
X178435000Y-125610000D01*
X177690000Y-122850000D02*
X177690000Y-120090000D01*
X175459420Y-118940000D02*
X175740580Y-118940000D01*
X175459420Y-119960000D02*
X175740580Y-119960000D01*
X172922500Y-123712742D02*
X172922500Y-124187258D01*
X171877500Y-123712742D02*
X171877500Y-124187258D01*
%LPC*%
G36*
X185969501Y-126600203D02*
G01*
X185986259Y-126601407D01*
X186001430Y-126608427D01*
X186011928Y-126614522D01*
X186027021Y-126617929D01*
X186027409Y-126617940D01*
X186044067Y-126620220D01*
X186061001Y-126625181D01*
X186074598Y-126631495D01*
X186081247Y-126637838D01*
X186081602Y-126640338D01*
X186077579Y-126644121D01*
X186076679Y-126644153D01*
X186076676Y-126644155D01*
X186071847Y-126647190D01*
X186073793Y-126652199D01*
X186081125Y-126654929D01*
X186085156Y-126655081D01*
X186087529Y-126656707D01*
X186081218Y-126662096D01*
X186076411Y-126666225D01*
X186076468Y-126670346D01*
X186085458Y-126675226D01*
X186086753Y-126675777D01*
X186102035Y-126679735D01*
X186119506Y-126681356D01*
X186134287Y-126681919D01*
X186149581Y-126684681D01*
X186155779Y-126689262D01*
X186152367Y-126695122D01*
X186138831Y-126701721D01*
X186126187Y-126706994D01*
X186114694Y-126715181D01*
X186114665Y-126715202D01*
X186113723Y-126723224D01*
X186123325Y-126731124D01*
X186130303Y-126735110D01*
X186134000Y-126739333D01*
X186129415Y-126742529D01*
X186122134Y-126743472D01*
X186109817Y-126740279D01*
X186103482Y-126737179D01*
X186095819Y-126734798D01*
X186095428Y-126736757D01*
X186103733Y-126742529D01*
X186111133Y-126745444D01*
X186128149Y-126748896D01*
X186147617Y-126750320D01*
X186163098Y-126750655D01*
X186173183Y-126752194D01*
X186177372Y-126755979D01*
X186178204Y-126763069D01*
X186178043Y-126767152D01*
X186177706Y-126767796D01*
X186174790Y-126773367D01*
X186164905Y-126773088D01*
X186156024Y-126772810D01*
X186151607Y-126776171D01*
X186151625Y-126776882D01*
X186154823Y-126783294D01*
X186164828Y-126786973D01*
X186183517Y-126788654D01*
X186195560Y-126789740D01*
X186205257Y-126793738D01*
X186210590Y-126802279D01*
X186212402Y-126807224D01*
X186215054Y-126818423D01*
X186211756Y-126822058D01*
X186201795Y-126819528D01*
X186192767Y-126816519D01*
X186183193Y-126814675D01*
X186179896Y-126815885D01*
X186184853Y-126820086D01*
X186191015Y-126825624D01*
X186193949Y-126835492D01*
X186188902Y-126843561D01*
X186186251Y-126844284D01*
X186175411Y-126842170D01*
X186161419Y-126835951D01*
X186147938Y-126827454D01*
X186138630Y-126818504D01*
X186134489Y-126812875D01*
X186130857Y-126811583D01*
X186127662Y-126819684D01*
X186123241Y-126827301D01*
X186113846Y-126828620D01*
X186107639Y-126828391D01*
X186098696Y-126834783D01*
X186097373Y-126836946D01*
X186091813Y-126840772D01*
X186082750Y-126836903D01*
X186074862Y-126833283D01*
X186071816Y-126836142D01*
X186070668Y-126838759D01*
X186063837Y-126839014D01*
X186058772Y-126838599D01*
X186055858Y-126845423D01*
X186055583Y-126847325D01*
X186053104Y-126851531D01*
X186049797Y-126857142D01*
X186038867Y-126867457D01*
X186021876Y-126880019D01*
X186050627Y-126889792D01*
X186055278Y-126891416D01*
X186072235Y-126898224D01*
X186083576Y-126904211D01*
X186087827Y-126908468D01*
X186083519Y-126910089D01*
X186081327Y-126911081D01*
X186078682Y-126912278D01*
X186077208Y-126919667D01*
X186080573Y-126928334D01*
X186087997Y-126934097D01*
X186094997Y-126938260D01*
X186095338Y-126942657D01*
X186095711Y-126947458D01*
X186095672Y-126947586D01*
X186097150Y-126958176D01*
X186106543Y-126966869D01*
X186121160Y-126972097D01*
X186138314Y-126972292D01*
X186138723Y-126972227D01*
X186151412Y-126971640D01*
X186159000Y-126973658D01*
X186159656Y-126977103D01*
X186151547Y-126980798D01*
X186145736Y-126982865D01*
X186141353Y-126988094D01*
X186146585Y-126993779D01*
X186160880Y-126998851D01*
X186169899Y-127001845D01*
X186179535Y-127007867D01*
X186183468Y-127013886D01*
X186180695Y-127017867D01*
X186170212Y-127017776D01*
X186162861Y-127016727D01*
X186158412Y-127019239D01*
X186159893Y-127029103D01*
X186160369Y-127031107D01*
X186160701Y-127040468D01*
X186155157Y-127043074D01*
X186151282Y-127042551D01*
X186143628Y-127037754D01*
X186140313Y-127034059D01*
X186133570Y-127033266D01*
X186130330Y-127040414D01*
X186128580Y-127046848D01*
X186122384Y-127047905D01*
X186113590Y-127041793D01*
X186104189Y-127029355D01*
X186096041Y-127018428D01*
X186087725Y-127013136D01*
X186084906Y-127014542D01*
X186082288Y-127015848D01*
X186081543Y-127026771D01*
X186081987Y-127030660D01*
X186080117Y-127036313D01*
X186071429Y-127034972D01*
X186068075Y-127033984D01*
X186062108Y-127034065D01*
X186063139Y-127040513D01*
X186064382Y-127045621D01*
X186060831Y-127048046D01*
X186049316Y-127046654D01*
X186033943Y-127043489D01*
X186019873Y-127039980D01*
X186017177Y-127039245D01*
X186010540Y-127039165D01*
X186011134Y-127045092D01*
X186016114Y-127050526D01*
X186027303Y-127053712D01*
X186036465Y-127055788D01*
X186044967Y-127066347D01*
X186052838Y-127076593D01*
X186068988Y-127082586D01*
X186082113Y-127085769D01*
X186107197Y-127094565D01*
X186131425Y-127105801D01*
X186149975Y-127117403D01*
X186163201Y-127127806D01*
X186149344Y-127140648D01*
X186140111Y-127151941D01*
X186139076Y-127162840D01*
X186140235Y-127169116D01*
X186135167Y-127169150D01*
X186133232Y-127168401D01*
X186121629Y-127164297D01*
X186106392Y-127159227D01*
X186103688Y-127158277D01*
X186085671Y-127149144D01*
X186070666Y-127137604D01*
X186063348Y-127130364D01*
X186055189Y-127124056D01*
X186051441Y-127125462D01*
X186050539Y-127134327D01*
X186050401Y-127139215D01*
X186048219Y-127142722D01*
X186041230Y-127137717D01*
X186037536Y-127134977D01*
X186025291Y-127129196D01*
X186012125Y-127125951D01*
X186001564Y-127125886D01*
X185997132Y-127129646D01*
X185997099Y-127130067D01*
X185994564Y-127129956D01*
X185989314Y-127122165D01*
X185983579Y-127113666D01*
X185975131Y-127106050D01*
X185968263Y-127104313D01*
X185965429Y-127109733D01*
X185964009Y-127115191D01*
X185957367Y-127118242D01*
X185942822Y-127118967D01*
X185937929Y-127119272D01*
X185933513Y-127121085D01*
X185935514Y-127126895D01*
X185944108Y-127138505D01*
X185957210Y-127151570D01*
X185964338Y-127157137D01*
X185972331Y-127163379D01*
X185977671Y-127167063D01*
X185997091Y-127181510D01*
X186014649Y-127195844D01*
X186019882Y-127200288D01*
X186032376Y-127208666D01*
X186045578Y-127212425D01*
X186064422Y-127213294D01*
X186067969Y-127213307D01*
X186083613Y-127214079D01*
X186090798Y-127216401D01*
X186091357Y-127220785D01*
X186092281Y-127226064D01*
X186100272Y-127231083D01*
X186112618Y-127233308D01*
X186125846Y-127231646D01*
X186135711Y-127230319D01*
X186150384Y-127231796D01*
X186154003Y-127232781D01*
X186160070Y-127236029D01*
X186156803Y-127239967D01*
X186153419Y-127242937D01*
X186152951Y-127248327D01*
X186156440Y-127250400D01*
X186169229Y-127252945D01*
X186185980Y-127253222D01*
X186202379Y-127251305D01*
X186214110Y-127247270D01*
X186219552Y-127243976D01*
X186224919Y-127242594D01*
X186226078Y-127247747D01*
X186228005Y-127252465D01*
X186236717Y-127255848D01*
X186242926Y-127256238D01*
X186246561Y-127259014D01*
X186242846Y-127265743D01*
X186231423Y-127277919D01*
X186230141Y-127279170D01*
X186215925Y-127289528D01*
X186203496Y-127292879D01*
X186186023Y-127291951D01*
X186173888Y-127293263D01*
X186168785Y-127297834D01*
X186168867Y-127306383D01*
X186169698Y-127312536D01*
X186167046Y-127318394D01*
X186156632Y-127319681D01*
X186146001Y-127321428D01*
X186139686Y-127326187D01*
X186138471Y-127327653D01*
X186130716Y-127325886D01*
X186116635Y-127316318D01*
X186099081Y-127303183D01*
X186082895Y-127293264D01*
X186071856Y-127289971D01*
X186064716Y-127292738D01*
X186062760Y-127295471D01*
X186062868Y-127304840D01*
X186066214Y-127309042D01*
X186069924Y-127313702D01*
X186081747Y-127318731D01*
X186088356Y-127320763D01*
X186090572Y-127324778D01*
X186090445Y-127328363D01*
X186094849Y-127334373D01*
X186095812Y-127335688D01*
X186101687Y-127341742D01*
X186102247Y-127349022D01*
X186092391Y-127354480D01*
X186090742Y-127355023D01*
X186084794Y-127358545D01*
X186088402Y-127362736D01*
X186094291Y-127365296D01*
X186107153Y-127367474D01*
X186114423Y-127369048D01*
X186121614Y-127375534D01*
X186127206Y-127380819D01*
X186138793Y-127383513D01*
X186144507Y-127383679D01*
X186149504Y-127385731D01*
X186146288Y-127391492D01*
X186145526Y-127392294D01*
X186135065Y-127397444D01*
X186120369Y-127399641D01*
X186117424Y-127399672D01*
X186106966Y-127400276D01*
X186105514Y-127402561D01*
X186111686Y-127407830D01*
X186115406Y-127410789D01*
X186116814Y-127412896D01*
X186119018Y-127416193D01*
X186114345Y-127420878D01*
X186113884Y-127421153D01*
X186102776Y-127424649D01*
X186087775Y-127426324D01*
X186085172Y-127426385D01*
X186074968Y-127426952D01*
X186074361Y-127428556D01*
X186082455Y-127432184D01*
X186095205Y-127434776D01*
X186114941Y-127435045D01*
X186135958Y-127432801D01*
X186153551Y-127428301D01*
X186156765Y-127427177D01*
X186161271Y-127427942D01*
X186159709Y-127436320D01*
X186159034Y-127438584D01*
X186159004Y-127440434D01*
X186158912Y-127445993D01*
X186165744Y-127447151D01*
X186171250Y-127446671D01*
X186180134Y-127447195D01*
X186178913Y-127450762D01*
X186167638Y-127457664D01*
X186149094Y-127467537D01*
X186171405Y-127473544D01*
X186179488Y-127475992D01*
X186189445Y-127481253D01*
X186190711Y-127487386D01*
X186190205Y-127491930D01*
X186196253Y-127495220D01*
X186200455Y-127494529D01*
X186204801Y-127489901D01*
X186206037Y-127488236D01*
X186214835Y-127485615D01*
X186229307Y-127484581D01*
X186231163Y-127484586D01*
X186245128Y-127485314D01*
X186250853Y-127487903D01*
X186250493Y-127493235D01*
X186249760Y-127496167D01*
X186251463Y-127505841D01*
X186257267Y-127512809D01*
X186264428Y-127513149D01*
X186267164Y-127513149D01*
X186267261Y-127514584D01*
X186267616Y-127519857D01*
X186264720Y-127525816D01*
X186257073Y-127528440D01*
X186241860Y-127528223D01*
X186228027Y-127527790D01*
X186222657Y-127529310D01*
X186224771Y-127533276D01*
X186228334Y-127537466D01*
X186231190Y-127545180D01*
X186226879Y-127548414D01*
X186223436Y-127547236D01*
X186212921Y-127541483D01*
X186198952Y-127532553D01*
X186184524Y-127523149D01*
X186173971Y-127517661D01*
X186169811Y-127518225D01*
X186170725Y-127523145D01*
X186170984Y-127524537D01*
X186171597Y-127529699D01*
X186165498Y-127529287D01*
X186162697Y-127528353D01*
X186156927Y-127528626D01*
X186157607Y-127533077D01*
X186163570Y-127539407D01*
X186173648Y-127545320D01*
X186184194Y-127550285D01*
X186186113Y-127553828D01*
X186180297Y-127558018D01*
X186176144Y-127560698D01*
X186174258Y-127564918D01*
X186178211Y-127571668D01*
X186188843Y-127583446D01*
X186197646Y-127593357D01*
X186201037Y-127599261D01*
X186196822Y-127599063D01*
X186178799Y-127593329D01*
X186166676Y-127592135D01*
X186162246Y-127595668D01*
X186162873Y-127598094D01*
X186169400Y-127601608D01*
X186176945Y-127604642D01*
X186186688Y-127613008D01*
X186186699Y-127613020D01*
X186198542Y-127624109D01*
X186212780Y-127634763D01*
X186228738Y-127645117D01*
X186214453Y-127642784D01*
X186203445Y-127642292D01*
X186193333Y-127644675D01*
X186192829Y-127644947D01*
X186183143Y-127644645D01*
X186169429Y-127638351D01*
X186166569Y-127636594D01*
X186156549Y-127631226D01*
X186151212Y-127631510D01*
X186147057Y-127637279D01*
X186142824Y-127643030D01*
X186137777Y-127642271D01*
X186128624Y-127634420D01*
X186117989Y-127626754D01*
X186111899Y-127627901D01*
X186111358Y-127632567D01*
X186115177Y-127643673D01*
X186115801Y-127644732D01*
X186122573Y-127656231D01*
X186131208Y-127666505D01*
X186138742Y-127670759D01*
X186143095Y-127671693D01*
X186146080Y-127677293D01*
X186140968Y-127684058D01*
X186138515Y-127685888D01*
X186135635Y-127693634D01*
X186137472Y-127696027D01*
X186141699Y-127701535D01*
X186155597Y-127707789D01*
X186158442Y-127708603D01*
X186173090Y-127713554D01*
X186182875Y-127718038D01*
X186183303Y-127718325D01*
X186187384Y-127725212D01*
X186183923Y-127730909D01*
X186175374Y-127731131D01*
X186168856Y-127730682D01*
X186168765Y-127736945D01*
X186175855Y-127749380D01*
X186180483Y-127756837D01*
X186179515Y-127762107D01*
X186169808Y-127766667D01*
X186165010Y-127768325D01*
X186155493Y-127768769D01*
X186148409Y-127762035D01*
X186141644Y-127755830D01*
X186127859Y-127754531D01*
X186117651Y-127754701D01*
X186114371Y-127749008D01*
X186112149Y-127743798D01*
X186102841Y-127743923D01*
X186101184Y-127744360D01*
X186095058Y-127746759D01*
X186096336Y-127750523D01*
X186105501Y-127758253D01*
X186111357Y-127763144D01*
X186118568Y-127771467D01*
X186116391Y-127775863D01*
X186104797Y-127777147D01*
X186093472Y-127778545D01*
X186084445Y-127782604D01*
X186080513Y-127783889D01*
X186070701Y-127779571D01*
X186058304Y-127768598D01*
X186045220Y-127752429D01*
X186043859Y-127750657D01*
X186031963Y-127742610D01*
X186012146Y-127738484D01*
X186003103Y-127737637D01*
X185992934Y-127737523D01*
X185990080Y-127740036D01*
X185992426Y-127745979D01*
X185994998Y-127749602D01*
X186004239Y-127758601D01*
X186005477Y-127759807D01*
X186019533Y-127770402D01*
X186040437Y-127784236D01*
X186041267Y-127784785D01*
X186023296Y-127789753D01*
X186005324Y-127794721D01*
X186022882Y-127798616D01*
X186027688Y-127799732D01*
X186040490Y-127804028D01*
X186044331Y-127809110D01*
X186040522Y-127816292D01*
X186037315Y-127822657D01*
X186042859Y-127827060D01*
X186047531Y-127828609D01*
X186064663Y-127829587D01*
X186077136Y-127822362D01*
X186083609Y-127816914D01*
X186093416Y-127814137D01*
X186100833Y-127816789D01*
X186102311Y-127824562D01*
X186102497Y-127832248D01*
X186111000Y-127838339D01*
X186111579Y-127838525D01*
X186116720Y-127841090D01*
X186113583Y-127843623D01*
X186101073Y-127847089D01*
X186098459Y-127847680D01*
X186079460Y-127850288D01*
X186062508Y-127850338D01*
X186056109Y-127849831D01*
X186046743Y-127850889D01*
X186047444Y-127854877D01*
X186058420Y-127861244D01*
X186066038Y-127863443D01*
X186086179Y-127865043D01*
X186114273Y-127863969D01*
X186122636Y-127863372D01*
X186142513Y-127862671D01*
X186153530Y-127863824D01*
X186156926Y-127866919D01*
X186153331Y-127872499D01*
X186143308Y-127878337D01*
X186140164Y-127879651D01*
X186132646Y-127885334D01*
X186134084Y-127890081D01*
X186143123Y-127892673D01*
X186158406Y-127891894D01*
X186159952Y-127891649D01*
X186172228Y-127890205D01*
X186176070Y-127891593D01*
X186173282Y-127896354D01*
X186170117Y-127898992D01*
X186160891Y-127901942D01*
X186145048Y-127903258D01*
X186120607Y-127903196D01*
X186103934Y-127903075D01*
X186081161Y-127904206D01*
X186067351Y-127906932D01*
X186063041Y-127911115D01*
X186068769Y-127916616D01*
X186075556Y-127922747D01*
X186082700Y-127934712D01*
X186084916Y-127939931D01*
X186090113Y-127944800D01*
X186098934Y-127941769D01*
X186106292Y-127938942D01*
X186115332Y-127940880D01*
X186115826Y-127945332D01*
X186106782Y-127949453D01*
X186097636Y-127953610D01*
X186093094Y-127960115D01*
X186092670Y-127964844D01*
X186086996Y-127973270D01*
X186075640Y-127973662D01*
X186059788Y-127965816D01*
X186055707Y-127963261D01*
X186038875Y-127955720D01*
X186023764Y-127952686D01*
X186015821Y-127951725D01*
X186004901Y-127946894D01*
X185991314Y-127936746D01*
X185972925Y-127919906D01*
X185965501Y-127912920D01*
X185951170Y-127900331D01*
X185940598Y-127892275D01*
X185935664Y-127890248D01*
X185933742Y-127890856D01*
X185923902Y-127889956D01*
X185909421Y-127886414D01*
X185906119Y-127885432D01*
X185893069Y-127882266D01*
X185886420Y-127882967D01*
X185883145Y-127887678D01*
X185882548Y-127892642D01*
X185881922Y-127907535D01*
X185881427Y-127931010D01*
X185881059Y-127961922D01*
X185880811Y-127999128D01*
X185880679Y-128041484D01*
X185880657Y-128087847D01*
X185880740Y-128137073D01*
X185880922Y-128188017D01*
X185881198Y-128239537D01*
X185881564Y-128290488D01*
X185882012Y-128339727D01*
X185882539Y-128386110D01*
X185883139Y-128428494D01*
X185883806Y-128465734D01*
X185884536Y-128496687D01*
X185885322Y-128520210D01*
X185886160Y-128535157D01*
X185888935Y-128561648D01*
X185894205Y-128597625D01*
X185900830Y-128632591D01*
X185908288Y-128664145D01*
X185916056Y-128689886D01*
X185923613Y-128707415D01*
X185933989Y-128725411D01*
X185878872Y-128722960D01*
X185862344Y-128722036D01*
X185840751Y-128720207D01*
X185824542Y-128718072D01*
X185816342Y-128715927D01*
X185813825Y-128715023D01*
X185801705Y-128713412D01*
X185783086Y-128712585D01*
X185760844Y-128712710D01*
X185751764Y-128712870D01*
X185729237Y-128712450D01*
X185710697Y-128711000D01*
X185699460Y-128708734D01*
X185698920Y-128708517D01*
X185690683Y-128704914D01*
X185691724Y-128703488D01*
X185702724Y-128703055D01*
X185711069Y-128702223D01*
X185718317Y-128698310D01*
X185724863Y-128689044D01*
X185732951Y-128672131D01*
X185738739Y-128658257D01*
X185746750Y-128636156D01*
X185752177Y-128617608D01*
X185752920Y-128613199D01*
X185754665Y-128597467D01*
X185756843Y-128572768D01*
X185759385Y-128540177D01*
X185762224Y-128500767D01*
X185765293Y-128455614D01*
X185768525Y-128405791D01*
X185771850Y-128352373D01*
X185775203Y-128296433D01*
X185778514Y-128239047D01*
X185781717Y-128181288D01*
X185784745Y-128124231D01*
X185787529Y-128068950D01*
X185790001Y-128016519D01*
X185790727Y-128000950D01*
X185792488Y-127966342D01*
X185794269Y-127935253D01*
X185795955Y-127909460D01*
X185797435Y-127890741D01*
X185798596Y-127880875D01*
X185801769Y-127864917D01*
X185787362Y-127878215D01*
X185787131Y-127878428D01*
X185771720Y-127895058D01*
X185765656Y-127908039D01*
X185768599Y-127918094D01*
X185770149Y-127920271D01*
X185770090Y-127926664D01*
X185761310Y-127934114D01*
X185752678Y-127942264D01*
X185750593Y-127949668D01*
X185750691Y-127949961D01*
X185747689Y-127956651D01*
X185736838Y-127963266D01*
X185734391Y-127964325D01*
X185724430Y-127971180D01*
X185723420Y-127979355D01*
X185723798Y-127985308D01*
X185716907Y-127992426D01*
X185705444Y-127995197D01*
X185689791Y-127996763D01*
X185673808Y-127996981D01*
X185661116Y-127995807D01*
X185655337Y-127993195D01*
X185655077Y-127992726D01*
X185649225Y-127992771D01*
X185638871Y-127998008D01*
X185637231Y-127999011D01*
X185620936Y-128005331D01*
X185602871Y-128008133D01*
X185601152Y-128008162D01*
X185588552Y-128007604D01*
X185583676Y-128004400D01*
X185583905Y-127997017D01*
X185583537Y-127988579D01*
X185574962Y-127980331D01*
X185568406Y-127976942D01*
X185568652Y-127974334D01*
X185578445Y-127971330D01*
X185579172Y-127971138D01*
X185590412Y-127967046D01*
X185591737Y-127962232D01*
X185583764Y-127954772D01*
X185582222Y-127953569D01*
X185579111Y-127949750D01*
X185583543Y-127948019D01*
X185597062Y-127947536D01*
X185603013Y-127947303D01*
X185614931Y-127945332D01*
X185619670Y-127942047D01*
X185619273Y-127940206D01*
X185613287Y-127936728D01*
X185609729Y-127935760D01*
X185612941Y-127930690D01*
X185616157Y-127928492D01*
X185626035Y-127927453D01*
X185642957Y-127930690D01*
X185658440Y-127934379D01*
X185670795Y-127936343D01*
X185676683Y-127935226D01*
X185678183Y-127931050D01*
X185676111Y-127928240D01*
X185667544Y-127928749D01*
X185661047Y-127929705D01*
X185656905Y-127926448D01*
X185657372Y-127924352D01*
X185663555Y-127920601D01*
X185665450Y-127918508D01*
X185659953Y-127912677D01*
X185654570Y-127907904D01*
X185652869Y-127902540D01*
X185660088Y-127901141D01*
X185675477Y-127904120D01*
X185691307Y-127906708D01*
X185707556Y-127904767D01*
X185711278Y-127903466D01*
X185718789Y-127903366D01*
X185721732Y-127910767D01*
X185722967Y-127915441D01*
X185726369Y-127916740D01*
X185733670Y-127912305D01*
X185746836Y-127901402D01*
X185755222Y-127893619D01*
X185772051Y-127875262D01*
X185785402Y-127857430D01*
X185790163Y-127849546D01*
X185796692Y-127835087D01*
X185799762Y-127819229D01*
X185800528Y-127797383D01*
X185800525Y-127795829D01*
X185824450Y-127795829D01*
X185826633Y-127805379D01*
X185831181Y-127805961D01*
X185835329Y-127796762D01*
X185837310Y-127784236D01*
X185836199Y-127776318D01*
X185832620Y-127775946D01*
X185827562Y-127784662D01*
X185824450Y-127795829D01*
X185800525Y-127795829D01*
X185800518Y-127791294D01*
X185800084Y-127774611D01*
X185798425Y-127765593D01*
X185794750Y-127761900D01*
X185788263Y-127761189D01*
X185786097Y-127761027D01*
X185772931Y-127756732D01*
X185758694Y-127748422D01*
X185748103Y-127740608D01*
X185914652Y-127740608D01*
X185915858Y-127743635D01*
X185925534Y-127750550D01*
X185935717Y-127756782D01*
X185945011Y-127760678D01*
X185947223Y-127758601D01*
X185941492Y-127750550D01*
X185932640Y-127743698D01*
X185920720Y-127739946D01*
X185914652Y-127740608D01*
X185748103Y-127740608D01*
X185741389Y-127735655D01*
X185768350Y-127726700D01*
X185777129Y-127723508D01*
X185794311Y-127713831D01*
X185803247Y-127701033D01*
X185805679Y-127683078D01*
X185805586Y-127674743D01*
X185880691Y-127674743D01*
X185881475Y-127689758D01*
X185885876Y-127698499D01*
X185896013Y-127705199D01*
X185907220Y-127710375D01*
X185921864Y-127713563D01*
X185930097Y-127708831D01*
X185932529Y-127696027D01*
X185931356Y-127687094D01*
X185924590Y-127672888D01*
X185910387Y-127656017D01*
X185900760Y-127646570D01*
X185891773Y-127640452D01*
X186036790Y-127640452D01*
X186040784Y-127644821D01*
X186041982Y-127645529D01*
X186052567Y-127648924D01*
X186062256Y-127648653D01*
X186066497Y-127644732D01*
X186062964Y-127639255D01*
X186053253Y-127635918D01*
X186042114Y-127637091D01*
X186036790Y-127640452D01*
X185891773Y-127640452D01*
X185890852Y-127639825D01*
X185884854Y-127641844D01*
X185882723Y-127649772D01*
X185881792Y-127653237D01*
X185880693Y-127674612D01*
X185880691Y-127674743D01*
X185805586Y-127674743D01*
X185805511Y-127668100D01*
X185794808Y-127682438D01*
X185781888Y-127695871D01*
X185760082Y-127711092D01*
X185736696Y-127721394D01*
X185728887Y-127723530D01*
X185726672Y-127722302D01*
X185732706Y-127714932D01*
X185739302Y-127706760D01*
X185741249Y-127700963D01*
X185734862Y-127701673D01*
X185720216Y-127708927D01*
X185714516Y-127712445D01*
X185700327Y-127723867D01*
X185691282Y-127734978D01*
X185682218Y-127745684D01*
X185667980Y-127748777D01*
X185651814Y-127748777D01*
X185662339Y-127731748D01*
X185664013Y-127728996D01*
X185670313Y-127717671D01*
X185672864Y-127711357D01*
X185672310Y-127709685D01*
X185665988Y-127707945D01*
X185656012Y-127710129D01*
X185646686Y-127715547D01*
X185644864Y-127717091D01*
X185633378Y-127725169D01*
X185617804Y-127734632D01*
X185600764Y-127744075D01*
X185584880Y-127752093D01*
X185572772Y-127757279D01*
X185567063Y-127758230D01*
X185567054Y-127754801D01*
X185573134Y-127748199D01*
X185578736Y-127743435D01*
X185582909Y-127736047D01*
X185578527Y-127733275D01*
X185566740Y-127737115D01*
X185556646Y-127741880D01*
X185545859Y-127745009D01*
X185542666Y-127742545D01*
X185547858Y-127734592D01*
X185553477Y-127728038D01*
X185553806Y-127724524D01*
X185546023Y-127723953D01*
X185539044Y-127722719D01*
X185534560Y-127718022D01*
X185531125Y-127715987D01*
X185521449Y-127720682D01*
X185509157Y-127727447D01*
X185500212Y-127728164D01*
X185497324Y-127720724D01*
X185496320Y-127716568D01*
X185490347Y-127714854D01*
X185481680Y-127713842D01*
X185470399Y-127707562D01*
X185457429Y-127697593D01*
X185473387Y-127696672D01*
X185487062Y-127696334D01*
X185503486Y-127696829D01*
X185504301Y-127696877D01*
X185519391Y-127695244D01*
X185535744Y-127690337D01*
X185536023Y-127690220D01*
X185547812Y-127684153D01*
X185552129Y-127676723D01*
X185551936Y-127671833D01*
X185587747Y-127671833D01*
X185589589Y-127678509D01*
X185589847Y-127679161D01*
X185595007Y-127685817D01*
X185602700Y-127683984D01*
X185614411Y-127673355D01*
X185626965Y-127659992D01*
X185608689Y-127663480D01*
X185600107Y-127665178D01*
X185590471Y-127668004D01*
X185587747Y-127671833D01*
X185551936Y-127671833D01*
X185551607Y-127663465D01*
X185551096Y-127653282D01*
X185554263Y-127645399D01*
X185563422Y-127644439D01*
X185580166Y-127649631D01*
X185586635Y-127651747D01*
X185596175Y-127652347D01*
X185597232Y-127647684D01*
X185596081Y-127646442D01*
X185662225Y-127646442D01*
X185663938Y-127656185D01*
X185668903Y-127659992D01*
X185669066Y-127660117D01*
X185675548Y-127654761D01*
X185675836Y-127649772D01*
X185670543Y-127641082D01*
X185666352Y-127637210D01*
X185662913Y-127637182D01*
X185662225Y-127646442D01*
X185596081Y-127646442D01*
X185588978Y-127638777D01*
X185581840Y-127632594D01*
X185580558Y-127628618D01*
X185586946Y-127625801D01*
X185597239Y-127625069D01*
X185611334Y-127628069D01*
X185612585Y-127628533D01*
X185630773Y-127632887D01*
X185645916Y-127632487D01*
X185654754Y-127627383D01*
X185656057Y-127624255D01*
X185651983Y-127625300D01*
X185646060Y-127625639D01*
X185637561Y-127618142D01*
X185630457Y-127610895D01*
X185620698Y-127606553D01*
X185618634Y-127606434D01*
X185615639Y-127605121D01*
X185622330Y-127601608D01*
X185622437Y-127601562D01*
X185633108Y-127599228D01*
X185650613Y-127597469D01*
X185671220Y-127596662D01*
X185689488Y-127595907D01*
X185705823Y-127593570D01*
X185713387Y-127589953D01*
X185714475Y-127586871D01*
X185711041Y-127581531D01*
X185705014Y-127578328D01*
X185705505Y-127574193D01*
X185713949Y-127570982D01*
X185728849Y-127569691D01*
X185730544Y-127569687D01*
X185745290Y-127568675D01*
X185753264Y-127564780D01*
X185757969Y-127556404D01*
X185767120Y-127544590D01*
X185784434Y-127534549D01*
X185785048Y-127534302D01*
X185792427Y-127530680D01*
X186121989Y-127530680D01*
X186127659Y-127534375D01*
X186134617Y-127536896D01*
X186140175Y-127536413D01*
X186146288Y-127529796D01*
X186147205Y-127528668D01*
X186149665Y-127523145D01*
X186142949Y-127521899D01*
X186137278Y-127522496D01*
X186125894Y-127526478D01*
X186121989Y-127530680D01*
X185792427Y-127530680D01*
X185798140Y-127527876D01*
X185805153Y-127522326D01*
X185804986Y-127519034D01*
X185796539Y-127519378D01*
X185793273Y-127519977D01*
X185779714Y-127522083D01*
X185762803Y-127524400D01*
X185756470Y-127525536D01*
X185733499Y-127533307D01*
X185710096Y-127545757D01*
X185705404Y-127548771D01*
X185691542Y-127557161D01*
X185682585Y-127560551D01*
X185675362Y-127559620D01*
X185666700Y-127555048D01*
X185655931Y-127547559D01*
X185652455Y-127541411D01*
X185658998Y-127538501D01*
X185675424Y-127539078D01*
X185680308Y-127539553D01*
X185696601Y-127539070D01*
X185705622Y-127534100D01*
X185714876Y-127525906D01*
X185734974Y-127515444D01*
X185749810Y-127511178D01*
X185816487Y-127511178D01*
X185816719Y-127518001D01*
X185818661Y-127520827D01*
X185824171Y-127516957D01*
X185835104Y-127505859D01*
X185839077Y-127501455D01*
X185844759Y-127493183D01*
X185844079Y-127489901D01*
X185841931Y-127490220D01*
X185837764Y-127495220D01*
X185835769Y-127498312D01*
X185827125Y-127500540D01*
X185820248Y-127502288D01*
X185816487Y-127511178D01*
X185749810Y-127511178D01*
X185759617Y-127508358D01*
X185762178Y-127507816D01*
X185776680Y-127502521D01*
X185786030Y-127495583D01*
X185790895Y-127490273D01*
X185801858Y-127483068D01*
X185809975Y-127477364D01*
X185809571Y-127471372D01*
X185809015Y-127471203D01*
X185912970Y-127471203D01*
X185913104Y-127479756D01*
X185913107Y-127479771D01*
X185919942Y-127492154D01*
X185921317Y-127493183D01*
X185936172Y-127504298D01*
X185953132Y-127512660D01*
X185966147Y-127516374D01*
X185972657Y-127514584D01*
X185971424Y-127507189D01*
X185961978Y-127494281D01*
X185944735Y-127479601D01*
X185926403Y-127470985D01*
X185918035Y-127469305D01*
X185912970Y-127471203D01*
X185809015Y-127471203D01*
X185800528Y-127468623D01*
X185794324Y-127467142D01*
X185789890Y-127460644D01*
X185789613Y-127455780D01*
X185786469Y-127453023D01*
X185777026Y-127455894D01*
X185772923Y-127458431D01*
X185768612Y-127466647D01*
X185765219Y-127472861D01*
X185756174Y-127479611D01*
X185745871Y-127483837D01*
X185738753Y-127483092D01*
X185738369Y-127482279D01*
X185740411Y-127474864D01*
X185747117Y-127463610D01*
X185749365Y-127460296D01*
X185754109Y-127451057D01*
X185753379Y-127447346D01*
X185752744Y-127447434D01*
X185745845Y-127452388D01*
X185737196Y-127462601D01*
X185724579Y-127475258D01*
X185708907Y-127484729D01*
X185706071Y-127485921D01*
X185689308Y-127494679D01*
X185672864Y-127505361D01*
X185667832Y-127508924D01*
X185656539Y-127515702D01*
X185650096Y-127517756D01*
X185649856Y-127517695D01*
X185642256Y-127519269D01*
X185630412Y-127524423D01*
X185619463Y-127528885D01*
X185607902Y-127531778D01*
X185598765Y-127532643D01*
X185594671Y-127531245D01*
X185598238Y-127527344D01*
X185602878Y-127523328D01*
X185602586Y-127519066D01*
X185595738Y-127517917D01*
X185584740Y-127521011D01*
X185577061Y-127524217D01*
X185573001Y-127523698D01*
X185574437Y-127516555D01*
X185574685Y-127515750D01*
X185574701Y-127507892D01*
X185566521Y-127505859D01*
X185559916Y-127507027D01*
X185558865Y-127511773D01*
X185558956Y-127517505D01*
X185552470Y-127524050D01*
X185542063Y-127527055D01*
X185536573Y-127523632D01*
X185530238Y-127513903D01*
X185527607Y-127507463D01*
X185528014Y-127501201D01*
X185536034Y-127498279D01*
X185540692Y-127497332D01*
X185559739Y-127493211D01*
X185570775Y-127490078D01*
X185575876Y-127487203D01*
X185577115Y-127483860D01*
X185573856Y-127480557D01*
X185563508Y-127480623D01*
X185561909Y-127480912D01*
X185553328Y-127480889D01*
X185552869Y-127475924D01*
X185553991Y-127473166D01*
X185558556Y-127461974D01*
X185556775Y-127457072D01*
X185545199Y-127455325D01*
X185534048Y-127456876D01*
X185531674Y-127461974D01*
X185530472Y-127466580D01*
X185520443Y-127468623D01*
X185515189Y-127468478D01*
X185510055Y-127466463D01*
X185513230Y-127460707D01*
X185513272Y-127460657D01*
X185516824Y-127453686D01*
X185511222Y-127449499D01*
X185506958Y-127446877D01*
X185502644Y-127438798D01*
X185504637Y-127436135D01*
X185514359Y-127433054D01*
X185529222Y-127431427D01*
X185545911Y-127431369D01*
X185561111Y-127432995D01*
X185571509Y-127436417D01*
X185577679Y-127438237D01*
X185587426Y-127436657D01*
X185594758Y-127431908D01*
X185595231Y-127428339D01*
X185616143Y-127428339D01*
X185621994Y-127435657D01*
X185631303Y-127443287D01*
X185639630Y-127444907D01*
X185644429Y-127445018D01*
X185643596Y-127452699D01*
X185643564Y-127452801D01*
X185641767Y-127461634D01*
X185645066Y-127461696D01*
X185653942Y-127453000D01*
X185655770Y-127450835D01*
X185660224Y-127440434D01*
X185655662Y-127434386D01*
X185643212Y-127434622D01*
X185634014Y-127435312D01*
X185620931Y-127430744D01*
X185617456Y-127428185D01*
X185616143Y-127428339D01*
X185595231Y-127428339D01*
X185595568Y-127425801D01*
X185593451Y-127423648D01*
X185584939Y-127420971D01*
X185575961Y-127421926D01*
X185571795Y-127426382D01*
X185571378Y-127428306D01*
X185566476Y-127428728D01*
X185564071Y-127426310D01*
X185561157Y-127416864D01*
X185559598Y-127410118D01*
X185557901Y-127407331D01*
X185685887Y-127407331D01*
X185686557Y-127417200D01*
X185688865Y-127421806D01*
X185693380Y-127425648D01*
X185705363Y-127421168D01*
X185710099Y-127412896D01*
X185710094Y-127412628D01*
X185705519Y-127405142D01*
X185696197Y-127401405D01*
X185687758Y-127403727D01*
X185685887Y-127407331D01*
X185557901Y-127407331D01*
X185552989Y-127399263D01*
X185548552Y-127393193D01*
X185550982Y-127389578D01*
X185562298Y-127386613D01*
X185579775Y-127382987D01*
X185567546Y-127372878D01*
X185557143Y-127366581D01*
X185548593Y-127365350D01*
X185541476Y-127364239D01*
X185532070Y-127357104D01*
X185529101Y-127353778D01*
X185525826Y-127348533D01*
X185529930Y-127346543D01*
X185543044Y-127346188D01*
X185563816Y-127346099D01*
X185545199Y-127334220D01*
X185526581Y-127322341D01*
X185590413Y-127317021D01*
X185569136Y-127304782D01*
X185565005Y-127302406D01*
X185892580Y-127302406D01*
X185895620Y-127319587D01*
X185904035Y-127336654D01*
X185919919Y-127353671D01*
X185927388Y-127358805D01*
X185938277Y-127362817D01*
X185943167Y-127358559D01*
X185941477Y-127346230D01*
X185940834Y-127338212D01*
X185947517Y-127335639D01*
X185953597Y-127334373D01*
X185950535Y-127329256D01*
X185947071Y-127324017D01*
X185944152Y-127311850D01*
X185943355Y-127309042D01*
X186013303Y-127309042D01*
X186013305Y-127309108D01*
X186018057Y-127312821D01*
X186029261Y-127314362D01*
X186029460Y-127314361D01*
X186040597Y-127312777D01*
X186045220Y-127309042D01*
X186044999Y-127307573D01*
X186039566Y-127303723D01*
X186036682Y-127302260D01*
X186034859Y-127294414D01*
X186035487Y-127281035D01*
X186033693Y-127270612D01*
X186029261Y-127269147D01*
X186025582Y-127275794D01*
X186023942Y-127288079D01*
X186022386Y-127299108D01*
X186018623Y-127303723D01*
X186017351Y-127303877D01*
X186013303Y-127309042D01*
X185943355Y-127309042D01*
X185941575Y-127302765D01*
X185933789Y-127289370D01*
X185923263Y-127275837D01*
X185912526Y-127265369D01*
X185904110Y-127261168D01*
X185901093Y-127262171D01*
X185895767Y-127270598D01*
X185892779Y-127285043D01*
X185892580Y-127302406D01*
X185565005Y-127302406D01*
X185547858Y-127292544D01*
X185564940Y-127295299D01*
X185565833Y-127295435D01*
X185578338Y-127295606D01*
X185585372Y-127292634D01*
X185585471Y-127292486D01*
X185592858Y-127289243D01*
X185605526Y-127288819D01*
X185611504Y-127289203D01*
X185619856Y-127287507D01*
X185621591Y-127281116D01*
X185621620Y-127277762D01*
X185625384Y-127272678D01*
X185635552Y-127273371D01*
X185653425Y-127279786D01*
X185667286Y-127285358D01*
X185675029Y-127286682D01*
X185677817Y-127282329D01*
X185678183Y-127271448D01*
X185678372Y-127265587D01*
X185680872Y-127258041D01*
X185687492Y-127257753D01*
X185699020Y-127260597D01*
X185714089Y-127263853D01*
X185723949Y-127265362D01*
X185730031Y-127263510D01*
X185731377Y-127256084D01*
X185731397Y-127254538D01*
X185733483Y-127247894D01*
X185740686Y-127249780D01*
X185742397Y-127250486D01*
X185753817Y-127252393D01*
X185770461Y-127253083D01*
X185789159Y-127252686D01*
X185806741Y-127251333D01*
X185820039Y-127249153D01*
X185825883Y-127246278D01*
X185826071Y-127245598D01*
X185822764Y-127238263D01*
X185809322Y-127231394D01*
X185785494Y-127224858D01*
X185776408Y-127222876D01*
X185760411Y-127219760D01*
X185751689Y-127219195D01*
X185748059Y-127221244D01*
X185747335Y-127225972D01*
X185742952Y-127232602D01*
X185730765Y-127237743D01*
X185713699Y-127239818D01*
X185711964Y-127239761D01*
X185705488Y-127236497D01*
X185706450Y-127229847D01*
X185713692Y-127222088D01*
X185726057Y-127215499D01*
X185735637Y-127211750D01*
X185738549Y-127209269D01*
X185732465Y-127208379D01*
X185731430Y-127208391D01*
X185719159Y-127212441D01*
X185706684Y-127221545D01*
X185704872Y-127223286D01*
X185694452Y-127230961D01*
X185686978Y-127232930D01*
X185682747Y-127232864D01*
X185670391Y-127235610D01*
X185654384Y-127241030D01*
X185644431Y-127244433D01*
X185627325Y-127248372D01*
X185614993Y-127248842D01*
X185614765Y-127248800D01*
X185600993Y-127249967D01*
X185586016Y-127256127D01*
X185582717Y-127258055D01*
X185570065Y-127262745D01*
X185559673Y-127260374D01*
X185553149Y-127255054D01*
X185555266Y-127248972D01*
X185559501Y-127243774D01*
X185559801Y-127236999D01*
X185550518Y-127234571D01*
X185543619Y-127232638D01*
X185539822Y-127225658D01*
X185542463Y-127217293D01*
X185551393Y-127211523D01*
X185553651Y-127210891D01*
X185559584Y-127207165D01*
X185556454Y-127200738D01*
X185555742Y-127199821D01*
X185554102Y-127191693D01*
X185560969Y-127186403D01*
X185574455Y-127185544D01*
X185576866Y-127185566D01*
X185576004Y-127182997D01*
X185566476Y-127177382D01*
X185566405Y-127177347D01*
X185553037Y-127169024D01*
X185549457Y-127163023D01*
X185554993Y-127159744D01*
X185568970Y-127159588D01*
X185590716Y-127162956D01*
X185603917Y-127163730D01*
X185613975Y-127157893D01*
X185617319Y-127152571D01*
X185616070Y-127150632D01*
X185625676Y-127150632D01*
X185630309Y-127156331D01*
X185636785Y-127160628D01*
X185651042Y-127165562D01*
X185667629Y-127168594D01*
X185682467Y-127169059D01*
X185691481Y-127166293D01*
X185696004Y-127163124D01*
X185707439Y-127158573D01*
X185707774Y-127158488D01*
X185707879Y-127157137D01*
X185699205Y-127156003D01*
X185683502Y-127155325D01*
X185666500Y-127154660D01*
X185647956Y-127153196D01*
X185635628Y-127151351D01*
X185629205Y-127149917D01*
X185625676Y-127150632D01*
X185616070Y-127150632D01*
X185615316Y-127149461D01*
X185613352Y-127149754D01*
X185606124Y-127155180D01*
X185600130Y-127156226D01*
X185589568Y-127148667D01*
X185589413Y-127148521D01*
X185581142Y-127139953D01*
X185580255Y-127134775D01*
X185586114Y-127129439D01*
X185588769Y-127127423D01*
X185592605Y-127122207D01*
X185587754Y-127117545D01*
X185585086Y-127115705D01*
X185583487Y-127111180D01*
X185590439Y-127104626D01*
X185596173Y-127100493D01*
X185604017Y-127097131D01*
X185613121Y-127098302D01*
X185627704Y-127103926D01*
X185629570Y-127104681D01*
X185642445Y-127108142D01*
X185649124Y-127106586D01*
X185655648Y-127103124D01*
X185667858Y-127101587D01*
X185678732Y-127099939D01*
X185683502Y-127093855D01*
X185684154Y-127090190D01*
X185688549Y-127089741D01*
X185699230Y-127095150D01*
X185705705Y-127098343D01*
X185717875Y-127099935D01*
X185723968Y-127093092D01*
X185723115Y-127078419D01*
X185721890Y-127074285D01*
X185715849Y-127066364D01*
X185703552Y-127064351D01*
X185696028Y-127064099D01*
X185691083Y-127061984D01*
X185693995Y-127056548D01*
X185695047Y-127055162D01*
X185696021Y-127049957D01*
X185690238Y-127044455D01*
X185680594Y-127039305D01*
X185749257Y-127039305D01*
X185752654Y-127042625D01*
X185764907Y-127047506D01*
X185788250Y-127050422D01*
X185812497Y-127047367D01*
X185819938Y-127045247D01*
X185828525Y-127040887D01*
X185831874Y-127033074D01*
X185832445Y-127018218D01*
X185832445Y-127017840D01*
X185831969Y-127008096D01*
X185896277Y-127008096D01*
X185897706Y-127018218D01*
X185898133Y-127021242D01*
X185904691Y-127029206D01*
X185910743Y-127031414D01*
X185916000Y-127031455D01*
X185918946Y-127025786D01*
X185919213Y-127014542D01*
X185913719Y-127001590D01*
X185904701Y-126993446D01*
X185901210Y-126992632D01*
X185897314Y-126996137D01*
X185896277Y-127008096D01*
X185831969Y-127008096D01*
X185831732Y-127003253D01*
X185828967Y-126996835D01*
X185823145Y-126996210D01*
X185818261Y-126998324D01*
X185813728Y-127005909D01*
X185813721Y-127006236D01*
X185810988Y-127021326D01*
X185804757Y-127033042D01*
X185796941Y-127037754D01*
X185792677Y-127036615D01*
X185791813Y-127029775D01*
X185792741Y-127025721D01*
X185790374Y-127021796D01*
X185786846Y-127023093D01*
X185779251Y-127029775D01*
X185771768Y-127034914D01*
X185758652Y-127037916D01*
X185755464Y-127037999D01*
X185749257Y-127039305D01*
X185680594Y-127039305D01*
X185676106Y-127036908D01*
X185666117Y-127032207D01*
X185654618Y-127028284D01*
X185645491Y-127028790D01*
X185634376Y-127033352D01*
X185624013Y-127037004D01*
X185608802Y-127037939D01*
X185597500Y-127033565D01*
X185593073Y-127024518D01*
X185591136Y-127019906D01*
X185582445Y-127010170D01*
X185569136Y-126999385D01*
X185559483Y-126992265D01*
X185549193Y-126983665D01*
X185545199Y-126978804D01*
X185546553Y-126977188D01*
X185555324Y-126972810D01*
X185569550Y-126967906D01*
X185576991Y-126965486D01*
X185591237Y-126959503D01*
X185599365Y-126954132D01*
X185604802Y-126950469D01*
X185615155Y-126953075D01*
X185622302Y-126956079D01*
X185641618Y-126961083D01*
X185664919Y-126964730D01*
X185687863Y-126966422D01*
X185706110Y-126965565D01*
X185710375Y-126964799D01*
X185722855Y-126960936D01*
X185725400Y-126957287D01*
X185718502Y-126955208D01*
X185702655Y-126956055D01*
X185701364Y-126956230D01*
X185686709Y-126957342D01*
X185678535Y-126954922D01*
X185673211Y-126947975D01*
X185667197Y-126941140D01*
X185655242Y-126936686D01*
X185647890Y-126935595D01*
X185637189Y-126931183D01*
X185679295Y-126931183D01*
X185683396Y-126939217D01*
X185689039Y-126944554D01*
X185696332Y-126947137D01*
X185699460Y-126942657D01*
X185699024Y-126940498D01*
X185693717Y-126933392D01*
X185685878Y-126928038D01*
X185679956Y-126927821D01*
X185679295Y-126931183D01*
X185637189Y-126931183D01*
X185634907Y-126930242D01*
X185624153Y-126922595D01*
X185620063Y-126915763D01*
X185696801Y-126915763D01*
X185709359Y-126926224D01*
X185712057Y-126928356D01*
X185728612Y-126935769D01*
X185746038Y-126933152D01*
X185748585Y-126931495D01*
X185749495Y-126925239D01*
X185749659Y-126920369D01*
X185756103Y-126912830D01*
X185761440Y-126907364D01*
X185761477Y-126906976D01*
X185779860Y-126906976D01*
X185785454Y-126907849D01*
X185795890Y-126902994D01*
X185807346Y-126893524D01*
X185813145Y-126886152D01*
X185933513Y-126886152D01*
X185934419Y-126889870D01*
X185941333Y-126894131D01*
X185942538Y-126894287D01*
X185951243Y-126899589D01*
X185960951Y-126910089D01*
X185961302Y-126910562D01*
X185973077Y-126922877D01*
X185982370Y-126925269D01*
X185988797Y-126917633D01*
X185991108Y-126911081D01*
X185990815Y-126905782D01*
X185984214Y-126904770D01*
X185980488Y-126903764D01*
X185979315Y-126897179D01*
X185979444Y-126892196D01*
X185972127Y-126892229D01*
X185965301Y-126892272D01*
X185955097Y-126886522D01*
X185954535Y-126885865D01*
X185945188Y-126879246D01*
X185937015Y-126879322D01*
X185933513Y-126886152D01*
X185813145Y-126886152D01*
X185816775Y-126881538D01*
X185818596Y-126878656D01*
X185828916Y-126866726D01*
X185839050Y-126860337D01*
X185845597Y-126857601D01*
X185847081Y-126853801D01*
X185845017Y-126853134D01*
X185835770Y-126855781D01*
X185822472Y-126862751D01*
X185807943Y-126872273D01*
X185795002Y-126882575D01*
X185786470Y-126891885D01*
X185780998Y-126901691D01*
X185780961Y-126901758D01*
X185779860Y-126906976D01*
X185761477Y-126906976D01*
X185761987Y-126901691D01*
X185757024Y-126901270D01*
X185748278Y-126906576D01*
X185747304Y-126907385D01*
X185734402Y-126913170D01*
X185717659Y-126915586D01*
X185696801Y-126915763D01*
X185620063Y-126915763D01*
X185619670Y-126915107D01*
X185620799Y-126912630D01*
X185628269Y-126910089D01*
X185628292Y-126910089D01*
X185634364Y-126907088D01*
X185634326Y-126896791D01*
X185633957Y-126887695D01*
X185639025Y-126883492D01*
X185642017Y-126883003D01*
X185646267Y-126878041D01*
X185649791Y-126873034D01*
X185659732Y-126867471D01*
X185667947Y-126863806D01*
X185670011Y-126858874D01*
X185664731Y-126849429D01*
X185660136Y-126841789D01*
X185659603Y-126835788D01*
X185665893Y-126830982D01*
X185670795Y-126827509D01*
X185669155Y-126824697D01*
X185658235Y-126821894D01*
X185656761Y-126821581D01*
X185645545Y-126818452D01*
X185640947Y-126815771D01*
X185640970Y-126815607D01*
X185642113Y-126814246D01*
X185885638Y-126814246D01*
X185885990Y-126815682D01*
X185890916Y-126824092D01*
X185899797Y-126835671D01*
X185908081Y-126844714D01*
X185914258Y-126848173D01*
X185918372Y-126844608D01*
X185919082Y-126843595D01*
X185928073Y-126839944D01*
X185942043Y-126840854D01*
X185957318Y-126845677D01*
X185970226Y-126853763D01*
X185970272Y-126853801D01*
X185975459Y-126858112D01*
X185983837Y-126861913D01*
X185986706Y-126856896D01*
X185987507Y-126855494D01*
X185995506Y-126852682D01*
X186009314Y-126851553D01*
X186031921Y-126851531D01*
X186007984Y-126835618D01*
X185998547Y-126829840D01*
X185983635Y-126822545D01*
X185973142Y-126819683D01*
X185966302Y-126818753D01*
X185956554Y-126813977D01*
X185955826Y-126813327D01*
X185947082Y-126811545D01*
X185931973Y-126816190D01*
X185930241Y-126816909D01*
X185918171Y-126821076D01*
X185910862Y-126820225D01*
X185903965Y-126814019D01*
X185896721Y-126808250D01*
X185888904Y-126807468D01*
X185885638Y-126814246D01*
X185642113Y-126814246D01*
X185645197Y-126810573D01*
X185654523Y-126802533D01*
X185654926Y-126802217D01*
X185663581Y-126794562D01*
X185664516Y-126788909D01*
X185658513Y-126781033D01*
X185654954Y-126776934D01*
X185652561Y-126772517D01*
X185657347Y-126771746D01*
X185670977Y-126773632D01*
X185680437Y-126774746D01*
X185694163Y-126773429D01*
X185705553Y-126766608D01*
X185714898Y-126758816D01*
X185769828Y-126758816D01*
X185775035Y-126760884D01*
X185786237Y-126764033D01*
X185791780Y-126765220D01*
X185800131Y-126764280D01*
X185804090Y-126756655D01*
X185804198Y-126756244D01*
X185807047Y-126749426D01*
X185812604Y-126748488D01*
X185824323Y-126752765D01*
X185830328Y-126755025D01*
X185842822Y-126757514D01*
X185848325Y-126755488D01*
X185845630Y-126750229D01*
X185833527Y-126743017D01*
X185831667Y-126742215D01*
X185818879Y-126738888D01*
X186051518Y-126738888D01*
X186055878Y-126745521D01*
X186066737Y-126749699D01*
X186078622Y-126753579D01*
X186081851Y-126755488D01*
X186092305Y-126761668D01*
X186102134Y-126768445D01*
X186111128Y-126771650D01*
X186114042Y-126767796D01*
X186112886Y-126765241D01*
X186104927Y-126757386D01*
X186092164Y-126748007D01*
X186077843Y-126739185D01*
X186065211Y-126733002D01*
X186057512Y-126731540D01*
X186055132Y-126732700D01*
X186051518Y-126738888D01*
X185818879Y-126738888D01*
X185813098Y-126737384D01*
X185794697Y-126737142D01*
X185779743Y-126741166D01*
X185771515Y-126749133D01*
X185770156Y-126753361D01*
X185769828Y-126758816D01*
X185714898Y-126758816D01*
X185718078Y-126756164D01*
X185701374Y-126762261D01*
X185689964Y-126765230D01*
X185677128Y-126764428D01*
X185659760Y-126758844D01*
X185653668Y-126756283D01*
X185638395Y-126747226D01*
X185630257Y-126737951D01*
X185627121Y-126732082D01*
X185625326Y-126733220D01*
X185625279Y-126733787D01*
X185620945Y-126739206D01*
X185613287Y-126738673D01*
X185607308Y-126732413D01*
X185607151Y-126731979D01*
X185607253Y-126728020D01*
X185611649Y-126724837D01*
X185621912Y-126721978D01*
X185639616Y-126718989D01*
X185666334Y-126715417D01*
X185677193Y-126713761D01*
X185690605Y-126710710D01*
X185696885Y-126707817D01*
X185697225Y-126706538D01*
X185695786Y-126697418D01*
X185691134Y-126684006D01*
X185690605Y-126682686D01*
X186018649Y-126682686D01*
X186018874Y-126684130D01*
X186023552Y-126693453D01*
X186032374Y-126705294D01*
X186037777Y-126711307D01*
X186042778Y-126715181D01*
X186042302Y-126710613D01*
X186039826Y-126702869D01*
X186035936Y-126688006D01*
X186034093Y-126683119D01*
X186027952Y-126677000D01*
X186021572Y-126676476D01*
X186018649Y-126682686D01*
X185690605Y-126682686D01*
X185689374Y-126679614D01*
X185685523Y-126667857D01*
X185685034Y-126662094D01*
X185685869Y-126661825D01*
X185693735Y-126663373D01*
X185706452Y-126667988D01*
X185707425Y-126668392D01*
X185725607Y-126674498D01*
X185737654Y-126675654D01*
X185742015Y-126671697D01*
X185741644Y-126670762D01*
X185735447Y-126665212D01*
X185724238Y-126657669D01*
X185711437Y-126650173D01*
X185700462Y-126644766D01*
X185694736Y-126643487D01*
X185694543Y-126643605D01*
X185690360Y-126640960D01*
X185688874Y-126638422D01*
X185954790Y-126638422D01*
X185955255Y-126640293D01*
X185961932Y-126644654D01*
X185972950Y-126645780D01*
X185983677Y-126642945D01*
X185993002Y-126640395D01*
X186007039Y-126640998D01*
X186021282Y-126644155D01*
X186006061Y-126635678D01*
X185999721Y-126633037D01*
X185985463Y-126630456D01*
X185970822Y-126630621D01*
X185959398Y-126633341D01*
X185954790Y-126638422D01*
X185688874Y-126638422D01*
X185685786Y-126633146D01*
X185683584Y-126624794D01*
X185684545Y-126621393D01*
X185691773Y-126616709D01*
X185702060Y-126616245D01*
X185710555Y-126620733D01*
X185716123Y-126624954D01*
X185728304Y-126628163D01*
X185735992Y-126629320D01*
X185746648Y-126634812D01*
X185749183Y-126636902D01*
X185755393Y-126637044D01*
X185763670Y-126628903D01*
X185768601Y-126622345D01*
X185773686Y-126610579D01*
X185769485Y-126603764D01*
X185755903Y-126601566D01*
X185739762Y-126598738D01*
X185736447Y-126597088D01*
X185800528Y-126597088D01*
X185801625Y-126598425D01*
X185810188Y-126600676D01*
X185824466Y-126601566D01*
X185826185Y-126601562D01*
X185840333Y-126600719D01*
X185846837Y-126597575D01*
X185848403Y-126590927D01*
X185847774Y-126584758D01*
X185845030Y-126580288D01*
X185841013Y-126580709D01*
X185829173Y-126583742D01*
X185815869Y-126588468D01*
X185805016Y-126593410D01*
X185800528Y-126597088D01*
X185736447Y-126597088D01*
X185725800Y-126591789D01*
X185720104Y-126586067D01*
X185717219Y-126577011D01*
X185723262Y-126571536D01*
X185737135Y-126571599D01*
X185748530Y-126572163D01*
X185755614Y-126569164D01*
X185762380Y-126566295D01*
X185775068Y-126567240D01*
X185779839Y-126568182D01*
X185787973Y-126568158D01*
X185788651Y-126563561D01*
X185788578Y-126563364D01*
X185781284Y-126558498D01*
X185764626Y-126557979D01*
X185760785Y-126558144D01*
X185738238Y-126555507D01*
X185715626Y-126548167D01*
X185698250Y-126537739D01*
X185697400Y-126537021D01*
X185687497Y-126529924D01*
X185674193Y-126521538D01*
X185662938Y-126513458D01*
X185657339Y-126506050D01*
X185659467Y-126501886D01*
X185669699Y-126502555D01*
X185673826Y-126503474D01*
X185680146Y-126502735D01*
X185679852Y-126495666D01*
X185679501Y-126493453D01*
X185683247Y-126484969D01*
X185693275Y-126480603D01*
X185706152Y-126482122D01*
X185710637Y-126482917D01*
X185717908Y-126479496D01*
X185719664Y-126477540D01*
X185726683Y-126476947D01*
X185728767Y-126479766D01*
X185725558Y-126487801D01*
X185724948Y-126488552D01*
X185721335Y-126496256D01*
X185726397Y-126498563D01*
X185739484Y-126495129D01*
X185743785Y-126493367D01*
X185750346Y-126488547D01*
X185748096Y-126483174D01*
X185746211Y-126478809D01*
X185751009Y-126472998D01*
X185764518Y-126464994D01*
X185787230Y-126453104D01*
X185770129Y-126452864D01*
X185766417Y-126452571D01*
X185754895Y-126448656D01*
X185746665Y-126442004D01*
X185743884Y-126434937D01*
X185748707Y-126429780D01*
X185752629Y-126426637D01*
X185748665Y-126420308D01*
X185745813Y-126417128D01*
X185743047Y-126411932D01*
X185746576Y-126408999D01*
X185757846Y-126407701D01*
X185778301Y-126407409D01*
X185779742Y-126407407D01*
X185801391Y-126406497D01*
X185815242Y-126403571D01*
X185823896Y-126398100D01*
X185831637Y-126392363D01*
X185842577Y-126388791D01*
X185851730Y-126387485D01*
X185855882Y-126381761D01*
X185850250Y-126371935D01*
X185841537Y-126364647D01*
X185830396Y-126363464D01*
X185820571Y-126372833D01*
X185814116Y-126379249D01*
X185801909Y-126383472D01*
X185794405Y-126384481D01*
X185789890Y-126388053D01*
X185789760Y-126388744D01*
X185784376Y-126390736D01*
X185774209Y-126389587D01*
X185763558Y-126386169D01*
X185756725Y-126381349D01*
X185754035Y-126376638D01*
X185754259Y-126369656D01*
X185763862Y-126367513D01*
X185771547Y-126365769D01*
X185771781Y-126358943D01*
X185770936Y-126356340D01*
X185772505Y-126352456D01*
X185781851Y-126353725D01*
X185783039Y-126354012D01*
X185792542Y-126354413D01*
X185795209Y-126348683D01*
X185795950Y-126344791D01*
X185800296Y-126343433D01*
X185802499Y-126346547D01*
X185802054Y-126355715D01*
X185800646Y-126360271D01*
X185802372Y-126361141D01*
X185810129Y-126354843D01*
X185818361Y-126346016D01*
X185824352Y-126335956D01*
X185824936Y-126334640D01*
X185832938Y-126326944D01*
X185846058Y-126320249D01*
X185853839Y-126316803D01*
X185861817Y-126309716D01*
X185860391Y-126303360D01*
X185849316Y-126299321D01*
X185840387Y-126300313D01*
X185837764Y-126308630D01*
X185836493Y-126315632D01*
X185831162Y-126319565D01*
X185824466Y-126314320D01*
X185821332Y-126310658D01*
X185814316Y-126310219D01*
X185808626Y-126319266D01*
X185806084Y-126324473D01*
X185799269Y-126327574D01*
X185785660Y-126326525D01*
X185783553Y-126326174D01*
X185768441Y-126322119D01*
X185757973Y-126316901D01*
X185757398Y-126316436D01*
X185746692Y-126309311D01*
X185732706Y-126301526D01*
X185725671Y-126297556D01*
X185716944Y-126289964D01*
X185716955Y-126284500D01*
X185726129Y-126282403D01*
X185733964Y-126281278D01*
X185747151Y-126275964D01*
X185753338Y-126271345D01*
X185751999Y-126267769D01*
X185741760Y-126262923D01*
X185731201Y-126257436D01*
X185726941Y-126251247D01*
X185733217Y-126246150D01*
X185749994Y-126242230D01*
X185759875Y-126240391D01*
X185770928Y-126235614D01*
X185772624Y-126228009D01*
X185765783Y-126216224D01*
X185758878Y-126204992D01*
X185758290Y-126194867D01*
X185767128Y-126188376D01*
X185785900Y-126184726D01*
X185790354Y-126184260D01*
X185818174Y-126181179D01*
X185837260Y-126178427D01*
X185849249Y-126175434D01*
X185855783Y-126171630D01*
X185858500Y-126166446D01*
X185859042Y-126159312D01*
X185858724Y-126151425D01*
X185856064Y-126146676D01*
X185848976Y-126149112D01*
X185846402Y-126150181D01*
X185830896Y-126151908D01*
X185807751Y-126149897D01*
X185800787Y-126148824D01*
X185787791Y-126146209D01*
X185784048Y-126143887D01*
X185788560Y-126141417D01*
X185794219Y-126139264D01*
X185799758Y-126134221D01*
X185795287Y-126128389D01*
X185780581Y-126121199D01*
X185769048Y-126115981D01*
X185765747Y-126112340D01*
X185770350Y-126109265D01*
X185777073Y-126104583D01*
X185784567Y-126093575D01*
X185785578Y-126091365D01*
X185792231Y-126085097D01*
X185877883Y-126085097D01*
X185878386Y-126093395D01*
X185880545Y-126098853D01*
X185889171Y-126108779D01*
X185899933Y-126109763D01*
X185903592Y-126109936D01*
X185908037Y-126116468D01*
X185910057Y-126121728D01*
X185913907Y-126118989D01*
X185914182Y-126118474D01*
X185914246Y-126109141D01*
X185909692Y-126096450D01*
X185908334Y-126093936D01*
X185899571Y-126083676D01*
X185888206Y-126081495D01*
X185885144Y-126081824D01*
X185877883Y-126085097D01*
X185792231Y-126085097D01*
X185795228Y-126082274D01*
X185813801Y-126075509D01*
X185829486Y-126069890D01*
X185835918Y-126063677D01*
X185832395Y-126057933D01*
X185818707Y-126053600D01*
X185803188Y-126050870D01*
X185816024Y-126041853D01*
X185826245Y-126036349D01*
X185833312Y-126035588D01*
X185837127Y-126037260D01*
X185837623Y-126034572D01*
X185832802Y-126027463D01*
X185823782Y-126017995D01*
X185821984Y-126016289D01*
X185814205Y-126006208D01*
X185815405Y-125999430D01*
X185816233Y-125998723D01*
X185826730Y-125996121D01*
X185841385Y-125997864D01*
X185855790Y-126002980D01*
X185865538Y-126010495D01*
X185871377Y-126016433D01*
X185883508Y-126024681D01*
X185897349Y-126031633D01*
X185909463Y-126035631D01*
X185916415Y-126035021D01*
X185917415Y-126033215D01*
X185914054Y-126028725D01*
X185912205Y-126028018D01*
X185894549Y-126018298D01*
X185875571Y-126003945D01*
X185858920Y-125988016D01*
X185848243Y-125973567D01*
X185837891Y-125953275D01*
X185851751Y-125942372D01*
X185852682Y-125941658D01*
X185863744Y-125935530D01*
X185871635Y-125934929D01*
X185890817Y-125947408D01*
X185903062Y-125959740D01*
X185906916Y-125971582D01*
X185907275Y-125976984D01*
X185911446Y-125983065D01*
X185922874Y-125984519D01*
X185927998Y-125984689D01*
X185936611Y-125987645D01*
X185938832Y-125995892D01*
X185940861Y-126002902D01*
X185948673Y-126016111D01*
X185960342Y-126030601D01*
X185969603Y-126041587D01*
X185977006Y-126052829D01*
X185978575Y-126059237D01*
X185978558Y-126059264D01*
X185973319Y-126059522D01*
X185965221Y-126052455D01*
X185964859Y-126052024D01*
X185957696Y-126045501D01*
X185954967Y-126047598D01*
X185952073Y-126052165D01*
X185941492Y-126051486D01*
X185937121Y-126050530D01*
X185929122Y-126050433D01*
X185929111Y-126053587D01*
X185936125Y-126058480D01*
X185949204Y-126063601D01*
X185964221Y-126070420D01*
X185979519Y-126083437D01*
X185988818Y-126098932D01*
X185989597Y-126109141D01*
X185989988Y-126114258D01*
X185989450Y-126116751D01*
X185990890Y-126126058D01*
X186000772Y-126132843D01*
X186008972Y-126137576D01*
X186012634Y-126144928D01*
X186011536Y-126158246D01*
X186011106Y-126160781D01*
X186008312Y-126173446D01*
X186005772Y-126180001D01*
X186004142Y-126180396D01*
X185994978Y-126178652D01*
X185981213Y-126173907D01*
X185972735Y-126170565D01*
X185963800Y-126167778D01*
X185961175Y-126169344D01*
X185962591Y-126175453D01*
X185963454Y-126182018D01*
X185960305Y-126189194D01*
X185959365Y-126190200D01*
X185960584Y-126198028D01*
X185968800Y-126211051D01*
X185972809Y-126216227D01*
X185980578Y-126224482D01*
X185986783Y-126225860D01*
X185994701Y-126221710D01*
X186006303Y-126217705D01*
X186015237Y-126222450D01*
X186018623Y-126235593D01*
X186020290Y-126241367D01*
X186029261Y-126245168D01*
X186035907Y-126246374D01*
X186039802Y-126251749D01*
X186034494Y-126258520D01*
X186032825Y-126259740D01*
X186031326Y-126265298D01*
X186037910Y-126269868D01*
X186050539Y-126271765D01*
X186052142Y-126271790D01*
X186065062Y-126274620D01*
X186070691Y-126280926D01*
X186067354Y-126288993D01*
X186067172Y-126289151D01*
X186059310Y-126291345D01*
X186043601Y-126293197D01*
X186022658Y-126294632D01*
X185999091Y-126295574D01*
X185975515Y-126295949D01*
X185954542Y-126295681D01*
X185938784Y-126294696D01*
X185930853Y-126292918D01*
X185929907Y-126292364D01*
X185920023Y-126289073D01*
X185905586Y-126286136D01*
X185902118Y-126285616D01*
X185890944Y-126284842D01*
X185886578Y-126288183D01*
X185886012Y-126297366D01*
X185887149Y-126308556D01*
X185890545Y-126322299D01*
X185892832Y-126327793D01*
X185895376Y-126329276D01*
X185898508Y-126320969D01*
X185903912Y-126311542D01*
X185912219Y-126310089D01*
X185921171Y-126318888D01*
X185922397Y-126320451D01*
X185932246Y-126327496D01*
X185947217Y-126334659D01*
X185963716Y-126340599D01*
X185978150Y-126343974D01*
X185986924Y-126343442D01*
X185990119Y-126343990D01*
X185992026Y-126351664D01*
X185992780Y-126358144D01*
X185997509Y-126361020D01*
X186009314Y-126359343D01*
X186009535Y-126359295D01*
X186023577Y-126355121D01*
X186033251Y-126350290D01*
X186038833Y-126348121D01*
X186039410Y-126354684D01*
X186034712Y-126369827D01*
X186032212Y-126377547D01*
X186034095Y-126382522D01*
X186044335Y-126383472D01*
X186056150Y-126385152D01*
X186068908Y-126390611D01*
X186074602Y-126395373D01*
X186074483Y-126399913D01*
X186066082Y-126406569D01*
X186055266Y-126412437D01*
X186043935Y-126415388D01*
X186041979Y-126415466D01*
X186036780Y-126418704D01*
X186037716Y-126428686D01*
X186038390Y-126431450D01*
X186038886Y-126437482D01*
X186035319Y-126440566D01*
X186025498Y-126441633D01*
X186007231Y-126441611D01*
X185990950Y-126440986D01*
X185973610Y-126439282D01*
X185962769Y-126436949D01*
X185956031Y-126435431D01*
X185944980Y-126438390D01*
X185943937Y-126439163D01*
X185936897Y-126440031D01*
X185928687Y-126432000D01*
X185924497Y-126426821D01*
X185918692Y-126423309D01*
X185913138Y-126427598D01*
X185910263Y-126432835D01*
X185909883Y-126443527D01*
X185912892Y-126448067D01*
X185923569Y-126457874D01*
X185937962Y-126468034D01*
X185952294Y-126475999D01*
X185962787Y-126479220D01*
X185969264Y-126482241D01*
X185975802Y-126491820D01*
X185977894Y-126495639D01*
X185985056Y-126501892D01*
X185997690Y-126507777D01*
X186017066Y-126513723D01*
X186044455Y-126520161D01*
X186081125Y-126527522D01*
X186097098Y-126531069D01*
X186109588Y-126534905D01*
X186114371Y-126537891D01*
X186114366Y-126538104D01*
X186109474Y-126543635D01*
X186097913Y-126546344D01*
X186083362Y-126545345D01*
X186074622Y-126543682D01*
X186072828Y-126544981D01*
X186079795Y-126551296D01*
X186083398Y-126554406D01*
X186086215Y-126558115D01*
X186081523Y-126558717D01*
X186067827Y-126556915D01*
X186064156Y-126556387D01*
X186051762Y-126555404D01*
X186046387Y-126557726D01*
X186045220Y-126564267D01*
X186044695Y-126571663D01*
X186041598Y-126574176D01*
X186033648Y-126571721D01*
X186018567Y-126564302D01*
X186008744Y-126559624D01*
X186001205Y-126557637D01*
X186000538Y-126561142D01*
X186000128Y-126564652D01*
X185992816Y-126567583D01*
X185979750Y-126567742D01*
X185963593Y-126565398D01*
X185947006Y-126560820D01*
X185932651Y-126554278D01*
X185921393Y-126548579D01*
X185911224Y-126547474D01*
X185907989Y-126554328D01*
X185911948Y-126568957D01*
X185912311Y-126569806D01*
X185925136Y-126586537D01*
X185933389Y-126590927D01*
X185944982Y-126597094D01*
X185969501Y-126600203D01*
G37*
G36*
X185920802Y-127896093D02*
G01*
X185922874Y-127904653D01*
X185923004Y-127906083D01*
X185928262Y-127916470D01*
X185938832Y-127926930D01*
X185945946Y-127932429D01*
X185953320Y-127940910D01*
X185952144Y-127949014D01*
X185942822Y-127960087D01*
X185930853Y-127972426D01*
X185922015Y-127955907D01*
X185921625Y-127955155D01*
X185916991Y-127941905D01*
X185914099Y-127925918D01*
X185913161Y-127910458D01*
X185914390Y-127898788D01*
X185917998Y-127894173D01*
X185920802Y-127896093D01*
G37*
G36*
X185526792Y-127653109D02*
G01*
X185537129Y-127660021D01*
X185539987Y-127663346D01*
X185543652Y-127671287D01*
X185539678Y-127678981D01*
X185532298Y-127684208D01*
X185518996Y-127683363D01*
X185517725Y-127683015D01*
X185502296Y-127680706D01*
X185484769Y-127680283D01*
X185472189Y-127680366D01*
X185468006Y-127678360D01*
X185470792Y-127673341D01*
X185475334Y-127669192D01*
X185484677Y-127665440D01*
X185488082Y-127664521D01*
X185492005Y-127657461D01*
X185493270Y-127653763D01*
X185501288Y-127649777D01*
X185513653Y-127649627D01*
X185526792Y-127653109D01*
G37*
G36*
X187722424Y-128269024D02*
G01*
X187728410Y-128303094D01*
X187723793Y-128331440D01*
X187710548Y-128337764D01*
X187700888Y-128326249D01*
X187692686Y-128292055D01*
X187695892Y-128272298D01*
X187710548Y-128257384D01*
X187722424Y-128269024D01*
G37*
G36*
X188471521Y-128128893D02*
G01*
X188416398Y-128196457D01*
X188349556Y-128259822D01*
X188300612Y-128300661D01*
X188251875Y-128342025D01*
X188219620Y-128370207D01*
X188182182Y-128400975D01*
X188097995Y-128451620D01*
X188016986Y-128477794D01*
X188012394Y-128478524D01*
X187970505Y-128487332D01*
X187948484Y-128495773D01*
X187934850Y-128499614D01*
X187900017Y-128497339D01*
X187862685Y-128492845D01*
X187802574Y-128487942D01*
X187732828Y-128483711D01*
X187701232Y-128481775D01*
X187630698Y-128472396D01*
X187572784Y-128453335D01*
X187510582Y-128419722D01*
X187493839Y-128409352D01*
X187354581Y-128304429D01*
X187244904Y-128185009D01*
X187241062Y-128179769D01*
X187204718Y-128123808D01*
X187167786Y-128057811D01*
X187135242Y-127991799D01*
X187112066Y-127935794D01*
X187103234Y-127899816D01*
X187099528Y-127862881D01*
X187073084Y-127782051D01*
X187026867Y-127701529D01*
X186967604Y-127634475D01*
X186913532Y-127579125D01*
X186880559Y-127518765D01*
X186879923Y-127478122D01*
X186924613Y-127478122D01*
X186924704Y-127484822D01*
X186929958Y-127527846D01*
X186940809Y-127550799D01*
X186948833Y-127549235D01*
X186947657Y-127525060D01*
X186947894Y-127499250D01*
X186964952Y-127489574D01*
X186988186Y-127508881D01*
X186989418Y-127510505D01*
X187016531Y-127520967D01*
X187060689Y-127521399D01*
X187105038Y-127521521D01*
X187121097Y-127536350D01*
X187119928Y-127543283D01*
X187097489Y-127564283D01*
X187056340Y-127573879D01*
X187009458Y-127568353D01*
X187003671Y-127566585D01*
X186986681Y-127564280D01*
X186993384Y-127576777D01*
X187025477Y-127608319D01*
X187050044Y-127635458D01*
X187078459Y-127681916D01*
X187106392Y-127748167D01*
X187137506Y-127841847D01*
X187171797Y-127940752D01*
X187215789Y-128042281D01*
X187259918Y-128120162D01*
X187314029Y-128190065D01*
X187398852Y-128277375D01*
X187489894Y-128351438D01*
X187576457Y-128402706D01*
X187599993Y-128411743D01*
X187670199Y-128428704D01*
X187741365Y-128435614D01*
X187793082Y-128435178D01*
X187820206Y-128430394D01*
X187825828Y-128416859D01*
X187817279Y-128390188D01*
X187813960Y-128380025D01*
X187803906Y-128326804D01*
X187799859Y-128266207D01*
X187797058Y-128224219D01*
X187790100Y-128202524D01*
X187825147Y-128202524D01*
X187828721Y-128272379D01*
X187841974Y-128342581D01*
X187865111Y-128404747D01*
X187866505Y-128407457D01*
X187872961Y-128416859D01*
X187886141Y-128436052D01*
X187912539Y-128448850D01*
X187954800Y-128447535D01*
X188022029Y-128433793D01*
X188023152Y-128433525D01*
X188080571Y-128410483D01*
X188149932Y-128368980D01*
X188225196Y-128314346D01*
X188300320Y-128251914D01*
X188369266Y-128187014D01*
X188425992Y-128124978D01*
X188464457Y-128071137D01*
X188478621Y-128030821D01*
X188477220Y-128025975D01*
X188453808Y-128007072D01*
X188410690Y-127990399D01*
X188382969Y-127980249D01*
X188323314Y-127948058D01*
X188266618Y-127906933D01*
X188238041Y-127883773D01*
X188195827Y-127858330D01*
X188172135Y-127860102D01*
X188168417Y-127864720D01*
X188166403Y-127897664D01*
X188190615Y-127940520D01*
X188237369Y-127986172D01*
X188268124Y-128013165D01*
X188280813Y-128035614D01*
X188261510Y-128043038D01*
X188247293Y-128036845D01*
X188213414Y-128010547D01*
X188172005Y-127970634D01*
X188163161Y-127961420D01*
X188125606Y-127926040D01*
X188103796Y-127915278D01*
X188092410Y-127926161D01*
X188092485Y-127942707D01*
X188108693Y-127982241D01*
X188137829Y-128027827D01*
X188172084Y-128067899D01*
X188203647Y-128090891D01*
X188214423Y-128096606D01*
X188228551Y-128116398D01*
X188226061Y-128128014D01*
X188206797Y-128130065D01*
X188170284Y-128104702D01*
X188118676Y-128053166D01*
X188093026Y-128026605D01*
X188048978Y-127991307D01*
X188019759Y-127984288D01*
X188019164Y-127984526D01*
X188002319Y-128008261D01*
X188003886Y-128050080D01*
X188021614Y-128099194D01*
X188053252Y-128144817D01*
X188055118Y-128146829D01*
X188077751Y-128177718D01*
X188081091Y-128196452D01*
X188075885Y-128197939D01*
X188053179Y-128183824D01*
X188022634Y-128151120D01*
X187991695Y-128108492D01*
X187967808Y-128064606D01*
X187967569Y-128064051D01*
X187953424Y-128037411D01*
X187942049Y-128036206D01*
X187930555Y-128063702D01*
X187916057Y-128123166D01*
X187909097Y-128150414D01*
X187899859Y-128162202D01*
X187886805Y-128145352D01*
X187878976Y-128125024D01*
X187880326Y-128096483D01*
X187883113Y-128089724D01*
X187872990Y-128078763D01*
X187870476Y-128078891D01*
X187846227Y-128097395D01*
X187831050Y-128141401D01*
X187825147Y-128202524D01*
X187790100Y-128202524D01*
X187784050Y-128183658D01*
X187763091Y-128171804D01*
X187737128Y-128192138D01*
X187712880Y-128217322D01*
X187698118Y-128216919D01*
X187700670Y-128188920D01*
X187698886Y-128160134D01*
X187666360Y-128135812D01*
X187638131Y-128125690D01*
X187616218Y-128133114D01*
X187594655Y-128167666D01*
X187575612Y-128213637D01*
X187567651Y-128251139D01*
X187563739Y-128270686D01*
X187547357Y-128262098D01*
X187540037Y-128249775D01*
X187542645Y-128218026D01*
X187564903Y-128165326D01*
X187571876Y-128150626D01*
X187589337Y-128099569D01*
X187585681Y-128071786D01*
X187565992Y-128064235D01*
X187528994Y-128073016D01*
X187492474Y-128097636D01*
X187469754Y-128131260D01*
X187459422Y-128153299D01*
X187441412Y-128168074D01*
X187429751Y-128164902D01*
X187425546Y-128143523D01*
X187443238Y-128107766D01*
X187480274Y-128064444D01*
X187494872Y-128049163D01*
X187520181Y-128014809D01*
X187525356Y-127993272D01*
X187508981Y-127984281D01*
X187470019Y-127985052D01*
X187424405Y-127997773D01*
X187386337Y-128019741D01*
X187366106Y-128032247D01*
X187346344Y-128028364D01*
X187347122Y-128006243D01*
X187376510Y-127981805D01*
X187430213Y-127961934D01*
X187463391Y-127947394D01*
X187474768Y-127921593D01*
X187460094Y-127900280D01*
X187421391Y-127881612D01*
X187373586Y-127875118D01*
X187331205Y-127884547D01*
X187308109Y-127893544D01*
X187285983Y-127892360D01*
X187281878Y-127885819D01*
X187290827Y-127866235D01*
X187322959Y-127849304D01*
X187369273Y-127840618D01*
X187371780Y-127840470D01*
X187409506Y-127834323D01*
X187424961Y-127824227D01*
X187424753Y-127795835D01*
X187412328Y-127779918D01*
X187379091Y-127760035D01*
X187360802Y-127748989D01*
X187345064Y-127727206D01*
X187351813Y-127712408D01*
X187380670Y-127715280D01*
X187396743Y-127718250D01*
X187405269Y-127705872D01*
X187402102Y-127670701D01*
X187387599Y-127607134D01*
X187356389Y-127531976D01*
X187303525Y-127460663D01*
X187236851Y-127401178D01*
X187163522Y-127358693D01*
X187090690Y-127338378D01*
X187025510Y-127345404D01*
X187020979Y-127347191D01*
X186991922Y-127368138D01*
X186991161Y-127401054D01*
X186993964Y-127413076D01*
X186990623Y-127431914D01*
X186962952Y-127427624D01*
X186938765Y-127423268D01*
X186927104Y-127437028D01*
X186924613Y-127478122D01*
X186879923Y-127478122D01*
X186879620Y-127458733D01*
X186909467Y-127393871D01*
X186918395Y-127380984D01*
X186980823Y-127322858D01*
X187055909Y-127295946D01*
X187137966Y-127301235D01*
X187221311Y-127339712D01*
X187245104Y-127356093D01*
X187320663Y-127416220D01*
X187372159Y-127476849D01*
X187407009Y-127548592D01*
X187432629Y-127642062D01*
X187442020Y-127682787D01*
X187486322Y-127826389D01*
X187542510Y-127940706D01*
X187612500Y-128029868D01*
X187650903Y-128065323D01*
X187709698Y-128102476D01*
X187760045Y-128108110D01*
X187805313Y-128083154D01*
X187820464Y-128070378D01*
X187868094Y-128035088D01*
X187922466Y-127999080D01*
X187948602Y-127981927D01*
X188014458Y-127933504D01*
X188074295Y-127883710D01*
X188104845Y-127857321D01*
X188149327Y-127823280D01*
X188180055Y-127805162D01*
X188199314Y-127795239D01*
X188201385Y-127777451D01*
X188184604Y-127740753D01*
X188158228Y-127704216D01*
X188112428Y-127655664D01*
X188058013Y-127607040D01*
X187953667Y-127512177D01*
X187838685Y-127372072D01*
X187757218Y-127220621D01*
X187708730Y-127056761D01*
X187697767Y-126935584D01*
X187728410Y-126935584D01*
X187804324Y-126935858D01*
X187819725Y-126936196D01*
X187871960Y-126942009D01*
X187908190Y-126952914D01*
X187921889Y-126966155D01*
X187906531Y-126978981D01*
X187898933Y-126980964D01*
X187857698Y-126984681D01*
X187803767Y-126983868D01*
X187772144Y-126982156D01*
X187741566Y-126984667D01*
X187733227Y-126999570D01*
X187738666Y-127033286D01*
X187746512Y-127065713D01*
X187763229Y-127096981D01*
X187792700Y-127102859D01*
X187844708Y-127088437D01*
X187862008Y-127082869D01*
X187905591Y-127072514D01*
X187929604Y-127072461D01*
X187932542Y-127074510D01*
X187935843Y-127092518D01*
X187908000Y-127112726D01*
X187852691Y-127132271D01*
X187818100Y-127142817D01*
X187788982Y-127161342D01*
X187787306Y-127190614D01*
X187809249Y-127240128D01*
X187828555Y-127273126D01*
X187850577Y-127289242D01*
X187881947Y-127282897D01*
X187932804Y-127255339D01*
X187966096Y-127237127D01*
X187989864Y-127230766D01*
X187996343Y-127243595D01*
X187995148Y-127249244D01*
X187973686Y-127275592D01*
X187933825Y-127303008D01*
X187920667Y-127310308D01*
X187885585Y-127332506D01*
X187871705Y-127346010D01*
X187871717Y-127346185D01*
X187882173Y-127365914D01*
X187906089Y-127399577D01*
X187940077Y-127443809D01*
X188011559Y-127403634D01*
X188034198Y-127391922D01*
X188076000Y-127378033D01*
X188093292Y-127383354D01*
X188082603Y-127403993D01*
X188040463Y-127436056D01*
X188007265Y-127458700D01*
X187990498Y-127480184D01*
X187997883Y-127500099D01*
X188036541Y-127522225D01*
X188088891Y-127518606D01*
X188144114Y-127489311D01*
X188145167Y-127488487D01*
X188182414Y-127463810D01*
X188209041Y-127453587D01*
X188223489Y-127456018D01*
X188227002Y-127471456D01*
X188203253Y-127497805D01*
X188154952Y-127531175D01*
X188124098Y-127549956D01*
X188098959Y-127569120D01*
X188098567Y-127581925D01*
X188119067Y-127595247D01*
X188126655Y-127599008D01*
X188163579Y-127605171D01*
X188209395Y-127588222D01*
X188211245Y-127587258D01*
X188250555Y-127563199D01*
X188273128Y-127543025D01*
X188273149Y-127542990D01*
X188295744Y-127527502D01*
X188322687Y-127527350D01*
X188335724Y-127542644D01*
X188331834Y-127550925D01*
X188306012Y-127576554D01*
X188263974Y-127607735D01*
X188234848Y-127627418D01*
X188209586Y-127648721D01*
X188208173Y-127663465D01*
X188226613Y-127679303D01*
X188245608Y-127698752D01*
X188251680Y-127739031D01*
X188248553Y-127757568D01*
X188256259Y-127774453D01*
X188284333Y-127787123D01*
X188340189Y-127800748D01*
X188352194Y-127803677D01*
X188385917Y-127818512D01*
X188388418Y-127832402D01*
X188363107Y-127840572D01*
X188313396Y-127838245D01*
X188237482Y-127826796D01*
X188300000Y-127880701D01*
X188332304Y-127906723D01*
X188395304Y-127945355D01*
X188445453Y-127958665D01*
X188478387Y-127945078D01*
X188489513Y-127926536D01*
X188505754Y-127870449D01*
X188512308Y-127801247D01*
X188507181Y-127733584D01*
X188502572Y-127718405D01*
X188478819Y-127668100D01*
X188439002Y-127597691D01*
X188386740Y-127512942D01*
X188325648Y-127419618D01*
X188259344Y-127323486D01*
X188191444Y-127230310D01*
X188166725Y-127195271D01*
X188110313Y-127092861D01*
X188073561Y-126989080D01*
X188057793Y-126890663D01*
X188064332Y-126804344D01*
X188094501Y-126736855D01*
X188117357Y-126709089D01*
X188187687Y-126650102D01*
X188272737Y-126616973D01*
X188380379Y-126606103D01*
X188432187Y-126607060D01*
X188526456Y-126619940D01*
X188612214Y-126651459D01*
X188704752Y-126706343D01*
X188744024Y-126735410D01*
X188793058Y-126784229D01*
X188830228Y-126842857D01*
X188857242Y-126916447D01*
X188875806Y-127010149D01*
X188887629Y-127129117D01*
X188894419Y-127278502D01*
X188896784Y-127351833D01*
X188900653Y-127426077D01*
X188906703Y-127478897D01*
X188916491Y-127518522D01*
X188931571Y-127553177D01*
X188953497Y-127591090D01*
X189006705Y-127661329D01*
X189082375Y-127718181D01*
X189176147Y-127748167D01*
X189293010Y-127753678D01*
X189328745Y-127751639D01*
X189392578Y-127743548D01*
X189439064Y-127727907D01*
X189481020Y-127701134D01*
X189521276Y-127663023D01*
X189577412Y-127585444D01*
X189622270Y-127494983D01*
X189648149Y-127405272D01*
X189651622Y-127374945D01*
X189646035Y-127265401D01*
X189617530Y-127146043D01*
X189569761Y-127026611D01*
X189506383Y-126916845D01*
X189431047Y-126826485D01*
X189418990Y-126814846D01*
X189381105Y-126779138D01*
X189364190Y-126766593D01*
X189364561Y-126775701D01*
X189378535Y-126804951D01*
X189381379Y-126810484D01*
X189405554Y-126850567D01*
X189425189Y-126872988D01*
X189435014Y-126884798D01*
X189443178Y-126919218D01*
X189453606Y-126946862D01*
X189492299Y-126974562D01*
X189510822Y-126982716D01*
X189525721Y-126994464D01*
X189510161Y-127002223D01*
X189490833Y-127014490D01*
X189478903Y-127052787D01*
X189478961Y-127057359D01*
X189487736Y-127086836D01*
X189517123Y-127091668D01*
X189541566Y-127093586D01*
X189563267Y-127109740D01*
X189559410Y-127124751D01*
X189527523Y-127132068D01*
X189514472Y-127132498D01*
X189491742Y-127142870D01*
X189492109Y-127175238D01*
X189503797Y-127202778D01*
X189543219Y-127229165D01*
X189560282Y-127235070D01*
X189582914Y-127252938D01*
X189581940Y-127269206D01*
X189554817Y-127274031D01*
X189538333Y-127272821D01*
X189501230Y-127272908D01*
X189484933Y-127287498D01*
X189479309Y-127318886D01*
X189485157Y-127350112D01*
X189502282Y-127364276D01*
X189524768Y-127369643D01*
X189556747Y-127387482D01*
X189580762Y-127409130D01*
X189584478Y-127425414D01*
X189583113Y-127426374D01*
X189557642Y-127426500D01*
X189515876Y-127415621D01*
X189483049Y-127406002D01*
X189451297Y-127408331D01*
X189420856Y-127432246D01*
X189398800Y-127456937D01*
X189394770Y-127480358D01*
X189413573Y-127514319D01*
X189438438Y-127559199D01*
X189441677Y-127581099D01*
X189425113Y-127576397D01*
X189391061Y-127542223D01*
X189356230Y-127507410D01*
X189325774Y-127496948D01*
X189305946Y-127520349D01*
X189295547Y-127578063D01*
X189295072Y-127582998D01*
X189284526Y-127624753D01*
X189267513Y-127646108D01*
X189258359Y-127646999D01*
X189251425Y-127631177D01*
X189256819Y-127587473D01*
X189260794Y-127540127D01*
X189248068Y-127507614D01*
X189217360Y-127505634D01*
X189170450Y-127535261D01*
X189166322Y-127538707D01*
X189120482Y-127571099D01*
X189094277Y-127575357D01*
X189085935Y-127551829D01*
X189087551Y-127539551D01*
X189100383Y-127525036D01*
X189115541Y-127520277D01*
X189147300Y-127501294D01*
X189154152Y-127496025D01*
X189170040Y-127472102D01*
X189158961Y-127438672D01*
X189142867Y-127414200D01*
X189122956Y-127410257D01*
X189086264Y-127426623D01*
X189084784Y-127427381D01*
X189045617Y-127441221D01*
X189024082Y-127436801D01*
X189023728Y-127436154D01*
X189031842Y-127417600D01*
X189063259Y-127396545D01*
X189096386Y-127373067D01*
X189118380Y-127323954D01*
X189118758Y-127320605D01*
X189119102Y-127284632D01*
X189104438Y-127277883D01*
X189068276Y-127296846D01*
X189037095Y-127309645D01*
X189011945Y-127297431D01*
X189001004Y-127285081D01*
X189003192Y-127275487D01*
X189026338Y-127265008D01*
X189077004Y-127248733D01*
X189096120Y-127228033D01*
X189103797Y-127177731D01*
X189103784Y-127171029D01*
X189100771Y-127133330D01*
X189086007Y-127121256D01*
X189050211Y-127125816D01*
X189011898Y-127128504D01*
X188996624Y-127118186D01*
X188996665Y-127117453D01*
X189013066Y-127099261D01*
X189050211Y-127081158D01*
X189079244Y-127068473D01*
X189099204Y-127043980D01*
X189103797Y-126998572D01*
X189103797Y-126934667D01*
X189052475Y-126961206D01*
X189025138Y-126973221D01*
X188990414Y-126975478D01*
X188978762Y-126950709D01*
X188979725Y-126947747D01*
X189000957Y-126930265D01*
X189041279Y-126909942D01*
X189049343Y-126906453D01*
X189092062Y-126878550D01*
X189101192Y-126845169D01*
X189078617Y-126800803D01*
X189063945Y-126782434D01*
X189046062Y-126776827D01*
X189019159Y-126797389D01*
X188992158Y-126817354D01*
X188963959Y-126828411D01*
X188944489Y-126818781D01*
X188948838Y-126798437D01*
X188974296Y-126780422D01*
X188986338Y-126775950D01*
X189027248Y-126753355D01*
X189037037Y-126725165D01*
X189019377Y-126683484D01*
X189004526Y-126659283D01*
X188982954Y-126636575D01*
X188960176Y-126642610D01*
X188925175Y-126676583D01*
X188921456Y-126680482D01*
X188889582Y-126709393D01*
X188868475Y-126721238D01*
X188864098Y-126720912D01*
X188853559Y-126707377D01*
X188866952Y-126679025D01*
X188901353Y-126642834D01*
X188948979Y-126601868D01*
X188914749Y-126556090D01*
X188872665Y-126506277D01*
X188841284Y-126487916D01*
X188815632Y-126500597D01*
X188790666Y-126543820D01*
X188781792Y-126561730D01*
X188756419Y-126599160D01*
X188734910Y-126614065D01*
X188732396Y-126614037D01*
X188713641Y-126608030D01*
X188718037Y-126587699D01*
X188746554Y-126547491D01*
X188760186Y-126528801D01*
X188779897Y-126481358D01*
X188766533Y-126443960D01*
X188719154Y-126411959D01*
X188671700Y-126391072D01*
X188639204Y-126385054D01*
X188624700Y-126400672D01*
X188621245Y-126439909D01*
X188619346Y-126468602D01*
X188608894Y-126512350D01*
X188592969Y-126538699D01*
X188575769Y-126538545D01*
X188575421Y-126538166D01*
X188572840Y-126513797D01*
X188582375Y-126473298D01*
X188583987Y-126468553D01*
X188594305Y-126404617D01*
X188575832Y-126361618D01*
X188528393Y-126339118D01*
X188490680Y-126332165D01*
X188456809Y-126330608D01*
X188445620Y-126342726D01*
X188449876Y-126371507D01*
X188450463Y-126373951D01*
X188453551Y-126418854D01*
X188444558Y-126455813D01*
X188426664Y-126471168D01*
X188425220Y-126470759D01*
X188416853Y-126450731D01*
X188412515Y-126409861D01*
X188408731Y-126362889D01*
X188393760Y-126328980D01*
X188359713Y-126313863D01*
X188298411Y-126310408D01*
X188209619Y-126310408D01*
X188247612Y-126361796D01*
X188250985Y-126366536D01*
X188273008Y-126410437D01*
X188277751Y-126446641D01*
X188273461Y-126461635D01*
X188265312Y-126464229D01*
X188251274Y-126435443D01*
X188215821Y-126374543D01*
X188167841Y-126341480D01*
X188108387Y-126341938D01*
X188036037Y-126375522D01*
X187995352Y-126401192D01*
X188049434Y-126446699D01*
X188059155Y-126455310D01*
X188090766Y-126490937D01*
X188103516Y-126518712D01*
X188100548Y-126526830D01*
X188079576Y-126521623D01*
X188036928Y-126490330D01*
X188014775Y-126472894D01*
X187975274Y-126446028D01*
X187951122Y-126435443D01*
X187931154Y-126445828D01*
X187897029Y-126473864D01*
X187859858Y-126509626D01*
X187829978Y-126543126D01*
X187817721Y-126564375D01*
X187831359Y-126575159D01*
X187866842Y-126586698D01*
X187892011Y-126593960D01*
X187938120Y-126616007D01*
X187967557Y-126641754D01*
X187971441Y-126664590D01*
X187968252Y-126667444D01*
X187940359Y-126666356D01*
X187894427Y-126647917D01*
X187860647Y-126631601D01*
X187814945Y-126616611D01*
X187785749Y-126622267D01*
X187764763Y-126648615D01*
X187759629Y-126658679D01*
X187745504Y-126710007D01*
X187762504Y-126745118D01*
X187811899Y-126767209D01*
X187822240Y-126770088D01*
X187864324Y-126788155D01*
X187885461Y-126807958D01*
X187884802Y-126822792D01*
X187860024Y-126822203D01*
X187804807Y-126806098D01*
X187760696Y-126796761D01*
X187738009Y-126801555D01*
X187729623Y-126822646D01*
X187728410Y-126862199D01*
X187728410Y-126935584D01*
X187697767Y-126935584D01*
X187692686Y-126879426D01*
X187700959Y-126763933D01*
X187737683Y-126628730D01*
X187804297Y-126512925D01*
X187901374Y-126415595D01*
X188029486Y-126335815D01*
X188085048Y-126310951D01*
X188140378Y-126294518D01*
X188205311Y-126285389D01*
X188292882Y-126280842D01*
X188308894Y-126280386D01*
X188392027Y-126280274D01*
X188458386Y-126286640D01*
X188524144Y-126301959D01*
X188605470Y-126328707D01*
X188664451Y-126351051D01*
X188812074Y-126425211D01*
X188932409Y-126517134D01*
X189029677Y-126629815D01*
X189077545Y-126705464D01*
X189115722Y-126789238D01*
X189140180Y-126881176D01*
X189153228Y-126990247D01*
X189157172Y-127125421D01*
X189160135Y-127239477D01*
X189170579Y-127334792D01*
X189189558Y-127401721D01*
X189218114Y-127443791D01*
X189257289Y-127464532D01*
X189295969Y-127466447D01*
X189350957Y-127440911D01*
X189390769Y-127404991D01*
X189426618Y-127347200D01*
X189445907Y-127270681D01*
X189451446Y-127167792D01*
X189450434Y-127117622D01*
X189443153Y-127048665D01*
X189425330Y-126985442D01*
X189392860Y-126909881D01*
X189355547Y-126840964D01*
X189308199Y-126770427D01*
X189263163Y-126717862D01*
X189228070Y-126683749D01*
X189209119Y-126661017D01*
X189212024Y-126651630D01*
X189234331Y-126649789D01*
X189271552Y-126659003D01*
X189330623Y-126690863D01*
X189398733Y-126740680D01*
X189468239Y-126803433D01*
X189480749Y-126816289D01*
X189562708Y-126921908D01*
X189626143Y-127042312D01*
X189669132Y-127170140D01*
X189689756Y-127298027D01*
X189687422Y-127374945D01*
X189686097Y-127418610D01*
X189656233Y-127524528D01*
X189606894Y-127618345D01*
X189540063Y-127702833D01*
X189461289Y-127757510D01*
X189365696Y-127785552D01*
X189248409Y-127790133D01*
X189133428Y-127776967D01*
X189044220Y-127747247D01*
X188974401Y-127697524D01*
X188917025Y-127624324D01*
X188906690Y-127607401D01*
X188889290Y-127575195D01*
X188876758Y-127541932D01*
X188867815Y-127500685D01*
X188861181Y-127444526D01*
X188855579Y-127366529D01*
X188849729Y-127259767D01*
X188845658Y-127186140D01*
X188837747Y-127076304D01*
X188827988Y-126992734D01*
X188814951Y-126929328D01*
X188797208Y-126879979D01*
X188773330Y-126838583D01*
X188741888Y-126799034D01*
X188736586Y-126793064D01*
X188667859Y-126729427D01*
X188592366Y-126688236D01*
X188501134Y-126665971D01*
X188385187Y-126659112D01*
X188229234Y-126658721D01*
X188162818Y-126725093D01*
X188127707Y-126763785D01*
X188103702Y-126806551D01*
X188098136Y-126852686D01*
X188099014Y-126871789D01*
X188114091Y-126965604D01*
X188149100Y-127061360D01*
X188206931Y-127165544D01*
X188290473Y-127284646D01*
X188373297Y-127398421D01*
X188458128Y-127529642D01*
X188516648Y-127642217D01*
X188549738Y-127738256D01*
X188558279Y-127819864D01*
X188543151Y-127889149D01*
X188540266Y-127896433D01*
X188526962Y-127947568D01*
X188526620Y-127987877D01*
X188527666Y-128010263D01*
X188521030Y-128030821D01*
X188510189Y-128064403D01*
X188471521Y-128128893D01*
G37*
G36*
X187147176Y-127403023D02*
G01*
X187156821Y-127426794D01*
X187154806Y-127439119D01*
X187138959Y-127453587D01*
X187130742Y-127450564D01*
X187121097Y-127426794D01*
X187123112Y-127414468D01*
X187138959Y-127400000D01*
X187147176Y-127403023D01*
G37*
G36*
X188389553Y-127694726D02*
G01*
X188381196Y-127708572D01*
X188350175Y-127723171D01*
X188349646Y-127723306D01*
X188309452Y-127728055D01*
X188288204Y-127720391D01*
X188293978Y-127703186D01*
X188306537Y-127694645D01*
X188340737Y-127684240D01*
X188373774Y-127683793D01*
X188389553Y-127694726D01*
G37*
D13*
X164100000Y-114400000D03*
D14*
X164100000Y-116940000D03*
D15*
X197530000Y-111800000D03*
D16*
X197530000Y-114340000D03*
X197530000Y-116880000D03*
D17*
X170415000Y-121495000D03*
X170415000Y-122345000D03*
X170415000Y-123195000D03*
X170415000Y-124045000D03*
X170415000Y-124895000D03*
X170415000Y-125745000D03*
X170415000Y-126595000D03*
X170415000Y-127445000D03*
X169065000Y-127445000D03*
X169065000Y-126595000D03*
X169065000Y-125745000D03*
X169065000Y-124895000D03*
X169065000Y-124045000D03*
X169065000Y-123195000D03*
X169065000Y-122345000D03*
X169065000Y-121495000D03*
D18*
X169915000Y-120150000D03*
D19*
X165765000Y-120150000D03*
X165765000Y-128790000D03*
D18*
X169915000Y-128790000D03*
D13*
X167888000Y-114312000D03*
D14*
X170428000Y-114312000D03*
X172968000Y-114312000D03*
X175508000Y-114312000D03*
X178048000Y-114312000D03*
X180588000Y-114312000D03*
X183128000Y-114312000D03*
X185668000Y-114312000D03*
X188208000Y-114312000D03*
X190748000Y-114312000D03*
X193288000Y-114312000D03*
D20*
X169925000Y-118000000D03*
X168275000Y-118000000D03*
D21*
X193600000Y-117375000D03*
X193600000Y-118025000D03*
X193600000Y-118675000D03*
X193600000Y-119325000D03*
X193600000Y-119975000D03*
X193600000Y-120625000D03*
X193600000Y-121275000D03*
X193600000Y-121925000D03*
X193600000Y-122575000D03*
X193600000Y-123225000D03*
X186600000Y-123225000D03*
X186600000Y-122575000D03*
X186600000Y-121925000D03*
X186600000Y-121275000D03*
X186600000Y-120625000D03*
X186600000Y-119975000D03*
X186600000Y-119325000D03*
X186600000Y-118675000D03*
X186600000Y-118025000D03*
X186600000Y-117375000D03*
D22*
X174775000Y-116350000D03*
X176425000Y-116350000D03*
D23*
X176375000Y-121000000D03*
X174825000Y-121000000D03*
D20*
X167475000Y-121850000D03*
X165825000Y-121850000D03*
D24*
X174825000Y-117900000D03*
X176375000Y-117900000D03*
D20*
X183575000Y-117200000D03*
X181925000Y-117200000D03*
D25*
X178995000Y-119350000D03*
X180265000Y-119350000D03*
X181535000Y-119350000D03*
X182805000Y-119350000D03*
X182805000Y-126350000D03*
X181535000Y-126350000D03*
X180265000Y-126350000D03*
X178995000Y-126350000D03*
D24*
X174825000Y-119450000D03*
X176375000Y-119450000D03*
D26*
X194100000Y-128200000D03*
X191150000Y-126950000D03*
X194100000Y-125700000D03*
X191600000Y-128200000D03*
X192850000Y-125250000D03*
X192850000Y-128650000D03*
D27*
X192850000Y-126950000D03*
D26*
X194550000Y-126950000D03*
X191600000Y-125700000D03*
D28*
X172400000Y-123125000D03*
X172400000Y-124775000D03*
D27*
X165900000Y-125100000D03*
D26*
X167150000Y-126350000D03*
X167150000Y-123850000D03*
X164650000Y-126350000D03*
X164200000Y-125100000D03*
X165900000Y-126800000D03*
X164650000Y-123850000D03*
X167600000Y-125100000D03*
X165900000Y-123400000D03*
M02*
