%TF.GenerationSoftware,KiCad,Pcbnew,(6.0.2)*%
%TF.CreationDate,2022-05-02T21:41:20-07:00*%
%TF.ProjectId,hcms_dot_display_bottom,68636d73-5f64-46f7-945f-646973706c61,rev?*%
%TF.SameCoordinates,Original*%
%TF.FileFunction,Copper,L2,Bot*%
%TF.FilePolarity,Positive*%
%FSLAX46Y46*%
G04 Gerber Fmt 4.6, Leading zero omitted, Abs format (unit mm)*
G04 Created by KiCad (PCBNEW (6.0.2)) date 2022-05-02 21:41:20*
%MOMM*%
%LPD*%
G01*
G04 APERTURE LIST*
G04 Aperture macros list*
%AMRoundRect*
0 Rectangle with rounded corners*
0 $1 Rounding radius*
0 $2 $3 $4 $5 $6 $7 $8 $9 X,Y pos of 4 corners*
0 Add a 4 corners polygon primitive as box body*
4,1,4,$2,$3,$4,$5,$6,$7,$8,$9,$2,$3,0*
0 Add four circle primitives for the rounded corners*
1,1,$1+$1,$2,$3*
1,1,$1+$1,$4,$5*
1,1,$1+$1,$6,$7*
1,1,$1+$1,$8,$9*
0 Add four rect primitives between the rounded corners*
20,1,$1+$1,$2,$3,$4,$5,0*
20,1,$1+$1,$4,$5,$6,$7,0*
20,1,$1+$1,$6,$7,$8,$9,0*
20,1,$1+$1,$8,$9,$2,$3,0*%
G04 Aperture macros list end*
%TA.AperFunction,ComponentPad*%
%ADD10R,1.700000X1.700000*%
%TD*%
%TA.AperFunction,ComponentPad*%
%ADD11O,1.700000X1.700000*%
%TD*%
%TA.AperFunction,ComponentPad*%
%ADD12R,1.160000X1.160000*%
%TD*%
%TA.AperFunction,ComponentPad*%
%ADD13C,1.160000*%
%TD*%
%TA.AperFunction,ComponentPad*%
%ADD14C,0.600000*%
%TD*%
%TA.AperFunction,ComponentPad*%
%ADD15O,3.200000X1.300000*%
%TD*%
%TA.AperFunction,ComponentPad*%
%ADD16O,2.500000X1.300000*%
%TD*%
%TA.AperFunction,SMDPad,CuDef*%
%ADD17RoundRect,0.200000X0.200000X0.275000X-0.200000X0.275000X-0.200000X-0.275000X0.200000X-0.275000X0*%
%TD*%
%TA.AperFunction,SMDPad,CuDef*%
%ADD18RoundRect,0.125000X0.825000X0.125000X-0.825000X0.125000X-0.825000X-0.125000X0.825000X-0.125000X0*%
%TD*%
%TA.AperFunction,SMDPad,CuDef*%
%ADD19RoundRect,0.200000X-0.200000X-0.275000X0.200000X-0.275000X0.200000X0.275000X-0.200000X0.275000X0*%
%TD*%
%TA.AperFunction,SMDPad,CuDef*%
%ADD20RoundRect,0.225000X0.225000X0.250000X-0.225000X0.250000X-0.225000X-0.250000X0.225000X-0.250000X0*%
%TD*%
%TA.AperFunction,SMDPad,CuDef*%
%ADD21RoundRect,0.225000X-0.225000X-0.250000X0.225000X-0.250000X0.225000X0.250000X-0.225000X0.250000X0*%
%TD*%
%TA.AperFunction,SMDPad,CuDef*%
%ADD22RoundRect,0.150000X-0.150000X0.800000X-0.150000X-0.800000X0.150000X-0.800000X0.150000X0.800000X0*%
%TD*%
%TA.AperFunction,ComponentPad*%
%ADD23C,0.700000*%
%TD*%
%TA.AperFunction,ComponentPad*%
%ADD24C,4.400000*%
%TD*%
%TA.AperFunction,SMDPad,CuDef*%
%ADD25RoundRect,0.200000X-0.275000X0.200000X-0.275000X-0.200000X0.275000X-0.200000X0.275000X0.200000X0*%
%TD*%
%TA.AperFunction,ViaPad*%
%ADD26C,0.600000*%
%TD*%
%TA.AperFunction,Conductor*%
%ADD27C,0.381000*%
%TD*%
%TA.AperFunction,Conductor*%
%ADD28C,0.200000*%
%TD*%
%TA.AperFunction,Conductor*%
%ADD29C,0.250000*%
%TD*%
%TA.AperFunction,Conductor*%
%ADD30C,0.152400*%
%TD*%
%TA.AperFunction,Conductor*%
%ADD31C,0.254000*%
%TD*%
G04 APERTURE END LIST*
D10*
X164100000Y-114400000D03*
D11*
X164100000Y-116940000D03*
D12*
X197530000Y-111800000D03*
D13*
X197530000Y-114340000D03*
X197530000Y-116880000D03*
D14*
X170415000Y-121495000D03*
X170415000Y-122345000D03*
X170415000Y-123195000D03*
X170415000Y-124045000D03*
X170415000Y-124895000D03*
X170415000Y-125745000D03*
X170415000Y-126595000D03*
X170415000Y-127445000D03*
X169065000Y-127445000D03*
X169065000Y-126595000D03*
X169065000Y-125745000D03*
X169065000Y-124895000D03*
X169065000Y-124045000D03*
X169065000Y-123195000D03*
X169065000Y-122345000D03*
X169065000Y-121495000D03*
D15*
X169915000Y-120150000D03*
D16*
X165765000Y-120150000D03*
X165765000Y-128790000D03*
D15*
X169915000Y-128790000D03*
D10*
X167888000Y-114312000D03*
D11*
X170428000Y-114312000D03*
X172968000Y-114312000D03*
X175508000Y-114312000D03*
X178048000Y-114312000D03*
X180588000Y-114312000D03*
X183128000Y-114312000D03*
X185668000Y-114312000D03*
X188208000Y-114312000D03*
X190748000Y-114312000D03*
X193288000Y-114312000D03*
D17*
X169925000Y-118000000D03*
X168275000Y-118000000D03*
D18*
X193600000Y-117375000D03*
X193600000Y-118025000D03*
X193600000Y-118675000D03*
X193600000Y-119325000D03*
X193600000Y-119975000D03*
X193600000Y-120625000D03*
X193600000Y-121275000D03*
X193600000Y-121925000D03*
X193600000Y-122575000D03*
X193600000Y-123225000D03*
X186600000Y-123225000D03*
X186600000Y-122575000D03*
X186600000Y-121925000D03*
X186600000Y-121275000D03*
X186600000Y-120625000D03*
X186600000Y-119975000D03*
X186600000Y-119325000D03*
X186600000Y-118675000D03*
X186600000Y-118025000D03*
X186600000Y-117375000D03*
D19*
X174775000Y-116350000D03*
X176425000Y-116350000D03*
D20*
X176375000Y-121000000D03*
X174825000Y-121000000D03*
D17*
X167475000Y-121850000D03*
X165825000Y-121850000D03*
D21*
X174825000Y-117900000D03*
X176375000Y-117900000D03*
D17*
X183575000Y-117200000D03*
X181925000Y-117200000D03*
D22*
X178995000Y-119350000D03*
X180265000Y-119350000D03*
X181535000Y-119350000D03*
X182805000Y-119350000D03*
X182805000Y-126350000D03*
X181535000Y-126350000D03*
X180265000Y-126350000D03*
X178995000Y-126350000D03*
D21*
X174825000Y-119450000D03*
X176375000Y-119450000D03*
D23*
X194100000Y-128200000D03*
X191150000Y-126950000D03*
X194100000Y-125700000D03*
X191600000Y-128200000D03*
X192850000Y-125250000D03*
X192850000Y-128650000D03*
D24*
X192850000Y-126950000D03*
D23*
X194550000Y-126950000D03*
X191600000Y-125700000D03*
D25*
X172400000Y-123125000D03*
X172400000Y-124775000D03*
D24*
X165900000Y-125100000D03*
D23*
X167150000Y-126350000D03*
X167150000Y-123850000D03*
X164650000Y-126350000D03*
X164200000Y-125100000D03*
X165900000Y-126800000D03*
X164650000Y-123850000D03*
X167600000Y-125100000D03*
X165900000Y-123400000D03*
D26*
X171550000Y-123900000D03*
X194450000Y-115850000D03*
X177150000Y-123250000D03*
X175434724Y-121791744D03*
X190617182Y-119686433D03*
X189050000Y-115600000D03*
X172350000Y-127100000D03*
X185450000Y-116300000D03*
X182250000Y-122500000D03*
X180300000Y-121050000D03*
X191680000Y-116230000D03*
X188650000Y-120850000D03*
X171200000Y-118000000D03*
X189500000Y-118600000D03*
X174000000Y-118700000D03*
X174150000Y-120100000D03*
X195250000Y-111900000D03*
X188825000Y-117975000D03*
X184650000Y-123800000D03*
X185350000Y-123200000D03*
X195950000Y-111200000D03*
X195800000Y-112700000D03*
X179500000Y-121500000D03*
X182450000Y-124400000D03*
X183900000Y-118550000D03*
X194800000Y-119350000D03*
X194800000Y-118050000D03*
D27*
X171100000Y-116350000D02*
X170365000Y-115615000D01*
X170365000Y-115615000D02*
X170365000Y-114350000D01*
X174775000Y-116350000D02*
X171100000Y-116350000D01*
D28*
X185605000Y-114350000D02*
X186754511Y-115499511D01*
X186754511Y-115499511D02*
X187799511Y-115499511D01*
X192275000Y-119975000D02*
X194150000Y-119975000D01*
X187799511Y-115499511D02*
X192275000Y-119975000D01*
D29*
X188145000Y-114350000D02*
X188750000Y-114350000D01*
X192398480Y-118305959D02*
X192767521Y-118675000D01*
X188750000Y-114350000D02*
X192398480Y-117998480D01*
X192767521Y-118675000D02*
X194150000Y-118675000D01*
X192398480Y-117998480D02*
X192398480Y-118305959D01*
D30*
X171550000Y-124000000D02*
X171550000Y-123900000D01*
D27*
X174825000Y-121000000D02*
X174825000Y-121182020D01*
D29*
X170415000Y-121495000D02*
X170415000Y-120650000D01*
D30*
X172325000Y-124775000D02*
X171550000Y-124000000D01*
D29*
X169065000Y-121495000D02*
X169065000Y-121000000D01*
D27*
X176375000Y-119450000D02*
X174825000Y-121000000D01*
D30*
X172400000Y-124775000D02*
X172325000Y-124775000D01*
D27*
X174825000Y-121182020D02*
X175434724Y-121791744D01*
D29*
X169065000Y-121000000D02*
X169915000Y-120150000D01*
X170415000Y-120650000D02*
X169915000Y-120150000D01*
D31*
X182805000Y-118805000D02*
X181925000Y-117925000D01*
X182805000Y-119350000D02*
X182805000Y-118805000D01*
X181925000Y-117925000D02*
X181925000Y-117200000D01*
X180265000Y-119350000D02*
X178995000Y-119350000D01*
D29*
X192825000Y-117375000D02*
X194150000Y-117375000D01*
X189500000Y-118600000D02*
X188650000Y-119450000D01*
X188650000Y-119450000D02*
X188650000Y-120850000D01*
X191680000Y-116230000D02*
X192825000Y-117375000D01*
D31*
X180300000Y-121000000D02*
X180300000Y-119385000D01*
X180300000Y-119385000D02*
X180265000Y-119350000D01*
X180265000Y-119350000D02*
X181535000Y-119350000D01*
D27*
X169925000Y-118000000D02*
X171150000Y-118000000D01*
D30*
X172400000Y-123125000D02*
X172330000Y-123195000D01*
X172330000Y-123195000D02*
X170415000Y-123195000D01*
X173049280Y-125450720D02*
X173250000Y-125250000D01*
D28*
X170415000Y-124045000D02*
X170415000Y-124047162D01*
D30*
X170415001Y-124047174D02*
X171800012Y-125432185D01*
X173250000Y-119475000D02*
X174825000Y-117900000D01*
X173250000Y-125250000D02*
X173250000Y-119475000D01*
X171800000Y-125432173D02*
X171800000Y-125450000D01*
X171800723Y-125450727D02*
X173049286Y-125450727D01*
X170545000Y-124895000D02*
X170415000Y-124895000D01*
X173247360Y-125802640D02*
X171452640Y-125802640D01*
X173700000Y-120600000D02*
X173700000Y-125350000D01*
X169915000Y-124895000D02*
X169055002Y-124035002D01*
X169915000Y-124895000D02*
X170415000Y-124895000D01*
X174825000Y-119475000D02*
X173700000Y-120600000D01*
X171452640Y-125802640D02*
X170545000Y-124895000D01*
X174825000Y-119450000D02*
X174825000Y-119475000D01*
X173700000Y-125350000D02*
X173247360Y-125802640D01*
X168489289Y-123739289D02*
X168489289Y-125133468D01*
X167475000Y-121850000D02*
X167475000Y-122725000D01*
X168975810Y-125619989D02*
X169055002Y-125619989D01*
X168489289Y-125133468D02*
X168975810Y-125619989D01*
X167475000Y-122725000D02*
X168489289Y-123739289D01*
X194925000Y-121925000D02*
X193900000Y-121925000D01*
X195701920Y-121148080D02*
X194925000Y-121925000D01*
X195250000Y-111900000D02*
X195150000Y-112000000D01*
X195150000Y-116602310D02*
X195701920Y-117154230D01*
X195701920Y-117154230D02*
X195701920Y-121148080D01*
X195150000Y-112000000D02*
X195150000Y-116602310D01*
D28*
X192802876Y-121275000D02*
X194150000Y-121275000D01*
X186600000Y-115950000D02*
X187788230Y-115950000D01*
X186149511Y-115499511D02*
X186600000Y-115950000D01*
X192423480Y-120895604D02*
X192802876Y-121275000D01*
X187788230Y-115950000D02*
X192423480Y-120585250D01*
X192423480Y-120585250D02*
X192423480Y-120895604D01*
X183065000Y-114350000D02*
X184214511Y-115499511D01*
X184214511Y-115499511D02*
X186149511Y-115499511D01*
D29*
X188825000Y-117975000D02*
X188125000Y-118675000D01*
X188125000Y-118675000D02*
X187150000Y-118675000D01*
D30*
X190684988Y-114350013D02*
X192934975Y-116600000D01*
X195423000Y-117373000D02*
X195423000Y-120227000D01*
X195423000Y-120227000D02*
X195024994Y-120625006D01*
X194650000Y-116600000D02*
X195423000Y-117373000D01*
X192934975Y-116600000D02*
X194650000Y-116600000D01*
X195024994Y-120625006D02*
X194150005Y-120625006D01*
D29*
X185375000Y-119975000D02*
X187150000Y-119975000D01*
X184650000Y-120700000D02*
X185375000Y-119975000D01*
X184650000Y-123800000D02*
X184650000Y-120700000D01*
D28*
X185350000Y-123200000D02*
X186575000Y-123200000D01*
X186575000Y-123200000D02*
X186600000Y-123225000D01*
D30*
X194620380Y-123225000D02*
X193600000Y-123225000D01*
X196450000Y-121395380D02*
X194620380Y-123225000D01*
X196450000Y-111700000D02*
X196450000Y-121395380D01*
X195950000Y-111200000D02*
X196450000Y-111700000D01*
X195800000Y-112700000D02*
X195700000Y-112800000D01*
X194772690Y-122575000D02*
X193900000Y-122575000D01*
X195700000Y-115000000D02*
X195700000Y-116654620D01*
X195700000Y-112800000D02*
X195700000Y-115000000D01*
X195700000Y-116654620D02*
X196053840Y-117008460D01*
X196053840Y-117008460D02*
X196053840Y-121293850D01*
X196053840Y-121293850D02*
X194772690Y-122575000D01*
D31*
X179500000Y-121500000D02*
X182400000Y-124400000D01*
X182400000Y-124400000D02*
X182450000Y-124400000D01*
X168200000Y-121516021D02*
X168200000Y-121200000D01*
X169033979Y-122350000D02*
X168200000Y-121516021D01*
X170274991Y-122350000D02*
X169033979Y-122350000D01*
X170274991Y-126600000D02*
X169185013Y-126600000D01*
X167700000Y-118575000D02*
X168275000Y-118000000D01*
X167700000Y-120700000D02*
X167700000Y-118575000D01*
X168200000Y-121200000D02*
X167700000Y-120700000D01*
X170405002Y-126469989D02*
X170274991Y-126600000D01*
D29*
X187150000Y-118025000D02*
X184400000Y-118025000D01*
X184400000Y-118025000D02*
X183575000Y-117200000D01*
D27*
X177850000Y-121000000D02*
X177850000Y-116800000D01*
X178995000Y-126350000D02*
X178995000Y-122145000D01*
X177850000Y-121000000D02*
X176375000Y-121000000D01*
X180265000Y-126350000D02*
X178995000Y-126350000D01*
X178995000Y-122145000D02*
X177850000Y-121000000D01*
X177400000Y-116350000D02*
X176425000Y-116350000D01*
X182805000Y-126350000D02*
X181535000Y-126350000D01*
X181535000Y-126350000D02*
X180265000Y-126350000D01*
X177850000Y-116800000D02*
X177400000Y-116350000D01*
D28*
X184675000Y-119325000D02*
X186600000Y-119325000D01*
X183900000Y-118550000D02*
X184675000Y-119325000D01*
X194775000Y-119325000D02*
X193900000Y-119325000D01*
X194800000Y-119350000D02*
X194775000Y-119325000D01*
X194800000Y-118050000D02*
X194775000Y-118025000D01*
X194775000Y-118025000D02*
X193900000Y-118025000D01*
%TA.AperFunction,Conductor*%
G36*
X197998121Y-110194002D02*
G01*
X198044614Y-110247658D01*
X198056000Y-110300000D01*
X198056000Y-110839500D01*
X198035998Y-110907621D01*
X197982342Y-110954114D01*
X197930000Y-110965500D01*
X196977890Y-110965501D01*
X196924934Y-110965501D01*
X196889182Y-110972612D01*
X196862874Y-110977844D01*
X196862872Y-110977845D01*
X196850699Y-110980266D01*
X196840379Y-110987161D01*
X196840378Y-110987162D01*
X196779985Y-111027516D01*
X196766516Y-111036516D01*
X196759623Y-111046832D01*
X196719429Y-111106986D01*
X196664952Y-111152514D01*
X196594509Y-111161361D01*
X196530465Y-111130720D01*
X196492957Y-111069595D01*
X196491306Y-111063432D01*
X196490228Y-111055246D01*
X196482470Y-111036516D01*
X196437515Y-110927986D01*
X196437514Y-110927984D01*
X196434355Y-110920358D01*
X196389915Y-110862442D01*
X196350501Y-110811077D01*
X196350500Y-110811076D01*
X196345474Y-110804526D01*
X196338924Y-110799500D01*
X196338921Y-110799497D01*
X196236196Y-110720673D01*
X196236194Y-110720672D01*
X196229643Y-110715645D01*
X196094754Y-110659772D01*
X195950000Y-110640715D01*
X195941812Y-110641793D01*
X195813432Y-110658694D01*
X195813430Y-110658695D01*
X195805246Y-110659772D01*
X195757430Y-110679578D01*
X195677986Y-110712485D01*
X195677984Y-110712486D01*
X195670358Y-110715645D01*
X195554526Y-110804526D01*
X195465645Y-110920358D01*
X195462486Y-110927984D01*
X195462485Y-110927986D01*
X195441833Y-110977844D01*
X195409772Y-111055246D01*
X195390715Y-111200000D01*
X195391793Y-111208188D01*
X195391793Y-111215793D01*
X195371791Y-111283914D01*
X195318135Y-111330407D01*
X195265793Y-111341793D01*
X195258188Y-111341793D01*
X195250000Y-111340715D01*
X195241812Y-111341793D01*
X195113432Y-111358694D01*
X195113430Y-111358695D01*
X195105246Y-111359772D01*
X195097619Y-111362931D01*
X195097620Y-111362931D01*
X194977986Y-111412485D01*
X194977984Y-111412486D01*
X194970358Y-111415645D01*
X194854526Y-111504526D01*
X194765645Y-111620358D01*
X194709772Y-111755246D01*
X194708695Y-111763430D01*
X194708694Y-111763432D01*
X194695665Y-111862397D01*
X194690715Y-111900000D01*
X194709772Y-112044754D01*
X194712931Y-112052380D01*
X194760913Y-112168217D01*
X194765645Y-112179642D01*
X194770672Y-112186193D01*
X194770674Y-112186197D01*
X194793263Y-112215636D01*
X194818863Y-112281856D01*
X194819300Y-112292339D01*
X194819300Y-116142144D01*
X194799298Y-116210265D01*
X194745642Y-116256758D01*
X194685431Y-116267128D01*
X194679267Y-116265476D01*
X194668291Y-116266436D01*
X194668289Y-116266436D01*
X194641032Y-116268821D01*
X194630051Y-116269300D01*
X193124145Y-116269300D01*
X193056024Y-116249298D01*
X193035050Y-116232395D01*
X191758591Y-114955936D01*
X191724565Y-114893624D01*
X191729630Y-114822809D01*
X191737751Y-114805275D01*
X191740024Y-114801216D01*
X191761334Y-114763165D01*
X191763190Y-114757698D01*
X191763192Y-114757693D01*
X191823863Y-114578962D01*
X192216671Y-114578962D01*
X192241443Y-114676502D01*
X192245284Y-114687348D01*
X192325394Y-114861120D01*
X192331145Y-114871081D01*
X192441579Y-115027343D01*
X192449057Y-115036098D01*
X192586114Y-115169612D01*
X192595058Y-115176855D01*
X192754156Y-115283161D01*
X192764266Y-115288651D01*
X192940077Y-115364185D01*
X192951020Y-115367740D01*
X193016332Y-115382519D01*
X193030405Y-115381630D01*
X193033828Y-115372681D01*
X193542000Y-115372681D01*
X193545966Y-115386187D01*
X193554672Y-115387433D01*
X193733497Y-115326730D01*
X193743994Y-115322056D01*
X193910958Y-115228552D01*
X193920430Y-115222042D01*
X194067553Y-115099682D01*
X194075682Y-115091553D01*
X194198042Y-114944430D01*
X194204552Y-114934958D01*
X194298056Y-114767994D01*
X194302730Y-114757497D01*
X194363443Y-114578644D01*
X194362210Y-114569993D01*
X194348642Y-114566000D01*
X193560115Y-114566000D01*
X193544876Y-114570475D01*
X193543671Y-114571865D01*
X193542000Y-114579548D01*
X193542000Y-115372681D01*
X193033828Y-115372681D01*
X193034000Y-115372232D01*
X193034000Y-114584115D01*
X193029525Y-114568876D01*
X193028135Y-114567671D01*
X193020452Y-114566000D01*
X192231494Y-114566000D01*
X192217963Y-114569973D01*
X192216671Y-114578962D01*
X191823863Y-114578962D01*
X191824728Y-114576414D01*
X191824729Y-114576409D01*
X191826584Y-114570945D01*
X191827412Y-114565236D01*
X191827413Y-114565231D01*
X191851686Y-114397821D01*
X191855712Y-114370053D01*
X191857232Y-114312000D01*
X191838658Y-114109859D01*
X191837090Y-114104299D01*
X191823129Y-114054799D01*
X192215943Y-114054799D01*
X192222675Y-114058000D01*
X193015885Y-114058000D01*
X193031124Y-114053525D01*
X193032329Y-114052135D01*
X193034000Y-114044452D01*
X193034000Y-114039885D01*
X193542000Y-114039885D01*
X193546475Y-114055124D01*
X193547865Y-114056329D01*
X193555548Y-114058000D01*
X194345398Y-114058000D01*
X194358929Y-114054027D01*
X194360098Y-114045892D01*
X194324658Y-113920231D01*
X194320533Y-113909484D01*
X194235903Y-113737871D01*
X194229893Y-113728063D01*
X194115400Y-113574739D01*
X194107710Y-113566199D01*
X193967192Y-113436304D01*
X193958067Y-113429303D01*
X193796236Y-113327195D01*
X193785989Y-113321974D01*
X193608260Y-113251068D01*
X193597232Y-113247801D01*
X193559769Y-113240350D01*
X193546894Y-113241502D01*
X193542000Y-113256658D01*
X193542000Y-114039885D01*
X193034000Y-114039885D01*
X193034000Y-113253500D01*
X193030194Y-113240538D01*
X193015279Y-113238602D01*
X193006732Y-113240071D01*
X192995620Y-113243048D01*
X192816095Y-113309279D01*
X192805717Y-113314229D01*
X192641273Y-113412063D01*
X192631961Y-113418829D01*
X192488097Y-113544994D01*
X192480180Y-113553337D01*
X192361718Y-113703605D01*
X192355450Y-113713256D01*
X192266358Y-113882592D01*
X192261953Y-113893227D01*
X192216162Y-114040698D01*
X192215943Y-114054799D01*
X191823129Y-114054799D01*
X191785125Y-113920046D01*
X191785124Y-113920044D01*
X191783557Y-113914487D01*
X191772978Y-113893033D01*
X191696331Y-113737609D01*
X191693776Y-113732428D01*
X191675197Y-113707547D01*
X191588473Y-113591411D01*
X191572320Y-113569779D01*
X191423258Y-113431987D01*
X191418375Y-113428906D01*
X191418371Y-113428903D01*
X191272728Y-113337010D01*
X191251581Y-113323667D01*
X191063039Y-113248446D01*
X191057379Y-113247320D01*
X191057375Y-113247319D01*
X190869613Y-113209971D01*
X190869610Y-113209971D01*
X190863946Y-113208844D01*
X190858171Y-113208768D01*
X190858167Y-113208768D01*
X190756793Y-113207441D01*
X190660971Y-113206187D01*
X190655274Y-113207166D01*
X190655273Y-113207166D01*
X190567397Y-113222266D01*
X190460910Y-113240564D01*
X190270463Y-113310824D01*
X190096010Y-113414612D01*
X190091670Y-113418418D01*
X190091666Y-113418421D01*
X189952350Y-113540599D01*
X189943392Y-113548455D01*
X189817720Y-113707869D01*
X189815031Y-113712980D01*
X189815029Y-113712983D01*
X189802073Y-113737609D01*
X189723203Y-113887515D01*
X189663007Y-114081378D01*
X189639148Y-114282964D01*
X189639526Y-114288730D01*
X189646676Y-114397821D01*
X189631172Y-114467104D01*
X189580672Y-114517007D01*
X189511210Y-114531685D01*
X189444838Y-114506479D01*
X189431851Y-114495157D01*
X189353762Y-114417068D01*
X189319736Y-114354756D01*
X189316900Y-114324674D01*
X189317135Y-114315703D01*
X189317232Y-114312000D01*
X189298658Y-114109859D01*
X189297090Y-114104299D01*
X189245125Y-113920046D01*
X189245124Y-113920044D01*
X189243557Y-113914487D01*
X189232978Y-113893033D01*
X189156331Y-113737609D01*
X189153776Y-113732428D01*
X189135197Y-113707547D01*
X189048473Y-113591411D01*
X189032320Y-113569779D01*
X188883258Y-113431987D01*
X188878375Y-113428906D01*
X188878371Y-113428903D01*
X188732728Y-113337010D01*
X188711581Y-113323667D01*
X188523039Y-113248446D01*
X188517379Y-113247320D01*
X188517375Y-113247319D01*
X188329613Y-113209971D01*
X188329610Y-113209971D01*
X188323946Y-113208844D01*
X188318171Y-113208768D01*
X188318167Y-113208768D01*
X188216793Y-113207441D01*
X188120971Y-113206187D01*
X188115274Y-113207166D01*
X188115273Y-113207166D01*
X188027397Y-113222266D01*
X187920910Y-113240564D01*
X187730463Y-113310824D01*
X187556010Y-113414612D01*
X187551670Y-113418418D01*
X187551666Y-113418421D01*
X187412350Y-113540599D01*
X187403392Y-113548455D01*
X187277720Y-113707869D01*
X187275031Y-113712980D01*
X187275029Y-113712983D01*
X187262073Y-113737609D01*
X187183203Y-113887515D01*
X187123007Y-114081378D01*
X187099148Y-114282964D01*
X187112424Y-114485522D01*
X187113845Y-114491118D01*
X187113846Y-114491123D01*
X187160927Y-114676502D01*
X187162392Y-114682269D01*
X187164809Y-114687512D01*
X187201912Y-114767994D01*
X187247377Y-114866616D01*
X187250707Y-114871328D01*
X187250710Y-114871333D01*
X187303685Y-114946291D01*
X187326666Y-115013466D01*
X187309681Y-115082401D01*
X187258124Y-115131210D01*
X187200788Y-115145011D01*
X186953541Y-115145011D01*
X186885420Y-115125009D01*
X186864446Y-115108106D01*
X186690683Y-114934343D01*
X186656657Y-114872031D01*
X186661722Y-114801216D01*
X186669839Y-114783691D01*
X186681334Y-114763165D01*
X186683190Y-114757698D01*
X186683192Y-114757693D01*
X186744728Y-114576414D01*
X186744729Y-114576409D01*
X186746584Y-114570945D01*
X186747412Y-114565236D01*
X186747413Y-114565231D01*
X186771686Y-114397821D01*
X186775712Y-114370053D01*
X186777232Y-114312000D01*
X186758658Y-114109859D01*
X186757090Y-114104299D01*
X186705125Y-113920046D01*
X186705124Y-113920044D01*
X186703557Y-113914487D01*
X186692978Y-113893033D01*
X186616331Y-113737609D01*
X186613776Y-113732428D01*
X186595197Y-113707547D01*
X186508473Y-113591411D01*
X186492320Y-113569779D01*
X186343258Y-113431987D01*
X186338375Y-113428906D01*
X186338371Y-113428903D01*
X186192728Y-113337010D01*
X186171581Y-113323667D01*
X185983039Y-113248446D01*
X185977379Y-113247320D01*
X185977375Y-113247319D01*
X185789613Y-113209971D01*
X185789610Y-113209971D01*
X185783946Y-113208844D01*
X185778171Y-113208768D01*
X185778167Y-113208768D01*
X185676793Y-113207441D01*
X185580971Y-113206187D01*
X185575274Y-113207166D01*
X185575273Y-113207166D01*
X185487397Y-113222266D01*
X185380910Y-113240564D01*
X185190463Y-113310824D01*
X185016010Y-113414612D01*
X185011670Y-113418418D01*
X185011666Y-113418421D01*
X184872350Y-113540599D01*
X184863392Y-113548455D01*
X184737720Y-113707869D01*
X184735031Y-113712980D01*
X184735029Y-113712983D01*
X184722073Y-113737609D01*
X184643203Y-113887515D01*
X184583007Y-114081378D01*
X184559148Y-114282964D01*
X184572424Y-114485522D01*
X184573845Y-114491118D01*
X184573846Y-114491123D01*
X184620927Y-114676502D01*
X184622392Y-114682269D01*
X184624809Y-114687512D01*
X184661912Y-114767994D01*
X184707377Y-114866616D01*
X184710707Y-114871328D01*
X184710710Y-114871333D01*
X184763685Y-114946291D01*
X184786666Y-115013466D01*
X184769681Y-115082401D01*
X184718124Y-115131210D01*
X184660788Y-115145011D01*
X184413541Y-115145011D01*
X184345420Y-115125009D01*
X184324446Y-115108106D01*
X184150683Y-114934343D01*
X184116657Y-114872031D01*
X184121722Y-114801216D01*
X184129839Y-114783691D01*
X184141334Y-114763165D01*
X184143190Y-114757698D01*
X184143192Y-114757693D01*
X184204728Y-114576414D01*
X184204729Y-114576409D01*
X184206584Y-114570945D01*
X184207412Y-114565236D01*
X184207413Y-114565231D01*
X184231686Y-114397821D01*
X184235712Y-114370053D01*
X184237232Y-114312000D01*
X184218658Y-114109859D01*
X184217090Y-114104299D01*
X184165125Y-113920046D01*
X184165124Y-113920044D01*
X184163557Y-113914487D01*
X184152978Y-113893033D01*
X184076331Y-113737609D01*
X184073776Y-113732428D01*
X184055197Y-113707547D01*
X183968473Y-113591411D01*
X183952320Y-113569779D01*
X183803258Y-113431987D01*
X183798375Y-113428906D01*
X183798371Y-113428903D01*
X183652728Y-113337010D01*
X183631581Y-113323667D01*
X183443039Y-113248446D01*
X183437379Y-113247320D01*
X183437375Y-113247319D01*
X183249613Y-113209971D01*
X183249610Y-113209971D01*
X183243946Y-113208844D01*
X183238171Y-113208768D01*
X183238167Y-113208768D01*
X183136793Y-113207441D01*
X183040971Y-113206187D01*
X183035274Y-113207166D01*
X183035273Y-113207166D01*
X182947397Y-113222266D01*
X182840910Y-113240564D01*
X182650463Y-113310824D01*
X182476010Y-113414612D01*
X182471670Y-113418418D01*
X182471666Y-113418421D01*
X182332350Y-113540599D01*
X182323392Y-113548455D01*
X182197720Y-113707869D01*
X182195031Y-113712980D01*
X182195029Y-113712983D01*
X182182073Y-113737609D01*
X182103203Y-113887515D01*
X182043007Y-114081378D01*
X182019148Y-114282964D01*
X182032424Y-114485522D01*
X182033845Y-114491118D01*
X182033846Y-114491123D01*
X182080927Y-114676502D01*
X182082392Y-114682269D01*
X182084809Y-114687512D01*
X182121912Y-114767994D01*
X182167377Y-114866616D01*
X182170710Y-114871332D01*
X182271160Y-115013466D01*
X182284533Y-115032389D01*
X182288675Y-115036424D01*
X182353612Y-115099682D01*
X182429938Y-115174035D01*
X182598720Y-115286812D01*
X182604023Y-115289090D01*
X182604026Y-115289092D01*
X182770697Y-115360699D01*
X182785228Y-115366942D01*
X182850140Y-115381630D01*
X182977579Y-115410467D01*
X182977584Y-115410468D01*
X182983216Y-115411742D01*
X182988987Y-115411969D01*
X182988989Y-115411969D01*
X183048756Y-115414317D01*
X183186053Y-115419712D01*
X183293348Y-115404155D01*
X183381231Y-115391413D01*
X183381236Y-115391412D01*
X183386945Y-115390584D01*
X183392422Y-115388725D01*
X183413323Y-115381630D01*
X183474984Y-115360699D01*
X183545918Y-115357743D01*
X183604579Y-115390917D01*
X183927593Y-115713931D01*
X183940098Y-115729413D01*
X183943034Y-115732640D01*
X183948686Y-115741393D01*
X183972949Y-115760520D01*
X183976944Y-115764070D01*
X183977028Y-115763971D01*
X183980991Y-115767329D01*
X183984667Y-115771005D01*
X183988896Y-115774028D01*
X183988897Y-115774028D01*
X183999163Y-115781365D01*
X184003906Y-115784926D01*
X184033186Y-115808008D01*
X184033190Y-115808010D01*
X184041368Y-115814457D01*
X184049436Y-115817290D01*
X184056396Y-115822264D01*
X184066374Y-115825248D01*
X184102097Y-115835931D01*
X184107746Y-115837767D01*
X184152719Y-115853561D01*
X184157915Y-115854011D01*
X184160620Y-115854011D01*
X184162876Y-115854108D01*
X184163352Y-115854251D01*
X184163350Y-115854297D01*
X184163549Y-115854310D01*
X184169466Y-115856079D01*
X184219635Y-115854108D01*
X184224581Y-115854011D01*
X185950482Y-115854011D01*
X186018603Y-115874013D01*
X186039577Y-115890916D01*
X186313084Y-116164423D01*
X186325592Y-116179909D01*
X186328526Y-116183134D01*
X186334175Y-116191882D01*
X186342352Y-116198328D01*
X186358430Y-116211003D01*
X186362431Y-116214559D01*
X186362516Y-116214459D01*
X186366473Y-116217812D01*
X186370156Y-116221495D01*
X186374391Y-116224521D01*
X186374393Y-116224523D01*
X186384669Y-116231866D01*
X186389417Y-116235431D01*
X186418677Y-116258498D01*
X186418679Y-116258499D01*
X186426857Y-116264946D01*
X186434927Y-116267780D01*
X186441886Y-116272753D01*
X186451864Y-116275737D01*
X186451866Y-116275738D01*
X186487576Y-116286417D01*
X186493220Y-116288251D01*
X186538208Y-116304050D01*
X186543404Y-116304500D01*
X186546111Y-116304500D01*
X186548365Y-116304597D01*
X186548841Y-116304740D01*
X186548839Y-116304786D01*
X186549038Y-116304799D01*
X186554955Y-116306568D01*
X186605124Y-116304597D01*
X186610070Y-116304500D01*
X187589201Y-116304500D01*
X187657322Y-116324502D01*
X187678296Y-116341405D01*
X188611547Y-117274656D01*
X188645573Y-117336968D01*
X188640508Y-117407783D01*
X188597961Y-117464619D01*
X188570670Y-117480160D01*
X188552989Y-117487484D01*
X188545358Y-117490645D01*
X188429526Y-117579526D01*
X188340645Y-117695358D01*
X188337486Y-117702984D01*
X188337485Y-117702986D01*
X188307117Y-117776301D01*
X188284772Y-117830246D01*
X188283695Y-117838430D01*
X188283694Y-117838432D01*
X188282166Y-117850042D01*
X188268125Y-117956700D01*
X188267873Y-117958611D01*
X188239151Y-118023538D01*
X188232046Y-118031260D01*
X188019595Y-118243711D01*
X187957283Y-118277737D01*
X187886468Y-118272672D01*
X187829632Y-118230125D01*
X187804821Y-118163605D01*
X187804500Y-118154616D01*
X187804500Y-117864032D01*
X187795899Y-117805605D01*
X187794946Y-117799130D01*
X187794945Y-117799128D01*
X187793519Y-117789439D01*
X187776569Y-117754916D01*
X187764501Y-117684953D01*
X187776471Y-117644053D01*
X187777828Y-117641277D01*
X187780201Y-117627374D01*
X187776944Y-117625158D01*
X187775940Y-117625000D01*
X187738846Y-117625000D01*
X187670725Y-117604998D01*
X187664444Y-117599940D01*
X187664274Y-117600178D01*
X187655797Y-117594132D01*
X187648424Y-117586771D01*
X187633603Y-117579526D01*
X187595962Y-117561127D01*
X187534918Y-117531288D01*
X187525239Y-117529876D01*
X187465495Y-117521160D01*
X187465489Y-117521160D01*
X187460968Y-117520500D01*
X185739032Y-117520500D01*
X185707255Y-117525178D01*
X185674130Y-117530054D01*
X185674128Y-117530055D01*
X185664439Y-117531481D01*
X185616536Y-117555000D01*
X185560378Y-117582572D01*
X185560376Y-117582573D01*
X185551030Y-117587162D01*
X185543673Y-117594532D01*
X185535204Y-117600595D01*
X185532951Y-117597448D01*
X185487857Y-117622105D01*
X185461002Y-117625000D01*
X185432240Y-117625000D01*
X185382072Y-117639731D01*
X185381004Y-117640416D01*
X185345572Y-117645500D01*
X184609384Y-117645500D01*
X184541263Y-117625498D01*
X184520289Y-117608595D01*
X184266405Y-117354711D01*
X184232379Y-117292399D01*
X184229500Y-117265616D01*
X184229500Y-117122626D01*
X185419799Y-117122626D01*
X185423056Y-117124842D01*
X185424060Y-117125000D01*
X186331885Y-117125000D01*
X186347124Y-117120525D01*
X186348329Y-117119135D01*
X186350000Y-117111452D01*
X186350000Y-117106885D01*
X186850000Y-117106885D01*
X186854475Y-117122124D01*
X186855865Y-117123329D01*
X186863548Y-117125000D01*
X187767760Y-117125000D01*
X187781291Y-117121027D01*
X187781843Y-117117186D01*
X187781511Y-117116112D01*
X187742017Y-117035672D01*
X187730057Y-117018967D01*
X187655501Y-116944541D01*
X187638773Y-116932609D01*
X187543561Y-116886069D01*
X187525094Y-116880361D01*
X187465453Y-116871660D01*
X187456353Y-116871000D01*
X186868115Y-116871000D01*
X186852876Y-116875475D01*
X186851671Y-116876865D01*
X186850000Y-116884548D01*
X186850000Y-117106885D01*
X186350000Y-117106885D01*
X186350000Y-116889115D01*
X186345525Y-116873876D01*
X186344135Y-116872671D01*
X186336452Y-116871000D01*
X185743680Y-116871000D01*
X185734519Y-116871670D01*
X185674269Y-116880539D01*
X185655795Y-116886280D01*
X185560672Y-116932983D01*
X185543967Y-116944943D01*
X185469541Y-117019499D01*
X185457609Y-117036227D01*
X185422172Y-117108724D01*
X185419799Y-117122626D01*
X184229500Y-117122626D01*
X184229499Y-116873654D01*
X184229499Y-116870686D01*
X184227849Y-116853217D01*
X184227216Y-116846522D01*
X184227215Y-116846518D01*
X184226493Y-116838873D01*
X184181209Y-116709924D01*
X184100010Y-116599990D01*
X183990076Y-116518791D01*
X183861127Y-116473507D01*
X183853485Y-116472785D01*
X183853482Y-116472784D01*
X183838579Y-116471376D01*
X183829315Y-116470500D01*
X183575172Y-116470500D01*
X183320686Y-116470501D01*
X183317738Y-116470780D01*
X183317729Y-116470780D01*
X183296522Y-116472784D01*
X183296520Y-116472784D01*
X183288873Y-116473507D01*
X183159924Y-116518791D01*
X183049990Y-116599990D01*
X182968791Y-116709924D01*
X182923507Y-116838873D01*
X182920500Y-116870685D01*
X182920501Y-117529314D01*
X182920780Y-117532262D01*
X182920780Y-117532271D01*
X182922075Y-117545976D01*
X182923507Y-117561127D01*
X182968791Y-117690076D01*
X183049990Y-117800010D01*
X183159924Y-117881209D01*
X183288873Y-117926493D01*
X183296515Y-117927215D01*
X183296518Y-117927216D01*
X183311421Y-117928624D01*
X183320685Y-117929500D01*
X183426885Y-117929500D01*
X183495006Y-117949502D01*
X183541499Y-118003158D01*
X183551603Y-118073432D01*
X183522109Y-118138012D01*
X183515980Y-118144595D01*
X183511072Y-118149503D01*
X183504526Y-118154526D01*
X183499503Y-118161072D01*
X183499499Y-118161076D01*
X183430063Y-118251566D01*
X183372725Y-118293433D01*
X183301854Y-118297655D01*
X183241006Y-118263957D01*
X183195723Y-118218674D01*
X183081555Y-118160502D01*
X182986834Y-118145500D01*
X182737213Y-118145500D01*
X182669092Y-118125498D01*
X182648117Y-118108595D01*
X182479778Y-117940255D01*
X182445753Y-117877943D01*
X182450818Y-117807127D01*
X182467523Y-117776301D01*
X182525611Y-117697655D01*
X182525613Y-117697652D01*
X182531209Y-117690076D01*
X182576493Y-117561127D01*
X182579500Y-117529315D01*
X182579499Y-116870686D01*
X182577849Y-116853217D01*
X182577216Y-116846522D01*
X182577215Y-116846518D01*
X182576493Y-116838873D01*
X182531209Y-116709924D01*
X182450010Y-116599990D01*
X182340076Y-116518791D01*
X182211127Y-116473507D01*
X182203485Y-116472785D01*
X182203482Y-116472784D01*
X182188579Y-116471376D01*
X182179315Y-116470500D01*
X181925172Y-116470500D01*
X181670686Y-116470501D01*
X181667738Y-116470780D01*
X181667729Y-116470780D01*
X181646522Y-116472784D01*
X181646520Y-116472784D01*
X181638873Y-116473507D01*
X181509924Y-116518791D01*
X181399990Y-116599990D01*
X181318791Y-116709924D01*
X181273507Y-116838873D01*
X181270500Y-116870685D01*
X181270501Y-117529314D01*
X181270780Y-117532262D01*
X181270780Y-117532271D01*
X181272075Y-117545976D01*
X181273507Y-117561127D01*
X181318791Y-117690076D01*
X181399990Y-117800010D01*
X181407561Y-117805602D01*
X181407564Y-117805605D01*
X181493494Y-117869074D01*
X181536405Y-117925635D01*
X181543448Y-117956700D01*
X181543500Y-117956691D01*
X181543500Y-117956692D01*
X181544352Y-117961810D01*
X181544352Y-117961812D01*
X181546686Y-117975832D01*
X181547521Y-117981698D01*
X181550243Y-118004692D01*
X181538386Y-118074689D01*
X181490568Y-118127167D01*
X181425116Y-118145500D01*
X181353166Y-118145500D01*
X181258445Y-118160502D01*
X181144277Y-118218674D01*
X181053674Y-118309277D01*
X181027255Y-118361127D01*
X181012267Y-118390542D01*
X180963518Y-118442157D01*
X180894603Y-118459223D01*
X180827402Y-118436322D01*
X180787733Y-118390542D01*
X180772745Y-118361127D01*
X180746326Y-118309277D01*
X180655723Y-118218674D01*
X180541555Y-118160502D01*
X180446834Y-118145500D01*
X180083166Y-118145500D01*
X179988445Y-118160502D01*
X179874277Y-118218674D01*
X179783674Y-118309277D01*
X179757255Y-118361127D01*
X179742267Y-118390542D01*
X179693518Y-118442157D01*
X179624603Y-118459223D01*
X179557402Y-118436322D01*
X179517733Y-118390542D01*
X179502745Y-118361127D01*
X179476326Y-118309277D01*
X179385723Y-118218674D01*
X179271555Y-118160502D01*
X179176834Y-118145500D01*
X178813166Y-118145500D01*
X178718445Y-118160502D01*
X178604277Y-118218674D01*
X178513674Y-118309277D01*
X178512000Y-118307603D01*
X178466713Y-118342523D01*
X178395977Y-118348598D01*
X178333185Y-118315466D01*
X178298274Y-118253646D01*
X178295000Y-118225108D01*
X178295000Y-116833887D01*
X178295873Y-116819077D01*
X178298697Y-116795217D01*
X178299804Y-116785864D01*
X178294041Y-116754307D01*
X178289396Y-116728874D01*
X178288746Y-116724970D01*
X178281532Y-116676985D01*
X178281532Y-116676984D01*
X178280132Y-116667674D01*
X178277044Y-116661244D01*
X178275763Y-116654228D01*
X178249053Y-116602809D01*
X178247290Y-116599280D01*
X178226286Y-116555540D01*
X178226285Y-116555539D01*
X178222208Y-116547048D01*
X178217366Y-116541810D01*
X178214079Y-116535482D01*
X178209816Y-116530491D01*
X178173037Y-116493712D01*
X178169608Y-116490146D01*
X178137770Y-116455704D01*
X178131375Y-116448786D01*
X178125081Y-116445130D01*
X178119078Y-116439753D01*
X177738627Y-116059302D01*
X177728772Y-116048213D01*
X177713895Y-116029342D01*
X177708064Y-116021945D01*
X177700317Y-116016590D01*
X177700315Y-116016589D01*
X177671274Y-115996518D01*
X177660409Y-115989009D01*
X177657196Y-115986713D01*
X177618160Y-115957880D01*
X177610581Y-115952282D01*
X177603850Y-115949918D01*
X177597984Y-115945864D01*
X177542766Y-115928401D01*
X177539025Y-115927153D01*
X177493214Y-115911065D01*
X177493209Y-115911064D01*
X177484327Y-115907945D01*
X177477198Y-115907665D01*
X177470400Y-115905515D01*
X177463857Y-115905000D01*
X177411841Y-115905000D01*
X177406895Y-115904903D01*
X177406633Y-115904893D01*
X177350616Y-115902692D01*
X177343581Y-115904557D01*
X177335535Y-115905000D01*
X177128081Y-115905000D01*
X177059960Y-115884998D01*
X177026730Y-115853860D01*
X176955602Y-115757561D01*
X176950010Y-115749990D01*
X176840076Y-115668791D01*
X176711127Y-115623507D01*
X176703485Y-115622785D01*
X176703482Y-115622784D01*
X176688579Y-115621376D01*
X176679315Y-115620500D01*
X176425172Y-115620500D01*
X176170686Y-115620501D01*
X176167738Y-115620780D01*
X176167729Y-115620780D01*
X176146522Y-115622784D01*
X176146520Y-115622784D01*
X176138873Y-115623507D01*
X176009924Y-115668791D01*
X175899990Y-115749990D01*
X175818791Y-115859924D01*
X175773507Y-115988873D01*
X175770500Y-116020685D01*
X175770501Y-116679314D01*
X175770780Y-116682262D01*
X175770780Y-116682271D01*
X175772677Y-116702348D01*
X175773507Y-116711127D01*
X175818791Y-116840076D01*
X175899990Y-116950010D01*
X175907561Y-116955602D01*
X175966690Y-116999276D01*
X176009601Y-117055838D01*
X176015120Y-117126619D01*
X175981496Y-117189149D01*
X175936058Y-117218610D01*
X175926008Y-117222377D01*
X175910425Y-117230908D01*
X175814990Y-117302434D01*
X175802434Y-117314990D01*
X175730908Y-117410425D01*
X175722374Y-117426014D01*
X175718249Y-117437018D01*
X175675609Y-117493783D01*
X175609047Y-117518484D01*
X175539698Y-117503277D01*
X175489579Y-117452992D01*
X175482285Y-117437020D01*
X175478159Y-117426014D01*
X175474917Y-117417365D01*
X175469537Y-117410186D01*
X175469535Y-117410183D01*
X175397923Y-117314633D01*
X175392544Y-117307456D01*
X175372454Y-117292399D01*
X175289817Y-117230465D01*
X175289814Y-117230463D01*
X175282635Y-117225083D01*
X175264420Y-117218255D01*
X175207657Y-117175616D01*
X175182955Y-117109055D01*
X175198161Y-117039706D01*
X175233789Y-116998922D01*
X175292439Y-116955602D01*
X175300010Y-116950010D01*
X175381209Y-116840076D01*
X175426493Y-116711127D01*
X175429500Y-116679315D01*
X175429499Y-116020686D01*
X175428229Y-116007240D01*
X175427216Y-115996522D01*
X175427215Y-115996518D01*
X175426493Y-115988873D01*
X175381209Y-115859924D01*
X175300010Y-115749990D01*
X175190076Y-115668791D01*
X175061127Y-115623507D01*
X175053485Y-115622785D01*
X175053482Y-115622784D01*
X175038579Y-115621376D01*
X175029315Y-115620500D01*
X174775172Y-115620500D01*
X174520686Y-115620501D01*
X174517738Y-115620780D01*
X174517729Y-115620780D01*
X174496522Y-115622784D01*
X174496520Y-115622784D01*
X174488873Y-115623507D01*
X174359924Y-115668791D01*
X174249990Y-115749990D01*
X174244398Y-115757561D01*
X174173270Y-115853860D01*
X174116709Y-115896770D01*
X174071919Y-115905000D01*
X171336515Y-115905000D01*
X171268394Y-115884998D01*
X171247420Y-115868095D01*
X170885002Y-115505677D01*
X170850976Y-115443365D01*
X170856041Y-115372550D01*
X170898588Y-115315714D01*
X170912519Y-115306655D01*
X171056276Y-115226147D01*
X171071715Y-115213307D01*
X171207913Y-115100031D01*
X171212345Y-115096345D01*
X171287261Y-115006269D01*
X171338453Y-114944718D01*
X171338455Y-114944715D01*
X171342147Y-114940276D01*
X171417751Y-114805275D01*
X171438510Y-114768208D01*
X171438511Y-114768206D01*
X171441334Y-114763165D01*
X171443190Y-114757698D01*
X171443192Y-114757693D01*
X171504728Y-114576414D01*
X171504729Y-114576409D01*
X171506584Y-114570945D01*
X171507412Y-114565236D01*
X171507413Y-114565231D01*
X171531686Y-114397821D01*
X171535712Y-114370053D01*
X171537232Y-114312000D01*
X171534564Y-114282964D01*
X171859148Y-114282964D01*
X171872424Y-114485522D01*
X171873845Y-114491118D01*
X171873846Y-114491123D01*
X171920927Y-114676502D01*
X171922392Y-114682269D01*
X171924809Y-114687512D01*
X171961912Y-114767994D01*
X172007377Y-114866616D01*
X172010710Y-114871332D01*
X172111160Y-115013466D01*
X172124533Y-115032389D01*
X172128675Y-115036424D01*
X172193612Y-115099682D01*
X172269938Y-115174035D01*
X172438720Y-115286812D01*
X172444023Y-115289090D01*
X172444026Y-115289092D01*
X172610697Y-115360699D01*
X172625228Y-115366942D01*
X172690140Y-115381630D01*
X172817579Y-115410467D01*
X172817584Y-115410468D01*
X172823216Y-115411742D01*
X172828987Y-115411969D01*
X172828989Y-115411969D01*
X172888756Y-115414317D01*
X173026053Y-115419712D01*
X173133348Y-115404155D01*
X173221231Y-115391413D01*
X173221236Y-115391412D01*
X173226945Y-115390584D01*
X173232409Y-115388729D01*
X173232414Y-115388728D01*
X173413693Y-115327192D01*
X173413698Y-115327190D01*
X173419165Y-115325334D01*
X173425019Y-115322056D01*
X173508923Y-115275067D01*
X173596276Y-115226147D01*
X173611715Y-115213307D01*
X173747913Y-115100031D01*
X173752345Y-115096345D01*
X173827261Y-115006269D01*
X173878453Y-114944718D01*
X173878455Y-114944715D01*
X173882147Y-114940276D01*
X173957751Y-114805275D01*
X173978510Y-114768208D01*
X173978511Y-114768206D01*
X173981334Y-114763165D01*
X173983190Y-114757698D01*
X173983192Y-114757693D01*
X174044728Y-114576414D01*
X174044729Y-114576409D01*
X174046584Y-114570945D01*
X174047412Y-114565236D01*
X174047413Y-114565231D01*
X174071686Y-114397821D01*
X174075712Y-114370053D01*
X174077232Y-114312000D01*
X174074564Y-114282964D01*
X174399148Y-114282964D01*
X174412424Y-114485522D01*
X174413845Y-114491118D01*
X174413846Y-114491123D01*
X174460927Y-114676502D01*
X174462392Y-114682269D01*
X174464809Y-114687512D01*
X174501912Y-114767994D01*
X174547377Y-114866616D01*
X174550710Y-114871332D01*
X174651160Y-115013466D01*
X174664533Y-115032389D01*
X174668675Y-115036424D01*
X174733612Y-115099682D01*
X174809938Y-115174035D01*
X174978720Y-115286812D01*
X174984023Y-115289090D01*
X174984026Y-115289092D01*
X175150697Y-115360699D01*
X175165228Y-115366942D01*
X175230140Y-115381630D01*
X175357579Y-115410467D01*
X175357584Y-115410468D01*
X175363216Y-115411742D01*
X175368987Y-115411969D01*
X175368989Y-115411969D01*
X175428756Y-115414317D01*
X175566053Y-115419712D01*
X175673348Y-115404155D01*
X175761231Y-115391413D01*
X175761236Y-115391412D01*
X175766945Y-115390584D01*
X175772409Y-115388729D01*
X175772414Y-115388728D01*
X175953693Y-115327192D01*
X175953698Y-115327190D01*
X175959165Y-115325334D01*
X175965019Y-115322056D01*
X176048923Y-115275067D01*
X176136276Y-115226147D01*
X176151715Y-115213307D01*
X176287913Y-115100031D01*
X176292345Y-115096345D01*
X176367261Y-115006269D01*
X176418453Y-114944718D01*
X176418455Y-114944715D01*
X176422147Y-114940276D01*
X176497751Y-114805275D01*
X176518510Y-114768208D01*
X176518511Y-114768206D01*
X176521334Y-114763165D01*
X176523190Y-114757698D01*
X176523192Y-114757693D01*
X176584728Y-114576414D01*
X176584729Y-114576409D01*
X176586584Y-114570945D01*
X176587412Y-114565236D01*
X176587413Y-114565231D01*
X176611686Y-114397821D01*
X176615712Y-114370053D01*
X176617232Y-114312000D01*
X176614564Y-114282964D01*
X176939148Y-114282964D01*
X176952424Y-114485522D01*
X176953845Y-114491118D01*
X176953846Y-114491123D01*
X177000927Y-114676502D01*
X177002392Y-114682269D01*
X177004809Y-114687512D01*
X177041912Y-114767994D01*
X177087377Y-114866616D01*
X177090710Y-114871332D01*
X177191160Y-115013466D01*
X177204533Y-115032389D01*
X177208675Y-115036424D01*
X177273612Y-115099682D01*
X177349938Y-115174035D01*
X177518720Y-115286812D01*
X177524023Y-115289090D01*
X177524026Y-115289092D01*
X177690697Y-115360699D01*
X177705228Y-115366942D01*
X177770140Y-115381630D01*
X177897579Y-115410467D01*
X177897584Y-115410468D01*
X177903216Y-115411742D01*
X177908987Y-115411969D01*
X177908989Y-115411969D01*
X177968756Y-115414317D01*
X178106053Y-115419712D01*
X178213348Y-115404155D01*
X178301231Y-115391413D01*
X178301236Y-115391412D01*
X178306945Y-115390584D01*
X178312409Y-115388729D01*
X178312414Y-115388728D01*
X178493693Y-115327192D01*
X178493698Y-115327190D01*
X178499165Y-115325334D01*
X178505019Y-115322056D01*
X178588923Y-115275067D01*
X178676276Y-115226147D01*
X178691715Y-115213307D01*
X178827913Y-115100031D01*
X178832345Y-115096345D01*
X178907261Y-115006269D01*
X178958453Y-114944718D01*
X178958455Y-114944715D01*
X178962147Y-114940276D01*
X179037751Y-114805275D01*
X179058510Y-114768208D01*
X179058511Y-114768206D01*
X179061334Y-114763165D01*
X179063190Y-114757698D01*
X179063192Y-114757693D01*
X179124728Y-114576414D01*
X179124729Y-114576409D01*
X179126584Y-114570945D01*
X179127412Y-114565236D01*
X179127413Y-114565231D01*
X179151686Y-114397821D01*
X179155712Y-114370053D01*
X179157232Y-114312000D01*
X179154564Y-114282964D01*
X179479148Y-114282964D01*
X179492424Y-114485522D01*
X179493845Y-114491118D01*
X179493846Y-114491123D01*
X179540927Y-114676502D01*
X179542392Y-114682269D01*
X179544809Y-114687512D01*
X179581912Y-114767994D01*
X179627377Y-114866616D01*
X179630710Y-114871332D01*
X179731160Y-115013466D01*
X179744533Y-115032389D01*
X179748675Y-115036424D01*
X179813612Y-115099682D01*
X179889938Y-115174035D01*
X180058720Y-115286812D01*
X180064023Y-115289090D01*
X180064026Y-115289092D01*
X180230697Y-115360699D01*
X180245228Y-115366942D01*
X180310140Y-115381630D01*
X180437579Y-115410467D01*
X180437584Y-115410468D01*
X180443216Y-115411742D01*
X180448987Y-115411969D01*
X180448989Y-115411969D01*
X180508756Y-115414317D01*
X180646053Y-115419712D01*
X180753348Y-115404155D01*
X180841231Y-115391413D01*
X180841236Y-115391412D01*
X180846945Y-115390584D01*
X180852409Y-115388729D01*
X180852414Y-115388728D01*
X181033693Y-115327192D01*
X181033698Y-115327190D01*
X181039165Y-115325334D01*
X181045019Y-115322056D01*
X181128923Y-115275067D01*
X181216276Y-115226147D01*
X181231715Y-115213307D01*
X181367913Y-115100031D01*
X181372345Y-115096345D01*
X181447261Y-115006269D01*
X181498453Y-114944718D01*
X181498455Y-114944715D01*
X181502147Y-114940276D01*
X181577751Y-114805275D01*
X181598510Y-114768208D01*
X181598511Y-114768206D01*
X181601334Y-114763165D01*
X181603190Y-114757698D01*
X181603192Y-114757693D01*
X181664728Y-114576414D01*
X181664729Y-114576409D01*
X181666584Y-114570945D01*
X181667412Y-114565236D01*
X181667413Y-114565231D01*
X181691686Y-114397821D01*
X181695712Y-114370053D01*
X181697232Y-114312000D01*
X181678658Y-114109859D01*
X181677090Y-114104299D01*
X181625125Y-113920046D01*
X181625124Y-113920044D01*
X181623557Y-113914487D01*
X181612978Y-113893033D01*
X181536331Y-113737609D01*
X181533776Y-113732428D01*
X181515197Y-113707547D01*
X181428473Y-113591411D01*
X181412320Y-113569779D01*
X181263258Y-113431987D01*
X181258375Y-113428906D01*
X181258371Y-113428903D01*
X181112728Y-113337010D01*
X181091581Y-113323667D01*
X180903039Y-113248446D01*
X180897379Y-113247320D01*
X180897375Y-113247319D01*
X180709613Y-113209971D01*
X180709610Y-113209971D01*
X180703946Y-113208844D01*
X180698171Y-113208768D01*
X180698167Y-113208768D01*
X180596793Y-113207441D01*
X180500971Y-113206187D01*
X180495274Y-113207166D01*
X180495273Y-113207166D01*
X180407397Y-113222266D01*
X180300910Y-113240564D01*
X180110463Y-113310824D01*
X179936010Y-113414612D01*
X179931670Y-113418418D01*
X179931666Y-113418421D01*
X179792350Y-113540599D01*
X179783392Y-113548455D01*
X179657720Y-113707869D01*
X179655031Y-113712980D01*
X179655029Y-113712983D01*
X179642073Y-113737609D01*
X179563203Y-113887515D01*
X179503007Y-114081378D01*
X179479148Y-114282964D01*
X179154564Y-114282964D01*
X179138658Y-114109859D01*
X179137090Y-114104299D01*
X179085125Y-113920046D01*
X179085124Y-113920044D01*
X179083557Y-113914487D01*
X179072978Y-113893033D01*
X178996331Y-113737609D01*
X178993776Y-113732428D01*
X178975197Y-113707547D01*
X178888473Y-113591411D01*
X178872320Y-113569779D01*
X178723258Y-113431987D01*
X178718375Y-113428906D01*
X178718371Y-113428903D01*
X178572728Y-113337010D01*
X178551581Y-113323667D01*
X178363039Y-113248446D01*
X178357379Y-113247320D01*
X178357375Y-113247319D01*
X178169613Y-113209971D01*
X178169610Y-113209971D01*
X178163946Y-113208844D01*
X178158171Y-113208768D01*
X178158167Y-113208768D01*
X178056793Y-113207441D01*
X177960971Y-113206187D01*
X177955274Y-113207166D01*
X177955273Y-113207166D01*
X177867397Y-113222266D01*
X177760910Y-113240564D01*
X177570463Y-113310824D01*
X177396010Y-113414612D01*
X177391670Y-113418418D01*
X177391666Y-113418421D01*
X177252350Y-113540599D01*
X177243392Y-113548455D01*
X177117720Y-113707869D01*
X177115031Y-113712980D01*
X177115029Y-113712983D01*
X177102073Y-113737609D01*
X177023203Y-113887515D01*
X176963007Y-114081378D01*
X176939148Y-114282964D01*
X176614564Y-114282964D01*
X176598658Y-114109859D01*
X176597090Y-114104299D01*
X176545125Y-113920046D01*
X176545124Y-113920044D01*
X176543557Y-113914487D01*
X176532978Y-113893033D01*
X176456331Y-113737609D01*
X176453776Y-113732428D01*
X176435197Y-113707547D01*
X176348473Y-113591411D01*
X176332320Y-113569779D01*
X176183258Y-113431987D01*
X176178375Y-113428906D01*
X176178371Y-113428903D01*
X176032728Y-113337010D01*
X176011581Y-113323667D01*
X175823039Y-113248446D01*
X175817379Y-113247320D01*
X175817375Y-113247319D01*
X175629613Y-113209971D01*
X175629610Y-113209971D01*
X175623946Y-113208844D01*
X175618171Y-113208768D01*
X175618167Y-113208768D01*
X175516793Y-113207441D01*
X175420971Y-113206187D01*
X175415274Y-113207166D01*
X175415273Y-113207166D01*
X175327397Y-113222266D01*
X175220910Y-113240564D01*
X175030463Y-113310824D01*
X174856010Y-113414612D01*
X174851670Y-113418418D01*
X174851666Y-113418421D01*
X174712350Y-113540599D01*
X174703392Y-113548455D01*
X174577720Y-113707869D01*
X174575031Y-113712980D01*
X174575029Y-113712983D01*
X174562073Y-113737609D01*
X174483203Y-113887515D01*
X174423007Y-114081378D01*
X174399148Y-114282964D01*
X174074564Y-114282964D01*
X174058658Y-114109859D01*
X174057090Y-114104299D01*
X174005125Y-113920046D01*
X174005124Y-113920044D01*
X174003557Y-113914487D01*
X173992978Y-113893033D01*
X173916331Y-113737609D01*
X173913776Y-113732428D01*
X173895197Y-113707547D01*
X173808473Y-113591411D01*
X173792320Y-113569779D01*
X173643258Y-113431987D01*
X173638375Y-113428906D01*
X173638371Y-113428903D01*
X173492728Y-113337010D01*
X173471581Y-113323667D01*
X173283039Y-113248446D01*
X173277379Y-113247320D01*
X173277375Y-113247319D01*
X173089613Y-113209971D01*
X173089610Y-113209971D01*
X173083946Y-113208844D01*
X173078171Y-113208768D01*
X173078167Y-113208768D01*
X172976793Y-113207441D01*
X172880971Y-113206187D01*
X172875274Y-113207166D01*
X172875273Y-113207166D01*
X172787397Y-113222266D01*
X172680910Y-113240564D01*
X172490463Y-113310824D01*
X172316010Y-113414612D01*
X172311670Y-113418418D01*
X172311666Y-113418421D01*
X172172350Y-113540599D01*
X172163392Y-113548455D01*
X172037720Y-113707869D01*
X172035031Y-113712980D01*
X172035029Y-113712983D01*
X172022073Y-113737609D01*
X171943203Y-113887515D01*
X171883007Y-114081378D01*
X171859148Y-114282964D01*
X171534564Y-114282964D01*
X171518658Y-114109859D01*
X171517090Y-114104299D01*
X171465125Y-113920046D01*
X171465124Y-113920044D01*
X171463557Y-113914487D01*
X171452978Y-113893033D01*
X171376331Y-113737609D01*
X171373776Y-113732428D01*
X171355197Y-113707547D01*
X171268473Y-113591411D01*
X171252320Y-113569779D01*
X171103258Y-113431987D01*
X171098375Y-113428906D01*
X171098371Y-113428903D01*
X170952728Y-113337010D01*
X170931581Y-113323667D01*
X170743039Y-113248446D01*
X170737379Y-113247320D01*
X170737375Y-113247319D01*
X170549613Y-113209971D01*
X170549610Y-113209971D01*
X170543946Y-113208844D01*
X170538171Y-113208768D01*
X170538167Y-113208768D01*
X170436793Y-113207441D01*
X170340971Y-113206187D01*
X170335274Y-113207166D01*
X170335273Y-113207166D01*
X170247397Y-113222266D01*
X170140910Y-113240564D01*
X169950463Y-113310824D01*
X169776010Y-113414612D01*
X169771670Y-113418418D01*
X169771666Y-113418421D01*
X169632350Y-113540599D01*
X169623392Y-113548455D01*
X169497720Y-113707869D01*
X169495031Y-113712980D01*
X169495029Y-113712983D01*
X169482073Y-113737609D01*
X169403203Y-113887515D01*
X169343007Y-114081378D01*
X169319148Y-114282964D01*
X169332424Y-114485522D01*
X169333845Y-114491118D01*
X169333846Y-114491123D01*
X169380927Y-114676502D01*
X169382392Y-114682269D01*
X169384809Y-114687512D01*
X169421912Y-114767994D01*
X169467377Y-114866616D01*
X169470710Y-114871332D01*
X169571160Y-115013466D01*
X169584533Y-115032389D01*
X169588675Y-115036424D01*
X169653612Y-115099682D01*
X169729938Y-115174035D01*
X169734742Y-115177245D01*
X169864002Y-115263614D01*
X169909530Y-115318091D01*
X169920000Y-115368379D01*
X169920000Y-115581113D01*
X169919127Y-115595923D01*
X169915196Y-115629136D01*
X169916888Y-115638399D01*
X169925605Y-115686126D01*
X169926255Y-115690034D01*
X169934868Y-115747326D01*
X169937956Y-115753757D01*
X169939237Y-115760771D01*
X169949935Y-115781365D01*
X169965944Y-115812184D01*
X169967713Y-115815725D01*
X169987091Y-115856079D01*
X169992792Y-115867952D01*
X169997634Y-115873190D01*
X170000921Y-115879518D01*
X170005184Y-115884509D01*
X170041963Y-115921288D01*
X170045392Y-115924854D01*
X170083625Y-115966214D01*
X170089919Y-115969870D01*
X170095922Y-115975247D01*
X170761373Y-116640698D01*
X170771228Y-116651787D01*
X170791936Y-116678055D01*
X170799683Y-116683410D01*
X170799685Y-116683411D01*
X170839581Y-116710984D01*
X170842804Y-116713287D01*
X170889419Y-116747718D01*
X170896150Y-116750082D01*
X170902016Y-116754136D01*
X170957234Y-116771599D01*
X170960975Y-116772847D01*
X171006786Y-116788935D01*
X171006791Y-116788936D01*
X171015673Y-116792055D01*
X171022802Y-116792335D01*
X171029600Y-116794485D01*
X171036143Y-116795000D01*
X171088159Y-116795000D01*
X171093105Y-116795097D01*
X171149384Y-116797308D01*
X171156419Y-116795443D01*
X171164465Y-116795000D01*
X174071919Y-116795000D01*
X174140040Y-116815002D01*
X174173270Y-116846140D01*
X174249990Y-116950010D01*
X174257561Y-116955602D01*
X174357736Y-117029593D01*
X174400646Y-117086154D01*
X174406166Y-117156936D01*
X174372542Y-117219465D01*
X174358442Y-117231770D01*
X174277546Y-117292399D01*
X174257456Y-117307456D01*
X174252077Y-117314633D01*
X174180465Y-117410183D01*
X174180463Y-117410186D01*
X174175083Y-117417365D01*
X174171933Y-117425769D01*
X174171932Y-117425770D01*
X174130766Y-117535584D01*
X174126870Y-117545976D01*
X174120500Y-117604611D01*
X174120501Y-117869074D01*
X174120501Y-118015793D01*
X174100499Y-118083913D01*
X174046844Y-118130407D01*
X173999985Y-118140600D01*
X174000000Y-118140715D01*
X173998624Y-118140896D01*
X173998622Y-118140896D01*
X173991812Y-118141793D01*
X173863432Y-118158694D01*
X173863430Y-118158695D01*
X173855246Y-118159772D01*
X173825448Y-118172115D01*
X173727986Y-118212485D01*
X173727984Y-118212486D01*
X173720358Y-118215645D01*
X173604526Y-118304526D01*
X173599503Y-118311072D01*
X173585505Y-118329315D01*
X173515645Y-118420358D01*
X173512486Y-118427984D01*
X173512485Y-118427986D01*
X173485744Y-118492544D01*
X173459772Y-118555246D01*
X173458695Y-118563430D01*
X173458694Y-118563432D01*
X173449996Y-118629500D01*
X173440715Y-118700000D01*
X173444599Y-118729500D01*
X173446170Y-118741436D01*
X173435230Y-118811585D01*
X173410343Y-118846977D01*
X173030268Y-119227052D01*
X173022164Y-119234478D01*
X173001206Y-119252064D01*
X173001204Y-119252067D01*
X172992761Y-119259151D01*
X172987184Y-119268811D01*
X172973578Y-119292376D01*
X172967673Y-119301645D01*
X172951985Y-119324050D01*
X172951984Y-119324053D01*
X172945660Y-119333084D01*
X172942806Y-119343733D01*
X172941231Y-119347111D01*
X172939960Y-119350604D01*
X172934449Y-119360149D01*
X172928331Y-119394849D01*
X172927785Y-119397943D01*
X172925409Y-119408661D01*
X172915476Y-119445733D01*
X172916436Y-119456708D01*
X172916436Y-119456709D01*
X172918821Y-119483968D01*
X172919300Y-119494949D01*
X172919300Y-122352524D01*
X172899298Y-122420645D01*
X172845642Y-122467138D01*
X172775368Y-122477242D01*
X172767911Y-122475889D01*
X172761127Y-122473507D01*
X172753481Y-122472784D01*
X172753480Y-122472784D01*
X172742213Y-122471719D01*
X172729315Y-122470500D01*
X172400223Y-122470500D01*
X172070686Y-122470501D01*
X172067738Y-122470780D01*
X172067729Y-122470780D01*
X172046522Y-122472784D01*
X172046520Y-122472784D01*
X172038873Y-122473507D01*
X171909924Y-122518791D01*
X171799990Y-122599990D01*
X171718791Y-122709924D01*
X171694164Y-122780051D01*
X171652723Y-122837694D01*
X171586693Y-122863782D01*
X171575283Y-122864300D01*
X170970962Y-122864300D01*
X170902841Y-122844298D01*
X170856348Y-122790642D01*
X170846244Y-122720368D01*
X170871000Y-122661596D01*
X170894325Y-122631198D01*
X170894328Y-122631193D01*
X170899355Y-122624642D01*
X170906431Y-122607561D01*
X170952069Y-122497380D01*
X170955228Y-122489754D01*
X170956876Y-122477242D01*
X170973207Y-122353188D01*
X170974285Y-122345000D01*
X170961788Y-122250074D01*
X170956306Y-122208432D01*
X170956305Y-122208430D01*
X170955228Y-122200246D01*
X170917215Y-122108475D01*
X170902515Y-122072986D01*
X170902514Y-122072984D01*
X170899355Y-122065358D01*
X170825033Y-121968500D01*
X170815501Y-121956077D01*
X170815500Y-121956076D01*
X170810474Y-121949526D01*
X170803924Y-121944500D01*
X170803921Y-121944497D01*
X170701196Y-121865673D01*
X170701194Y-121865672D01*
X170694643Y-121860645D01*
X170559754Y-121804772D01*
X170415000Y-121785715D01*
X170406812Y-121786793D01*
X170399773Y-121786793D01*
X170331652Y-121766791D01*
X170310678Y-121749888D01*
X169898589Y-121337799D01*
X169886209Y-121331039D01*
X169881949Y-121334228D01*
X169878419Y-121342751D01*
X169874182Y-121358563D01*
X169864922Y-121428902D01*
X169836200Y-121493829D01*
X169834664Y-121494842D01*
X169864922Y-121561098D01*
X169874182Y-121631435D01*
X169878420Y-121647253D01*
X169927923Y-121766764D01*
X169935276Y-121779499D01*
X169952015Y-121848494D01*
X169928796Y-121915586D01*
X169872989Y-121959474D01*
X169826158Y-121968500D01*
X169653842Y-121968500D01*
X169585721Y-121948498D01*
X169539228Y-121894842D01*
X169529124Y-121824568D01*
X169544724Y-121779499D01*
X169552077Y-121766764D01*
X169601580Y-121647253D01*
X169605818Y-121631435D01*
X169615078Y-121561098D01*
X169643800Y-121496171D01*
X169645336Y-121495158D01*
X169615078Y-121428902D01*
X169605818Y-121358565D01*
X169601580Y-121342748D01*
X169554140Y-121228218D01*
X169546551Y-121157628D01*
X169578330Y-121094141D01*
X169639388Y-121057914D01*
X169670549Y-121054000D01*
X169997843Y-121054000D01*
X170023488Y-121046470D01*
X170085488Y-120984469D01*
X170147800Y-120950444D01*
X170218616Y-120955508D01*
X170263680Y-120984469D01*
X170494820Y-121215610D01*
X170931412Y-121652202D01*
X170943791Y-121658961D01*
X170948051Y-121655772D01*
X170951581Y-121647249D01*
X170955818Y-121631437D01*
X170972702Y-121503188D01*
X170972702Y-121486812D01*
X170955818Y-121358565D01*
X170951580Y-121342747D01*
X170899903Y-121217988D01*
X170892314Y-121147398D01*
X170924093Y-121083911D01*
X170985152Y-121047684D01*
X171003141Y-121044460D01*
X171047425Y-121039806D01*
X171060265Y-121037076D01*
X171228439Y-120982433D01*
X171240428Y-120977095D01*
X171393569Y-120888679D01*
X171404188Y-120880963D01*
X171535595Y-120762645D01*
X171544386Y-120752882D01*
X171648318Y-120609832D01*
X171654885Y-120598458D01*
X171726806Y-120436919D01*
X171730863Y-120424433D01*
X171731439Y-120421721D01*
X171730366Y-120407659D01*
X171720411Y-120404000D01*
X169787000Y-120404000D01*
X169718879Y-120383998D01*
X169672386Y-120330342D01*
X169661000Y-120278000D01*
X169661000Y-119877885D01*
X170169000Y-119877885D01*
X170173475Y-119893124D01*
X170174865Y-119894329D01*
X170182548Y-119896000D01*
X171717091Y-119896000D01*
X171730622Y-119892027D01*
X171732131Y-119881532D01*
X171730864Y-119875572D01*
X171726804Y-119863077D01*
X171654884Y-119701541D01*
X171648318Y-119690169D01*
X171544386Y-119547118D01*
X171535595Y-119537355D01*
X171404188Y-119419037D01*
X171393569Y-119411321D01*
X171240428Y-119322905D01*
X171228439Y-119317567D01*
X171060265Y-119262924D01*
X171047424Y-119260194D01*
X170915643Y-119246344D01*
X170909083Y-119246000D01*
X170187115Y-119246000D01*
X170171876Y-119250475D01*
X170170671Y-119251865D01*
X170169000Y-119259548D01*
X170169000Y-119877885D01*
X169661000Y-119877885D01*
X169661000Y-119264115D01*
X169656525Y-119248876D01*
X169655135Y-119247671D01*
X169647452Y-119246000D01*
X168920917Y-119246000D01*
X168914357Y-119246344D01*
X168782576Y-119260194D01*
X168769735Y-119262924D01*
X168601561Y-119317567D01*
X168589572Y-119322905D01*
X168436431Y-119411321D01*
X168425812Y-119419037D01*
X168291810Y-119539691D01*
X168227802Y-119570408D01*
X168157349Y-119561643D01*
X168102818Y-119516180D01*
X168081500Y-119446054D01*
X168081500Y-118855500D01*
X168101502Y-118787379D01*
X168155158Y-118740886D01*
X168207500Y-118729500D01*
X168518802Y-118729499D01*
X168529314Y-118729499D01*
X168532262Y-118729220D01*
X168532271Y-118729220D01*
X168553478Y-118727216D01*
X168553480Y-118727216D01*
X168561127Y-118726493D01*
X168690076Y-118681209D01*
X168800010Y-118600010D01*
X168881209Y-118490076D01*
X168926493Y-118361127D01*
X168927678Y-118348598D01*
X168928728Y-118337483D01*
X168929500Y-118329315D01*
X168929499Y-117670686D01*
X168929499Y-117670685D01*
X169270500Y-117670685D01*
X169270501Y-118329314D01*
X169270780Y-118332262D01*
X169270780Y-118332271D01*
X169272173Y-118347010D01*
X169273507Y-118361127D01*
X169318791Y-118490076D01*
X169399990Y-118600010D01*
X169509924Y-118681209D01*
X169638873Y-118726493D01*
X169646515Y-118727215D01*
X169646518Y-118727216D01*
X169661421Y-118728624D01*
X169670685Y-118729500D01*
X169924828Y-118729500D01*
X170179314Y-118729499D01*
X170182262Y-118729220D01*
X170182271Y-118729220D01*
X170203478Y-118727216D01*
X170203480Y-118727216D01*
X170211127Y-118726493D01*
X170340076Y-118681209D01*
X170450010Y-118600010D01*
X170526730Y-118496140D01*
X170583291Y-118453230D01*
X170628081Y-118445000D01*
X170826298Y-118445000D01*
X170894419Y-118465002D01*
X170903002Y-118471038D01*
X170920357Y-118484355D01*
X171055246Y-118540228D01*
X171063434Y-118541306D01*
X171081824Y-118543727D01*
X171200000Y-118559285D01*
X171208188Y-118558207D01*
X171230680Y-118555246D01*
X171318176Y-118543727D01*
X171336566Y-118541306D01*
X171344754Y-118540228D01*
X171479643Y-118484355D01*
X171487719Y-118478158D01*
X171588921Y-118400503D01*
X171588924Y-118400500D01*
X171595474Y-118395474D01*
X171606970Y-118380493D01*
X171670954Y-118297106D01*
X171684355Y-118279642D01*
X171690235Y-118265448D01*
X171725181Y-118181081D01*
X171740228Y-118144754D01*
X171742544Y-118127167D01*
X171757900Y-118010519D01*
X171759285Y-118000000D01*
X171754258Y-117961812D01*
X171741306Y-117863432D01*
X171741305Y-117863430D01*
X171740228Y-117855246D01*
X171698670Y-117754916D01*
X171687515Y-117727986D01*
X171687514Y-117727984D01*
X171684355Y-117720358D01*
X171627298Y-117646000D01*
X171600501Y-117611077D01*
X171600500Y-117611076D01*
X171595474Y-117604526D01*
X171588924Y-117599500D01*
X171588921Y-117599497D01*
X171486196Y-117520673D01*
X171486193Y-117520671D01*
X171479643Y-117515645D01*
X171344754Y-117459772D01*
X171200000Y-117440715D01*
X171191812Y-117441793D01*
X171063432Y-117458694D01*
X171063430Y-117458695D01*
X171055246Y-117459772D01*
X170920358Y-117515645D01*
X170913808Y-117520671D01*
X170903003Y-117528962D01*
X170836783Y-117554563D01*
X170826299Y-117555000D01*
X170628081Y-117555000D01*
X170559960Y-117534998D01*
X170526730Y-117503860D01*
X170477359Y-117437018D01*
X170450010Y-117399990D01*
X170340076Y-117318791D01*
X170211127Y-117273507D01*
X170203485Y-117272785D01*
X170203482Y-117272784D01*
X170188579Y-117271376D01*
X170179315Y-117270500D01*
X169925172Y-117270500D01*
X169670686Y-117270501D01*
X169667738Y-117270780D01*
X169667729Y-117270780D01*
X169646522Y-117272784D01*
X169646520Y-117272784D01*
X169638873Y-117273507D01*
X169509924Y-117318791D01*
X169399990Y-117399990D01*
X169318791Y-117509924D01*
X169273507Y-117638873D01*
X169270500Y-117670685D01*
X168929499Y-117670685D01*
X168928243Y-117657386D01*
X168927216Y-117646522D01*
X168927215Y-117646518D01*
X168926493Y-117638873D01*
X168881209Y-117509924D01*
X168800010Y-117399990D01*
X168690076Y-117318791D01*
X168561127Y-117273507D01*
X168553485Y-117272785D01*
X168553482Y-117272784D01*
X168538579Y-117271376D01*
X168529315Y-117270500D01*
X168275172Y-117270500D01*
X168020686Y-117270501D01*
X168017738Y-117270780D01*
X168017729Y-117270780D01*
X167996522Y-117272784D01*
X167996520Y-117272784D01*
X167988873Y-117273507D01*
X167859924Y-117318791D01*
X167749990Y-117399990D01*
X167668791Y-117509924D01*
X167623507Y-117638873D01*
X167620500Y-117670685D01*
X167620501Y-117892387D01*
X167620501Y-118062786D01*
X167600499Y-118130906D01*
X167583596Y-118151881D01*
X167468521Y-118266956D01*
X167449505Y-118282315D01*
X167448444Y-118283281D01*
X167439696Y-118288929D01*
X167423655Y-118309277D01*
X167418771Y-118315472D01*
X167414794Y-118319947D01*
X167414865Y-118320008D01*
X167411512Y-118323965D01*
X167407829Y-118327648D01*
X167404803Y-118331883D01*
X167404801Y-118331885D01*
X167396547Y-118343436D01*
X167392984Y-118348182D01*
X167361066Y-118388670D01*
X167358015Y-118397357D01*
X167352666Y-118404843D01*
X167349683Y-118414819D01*
X167349682Y-118414820D01*
X167337902Y-118454211D01*
X167336072Y-118459843D01*
X167318984Y-118508502D01*
X167318500Y-118514091D01*
X167318500Y-118516802D01*
X167318385Y-118519469D01*
X167318366Y-118519532D01*
X167318192Y-118519525D01*
X167318145Y-118520271D01*
X167316275Y-118526524D01*
X167316814Y-118540228D01*
X167318403Y-118580678D01*
X167318500Y-118585625D01*
X167318500Y-119536616D01*
X167298498Y-119604737D01*
X167244842Y-119651230D01*
X167174568Y-119661334D01*
X167109988Y-119631840D01*
X167090564Y-119610677D01*
X167044386Y-119547118D01*
X167035595Y-119537355D01*
X166904188Y-119419037D01*
X166893569Y-119411321D01*
X166740428Y-119322905D01*
X166728439Y-119317567D01*
X166560265Y-119262924D01*
X166547424Y-119260194D01*
X166415643Y-119246344D01*
X166409083Y-119246000D01*
X166037115Y-119246000D01*
X166021876Y-119250475D01*
X166020671Y-119251865D01*
X166019000Y-119259548D01*
X166019000Y-121035885D01*
X166023474Y-121051124D01*
X166035512Y-121061554D01*
X166073896Y-121121280D01*
X166079000Y-121156779D01*
X166079000Y-121577885D01*
X166083475Y-121593124D01*
X166084865Y-121594329D01*
X166092548Y-121596000D01*
X166460884Y-121596000D01*
X166476123Y-121591525D01*
X166477328Y-121590135D01*
X166478999Y-121582452D01*
X166478999Y-121523717D01*
X166478720Y-121517793D01*
X166476719Y-121496618D01*
X166473451Y-121481720D01*
X166433884Y-121369049D01*
X166425163Y-121352580D01*
X166350438Y-121251410D01*
X166326055Y-121184732D01*
X166341592Y-121115456D01*
X166392116Y-121065578D01*
X166438619Y-121051241D01*
X166547424Y-121039806D01*
X166560265Y-121037076D01*
X166728439Y-120982433D01*
X166740428Y-120977095D01*
X166893569Y-120888679D01*
X166904188Y-120880963D01*
X167035595Y-120762645D01*
X167044386Y-120752881D01*
X167093446Y-120685357D01*
X167149669Y-120642003D01*
X167220405Y-120635928D01*
X167283197Y-120669060D01*
X167318108Y-120730880D01*
X167319667Y-120738706D01*
X167321691Y-120750864D01*
X167322522Y-120756704D01*
X167324138Y-120770358D01*
X167325786Y-120784279D01*
X167328582Y-120807907D01*
X167332567Y-120816206D01*
X167334078Y-120825283D01*
X167358558Y-120870651D01*
X167361239Y-120875914D01*
X167370172Y-120894518D01*
X167383560Y-120922398D01*
X167387170Y-120926692D01*
X167387392Y-120926914D01*
X167407317Y-120994224D01*
X167387464Y-121062389D01*
X167333911Y-121108999D01*
X167281318Y-121120501D01*
X167220686Y-121120501D01*
X167217738Y-121120780D01*
X167217729Y-121120780D01*
X167196522Y-121122784D01*
X167196520Y-121122784D01*
X167188873Y-121123507D01*
X167059924Y-121168791D01*
X166949990Y-121249990D01*
X166868791Y-121359924D01*
X166823507Y-121488873D01*
X166822785Y-121496515D01*
X166822784Y-121496518D01*
X166822373Y-121500870D01*
X166820500Y-121520685D01*
X166820501Y-122179314D01*
X166820780Y-122182262D01*
X166820780Y-122182271D01*
X166822784Y-122203478D01*
X166823507Y-122211127D01*
X166868791Y-122340076D01*
X166949990Y-122450010D01*
X167059924Y-122531209D01*
X167068812Y-122534330D01*
X167077133Y-122538736D01*
X167075299Y-122542201D01*
X167117751Y-122572769D01*
X167143791Y-122638817D01*
X167144300Y-122650135D01*
X167144300Y-122705051D01*
X167143821Y-122716032D01*
X167140476Y-122754267D01*
X167142268Y-122760956D01*
X167128779Y-122828086D01*
X167079381Y-122879079D01*
X167010255Y-122895271D01*
X166956548Y-122879881D01*
X166950613Y-122876619D01*
X166950610Y-122876618D01*
X166947142Y-122874711D01*
X166659982Y-122761016D01*
X166373620Y-122687491D01*
X166312614Y-122651176D01*
X166280925Y-122587644D01*
X166288615Y-122517065D01*
X166330096Y-122464098D01*
X166342078Y-122455248D01*
X166355248Y-122442078D01*
X166425163Y-122347420D01*
X166433884Y-122330951D01*
X166473452Y-122218277D01*
X166476719Y-122203386D01*
X166478721Y-122182201D01*
X166479000Y-122176287D01*
X166479000Y-122122115D01*
X166474525Y-122106876D01*
X166473135Y-122105671D01*
X166465452Y-122104000D01*
X165189116Y-122104000D01*
X165173877Y-122108475D01*
X165172672Y-122109865D01*
X165171001Y-122117548D01*
X165171001Y-122176283D01*
X165171280Y-122182207D01*
X165173281Y-122203382D01*
X165176549Y-122218280D01*
X165216116Y-122330951D01*
X165224837Y-122347420D01*
X165294752Y-122442078D01*
X165307922Y-122455248D01*
X165358597Y-122492677D01*
X165401508Y-122549238D01*
X165407028Y-122620019D01*
X165373404Y-122682549D01*
X165315074Y-122716070D01*
X165140018Y-122761016D01*
X164852858Y-122874711D01*
X164849399Y-122876612D01*
X164849396Y-122876614D01*
X164769570Y-122920499D01*
X164582213Y-123023500D01*
X164579009Y-123025828D01*
X164579004Y-123025831D01*
X164520091Y-123068634D01*
X164332349Y-123205036D01*
X164107209Y-123416457D01*
X163910342Y-123654429D01*
X163877408Y-123706325D01*
X163756100Y-123897476D01*
X163744853Y-123915198D01*
X163613351Y-124194652D01*
X163517912Y-124488384D01*
X163460040Y-124791761D01*
X163440647Y-125100000D01*
X163460040Y-125408239D01*
X163517912Y-125711616D01*
X163613351Y-126005348D01*
X163744853Y-126284802D01*
X163910342Y-126545571D01*
X164107209Y-126783543D01*
X164332349Y-126994964D01*
X164335551Y-126997291D01*
X164335553Y-126997292D01*
X164579004Y-127174169D01*
X164579009Y-127174172D01*
X164582213Y-127176500D01*
X164699132Y-127240777D01*
X164824062Y-127309458D01*
X164852858Y-127325289D01*
X165140018Y-127438984D01*
X165439163Y-127515791D01*
X165745576Y-127554500D01*
X166054424Y-127554500D01*
X166360837Y-127515791D01*
X166604661Y-127453188D01*
X168507298Y-127453188D01*
X168524182Y-127581437D01*
X168528419Y-127597249D01*
X168528845Y-127598278D01*
X168537693Y-127609257D01*
X168542849Y-127607941D01*
X168692981Y-127457808D01*
X168700592Y-127443870D01*
X168700460Y-127442034D01*
X168696211Y-127435421D01*
X168548585Y-127287796D01*
X168536210Y-127281038D01*
X168531949Y-127284228D01*
X168528419Y-127292751D01*
X168524182Y-127308563D01*
X168507298Y-127436812D01*
X168507298Y-127453188D01*
X166604661Y-127453188D01*
X166659982Y-127438984D01*
X166947142Y-127325289D01*
X166975939Y-127309458D01*
X167100868Y-127240777D01*
X167217787Y-127176500D01*
X167220991Y-127174172D01*
X167220996Y-127174169D01*
X167464447Y-126997292D01*
X167464449Y-126997291D01*
X167467651Y-126994964D01*
X167692791Y-126783543D01*
X167889658Y-126545571D01*
X168055147Y-126284802D01*
X168186649Y-126005348D01*
X168224208Y-125889754D01*
X168266032Y-125761033D01*
X168306106Y-125702427D01*
X168371502Y-125674790D01*
X168441459Y-125686897D01*
X168493765Y-125734903D01*
X168510786Y-125783521D01*
X168524772Y-125889754D01*
X168527931Y-125897380D01*
X168574140Y-126008937D01*
X168580645Y-126024642D01*
X168585672Y-126031193D01*
X168633325Y-126093296D01*
X168658925Y-126159516D01*
X168644660Y-126229065D01*
X168633325Y-126246704D01*
X168580645Y-126315358D01*
X168524772Y-126450246D01*
X168505715Y-126595000D01*
X168524772Y-126739754D01*
X168580645Y-126874642D01*
X168669526Y-126990474D01*
X168676076Y-126995500D01*
X168676079Y-126995503D01*
X168753823Y-127055158D01*
X168785357Y-127079355D01*
X168920246Y-127135228D01*
X169065000Y-127154285D01*
X169073188Y-127153207D01*
X169080227Y-127153207D01*
X169148348Y-127173209D01*
X169169322Y-127190112D01*
X169335115Y-127355905D01*
X169369141Y-127418217D01*
X169364076Y-127489032D01*
X169335115Y-127534096D01*
X168913678Y-127955532D01*
X168851366Y-127989557D01*
X168780550Y-127984492D01*
X168735488Y-127955531D01*
X168716993Y-127937036D01*
X168701767Y-127928722D01*
X168688258Y-127929398D01*
X168601561Y-127957567D01*
X168589572Y-127962905D01*
X168436431Y-128051321D01*
X168425812Y-128059037D01*
X168294405Y-128177355D01*
X168285614Y-128187118D01*
X168181682Y-128330168D01*
X168175115Y-128341542D01*
X168103194Y-128503081D01*
X168099137Y-128515567D01*
X168098561Y-128518279D01*
X168099634Y-128532341D01*
X168109589Y-128536000D01*
X171717091Y-128536000D01*
X171730622Y-128532027D01*
X171732131Y-128521532D01*
X171730864Y-128515572D01*
X171726804Y-128503077D01*
X171654884Y-128341541D01*
X171648318Y-128330169D01*
X171544386Y-128187118D01*
X171535595Y-128177355D01*
X171404188Y-128059037D01*
X171393569Y-128051321D01*
X171240428Y-127962905D01*
X171228439Y-127957567D01*
X171060265Y-127902924D01*
X171047425Y-127900194D01*
X171003141Y-127895540D01*
X170937485Y-127868527D01*
X170896855Y-127810305D01*
X170894152Y-127739360D01*
X170899903Y-127722012D01*
X170951580Y-127597253D01*
X170955818Y-127581435D01*
X170972702Y-127453188D01*
X170972702Y-127436812D01*
X170955818Y-127308563D01*
X170951581Y-127292751D01*
X170951155Y-127291722D01*
X170942307Y-127280743D01*
X170937151Y-127282059D01*
X170703419Y-127515791D01*
X170263680Y-127955531D01*
X170201368Y-127989557D01*
X170130553Y-127984492D01*
X170085490Y-127955531D01*
X170028769Y-127898810D01*
X170005309Y-127886000D01*
X169670549Y-127886000D01*
X169602428Y-127865998D01*
X169555935Y-127812342D01*
X169545831Y-127742068D01*
X169554140Y-127711782D01*
X169601580Y-127597252D01*
X169605818Y-127581435D01*
X169615078Y-127511098D01*
X169643800Y-127446171D01*
X169645336Y-127445158D01*
X169615078Y-127378902D01*
X169605818Y-127308565D01*
X169601580Y-127292747D01*
X169552078Y-127173240D01*
X169550496Y-127170499D01*
X169549864Y-127167894D01*
X169548918Y-127165610D01*
X169549274Y-127165462D01*
X169533759Y-127101503D01*
X169556980Y-127034412D01*
X169612788Y-126990525D01*
X169659616Y-126981500D01*
X169820384Y-126981500D01*
X169888505Y-127001502D01*
X169934998Y-127055158D01*
X169945102Y-127125432D01*
X169929504Y-127170499D01*
X169927922Y-127173240D01*
X169878420Y-127292747D01*
X169874182Y-127308565D01*
X169864922Y-127378902D01*
X169836200Y-127443829D01*
X169834664Y-127444842D01*
X169864922Y-127511098D01*
X169874182Y-127581437D01*
X169878419Y-127597249D01*
X169878845Y-127598278D01*
X169887693Y-127609257D01*
X169892849Y-127607941D01*
X170310678Y-127190112D01*
X170372990Y-127156086D01*
X170399773Y-127153207D01*
X170406812Y-127153207D01*
X170415000Y-127154285D01*
X170423188Y-127153207D01*
X170551566Y-127136306D01*
X170559754Y-127135228D01*
X170694643Y-127079355D01*
X170726177Y-127055158D01*
X170803921Y-126995503D01*
X170803924Y-126995500D01*
X170810474Y-126990474D01*
X170899355Y-126874642D01*
X170955228Y-126739754D01*
X170974285Y-126595000D01*
X170955228Y-126450246D01*
X170899355Y-126315358D01*
X170846675Y-126246704D01*
X170821075Y-126180484D01*
X170835340Y-126110935D01*
X170846675Y-126093296D01*
X170894328Y-126031193D01*
X170899355Y-126024642D01*
X170917288Y-125981349D01*
X170961836Y-125926068D01*
X171029200Y-125903647D01*
X171097991Y-125921205D01*
X171122792Y-125940472D01*
X171204692Y-126022372D01*
X171212118Y-126030476D01*
X171229704Y-126051434D01*
X171229707Y-126051436D01*
X171236791Y-126059879D01*
X171268623Y-126078258D01*
X171270016Y-126079062D01*
X171279285Y-126084967D01*
X171301690Y-126100655D01*
X171301693Y-126100656D01*
X171310724Y-126106980D01*
X171321373Y-126109834D01*
X171324751Y-126111409D01*
X171328244Y-126112680D01*
X171337789Y-126118191D01*
X171348642Y-126120105D01*
X171348643Y-126120105D01*
X171359740Y-126122062D01*
X171375587Y-126124856D01*
X171386301Y-126127231D01*
X171423373Y-126137164D01*
X171434348Y-126136204D01*
X171434349Y-126136204D01*
X171461608Y-126133819D01*
X171472589Y-126133340D01*
X173227411Y-126133340D01*
X173238392Y-126133819D01*
X173265651Y-126136204D01*
X173265652Y-126136204D01*
X173276627Y-126137164D01*
X173313699Y-126127231D01*
X173324413Y-126124856D01*
X173340260Y-126122062D01*
X173351357Y-126120105D01*
X173351358Y-126120105D01*
X173362211Y-126118191D01*
X173371756Y-126112680D01*
X173375249Y-126111409D01*
X173378627Y-126109834D01*
X173389276Y-126106980D01*
X173398307Y-126100656D01*
X173398310Y-126100655D01*
X173420715Y-126084967D01*
X173429984Y-126079062D01*
X173431377Y-126078258D01*
X173463209Y-126059879D01*
X173470296Y-126051434D01*
X173487877Y-126030481D01*
X173495303Y-126022377D01*
X173919744Y-125597937D01*
X173927847Y-125590512D01*
X173948797Y-125572933D01*
X173948798Y-125572932D01*
X173957239Y-125565849D01*
X173976421Y-125532625D01*
X173982327Y-125523355D01*
X173998015Y-125500950D01*
X173998016Y-125500947D01*
X174004340Y-125491916D01*
X174007194Y-125481267D01*
X174008769Y-125477889D01*
X174010040Y-125474396D01*
X174015551Y-125464851D01*
X174022216Y-125427053D01*
X174024591Y-125416339D01*
X174034524Y-125379267D01*
X174031179Y-125341032D01*
X174030700Y-125330051D01*
X174030700Y-121667370D01*
X174050702Y-121599249D01*
X174104358Y-121552756D01*
X174174632Y-121542652D01*
X174239212Y-121572146D01*
X174245666Y-121579074D01*
X174246082Y-121578658D01*
X174264990Y-121597566D01*
X174360425Y-121669092D01*
X174376012Y-121677625D01*
X174488689Y-121719865D01*
X174503934Y-121723490D01*
X174551259Y-121728631D01*
X174553693Y-121728763D01*
X174568124Y-121724525D01*
X174569329Y-121723135D01*
X174571000Y-121715452D01*
X174571000Y-120872000D01*
X174591002Y-120803879D01*
X174644658Y-120757386D01*
X174697000Y-120746000D01*
X174953000Y-120746000D01*
X175021121Y-120766002D01*
X175067614Y-120819658D01*
X175079000Y-120872000D01*
X175079000Y-121710885D01*
X175083475Y-121726124D01*
X175084865Y-121727329D01*
X175092424Y-121728973D01*
X175098741Y-121728631D01*
X175146066Y-121723490D01*
X175161311Y-121719865D01*
X175273988Y-121677625D01*
X175289575Y-121669092D01*
X175385010Y-121597566D01*
X175397566Y-121585010D01*
X175469092Y-121489575D01*
X175477626Y-121473986D01*
X175481751Y-121462982D01*
X175524391Y-121406217D01*
X175590953Y-121381516D01*
X175660302Y-121396723D01*
X175710421Y-121447008D01*
X175717714Y-121462978D01*
X175725083Y-121482635D01*
X175730463Y-121489814D01*
X175730465Y-121489817D01*
X175802077Y-121585367D01*
X175807456Y-121592544D01*
X175814633Y-121597923D01*
X175910183Y-121669535D01*
X175910186Y-121669537D01*
X175917365Y-121674917D01*
X175925769Y-121678067D01*
X175925770Y-121678068D01*
X176038581Y-121720358D01*
X176038582Y-121720358D01*
X176045976Y-121723130D01*
X176053826Y-121723983D01*
X176053827Y-121723983D01*
X176073535Y-121726124D01*
X176104611Y-121729500D01*
X176374920Y-121729500D01*
X176645388Y-121729499D01*
X176648782Y-121729130D01*
X176648788Y-121729130D01*
X176696166Y-121723984D01*
X176696170Y-121723983D01*
X176704024Y-121723130D01*
X176832635Y-121674917D01*
X176839814Y-121669537D01*
X176839817Y-121669535D01*
X176935367Y-121597923D01*
X176942544Y-121592544D01*
X176947923Y-121585367D01*
X177015325Y-121495434D01*
X177072185Y-121452920D01*
X177116151Y-121445000D01*
X177613485Y-121445000D01*
X177681606Y-121465002D01*
X177702580Y-121481905D01*
X178513095Y-122292420D01*
X178547121Y-122354732D01*
X178550000Y-122381515D01*
X178550000Y-125220979D01*
X178529998Y-125289100D01*
X178525934Y-125295042D01*
X178520685Y-125302266D01*
X178513674Y-125309277D01*
X178509174Y-125318109D01*
X178509173Y-125318110D01*
X178497494Y-125341032D01*
X178455502Y-125423445D01*
X178440500Y-125518166D01*
X178440500Y-127181834D01*
X178455502Y-127276555D01*
X178513674Y-127390723D01*
X178604277Y-127481326D01*
X178718445Y-127539498D01*
X178813166Y-127554500D01*
X179176834Y-127554500D01*
X179271555Y-127539498D01*
X179385723Y-127481326D01*
X179476326Y-127390723D01*
X179517733Y-127309458D01*
X179566482Y-127257843D01*
X179635397Y-127240777D01*
X179702598Y-127263678D01*
X179742267Y-127309458D01*
X179783674Y-127390723D01*
X179874277Y-127481326D01*
X179988445Y-127539498D01*
X180083166Y-127554500D01*
X180446834Y-127554500D01*
X180541555Y-127539498D01*
X180655723Y-127481326D01*
X180746326Y-127390723D01*
X180787733Y-127309458D01*
X180836482Y-127257843D01*
X180905397Y-127240777D01*
X180972598Y-127263678D01*
X181012267Y-127309458D01*
X181053674Y-127390723D01*
X181144277Y-127481326D01*
X181258445Y-127539498D01*
X181353166Y-127554500D01*
X181716834Y-127554500D01*
X181811555Y-127539498D01*
X181925723Y-127481326D01*
X182016326Y-127390723D01*
X182057733Y-127309458D01*
X182106482Y-127257843D01*
X182175397Y-127240777D01*
X182242598Y-127263678D01*
X182282267Y-127309458D01*
X182323674Y-127390723D01*
X182414277Y-127481326D01*
X182528445Y-127539498D01*
X182623166Y-127554500D01*
X182986834Y-127554500D01*
X183081555Y-127539498D01*
X183195723Y-127481326D01*
X183286326Y-127390723D01*
X183344498Y-127276555D01*
X183359500Y-127181834D01*
X183359500Y-125518166D01*
X183344498Y-125423445D01*
X183286326Y-125309277D01*
X183195723Y-125218674D01*
X183081555Y-125160502D01*
X182986834Y-125145500D01*
X182732628Y-125145500D01*
X182664507Y-125125498D01*
X182618014Y-125071842D01*
X182607910Y-125001568D01*
X182637404Y-124936988D01*
X182684410Y-124903091D01*
X182684630Y-124903000D01*
X182729643Y-124884355D01*
X182740752Y-124875831D01*
X182838921Y-124800503D01*
X182838924Y-124800500D01*
X182845474Y-124795474D01*
X182934355Y-124679642D01*
X182944140Y-124656021D01*
X182987069Y-124552380D01*
X182990228Y-124544754D01*
X182991617Y-124534209D01*
X183008207Y-124408188D01*
X183009285Y-124400000D01*
X182994060Y-124284355D01*
X182991306Y-124263432D01*
X182991305Y-124263430D01*
X182990228Y-124255246D01*
X182970422Y-124207430D01*
X182937515Y-124127986D01*
X182937514Y-124127984D01*
X182934355Y-124120358D01*
X182889915Y-124062442D01*
X182850501Y-124011077D01*
X182850500Y-124011076D01*
X182845474Y-124004526D01*
X182838924Y-123999500D01*
X182838921Y-123999497D01*
X182736196Y-123920673D01*
X182736194Y-123920672D01*
X182729643Y-123915645D01*
X182594754Y-123859772D01*
X182450000Y-123840715D01*
X182441812Y-123841793D01*
X182433554Y-123841793D01*
X182433554Y-123838019D01*
X182380692Y-123830194D01*
X182344416Y-123804894D01*
X180347065Y-121807542D01*
X180313039Y-121745230D01*
X180318104Y-121674414D01*
X180360651Y-121617579D01*
X180419712Y-121593525D01*
X180436566Y-121591306D01*
X180444754Y-121590228D01*
X180456490Y-121585367D01*
X180474282Y-121577997D01*
X180579643Y-121534355D01*
X180593512Y-121523713D01*
X180688921Y-121450503D01*
X180688924Y-121450500D01*
X180695474Y-121445474D01*
X180706300Y-121431366D01*
X180744551Y-121381516D01*
X180784355Y-121329642D01*
X180792311Y-121310436D01*
X180837069Y-121202380D01*
X180840228Y-121194754D01*
X180841548Y-121184732D01*
X180858207Y-121058188D01*
X180859285Y-121050000D01*
X180849687Y-120977095D01*
X180841306Y-120913432D01*
X180841305Y-120913430D01*
X180840228Y-120905246D01*
X180818413Y-120852580D01*
X180787515Y-120777986D01*
X180787514Y-120777984D01*
X180784355Y-120770358D01*
X180779327Y-120763805D01*
X180779325Y-120763802D01*
X180707538Y-120670247D01*
X180681937Y-120604027D01*
X180681500Y-120593543D01*
X180681500Y-120507739D01*
X180701502Y-120439618D01*
X180718405Y-120418644D01*
X180746326Y-120390723D01*
X180787733Y-120309458D01*
X180836482Y-120257843D01*
X180905397Y-120240777D01*
X180972598Y-120263678D01*
X181012267Y-120309458D01*
X181053674Y-120390723D01*
X181144277Y-120481326D01*
X181258445Y-120539498D01*
X181353166Y-120554500D01*
X181716834Y-120554500D01*
X181811555Y-120539498D01*
X181925723Y-120481326D01*
X182016326Y-120390723D01*
X182057733Y-120309458D01*
X182106482Y-120257843D01*
X182175397Y-120240777D01*
X182242598Y-120263678D01*
X182282267Y-120309458D01*
X182323674Y-120390723D01*
X182414277Y-120481326D01*
X182528445Y-120539498D01*
X182623166Y-120554500D01*
X182986834Y-120554500D01*
X183081555Y-120539498D01*
X183195723Y-120481326D01*
X183286326Y-120390723D01*
X183344498Y-120276555D01*
X183359500Y-120181834D01*
X183359500Y-119089694D01*
X183379502Y-119021573D01*
X183433158Y-118975080D01*
X183503432Y-118964976D01*
X183562202Y-118989731D01*
X183620357Y-119034355D01*
X183755246Y-119090228D01*
X183900000Y-119109285D01*
X183905765Y-119108526D01*
X183972799Y-119128209D01*
X183993773Y-119145112D01*
X184388084Y-119539423D01*
X184400592Y-119554909D01*
X184403526Y-119558134D01*
X184409175Y-119566882D01*
X184417352Y-119573328D01*
X184433430Y-119586003D01*
X184437435Y-119589563D01*
X184437520Y-119589463D01*
X184441477Y-119592816D01*
X184445156Y-119596495D01*
X184449385Y-119599517D01*
X184459682Y-119606876D01*
X184464422Y-119610435D01*
X184501857Y-119639946D01*
X184509924Y-119642779D01*
X184516886Y-119647754D01*
X184562297Y-119661334D01*
X184562585Y-119661420D01*
X184568230Y-119663254D01*
X184613208Y-119679050D01*
X184618404Y-119679500D01*
X184621109Y-119679500D01*
X184623366Y-119679597D01*
X184623841Y-119679739D01*
X184623839Y-119679786D01*
X184624040Y-119679799D01*
X184629956Y-119681568D01*
X184680125Y-119679597D01*
X184685071Y-119679500D01*
X184829616Y-119679500D01*
X184897737Y-119699502D01*
X184944230Y-119753158D01*
X184954334Y-119823432D01*
X184924840Y-119888012D01*
X184918711Y-119894595D01*
X184419784Y-120393522D01*
X184401036Y-120408664D01*
X184399811Y-120409779D01*
X184391060Y-120415429D01*
X184384613Y-120423607D01*
X184384611Y-120423609D01*
X184370271Y-120441800D01*
X184366325Y-120446241D01*
X184366398Y-120446303D01*
X184363039Y-120450267D01*
X184359362Y-120453944D01*
X184348108Y-120469692D01*
X184344602Y-120474362D01*
X184312844Y-120514647D01*
X184309812Y-120523281D01*
X184304486Y-120530734D01*
X184301501Y-120540715D01*
X184289799Y-120579844D01*
X184287964Y-120585492D01*
X184281719Y-120603276D01*
X184270982Y-120633851D01*
X184270500Y-120639416D01*
X184270500Y-120642124D01*
X184270386Y-120644758D01*
X184270357Y-120644856D01*
X184270193Y-120644849D01*
X184270149Y-120645553D01*
X184268287Y-120651778D01*
X184268696Y-120662183D01*
X184270403Y-120705635D01*
X184270500Y-120710582D01*
X184270500Y-123340936D01*
X184250498Y-123409057D01*
X184244463Y-123417640D01*
X184165645Y-123520358D01*
X184162486Y-123527984D01*
X184162485Y-123527986D01*
X184136602Y-123590474D01*
X184109772Y-123655246D01*
X184108695Y-123663430D01*
X184108694Y-123663432D01*
X184096075Y-123759285D01*
X184090715Y-123800000D01*
X184091793Y-123808188D01*
X184106602Y-123920673D01*
X184109772Y-123944754D01*
X184112931Y-123952380D01*
X184151296Y-124045000D01*
X184165645Y-124079642D01*
X184254526Y-124195474D01*
X184261076Y-124200500D01*
X184261079Y-124200503D01*
X184363804Y-124279327D01*
X184370357Y-124284355D01*
X184505246Y-124340228D01*
X184650000Y-124359285D01*
X184658188Y-124358207D01*
X184786566Y-124341306D01*
X184794754Y-124340228D01*
X184929643Y-124284355D01*
X184936196Y-124279327D01*
X185038921Y-124200503D01*
X185038924Y-124200500D01*
X185045474Y-124195474D01*
X185134355Y-124079642D01*
X185148705Y-124045000D01*
X185187069Y-123952380D01*
X185190228Y-123944754D01*
X185193399Y-123920673D01*
X185200505Y-123866691D01*
X185229227Y-123801764D01*
X185288492Y-123762672D01*
X185333554Y-123758910D01*
X185333554Y-123758207D01*
X185341812Y-123758207D01*
X185350000Y-123759285D01*
X185358188Y-123758207D01*
X185486568Y-123741306D01*
X185486570Y-123741305D01*
X185494754Y-123740228D01*
X185558281Y-123713914D01*
X185628871Y-123706325D01*
X185646754Y-123712184D01*
X185646956Y-123711530D01*
X185656294Y-123714416D01*
X185665082Y-123718712D01*
X185674759Y-123720124D01*
X185674760Y-123720124D01*
X185734505Y-123728840D01*
X185734511Y-123728840D01*
X185739032Y-123729500D01*
X187460968Y-123729500D01*
X187492745Y-123724822D01*
X187525870Y-123719946D01*
X187525872Y-123719945D01*
X187535561Y-123718519D01*
X187590793Y-123691401D01*
X187639622Y-123667428D01*
X187639624Y-123667427D01*
X187648970Y-123662838D01*
X187738229Y-123573424D01*
X187793712Y-123459918D01*
X187803581Y-123392269D01*
X187803840Y-123390495D01*
X187803840Y-123390489D01*
X187804500Y-123385968D01*
X187804500Y-123064032D01*
X187793519Y-122989439D01*
X187776847Y-122955482D01*
X187764779Y-122885518D01*
X187776749Y-122844621D01*
X187793712Y-122809918D01*
X187798070Y-122780048D01*
X187803840Y-122740495D01*
X187803840Y-122740489D01*
X187804500Y-122735968D01*
X187804500Y-122414032D01*
X187797094Y-122363724D01*
X187794946Y-122349130D01*
X187794945Y-122349128D01*
X187793519Y-122339439D01*
X187776847Y-122305482D01*
X187764779Y-122235518D01*
X187776749Y-122194621D01*
X187793712Y-122159918D01*
X187801626Y-122105671D01*
X187803840Y-122090495D01*
X187803840Y-122090489D01*
X187804500Y-122085968D01*
X187804500Y-121764032D01*
X187799097Y-121727329D01*
X187794946Y-121699130D01*
X187794945Y-121699128D01*
X187793519Y-121689439D01*
X187776847Y-121655482D01*
X187764779Y-121585518D01*
X187776749Y-121544621D01*
X187793712Y-121509918D01*
X187800136Y-121465882D01*
X187803840Y-121440495D01*
X187803840Y-121440489D01*
X187804500Y-121435968D01*
X187804500Y-121114032D01*
X187796239Y-121057914D01*
X187794946Y-121049130D01*
X187794945Y-121049128D01*
X187793519Y-121039439D01*
X187776847Y-121005482D01*
X187764779Y-120935518D01*
X187776749Y-120894621D01*
X187793712Y-120859918D01*
X187796353Y-120841812D01*
X187803840Y-120790495D01*
X187803840Y-120790489D01*
X187804500Y-120785968D01*
X187804500Y-120464032D01*
X187797818Y-120418644D01*
X187794946Y-120399130D01*
X187794945Y-120399128D01*
X187793519Y-120389439D01*
X187776847Y-120355482D01*
X187764779Y-120285518D01*
X187776749Y-120244621D01*
X187793712Y-120209918D01*
X187797971Y-120180722D01*
X187803840Y-120140495D01*
X187803840Y-120140489D01*
X187804500Y-120135968D01*
X187804500Y-119814032D01*
X187793519Y-119739439D01*
X187776847Y-119705482D01*
X187764779Y-119635518D01*
X187776749Y-119594621D01*
X187793712Y-119559918D01*
X187800093Y-119516180D01*
X187803840Y-119490495D01*
X187803840Y-119490489D01*
X187804500Y-119485968D01*
X187804500Y-119180500D01*
X187824502Y-119112379D01*
X187878158Y-119065886D01*
X187930500Y-119054500D01*
X188071080Y-119054500D01*
X188095028Y-119057049D01*
X188096693Y-119057128D01*
X188106876Y-119059320D01*
X188117217Y-119058096D01*
X188140223Y-119055373D01*
X188146154Y-119055023D01*
X188146146Y-119054928D01*
X188151324Y-119054500D01*
X188156524Y-119054500D01*
X188161653Y-119053646D01*
X188161656Y-119053646D01*
X188175565Y-119051331D01*
X188181443Y-119050494D01*
X188210482Y-119047057D01*
X188280482Y-119058914D01*
X188332959Y-119106733D01*
X188351253Y-119175332D01*
X188329555Y-119242932D01*
X188324253Y-119250174D01*
X188312844Y-119264647D01*
X188309812Y-119273281D01*
X188304486Y-119280734D01*
X188293471Y-119317567D01*
X188289799Y-119329844D01*
X188287964Y-119335492D01*
X188280028Y-119358092D01*
X188270982Y-119383851D01*
X188270500Y-119389416D01*
X188270500Y-119392124D01*
X188270386Y-119394758D01*
X188270357Y-119394856D01*
X188270193Y-119394849D01*
X188270149Y-119395553D01*
X188268287Y-119401778D01*
X188268696Y-119412183D01*
X188270403Y-119455635D01*
X188270500Y-119460582D01*
X188270500Y-120390936D01*
X188250498Y-120459057D01*
X188244463Y-120467640D01*
X188213694Y-120507739D01*
X188165645Y-120570358D01*
X188162486Y-120577984D01*
X188162485Y-120577986D01*
X188134786Y-120644857D01*
X188109772Y-120705246D01*
X188108695Y-120713430D01*
X188108694Y-120713432D01*
X188102908Y-120757386D01*
X188090715Y-120850000D01*
X188091793Y-120858188D01*
X188107295Y-120975936D01*
X188109772Y-120994754D01*
X188119493Y-121018222D01*
X188161859Y-121120501D01*
X188165645Y-121129642D01*
X188195685Y-121168791D01*
X188231611Y-121215610D01*
X188254526Y-121245474D01*
X188261076Y-121250500D01*
X188261079Y-121250503D01*
X188363804Y-121329327D01*
X188370357Y-121334355D01*
X188505246Y-121390228D01*
X188513434Y-121391306D01*
X188536700Y-121394369D01*
X188650000Y-121409285D01*
X188658188Y-121408207D01*
X188786566Y-121391306D01*
X188794754Y-121390228D01*
X188929643Y-121334355D01*
X188936196Y-121329327D01*
X189038921Y-121250503D01*
X189038924Y-121250500D01*
X189045474Y-121245474D01*
X189068390Y-121215610D01*
X189104315Y-121168791D01*
X189134355Y-121129642D01*
X189138142Y-121120501D01*
X189180507Y-121018222D01*
X189190228Y-120994754D01*
X189192706Y-120975936D01*
X189208207Y-120858188D01*
X189209285Y-120850000D01*
X189197092Y-120757386D01*
X189191306Y-120713432D01*
X189191305Y-120713430D01*
X189190228Y-120705246D01*
X189165214Y-120644857D01*
X189137515Y-120577986D01*
X189137514Y-120577984D01*
X189134355Y-120570358D01*
X189086306Y-120507739D01*
X189055537Y-120467640D01*
X189029937Y-120401419D01*
X189029500Y-120390936D01*
X189029500Y-119659384D01*
X189049502Y-119591263D01*
X189066405Y-119570289D01*
X189443740Y-119192954D01*
X189506052Y-119158928D01*
X189516380Y-119157129D01*
X189644754Y-119140228D01*
X189779643Y-119084355D01*
X189786196Y-119079327D01*
X189888921Y-119000503D01*
X189888924Y-119000500D01*
X189895474Y-118995474D01*
X189984355Y-118879642D01*
X189986946Y-118873387D01*
X190037832Y-118824870D01*
X190107546Y-118811436D01*
X190173456Y-118837824D01*
X190184661Y-118847770D01*
X192032075Y-120695184D01*
X192066101Y-120757496D01*
X192068980Y-120784279D01*
X192068980Y-120844347D01*
X192066874Y-120864141D01*
X192066669Y-120868494D01*
X192064477Y-120878674D01*
X192066364Y-120894617D01*
X192068107Y-120909341D01*
X192068422Y-120914687D01*
X192068552Y-120914676D01*
X192068980Y-120919856D01*
X192068980Y-120925055D01*
X192069833Y-120930179D01*
X192069834Y-120930192D01*
X192071907Y-120942645D01*
X192072744Y-120948520D01*
X192075260Y-120969776D01*
X192078349Y-120995874D01*
X192082050Y-121003582D01*
X192083455Y-121012021D01*
X192106106Y-121054000D01*
X192108790Y-121059268D01*
X192129435Y-121102262D01*
X192132791Y-121106254D01*
X192134738Y-121108201D01*
X192136228Y-121109826D01*
X192136461Y-121110258D01*
X192136425Y-121110291D01*
X192136564Y-121110449D01*
X192139497Y-121115884D01*
X192147144Y-121122953D01*
X192176349Y-121149950D01*
X192179915Y-121153378D01*
X192284099Y-121257561D01*
X192358595Y-121332057D01*
X192392620Y-121394369D01*
X192395500Y-121421153D01*
X192395500Y-121435968D01*
X192399477Y-121462982D01*
X192404835Y-121499377D01*
X192406481Y-121510561D01*
X192415695Y-121529327D01*
X192423153Y-121544518D01*
X192435221Y-121614482D01*
X192423251Y-121655379D01*
X192406288Y-121690082D01*
X192404876Y-121699761D01*
X192396165Y-121759476D01*
X192395500Y-121764032D01*
X192395500Y-122085968D01*
X192396171Y-122090524D01*
X192404457Y-122146809D01*
X192406481Y-122160561D01*
X192421721Y-122191602D01*
X192423153Y-122194518D01*
X192435221Y-122264482D01*
X192423251Y-122305379D01*
X192406288Y-122340082D01*
X192404876Y-122349761D01*
X192396165Y-122409476D01*
X192395500Y-122414032D01*
X192395500Y-122735968D01*
X192397787Y-122751502D01*
X192404857Y-122799526D01*
X192406481Y-122810561D01*
X192420862Y-122839851D01*
X192423153Y-122844518D01*
X192435221Y-122914482D01*
X192423251Y-122955379D01*
X192406288Y-122990082D01*
X192404876Y-122999761D01*
X192396165Y-123059476D01*
X192395500Y-123064032D01*
X192395500Y-123385968D01*
X192396171Y-123390524D01*
X192404151Y-123444732D01*
X192406481Y-123460561D01*
X192419830Y-123487750D01*
X192453174Y-123555663D01*
X192462162Y-123573970D01*
X192551576Y-123663229D01*
X192665082Y-123718712D01*
X192674761Y-123720124D01*
X192734505Y-123728840D01*
X192734511Y-123728840D01*
X192739032Y-123729500D01*
X194460968Y-123729500D01*
X194492745Y-123724822D01*
X194525870Y-123719946D01*
X194525872Y-123719945D01*
X194535561Y-123718519D01*
X194590793Y-123691401D01*
X194639622Y-123667428D01*
X194639624Y-123667427D01*
X194648970Y-123662838D01*
X194738229Y-123573424D01*
X194744183Y-123561243D01*
X194748007Y-123556770D01*
X194748849Y-123555589D01*
X194748953Y-123555663D01*
X194785109Y-123513366D01*
X194793743Y-123507321D01*
X194803004Y-123501422D01*
X194804397Y-123500618D01*
X194836229Y-123482239D01*
X194843313Y-123473796D01*
X194843316Y-123473794D01*
X194860902Y-123452836D01*
X194868328Y-123444732D01*
X196669732Y-121643328D01*
X196677836Y-121635902D01*
X196698793Y-121618317D01*
X196698796Y-121618314D01*
X196707239Y-121611229D01*
X196721189Y-121587068D01*
X196726426Y-121577997D01*
X196732322Y-121568741D01*
X196754340Y-121537297D01*
X196757194Y-121526645D01*
X196758770Y-121523266D01*
X196760040Y-121519776D01*
X196765551Y-121510231D01*
X196769681Y-121486812D01*
X196772217Y-121472427D01*
X196774596Y-121461698D01*
X196781671Y-121435293D01*
X196781671Y-121435291D01*
X196784523Y-121424647D01*
X196781179Y-121386423D01*
X196780700Y-121375442D01*
X196780700Y-117322280D01*
X196800702Y-117254159D01*
X196817605Y-117233185D01*
X197157978Y-116892812D01*
X197165592Y-116878868D01*
X197165461Y-116877035D01*
X197161210Y-116870420D01*
X196817605Y-116526815D01*
X196783579Y-116464503D01*
X196780700Y-116437720D01*
X196780700Y-115074390D01*
X196800702Y-115006269D01*
X196854358Y-114959776D01*
X196924632Y-114949672D01*
X196980761Y-114972454D01*
X197105109Y-115062798D01*
X197110451Y-115066679D01*
X197116479Y-115069363D01*
X197116481Y-115069364D01*
X197264674Y-115135344D01*
X197270705Y-115138029D01*
X197356498Y-115156265D01*
X197435833Y-115173128D01*
X197435837Y-115173128D01*
X197442290Y-115174500D01*
X197617710Y-115174500D01*
X197624163Y-115173128D01*
X197624167Y-115173128D01*
X197703502Y-115156265D01*
X197789295Y-115138029D01*
X197795328Y-115135343D01*
X197795334Y-115135341D01*
X197878751Y-115098201D01*
X197949117Y-115088766D01*
X198013415Y-115118872D01*
X198051228Y-115178961D01*
X198056000Y-115213307D01*
X198056000Y-116007240D01*
X198035998Y-116075361D01*
X197982342Y-116121854D01*
X197912068Y-116131958D01*
X197878752Y-116122347D01*
X197795175Y-116085136D01*
X197782683Y-116081078D01*
X197624114Y-116047372D01*
X197611054Y-116046000D01*
X197448946Y-116046000D01*
X197435886Y-116047372D01*
X197277317Y-116081078D01*
X197264829Y-116085135D01*
X197163415Y-116130288D01*
X197152671Y-116139420D01*
X197154268Y-116145058D01*
X197800115Y-116790905D01*
X197834141Y-116853217D01*
X197829076Y-116924032D01*
X197800115Y-116969095D01*
X197159678Y-117609532D01*
X197152918Y-117621912D01*
X197156429Y-117626602D01*
X197264829Y-117674865D01*
X197277317Y-117678922D01*
X197435886Y-117712628D01*
X197448946Y-117714000D01*
X197611054Y-117714000D01*
X197624114Y-117712628D01*
X197782683Y-117678922D01*
X197795175Y-117674864D01*
X197878752Y-117637653D01*
X197949119Y-117628219D01*
X198013416Y-117658326D01*
X198051229Y-117718415D01*
X198056000Y-117752760D01*
X198056000Y-129350000D01*
X198035998Y-129418121D01*
X197982342Y-129464614D01*
X197930000Y-129476000D01*
X193798149Y-129476000D01*
X193730028Y-129455998D01*
X193683535Y-129402342D01*
X193673431Y-129332068D01*
X193702925Y-129267488D01*
X193751765Y-129232848D01*
X193760068Y-129229561D01*
X193897142Y-129175289D01*
X194167787Y-129026500D01*
X194170991Y-129024172D01*
X194170996Y-129024169D01*
X194414447Y-128847292D01*
X194414449Y-128847291D01*
X194417651Y-128844964D01*
X194642791Y-128633543D01*
X194839658Y-128395571D01*
X195005147Y-128134802D01*
X195136649Y-127855348D01*
X195232088Y-127561616D01*
X195289960Y-127258239D01*
X195309353Y-126950000D01*
X195289960Y-126641761D01*
X195232088Y-126338384D01*
X195136649Y-126044652D01*
X195005147Y-125765198D01*
X194994069Y-125747741D01*
X194841780Y-125507773D01*
X194839658Y-125504429D01*
X194642791Y-125266457D01*
X194417651Y-125055036D01*
X194402226Y-125043829D01*
X194170996Y-124875831D01*
X194170991Y-124875828D01*
X194167787Y-124873500D01*
X193897142Y-124724711D01*
X193609982Y-124611016D01*
X193310837Y-124534209D01*
X193004424Y-124495500D01*
X192695576Y-124495500D01*
X192389163Y-124534209D01*
X192090018Y-124611016D01*
X191802858Y-124724711D01*
X191532213Y-124873500D01*
X191529009Y-124875828D01*
X191529004Y-124875831D01*
X191297774Y-125043829D01*
X191282349Y-125055036D01*
X191057209Y-125266457D01*
X190860342Y-125504429D01*
X190858220Y-125507773D01*
X190705932Y-125747741D01*
X190694853Y-125765198D01*
X190563351Y-126044652D01*
X190467912Y-126338384D01*
X190410040Y-126641761D01*
X190390647Y-126950000D01*
X190410040Y-127258239D01*
X190467912Y-127561616D01*
X190563351Y-127855348D01*
X190694853Y-128134802D01*
X190860342Y-128395571D01*
X191057209Y-128633543D01*
X191282349Y-128844964D01*
X191285551Y-128847291D01*
X191285553Y-128847292D01*
X191529004Y-129024169D01*
X191529009Y-129024172D01*
X191532213Y-129026500D01*
X191802858Y-129175289D01*
X191939932Y-129229561D01*
X191948235Y-129232848D01*
X192004209Y-129276523D01*
X192027685Y-129343526D01*
X192011209Y-129412584D01*
X191960013Y-129461773D01*
X191901851Y-129476000D01*
X171731286Y-129476000D01*
X171663165Y-129455998D01*
X171616672Y-129402342D01*
X171606568Y-129332068D01*
X171629350Y-129275939D01*
X171648318Y-129249832D01*
X171654885Y-129238458D01*
X171726806Y-129076919D01*
X171730863Y-129064433D01*
X171731439Y-129061721D01*
X171730366Y-129047659D01*
X171720411Y-129044000D01*
X168112909Y-129044000D01*
X168099378Y-129047973D01*
X168097869Y-129058468D01*
X168099136Y-129064428D01*
X168103196Y-129076923D01*
X168175116Y-129238459D01*
X168181682Y-129249831D01*
X168200651Y-129275939D01*
X168224509Y-129342806D01*
X168208429Y-129411958D01*
X168157516Y-129461438D01*
X168098715Y-129476000D01*
X167231286Y-129476000D01*
X167163165Y-129455998D01*
X167116672Y-129402342D01*
X167106568Y-129332068D01*
X167129350Y-129275939D01*
X167148318Y-129249832D01*
X167154885Y-129238458D01*
X167226806Y-129076919D01*
X167230863Y-129064433D01*
X167231439Y-129061721D01*
X167230366Y-129047659D01*
X167220411Y-129044000D01*
X164312909Y-129044000D01*
X164299378Y-129047973D01*
X164297869Y-129058468D01*
X164299136Y-129064428D01*
X164303196Y-129076923D01*
X164375116Y-129238459D01*
X164381682Y-129249831D01*
X164400651Y-129275939D01*
X164424509Y-129342806D01*
X164408429Y-129411958D01*
X164357516Y-129461438D01*
X164298715Y-129476000D01*
X163130000Y-129476000D01*
X163061879Y-129455998D01*
X163015386Y-129402342D01*
X163004000Y-129350000D01*
X163004000Y-128518279D01*
X164298561Y-128518279D01*
X164299634Y-128532341D01*
X164309589Y-128536000D01*
X165492885Y-128536000D01*
X165508124Y-128531525D01*
X165509329Y-128530135D01*
X165511000Y-128522452D01*
X165511000Y-128517885D01*
X166019000Y-128517885D01*
X166023475Y-128533124D01*
X166024865Y-128534329D01*
X166032548Y-128536000D01*
X167217091Y-128536000D01*
X167230622Y-128532027D01*
X167232131Y-128521532D01*
X167230864Y-128515572D01*
X167226804Y-128503077D01*
X167154884Y-128341541D01*
X167148318Y-128330169D01*
X167044386Y-128187118D01*
X167035595Y-128177355D01*
X166904188Y-128059037D01*
X166893569Y-128051321D01*
X166740428Y-127962905D01*
X166728439Y-127957567D01*
X166560265Y-127902924D01*
X166547424Y-127900194D01*
X166415643Y-127886344D01*
X166409083Y-127886000D01*
X166037115Y-127886000D01*
X166021876Y-127890475D01*
X166020671Y-127891865D01*
X166019000Y-127899548D01*
X166019000Y-128517885D01*
X165511000Y-128517885D01*
X165511000Y-127904115D01*
X165506525Y-127888876D01*
X165505135Y-127887671D01*
X165497452Y-127886000D01*
X165120917Y-127886000D01*
X165114357Y-127886344D01*
X164982576Y-127900194D01*
X164969735Y-127902924D01*
X164801561Y-127957567D01*
X164789572Y-127962905D01*
X164636431Y-128051321D01*
X164625812Y-128059037D01*
X164494405Y-128177355D01*
X164485614Y-128187118D01*
X164381682Y-128330168D01*
X164375115Y-128341542D01*
X164303194Y-128503081D01*
X164299137Y-128515567D01*
X164298561Y-128518279D01*
X163004000Y-128518279D01*
X163004000Y-120418468D01*
X164297869Y-120418468D01*
X164299136Y-120424428D01*
X164303196Y-120436923D01*
X164375116Y-120598459D01*
X164381682Y-120609831D01*
X164485614Y-120752882D01*
X164494405Y-120762645D01*
X164625812Y-120880963D01*
X164636431Y-120888679D01*
X164789572Y-120977095D01*
X164801561Y-120982433D01*
X164969735Y-121037076D01*
X164982576Y-121039806D01*
X165114357Y-121053656D01*
X165120917Y-121054000D01*
X165195663Y-121054000D01*
X165263784Y-121074002D01*
X165310277Y-121127658D01*
X165320381Y-121197932D01*
X165297015Y-121254859D01*
X165224834Y-121352585D01*
X165216116Y-121369049D01*
X165176548Y-121481723D01*
X165173281Y-121496614D01*
X165171279Y-121517799D01*
X165171000Y-121523713D01*
X165171000Y-121577885D01*
X165175475Y-121593124D01*
X165176865Y-121594329D01*
X165184548Y-121596000D01*
X165552885Y-121596000D01*
X165568124Y-121591525D01*
X165569329Y-121590135D01*
X165571000Y-121582452D01*
X165571000Y-121139116D01*
X165566526Y-121123877D01*
X165554488Y-121113447D01*
X165516104Y-121053721D01*
X165511000Y-121018222D01*
X165511000Y-120422115D01*
X165506525Y-120406876D01*
X165505135Y-120405671D01*
X165497452Y-120404000D01*
X164312909Y-120404000D01*
X164299378Y-120407973D01*
X164297869Y-120418468D01*
X163004000Y-120418468D01*
X163004000Y-119878279D01*
X164298561Y-119878279D01*
X164299634Y-119892341D01*
X164309589Y-119896000D01*
X165492885Y-119896000D01*
X165508124Y-119891525D01*
X165509329Y-119890135D01*
X165511000Y-119882452D01*
X165511000Y-119264115D01*
X165506525Y-119248876D01*
X165505135Y-119247671D01*
X165497452Y-119246000D01*
X165120917Y-119246000D01*
X165114357Y-119246344D01*
X164982576Y-119260194D01*
X164969735Y-119262924D01*
X164801561Y-119317567D01*
X164789572Y-119322905D01*
X164636431Y-119411321D01*
X164625812Y-119419037D01*
X164494405Y-119537355D01*
X164485614Y-119547118D01*
X164381682Y-119690168D01*
X164375115Y-119701542D01*
X164303194Y-119863081D01*
X164299137Y-119875567D01*
X164298561Y-119878279D01*
X163004000Y-119878279D01*
X163004000Y-117698798D01*
X163024002Y-117630677D01*
X163077658Y-117584184D01*
X163147932Y-117574080D01*
X163212512Y-117603574D01*
X163232897Y-117626078D01*
X163253579Y-117655343D01*
X163261057Y-117664098D01*
X163398114Y-117797612D01*
X163407058Y-117804855D01*
X163566156Y-117911161D01*
X163576266Y-117916651D01*
X163752077Y-117992185D01*
X163763020Y-117995740D01*
X163828332Y-118010519D01*
X163842405Y-118009630D01*
X163845828Y-118000681D01*
X164354000Y-118000681D01*
X164357966Y-118014187D01*
X164366672Y-118015433D01*
X164545497Y-117954730D01*
X164555994Y-117950056D01*
X164722958Y-117856552D01*
X164732430Y-117850042D01*
X164879553Y-117727682D01*
X164887682Y-117719553D01*
X165010042Y-117572430D01*
X165016552Y-117562958D01*
X165110056Y-117395994D01*
X165114730Y-117385497D01*
X165175443Y-117206644D01*
X165174210Y-117197993D01*
X165160642Y-117194000D01*
X164372115Y-117194000D01*
X164356876Y-117198475D01*
X164355671Y-117199865D01*
X164354000Y-117207548D01*
X164354000Y-118000681D01*
X163845828Y-118000681D01*
X163846000Y-118000232D01*
X163846000Y-116667885D01*
X164354000Y-116667885D01*
X164358475Y-116683124D01*
X164359865Y-116684329D01*
X164367548Y-116686000D01*
X165157398Y-116686000D01*
X165170929Y-116682027D01*
X165172098Y-116673892D01*
X165136658Y-116548231D01*
X165132533Y-116537484D01*
X165047903Y-116365871D01*
X165041893Y-116356063D01*
X164927400Y-116202739D01*
X164919710Y-116194199D01*
X164779192Y-116064304D01*
X164770067Y-116057303D01*
X164608236Y-115955195D01*
X164597989Y-115949974D01*
X164420260Y-115879068D01*
X164409232Y-115875801D01*
X164371769Y-115868350D01*
X164358894Y-115869502D01*
X164354000Y-115884658D01*
X164354000Y-116667885D01*
X163846000Y-116667885D01*
X163846000Y-115881500D01*
X163842194Y-115868538D01*
X163827279Y-115866602D01*
X163818732Y-115868071D01*
X163807620Y-115871048D01*
X163628095Y-115937279D01*
X163617717Y-115942229D01*
X163453273Y-116040063D01*
X163443961Y-116046829D01*
X163300097Y-116172994D01*
X163292180Y-116181337D01*
X163228950Y-116261544D01*
X163171069Y-116302657D01*
X163100149Y-116305951D01*
X163038706Y-116270379D01*
X163006249Y-116207236D01*
X163004000Y-116183538D01*
X163004000Y-115614085D01*
X163024002Y-115545964D01*
X163077658Y-115499471D01*
X163154581Y-115490506D01*
X163224933Y-115504500D01*
X164099858Y-115504500D01*
X164975066Y-115504499D01*
X165018642Y-115495832D01*
X165037126Y-115492156D01*
X165037128Y-115492155D01*
X165049301Y-115489734D01*
X165059621Y-115482839D01*
X165059622Y-115482838D01*
X165123168Y-115440377D01*
X165133484Y-115433484D01*
X165189734Y-115349301D01*
X165204500Y-115275067D01*
X165204499Y-113524934D01*
X165197388Y-113489182D01*
X165192156Y-113462874D01*
X165192155Y-113462872D01*
X165189734Y-113450699D01*
X165180537Y-113436934D01*
X165180536Y-113436933D01*
X166783500Y-113436933D01*
X166783501Y-115187066D01*
X166798266Y-115261301D01*
X166805161Y-115271620D01*
X166805162Y-115271622D01*
X166845516Y-115332015D01*
X166854516Y-115345484D01*
X166938699Y-115401734D01*
X167012933Y-115416500D01*
X167887858Y-115416500D01*
X168763066Y-115416499D01*
X168798818Y-115409388D01*
X168825126Y-115404156D01*
X168825128Y-115404155D01*
X168837301Y-115401734D01*
X168847621Y-115394839D01*
X168847622Y-115394838D01*
X168911168Y-115352377D01*
X168921484Y-115345484D01*
X168977734Y-115261301D01*
X168992500Y-115187067D01*
X168992499Y-113436934D01*
X168977734Y-113362699D01*
X168951654Y-113323667D01*
X168928377Y-113288832D01*
X168921484Y-113278516D01*
X168837301Y-113222266D01*
X168763067Y-113207500D01*
X167888142Y-113207500D01*
X167012934Y-113207501D01*
X166977182Y-113214612D01*
X166950874Y-113219844D01*
X166950872Y-113219845D01*
X166938699Y-113222266D01*
X166928379Y-113229161D01*
X166928378Y-113229162D01*
X166887228Y-113256658D01*
X166854516Y-113278516D01*
X166798266Y-113362699D01*
X166783500Y-113436933D01*
X165180536Y-113436933D01*
X165140377Y-113376832D01*
X165133484Y-113366516D01*
X165049301Y-113310266D01*
X164975067Y-113295500D01*
X164100142Y-113295500D01*
X163224934Y-113295501D01*
X163186401Y-113303165D01*
X163154579Y-113309494D01*
X163083865Y-113303165D01*
X163027799Y-113259609D01*
X163004000Y-113185915D01*
X163004000Y-110300000D01*
X163024002Y-110231879D01*
X163077658Y-110185386D01*
X163130000Y-110174000D01*
X197930000Y-110174000D01*
X197998121Y-110194002D01*
G37*
%TD.AperFunction*%
%TA.AperFunction,Conductor*%
G36*
X171712715Y-123545702D02*
G01*
X171745945Y-123576840D01*
X171757612Y-123592635D01*
X171799990Y-123650010D01*
X171909924Y-123731209D01*
X172038873Y-123776493D01*
X172046515Y-123777215D01*
X172046518Y-123777216D01*
X172061421Y-123778624D01*
X172070685Y-123779500D01*
X172399777Y-123779500D01*
X172729314Y-123779499D01*
X172732262Y-123779220D01*
X172732271Y-123779220D01*
X172753478Y-123777216D01*
X172753480Y-123777216D01*
X172761127Y-123776493D01*
X172766949Y-123774448D01*
X172837124Y-123779343D01*
X172894034Y-123821789D01*
X172918963Y-123888265D01*
X172919300Y-123897476D01*
X172919300Y-124003041D01*
X172899298Y-124071162D01*
X172845642Y-124117655D01*
X172775368Y-124127759D01*
X172766299Y-124126114D01*
X172753388Y-124123282D01*
X172732201Y-124121279D01*
X172726287Y-124121000D01*
X172672115Y-124121000D01*
X172656876Y-124125475D01*
X172655671Y-124126865D01*
X172654000Y-124134548D01*
X172654000Y-124903000D01*
X172633998Y-124971121D01*
X172580342Y-125017614D01*
X172528000Y-125029000D01*
X172272000Y-125029000D01*
X172203879Y-125008998D01*
X172157386Y-124955342D01*
X172146000Y-124903000D01*
X172146000Y-124139116D01*
X172141525Y-124123877D01*
X172140135Y-124122672D01*
X172132452Y-124121001D01*
X172073717Y-124121001D01*
X172067793Y-124121280D01*
X172046618Y-124123281D01*
X172031720Y-124126549D01*
X171919049Y-124166116D01*
X171902580Y-124174837D01*
X171807922Y-124244752D01*
X171794752Y-124257922D01*
X171724837Y-124352580D01*
X171716116Y-124369049D01*
X171676548Y-124481723D01*
X171673281Y-124496614D01*
X171671279Y-124517799D01*
X171671000Y-124523713D01*
X171671000Y-124531303D01*
X171650998Y-124599424D01*
X171597342Y-124645917D01*
X171527068Y-124656021D01*
X171462488Y-124626527D01*
X171455905Y-124620398D01*
X171007313Y-124171806D01*
X170973287Y-124109494D01*
X170971486Y-124066267D01*
X170973207Y-124053193D01*
X170973207Y-124053188D01*
X170974285Y-124045000D01*
X170968761Y-124003041D01*
X170956306Y-123908432D01*
X170956305Y-123908430D01*
X170955228Y-123900246D01*
X170930569Y-123840715D01*
X170902515Y-123772986D01*
X170902514Y-123772984D01*
X170899355Y-123765358D01*
X170894327Y-123758805D01*
X170894325Y-123758802D01*
X170871000Y-123728404D01*
X170845399Y-123662184D01*
X170859664Y-123592635D01*
X170909265Y-123541839D01*
X170970962Y-123525700D01*
X171644594Y-123525700D01*
X171712715Y-123545702D01*
G37*
%TD.AperFunction*%
%TA.AperFunction,Conductor*%
G36*
X177231606Y-116815002D02*
G01*
X177252580Y-116831905D01*
X177368095Y-116947420D01*
X177402121Y-117009732D01*
X177405000Y-117036515D01*
X177405000Y-120429000D01*
X177384998Y-120497121D01*
X177331342Y-120543614D01*
X177279000Y-120555000D01*
X177116151Y-120555000D01*
X177048030Y-120534998D01*
X177015325Y-120504566D01*
X176947923Y-120414633D01*
X176942544Y-120407456D01*
X176935367Y-120402077D01*
X176935364Y-120402074D01*
X176833211Y-120325514D01*
X176790696Y-120268654D01*
X176785671Y-120197836D01*
X176819730Y-120135543D01*
X176833210Y-120123862D01*
X176935010Y-120047566D01*
X176947566Y-120035010D01*
X177019092Y-119939575D01*
X177027625Y-119923988D01*
X177069865Y-119811311D01*
X177073490Y-119796066D01*
X177078631Y-119748741D01*
X177079000Y-119741927D01*
X177079000Y-119722115D01*
X177074525Y-119706876D01*
X177073135Y-119705671D01*
X177065452Y-119704000D01*
X176247000Y-119704000D01*
X176178879Y-119683998D01*
X176132386Y-119630342D01*
X176121000Y-119578000D01*
X176121000Y-119322000D01*
X176141002Y-119253879D01*
X176194658Y-119207386D01*
X176247000Y-119196000D01*
X177060885Y-119196000D01*
X177076124Y-119191525D01*
X177077329Y-119190135D01*
X177079000Y-119182452D01*
X177079000Y-119158073D01*
X177078631Y-119151259D01*
X177073490Y-119103934D01*
X177069865Y-119088689D01*
X177027625Y-118976012D01*
X177019092Y-118960425D01*
X176947566Y-118864990D01*
X176935007Y-118852431D01*
X176832794Y-118775826D01*
X176790279Y-118718966D01*
X176785254Y-118648148D01*
X176819313Y-118585855D01*
X176832794Y-118574174D01*
X176935007Y-118497569D01*
X176947566Y-118485010D01*
X177019092Y-118389575D01*
X177027625Y-118373988D01*
X177069865Y-118261311D01*
X177073490Y-118246066D01*
X177078631Y-118198741D01*
X177079000Y-118191927D01*
X177079000Y-118172115D01*
X177074525Y-118156876D01*
X177073135Y-118155671D01*
X177065452Y-118154000D01*
X176247000Y-118154000D01*
X176178879Y-118133998D01*
X176132386Y-118080342D01*
X176121000Y-118028000D01*
X176121000Y-117772000D01*
X176141002Y-117703879D01*
X176194658Y-117657386D01*
X176247000Y-117646000D01*
X177060885Y-117646000D01*
X177076124Y-117641525D01*
X177077329Y-117640135D01*
X177079000Y-117632452D01*
X177079000Y-117608073D01*
X177078631Y-117601259D01*
X177073490Y-117553934D01*
X177069865Y-117538689D01*
X177027625Y-117426012D01*
X177019092Y-117410425D01*
X176947566Y-117314990D01*
X176935010Y-117302434D01*
X176841138Y-117232080D01*
X176798624Y-117175220D01*
X176793599Y-117104402D01*
X176827659Y-117042108D01*
X176841845Y-117029903D01*
X176942436Y-116955605D01*
X176942439Y-116955602D01*
X176950010Y-116950010D01*
X177026730Y-116846140D01*
X177083291Y-116803230D01*
X177128081Y-116795000D01*
X177163485Y-116795000D01*
X177231606Y-116815002D01*
G37*
%TD.AperFunction*%
%TA.AperFunction,Conductor*%
G36*
X189021337Y-115168039D02*
G01*
X189055781Y-115192475D01*
X191982075Y-118118769D01*
X192016101Y-118181081D01*
X192018980Y-118207864D01*
X192018980Y-118252039D01*
X192016431Y-118275987D01*
X192016352Y-118277652D01*
X192014160Y-118287835D01*
X192015384Y-118298176D01*
X192018107Y-118321182D01*
X192018457Y-118327113D01*
X192018552Y-118327105D01*
X192018980Y-118332283D01*
X192018980Y-118337483D01*
X192019834Y-118342612D01*
X192019834Y-118342615D01*
X192022149Y-118356524D01*
X192022986Y-118362402D01*
X192026317Y-118390542D01*
X192029010Y-118413300D01*
X192032973Y-118421552D01*
X192034476Y-118430585D01*
X192039423Y-118439754D01*
X192039424Y-118439756D01*
X192058814Y-118475691D01*
X192061511Y-118480984D01*
X192080265Y-118520041D01*
X192080268Y-118520045D01*
X192083699Y-118527191D01*
X192087294Y-118531467D01*
X192089217Y-118533390D01*
X192090989Y-118535322D01*
X192091032Y-118535401D01*
X192090908Y-118535514D01*
X192091384Y-118536054D01*
X192094470Y-118541773D01*
X192102115Y-118548840D01*
X192134066Y-118578375D01*
X192137632Y-118581805D01*
X192366651Y-118810824D01*
X192400677Y-118873136D01*
X192402212Y-118881568D01*
X192405053Y-118900870D01*
X192405056Y-118900879D01*
X192406481Y-118910561D01*
X192410796Y-118919349D01*
X192410796Y-118919350D01*
X192423153Y-118944518D01*
X192435221Y-119014482D01*
X192423251Y-119055379D01*
X192406288Y-119090082D01*
X192404876Y-119099761D01*
X192396193Y-119159285D01*
X192395500Y-119164032D01*
X192395500Y-119289971D01*
X192375498Y-119358092D01*
X192321842Y-119404585D01*
X192251568Y-119414689D01*
X192186988Y-119385195D01*
X192180405Y-119379066D01*
X188403819Y-115602481D01*
X188369793Y-115540169D01*
X188374858Y-115469354D01*
X188417405Y-115412518D01*
X188462833Y-115391180D01*
X188466945Y-115390584D01*
X188472416Y-115388727D01*
X188653693Y-115327192D01*
X188653698Y-115327190D01*
X188659165Y-115325334D01*
X188665019Y-115322056D01*
X188748923Y-115275067D01*
X188836276Y-115226147D01*
X188875966Y-115193137D01*
X188886117Y-115184695D01*
X188951282Y-115156515D01*
X189021337Y-115168039D01*
G37*
%TD.AperFunction*%
M02*
