%TF.GenerationSoftware,KiCad,Pcbnew,(6.0.2)*%
%TF.CreationDate,2022-05-02T21:41:20-07:00*%
%TF.ProjectId,hcms_dot_display_bottom,68636d73-5f64-46f7-945f-646973706c61,rev?*%
%TF.SameCoordinates,Original*%
%TF.FileFunction,Legend,Top*%
%TF.FilePolarity,Positive*%
%FSLAX46Y46*%
G04 Gerber Fmt 4.6, Leading zero omitted, Abs format (unit mm)*
G04 Created by KiCad (PCBNEW (6.0.2)) date 2022-05-02 21:41:20*
%MOMM*%
%LPD*%
G01*
G04 APERTURE LIST*
G04 Aperture macros list*
%AMRoundRect*
0 Rectangle with rounded corners*
0 $1 Rounding radius*
0 $2 $3 $4 $5 $6 $7 $8 $9 X,Y pos of 4 corners*
0 Add a 4 corners polygon primitive as box body*
4,1,4,$2,$3,$4,$5,$6,$7,$8,$9,$2,$3,0*
0 Add four circle primitives for the rounded corners*
1,1,$1+$1,$2,$3*
1,1,$1+$1,$4,$5*
1,1,$1+$1,$6,$7*
1,1,$1+$1,$8,$9*
0 Add four rect primitives between the rounded corners*
20,1,$1+$1,$2,$3,$4,$5,0*
20,1,$1+$1,$4,$5,$6,$7,0*
20,1,$1+$1,$6,$7,$8,$9,0*
20,1,$1+$1,$8,$9,$2,$3,0*%
G04 Aperture macros list end*
%ADD10C,0.150000*%
%ADD11C,0.120000*%
%ADD12C,0.127000*%
%ADD13C,0.200000*%
%ADD14RoundRect,0.152000X0.923000X-0.608000X0.923000X0.608000X-0.923000X0.608000X-0.923000X-0.608000X0*%
%ADD15R,1.200000X0.400000*%
%ADD16RoundRect,0.225000X0.225000X0.250000X-0.225000X0.250000X-0.225000X-0.250000X0.225000X-0.250000X0*%
%ADD17RoundRect,0.200000X-0.275000X0.200000X-0.275000X-0.200000X0.275000X-0.200000X0.275000X0.200000X0*%
%ADD18RoundRect,0.200000X0.200000X0.275000X-0.200000X0.275000X-0.200000X-0.275000X0.200000X-0.275000X0*%
%ADD19R,1.700000X1.700000*%
%ADD20O,1.700000X1.700000*%
%ADD21RoundRect,0.225000X-0.250000X0.225000X-0.250000X-0.225000X0.250000X-0.225000X0.250000X0.225000X0*%
%ADD22R,1.160000X1.160000*%
%ADD23C,1.160000*%
%ADD24C,0.600000*%
%ADD25O,3.200000X1.300000*%
%ADD26O,2.500000X1.300000*%
%ADD27RoundRect,0.200000X-0.200000X-0.275000X0.200000X-0.275000X0.200000X0.275000X-0.200000X0.275000X0*%
%ADD28C,0.700000*%
%ADD29C,4.400000*%
G04 APERTURE END LIST*
D10*
X186829761Y-128913333D02*
X186877380Y-128770476D01*
X186877380Y-128532380D01*
X186829761Y-128437142D01*
X186782142Y-128389523D01*
X186686904Y-128341904D01*
X186591666Y-128341904D01*
X186496428Y-128389523D01*
X186448809Y-128437142D01*
X186401190Y-128532380D01*
X186353571Y-128722857D01*
X186305952Y-128818095D01*
X186258333Y-128865714D01*
X186163095Y-128913333D01*
X186067857Y-128913333D01*
X185972619Y-128865714D01*
X185925000Y-128818095D01*
X185877380Y-128722857D01*
X185877380Y-128484761D01*
X185925000Y-128341904D01*
X185877380Y-128008571D02*
X186877380Y-127770476D01*
X186163095Y-127580000D01*
X186877380Y-127389523D01*
X185877380Y-127151428D01*
X186877380Y-126246666D02*
X186877380Y-126818095D01*
X186877380Y-126532380D02*
X185877380Y-126532380D01*
X186020238Y-126627619D01*
X186115476Y-126722857D01*
X186163095Y-126818095D01*
X182488095Y-127902380D02*
X182488095Y-128711904D01*
X182535714Y-128807142D01*
X182583333Y-128854761D01*
X182678571Y-128902380D01*
X182869047Y-128902380D01*
X182964285Y-128854761D01*
X183011904Y-128807142D01*
X183059523Y-128711904D01*
X183059523Y-127902380D01*
X183488095Y-127997619D02*
X183535714Y-127950000D01*
X183630952Y-127902380D01*
X183869047Y-127902380D01*
X183964285Y-127950000D01*
X184011904Y-127997619D01*
X184059523Y-128092857D01*
X184059523Y-128188095D01*
X184011904Y-128330952D01*
X183440476Y-128902380D01*
X184059523Y-128902380D01*
X172733333Y-126007142D02*
X172685714Y-126054761D01*
X172542857Y-126102380D01*
X172447619Y-126102380D01*
X172304761Y-126054761D01*
X172209523Y-125959523D01*
X172161904Y-125864285D01*
X172114285Y-125673809D01*
X172114285Y-125530952D01*
X172161904Y-125340476D01*
X172209523Y-125245238D01*
X172304761Y-125150000D01*
X172447619Y-125102380D01*
X172542857Y-125102380D01*
X172685714Y-125150000D01*
X172733333Y-125197619D01*
X173066666Y-125102380D02*
X173733333Y-125102380D01*
X173304761Y-126102380D01*
X185157142Y-122127380D02*
X184823809Y-121651190D01*
X184585714Y-122127380D02*
X184585714Y-121127380D01*
X184966666Y-121127380D01*
X185061904Y-121175000D01*
X185109523Y-121222619D01*
X185157142Y-121317857D01*
X185157142Y-121460714D01*
X185109523Y-121555952D01*
X185061904Y-121603571D01*
X184966666Y-121651190D01*
X184585714Y-121651190D01*
X186109523Y-122127380D02*
X185538095Y-122127380D01*
X185823809Y-122127380D02*
X185823809Y-121127380D01*
X185728571Y-121270238D01*
X185633333Y-121365476D01*
X185538095Y-121413095D01*
X186585714Y-122127380D02*
X186776190Y-122127380D01*
X186871428Y-122079761D01*
X186919047Y-122032142D01*
X187014285Y-121889285D01*
X187061904Y-121698809D01*
X187061904Y-121317857D01*
X187014285Y-121222619D01*
X186966666Y-121175000D01*
X186871428Y-121127380D01*
X186680952Y-121127380D01*
X186585714Y-121175000D01*
X186538095Y-121222619D01*
X186490476Y-121317857D01*
X186490476Y-121555952D01*
X186538095Y-121651190D01*
X186585714Y-121698809D01*
X186680952Y-121746428D01*
X186871428Y-121746428D01*
X186966666Y-121698809D01*
X187014285Y-121651190D01*
X187061904Y-121555952D01*
X172733333Y-122907142D02*
X172685714Y-122954761D01*
X172542857Y-123002380D01*
X172447619Y-123002380D01*
X172304761Y-122954761D01*
X172209523Y-122859523D01*
X172161904Y-122764285D01*
X172114285Y-122573809D01*
X172114285Y-122430952D01*
X172161904Y-122240476D01*
X172209523Y-122145238D01*
X172304761Y-122050000D01*
X172447619Y-122002380D01*
X172542857Y-122002380D01*
X172685714Y-122050000D01*
X172733333Y-122097619D01*
X173209523Y-123002380D02*
X173400000Y-123002380D01*
X173495238Y-122954761D01*
X173542857Y-122907142D01*
X173638095Y-122764285D01*
X173685714Y-122573809D01*
X173685714Y-122192857D01*
X173638095Y-122097619D01*
X173590476Y-122050000D01*
X173495238Y-122002380D01*
X173304761Y-122002380D01*
X173209523Y-122050000D01*
X173161904Y-122097619D01*
X173114285Y-122192857D01*
X173114285Y-122430952D01*
X173161904Y-122526190D01*
X173209523Y-122573809D01*
X173304761Y-122621428D01*
X173495238Y-122621428D01*
X173590476Y-122573809D01*
X173638095Y-122526190D01*
X173685714Y-122430952D01*
X168957142Y-111952380D02*
X168623809Y-111476190D01*
X168385714Y-111952380D02*
X168385714Y-110952380D01*
X168766666Y-110952380D01*
X168861904Y-111000000D01*
X168909523Y-111047619D01*
X168957142Y-111142857D01*
X168957142Y-111285714D01*
X168909523Y-111380952D01*
X168861904Y-111428571D01*
X168766666Y-111476190D01*
X168385714Y-111476190D01*
X169338095Y-111047619D02*
X169385714Y-111000000D01*
X169480952Y-110952380D01*
X169719047Y-110952380D01*
X169814285Y-111000000D01*
X169861904Y-111047619D01*
X169909523Y-111142857D01*
X169909523Y-111238095D01*
X169861904Y-111380952D01*
X169290476Y-111952380D01*
X169909523Y-111952380D01*
X170242857Y-110952380D02*
X170861904Y-110952380D01*
X170528571Y-111333333D01*
X170671428Y-111333333D01*
X170766666Y-111380952D01*
X170814285Y-111428571D01*
X170861904Y-111523809D01*
X170861904Y-111761904D01*
X170814285Y-111857142D01*
X170766666Y-111904761D01*
X170671428Y-111952380D01*
X170385714Y-111952380D01*
X170290476Y-111904761D01*
X170242857Y-111857142D01*
X172733333Y-119902380D02*
X172400000Y-119426190D01*
X172161904Y-119902380D02*
X172161904Y-118902380D01*
X172542857Y-118902380D01*
X172638095Y-118950000D01*
X172685714Y-118997619D01*
X172733333Y-119092857D01*
X172733333Y-119235714D01*
X172685714Y-119330952D01*
X172638095Y-119378571D01*
X172542857Y-119426190D01*
X172161904Y-119426190D01*
X173304761Y-119330952D02*
X173209523Y-119283333D01*
X173161904Y-119235714D01*
X173114285Y-119140476D01*
X173114285Y-119092857D01*
X173161904Y-118997619D01*
X173209523Y-118950000D01*
X173304761Y-118902380D01*
X173495238Y-118902380D01*
X173590476Y-118950000D01*
X173638095Y-118997619D01*
X173685714Y-119092857D01*
X173685714Y-119140476D01*
X173638095Y-119235714D01*
X173590476Y-119283333D01*
X173495238Y-119330952D01*
X173304761Y-119330952D01*
X173209523Y-119378571D01*
X173161904Y-119426190D01*
X173114285Y-119521428D01*
X173114285Y-119711904D01*
X173161904Y-119807142D01*
X173209523Y-119854761D01*
X173304761Y-119902380D01*
X173495238Y-119902380D01*
X173590476Y-119854761D01*
X173638095Y-119807142D01*
X173685714Y-119711904D01*
X173685714Y-119521428D01*
X173638095Y-119426190D01*
X173590476Y-119378571D01*
X173495238Y-119330952D01*
X166202380Y-117473333D02*
X166916666Y-117473333D01*
X167059523Y-117520952D01*
X167154761Y-117616190D01*
X167202380Y-117759047D01*
X167202380Y-117854285D01*
X166630952Y-116854285D02*
X166583333Y-116949523D01*
X166535714Y-116997142D01*
X166440476Y-117044761D01*
X166392857Y-117044761D01*
X166297619Y-116997142D01*
X166250000Y-116949523D01*
X166202380Y-116854285D01*
X166202380Y-116663809D01*
X166250000Y-116568571D01*
X166297619Y-116520952D01*
X166392857Y-116473333D01*
X166440476Y-116473333D01*
X166535714Y-116520952D01*
X166583333Y-116568571D01*
X166630952Y-116663809D01*
X166630952Y-116854285D01*
X166678571Y-116949523D01*
X166726190Y-116997142D01*
X166821428Y-117044761D01*
X167011904Y-117044761D01*
X167107142Y-116997142D01*
X167154761Y-116949523D01*
X167202380Y-116854285D01*
X167202380Y-116663809D01*
X167154761Y-116568571D01*
X167107142Y-116520952D01*
X167011904Y-116473333D01*
X166821428Y-116473333D01*
X166726190Y-116520952D01*
X166678571Y-116568571D01*
X166630952Y-116663809D01*
X172733333Y-121407142D02*
X172685714Y-121454761D01*
X172542857Y-121502380D01*
X172447619Y-121502380D01*
X172304761Y-121454761D01*
X172209523Y-121359523D01*
X172161904Y-121264285D01*
X172114285Y-121073809D01*
X172114285Y-120930952D01*
X172161904Y-120740476D01*
X172209523Y-120645238D01*
X172304761Y-120550000D01*
X172447619Y-120502380D01*
X172542857Y-120502380D01*
X172685714Y-120550000D01*
X172733333Y-120597619D01*
X173590476Y-120502380D02*
X173400000Y-120502380D01*
X173304761Y-120550000D01*
X173257142Y-120597619D01*
X173161904Y-120740476D01*
X173114285Y-120930952D01*
X173114285Y-121311904D01*
X173161904Y-121407142D01*
X173209523Y-121454761D01*
X173304761Y-121502380D01*
X173495238Y-121502380D01*
X173590476Y-121454761D01*
X173638095Y-121407142D01*
X173685714Y-121311904D01*
X173685714Y-121073809D01*
X173638095Y-120978571D01*
X173590476Y-120930952D01*
X173495238Y-120883333D01*
X173304761Y-120883333D01*
X173209523Y-120930952D01*
X173161904Y-120978571D01*
X173114285Y-121073809D01*
X172733333Y-124457142D02*
X172685714Y-124504761D01*
X172542857Y-124552380D01*
X172447619Y-124552380D01*
X172304761Y-124504761D01*
X172209523Y-124409523D01*
X172161904Y-124314285D01*
X172114285Y-124123809D01*
X172114285Y-123980952D01*
X172161904Y-123790476D01*
X172209523Y-123695238D01*
X172304761Y-123600000D01*
X172447619Y-123552380D01*
X172542857Y-123552380D01*
X172685714Y-123600000D01*
X172733333Y-123647619D01*
X173304761Y-123980952D02*
X173209523Y-123933333D01*
X173161904Y-123885714D01*
X173114285Y-123790476D01*
X173114285Y-123742857D01*
X173161904Y-123647619D01*
X173209523Y-123600000D01*
X173304761Y-123552380D01*
X173495238Y-123552380D01*
X173590476Y-123600000D01*
X173638095Y-123647619D01*
X173685714Y-123742857D01*
X173685714Y-123790476D01*
X173638095Y-123885714D01*
X173590476Y-123933333D01*
X173495238Y-123980952D01*
X173304761Y-123980952D01*
X173209523Y-124028571D01*
X173161904Y-124076190D01*
X173114285Y-124171428D01*
X173114285Y-124361904D01*
X173161904Y-124457142D01*
X173209523Y-124504761D01*
X173304761Y-124552380D01*
X173495238Y-124552380D01*
X173590476Y-124504761D01*
X173638095Y-124457142D01*
X173685714Y-124361904D01*
X173685714Y-124171428D01*
X173638095Y-124076190D01*
X173590476Y-124028571D01*
X173495238Y-123980952D01*
X193683333Y-119182142D02*
X193635714Y-119229761D01*
X193492857Y-119277380D01*
X193397619Y-119277380D01*
X193254761Y-119229761D01*
X193159523Y-119134523D01*
X193111904Y-119039285D01*
X193064285Y-118848809D01*
X193064285Y-118705952D01*
X193111904Y-118515476D01*
X193159523Y-118420238D01*
X193254761Y-118325000D01*
X193397619Y-118277380D01*
X193492857Y-118277380D01*
X193635714Y-118325000D01*
X193683333Y-118372619D01*
X194635714Y-119277380D02*
X194064285Y-119277380D01*
X194350000Y-119277380D02*
X194350000Y-118277380D01*
X194254761Y-118420238D01*
X194159523Y-118515476D01*
X194064285Y-118563095D01*
X185157142Y-120777380D02*
X184823809Y-120301190D01*
X184585714Y-120777380D02*
X184585714Y-119777380D01*
X184966666Y-119777380D01*
X185061904Y-119825000D01*
X185109523Y-119872619D01*
X185157142Y-119967857D01*
X185157142Y-120110714D01*
X185109523Y-120205952D01*
X185061904Y-120253571D01*
X184966666Y-120301190D01*
X184585714Y-120301190D01*
X186109523Y-120777380D02*
X185538095Y-120777380D01*
X185823809Y-120777380D02*
X185823809Y-119777380D01*
X185728571Y-119920238D01*
X185633333Y-120015476D01*
X185538095Y-120063095D01*
X186680952Y-120205952D02*
X186585714Y-120158333D01*
X186538095Y-120110714D01*
X186490476Y-120015476D01*
X186490476Y-119967857D01*
X186538095Y-119872619D01*
X186585714Y-119825000D01*
X186680952Y-119777380D01*
X186871428Y-119777380D01*
X186966666Y-119825000D01*
X187014285Y-119872619D01*
X187061904Y-119967857D01*
X187061904Y-120015476D01*
X187014285Y-120110714D01*
X186966666Y-120158333D01*
X186871428Y-120205952D01*
X186680952Y-120205952D01*
X186585714Y-120253571D01*
X186538095Y-120301190D01*
X186490476Y-120396428D01*
X186490476Y-120586904D01*
X186538095Y-120682142D01*
X186585714Y-120729761D01*
X186680952Y-120777380D01*
X186871428Y-120777380D01*
X186966666Y-120729761D01*
X187014285Y-120682142D01*
X187061904Y-120586904D01*
X187061904Y-120396428D01*
X187014285Y-120301190D01*
X186966666Y-120253571D01*
X186871428Y-120205952D01*
X192587261Y-111952380D02*
X192253928Y-111476190D01*
X192015833Y-111952380D02*
X192015833Y-110952380D01*
X192396785Y-110952380D01*
X192492023Y-111000000D01*
X192539642Y-111047619D01*
X192587261Y-111142857D01*
X192587261Y-111285714D01*
X192539642Y-111380952D01*
X192492023Y-111428571D01*
X192396785Y-111476190D01*
X192015833Y-111476190D01*
X192872976Y-110952380D02*
X193206309Y-111952380D01*
X193539642Y-110952380D01*
X194396785Y-111952380D02*
X193825357Y-111952380D01*
X194111071Y-111952380D02*
X194111071Y-110952380D01*
X194015833Y-111095238D01*
X193920595Y-111190476D01*
X193825357Y-111238095D01*
X185157142Y-123427380D02*
X184823809Y-122951190D01*
X184585714Y-123427380D02*
X184585714Y-122427380D01*
X184966666Y-122427380D01*
X185061904Y-122475000D01*
X185109523Y-122522619D01*
X185157142Y-122617857D01*
X185157142Y-122760714D01*
X185109523Y-122855952D01*
X185061904Y-122903571D01*
X184966666Y-122951190D01*
X184585714Y-122951190D01*
X185538095Y-122522619D02*
X185585714Y-122475000D01*
X185680952Y-122427380D01*
X185919047Y-122427380D01*
X186014285Y-122475000D01*
X186061904Y-122522619D01*
X186109523Y-122617857D01*
X186109523Y-122713095D01*
X186061904Y-122855952D01*
X185490476Y-123427380D01*
X186109523Y-123427380D01*
X186728571Y-122427380D02*
X186823809Y-122427380D01*
X186919047Y-122475000D01*
X186966666Y-122522619D01*
X187014285Y-122617857D01*
X187061904Y-122808333D01*
X187061904Y-123046428D01*
X187014285Y-123236904D01*
X186966666Y-123332142D01*
X186919047Y-123379761D01*
X186823809Y-123427380D01*
X186728571Y-123427380D01*
X186633333Y-123379761D01*
X186585714Y-123332142D01*
X186538095Y-123236904D01*
X186490476Y-123046428D01*
X186490476Y-122808333D01*
X186538095Y-122617857D01*
X186585714Y-122522619D01*
X186633333Y-122475000D01*
X186728571Y-122427380D01*
X172733333Y-118352380D02*
X172400000Y-117876190D01*
X172161904Y-118352380D02*
X172161904Y-117352380D01*
X172542857Y-117352380D01*
X172638095Y-117400000D01*
X172685714Y-117447619D01*
X172733333Y-117542857D01*
X172733333Y-117685714D01*
X172685714Y-117780952D01*
X172638095Y-117828571D01*
X172542857Y-117876190D01*
X172161904Y-117876190D01*
X173209523Y-118352380D02*
X173400000Y-118352380D01*
X173495238Y-118304761D01*
X173542857Y-118257142D01*
X173638095Y-118114285D01*
X173685714Y-117923809D01*
X173685714Y-117542857D01*
X173638095Y-117447619D01*
X173590476Y-117400000D01*
X173495238Y-117352380D01*
X173304761Y-117352380D01*
X173209523Y-117400000D01*
X173161904Y-117447619D01*
X173114285Y-117542857D01*
X173114285Y-117780952D01*
X173161904Y-117876190D01*
X173209523Y-117923809D01*
X173304761Y-117971428D01*
X173495238Y-117971428D01*
X173590476Y-117923809D01*
X173638095Y-117876190D01*
X173685714Y-117780952D01*
X172466666Y-127602380D02*
X172466666Y-128316666D01*
X172419047Y-128459523D01*
X172323809Y-128554761D01*
X172180952Y-128602380D01*
X172085714Y-128602380D01*
X172895238Y-127697619D02*
X172942857Y-127650000D01*
X173038095Y-127602380D01*
X173276190Y-127602380D01*
X173371428Y-127650000D01*
X173419047Y-127697619D01*
X173466666Y-127792857D01*
X173466666Y-127888095D01*
X173419047Y-128030952D01*
X172847619Y-128602380D01*
X173466666Y-128602380D01*
X193683333Y-117632142D02*
X193635714Y-117679761D01*
X193492857Y-117727380D01*
X193397619Y-117727380D01*
X193254761Y-117679761D01*
X193159523Y-117584523D01*
X193111904Y-117489285D01*
X193064285Y-117298809D01*
X193064285Y-117155952D01*
X193111904Y-116965476D01*
X193159523Y-116870238D01*
X193254761Y-116775000D01*
X193397619Y-116727380D01*
X193492857Y-116727380D01*
X193635714Y-116775000D01*
X193683333Y-116822619D01*
X194064285Y-116822619D02*
X194111904Y-116775000D01*
X194207142Y-116727380D01*
X194445238Y-116727380D01*
X194540476Y-116775000D01*
X194588095Y-116822619D01*
X194635714Y-116917857D01*
X194635714Y-117013095D01*
X194588095Y-117155952D01*
X194016666Y-117727380D01*
X194635714Y-117727380D01*
X169329666Y-116364380D02*
X169329666Y-117078666D01*
X169282047Y-117221523D01*
X169186809Y-117316761D01*
X169043952Y-117364380D01*
X168948714Y-117364380D01*
X170282047Y-116364380D02*
X169805857Y-116364380D01*
X169758238Y-116840571D01*
X169805857Y-116792952D01*
X169901095Y-116745333D01*
X170139190Y-116745333D01*
X170234428Y-116792952D01*
X170282047Y-116840571D01*
X170329666Y-116935809D01*
X170329666Y-117173904D01*
X170282047Y-117269142D01*
X170234428Y-117316761D01*
X170139190Y-117364380D01*
X169901095Y-117364380D01*
X169805857Y-117316761D01*
X169758238Y-117269142D01*
X174937142Y-129202380D02*
X174603809Y-128726190D01*
X174365714Y-129202380D02*
X174365714Y-128202380D01*
X174746666Y-128202380D01*
X174841904Y-128250000D01*
X174889523Y-128297619D01*
X174937142Y-128392857D01*
X174937142Y-128535714D01*
X174889523Y-128630952D01*
X174841904Y-128678571D01*
X174746666Y-128726190D01*
X174365714Y-128726190D01*
X175889523Y-129202380D02*
X175318095Y-129202380D01*
X175603809Y-129202380D02*
X175603809Y-128202380D01*
X175508571Y-128345238D01*
X175413333Y-128440476D01*
X175318095Y-128488095D01*
X176794285Y-128202380D02*
X176318095Y-128202380D01*
X176270476Y-128678571D01*
X176318095Y-128630952D01*
X176413333Y-128583333D01*
X176651428Y-128583333D01*
X176746666Y-128630952D01*
X176794285Y-128678571D01*
X176841904Y-128773809D01*
X176841904Y-129011904D01*
X176794285Y-129107142D01*
X176746666Y-129154761D01*
X176651428Y-129202380D01*
X176413333Y-129202380D01*
X176318095Y-129154761D01*
X176270476Y-129107142D01*
D11*
X187225000Y-129480000D02*
X187225000Y-126180000D01*
X190525000Y-129480000D02*
X187225000Y-129480000D01*
D10*
X182925000Y-126215000D02*
X182925000Y-127325000D01*
X182925000Y-118375000D02*
X182925000Y-119485000D01*
X182925000Y-127325000D02*
X178775000Y-127325000D01*
X182925000Y-118375000D02*
X178775000Y-118375000D01*
X178775000Y-118375000D02*
X178775000Y-119485000D01*
X182925000Y-126215000D02*
X184050000Y-126215000D01*
X178775000Y-127325000D02*
X178775000Y-126215000D01*
D11*
X175740580Y-125140000D02*
X175459420Y-125140000D01*
X175740580Y-126160000D02*
X175459420Y-126160000D01*
X187122500Y-117737742D02*
X187122500Y-118212258D01*
X186077500Y-117737742D02*
X186077500Y-118212258D01*
X175740580Y-122040000D02*
X175459420Y-122040000D01*
X175740580Y-123060000D02*
X175459420Y-123060000D01*
X166337258Y-110927500D02*
X165862742Y-110927500D01*
X166337258Y-111972500D02*
X165862742Y-111972500D01*
X175837258Y-118927500D02*
X175362742Y-118927500D01*
X175837258Y-119972500D02*
X175362742Y-119972500D01*
X165430000Y-115670000D02*
X165430000Y-118270000D01*
X162770000Y-115670000D02*
X162770000Y-118270000D01*
X162770000Y-115670000D02*
X165430000Y-115670000D01*
X162770000Y-113070000D02*
X164100000Y-113070000D01*
X162770000Y-118270000D02*
X165430000Y-118270000D01*
X162770000Y-114400000D02*
X162770000Y-113070000D01*
X175740580Y-121510000D02*
X175459420Y-121510000D01*
X175740580Y-120490000D02*
X175459420Y-120490000D01*
X175740580Y-123590000D02*
X175459420Y-123590000D01*
X175740580Y-124610000D02*
X175459420Y-124610000D01*
X192560000Y-117834420D02*
X192560000Y-118115580D01*
X191540000Y-117834420D02*
X191540000Y-118115580D01*
X184527500Y-117737742D02*
X184527500Y-118212258D01*
X185572500Y-117737742D02*
X185572500Y-118212258D01*
D12*
X200400000Y-109895000D02*
X195320000Y-109895000D01*
X200400000Y-118785000D02*
X195320000Y-118785000D01*
X195320000Y-109895000D02*
X195320000Y-118785000D01*
X200400000Y-118785000D02*
G75*
G03*
X200400000Y-109895000I0J4445000D01*
G01*
D13*
X197700000Y-109340000D02*
G75*
G03*
X197700000Y-109340000I-100000J0D01*
G01*
D11*
X188672500Y-117737742D02*
X188672500Y-118212258D01*
X187627500Y-117737742D02*
X187627500Y-118212258D01*
X175837258Y-117377500D02*
X175362742Y-117377500D01*
X175837258Y-118422500D02*
X175362742Y-118422500D01*
X162365000Y-129290000D02*
X162365000Y-119650000D01*
X162365000Y-119650000D02*
X164250000Y-119650000D01*
X164250000Y-129290000D02*
X162365000Y-129290000D01*
X162750000Y-119670000D02*
X162750000Y-129270000D01*
X171335000Y-121070000D02*
X171335000Y-127870000D01*
X189990000Y-117834420D02*
X189990000Y-118115580D01*
X191010000Y-117834420D02*
X191010000Y-118115580D01*
X169158000Y-115642000D02*
X194618000Y-115642000D01*
X166558000Y-114312000D02*
X166558000Y-112982000D01*
X169158000Y-115642000D02*
X169158000Y-112982000D01*
X194618000Y-115642000D02*
X194618000Y-112982000D01*
X169158000Y-112982000D02*
X194618000Y-112982000D01*
X166558000Y-112982000D02*
X167888000Y-112982000D01*
X175362742Y-127722500D02*
X175837258Y-127722500D01*
X175362742Y-126677500D02*
X175837258Y-126677500D01*
%LPC*%
D14*
X188545000Y-127020000D03*
X188545000Y-124480000D03*
X188545000Y-121940000D03*
X196805000Y-121940000D03*
X196805000Y-124480000D03*
X196805000Y-127020000D03*
D15*
X183450000Y-125707500D03*
X183450000Y-125072500D03*
X183450000Y-124437500D03*
X183450000Y-123802500D03*
X183450000Y-123167500D03*
X183450000Y-122532500D03*
X183450000Y-121897500D03*
X183450000Y-121262500D03*
X183450000Y-120627500D03*
X183450000Y-119992500D03*
X178250000Y-119992500D03*
X178250000Y-120627500D03*
X178250000Y-121262500D03*
X178250000Y-121897500D03*
X178250000Y-122532500D03*
X178250000Y-123167500D03*
X178250000Y-123802500D03*
X178250000Y-124437500D03*
X178250000Y-125072500D03*
X178250000Y-125707500D03*
D16*
X176375000Y-125650000D03*
X174825000Y-125650000D03*
D17*
X186600000Y-117150000D03*
X186600000Y-118800000D03*
D16*
X176375000Y-122550000D03*
X174825000Y-122550000D03*
D18*
X166925000Y-111450000D03*
X165275000Y-111450000D03*
X176425000Y-119450000D03*
X174775000Y-119450000D03*
D19*
X164100000Y-114400000D03*
D20*
X164100000Y-116940000D03*
D16*
X176375000Y-121000000D03*
X174825000Y-121000000D03*
X176375000Y-124100000D03*
X174825000Y-124100000D03*
D21*
X192050000Y-117200000D03*
X192050000Y-118750000D03*
D17*
X185050000Y-117150000D03*
X185050000Y-118800000D03*
D22*
X197530000Y-111800000D03*
D23*
X197530000Y-114340000D03*
X197530000Y-116880000D03*
D17*
X188150000Y-117150000D03*
X188150000Y-118800000D03*
D18*
X176425000Y-117900000D03*
X174775000Y-117900000D03*
D24*
X170415000Y-121495000D03*
X170415000Y-122345000D03*
X170415000Y-123195000D03*
X170415000Y-124045000D03*
X170415000Y-124895000D03*
X170415000Y-125745000D03*
X170415000Y-126595000D03*
X170415000Y-127445000D03*
X169065000Y-127445000D03*
X169065000Y-126595000D03*
X169065000Y-125745000D03*
X169065000Y-124895000D03*
X169065000Y-124045000D03*
X169065000Y-123195000D03*
X169065000Y-122345000D03*
X169065000Y-121495000D03*
D25*
X169915000Y-120150000D03*
D26*
X165765000Y-120150000D03*
X165765000Y-128790000D03*
D25*
X169915000Y-128790000D03*
D21*
X190500000Y-117200000D03*
X190500000Y-118750000D03*
D19*
X167888000Y-114312000D03*
D20*
X170428000Y-114312000D03*
X172968000Y-114312000D03*
X175508000Y-114312000D03*
X178048000Y-114312000D03*
X180588000Y-114312000D03*
X183128000Y-114312000D03*
X185668000Y-114312000D03*
X188208000Y-114312000D03*
X190748000Y-114312000D03*
X193288000Y-114312000D03*
D27*
X174775000Y-127200000D03*
X176425000Y-127200000D03*
D28*
X194100000Y-128200000D03*
X191150000Y-126950000D03*
X194100000Y-125700000D03*
X191600000Y-128200000D03*
X192850000Y-125250000D03*
X192850000Y-128650000D03*
D29*
X192850000Y-126950000D03*
D28*
X194550000Y-126950000D03*
X191600000Y-125700000D03*
D29*
X165900000Y-125100000D03*
D28*
X167150000Y-126350000D03*
X167150000Y-123850000D03*
X164650000Y-126350000D03*
X164200000Y-125100000D03*
X165900000Y-126800000D03*
X164650000Y-123850000D03*
X167600000Y-125100000D03*
X165900000Y-123400000D03*
M02*
